<svg width="80" height="65" viewBox="0 0 80 65" fill="none" xmlns="http://www.w3.org/2000/svg">
<g clip-path="url(#clip0_281_9420)">
<path d="M80.0006 15.657C79.6854 17.2863 79.3472 18.9135 79.0571 20.5489C77.8276 27.4712 76.6106 34.3956 75.3895 41.32C75.1536 42.6592 74.8906 43.9943 74.6819 45.3377C74.1558 48.7217 71.8785 50.3119 68.4551 49.668C68.1754 49.6165 67.8915 49.5919 67.4907 49.5384C67.4907 49.8572 67.4907 50.1247 67.4907 50.3941C67.4907 53.5827 67.4907 56.7713 67.4907 59.9599C67.4907 63.1979 65.6538 64.9979 62.3495 64.9979C43.6525 64.9979 24.9556 64.9979 6.26073 64.9938C5.40489 64.9938 4.53653 64.9979 3.69531 64.8663C1.58076 64.5392 0.00893864 62.7145 0.00685123 60.6141C-0.00358583 50.0979 -0.00358583 39.5817 0.00685123 29.0655C0.00893864 26.7883 1.84377 24.8607 4.15036 24.7496C5.76184 24.6735 7.3775 24.7085 8.99315 24.7229C9.52753 24.7291 9.79472 24.655 9.90535 24.0152C11.0555 17.3397 12.2558 10.6725 13.4373 4.00319C13.9153 1.29803 16.1697 -0.382667 18.8958 0.0740217C24.3753 0.993571 29.8422 1.97895 35.3154 2.93964C41.9137 4.09782 48.5099 5.25394 55.1061 6.41418C60.475 7.36047 65.8438 8.31088 71.2126 9.25923C72.7969 9.539 74.3813 9.82495 75.9677 10.1027C77.9508 10.4503 79.2324 11.5756 79.8399 13.4661C79.8774 13.5834 79.9463 13.6924 80.0006 13.8055V15.657ZM33.6935 62.41C43.2476 62.41 52.8037 62.41 62.3578 62.41C64.2156 62.41 64.8669 61.7805 64.8669 59.9784C64.8669 49.8757 64.8669 39.773 64.8669 29.6703C64.8669 27.9197 64.1989 27.2594 62.41 27.2594C43.2997 27.2594 24.1916 27.2594 5.08135 27.2594C3.27782 27.2594 2.61611 27.9053 2.61611 29.658C2.61611 39.7607 2.61611 49.8634 2.61611 59.9661C2.61611 61.7867 3.25277 62.408 5.10848 62.41C14.6375 62.41 24.1665 62.41 33.6956 62.41H33.6935ZM14.698 11.8224C13.9341 16.1569 13.1888 20.3885 12.4269 24.7167C12.8945 24.7167 13.2285 24.7167 13.5625 24.7167C29.886 24.7167 46.2096 24.7167 62.5311 24.7167C65.6476 24.7167 67.4887 26.5291 67.4907 29.5881C67.4907 34.7289 67.4907 39.8697 67.4907 45.0126C67.4907 46.4334 68.2325 47.1548 69.7159 47.1768C71.1959 47.1994 71.7929 46.6892 72.0455 45.2636C73.1706 38.872 74.3082 32.4825 75.4375 26.0909C75.64 24.943 75.8216 23.7889 76.0157 22.6164C55.5278 19.0102 35.1547 15.4225 14.698 11.8204V11.8224ZM15.1385 9.28392C35.6139 12.8881 56.0246 16.4819 76.4875 20.084C76.7902 18.3622 77.12 16.7576 77.3412 15.1365C77.5375 13.6986 76.859 12.8695 75.3728 12.6021C72.3565 12.0631 69.3381 11.5468 66.3197 11.016C58.6234 9.66243 50.9271 8.30882 43.2329 6.95316C34.9752 5.49669 26.7194 4.03611 18.4616 2.5817C17.4117 2.39655 16.3367 3.00753 16.1154 4.02994C15.7397 5.75383 15.4662 7.4983 15.1406 9.28392H15.1385Z" fill="black"/>
<path d="M14.9724 50.709C13.4632 50.709 11.954 50.7234 10.4448 50.7048C8.36577 50.6802 7.05697 49.3615 7.04444 47.3044C7.03818 46.1997 7.03401 45.095 7.04444 43.9903C7.06323 42.0566 8.43883 40.6762 10.3822 40.668C13.4277 40.6536 16.4712 40.6556 19.5167 40.668C21.4184 40.6762 22.7731 41.9331 22.8545 43.8154C22.9088 45.0723 22.9088 46.3354 22.8545 47.5924C22.7731 49.4541 21.4747 50.6555 19.5814 50.711C19.5292 50.711 19.4771 50.711 19.4249 50.711C17.9407 50.711 16.4587 50.711 14.9745 50.711L14.9724 50.709ZM14.9182 43.2579C13.4611 43.2579 12.0041 43.2723 10.5492 43.2518C9.91672 43.2435 9.65162 43.4966 9.66414 44.1199C9.68502 45.1731 9.69128 46.2264 9.66414 47.2776C9.64744 47.9236 9.96055 48.1478 10.5617 48.1457C13.5008 48.1416 16.4399 48.1396 19.379 48.1457C19.9947 48.1457 20.2911 47.8742 20.2849 47.2632C20.2765 46.2367 20.2703 45.2081 20.287 44.1816C20.2974 43.4904 19.9885 43.2291 19.2892 43.2456C17.8343 43.2806 16.3773 43.2559 14.9202 43.2559L14.9182 43.2579Z" fill="#EF7B10"/>
<path d="M40.7109 57.3206C39.5419 57.3206 38.373 57.3309 37.2061 57.3165C36.3461 57.3062 35.8222 56.8454 35.7888 56.111C35.7533 55.354 36.2877 54.7697 37.1581 54.7574C39.5732 54.7286 41.9884 54.7286 44.4014 54.7574C45.2823 54.7677 45.8063 55.3334 45.777 56.1007C45.7499 56.8639 45.2176 57.3103 44.295 57.3185C43.101 57.3288 41.907 57.3206 40.7109 57.3206Z" fill="#EF7B10"/>
<path d="M26.6152 57.3206C25.4462 57.3206 24.2794 57.3309 23.1104 57.3165C22.24 57.3062 21.7348 56.8557 21.7035 56.1069C21.6722 55.3272 22.1794 54.7677 23.0645 54.7574C25.4796 54.7286 27.8927 54.7286 30.3078 54.7574C31.1699 54.7677 31.7335 55.3684 31.698 56.1007C31.6626 56.8413 31.099 57.3103 30.1972 57.3165C29.0032 57.3268 27.8092 57.3185 26.6152 57.3185V57.3206Z" fill="#EF7B10"/>
<path d="M54.8462 57.3206C53.6773 57.3206 52.5104 57.3288 51.3415 57.3186C50.4543 57.3103 49.8824 56.8166 49.8657 56.076C49.8469 55.3457 50.4188 54.7656 51.2872 54.7574C53.6752 54.7327 56.0653 54.7327 58.4533 54.7574C59.353 54.7656 59.8748 55.2943 59.8686 56.0596C59.8623 56.8351 59.3363 57.3103 58.4303 57.3186C57.2363 57.3309 56.0423 57.3227 54.8483 57.3206H54.8462Z" fill="#EF7B10"/>
<path d="M12.5935 57.3185C11.3995 57.3185 10.2055 57.3288 9.01146 57.3144C8.16815 57.3041 7.6296 56.8248 7.5962 56.1007C7.5628 55.3437 8.09927 54.7677 8.97598 54.7574C11.3911 54.7286 13.8042 54.7286 16.2193 54.7574C17.0772 54.7677 17.6533 55.3828 17.6116 56.1048C17.5719 56.8125 17.0062 57.3062 16.1755 57.3165C14.9815 57.3309 13.7875 57.3206 12.5935 57.3206V57.3185Z" fill="#EF7B10"/>
</g>
<defs>
<clipPath id="clip0_281_9420">
<rect width="80" height="65" fill="white"/>
</clipPath>
</defs>
</svg>
