<svg width="94" height="94" viewBox="0 0 94 94" fill="none" xmlns="http://www.w3.org/2000/svg">
<circle cx="47" cy="47" r="47" fill="url(#paint0_linear_888_20)"/>
<circle cx="46.8375" cy="46.8375" r="35.8375" fill="url(#paint1_linear_888_20)"/>
<g clip-path="url(#clip0_888_20)">
<path d="M34.7794 46.5923C34.7794 48.1772 34.7941 49.7632 34.7684 51.348C34.7623 51.7341 34.8613 51.9187 35.2477 52.0577C37.4301 52.8478 39.5942 53.6881 41.7766 54.4758C43.1251 54.9625 44.0238 55.8364 44.5141 57.1635C45.0679 58.6644 45.6756 60.145 46.2551 61.6363C46.5082 62.2873 46.3651 62.6038 45.6939 62.8483C42.8721 63.8745 40.0453 64.8911 37.2247 65.9221C36.8811 66.048 36.5852 66.0216 36.2686 65.849C34.1241 64.6849 31.9698 63.5376 29.8277 62.3676C27.8042 61.2623 26.7124 58.9917 27.0658 56.7535C27.7309 52.5504 28.3764 48.3438 29.0305 44.1395C29.1797 43.1805 29.3289 42.2214 29.4854 41.2636C29.703 39.9329 30.8987 38.957 32.2498 39.0014C33.646 39.0481 34.7403 40.036 34.8882 41.3894C34.9066 41.5525 34.9163 41.7179 34.9139 41.881C34.9029 42.6734 34.8809 43.4658 34.8735 44.2582C34.8662 45.0363 34.8723 45.8143 34.8723 46.5911H34.7782L34.7794 46.5923ZM44.6852 61.6651C44.1314 60.2541 43.5885 58.8958 43.0665 57.5279C42.7571 56.7175 42.2057 56.1781 41.3768 55.8856C40.5466 55.5919 39.7274 55.2718 38.9021 54.9649C37.309 54.3727 35.7196 53.7708 34.1216 53.1918C33.1032 52.8226 32.1104 53.187 31.6177 54.0753C31.0186 55.1531 31.5113 56.4418 32.7327 56.907C34.8307 57.7066 36.9398 58.4774 39.0415 59.2674C39.5184 59.4461 39.7286 59.8189 39.6039 60.2049C39.4743 60.6065 39.0525 60.8211 38.605 60.6557C36.3566 59.8237 34.0947 59.0217 31.8769 58.1178C30.6236 57.6071 29.9585 56.5545 29.8729 55.231C29.791 53.9627 30.3009 52.8969 31.4 52.2076C31.9453 51.8659 32.608 51.7029 33.2914 51.4284C33.2878 51.4619 33.3049 51.3756 33.3061 51.2881C33.3477 48.1016 33.3917 44.9164 33.4247 41.7299C33.432 41.025 32.976 40.5155 32.3329 40.4616C31.6213 40.4016 31.0601 40.826 30.9452 41.5405C30.6628 43.2956 30.3913 45.0518 30.1163 46.8069C29.6064 50.0521 29.1161 53.3009 28.5794 56.5425C28.2224 58.7028 28.9706 60.2553 30.9428 61.3018C32.4821 62.1194 34.0446 62.9023 35.5338 63.8026C36.4556 64.36 37.2442 64.4427 38.2688 64.0196C40.3546 63.1576 42.5077 62.4515 44.6877 61.6615L44.6852 61.6651Z" fill="black"/>
<path d="M67.9884 57.5867C67.9309 59.705 67.0103 61.3498 65.1115 62.4C63.0306 63.5508 60.9215 64.6561 58.8345 65.7974C58.442 66.012 58.096 66.0396 57.6705 65.8825C54.8951 64.8575 52.1112 63.8541 49.3309 62.8435C48.6474 62.5954 48.4995 62.2969 48.7526 61.6459C49.3578 60.085 49.9716 58.5266 50.5792 56.9657C51.0353 55.7945 51.8581 54.996 53.0575 54.5525C55.3059 53.7217 57.547 52.8717 59.7991 52.0493C60.1403 51.9247 60.2503 51.7652 60.2442 51.4044C60.1818 48.2347 60.1451 45.0638 60.095 41.8941C60.0779 40.7876 60.4899 39.9017 61.4888 39.3502C62.4131 38.8395 63.3619 38.8719 64.2691 39.4054C65.2093 39.9592 65.4807 40.8679 65.6299 41.8678C66.1422 45.2784 66.685 48.6843 67.2181 52.0913C67.4736 53.7289 67.7353 55.3653 67.9859 57.0041C68.0153 57.1935 67.9896 57.3925 67.9896 57.5867H67.9884ZM50.3249 61.6627C52.8949 62.5942 55.4025 63.5077 57.9187 64.3996C58.0826 64.4583 58.3369 64.39 58.5056 64.3001C60.4728 63.2535 62.4327 62.1938 64.3914 61.1304C65.4001 60.5825 66.0456 59.753 66.3831 58.6704C66.6912 57.679 66.4442 56.7175 66.2914 55.7465C65.5504 51.0267 64.8144 46.3058 64.0747 41.5848C64.0062 41.1449 63.7935 40.796 63.3803 40.5898C62.5452 40.1738 61.5842 40.7589 61.5915 41.7071C61.6184 44.908 61.6661 48.1076 61.7089 51.3085C61.7089 51.3948 61.7346 51.4811 61.7468 51.5566C61.7957 51.5758 61.8226 51.5938 61.8507 51.5962C63.6712 51.788 64.8719 52.9113 65.1347 54.6676C65.3573 56.1553 64.3902 57.6538 62.7873 58.276C61.7554 58.6764 60.7137 59.0516 59.6757 59.4401C58.6242 59.8333 57.5752 60.2337 56.52 60.6173C55.883 60.8487 55.3059 60.4734 55.3964 59.9004C55.4539 59.5312 55.7229 59.3597 56.0591 59.2351C58.151 58.4618 60.243 57.6886 62.3276 56.8938C63.412 56.4802 63.9121 55.3497 63.5086 54.3199C63.1149 53.3141 61.9828 52.7842 60.9215 53.1726C58.3992 54.0945 55.8891 55.0476 53.3766 55.9935C52.7959 56.2116 52.3398 56.6061 52.1087 57.1623C51.4962 58.6381 50.9277 60.1306 50.3237 61.6627H50.3249Z" fill="black"/>
<path d="M35.6692 34.8403C35.7719 34.0287 35.9137 32.9341 36.0482 31.8384C36.0922 31.4836 36.3086 31.281 36.6277 31.1563C40.1196 29.7908 43.6078 28.417 47.1045 27.0683C47.3442 26.976 47.6865 26.9784 47.9274 27.0707C51.4082 28.4158 54.8793 29.7872 58.3565 31.1407C58.7881 31.3085 58.9446 31.6166 59.0143 32.0242C59.7931 36.5917 58.9605 40.8571 56.4516 44.7797C54.3719 48.0309 51.4853 50.3698 47.8601 51.8192C47.6633 51.8983 47.3747 51.9079 47.1828 51.8275C41.2383 49.3436 37.5606 44.9883 36.0947 38.8275C35.9565 38.2473 35.877 37.6515 35.8135 37.0581C35.745 36.4191 35.7267 35.7753 35.668 34.8391L35.6692 34.8403ZM57.9188 35.4145C57.8222 34.4638 57.7464 33.6462 57.6535 32.8298C57.6254 32.5817 57.5581 32.3827 57.2476 32.2628C54.1054 31.052 50.9742 29.8124 47.8332 28.5968C47.6462 28.5249 47.3809 28.5189 47.195 28.5908C44.0981 29.7896 41.0109 31.0148 37.9103 32.2041C37.5129 32.3563 37.3882 32.5829 37.3454 32.9449C37.1584 34.5561 37.1266 36.1662 37.4188 37.769C38.4825 43.5857 41.7482 47.7575 47.1889 50.2871C47.3625 50.3674 47.6437 50.377 47.8124 50.2966C54.1946 47.2493 57.4224 42.1651 57.9176 35.4145H57.9188Z" fill="#EF7B10"/>
<path d="M47.5115 33.5456C50.9838 33.548 53.5672 36.0847 53.5843 39.5073C53.6002 42.7405 50.8518 45.4103 47.5066 45.4103C44.1615 45.4103 41.4093 42.7321 41.4338 39.5025C41.4607 36.0739 44.0429 33.542 47.5115 33.5456ZM47.5286 43.9309C50.1842 43.9106 52.1208 41.9673 52.094 39.3503C52.0695 36.9202 50.0045 34.9554 47.487 34.9674C44.9317 34.9794 42.8985 36.9886 42.9193 39.4797C42.9413 42.0296 44.9293 43.9513 47.5274 43.9297L47.5286 43.9309Z" fill="#EF7B10"/>
<path d="M46.9534 40.1523C47.6099 39.2807 48.1956 38.5027 48.7812 37.7246C48.8802 37.5928 48.9732 37.4549 49.0795 37.3278C49.3852 36.9574 49.7679 36.8843 50.1212 37.124C50.4794 37.3674 50.5504 37.7918 50.2606 38.1874C49.5405 39.1704 48.8044 40.1427 48.0733 41.1185C47.9376 41.2995 47.8104 41.4877 47.6588 41.6544C47.3593 41.9852 46.9301 42.0392 46.6049 41.7383C45.9728 41.1545 45.3578 40.5503 44.7624 39.9293C44.4787 39.6332 44.524 39.2304 44.8015 38.9594C45.079 38.6885 45.5253 38.6681 45.8285 38.9594C46.2075 39.3239 46.5535 39.7231 46.9534 40.1511V40.1523Z" fill="#EF7B10"/>
</g>
<defs>
<linearGradient id="paint0_linear_888_20" x1="76.4396" y1="12.3956" x2="19.6264" y2="86.2527" gradientUnits="userSpaceOnUse">
<stop stop-color="#FBFBFB"/>
<stop offset="1" stop-color="#EFF1F3"/>
</linearGradient>
<linearGradient id="paint1_linear_888_20" x1="69.2852" y1="20.4517" x2="25.9651" y2="76.7678" gradientUnits="userSpaceOnUse">
<stop stop-color="#EEF0F2"/>
<stop offset="1" stop-color="#FDFEFE"/>
</linearGradient>
<clipPath id="clip0_888_20">
<rect width="41" height="39" fill="white" transform="translate(27 27)"/>
</clipPath>
</defs>
</svg>
