<svg width="47" height="47" viewBox="0 0 47 47" fill="none" xmlns="http://www.w3.org/2000/svg">
<g id="Layer_1" clip-path="url(#clip0_548_50)">
<path id="Vector" d="M18.1964 39.6266C18.1964 38.8533 18.1802 38.0778 18.2033 37.3069C18.2126 36.9921 18.1153 36.8462 17.8237 36.7166C13.5223 34.7904 10.7373 31.5448 9.5358 26.9934C7.40133 18.9069 12.9065 10.5519 21.1619 9.28099C28.8433 8.10032 35.8717 12.8693 37.5872 20.4256C39.0873 27.0351 35.5962 33.8714 29.2739 36.6772C28.9266 36.8323 28.7877 37.0013 28.797 37.3949C28.8247 38.8163 28.8132 40.2354 28.8062 41.6569C28.7946 44.4835 26.6116 46.8472 23.8844 46.9907C20.9953 47.1435 18.5344 45.1202 18.2288 42.2773C18.1339 41.4045 18.2149 40.5109 18.2149 39.6266C18.2103 39.6266 18.2033 39.6266 18.1987 39.6266H18.1964ZM27.2945 37.888C27.2945 37.4759 27.2945 37.1147 27.2945 36.7513C27.2945 35.8762 27.3477 35.7998 28.1788 35.4734C33.89 33.2371 37.233 27.3175 36.1935 21.2799C34.9851 14.256 28.2251 9.48935 21.1874 10.8298C16.3004 11.7604 12.9088 14.6612 11.3184 19.3723C9.73258 24.0672 10.728 28.3685 13.9645 32.1189C15.328 33.7001 17.0365 34.8229 18.9997 35.5405C19.4905 35.7188 19.7521 36.0128 19.715 36.5615C19.6849 36.9967 19.7081 37.4342 19.7081 37.8857H27.2922L27.2945 37.888ZM27.2829 39.4483H19.7451V41.6569H27.2829V39.4483ZM26.894 43.2357H20.1063C20.5438 44.4951 21.9907 45.4605 23.4492 45.4836C24.9285 45.5068 26.4148 44.546 26.894 43.2357Z" fill="black"/>
<path id="Vector_2" d="M35.3113 12.793C34.9617 12.411 34.6353 12.0522 34.2695 11.6517C34.8622 11.0613 35.4849 10.4247 36.1262 9.80656C36.3484 9.59126 36.4295 9.41764 36.3322 9.07964C35.9688 7.81794 36.7698 6.53078 38.0292 6.27612C39.4066 5.99832 40.6243 6.88961 40.7933 8.29947C40.9415 9.53339 39.9067 10.7117 38.6079 10.7743C38.4065 10.7835 38.182 10.7743 38.006 10.6955C37.6125 10.5127 37.381 10.6816 37.1217 10.9595C36.5406 11.5799 35.9294 12.1725 35.3113 12.7953V12.793ZM39.2515 8.51245C39.2584 8.07954 38.9552 7.7647 38.5292 7.76007C38.1032 7.75544 37.793 8.06797 37.7953 8.50088C37.7953 8.9199 38.0801 9.2116 38.4945 9.22549C38.9343 9.23938 39.2446 8.94768 39.2515 8.51245Z" fill="black"/>
<path id="Vector_3" d="M12.7759 11.6632C12.387 12.0637 12.049 12.4133 11.6832 12.793C11.0304 12.1286 10.3822 11.4827 9.74783 10.8206C9.56263 10.6284 9.4052 10.5844 9.12971 10.6631C7.83329 11.0359 6.50908 10.2464 6.26137 8.98474C6.00672 7.69295 6.82393 6.45903 8.06248 6.26456C9.4515 6.04695 10.6368 6.94287 10.7688 8.32264C10.785 8.49164 10.7896 8.68378 10.7248 8.83658C10.5141 9.33663 10.6924 9.66999 11.0743 10.008C11.6647 10.5289 12.2064 11.1053 12.7736 11.6609L12.7759 11.6632ZM8.49771 7.75545C8.06479 7.75545 7.75458 8.06567 7.75921 8.49858C7.76152 8.91066 8.05553 9.2093 8.46992 9.21856C8.9121 9.22782 9.22926 8.93149 9.2362 8.50321C9.24315 8.07261 8.93293 7.75777 8.50002 7.75777L8.49771 7.75545Z" fill="black"/>
<path id="Vector_4" d="M11.68 34.2209C12.0458 34.596 12.3861 34.9456 12.7588 35.3275C12.1268 35.9549 11.4902 36.6031 10.835 37.2351C10.6336 37.4296 10.5734 37.5893 10.6614 37.8857C11.0225 39.108 10.3095 40.3697 9.10569 40.71C7.92501 41.0434 6.64479 40.3442 6.29522 39.1728C5.93639 37.969 6.59155 36.698 7.8 36.3786C8.20976 36.2698 8.6774 36.2906 9.10106 36.3647C9.39275 36.4156 9.55943 36.3739 9.7539 36.1725C10.3859 35.5151 11.0364 34.8738 11.68 34.2233V34.2209ZM9.22375 38.5107C9.22607 38.0755 8.91585 37.7606 8.48525 37.7653C8.05697 37.7676 7.74907 38.0871 7.75601 38.52C7.76296 38.9297 8.0616 39.233 8.46905 39.24C8.90196 39.2469 9.22144 38.939 9.22375 38.5107Z" fill="black"/>
<path id="Vector_5" d="M34.2207 35.3299C34.6143 34.9386 34.9592 34.596 35.318 34.2395C35.9709 34.8923 36.6168 35.5614 37.2951 36.1957C37.4201 36.3138 37.684 36.3809 37.853 36.3416C39.1703 36.0221 40.4505 36.7328 40.7306 37.969C41.0154 39.2215 40.2097 40.5086 38.999 40.7401C37.6516 40.9971 36.4663 40.1753 36.2579 38.8048C36.2116 38.5038 36.2417 38.1658 36.339 37.8787C36.4408 37.5778 36.3482 37.4181 36.1514 37.2259C35.5056 36.6032 34.8712 35.9688 34.223 35.3299H34.2207ZM39.2443 38.527C39.2513 38.094 38.9457 37.7792 38.5151 37.7769C38.0799 37.7769 37.7743 38.0802 37.7766 38.5177C37.7789 38.9321 38.0706 39.2307 38.4804 39.2423C38.9179 39.2539 39.2374 38.9529 39.2443 38.527Z" fill="black"/>
<path id="Vector_6" d="M24.215 7.55396H22.7426C22.7426 6.65109 22.7333 5.77137 22.7472 4.89397C22.7519 4.58376 22.6917 4.39624 22.3815 4.22956C21.4531 3.73182 21.0272 2.67153 21.3003 1.69227C21.5897 0.655131 22.4671 -0.00928668 23.5367 -2.65067e-05C24.5807 0.00923366 25.4582 0.715322 25.7221 1.76172C25.9628 2.72015 25.5137 3.76655 24.6016 4.24576C24.3099 4.39855 24.2474 4.57681 24.252 4.87082C24.2659 5.72276 24.2543 6.57469 24.252 7.42895C24.252 7.45904 24.2358 7.48682 24.2173 7.55627L24.215 7.55396ZM24.252 2.24788C24.2358 1.85201 23.8492 1.49549 23.4626 1.51864C23.0852 1.53948 22.7449 1.89831 22.7449 2.27335C22.7449 2.6669 23.1176 3.03499 23.5089 3.02805C23.9024 3.0211 24.2659 2.63912 24.2497 2.2502L24.252 2.24788Z" fill="black"/>
<path id="Vector_7" d="M7.55867 22.743V24.2548C6.63034 24.2548 5.71821 24.264 4.8084 24.2501C4.54448 24.2455 4.39632 24.3173 4.25973 24.5696C3.75042 25.5188 2.72254 25.9679 1.74559 25.7155C0.685304 25.4424 -0.00689334 24.5534 5.17841e-05 23.4723C0.00699691 22.4259 0.71077 21.5462 1.75485 21.2822C2.7318 21.0345 3.75968 21.4883 4.26436 22.4374C4.40095 22.6944 4.55374 22.7546 4.81534 22.75C5.71358 22.7384 6.61181 22.7453 7.55867 22.7453V22.743ZM2.2549 22.743C1.85903 22.7546 1.5002 23.1343 1.51872 23.5255C1.53724 23.9029 1.88913 24.2455 2.26416 24.2501C2.65541 24.2548 3.02813 23.882 3.02581 23.4908C3.0235 23.0972 2.64615 22.7315 2.2549 22.743Z" fill="black"/>
<path id="Vector_8" d="M39.4222 24.257C39.4222 23.8171 39.4222 23.4421 39.4222 23.0647C39.4222 22.9744 39.4315 22.8818 39.4384 22.7453C40.3436 22.7453 41.2233 22.7383 42.1031 22.7499C42.404 22.7545 42.5985 22.7082 42.7698 22.3864C43.2652 21.4535 44.3255 21.0298 45.3048 21.303C46.3396 21.59 47.0086 22.4698 46.9994 23.537C46.9924 24.5649 46.3072 25.4307 45.2839 25.7085C44.3047 25.9747 43.2513 25.5349 42.7536 24.6042C42.6008 24.3172 42.4272 24.2477 42.1285 24.2523C41.2465 24.2686 40.3645 24.2593 39.4199 24.2593L39.4222 24.257ZM45.4807 23.4838C45.4691 23.0879 45.0895 22.729 44.6982 22.7453C44.3209 22.7638 43.9782 23.1157 43.9736 23.4907C43.969 23.8819 44.3394 24.2547 44.7306 24.2523C45.1242 24.25 45.49 23.8727 45.4807 23.4814V23.4838Z" fill="black"/>
<path id="Vector_9" d="M23.7956 28.0283H22.2144C21.9806 27.137 21.7352 26.2619 21.5222 25.3775C21.4528 25.0928 21.3324 25.0002 21.043 25.0094C20.2721 25.0303 19.4989 25.0164 18.7002 25.0164C18.4293 26.0327 18.1631 27.0305 17.8969 28.0329H16.3203C16.7023 26.5652 17.0773 25.1229 17.4547 23.6806C17.7973 22.3726 18.1446 21.0646 18.4895 19.7566C18.6585 19.1153 18.8622 18.9556 19.5151 18.9533C19.9248 18.9533 20.3369 18.9626 20.7467 18.951C21.1958 18.9394 21.469 19.1709 21.5755 19.5784C22.3163 22.3749 23.0478 25.1738 23.7956 28.0283ZM21.0083 23.4815C20.7606 22.5254 20.5221 21.5971 20.2721 20.6734C20.2489 20.5923 20.11 20.4673 20.0707 20.4835C19.9758 20.5183 19.86 20.6132 19.8322 20.7058C19.6771 21.2498 19.5452 21.8008 19.4039 22.3471C19.309 22.7176 19.2095 23.0856 19.1053 23.4792H21.0083V23.4815Z" fill="#EF7B10"/>
<path id="Vector_10" d="M27.2302 26.5489V20.4789H25.3967V18.9788H30.6657V20.4558H28.8207V26.5165H30.6611V28.0097H25.3828V26.5513H27.2325L27.2302 26.5489Z" fill="#EF7B10"/>
</g>
<defs>
<clipPath id="clip0_548_50">
<rect width="47" height="47" fill="white"/>
</clipPath>
</defs>
</svg>
