<svg width="10" height="8" viewBox="0 0 10 8" fill="none" xmlns="http://www.w3.org/2000/svg">
<g clip-path="url(#clip0_281_11853)">
<path d="M8.40709 3.25262C8.41333 3.24032 8.41958 3.22775 8.4261 3.21546C8.39488 3.19305 8.35998 3.1742 8.33273 3.14797C7.58972 2.43376 6.84728 1.71874 6.10483 1.00344C6.06964 0.969557 6.03388 0.93595 6.00294 0.899065C5.87097 0.741961 5.86643 0.531032 5.98904 0.367371C6.16017 0.139229 6.48003 0.124202 6.70111 0.337043C7.73758 1.33376 8.7732 2.33158 9.8091 3.32912C10.064 3.57475 10.0637 3.8089 9.80797 4.05508C8.78711 5.03814 7.76625 6.0212 6.7451 7.00426C6.72013 7.0283 6.69544 7.05316 6.66876 7.07584C6.42071 7.2854 6.03473 7.18404 5.93597 6.88076C5.8741 6.69114 5.93994 6.5365 6.08269 6.39934C6.83677 5.67639 7.5883 4.95098 8.34096 4.22639C8.36679 4.20152 8.39176 4.17584 8.43689 4.13076C8.36395 4.13076 8.32251 4.13076 8.28108 4.13076C5.71261 4.13076 3.14442 4.13076 0.575954 4.13076C0.519193 4.13076 0.462148 4.13049 0.405953 4.12475C0.185434 4.10234 0.0174189 3.93185 0.000957489 3.71655C-0.0140839 3.52065 0.132929 3.31846 0.335284 3.27065C0.40652 3.25371 0.482864 3.25371 0.556939 3.25371C3.1325 3.25289 5.70778 3.25316 8.28335 3.25316C8.3245 3.25316 8.36594 3.25316 8.40709 3.25316V3.25262Z" fill="#003671"/>
</g>
<defs>
<clipPath id="clip0_281_11853">
<rect width="10" height="7" fill="white" transform="matrix(-1 0 0 1 10 0.186157)"/>
</clipPath>
</defs>
</svg>
