<svg width="10" height="5" viewBox="0 0 10 5" fill="none" xmlns="http://www.w3.org/2000/svg">
<path d="M5.00427 4.01386C5.0569 3.9515 5.08454 3.91027 5.12089 3.87666C6.46849 2.64225 7.81684 1.40923 9.16405 0.174821C9.27121 0.0764288 9.3848 0.000555752 9.54573 0.00436673C9.72861 0.00887061 9.86303 0.0847437 9.94558 0.2306C10.0315 0.382346 10.0145 0.532014 9.90506 0.669902C9.86909 0.71494 9.8229 0.753397 9.77935 0.793239C8.32081 2.12812 6.86228 3.46265 5.40374 4.79719C5.10764 5.06811 4.88992 5.06777 4.59344 4.79649C3.12468 3.45261 1.65629 2.10872 0.186774 0.765869C0.0792385 0.667476 -0.00330599 0.563887 0.000101813 0.416645C0.00464555 0.243072 0.0940056 0.118003 0.259473 0.0442087C0.420776 -0.0271604 0.582078 -0.0108772 0.727478 0.0875153C0.772915 0.118003 0.811537 0.157152 0.851673 0.19353C2.19359 1.42066 3.53513 2.64814 4.87629 3.87597C4.91263 3.90958 4.94368 3.94803 5.00427 4.01386Z" fill="#003671"/>
</svg>
