<svg width="161" height="160" viewBox="0 0 161 160" fill="none" xmlns="http://www.w3.org/2000/svg">
<ellipse cx="80.5" cy="80" rx="80.5" ry="80" fill="url(#paint0_linear_888_9)"/>
<ellipse cx="80.5004" cy="80" rx="61.3812" ry="61" fill="url(#paint1_linear_888_9)"/>
<g clip-path="url(#clip0_888_9)">
<path d="M80.8755 46C81.5303 46.4476 81.6936 47.0732 81.6732 47.843C81.6272 49.5707 81.6664 51.3018 81.6442 53.0312C81.6357 53.6941 81.1783 54.1655 80.5711 54.2418C79.9181 54.3232 79.3194 53.9569 79.1493 53.3432C79.0949 53.1448 79.1 52.9261 79.0983 52.7175C79.0949 51.0305 79.1255 49.3418 79.083 47.6565C79.0643 46.8935 79.3092 46.351 79.9844 46.0017H80.8755V46Z" fill="#EF7B10"/>
<path d="M71.9578 102.19C72.451 103.16 72.7333 104.152 72.5071 105.246C72.3303 106.102 71.9612 106.841 71.3524 107.46C70.6092 108.214 69.8643 108.967 69.1024 109.703C67.303 111.441 64.7401 111.431 62.9476 109.681C62.0684 108.823 61.2027 107.952 60.3371 107.08C59.6704 106.409 59.6143 105.693 60.167 105.125C60.7129 104.562 61.5054 104.616 62.1806 105.281C63.0122 106.098 63.8269 106.931 64.6585 107.746C65.5837 108.653 66.4935 108.645 67.4272 107.729C68.0173 107.151 68.599 106.565 69.1823 105.981C70.2707 104.895 70.2792 104.167 69.2163 103.089C67.2843 101.131 65.3626 99.1621 63.4204 97.214C61.1024 94.8878 58.7707 92.5768 56.4408 90.2659C56.1262 89.9539 55.7928 89.6589 55.4476 89.3808C54.9323 88.9654 54.002 89.0112 53.4527 89.5249C52.6177 90.3065 51.7996 91.1068 51.0207 91.9444C50.3643 92.6497 50.4425 93.5687 51.1806 94.3283C52.0667 95.2387 52.9765 96.1272 53.8779 97.0224C54.2605 97.4022 54.4391 97.9074 54.201 98.35C54.0054 98.7145 53.5922 99.0875 53.2044 99.1858C52.8745 99.2706 52.3507 99.0756 52.0786 98.8247C51.0479 97.882 50.053 96.8952 49.1041 95.8711C47.6143 94.2638 47.6381 91.7596 49.1398 90.1624C49.951 89.2977 50.7826 88.4483 51.6636 87.6548C52.8677 86.568 54.2894 86.217 55.8507 86.7426C56.2928 86.8918 56.5377 86.7884 56.8354 86.4866C58.0377 85.2625 59.2622 84.0621 60.4782 82.8515C60.5071 82.8227 60.5275 82.7837 60.5956 82.6887C59.5088 81.5256 58.8949 80.1726 59.2265 78.5161C59.553 76.8867 60.5445 75.8186 62.099 75.1404C61.3286 73.8298 61.1279 72.448 61.6823 71.0288C62.2435 69.5927 63.3371 68.7179 64.866 68.2923C64.5837 67.0648 64.7027 65.8966 65.3473 64.8098C65.9969 63.7162 66.9748 63.0617 68.0871 62.7481C68.133 61.9207 68.0649 61.1255 68.2418 60.3879C68.7996 58.0583 71.0973 56.6629 73.4493 57.1699C73.8745 57.2614 74.1687 57.1953 74.5275 56.9359C75.3694 56.3289 76.366 56.3069 77.3405 56.4781C80.2979 57.0003 83.2486 57.5734 86.2044 58.1041C86.7826 58.2075 87.3915 58.1567 87.9663 58.2754C90.4663 58.7925 91.9187 60.9983 91.4578 63.5263C91.4425 63.6077 91.4459 63.6941 91.4357 63.8349C92.6262 64.1672 93.6075 64.8149 94.269 65.8915C94.9391 66.98 95.0156 68.1516 94.7707 69.4096C95.985 69.7386 96.9697 70.3862 97.6245 71.4697C98.2809 72.5548 98.4034 73.7264 98.1313 74.981C99.8473 75.4846 101.026 76.5239 101.477 78.2448C101.92 79.9471 101.383 81.4052 100.135 82.7091C101.143 83.7077 102.16 84.6606 103.109 85.6745C103.815 86.429 104.395 86.9783 105.636 86.5443C107.07 86.0424 108.424 86.6477 109.514 87.7057C110.244 88.4144 110.965 89.1299 111.675 89.8572C113.408 91.6273 113.461 94.1892 111.716 95.9424C107.145 100.535 102.551 105.11 97.9357 109.659C96.2282 111.342 93.6466 111.29 91.9272 109.627C91.1653 108.891 90.4085 108.15 89.6772 107.384C88.3847 106.027 88.053 104.457 88.7554 102.712C88.8932 102.37 88.8201 102.192 88.5837 101.958C87.0598 100.457 85.5513 98.94 84.0258 97.4395C83.8745 97.2903 83.6466 97.1377 83.4476 97.1292C81.8388 97.0665 80.2265 97.058 78.6177 96.9885C77.6211 96.9461 76.8405 97.236 76.1381 97.9888C74.7962 99.4266 73.366 100.785 71.9578 102.19ZM98.1823 84.5351C98.0462 84.6996 97.9153 84.8674 97.7741 85.0251C97.6755 85.1353 97.5683 85.2387 97.4578 85.3371C96.8541 85.8644 96.0769 85.8576 95.5786 85.3252C95.1058 84.8199 95.1211 84.0468 95.6551 83.5009C96.5734 82.5615 97.5241 81.6545 98.4374 80.7118C99.2163 79.9081 99.2214 78.7603 98.4884 78.0397C97.7299 77.292 96.6534 77.2987 95.8098 78.0685C95.4816 78.3686 95.1823 78.6992 94.8609 79.0061C94.2044 79.6334 93.4374 79.6741 92.8949 79.1197C92.349 78.5602 92.4068 77.826 93.0632 77.1614C93.718 76.4985 94.3932 75.8542 95.0394 75.1828C95.8473 74.3435 95.8779 73.2024 95.1364 72.4615C94.3745 71.7002 93.2656 71.724 92.4068 72.5327C92.0513 72.8667 91.7163 73.2194 91.366 73.5602C90.7027 74.2062 89.9561 74.2757 89.3983 73.745C88.8269 73.2024 88.8779 72.409 89.5411 71.7375C90.286 70.983 91.0564 70.2574 91.7826 69.4859C92.5309 68.6924 92.502 67.6005 91.7639 66.8664C91.0462 66.1526 89.9102 66.1543 89.1296 66.8834C88.7588 67.2309 88.4085 67.6005 88.0462 67.9566C87.3507 68.6382 86.5939 68.7094 86.0292 68.1533C85.4527 67.587 85.5139 66.841 86.2027 66.1475C86.9493 65.3964 87.7197 64.6673 88.4476 63.8993C89.1313 63.1787 89.1262 62.0699 88.4816 61.3628C87.8218 60.6406 86.6772 60.4897 85.9612 61.1645C84.6551 62.3954 83.4238 63.706 82.1568 64.9895C82.9459 66.4527 83.0122 67.9396 82.1942 69.4045C81.3643 70.8881 80.0309 71.6087 78.3439 71.7036C78.3149 71.8715 78.2928 71.9936 78.2707 72.1173C77.8524 74.4893 76.6381 75.7169 74.2469 76.1034C73.7826 76.178 73.7911 76.4459 73.752 76.7596C73.5241 78.5619 72.1653 80.0794 70.4034 80.4846C70.0581 80.5643 69.7044 80.6016 69.3694 80.6541C69.3388 80.7694 69.3149 80.8288 69.3081 80.8898C68.9578 84.1723 65.9204 85.9457 62.9153 84.5995C62.5939 84.4554 62.434 84.5283 62.2163 84.7487C61.099 85.8779 59.968 86.9936 58.8422 88.116C58.6993 88.2584 58.5667 88.4144 58.5241 88.4619C62.4544 92.4039 66.3371 96.2984 70.2486 100.22C70.3898 100.086 70.5581 99.9318 70.7214 99.7708C72.0735 98.4263 73.4306 97.0885 74.7707 95.7321C75.4527 95.0421 76.2656 94.6012 77.2214 94.5097C78.0615 94.43 78.9119 94.4452 79.7571 94.4571C80.4986 94.4673 81.2401 94.5215 81.9799 94.5758C83.7741 94.7097 85.2469 94.1485 86.4085 92.7243C86.9799 92.0241 87.8184 92.0054 88.3626 92.5259C88.9374 93.0753 88.8592 93.8298 88.2265 94.5419C87.6925 95.1438 87.2197 95.7982 86.7605 96.3764C87.9068 97.5293 89.2775 98.9078 90.6211 100.259C94.5088 96.3662 98.4102 92.4598 102.259 88.606C100.956 87.3072 99.6109 85.9661 98.1772 84.5368L98.1823 84.5351ZM90.8439 104.349C91.1143 104.823 91.286 105.283 91.5888 105.627C92.1908 106.307 92.8643 106.924 93.5122 107.563C94.5241 108.56 95.4 108.56 96.4136 107.556C98.0513 105.932 99.684 104.303 101.318 102.675C104.092 99.9132 106.868 97.1529 109.64 94.3876C110.652 93.3788 110.655 92.4903 109.66 91.4951C109.033 90.8661 108.405 90.2353 107.769 89.6165C106.91 88.7806 105.97 88.7484 105.135 89.5775C100.613 94.0638 96.099 98.5568 91.6007 103.067C91.2809 103.387 91.1228 103.869 90.8456 104.352L90.8439 104.349ZM75.7894 71.6579C75.6058 71.2679 75.4238 70.8762 75.2384 70.488C75.2214 70.4524 75.1823 70.4252 75.1534 70.3947C73.6075 68.8569 72.0735 67.3089 70.5122 65.7864C69.7605 65.0522 68.6636 65.0404 67.9272 65.6999C67.2146 66.3391 67.0581 67.5141 67.7265 68.2143C69.3371 69.8945 70.9935 71.5324 72.6704 73.1448C73.2163 73.6704 73.9442 73.7043 74.6313 73.3805C75.3218 73.0549 75.6789 72.4836 75.7877 71.6595L75.7894 71.6579ZM72.2656 59.6555C71.7469 59.6606 71.15 60.0149 70.8337 60.7423C70.4867 61.5426 70.667 62.275 71.2792 62.8888C72.7877 64.3995 74.3047 65.9051 75.8201 67.4107C76.2401 67.8277 76.6398 68.2703 77.0939 68.6484C78.0871 69.4775 79.5088 69.1434 80.0122 67.9922C80.4085 67.0851 80.1041 66.3832 79.2214 65.9746C76.7299 64.8216 74.8337 63.0414 73.7741 60.4914C73.5105 59.8572 73.1398 59.6657 72.2673 59.6572L72.2656 59.6555ZM69.2639 78.1346C70.1364 78.0041 70.7282 77.6395 71.0513 76.9207C71.3983 76.1458 71.235 75.4235 70.6432 74.8233C69.5122 73.6772 68.3745 72.5395 67.2231 71.4154C66.3983 70.61 65.2401 70.5965 64.4952 71.351C63.752 72.1038 63.7554 73.1923 64.5564 74.0163C65.6789 75.1692 66.8132 76.3137 67.9867 77.414C68.3337 77.7396 68.8354 77.9006 69.2656 78.1363L69.2639 78.1346ZM64.8847 82.4666C65.6279 82.4581 66.1772 82.1258 66.5258 81.473C66.8762 80.8152 66.8592 80.137 66.3898 79.5775C65.8643 78.9502 65.2758 78.3635 64.6449 77.843C64.0581 77.3598 63.3524 77.3615 62.684 77.7345C62.0377 78.0956 61.7265 78.6602 61.7452 79.4045C61.7741 80.566 63.7265 82.47 64.8864 82.4683L64.8847 82.4666ZM76.1415 58.8959C76.1041 58.9875 76.065 59.079 76.0275 59.1723C76.6959 61.1458 78.1517 62.4225 79.7571 63.4042C80.883 62.2716 81.9425 61.2069 83.0156 60.1251C80.769 59.7233 78.4544 59.3096 76.1398 58.8976L76.1415 58.8959Z" fill="black"/>
<path d="M58.3162 47.8396C58.3196 47.0817 58.5713 46.6816 59.0594 46.4696C59.5917 46.2374 60.1019 46.3238 60.5219 46.7358C61.3076 47.5039 62.0849 48.2838 62.8638 49.0604C63.5985 49.7911 64.34 50.5151 65.0645 51.256C65.6818 51.885 65.7175 52.6192 65.1852 53.1685C64.6393 53.7331 63.8723 53.7009 63.2209 53.0583C61.7311 51.5866 60.2413 50.1149 58.777 48.6195C58.5287 48.3669 58.4029 47.9939 58.3145 47.8396H58.3162Z" fill="#EF7B10"/>
<path d="M101.294 46.2221C101.63 46.5019 102.062 46.7359 102.309 47.0953C102.603 47.5243 102.518 48.0617 102.146 48.4398C100.559 50.0505 98.9602 51.6511 97.3395 53.2279C96.8395 53.7128 96.0963 53.6602 95.615 53.2042C95.1252 52.7396 95.0435 51.941 95.5384 51.4358C97.1184 49.82 98.7289 48.2313 100.35 46.6528C100.544 46.4646 100.867 46.4103 101.294 46.2204V46.2221Z" fill="#EF7B10"/>
<path d="M55.5448 101.856C55.5533 101.148 56.1349 100.574 56.8356 100.586C57.5414 100.598 58.0975 101.176 58.0907 101.894C58.0839 102.616 57.5244 103.16 56.7982 103.152C56.0788 103.141 55.5346 102.58 55.5431 101.856H55.5448Z" fill="black"/>
<path d="M91.53 90.6982C90.8191 90.7084 90.2256 90.1387 90.2188 89.4385C90.212 88.7484 90.8055 88.1499 91.5062 88.1431C92.2001 88.1363 92.8106 88.728 92.8191 89.413C92.8277 90.1099 92.2477 90.6863 91.53 90.6982Z" fill="black"/>
</g>
<defs>
<linearGradient id="paint0_linear_888_9" x1="130.923" y1="21.0989" x2="34.376" y2="147.395" gradientUnits="userSpaceOnUse">
<stop stop-color="#FBFBFB"/>
<stop offset="1" stop-color="#EFF1F3"/>
</linearGradient>
<linearGradient id="paint1_linear_888_9" x1="118.948" y1="35.0879" x2="45.3308" y2="131.388" gradientUnits="userSpaceOnUse">
<stop stop-color="#EEF0F2"/>
<stop offset="1" stop-color="#FDFEFE"/>
</linearGradient>
<clipPath id="clip0_888_9">
<rect width="65" height="65" fill="white" transform="translate(48 46)"/>
</clipPath>
</defs>
</svg>
