<svg width="71" height="81" viewBox="0 0 71 81" fill="none" xmlns="http://www.w3.org/2000/svg">
<g id="Layer_1" clip-path="url(#clip0_474_3168)">
<path id="Vector" d="M51.0775 31.123C46.7733 33.8482 42.0962 34.8799 37.3288 35.589C31.3441 36.4789 25.3284 36.5651 19.3126 35.9255C14.4633 35.4083 9.68176 34.5601 5.23067 32.455C4.46528 32.0935 3.73944 31.6486 2.84978 31.1619V32.1241C2.84978 35.6141 2.88367 39.104 2.83001 42.5939C2.81024 43.798 3.2932 44.6657 4.21392 45.3553C6.41969 47.0071 8.98981 47.8636 11.6249 48.5199C17.796 50.0605 24.0772 50.511 30.4177 50.1411C32.889 49.9965 35.349 49.6795 37.8118 49.4264C38.8624 49.318 39.5628 49.7129 39.7069 50.5415C39.8594 51.4147 39.3397 52.0349 38.2354 52.2156C33.0556 53.061 27.8448 53.2362 22.6114 52.9358C17.9146 52.6661 13.2658 52.0738 8.79493 50.586C6.77556 49.9159 4.85221 48.9676 2.84696 48.1306C2.84696 48.3085 2.8639 48.6144 2.84413 48.9203C2.79047 49.7351 2.20302 50.2774 1.40939 50.2635C0.65248 50.2523 0.0904451 49.7268 0.0283106 48.9565C0.0085405 48.6951 0.022662 48.4337 0.022662 48.1723C0.022662 35.5835 0.0452564 22.9891 6.76122e-05 10.3947C-0.00840528 8.37583 0.779574 6.86028 2.30187 5.63949C4.71382 3.7096 7.57201 2.70016 10.5234 1.94377C17.3808 0.180727 24.3653 -0.266987 31.4204 0.139015C36.2951 0.419878 41.0964 1.10118 45.7424 2.6362C47.8747 3.33975 49.9223 4.2324 51.6706 5.67286C53.1505 6.89365 53.9413 8.37861 53.93 10.3613C53.8792 19.2322 53.9074 28.103 53.9074 36.9739C53.9074 37.1491 53.9074 37.3243 53.9074 37.4967C53.8905 38.5228 53.3539 39.1151 52.4614 39.0984C51.6084 39.0817 51.086 38.5006 51.0803 37.5245C51.0718 35.7225 51.0775 33.9177 51.0775 32.1158C51.0775 31.8321 51.0775 31.5513 51.0775 31.1258V31.123ZM2.85261 14.388V15.3641C2.85261 18.8262 2.89215 22.2883 2.83284 25.7477C2.81024 27.0157 3.23106 28.0419 4.30147 28.6203C6.07231 29.5797 7.86574 30.5696 9.76931 31.2037C14.2402 32.6914 18.9003 33.2031 23.6027 33.4116C30.1579 33.7008 36.6397 33.2726 42.9915 31.5874C45.33 30.9673 47.6036 30.1525 49.5806 28.7037C50.5917 27.964 51.1227 27.0519 51.0972 25.7421C51.0351 22.2828 51.0747 18.8206 51.0747 15.3585C51.0747 15.0637 51.0747 14.7662 51.0747 14.4075C50.1794 14.8969 49.4535 15.3418 48.6881 15.7033C44.2681 17.8001 39.5148 18.6538 34.6966 19.1654C29.2202 19.7466 23.7355 19.7272 18.2591 19.0375C12.9099 18.3646 7.67086 17.344 2.84978 14.388H2.85261ZM26.9749 16.7656C31.9118 16.6933 36.8204 16.354 41.6302 15.1805C44.4714 14.4881 47.276 13.6677 49.6484 11.8825C51.5265 10.4726 51.583 8.97371 49.6088 7.69175C48.0555 6.68231 46.327 5.85084 44.5675 5.23906C40.0571 3.67345 35.3433 3.14231 30.5816 2.91428C24.1789 2.60561 17.844 2.99771 11.6136 4.54941C9.00675 5.20012 6.45359 6.02881 4.27888 7.6695C2.40072 9.08494 2.33294 10.5949 4.31842 11.8519C6.00735 12.9225 7.86856 13.8235 9.77213 14.4492C15.3416 16.2734 21.1399 16.6794 26.9693 16.7656H26.9749Z" fill="black"/>
<path id="Vector_2" d="M43.9598 75.1324C43.9598 76.0557 43.9598 76.9511 43.9598 77.8493C43.9542 79.3649 43.5079 79.7987 41.9461 79.8042C41.2965 79.807 40.6441 79.8348 39.9973 79.7987C39.0032 79.743 38.0881 79.7764 37.3707 80.6468C37.1646 80.8971 36.6251 80.9722 36.2382 80.9777C33.4026 81.0056 30.5642 80.9777 27.7286 81C27.0027 81.0055 26.4238 80.7998 26.1583 80.1185C25.8956 79.4511 26.1583 78.9005 26.6554 78.3916C31.6883 73.2693 36.6986 68.1275 41.7456 63.0191C42.2765 62.4797 42.3613 62.0931 42.0506 61.3868C38.1107 52.3992 44.3072 42.0489 54.2205 41.0089C62.5748 40.1329 69.8502 45.8086 70.8895 54.0093C71.8865 61.8762 66.1306 69.2315 58.1039 70.3689C55.2853 70.7693 52.5768 70.4273 49.9671 69.3122C49.0774 68.9312 48.7724 69.1175 48.7611 70.0685C48.7498 71.1169 48.7611 72.1625 48.7583 73.2109C48.7527 74.593 48.2951 75.0518 46.9225 75.0574C46.0357 75.0601 45.1489 75.0629 44.2648 75.0657C44.2084 75.0657 44.1519 75.0907 43.9598 75.1324ZM45.9114 72.271C45.9114 71.6508 45.9792 71.1225 45.9001 70.6164C45.6431 68.959 46.2588 67.7382 47.5552 66.6732C48.7244 65.7138 48.8628 65.6053 50.2721 66.3255C52.766 67.5992 55.3982 68.0274 58.166 67.5213C64.2157 66.4145 68.4154 61.0753 68.1019 54.9241C67.7997 49.0149 62.9193 44.1651 56.7595 43.7758C52.0712 43.481 48.3177 45.2997 45.7561 49.1623C43.1747 53.0526 43.0617 57.1683 45.1799 61.3228C45.8323 62.602 45.821 62.8912 44.7986 63.934C40.4125 68.414 36.0236 72.8939 31.6346 77.3738C31.4086 77.6046 31.1968 77.8437 30.8636 78.2025C32.4508 78.2025 33.8093 78.2414 35.165 78.1802C35.583 78.1608 36.0716 77.9605 36.3766 77.6797C36.9132 77.1847 37.4696 76.9483 38.2011 76.9817C39.1331 77.0206 40.0651 76.99 41.0875 76.99C41.0875 75.8332 41.0564 74.7904 41.096 73.7504C41.1327 72.752 41.658 72.2849 42.6748 72.271C43.7085 72.2571 44.7393 72.2682 45.9171 72.2682L45.9114 72.271Z" fill="#EF7B10"/>
<path id="Vector_3" d="M26.933 69.6403C20.3834 69.7682 13.9186 69.1453 7.68539 67.0124C5.6406 66.3145 3.69466 65.4079 2.05657 63.9758C0.921198 62.983 0.0823817 61.8095 0.02872 60.2439C-0.00234724 59.3235 0.494729 58.7256 1.29965 58.6588C2.13 58.5893 2.73157 59.0704 2.84172 59.9797C2.96034 60.9614 3.55344 61.6176 4.29906 62.171C6.46247 63.7783 8.97892 64.6182 11.5547 65.2605C17.7229 66.8011 24.0014 67.2433 30.3447 66.9123C31.0536 66.8762 31.7625 66.8567 32.4714 66.8456C33.4147 66.8317 33.9937 67.3044 34.0474 68.1164C34.1039 68.9674 33.5334 69.6125 32.5957 69.6292C30.7091 69.6598 28.8196 69.6376 26.9301 69.6376L26.933 69.6403Z" fill="black"/>
<path id="Vector_4" d="M1.4483 55.853C0.654672 55.8586 0.0417992 55.2718 0.0276777 54.4932C0.010732 53.6728 0.64055 53.0527 1.47372 53.0722C2.26452 53.0888 2.85762 53.6923 2.85197 54.4737C2.84633 55.2523 2.24193 55.8474 1.4483 55.853Z" fill="black"/>
<path id="Vector_5" d="M47.709 55.6805C47.7146 51.1673 51.3213 47.6578 55.9503 47.669C60.5426 47.6801 64.1831 51.2507 64.1718 55.7306C64.1605 60.166 60.424 63.8506 55.9446 63.8423C51.3721 63.8367 47.7062 60.2022 47.7118 55.6805H47.709ZM55.8769 60.9725C58.9073 60.9919 61.2882 58.6755 61.291 55.7084C61.291 52.794 58.9186 50.4442 55.9672 50.4331C52.9594 50.422 50.5446 52.769 50.5418 55.7056C50.5418 58.606 52.9142 60.953 55.8769 60.9725Z" fill="#EF7B10"/>
</g>
<defs>
<clipPath id="clip0_474_3168">
<rect width="71" height="81" fill="white"/>
</clipPath>
</defs>
</svg>
