<svg width="161" height="160" viewBox="0 0 161 160" fill="none" xmlns="http://www.w3.org/2000/svg">
<ellipse cx="80.5" cy="80" rx="80.5" ry="80" fill="url(#paint0_linear_599_261)"/>
<ellipse cx="80.5004" cy="80" rx="61.3812" ry="61" fill="url(#paint1_linear_599_261)"/>
<g clip-path="url(#clip0_599_261)">
<path d="M88.4448 37C88.7317 37.1042 89.0166 37.2125 89.3057 37.3083C92.8738 38.4938 94.5768 42.6083 92.8717 45.9333C92.4309 46.7958 91.8009 47.0792 91.1251 46.7229C90.4888 46.3875 90.3536 45.7542 90.7404 44.9104C91.7406 42.7208 90.8257 40.3813 88.659 39.5938C86.5651 38.8313 84.2965 40.0062 83.7039 42.1875C83.4585 43.0938 83.5583 43.9854 83.9596 44.8458C84.5626 46.1396 84.1093 46.8479 82.6871 46.85C80.2501 46.8542 77.811 46.8479 75.374 46.8521C74.0349 46.8542 73.5982 47.2875 73.592 48.6188C73.5857 50.3896 73.5878 52.1604 73.592 53.9312C73.592 54.1562 73.6231 54.3833 73.6398 54.6125C77.8713 53.9708 80.9217 57.0021 81.0672 60.5438C81.1858 63.4313 78.7716 67.4542 73.6335 66.8604C73.619 67.1375 73.592 67.4104 73.592 67.6833C73.5878 69.2979 73.5899 70.9125 73.592 72.5271C73.592 74.2542 73.8747 74.5396 75.5611 74.5417C77.4492 74.5417 79.3372 74.5417 81.3043 74.5417C80.9654 72.1521 81.5663 70.1458 83.34 68.575C84.5606 67.4938 86.012 66.9896 87.6276 67.05C90.7259 67.1667 94.0819 69.875 93.4581 74.5417C94.4729 74.5417 95.4772 74.5417 96.4815 74.5417C97.4921 74.5417 98.5047 74.5458 99.5153 74.5417C100.713 74.5354 101.164 74.1 101.17 72.9C101.183 70.5833 101.175 68.2646 101.175 65.9479C101.175 65.7146 101.168 65.4792 101.177 65.2458C101.216 64.05 101.971 63.5833 103.067 64.0771C104.743 64.8313 106.269 64.6271 107.456 63.4875C108.81 62.1875 109.033 60.1146 107.985 58.5708C106.949 57.0479 105.007 56.5 103.306 57.2458C103 57.3792 102.686 57.5542 102.364 57.5833C101.665 57.6458 101.183 57.0583 101.179 56.1646C101.168 53.7958 101.175 51.425 101.175 49.0563C101.175 47.1604 100.865 46.8542 98.9435 46.8542C98.3737 46.8542 97.7998 46.8792 97.2322 46.8375C96.6021 46.7917 96.2486 46.4 96.205 45.7729C96.1592 45.1021 96.5106 44.5938 97.1469 44.5521C98.2802 44.4813 99.4446 44.4271 100.559 44.6021C102.316 44.8771 103.503 46.4042 103.526 48.1979C103.549 50.0458 103.533 51.8958 103.533 53.7438C103.533 54.025 103.533 54.3083 103.533 54.6438C105.658 54.2875 107.498 54.7646 109.039 56.2021C110.295 57.3729 110.964 58.8396 111 60.5604C111.079 64.4937 108.321 66.8438 103.533 66.8563V67.5979C103.533 69.3688 103.537 71.1396 103.533 72.9104C103.526 75.4021 101.998 76.9396 99.5007 76.95C97.0637 76.9604 94.6226 76.9 92.1876 76.9729C90.7882 77.0146 90.1478 76.025 90.782 74.8042C91.8071 72.8271 90.7737 70.4479 88.7234 69.6708C86.6337 68.8792 84.3526 70.0271 83.7247 72.2021C83.4543 73.1375 83.5583 74.0458 83.9763 74.9313C84.5543 76.1563 84.0823 76.9375 82.7474 76.9458C80.1794 76.9625 77.6114 76.975 75.0433 76.9438C72.7498 76.9146 71.2173 75.3313 71.2049 73.0229C71.1903 70.5229 71.1986 68.0229 71.2028 65.525C71.2049 64.0042 71.9098 63.55 73.2842 64.1604C74.7793 64.8229 76.1891 64.65 77.4138 63.5688C78.6157 62.5063 78.9712 61.1271 78.5096 59.6C78.0355 58.0292 76.9252 57.0833 75.2991 56.9646C74.588 56.9125 73.8165 57.125 73.1345 57.3813C71.9992 57.8063 71.2152 57.3646 71.209 56.1375C71.1924 53.5083 71.1778 50.8771 71.2132 48.2479C71.2423 46.0771 72.833 44.5271 74.983 44.5125C76.8254 44.5 78.6656 44.5083 80.5079 44.5083C80.7616 44.5083 81.0132 44.5083 81.1941 44.5083C81.2544 43.5417 81.1878 42.6396 81.3854 41.7979C81.9426 39.425 83.471 37.9146 85.7853 37.1917C85.9516 37.1396 86.1118 37.0667 86.2739 37.0021C86.9996 37.0021 87.7274 37.0021 88.4531 37.0021L88.4448 37Z" fill="#EF7B10"/>
<path d="M60.7407 117C60.1377 116.608 59.961 116.052 59.9651 115.34C59.9922 111.954 59.9922 108.569 59.9589 105.185C59.9547 104.76 59.7946 104.263 59.5389 103.927C57.0291 100.652 55.4945 96.9917 55.1285 92.8646C55.0703 92.2083 54.8665 91.9333 54.17 91.7542C52.076 91.2104 50.6933 89.8229 50.1818 87.6958C49.6515 85.5 50.3211 83.6292 52.0012 82.1562C52.3755 81.8271 52.5106 81.525 52.5148 81.0458C52.5377 78.5229 52.3963 75.9771 52.6811 73.4812C53.5732 65.6646 57.6695 60.0396 64.6707 56.5354C65.2716 56.2354 65.9038 55.9937 66.5338 55.7625C67.588 55.375 68.2597 55.5708 68.505 56.3C68.765 57.0729 68.4011 57.5812 67.3448 57.9812C61.8927 60.0375 58.0958 63.7771 56.0164 69.2521C55.2325 71.3167 54.8957 73.4667 54.8561 75.6646C54.827 77.375 54.8499 79.0875 54.8499 80.8333C55.1639 80.8333 55.3989 80.8062 55.6234 80.8375C56.2639 80.9271 56.6735 81.2687 56.7047 81.9521C56.7338 82.6313 56.3658 83.0146 55.7378 83.175C55.613 83.2062 55.482 83.2104 55.3531 83.2229C53.6148 83.3896 52.338 84.7521 52.3588 86.4167C52.3796 88.1062 53.648 89.425 55.4009 89.5729C55.5299 89.5833 55.6609 89.5854 55.7898 89.5896C56.9916 89.6333 57.3119 89.9333 57.3555 91.1187C57.4491 93.6917 57.9107 96.1917 59.0357 98.5167C62.1796 105.017 67.3032 108.829 74.5019 109.513C84.4599 110.458 93.3118 103.371 94.707 93.4812C94.8276 92.6333 94.8526 91.7729 94.9295 90.9167C95.0127 89.9708 95.3599 89.6479 96.3102 89.5875C96.7489 89.5604 97.2022 89.5667 97.6223 89.4562C99.0508 89.0792 100.057 87.5833 99.9012 86.1354C99.7307 84.5396 98.5809 83.3708 97.0401 83.2292C96.9361 83.2187 96.8321 83.2229 96.7302 83.2083C95.9505 83.0917 95.5263 82.6062 95.5845 81.9C95.6406 81.2125 96.1626 80.8021 96.9506 80.8292C99.7349 80.9271 102.043 83.1604 102.278 85.9812C102.503 88.6833 100.594 91.2771 97.9113 91.8083C97.3291 91.9229 97.221 92.2021 97.1814 92.6896C96.8321 96.875 95.2996 100.587 92.7607 103.912C92.505 104.248 92.3428 104.748 92.3386 105.173C92.3054 108.558 92.3074 111.944 92.3303 115.327C92.3345 116.033 92.1515 116.594 91.5672 116.998H90.6336C90.0389 116.548 89.9203 115.929 89.9266 115.219C89.9494 112.773 89.9349 110.329 89.9349 107.883C89.9349 107.606 89.9349 107.329 89.9349 107.031C80.7067 113.71 71.5783 113.71 62.346 107.013C62.346 107.325 62.346 107.598 62.346 107.873C62.346 110.319 62.3252 112.765 62.3585 115.208C62.3689 115.923 62.2379 116.527 61.6827 117H60.749H60.7407Z" fill="black"/>
</g>
<defs>
<linearGradient id="paint0_linear_599_261" x1="130.923" y1="21.0989" x2="34.376" y2="147.395" gradientUnits="userSpaceOnUse">
<stop stop-color="#FBFBFB"/>
<stop offset="1" stop-color="#EFF1F3"/>
</linearGradient>
<linearGradient id="paint1_linear_599_261" x1="118.948" y1="35.0879" x2="45.3308" y2="131.388" gradientUnits="userSpaceOnUse">
<stop stop-color="#EEF0F2"/>
<stop offset="1" stop-color="#FDFEFE"/>
</linearGradient>
<clipPath id="clip0_599_261">
<rect width="61" height="80" fill="white" transform="translate(50 37)"/>
</clipPath>
</defs>
</svg>
