<svg width="84" height="75" viewBox="0 0 84 75" fill="none" xmlns="http://www.w3.org/2000/svg">
<g id="Isolation_Mode" clip-path="url(#clip0_474_3156)">
<path id="Vector" d="M26.2177 69.3969C26.1294 70.226 26.1364 70.9961 25.9506 71.7189C25.4465 73.6795 23.7785 74.9528 21.79 74.9575C16.0987 74.9669 10.405 74.9669 4.71361 74.9575C2.25586 74.9528 0.374226 73.0323 0.341704 70.5354C0.313828 68.4354 0.441594 67.989 1.50089 66.4913C-0.127544 64.0772 -0.157743 61.6535 1.5125 59.1543C0.680863 58.1835 0.313828 57.0071 0.318474 55.6488C0.32312 54.2906 0.615819 53.0882 1.51715 52.0748C-0.538716 49.4008 -0.0439156 45.2504 3.13396 43.748C1.72854 41.9787 0.757523 40.0087 0.283629 37.7787C-1.26814 30.4701 3.67522 23.0787 10.9555 21.9236C12.0357 21.7512 13.1508 21.7654 14.2496 21.7606C14.7095 21.7606 14.9627 21.6449 15.209 21.2268C20.3893 12.4583 27.8856 6.90709 37.7352 4.73386C39.7353 4.29213 41.8074 4.17165 43.854 3.98504C45.5173 3.83386 45.947 4.29449 45.947 5.97165C45.947 16.4339 45.9633 26.8961 45.9215 37.3559C45.9168 38.2795 46.2327 38.5937 47.0295 38.8535C56.6538 41.9764 66.2664 45.1323 75.8813 48.2811C77.3704 48.7677 77.6375 49.2567 77.1079 50.7756C72.4711 64.0606 63.3185 72.0874 49.6545 74.5134C41.61 75.9402 34.0346 74.1685 27.0424 69.8811C26.7775 69.7205 26.5081 69.5669 26.2154 69.3945L26.2177 69.3969ZM17.6156 22.4197C21.8412 24.1063 24.7589 27.0685 25.9761 31.5614C27.198 36.0661 26.1527 40.1102 23.3581 43.7504C26.5383 45.1984 26.9889 49.4953 24.961 52.0465C26.6173 54.2953 26.6219 56.5583 24.9702 59.2346C26.5847 61.2047 26.4244 63.3803 25.6416 65.6102C42.66 79.1504 67.623 70.989 74.3342 50.6008C74.0926 50.5157 73.8487 50.4236 73.6024 50.3433C64.0688 47.2181 54.5352 44.0929 45.0016 40.9677C43.4126 40.4457 43.2918 40.278 43.2918 38.5842C43.2918 28.3276 43.2918 18.0709 43.2918 7.81417V6.72283C34.404 6.12283 21.7575 13.885 17.6133 22.4173L17.6156 22.4197ZM13.2251 45.8031C19.0837 45.7984 23.8157 41.022 23.825 35.1071C23.8343 29.1992 19.0814 24.3709 13.26 24.3732C7.37113 24.3732 2.63451 29.1945 2.66007 35.1591C2.68562 41.0102 7.45011 45.8102 13.2274 45.8055L13.2251 45.8031ZM13.318 67.7197C10.6164 67.7197 7.91471 67.7173 5.21538 67.7197C3.57301 67.722 2.94347 68.3669 2.94347 70.0181C2.94347 71.6669 3.57301 72.3 5.22932 72.3C10.5746 72.3024 15.9175 72.3024 21.2627 72.3C22.9074 72.3 23.5277 71.6622 23.5277 70.0039C23.5277 68.3528 22.9028 67.722 21.2488 67.7197C18.6052 67.715 15.9616 67.7197 13.3204 67.7197H13.318ZM13.1461 65.0622C15.9337 65.0622 18.7213 65.0717 21.509 65.0575C22.6147 65.0528 23.4092 64.4433 23.5044 63.4819C23.6833 61.6441 23.3256 60.4961 21.0397 60.5197C16.5679 60.5693 12.0961 60.5339 7.62201 60.5339C6.69281 60.5339 5.76361 60.5291 4.8344 60.5433C4.12356 60.5551 3.52887 60.8102 3.17345 61.4787C2.23263 63.2386 3.2687 65.0551 5.2177 65.0598C7.86128 65.0646 10.5025 65.0598 13.1461 65.0598V65.0622ZM13.2785 53.3551C10.5235 53.3551 7.76836 53.348 5.01328 53.3575C3.55443 53.3622 2.9458 54.0189 2.94347 55.5496C2.94347 57.0992 3.59392 57.8102 5.06438 57.8126C10.5165 57.8197 15.9663 57.8197 21.4184 57.8126C22.8842 57.8126 23.5277 57.1039 23.5253 55.5425C23.5253 54.0071 22.9237 53.3622 21.4555 53.3575C18.7306 53.348 16.0034 53.3551 13.2785 53.3551ZM13.246 50.563C15.9709 50.563 18.6981 50.5654 21.423 50.563C22.4869 50.563 23.1211 50.1638 23.4185 49.337C23.7716 48.3591 23.5253 47.0929 22.8772 46.5543C22.2407 46.0228 21.0188 45.9614 20.2638 46.4126C15.6085 49.1905 10.9416 49.2094 6.27235 46.448C5.45465 45.9638 4.24204 46.0087 3.58695 46.5685C2.95044 47.1142 2.71117 48.2835 3.03175 49.2732C3.31283 50.1402 3.96792 50.563 5.06903 50.5653C7.79392 50.5701 10.5211 50.5653 13.246 50.5653V50.563Z" fill="black"/>
<path id="Vector_2" d="M48.3223 18.3685C48.3223 12.9165 48.3223 7.46692 48.3223 2.01495C48.3223 0.36377 48.7125 -0.0708752 50.327 0.00707756C63.6866 0.659046 73.5966 7.04645 79.8989 18.9142C84.4172 27.4228 85.0885 36.4913 82.4635 45.7913C82.1011 47.074 81.5599 47.3716 80.3449 46.9748C70.0958 43.6205 59.8467 40.2614 49.5976 36.9024C48.5755 36.5669 48.3246 36.1937 48.3246 34.9866C48.3199 29.4472 48.3246 23.9079 48.3246 18.3685H48.3223ZM59.3473 4.08661V5.46377C59.3473 15.2433 59.3473 25.0205 59.3519 34.8C59.3519 35.6173 59.1359 36.6307 59.5238 37.1976C59.8816 37.722 60.913 37.7787 61.654 38.0291C62.7342 38.3929 63.8167 38.7425 64.8946 39.0968C64.9457 38.9457 64.9643 38.9173 64.9643 38.8913C64.9713 28.3488 64.9806 17.8039 64.9713 7.26141C64.9713 7.04645 64.8249 6.72046 64.6553 6.63542C62.9735 5.7992 61.273 5.0055 59.3473 4.08897V4.08661ZM50.9891 2.59605C50.9891 3.17716 50.9891 3.5244 50.9891 3.87401C50.9891 11.6787 50.9891 19.4811 50.9891 27.2858C50.9891 29.4638 50.9775 31.6441 51.003 33.822C51.0053 34.0961 51.1285 34.552 51.3027 34.6134C53.0449 35.2346 54.8081 35.7921 56.6828 36.4039V35.2512C56.6828 26.2394 56.6828 17.2299 56.6828 8.2181C56.6828 6.86456 56.6688 5.50865 56.6897 4.15511C56.6967 3.70865 56.5945 3.42046 56.1136 3.35196C54.455 3.11338 52.801 2.86535 50.9891 2.59605ZM67.9029 8.47086C67.8007 8.53227 67.6962 8.59133 67.5939 8.65275V9.5929C67.5939 19.1386 67.5939 28.6842 67.5939 38.2299C67.5939 39.3905 68.1437 40.1543 69.2433 40.5212C70.5279 40.9488 71.8125 41.3716 73.139 41.811C73.1692 41.5441 73.197 41.4 73.197 41.2559C73.197 32.211 73.197 23.1661 73.1785 14.1213C73.1785 13.8283 73.0716 13.4504 72.8741 13.259C71.2341 11.6433 69.5615 10.063 67.9006 8.47086H67.9029ZM76.0822 17.4472C75.9986 17.4661 75.9126 17.4874 75.829 17.5063C75.829 20.2701 75.829 23.0362 75.829 25.8C75.829 31.1575 75.8244 36.5173 75.8429 41.8748C75.8429 42.1795 75.9545 42.6827 76.1403 42.7535C77.4551 43.252 78.8001 43.663 80.2288 44.1307C82.4844 34.5331 81.1208 25.689 76.0822 17.4472Z" fill="#EF7B10"/>
</g>
<defs>
<clipPath id="clip0_474_3156">
<rect width="84" height="75" fill="white"/>
</clipPath>
</defs>
</svg>
