<svg width="37" height="44" viewBox="0 0 37 44" fill="none" xmlns="http://www.w3.org/2000/svg">
<g clip-path="url(#clip0_281_9310)">
<path d="M18.1609 44.0001C17.4575 43.8014 16.7478 43.6285 16.0551 43.4039C9.02598 41.1094 4.14096 36.4882 1.44695 29.5164C0.483584 27.0275 0.012559 24.4285 0.00616502 21.756C-0.00449166 16.6962 0.00190235 11.6342 0.00190235 6.57443C0.00190235 5.9695 0.178803 5.72969 0.754264 5.54605C6.51314 3.71614 12.272 1.88406 18.0351 0.0692753C18.3229 -0.0214642 18.6873 -0.0214642 18.9772 0.0692753C24.7105 1.87542 30.4395 3.69885 36.1664 5.52228C36.857 5.74265 36.9998 5.9479 36.9998 6.66517C36.9998 11.5953 37.004 16.5277 36.9998 21.4579C36.987 31.8562 30.1987 40.861 20.3008 43.6091C19.8148 43.743 19.3289 43.8705 18.8408 44.0023H18.1609V44.0001ZM1.69631 14.8706C1.69631 17.0073 1.65582 19.144 1.71123 21.2785C1.74747 22.6202 1.78583 23.9878 2.06504 25.2905C3.9534 34.075 9.20288 39.6771 17.7538 42.0816C18.1076 42.181 18.5147 42.2307 18.8706 42.1594C19.6145 42.0082 20.3498 41.7921 21.0723 41.5502C29.523 38.7308 35.2713 30.5793 35.3011 21.365C35.316 16.7351 35.3011 12.1052 35.3096 7.47534C35.3096 7.17504 35.2414 7.02597 34.9345 6.93091C29.5891 5.24575 24.2501 3.54546 18.9026 1.86246C18.6532 1.78468 18.3399 1.789 18.0906 1.86678C12.7473 3.54762 7.41043 5.25007 2.06717 6.93307C1.76025 7.03029 1.68779 7.17288 1.68992 7.47534C1.70058 9.94043 1.69631 12.4055 1.69631 14.8728V14.8706Z" fill="black"/>
<path d="M32.245 16.2727C32.245 18.1372 32.2664 19.9995 32.2408 21.864C32.2024 24.6726 31.5119 27.3213 30.2395 29.8166C29.9581 30.3697 29.4786 30.5512 29.0203 30.3027C28.5813 30.0651 28.447 29.5595 28.7156 29.0367C30.0349 26.4658 30.5826 23.7241 30.5592 20.8378C30.5336 17.569 30.5485 14.3024 30.5613 11.0336C30.5613 10.703 30.4654 10.5626 30.1563 10.4654C26.3732 9.27495 22.5922 8.06941 18.8091 6.879C18.6215 6.82067 18.385 6.82283 18.1995 6.88116C14.4036 8.0759 10.612 9.28792 6.81821 10.4827C6.54753 10.5691 6.44096 10.6728 6.44309 10.9796C6.45588 14.4925 6.4303 18.0032 6.45588 21.5161C6.5113 28.9006 11.3558 35.3604 18.2145 37.2162C18.4042 37.2681 18.6343 37.2659 18.824 37.2119C20.5675 36.7236 22.1766 35.9394 23.6536 34.8851C23.7453 34.8181 23.8369 34.7511 23.9328 34.6885C24.3847 34.399 24.8962 34.4832 25.169 34.8937C25.4248 35.2783 25.3267 35.7946 24.9111 36.1036C23.0441 37.4884 20.9916 38.4779 18.7409 39.0267C18.5235 39.0807 18.2614 39.0461 18.0397 38.9792C11.8929 37.1557 7.73468 33.1913 5.62892 27.0534C5.01723 25.271 4.75081 23.4173 4.75294 21.5248C4.75934 17.7396 4.75294 13.9567 4.75507 10.1715C4.75507 9.48452 4.91492 9.27495 5.57351 9.06539C9.68912 7.75615 13.8047 6.43826 17.9267 5.15063C18.2677 5.04477 18.694 5.0318 19.0308 5.13767C23.1656 6.42746 27.2918 7.74751 31.4202 9.06107C32.1044 9.27927 32.245 9.48452 32.245 10.2083C32.245 12.2305 32.245 14.2505 32.245 16.2727Z" fill="black"/>
<path d="M16.9501 20.5524C17.6684 19.8157 18.3333 19.1351 19.0004 18.4546C20.0277 17.4089 21.055 16.3654 22.0887 15.324C22.6322 14.7753 23.0478 14.771 23.5828 15.3089C24.4545 16.1882 25.3241 17.0697 26.1916 17.9533C26.7244 18.4956 26.7223 18.9234 26.1852 19.4678C23.359 22.3369 20.5286 25.2038 17.7003 28.0686C17.1867 28.5893 16.7434 28.5915 16.2382 28.0794C14.4181 26.2365 12.5979 24.3937 10.782 22.5486C10.2875 22.0474 10.2918 21.611 10.7927 21.099C11.6686 20.2045 12.5489 19.3123 13.4313 18.4243C13.947 17.9058 14.369 17.9058 14.8891 18.433C15.569 19.12 16.2382 19.8178 16.9544 20.5545L16.9501 20.5524ZM16.8776 26.243C19.3969 23.6915 21.8991 21.1573 24.333 18.69C23.8471 18.1953 23.3164 17.6509 22.726 17.0503C22.6599 17.141 22.579 17.2793 22.4703 17.3895C20.9037 18.9817 19.3351 20.5718 17.7643 22.1619C17.1547 22.7798 16.7604 22.7798 16.1508 22.1619C15.4923 21.4965 14.8379 20.8267 14.222 20.2024C13.6487 20.7835 13.1052 21.3345 12.5723 21.8746C14.0088 23.3329 15.4752 24.8214 16.8755 26.2452L16.8776 26.243Z" fill="#EF7B10"/>
<path d="M28.0994 32.7376C28.0994 33.2345 27.7392 33.5953 27.2468 33.591C26.7716 33.5867 26.3879 33.1891 26.4007 32.716C26.4135 32.2666 26.7993 31.8799 27.2468 31.8756C27.7285 31.8691 28.0994 32.245 28.0994 32.7376Z" fill="black"/>
</g>
<defs>
<clipPath id="clip0_281_9310">
<rect width="37" height="44" fill="white"/>
</clipPath>
</defs>
</svg>
