<svg width="100" height="100" viewBox="0 0 100 100" fill="none" xmlns="http://www.w3.org/2000/svg">
<path d="M89 66.3944C88.5844 67.2964 88.2855 68.2769 87.7294 69.0847C86.6389 70.6711 85.016 71.4927 83.0943 71.6319C81.9405 71.7163 80.7768 71.6476 79.5596 71.6476V68.4749C80.472 68.4749 81.4022 68.4749 82.3324 68.4749C84.6895 68.469 85.8136 67.4023 85.8156 65.0806C85.8235 48.5405 85.8235 32.0004 85.8156 15.4584C85.8156 13.1347 84.7014 12.0445 82.3423 12.0445C61.4428 12.0386 40.5453 12.0386 19.6459 12.0445C17.2907 12.0445 16.1844 13.1386 16.1844 15.4682C16.1785 31.9847 16.1785 48.4993 16.1844 65.0159C16.1844 67.3964 17.2848 68.471 19.6775 68.4729C26.6282 68.4749 33.5769 68.4729 40.5275 68.4729C40.8184 68.4729 41.1113 68.4729 41.4498 68.4729V71.6672H40.6463C33.6956 71.6672 26.7469 71.6672 19.7963 71.6672C16.3289 71.6672 14.0133 69.8965 13.1168 66.5768C13.099 66.5101 13.0396 66.4552 13 66.3944C13.002 48.9915 13.002 31.5886 13.002 14.1858C13.4354 13.2445 13.762 12.2327 14.326 11.3758C15.2542 9.96592 16.7445 9.30903 18.3456 8.89136C40.1159 8.89136 61.8861 8.89136 83.6564 8.89136C83.8167 8.9443 83.973 9.00705 84.1373 9.05019C86.2174 9.59924 87.6918 10.8503 88.5369 12.8112C88.7269 13.2543 88.8476 13.7269 89 14.1858V66.3944Z" fill="black"/>
<path d="M49.3992 89.0198C49.3786 88.6698 49.3373 88.3197 49.3373 87.9697C49.3332 79.4727 49.329 70.9776 49.3456 62.4805C49.3456 61.9072 49.166 61.5129 48.7533 61.1046C44.4734 56.8681 42.4387 51.7747 42.7751 45.8264C43.258 37.3092 50.1896 29.7093 58.7927 28.2167C69.5914 26.3419 79.6039 32.7348 81.9007 43.1529C83.4236 50.0608 81.3539 56.0494 76.3579 61.1046C75.9514 61.515 75.7636 61.9052 75.7636 62.4805C75.7801 70.9776 75.776 79.4727 75.7719 87.9697C75.7719 88.3197 75.7306 88.6698 75.71 89.0198H75.5552C75.5057 88.9675 75.4644 88.8971 75.4045 88.8669C71.265 86.8452 67.1296 84.8175 62.9735 82.826C62.7135 82.7013 62.2677 82.7576 61.9892 82.8904C59.2652 84.1899 56.5537 85.5176 53.8462 86.8513C52.4079 87.5593 50.9861 88.2976 49.556 89.0218H49.4013L49.3992 89.0198ZM46.0645 47.15C46.0191 56.0937 53.2416 63.1947 62.4287 63.2409C71.7334 63.2872 78.9539 56.3351 79.0406 47.2425C79.1273 38.3049 71.8572 31.1416 62.6392 31.0852C53.4108 31.0289 46.1098 38.1058 46.0645 47.152V47.15ZM72.4247 63.9711C65.8295 67.3547 59.2755 67.3527 52.6989 63.9711V83.8037C53.0249 83.6588 53.2788 83.5542 53.5264 83.4355C56.3122 82.0797 59.1043 80.7339 61.8777 79.352C62.3627 79.1106 62.7321 79.0925 63.2273 79.3399C66.0214 80.7339 68.8382 82.0878 71.6468 83.4536C71.8861 83.5703 72.1358 83.6729 72.4268 83.8017V63.9711H72.4247Z" fill="#EF7B10"/>
<path d="M37.7827 33.6741V36.9784H22.9131V33.6741H37.7827Z" fill="black"/>
<path d="M22.9131 47.7174V44.4131H34.4783V47.7174H22.9131Z" fill="black"/>
<path d="M44.3916 25.4131V27.0653H34.4785V25.4131H44.3916Z" fill="black"/>
<path d="M22.9131 27.0653V25.4131H27.8696V27.0653H22.9131Z" fill="black"/>
<path d="M62.555 37.8067C68.17 37.7964 72.4711 42.0692 72.4794 47.661C72.4856 53.3106 68.1989 57.6267 62.5757 57.6308C56.9834 57.6349 52.6575 53.3333 52.6533 47.7579C52.6471 42.0898 56.9028 37.815 62.555 37.8047V37.8067ZM55.9794 47.7311C56 51.402 58.9625 54.3 62.6666 54.2732C66.2488 54.2464 69.1761 51.2742 69.1534 47.6858C69.1306 44.0623 66.1496 41.1004 62.5426 41.1169C58.9294 41.1334 55.9587 44.1262 55.9814 47.7311H55.9794Z" fill="#EF7B10"/>
</svg>
