<svg width="10" height="18" viewBox="0 0 10 18" fill="none" xmlns="http://www.w3.org/2000/svg">
<g clip-path="url(#clip0_281_9339)">
<path d="M2.70669 10.1657C2.60297 10.1657 2.52444 10.1657 2.44591 10.1657C1.80245 10.1657 1.15899 10.168 0.515537 10.1645C0.132861 10.1627 0.00452067 10.0425 0.00276259 9.67025C-0.00192563 8.76855 -0.00251166 7.86685 0.00276259 6.96515C0.0051067 6.60166 0.134033 6.48381 0.501472 6.48264C1.22522 6.48088 1.94837 6.48264 2.70611 6.48264C2.70611 6.39353 2.70611 6.31614 2.70611 6.23875C2.70904 5.52055 2.68032 4.8006 2.72076 4.08417C2.80515 2.58798 3.36773 1.34154 4.71794 0.56472C5.41766 0.162531 6.18594 0.00189022 6.9888 0.00130394C7.72016 0.000717659 8.45093 -0.00104118 9.1823 0.00189022C9.58607 0.00364906 9.68921 0.107421 9.6898 0.509023C9.69155 1.33744 9.69214 2.16585 9.68921 2.99368C9.68804 3.34604 9.56907 3.46974 9.2157 3.47561C8.66718 3.48499 8.11924 3.48088 7.57072 3.48909C7.41777 3.49143 7.26364 3.50316 7.11362 3.5313C6.7913 3.59228 6.55572 3.79865 6.54283 4.11524C6.51118 4.88151 6.53287 5.64954 6.53287 6.4375C6.60964 6.4375 6.68875 6.4375 6.76728 6.4375C7.54259 6.4375 8.31732 6.43574 9.09263 6.43867C9.46945 6.43984 9.59896 6.56648 9.59955 6.93642C9.60189 7.84516 9.60131 8.75448 9.59955 9.66322C9.59896 10.0208 9.50051 10.1275 9.14831 10.1305C8.35893 10.1363 7.56896 10.134 6.77958 10.1352C6.70047 10.1352 6.62194 10.1352 6.52173 10.1352C6.51646 10.2466 6.50884 10.3392 6.50884 10.4312C6.50825 12.7107 6.50884 14.9908 6.50825 17.2702C6.50825 17.9321 6.44027 18.0001 5.78334 18.0001C4.94239 18.0001 4.10144 18.0007 3.26108 18.0001C2.81687 18.0001 2.70786 17.8917 2.70728 17.4402C2.70611 15.1092 2.70728 12.7781 2.70728 10.4471L2.70669 10.1657Z" fill="#4A4D50"/>
</g>
<defs>
<clipPath id="clip0_281_9339">
<rect width="9.69231" height="18" fill="white"/>
</clipPath>
</defs>
</svg>
