<svg width="89" height="76" viewBox="0 0 89 76" fill="none" xmlns="http://www.w3.org/2000/svg">
<g clip-path="url(#clip0_281_9225)">
<path d="M35.24 15.8833C36.3511 16.5849 37.4527 17.1691 38.4396 17.9307C39.4073 18.674 40.258 19.5946 41.0728 20.3536C42.712 19.2191 44.3393 18.095 46.0215 16.9292C43.988 14.7775 42.908 12.0911 43.3429 8.82839C43.663 6.43416 44.7216 4.4833 46.4731 3.00712C49.9164 0.10691 54.7385 0.576368 57.6585 4.05818C60.3777 7.30266 60.9464 12.884 57.0467 16.9344C58.6764 18.0585 60.3252 19.1956 61.9859 20.3405C62.8294 19.5685 63.7111 18.6453 64.7004 17.8863C65.6657 17.1482 66.7386 16.5771 67.8354 15.8911C65.6395 13.5673 64.5833 10.7584 65.1376 7.38872C65.5056 5.1588 66.5475 3.33835 68.1819 1.92736C71.5201 -0.951978 76.3923 -0.547722 79.3171 2.83759C82.0937 6.05338 82.7675 11.6504 78.7006 15.9302C78.9491 16.0711 79.1665 16.2015 79.3887 16.3162C84.4521 18.927 87.3482 23.2799 88.1774 29.2889C88.3399 30.4652 87.6875 31.1902 86.4665 31.1955C83.2693 31.2085 80.0721 31.2007 76.8774 31.2007C73.6802 31.2007 70.483 31.2033 67.2882 31.1981C66.8055 31.1981 66.4208 31.2215 66.06 31.7327C65.8187 32.0744 65.2428 32.3013 64.8151 32.3013C55.9715 32.3326 47.1302 32.33 38.2866 32.3091C37.8995 32.3091 37.3213 32.1813 37.1636 31.8944C36.7239 31.1042 36.1002 31.2007 35.4503 31.2007C29.3259 31.2033 23.2016 31.2007 17.0773 31.2007C15.1465 31.2007 14.6591 30.5643 15.0127 28.5248C16.0235 22.7322 19.0056 18.6322 23.9328 16.2015C24.0403 16.1493 24.1455 16.0893 24.2482 16.0267C24.2697 16.0137 24.2793 15.9746 24.3486 15.8572C22.1574 13.6664 21.192 10.9044 21.6006 7.66518C21.8921 5.3518 22.9483 3.45049 24.6234 1.97953C27.983 -0.972842 32.8242 -0.581628 35.823 2.84281C38.5997 6.01165 39.2329 11.7521 35.2424 15.8807L35.24 15.8833ZM63.1328 29.1533C62.913 24.1849 57.1543 19.2321 51.6034 19.206C45.9833 19.1799 40.2126 24.0936 39.9378 29.1533H63.1328ZM85.0519 28.0553C83.5393 22.7243 80.4521 19.4303 75.5822 18.3167C71.1401 17.3021 66.048 19.4486 63.9835 22.92C64.6072 24.4118 65.2547 25.8019 65.7589 27.2494C65.9811 27.8884 66.2201 28.0736 66.8246 28.071C71.7805 28.0449 76.7388 28.0553 81.6946 28.0553C82.7675 28.0553 83.8404 28.0553 85.0519 28.0553ZM36.9055 28.0266C37.5793 26.4957 38.1361 25.0586 38.8362 23.7128C39.1588 23.0947 39.08 22.7843 38.6809 22.3097C33.6581 16.3215 24.6712 16.7544 20.1789 23.2329C19.1944 24.6517 18.4393 26.1957 18.1167 28.0266H36.9055ZM67.9238 9.05008C67.931 12.3128 70.3659 14.9548 73.3289 14.9157C76.2632 14.8766 78.6623 12.2554 78.691 9.06052C78.7197 5.82908 76.2943 3.18968 73.2955 3.18708C70.2775 3.18186 67.9167 5.75866 67.9238 9.05008ZM56.9058 10.1168C56.8986 6.85406 54.4565 4.20945 51.4959 4.2564C48.5639 4.30334 46.1553 6.93491 46.1338 10.1142C46.1123 13.3456 48.5401 15.9824 51.5389 15.9824C54.5592 15.9824 56.9129 13.4082 56.9058 10.1168ZM29.9138 3.18708C26.9364 3.13231 24.4657 5.65695 24.4011 8.81796C24.3342 12.1355 26.676 14.827 29.7059 14.9131C32.5924 14.9939 35.1253 12.3441 35.1755 9.19092C35.2281 5.89428 32.903 3.24185 29.9138 3.18708Z" fill="#EF7B10"/>
<path d="M23.4845 63.8098C24.0079 64.8243 24.5073 65.7763 24.9923 66.7387C26.1847 69.1068 25.6208 71.3993 23.4989 72.7503C22.0819 73.6501 20.6577 74.5369 19.2169 75.3897C17.1499 76.6103 14.9898 75.9791 13.8309 73.757C9.39356 65.2572 4.97295 56.7496 0.569067 48.229C-0.577902 46.0121 0.0577097 43.657 2.0888 42.3712C3.50578 41.4714 4.93711 40.5977 6.3756 39.7396C8.46881 38.4877 10.617 39.145 11.8285 41.3932C12.0842 41.8652 12.3279 42.3451 12.6122 42.885C15.1834 41.2627 17.69 39.6457 20.2276 38.0861C22.7199 36.5551 25.1859 34.9538 27.7642 33.6132C30.7559 32.0562 33.824 32.1918 36.9758 33.3967C41.4107 35.0946 45.9245 36.5447 50.4072 38.0913C50.8039 38.2269 51.2197 38.2895 51.6283 38.3834C55.7359 39.3093 57.81 43.6153 56.1517 47.7778C56.0919 47.9264 56.037 48.0751 56.08 48.4428C56.9426 48.0021 57.8386 47.6291 58.6583 47.1127C63.8244 43.863 68.9738 40.582 74.128 37.3089C76.1448 36.0283 78.2069 34.8181 80.5391 34.4347C81.7553 34.2365 83.0648 34.1713 84.2548 34.4478C86.9263 35.0659 88.4388 37.0533 88.9096 39.9561C89.3612 42.7441 88.2214 45.5687 86.0541 47.024C76.3813 53.5234 66.6942 59.9941 57.0286 66.5091C53.4157 68.9451 49.6689 69.0416 45.6784 67.7923C39.6401 65.9041 33.5444 64.2244 27.4846 62.4118C26.579 62.1406 25.8215 62.1745 25.0592 62.79C24.5861 63.1734 24.0461 63.4525 23.4893 63.8098H23.4845ZM22.0437 61.053C23.0281 60.4349 23.9218 59.9107 24.7749 59.3238C25.4559 58.8544 26.1178 58.7761 26.8992 59.0056C33.5946 60.9826 40.3115 62.8865 46.995 64.9078C50.2472 65.891 53.1839 65.4503 56.0513 63.4707C61.4707 59.7307 66.9642 56.1211 72.4291 52.4567C76.4434 49.7651 80.4626 47.0788 84.4746 44.382C85.6574 43.5866 86.2739 42.04 86.0445 40.5194C85.8127 38.9676 85.0863 37.8122 83.6287 37.5045C82.8282 37.3349 81.8987 37.2541 81.1556 37.5358C79.2535 38.253 77.33 39.0172 75.5832 40.0839C70.1972 43.3727 64.8973 46.8258 59.5472 50.1877C57.3918 51.5439 55.0381 52.0968 52.5698 51.7734C47.8457 51.15 43.3271 49.5461 38.7679 48.1586C37.8336 47.8743 37.4441 47.0501 37.6998 46.1347C37.9292 45.3157 38.6938 44.9167 39.578 45.1566C39.7811 45.2114 39.9818 45.274 40.1825 45.3314C43.3797 46.2442 46.5721 47.1805 49.7788 48.0568C51.4204 48.5054 52.8517 47.856 53.4826 46.4998C54.4455 44.4342 53.3679 42.0243 51.2507 41.5105C50.2902 41.2784 49.3057 41.1323 48.3738 40.8063C43.9794 39.2728 39.5947 37.7053 35.2171 36.1144C33.6065 35.5301 31.9888 35.405 30.3831 35.9527C29.2815 36.3282 28.1776 36.7899 27.174 37.4054C22.8872 40.0395 18.6362 42.7441 14.3757 45.4253C14.2753 45.4879 14.1941 45.5844 14.0651 45.6991C16.715 50.798 19.3555 55.8785 22.0461 61.053H22.0437ZM22.7916 69.1251C22.5933 68.6608 22.4642 68.3035 22.2922 67.9723C20.641 64.7748 18.9827 61.5824 17.3244 58.3901C14.6983 53.333 12.0722 48.2759 9.44135 43.2214C8.90132 42.1834 8.52377 42.0426 7.65638 42.5668C6.30152 43.3857 4.95861 44.2282 3.60614 45.0549C2.90363 45.4826 2.73636 46.033 3.14975 46.8258C7.53451 55.2395 11.9073 63.6585 16.2778 72.08C16.6601 72.8155 17.1691 73.0059 17.8357 72.6017C19.2694 71.7358 20.7031 70.8673 22.113 69.9597C22.3854 69.7849 22.555 69.4198 22.7892 69.1225L22.7916 69.1251Z" fill="#1D1E20"/>
<path d="M7.38281 48.8888C6.49152 48.894 5.75794 48.0751 5.76272 47.0788C5.7675 46.0772 6.50825 45.2818 7.41149 45.3053C8.28127 45.3287 8.97423 46.1007 8.98618 47.0605C9.00052 48.0594 8.27649 48.881 7.38281 48.8888Z" fill="black"/>
</g>
<defs>
<clipPath id="clip0_281_9225">
<rect width="89" height="76" fill="white"/>
</clipPath>
</defs>
</svg>
