<svg width="53" height="47" viewBox="0 0 53 47" fill="none" xmlns="http://www.w3.org/2000/svg">
<g id="Layer_1" clip-path="url(#clip0_573_293)">
<path id="Vector" d="M52.9999 29.2487C52.7144 30.1502 52.3391 30.991 51.5683 31.6177C49.5046 33.2913 46.4213 32.5273 45.4343 30.0734C45.3078 29.754 45.1569 29.6287 44.8021 29.6448C44.1658 29.6772 43.5255 29.661 42.8893 29.6529C42.1755 29.6408 41.7228 29.2365 41.7188 28.6261C41.7188 28.0035 42.1429 27.6114 42.877 27.5993C43.55 27.5871 44.2229 27.6154 44.8918 27.579C45.059 27.571 45.2997 27.4133 45.3649 27.2637C46.1194 25.5415 47.5143 24.6522 49.3863 24.7411C50.9728 24.8179 52.3555 25.966 52.8734 27.6356C52.9142 27.765 52.9591 27.8903 52.9999 28.0197V29.2527V29.2487ZM49.0519 26.7826C48.0526 26.7907 47.2084 27.6316 47.2084 28.618C47.2084 29.5963 48.0649 30.4493 49.056 30.4574C50.0633 30.4655 50.9484 29.5761 50.9239 28.5857C50.8994 27.5912 50.0511 26.7746 49.0478 26.7826H49.0519Z" fill="#EF7B10"/>
<path id="Vector_2" d="M31.6975 30.4898C32.2685 30.5868 32.8476 30.6596 33.4104 30.7889C37.7581 31.7673 41.0331 35.2682 41.4777 39.6505C41.6938 41.7486 41.5837 43.8831 41.5919 46.0015C41.5919 46.5917 41.1555 46.9636 40.556 47C40.4173 47.0081 40.2786 47 40.144 47C31.0368 47 21.9295 47 12.8222 47C11.7006 47 11.3866 46.6847 11.3866 45.5608C11.3866 44.057 11.3825 42.5531 11.3866 41.0492C11.4029 35.9716 14.8044 31.7996 19.8087 30.7243C20.294 30.6191 20.7916 30.5787 21.3544 30.4979C21.1301 30.2189 20.9384 29.9885 20.7549 29.754C19.8087 28.521 19.2907 27.1263 19.2662 25.5779C19.2377 23.6294 19.2295 21.6808 19.2662 19.7323C19.3192 16.6437 21.8724 14.1817 24.9965 14.1695C27.4803 14.1615 29.9641 14.1695 32.4479 14.1695C33.3533 14.1695 33.7326 14.5455 33.7326 15.4551C33.7326 18.7539 33.7367 22.0527 33.7326 25.3556C33.7326 27.1708 33.1168 28.7636 31.9259 30.1421C31.8484 30.231 31.775 30.3281 31.7056 30.4211C31.6975 30.4332 31.7015 30.4534 31.6975 30.4979V30.4898ZM13.487 44.91H39.5119C39.5119 43.4303 39.5893 41.9912 39.4955 40.5601C39.2304 36.4851 36.3347 33.2913 32.4561 32.7254C32.2644 32.6971 31.987 32.7901 31.8484 32.9275C30.3801 34.3505 28.9363 35.7978 27.4844 37.2329C26.7299 37.9808 26.2608 37.9808 25.5063 37.2329C24.0544 35.7938 22.6065 34.3505 21.1423 32.9275C21.0037 32.7901 20.7263 32.6971 20.5346 32.7254C18.4342 33.0447 16.7212 34.0514 15.3753 35.6725C14.3557 36.8974 13.748 38.3002 13.5482 39.9334H14.1518C16.6193 39.9334 19.0868 39.9334 21.5543 39.9334C21.7745 39.9334 22.0029 39.9537 22.215 40.0103C22.6718 40.1315 22.9042 40.4792 22.9369 40.9118C22.9695 41.3565 22.7493 41.7243 22.3292 41.8901C22.0845 41.9871 21.7908 41.9912 21.5176 41.9912C19.0337 41.9992 16.5499 41.9952 14.0621 41.9952C13.8785 41.9952 13.695 41.9952 13.4829 41.9952V44.9059L13.487 44.91ZM21.3503 23.5364C21.3503 24.7694 21.2321 25.9297 21.644 27.0495C22.3373 28.9172 23.6792 30.0734 25.645 30.4211C27.4722 30.7445 29.0383 30.1502 30.3067 28.808C31.9299 27.0899 31.6689 24.9675 31.6363 22.9583C30.894 23.1443 30.1925 23.4555 29.4788 23.4798C26.999 23.5526 24.5193 23.5243 22.0396 23.5364C21.8357 23.5364 21.6317 23.5364 21.3503 23.5364ZM21.3626 21.3857C21.4237 21.418 21.4523 21.4463 21.4808 21.4463C24.1196 21.4463 26.7584 21.4787 29.3931 21.4383C30.4168 21.4221 31.4446 20.5367 31.5466 19.5342C31.6526 18.4588 31.571 17.3633 31.571 16.2475C31.5384 16.2434 31.4732 16.2192 31.4079 16.2192C29.2871 16.2192 27.1663 16.199 25.0454 16.2273C24.1278 16.2394 23.2917 16.5345 22.5902 17.1571C21.2688 18.3214 21.2851 19.8454 21.3626 21.3857ZM29.0016 32.6283H23.9973C24.8456 33.4692 25.698 34.3141 26.5015 35.1065C27.3009 34.3141 28.1573 33.4692 29.0057 32.6283H29.0016Z" fill="black"/>
<path id="Vector_3" d="M9.04954 29.6408C8.99652 29.6408 8.9435 29.6489 8.89456 29.6408C8.13188 29.5276 7.67509 29.7338 7.29579 30.5262C6.54127 32.0988 4.60399 32.8305 2.9522 32.3615C1.0924 31.8319 -0.0740447 30.2674 -0.000631818 28.4078C0.072781 26.6573 1.42276 25.0888 3.15204 24.7573C5.02407 24.3975 6.85939 25.3839 7.56497 27.1586C7.6914 27.474 7.85862 27.5548 8.17267 27.5548C8.92719 27.5548 9.68986 27.5548 10.4403 27.6114C10.9297 27.6478 11.1948 27.9955 11.2601 28.4644C11.3213 28.9172 11.1296 29.281 10.7217 29.4791C10.5137 29.5802 10.2609 29.6125 10.0243 29.6287C9.69802 29.653 9.37174 29.6368 9.04138 29.6368L9.04954 29.6408ZM3.90248 30.4089C4.92211 30.4211 5.7582 29.6287 5.78675 28.6261C5.8153 27.6397 4.98329 26.7867 3.97998 26.7705C2.92773 26.7544 2.0794 27.5548 2.06716 28.5776C2.05493 29.564 2.89102 30.4008 3.90248 30.4089Z" fill="#EF7B10"/>
<path id="Vector_4" d="M42.5058 14.1776C42.0123 14.683 41.5065 15.2166 40.9763 15.73C40.7846 15.916 40.5522 16.1019 40.3034 16.1787C39.8751 16.3122 39.4836 16.1707 39.2144 15.7906C38.9493 15.4187 38.9044 15.0064 39.1981 14.6506C39.5774 14.1898 40.0138 13.7774 40.4339 13.3489C40.6378 13.1427 40.858 12.9487 41.0946 12.7304C40.5032 11.5701 40.3931 10.4018 40.907 9.21728C41.2414 8.44109 41.7879 7.83064 42.5261 7.41425C44.1453 6.50061 46.1438 6.77955 47.3551 8.07725C48.6276 9.43558 48.807 11.4286 47.7874 12.9406C46.6699 14.594 44.7897 15.0549 42.5058 14.1857V14.1776ZM46.3681 10.7818C46.3803 9.79942 45.5401 8.94642 44.5409 8.92621C43.5213 8.91004 42.6485 9.75899 42.6526 10.7697C42.6526 11.7561 43.5091 12.601 44.5042 12.605C45.4953 12.6091 46.3558 11.7682 46.3681 10.7818Z" fill="#EF7B10"/>
<path id="Vector_5" d="M10.4077 14.0564C9.0373 14.7436 7.71995 14.7477 6.41483 14.0159C4.51833 12.9487 3.91064 10.3533 5.13011 8.52601C6.38628 6.63808 9.05362 6.19339 10.8033 7.58002C12.2838 8.74835 12.7528 10.5514 12.0024 12.2614C11.8882 12.5242 11.9045 12.6819 12.1166 12.88C12.5937 13.3246 13.0546 13.7896 13.5114 14.2545C14.0294 14.784 14.0538 15.4107 13.5971 15.8392C13.1607 16.2515 12.553 16.2111 12.035 15.7058C11.4803 15.1681 10.9501 14.6102 10.4036 14.0564H10.4077ZM10.2568 10.6403C10.2486 9.63774 9.4166 8.82112 8.40922 8.82516C7.40183 8.83325 6.58613 9.65391 6.58205 10.6605C6.58205 11.6672 7.39775 12.4919 8.40514 12.504C9.42884 12.5161 10.2649 11.6712 10.2568 10.6363V10.6403Z" fill="#EF7B10"/>
<path id="Vector_6" d="M30.5237 3.89307C30.4339 5.50609 29.4796 6.92911 27.9828 7.49913C27.6279 7.63253 27.5219 7.81445 27.5341 8.17021C27.5627 8.80086 27.5505 9.43556 27.5341 10.0662C27.5219 10.7535 27.1263 11.1779 26.5186 11.182C25.8987 11.1901 25.4786 10.7454 25.4663 10.042C25.4541 9.39109 25.4541 8.74427 25.4663 8.0934C25.4745 7.80637 25.4052 7.64466 25.0993 7.52742C23.4312 6.8806 22.3993 5.23928 22.5788 3.58178C22.7786 1.7545 24.0797 0.363825 25.8701 0.0565826C27.5749 -0.234489 29.3083 0.658939 30.0628 2.28813C30.2953 2.78942 30.3687 3.35944 30.5155 3.89711L30.5237 3.89307ZM26.5145 5.74461C27.5097 5.74461 28.358 4.89969 28.3621 3.91328C28.3662 2.90262 27.4893 2.03749 26.4819 2.06174C25.4827 2.08196 24.6384 2.94304 24.6547 3.92137C24.667 4.90778 25.5275 5.75269 26.5145 5.74865V5.74461Z" fill="#EF7B10"/>
<path id="Vector_7" d="M38.7946 27.6033C39.3697 27.5912 39.8265 28.0197 39.8469 28.5776C39.8672 29.1395 39.3778 29.6449 38.815 29.6449C38.2726 29.6449 37.7954 29.1678 37.7872 28.6261C37.7791 28.0682 38.2236 27.6154 38.7946 27.6033Z" fill="#EF7B10"/>
<path id="Vector_8" d="M26.4741 41.979C25.9113 41.9669 25.4627 41.5141 25.4708 40.9562C25.479 40.4145 25.9602 39.9374 26.4986 39.9374C27.0573 39.9374 27.5508 40.4468 27.5305 41.0047C27.5101 41.5585 27.0451 41.9871 26.4782 41.979H26.4741Z" fill="black"/>
</g>
<defs>
<clipPath id="clip0_573_293">
<rect width="53" height="47" fill="white"/>
</clipPath>
</defs>
</svg>
