<svg width="73" height="42" viewBox="0 0 73 42" fill="none" xmlns="http://www.w3.org/2000/svg">
<g clip-path="url(#clip0_281_9389)">
<path d="M0 33.4962C0.186623 32.2268 0.333255 30.9519 0.56939 29.6901C2.29279 20.4519 6.95075 12.9618 14.5052 7.26118C19.723 3.32368 25.6454 0.950287 32.1696 0.248033C42.7538 -0.89172 52.2011 1.9079 60.3154 8.73328C66.731 14.1279 70.6977 20.9945 72.3468 29.1456C73.0571 32.6587 73.1543 36.2094 72.8 39.7714C72.682 40.9562 71.7965 41.7411 70.8005 41.6115C69.7036 41.4688 69.1076 40.5619 69.2256 39.3489C69.9988 31.4307 68.1649 24.1434 63.5813 17.5978C59.0147 11.0766 52.8047 6.75233 45.0428 4.64744C40.8761 3.51708 36.6314 3.17346 32.3524 3.81751C19.245 5.79659 10.3004 12.9599 5.51109 25.1048C3.68675 29.7314 3.20877 34.589 3.78006 39.531C3.90004 40.5769 3.22591 41.4557 2.2052 41.604C1.31969 41.7317 0.462748 41.1026 0.258987 40.1356C0.140919 39.5686 0.0837898 38.9884 0 38.4138C0 36.7746 0 35.1335 0 33.4943L0 33.4962Z" fill="white"/>
<path d="M39.7223 30.8485C41.6743 28.922 43.6033 27.018 45.5286 25.1103C46.0599 24.5845 46.6521 24.2296 47.4329 24.4268C48.8192 24.776 49.2725 26.3758 48.2537 27.4255C47.0216 28.6929 45.7419 29.9153 44.4831 31.1583C43.8452 31.7873 43.2244 32.4351 42.5636 33.0397C42.2056 33.3646 42.137 33.6425 42.297 34.1231C43.3786 37.3903 41.4933 40.8603 38.1856 41.7728C34.8168 42.7023 31.3643 40.7157 30.5873 37.3302C30.0503 34.9831 30.7454 32.944 32.6097 31.4024C34.495 29.842 36.6526 29.5716 38.9454 30.4823C39.1853 30.5781 39.4157 30.702 39.7242 30.8485H39.7223ZM36.525 38.4305C37.8942 38.4324 39.0273 37.3321 39.033 35.9952C39.0387 34.6714 37.9056 33.5317 36.5555 33.5016C35.1844 33.4716 34.038 34.6132 34.0437 35.999C34.0494 37.3734 35.1253 38.4268 36.525 38.4287V38.4305Z" fill="#EF7B10"/>
<path d="M47.6217 19.0754C46.2449 18.8932 45.367 17.6277 45.9116 16.4936C46.3667 15.5472 46.9152 14.6365 47.4998 13.7615C48.0235 12.9767 49.029 12.8133 49.8345 13.2808C50.6286 13.7428 50.9695 14.6966 50.5391 15.5284C50.0668 16.4429 49.5679 17.3573 48.9566 18.1816C48.6576 18.5853 48.0749 18.7843 47.6217 19.0773V19.0754Z" fill="white"/>
<path d="M19.3881 25.0333C19.2167 26.3439 17.9522 27.2527 16.8401 26.7476C15.8118 26.282 14.8272 25.698 13.8903 25.0709C13.1705 24.5883 13.0524 23.5912 13.4904 22.8627C13.9474 22.0985 14.8939 21.7399 15.7032 22.1342C16.6554 22.5998 17.6037 23.1068 18.4626 23.7171C18.8758 24.0118 19.0853 24.5845 19.3881 25.0314V25.0333Z" fill="white"/>
<path d="M55.7089 26.8791C54.8939 26.8922 54.176 26.4078 53.9265 25.7299C53.6732 25.0408 53.8618 24.1714 54.4826 23.7715C55.4119 23.1725 56.3793 22.6186 57.3714 22.1285C58.1331 21.753 59.0205 22.0741 59.4909 22.7707C59.9556 23.4579 59.9556 24.4775 59.2871 24.9413C58.2493 25.6623 57.0972 26.2237 55.987 26.8434C55.8918 26.896 55.7546 26.8753 55.7089 26.8791Z" fill="white"/>
<path d="M27.285 17.1001C27.2926 17.8906 26.8089 18.5835 26.1138 18.8238C25.4016 19.0698 24.558 18.8933 24.1371 18.2661C23.5258 17.3554 22.9603 16.4053 22.4689 15.4271C22.0976 14.6854 22.448 13.7803 23.1374 13.3353C23.821 12.8941 24.8151 12.8715 25.2778 13.51C26.0243 14.5427 26.5975 15.6975 27.2335 16.8053C27.2888 16.8992 27.2754 17.0325 27.285 17.102V17.1001Z" fill="white"/>
<path d="M59.9407 37.7282C59.4665 37.7282 58.9923 37.7489 58.5201 37.7245C57.5374 37.6738 56.81 36.9603 56.77 36.0365C56.7319 35.1446 57.4593 34.2846 58.4039 34.232C59.4436 34.1757 60.491 34.17 61.5289 34.2358C62.481 34.2958 63.178 35.1558 63.1285 36.0627C63.0809 36.9622 62.3744 37.6663 61.4298 37.7207C60.9347 37.7489 60.4358 37.7264 59.9369 37.7264C59.9369 37.7264 59.9369 37.7282 59.9369 37.7301L59.9407 37.7282Z" fill="white"/>
<path d="M38.3246 12.9335C38.3246 13.3766 38.3474 13.8217 38.3207 14.2648C38.2579 15.26 37.4867 16.0073 36.5402 16.0185C35.59 16.0298 34.8016 15.3013 34.7578 14.2948C34.7178 13.3391 34.7159 12.3796 34.7616 11.4239C34.8073 10.4475 35.569 9.75835 36.5097 9.75272C37.4448 9.74709 38.2217 10.4306 38.3093 11.3938C38.355 11.9027 38.3169 12.4209 38.3169 12.9335C38.3188 12.9335 38.3207 12.9335 38.3227 12.9335H38.3246Z" fill="white"/>
<path d="M13.0902 37.7245C12.5932 37.7245 12.0942 37.7489 11.5991 37.7189C10.6393 37.6607 9.96521 36.9715 9.93093 36.0496C9.89665 35.1183 10.5746 34.2902 11.5306 34.2339C12.5684 34.1738 13.6158 34.1719 14.6517 34.2339C15.6115 34.2921 16.2723 35.107 16.2437 36.0515C16.2171 36.964 15.5353 37.6607 14.5775 37.7189C14.0823 37.7489 13.5834 37.7245 13.0864 37.7245H13.0902Z" fill="white"/>
</g>
<defs>
<clipPath id="clip0_281_9389">
<rect width="73" height="42" fill="white"/>
</clipPath>
</defs>
</svg>
