<svg width="61" height="61" viewBox="0 0 61 61" fill="none" xmlns="http://www.w3.org/2000/svg">
<g id="Layer_1" clip-path="url(#clip0_573_356)">
<path id="Vector" d="M-0.000361392 33.2436C0.477159 32.615 1.21095 32.58 1.89221 32.4272C2.60053 32.2697 3.31044 32.1264 4.09676 31.9609C3.48553 31.0697 2.92365 30.2565 2.36814 29.4401C1.85242 28.681 1.88584 28.3149 2.5289 27.6656C3.31204 26.8763 4.09994 26.0933 4.88626 25.3071C5.85403 24.3395 6.05141 24.3204 7.15926 25.0811C7.89145 25.584 8.62365 26.0853 9.43543 26.6423C9.64873 25.6159 9.83973 24.6721 10.0419 23.73C10.2409 22.8006 10.4717 22.5937 11.2182 22.5173C11.6543 20.6856 11.9217 18.8474 12.5329 17.1319C14.529 11.522 18.3905 7.65642 23.9425 5.51593C26.51 4.52605 29.1873 4.14092 31.9378 4.40669C32.3803 4.44966 32.732 4.33985 33.0822 4.05976C33.8574 3.44069 34.658 2.85345 35.4587 2.26939C36.159 1.75694 36.6557 1.83651 37.1873 2.53357C37.8845 3.44865 38.5753 4.3685 39.2597 5.29472C39.5622 5.70372 39.9044 6.00291 40.4551 5.87878C41.0091 5.75306 41.1873 5.34405 41.2558 4.83002C41.3943 3.78922 41.5725 2.75319 41.7046 1.71238C41.8622 0.456734 42.214 0.173457 43.454 0.350107C45.2001 0.598372 46.9462 0.843455 48.694 1.08535C49.5455 1.20312 49.883 1.57711 49.7922 2.45081C49.684 3.47411 49.4994 4.48945 49.372 5.51275C49.2972 6.10795 49.0728 6.77158 49.7381 7.19013C50.4082 7.61186 50.8953 7.14079 51.3872 6.77317C52.2133 6.15569 53.033 5.52866 53.8655 4.91914C54.577 4.39874 55.0688 4.45762 55.6005 5.15308C56.7433 6.65222 57.8735 8.16091 58.9956 9.67596C59.513 10.373 59.4334 10.868 58.7346 11.4043C57.8209 12.1045 56.9009 12.7952 55.9714 13.4747C55.5336 13.7946 55.2567 14.1766 55.4047 14.7368C55.5495 15.2826 56 15.4306 56.495 15.4991C57.6538 15.6582 58.811 15.8173 59.9682 15.986C60.7004 16.0927 61.0808 16.5271 60.9853 17.256C60.729 19.2198 60.4441 21.1821 60.1465 23.1396C60.0478 23.7841 59.5464 24.1294 58.8922 24.0419C57.6936 23.8812 56.4966 23.7125 55.3044 23.5183C54.811 23.4388 54.3828 23.4865 54.0963 23.9273C53.7955 24.3889 53.9132 24.8281 54.2284 25.245C54.9351 26.1776 55.6403 27.1134 56.3359 28.0539C56.8802 28.7908 56.8213 29.2841 56.1003 29.8316C54.6152 30.9583 53.1222 32.0771 51.6227 33.1879C50.9049 33.7195 50.3796 33.6351 49.8416 32.9254C49.1587 32.0246 48.4791 31.1207 47.8058 30.2119C47.4938 29.7918 47.1436 29.4496 46.5674 29.5976C45.9625 29.7536 45.8304 30.2581 45.754 30.7896C45.5948 31.9068 45.4389 33.0256 45.2733 34.1428C45.1476 34.9847 44.7162 35.2966 43.8742 35.1772C42.0485 34.921 40.2227 34.6696 38.3986 34.4133C37.4563 34.2813 37.1348 33.8436 37.2701 32.9047C37.4308 31.7875 37.5884 30.6687 37.7508 29.5515C37.824 29.0502 37.7747 28.5903 37.3067 28.2895C36.8276 27.9823 36.4026 28.159 35.9951 28.4661C35.0926 29.1473 34.1869 29.8252 33.2796 30.5C32.463 31.1079 31.9887 31.0443 31.3695 30.2247C30.268 28.7685 29.1729 27.3091 28.0826 25.845C27.543 25.1193 27.6162 24.6148 28.3357 24.0642C29.2334 23.3767 30.1439 22.7051 31.0512 22.0303C31.4698 21.7184 31.82 21.3572 31.6719 20.789C31.5271 20.232 31.0798 20.0601 30.5434 19.9949C29.4419 19.8596 28.3468 19.683 27.2469 19.5302C26.3205 19.4013 25.9815 19.0273 26.0993 18.0883C26.3301 16.2407 26.5927 14.3962 26.8761 12.5565C27.0241 11.6 27.4793 11.3327 28.4885 11.4838C29.6059 11.6525 30.7265 11.7958 31.8423 11.9692C32.3214 12.044 32.7177 11.9438 32.9819 11.5268C33.2653 11.0796 33.1395 10.6595 32.8387 10.2632C32.1686 9.37677 31.4905 8.4967 30.8458 7.59117C30.6039 7.2506 30.4463 6.85115 30.206 6.396C27.699 6.39122 25.2079 6.96414 22.884 8.15613C17.5501 10.8934 14.303 15.2572 13.531 21.1789C12.6571 27.8805 15.0781 33.3487 20.5075 37.4244C21.6345 38.271 22.8394 39.0142 23.57 40.281C24.143 41.2757 24.5203 42.3292 24.5346 43.4862C24.5505 44.8166 24.5458 46.1455 24.5521 47.4759C24.5601 49.0546 25.3193 49.8312 26.8761 49.8344C29.3783 49.8392 31.8789 49.8392 34.3811 49.8344C35.9458 49.8312 36.6795 49.0642 36.7018 47.4807C36.7241 45.8749 36.6636 44.258 36.8483 42.6698C37.0616 40.8396 38.0739 39.3914 39.5558 38.2901C40.3994 37.6647 41.2478 37.0472 42.1328 36.3979C42.5562 36.8689 42.9876 37.348 43.4906 37.9082C42.6645 38.524 41.8972 39.1447 41.0823 39.6953C39.4619 40.7871 38.7217 42.3133 38.7217 44.2357C38.7217 45.4468 38.7265 46.6579 38.7186 47.869C38.709 49.2122 38.1439 50.2864 37.0727 51.0742C36.7703 51.297 36.6923 51.5229 36.6955 51.8651C36.7082 53.4136 36.7018 54.9621 36.7002 56.5105C36.6971 58.8993 35.7643 60.1772 33.4961 60.9045C33.4436 60.922 33.4022 60.9713 33.356 61.0048H27.995C27.9425 60.9761 27.8932 60.9332 27.8391 60.9236C25.8605 60.5433 24.4614 58.7752 24.5362 56.5312C24.5887 54.9461 24.5553 53.3579 24.5362 51.7712C24.533 51.5675 24.4375 51.2874 24.2863 51.176C23.0288 50.253 22.4861 49.0117 22.5211 47.4775C22.5386 46.6961 22.5243 45.9147 22.5243 44.9598C22.0276 45.4643 21.6599 45.8431 21.2859 46.2187C20.5012 47.0048 20.2051 47.0287 19.2851 46.3969C18.5099 45.8638 17.7315 45.3338 16.8879 44.7561C16.6635 45.8129 16.4677 46.7789 16.2512 47.7385C16.0459 48.652 15.7833 48.8557 14.868 48.8573C13.8159 48.8589 12.7653 48.8573 11.7132 48.8573C10.4526 48.8573 10.26 48.6934 10.0116 47.4632C9.83337 46.5799 9.63758 45.6999 9.43384 44.7514C8.52178 45.3768 7.69408 45.9529 6.85683 46.5163C6.16283 46.9842 5.77445 46.9476 5.17755 46.3587C4.3594 45.5503 3.54761 44.7339 2.73424 43.919C1.82536 43.0103 1.80307 42.7812 2.51776 41.7388C3.02871 40.9924 3.53965 40.2428 4.09835 39.4264C3.15605 39.2227 2.29492 39.0142 1.42424 38.8582C0.865542 38.758 0.365737 38.5909 -0.00195312 38.1357V33.2516L-0.000361392 33.2436ZM58.2539 21.876C58.4513 20.5073 58.6359 19.223 58.8269 17.8974C57.8958 17.7637 57.0171 17.6316 56.1369 17.509C55.1914 17.377 54.3939 16.9902 53.8448 16.1818C52.8754 14.7574 53.1874 13.0657 54.6423 11.9279C55.3713 11.3581 56.1194 10.8123 56.8723 10.2457C56.0446 9.14442 55.2598 8.10203 54.4576 7.03735C53.5981 7.67074 52.8038 8.29618 51.9697 8.85955C50.9001 9.58207 49.762 9.61867 48.6685 8.93276C47.5575 8.23571 47.099 7.18695 47.2662 5.88037C47.3887 4.92869 47.5224 3.97701 47.6545 3.00304C46.3032 2.81525 45.0155 2.63701 43.6879 2.4524C43.5399 3.43273 43.4014 4.33031 43.2693 5.22947C43.0656 6.60448 42.3159 7.52433 40.9613 7.86968C39.5876 8.22138 38.518 7.68029 37.6839 6.5997C37.13 5.88196 36.5936 5.15149 36.0285 4.39874C34.9382 5.21833 33.8845 6.01087 32.818 6.81296C33.4515 7.66279 34.0564 8.4235 34.6071 9.22399C35.3648 10.3269 35.4189 11.5045 34.7026 12.6313C33.972 13.7835 32.861 14.1957 31.516 13.9951C30.6373 13.8646 29.7571 13.7485 28.7973 13.6132C28.6063 14.9452 28.4184 16.247 28.2258 17.5791C29.157 17.7207 30.0341 17.8687 30.9143 17.9833C32.3182 18.1647 33.2573 18.9079 33.6568 20.2654C34.015 21.4813 33.52 22.7067 32.3628 23.5947C31.6576 24.1358 30.9445 24.6674 30.1869 25.2403C31.0018 26.324 31.7913 27.3744 32.5983 28.4502C33.4595 27.812 34.2362 27.193 35.056 26.6392C36.4296 25.7129 38.1599 25.9787 39.169 27.2264C39.8503 28.0683 39.8917 29.039 39.7436 30.0496C39.6274 30.8453 39.516 31.6426 39.3982 32.4782C40.7639 32.6707 42.0469 32.8521 43.3696 33.0399C43.4969 32.1424 43.6306 31.3228 43.7261 30.4984C43.8996 29.0136 44.6939 27.9998 46.0135 27.6227C47.2598 27.2662 48.4886 27.7404 49.3879 28.9276C49.9244 29.6358 50.4592 30.3472 51.0115 31.0809C51.575 30.6607 52.0987 30.2724 52.6192 29.8809C53.1508 29.4799 53.6793 29.0757 54.2236 28.6635C53.6315 27.8693 53.0664 27.1277 52.5173 26.375C52.0079 25.6763 51.7342 24.9029 51.8917 24.0308C52.2196 22.2213 53.7525 21.1932 55.6307 21.4924C56.4712 21.6261 57.3148 21.7407 58.2459 21.8776L58.2539 21.876ZM18.5481 38.5193C16.8083 41.4953 13.7458 42.2592 11.414 41.5335C8.73507 40.6996 7.01282 38.3378 7.03988 35.6053C7.06216 33.4219 8.50268 30.3679 12.3419 29.6199C12.1 28.6094 11.8565 27.6004 11.6018 26.5341C11.5572 26.6503 11.5317 26.7028 11.5158 26.7569C10.911 28.7971 9.60734 29.2507 7.84052 28.0348C7.29137 27.6561 6.73904 27.2837 6.26788 26.9638C5.60891 27.5924 5.00882 28.1638 4.38805 28.7558C4.86875 29.464 5.37492 30.1499 5.81902 30.8724C6.59419 32.1328 5.99092 33.5874 4.55359 33.9518C3.84367 34.1317 3.11944 34.2542 2.40952 34.434C2.26308 34.4706 2.04502 34.6425 2.03865 34.7603C2.00363 35.4669 2.02114 36.1751 2.02114 36.8801C2.83292 37.052 3.5699 37.1968 4.30209 37.3671C6.10712 37.7904 6.67855 39.2577 5.64233 40.7903C5.22371 41.4093 4.79871 42.0252 4.32438 42.7159C4.66023 43.0183 4.99131 43.2777 5.27146 43.5817C5.56434 43.8983 5.80946 44.258 6.053 44.5715C6.90617 43.9875 7.55082 43.526 8.21617 43.0947C9.57551 42.2114 11.051 42.8018 11.4362 44.3837C11.6304 45.1842 11.7928 45.9943 11.9742 46.825C12.6921 46.825 13.3654 46.8425 14.0371 46.8091C14.1693 46.8027 14.3698 46.6181 14.4048 46.4813C14.5672 45.8495 14.6706 45.2033 14.8155 44.5652C15.2293 42.7286 16.7112 42.1525 18.2759 43.2124C18.8935 43.631 19.5079 44.0511 20.1494 44.4872C20.6922 43.9334 21.1904 43.4209 21.6934 42.9148C22.3539 42.2496 22.338 42.2623 21.8669 41.43C21.0949 40.0662 19.6735 39.4725 18.5449 38.5177L18.5481 38.5193ZM9.14892 35.6197C9.10435 37.5023 10.3555 39.1288 12.1923 39.5712C14.0435 40.0184 15.9106 39.1511 16.7399 37.4944C16.9118 37.1506 16.8752 36.9469 16.6157 36.678C15.3424 35.3571 14.2823 33.8739 13.4975 32.2172C13.2429 31.6777 12.9054 31.6204 12.4183 31.719C10.4955 32.1105 9.19508 33.659 9.14892 35.6197ZM26.6325 55.9838C26.4033 58.059 27.2055 58.9693 29.1968 58.9693C30.1885 58.9693 31.1817 58.9693 32.1733 58.9693C34.0691 58.9677 34.9318 57.9237 34.6055 55.9838H26.6309H26.6325ZM34.6453 51.9415H26.6246V53.8496H34.6453V51.9415Z" fill="black"/>
<path id="Vector_2" d="M31.6376 42.7366H29.7116C29.519 41.9489 29.3997 41.142 29.1227 40.394C28.5385 38.8217 27.4466 37.6583 25.9154 36.9708C24.2806 36.2372 22.6873 35.451 21.3391 34.2479C18.5616 31.7668 16.9826 28.6874 16.5289 24.9777C15.9065 19.8947 18.6571 14.1671 23.0948 11.5714C23.4402 12.1189 23.7872 12.6663 24.0944 13.1549C23.1776 14.0127 22.2225 14.7638 21.4378 15.663C16.1549 21.7185 18.2655 31.2735 25.6034 34.5678C27.1935 35.2807 28.6945 36.0812 29.796 37.4912C30.9962 39.0286 31.6042 40.7601 31.6392 42.7382L31.6376 42.7366Z" fill="#EF7B10"/>
<path id="Vector_3" d="M10.9881 10.5719C10.587 11.1353 10.2113 11.6621 9.80066 12.2366C7.42421 10.5401 5.09073 8.87225 2.70312 7.16782C3.09469 6.61718 3.46875 6.092 3.88737 5.50476C6.26065 7.19806 8.60686 8.87225 10.9881 10.5719Z" fill="#EF7B10"/>
<path id="Vector_4" d="M11.3789 0.517219C12.0665 0.337386 12.6571 0.181424 13.3511 0C14.0403 2.69431 14.7279 5.37749 15.4283 8.11158C14.7518 8.28823 14.1469 8.44579 13.4561 8.62562C12.7637 5.92017 12.0793 3.25132 11.3789 0.517219Z" fill="#EF7B10"/>
<path id="Vector_5" d="M1.51478 19.4745C1.34605 18.7854 1.19643 18.1775 1.0293 17.4931C3.73047 16.8168 6.38707 16.1515 9.12485 15.4672C9.29358 16.1293 9.45593 16.7642 9.63102 17.4486C6.90438 18.1297 4.22868 18.7965 1.51478 19.4745Z" fill="#EF7B10"/>
<path id="Vector_6" d="M55.5861 48.0663C55.134 48.609 54.7186 49.1071 54.2793 49.6339C52.2419 47.9374 50.249 46.2775 48.1973 44.5683C48.6366 44.0384 49.0584 43.5291 49.5009 42.9928C51.5447 44.6972 53.5503 46.3698 55.5861 48.0663Z" fill="#EF7B10"/>
<path id="Vector_7" d="M56.9292 37.6901V39.7144C56.7764 39.7319 56.6284 39.7638 56.4788 39.7638C54.4573 39.767 52.4373 39.7542 50.4158 39.7749C49.9861 39.7797 49.8301 39.6747 49.8301 39.2163C49.8301 37.6901 49.8126 37.6901 51.3422 37.6901H56.9276H56.9292Z" fill="#EF7B10"/>
<path id="Vector_8" d="M43.8105 45.8494C43.9156 45.8176 43.9522 45.7969 43.9904 45.7953C45.2245 45.7115 45.8416 46.2775 45.8416 47.4934C45.8416 49.0578 45.8416 50.6222 45.8416 52.1882V52.8613H43.8105V45.8494Z" fill="#EF7B10"/>
<path id="Vector_9" d="M31.633 47.8149H29.6465V44.8293H31.633V47.8149Z" fill="#EF7B10"/>
<path id="Vector_10" d="M51.6199 17.7764C51.5928 22.2595 47.9652 25.8626 43.4893 25.8466C39.0452 25.8323 35.3746 22.1354 35.4065 17.7048C35.4383 13.2345 39.0849 9.62984 43.5577 9.64894C48.04 9.66645 51.6453 13.3029 51.6199 17.7764ZM37.4741 17.7494C37.4805 21.0612 40.2406 23.8223 43.5354 23.8112C46.8383 23.8 49.5792 21.0389 49.5761 17.7255C49.5729 14.4074 46.8335 11.6733 43.5163 11.6764C40.2055 11.6796 37.4693 14.4296 37.4757 17.7478L37.4741 17.7494Z" fill="#EF7B10"/>
</g>
<defs>
<clipPath id="clip0_573_356">
<rect width="61" height="61" fill="white"/>
</clipPath>
</defs>
</svg>
