<svg width="52" height="52" viewBox="0 0 52 52" fill="none" xmlns="http://www.w3.org/2000/svg">
<g id="Isolation_Mode" clip-path="url(#clip0_573_377)">
<path id="Vector" d="M52 6.50118C51.924 6.77331 51.852 7.04743 51.7699 7.31756C50.6436 11.0833 46.0722 12.572 42.9392 10.1969C42.8072 10.0968 42.6671 10.0068 42.5731 9.94077C39.5162 12.9942 36.4872 16.0196 33.4563 19.047C35.645 22.1104 35.3649 25.596 33.4203 28.2612C33.5123 28.3633 33.6043 28.4773 33.7064 28.5814C35.8951 30.7724 38.0917 32.9574 40.2704 35.1604C40.5425 35.4365 40.7365 35.4545 41.0886 35.2985C43.0252 34.4421 45.406 35.4766 46.0862 37.4415C46.8444 39.6265 45.6481 41.8875 43.4394 42.4458C41.3747 42.966 39.1821 41.5654 38.826 39.4724C38.6939 38.694 38.7499 37.9157 39.122 37.1973C39.2381 36.9712 39.2561 36.8232 39.058 36.6251C36.7653 34.346 34.4806 32.057 32.1939 29.7719C32.1479 29.7259 32.0879 29.6939 32.0159 29.6399C31.0035 30.3842 29.8952 30.8904 28.6548 31.1025C28.5408 31.1225 28.3807 31.3486 28.3807 31.4807C28.3647 34.4601 28.3727 37.4395 28.3627 40.4188C28.3627 40.753 28.5628 40.787 28.8009 40.851C30.5574 41.3193 31.8138 42.3837 32.59 44.0285C34.1165 47.268 32.0479 51.2778 28.5208 51.9041C24.1334 52.6845 20.6304 48.6546 22.0848 44.4387C22.719 42.5998 24.0574 41.3913 25.954 40.8811C26.3661 40.771 26.4762 40.6089 26.4742 40.1987C26.4561 37.3374 26.4601 34.4761 26.4701 31.6168C26.4701 31.2706 26.3921 31.1185 26.014 31.0545C24.8457 30.8624 23.7953 30.3662 22.819 29.6339C22.701 29.7359 22.585 29.8259 22.4829 29.928C18.6517 33.7578 14.8246 37.5915 10.9854 41.4133C10.7453 41.6534 10.7093 41.8215 10.8453 42.1436C11.7556 44.3026 11.4895 46.3416 9.97707 48.1184C8.45861 49.9012 6.45999 50.5155 4.2093 49.9092C1.9406 49.2989 0.540171 47.7542 0.0980351 45.4271C-0.3401 43.1161 0.718226 40.819 2.71484 39.6025C4.72546 38.3779 7.19622 38.51 9.0888 39.9386C9.20884 40.0307 9.33288 40.1167 9.4209 40.1807C13.4081 36.1929 17.3794 32.2211 21.3826 28.2172C19.3099 25.2038 19.2959 22.1204 21.3746 19.075C18.9678 16.6639 16.5671 14.2588 14.1264 11.8136C13.1641 12.3479 12.0837 12.4619 10.9754 12.0557C10.1911 11.7676 9.56095 11.2634 9.11081 10.5551C8.14451 9.03035 8.37458 7.02742 9.64497 5.80886C10.9414 4.56429 12.93 4.3782 14.4004 5.37666C15.7428 6.28908 16.6831 8.21797 15.5948 10.381C18.0055 12.7921 20.4103 15.1972 22.827 17.6143C25.876 15.5273 28.9609 15.5273 32.0079 17.6163C35.0988 14.5249 38.1738 11.4495 41.2407 8.38405C41.0706 7.76977 40.8246 7.13547 40.7265 6.47917C40.2744 3.44977 42.257 0.694502 45.2719 0.0982263C45.35 0.082219 45.422 0.0341968 45.496 0.00218201C46.0382 0.00218201 46.5783 0.00218201 47.1205 0.00218201C47.1965 0.0341968 47.2686 0.0822189 47.3466 0.0962254C48.839 0.374354 50.0834 1.10069 50.8997 2.36927C51.3858 3.12762 51.6379 4.03604 51.996 4.87643V6.50118H52ZM27.4064 29.2897C30.5414 29.2997 33.1062 26.7405 33.0862 23.6231C33.0662 20.5156 30.5234 17.9765 27.4284 17.9745C24.3115 17.9705 21.7307 20.5477 21.7447 23.6531C21.7587 26.7625 24.2875 29.2797 27.4064 29.2897ZM50.0834 5.6668C50.0794 3.57983 48.3949 1.90906 46.3043 1.91707C44.2556 1.92507 42.5671 3.60985 42.5531 5.65679C42.5391 7.70174 44.2676 9.43854 46.3203 9.44654C48.3789 9.45455 50.0854 7.73975 50.0814 5.6648L50.0834 5.6668ZM27.4104 50.0893C29.4891 50.0933 31.1876 48.4005 31.1836 46.3256C31.1816 44.2666 29.4471 42.5418 27.4004 42.5578C25.3558 42.5738 23.6653 44.2686 23.6553 46.3096C23.6453 48.3925 25.3278 50.0833 27.4104 50.0873V50.0893ZM1.91659 44.4627C1.9246 46.5197 3.58711 48.1864 5.65374 48.2084C7.70237 48.2324 9.44291 46.5076 9.44691 44.4487C9.45091 42.3897 7.72838 40.671 5.66575 40.679C3.58911 40.685 1.90859 42.3817 1.91659 44.4647V44.4627ZM44.4077 38.7881C44.4137 37.7456 43.6114 36.9112 42.5751 36.8852C41.5468 36.8592 40.6665 37.7356 40.6705 38.7781C40.6745 39.8066 41.5088 40.6369 42.5391 40.6409C43.5794 40.6429 44.3997 39.8306 44.4077 38.7901V38.7881ZM14.1524 8.52411C14.1604 7.48564 13.3481 6.64725 12.3158 6.62724C11.2955 6.60723 10.4452 7.43761 10.4272 8.47209C10.4092 9.54259 11.2235 10.375 12.2878 10.375C13.3321 10.375 14.1444 9.5686 14.1504 8.52211L14.1524 8.52411Z" fill="black"/>
<circle id="Ellipse 13" cx="27.5" cy="23.5" r="2.5" fill="#EF7B10"/>
</g>
<defs>
<clipPath id="clip0_573_377">
<rect width="52" height="52" fill="white"/>
</clipPath>
</defs>
</svg>
