<svg width="55" height="53" viewBox="0 0 55 53" fill="none" xmlns="http://www.w3.org/2000/svg">
<g id="Layer_1" clip-path="url(#clip0_573_380)">
<path id="Vector" d="M30.1566 0C38.8255 0.0271221 46.7931 6.91105 48.0512 16.1394C48.705 20.9383 47.6358 25.371 44.8829 29.3817C44.3688 30.131 43.5601 30.2293 43.0936 29.614C42.7259 29.1275 42.8655 28.6749 43.1856 28.2172C44.5646 26.2491 45.4635 24.0777 45.9044 21.7231C47.5473 12.9745 41.8049 4.35479 33.0814 2.46472C23.6906 0.428868 14.5534 6.48049 12.9344 15.8698C12.1563 20.3823 13.1233 24.554 15.7434 28.3324C15.8166 28.4375 15.895 28.5359 15.9682 28.641C16.387 29.2529 16.3427 29.8462 15.8507 30.2123C15.3621 30.5768 14.7526 30.4446 14.3151 29.8564C12.6364 27.5984 11.5128 25.0981 10.9833 22.3351C9.18382 12.9542 14.5381 3.88524 23.6327 0.917066C25.5224 0.298343 27.4649 0.0169513 30.1566 0Z" fill="black"/>
<path id="Vector_2" d="M21.2006 47.0128C23.7288 47.0128 26.2569 47.006 28.7868 47.0162C30.2186 47.0213 31.5516 46.689 32.8063 45.9906C39.0646 42.5071 45.3297 39.0372 51.5914 35.5571C52.8427 34.8621 53.27 33.6467 52.681 32.5211C52.0851 31.3837 50.781 31.0362 49.4974 31.6973C46.2576 33.3653 43.0246 35.0452 39.7882 36.7216C38.7548 37.2573 38.1879 37.2183 37.8457 36.5877C37.5035 35.9588 37.8065 35.4317 38.811 34.9129C42.1035 33.2093 45.3876 31.4871 48.6921 29.8055C51.3207 28.4681 54.2524 29.8411 54.9027 32.672C55.3062 34.4264 54.4737 36.2758 52.7814 37.237C50.4235 38.5761 48.0434 39.8763 45.6719 41.1934C41.763 43.3632 37.8491 45.5228 33.9487 47.7078C32.3194 48.6198 30.5999 49.0707 28.7238 49.0605C23.8156 49.0334 18.9074 49.0639 13.9992 49.0436C12.3307 49.0368 10.9347 49.5826 9.79405 50.798C9.18457 51.4473 8.55636 52.0779 7.91282 52.6932C7.49401 53.0915 6.9322 53.0915 6.52701 52.7474C6.11331 52.3965 5.98563 51.788 6.37379 51.3862C7.57744 50.1437 8.65169 48.7486 10.2078 47.8875C11.3654 47.2467 12.6167 46.9958 13.9396 47.006C16.3622 47.0247 18.7848 47.0111 21.2057 47.0111L21.2006 47.0128Z" fill="black"/>
<path id="Vector_3" d="M27.4018 42.58C25.7879 42.58 24.1722 42.58 22.5583 42.58C21.6287 42.58 21.1878 42.2427 21.1963 41.546C21.2048 40.8747 21.6321 40.5509 22.5259 40.5492C25.7334 40.5475 28.9408 40.5526 32.1483 40.5458C33.1579 40.5441 33.9716 40.1458 34.4551 39.2372C34.8961 38.4083 34.862 37.5624 34.3564 36.7674C33.8303 35.9418 33.0285 35.6283 32.0751 35.6283C29.4839 35.6266 26.8877 35.7147 24.3016 35.5927C21.6985 35.4706 19.104 35.1519 16.5094 34.896C15.0981 34.757 13.702 34.4637 12.2737 34.8061C10.9832 35.1163 9.85785 35.7045 8.89425 36.6063C6.61975 38.7354 4.34865 40.8696 2.07415 42.9987C1.90391 43.158 1.73536 43.3258 1.53788 43.4428C1.0714 43.7157 0.623649 43.6344 0.27294 43.2428C-0.079471 42.8495 -0.0811735 42.3969 0.213354 41.9613C0.30699 41.824 0.443187 41.7138 0.567468 41.5968C2.90155 39.4067 5.21862 37.1979 7.57824 35.035C9.89019 32.9143 12.6499 32.2346 15.7212 32.7177C20.4966 33.4703 25.2993 33.7094 30.1275 33.5907C31.1421 33.5653 32.1789 33.5398 33.1732 33.706C35.4136 34.0789 37.0327 36.2232 36.8148 38.3625C36.5662 40.7984 34.7275 42.5529 32.373 42.5749C30.7165 42.5902 29.0583 42.5783 27.4018 42.5783V42.58Z" fill="black"/>
<path id="Vector_4" d="M22.9399 28.919C21.8827 28.8986 21.423 28.0612 21.8452 27.3544C22.104 26.9204 22.4223 26.5204 22.7169 26.1067C26.7245 20.4721 30.7287 14.8341 34.7482 9.20798C34.9321 8.94862 35.23 8.63163 35.499 8.6062C35.8446 8.574 36.2975 8.72147 36.5528 8.9571C36.9138 9.28765 36.8423 9.78093 36.5648 10.1793C35.9025 11.1353 35.2198 12.0778 34.5456 13.0254C30.9415 18.0922 27.3425 23.1606 23.7247 28.2172C23.4881 28.5477 23.1067 28.7732 22.9382 28.9207L22.9399 28.919Z" fill="#EF7B10"/>
<path id="Vector_5" d="M23.474 8.44177C25.8813 8.44008 27.8136 10.3556 27.8102 12.7406C27.8068 15.1019 25.8183 17.07 23.4553 17.0497C21.1041 17.031 19.165 15.0918 19.1582 12.7525C19.1514 10.3522 21.0633 8.44347 23.4723 8.44177H23.474ZM23.474 14.9697C24.7253 14.9748 25.7468 13.9713 25.7502 12.7338C25.7536 11.5083 24.7185 10.4759 23.4842 10.4725C22.2533 10.4692 21.2114 11.4981 21.2046 12.722C21.1978 13.9493 22.2227 14.9646 23.4723 14.9697H23.474Z" fill="#EF7B10"/>
<path id="Vector_6" d="M35.1903 29.3919C32.7745 29.3919 30.8797 27.4967 30.8848 25.0829C30.8882 22.73 32.8052 20.806 35.1665 20.784C37.5227 20.762 39.5231 22.7368 39.5316 25.0896C39.5401 27.4611 37.5925 29.3919 35.1903 29.3919ZM35.1971 22.8673C33.9407 22.8656 32.9226 23.8624 32.9209 25.0998C32.9175 26.3254 33.9492 27.3543 35.1852 27.3594C36.4297 27.3645 37.4444 26.3576 37.4495 25.1117C37.4546 23.8539 36.4672 22.8707 35.1971 22.8673Z" fill="#EF7B10"/>
</g>
<defs>
<clipPath id="clip0_573_380">
<rect width="55" height="53" fill="white"/>
</clipPath>
</defs>
</svg>
