<svg width="41" height="42" viewBox="0 0 41 42" fill="none" xmlns="http://www.w3.org/2000/svg">
<g id="Isolation_Mode" clip-path="url(#clip0_548_61)">
<path id="Vector" d="M11.2311 2.90707C11.8135 2.99554 12.2934 3.0461 12.7606 3.14721C14.0852 3.43791 15.1987 3.09666 16.101 2.09184C18.6095 -0.695098 22.385 -0.701418 24.8744 2.0792C25.7894 3.10298 26.9093 3.44423 28.2596 3.13457C31.8111 2.30671 35.0236 4.66391 35.3051 8.25976C35.4075 9.59319 36.1178 10.5285 37.3849 11.0467C39.2279 11.7987 40.3925 13.1258 40.8469 15.047C41.186 16.4815 40.9557 17.8466 40.1814 19.0852C39.3687 20.3871 39.3943 21.6257 40.1814 22.9339C41.9412 25.8345 40.6997 29.5821 37.5449 30.8839C36.1114 31.4779 35.3755 32.4764 35.2795 34.0058C35.062 37.3046 31.7024 39.6681 28.3427 38.8782C26.9093 38.5432 25.7638 38.9098 24.804 39.9967C22.4618 42.6573 18.5519 42.6636 16.197 40.0031C15.2371 38.9224 14.098 38.5306 12.6582 38.8719C9.26018 39.6744 6.04776 37.3994 5.72139 33.9615C5.58061 32.4701 4.87029 31.4716 3.45606 30.8776C0.243635 29.5315 -0.959424 25.8093 0.845165 22.8517C1.61307 21.5941 1.60668 20.3934 0.845165 19.1358C-0.959424 16.1719 0.250034 12.4623 3.46886 11.1162C4.88309 10.5222 5.58061 9.51104 5.72779 8.02594C5.96457 5.66241 7.28281 4.08251 9.51615 3.26728C10.0857 3.05874 10.7128 3.0145 11.2311 2.90707ZM38.5687 16.5321C38.492 14.8385 37.8264 13.84 36.5146 13.2838C34.3068 12.3422 33.0846 10.7118 32.8798 8.32928C32.707 6.30701 30.9408 5.04309 28.9187 5.44754C28.4771 5.53602 28.0292 5.63713 27.5876 5.64345C25.7383 5.68137 24.2216 4.98621 23.0058 3.60222C21.6171 2.01601 19.4478 1.97177 18.0591 3.52007C16.3889 5.38435 14.3732 5.99735 11.9287 5.42859C10.0857 4.99885 8.2619 6.38284 8.11471 8.25976C7.92914 10.598 6.77087 12.279 4.57593 13.2396C2.45138 14.1686 1.83705 16.0961 3.00811 18.0867C4.14718 20.0205 4.15358 21.967 3.02091 23.9071C1.83705 25.923 2.45138 27.8442 4.60152 28.7858C6.77727 29.7401 7.92274 31.4084 8.11471 33.7277C8.2683 35.6173 10.0281 36.9317 11.9159 36.6031C12.7286 36.4641 13.5797 36.363 14.3924 36.4388C15.8898 36.5715 17.0609 37.3615 18.0527 38.4674C19.403 39.9778 21.5915 40.0031 22.8906 38.5243C24.5288 36.6663 26.519 36.028 28.9507 36.5526C30.9472 36.9886 32.7006 35.7057 32.8798 33.7024C33.091 31.301 34.3068 29.6642 36.5402 28.7163C38.428 27.92 39.1191 25.8472 38.0632 24.0967C36.809 22.0112 36.8154 19.97 38.0632 17.8845C38.3512 17.4042 38.46 16.8228 38.5623 16.5384L38.5687 16.5321Z" fill="black"/>
<path id="Vector_2" d="M18.341 25.5059C17.8995 25.2784 17.4387 25.1583 17.1444 24.874C16.1333 23.8881 15.1734 22.8517 14.2135 21.8216C13.7208 21.2908 13.7591 20.6082 14.2583 20.1406C14.7446 19.6856 15.4549 19.6856 15.9669 20.1911C16.626 20.8484 17.2531 21.5309 17.8995 22.2008C18.3602 22.6811 18.4946 22.6874 19.0321 22.2766C20.9839 20.7536 22.9357 19.2243 24.8938 17.7139C25.137 17.5243 25.4186 17.341 25.7129 17.2715C26.2697 17.1388 26.7944 17.4484 27.0184 17.9477C27.2424 18.4533 27.1016 19.022 26.6152 19.4075C25.5338 20.2607 24.4395 21.1075 23.3516 21.9543C22.091 22.9339 20.8431 23.926 19.5697 24.8866C19.2241 25.1457 18.7954 25.2847 18.341 25.5059Z" fill="#EF7B10"/>
</g>
<defs>
<clipPath id="clip0_548_61">
<rect width="41" height="42" fill="white"/>
</clipPath>
</defs>
</svg>
