<svg width="54" height="54" viewBox="0 0 54 54" fill="none" xmlns="http://www.w3.org/2000/svg">
<g id="Isolation_Mode" clip-path="url(#clip0_573_367)">
<path id="Vector" d="M13.401 52.6605C13.5887 52.6722 13.6973 52.6839 13.8058 52.6839C14.7018 52.6854 15.5964 52.6839 16.5804 52.6839C16.5804 52.4538 16.5804 52.2442 16.5804 52.0332C16.5804 45.7238 16.5804 39.4129 16.5804 33.1035C16.5804 32.1714 16.7168 32.0351 17.6642 32.0351C19.9138 32.0351 22.1649 32.0336 24.4146 32.0351C25.2505 32.0351 25.4338 32.2212 25.4338 33.0727C25.4338 39.3455 25.4338 45.6197 25.4338 51.8925V52.6429H28.5721V51.998C28.5721 47.481 28.5721 42.9626 28.5721 38.4456C28.5721 37.4871 28.7364 37.32 29.6735 37.32C31.9231 37.32 34.1742 37.32 36.4238 37.32C37.2422 37.32 37.4269 37.5018 37.4269 38.3093C37.4269 42.8629 37.4269 47.418 37.4269 51.9716V52.6502H40.6049C40.6049 52.4245 40.6049 52.1959 40.6049 51.9658C40.6049 44.2846 40.6049 36.6019 40.6049 28.9207C40.6049 27.9255 40.7442 27.7863 41.7429 27.7849C43.9016 27.7849 46.0603 27.7849 48.219 27.7849C49.3013 27.7849 49.4245 27.905 49.4245 28.9661C49.4245 36.6107 49.4245 44.2567 49.4245 51.9013V52.681C49.6621 52.681 49.8557 52.681 50.0492 52.681C51.1462 52.681 52.2446 52.6751 53.3416 52.6854C53.7537 52.6883 53.9971 52.9199 53.9986 53.3332C54.0015 53.7465 53.7595 53.9663 53.3489 53.9912C53.2037 54 53.0556 53.9942 52.9104 53.9942C35.6407 53.9942 18.3725 53.9942 1.10284 53.9942C0.288925 53.9942 0.00295511 53.8256 2.20797e-05 53.342C-0.00291095 52.8554 0.285992 52.681 1.09258 52.681C2.22619 52.681 3.35834 52.681 4.57995 52.681C4.57995 52.4406 4.57995 52.231 4.57995 52.02C4.57995 48.4908 4.57995 44.9602 4.57995 41.431C4.57995 40.5341 4.7266 40.3919 5.64024 40.3919C7.87227 40.3919 10.1043 40.3919 12.3363 40.3919C13.2676 40.3919 13.3981 40.5253 13.3981 41.4794C13.3981 44.991 13.3981 48.5026 13.3981 52.0141C13.3981 52.212 13.3981 52.4098 13.3981 52.6561L13.401 52.6605ZM48.0489 52.6634V29.1757H41.9614V52.6634H48.0489ZM24.0465 33.3893H17.9414V52.6473H24.0465V33.3893ZM36.0733 52.6575V38.683H29.9697V52.6575H36.0733ZM5.95554 41.7183V52.6473H12.0313V41.7183H5.95554Z" fill="black"/>
<path id="Vector_2" d="M18.7775 24.6924C16.6202 26.6461 14.4953 28.5777 12.3585 30.4947C12.1195 30.7087 12.1796 30.8655 12.2852 31.1029C13.3015 33.3922 11.9905 35.8207 9.51938 36.2472C7.6437 36.5711 5.74163 35.2125 5.40287 33.3087C5.06117 31.3873 6.3429 29.4761 8.21271 29.0892C9.2994 28.865 10.2732 29.1171 11.2103 29.7429C13.4335 27.7291 15.6523 25.7183 17.8873 23.6958C17.1746 22.3856 17.1482 21.09 17.9254 19.8325C18.8464 18.342 20.725 17.7425 22.3411 18.3903C24.0071 19.0587 24.9544 20.8056 24.5453 22.5732C24.4485 22.9909 24.5643 23.1462 24.8899 23.3382C26.682 24.3978 28.4609 25.478 30.2574 26.5611C31.762 25.1453 33.3986 24.9592 35.1863 26.032C37.4301 23.9259 39.6694 21.8242 41.903 19.7299C41.023 17.3483 41.4307 15.6497 43.1202 14.612C44.6131 13.6946 46.5239 13.973 47.7177 15.2818C48.8718 16.5466 48.9686 18.4841 47.9465 19.8808C46.7982 21.449 45.0413 21.7378 42.8225 20.6987C40.5948 22.7901 38.3569 24.8917 36.0985 27.011C36.5326 27.8508 36.7877 28.7052 36.5883 29.6505C36.1571 31.6936 34.2419 32.9892 32.2577 32.5627C30.2647 32.1347 29.0035 30.1694 29.4728 28.1571C29.5564 27.798 29.486 27.6412 29.1868 27.4639C27.4871 26.4614 25.8036 25.434 24.1024 24.433C23.9557 24.3465 23.6434 24.307 23.5525 24.3964C22.3514 25.563 20.4566 25.818 18.7789 24.6953L18.7775 24.6924ZM30.7178 28.9676C30.712 30.2573 31.7033 31.2773 32.9733 31.2891C34.2712 31.3008 35.3271 30.2646 35.3227 28.9837C35.3183 27.735 34.2668 26.6812 33.0188 26.6739C31.7635 26.6666 30.7252 27.7028 30.7178 28.9676ZM45.0354 20.0098C46.3157 20.001 47.3232 18.9868 47.3203 17.7118C47.3173 16.4426 46.2981 15.4254 45.0222 15.4196C43.7346 15.4137 42.6817 16.4704 42.7022 17.7499C42.7213 19.0132 43.7581 20.0172 45.0354 20.0084V20.0098ZM9.01489 34.9472C10.2878 34.9355 11.3115 33.9066 11.3071 32.6448C11.3027 31.3843 10.2688 30.3613 8.99876 30.3599C7.69503 30.3584 6.6758 31.3858 6.689 32.6887C6.7022 33.9521 7.73903 34.9604 9.01489 34.9487V34.9472ZM23.2929 21.7773C23.2929 20.4964 22.2913 19.4793 21.0183 19.4676C19.7439 19.4558 18.6675 20.5301 18.6866 21.7964C18.7056 23.0612 19.738 24.0695 21.011 24.0651C22.2986 24.0607 23.2929 23.0641 23.2929 21.7759V21.7773Z" fill="black"/>
<path id="Vector_3" d="M18.349 9.18638C18.3461 14.2574 14.2516 18.3464 9.17599 18.3464C4.07545 18.3464 -0.00585974 14.2486 6.31551e-06 9.13215C0.00587237 4.07437 4.11651 -0.00585609 9.20238 6.30932e-06C14.2721 0.00586871 18.352 4.10368 18.349 9.18638ZM8.49846 1.42897C6.22096 1.40991 2.9609 3.1657 1.76422 6.58055C0.613009 9.86495 1.77009 13.4967 4.5946 15.5442C7.32231 17.5212 10.9563 17.3791 13.1605 15.8695C13.0608 15.7215 12.964 15.572 12.8599 15.4269C11.5356 13.589 10.1937 11.7614 8.90028 9.90306C8.66857 9.57037 8.52485 9.10724 8.51606 8.70127C8.47499 6.91031 8.49846 5.11788 8.49846 3.32692C8.49846 2.70843 8.49846 2.08995 8.49846 1.43043V1.42897ZM9.88725 8.46091H16.9441C16.7637 4.64889 13.2529 1.48759 9.88725 1.4231V8.46091ZM10.512 9.88547C11.801 11.672 13.0329 13.3795 14.2927 15.1235C15.878 13.6887 16.7711 11.9857 16.9852 9.88547H10.512Z" fill="#EF7B10"/>
<path id="Vector_4" d="M28.7703 7.72667C27.93 7.72667 27.0912 7.73254 26.2509 7.72521C25.5675 7.71788 25.3636 7.51416 25.3622 6.84585C25.3578 5.60449 25.3592 4.36312 25.3622 3.12323C25.3636 2.45491 25.5821 2.21895 26.2318 2.21602C27.93 2.20869 29.6268 2.21016 31.325 2.21602C31.9556 2.21895 32.1785 2.44319 32.1829 3.07486C32.1902 4.33381 32.1902 5.59423 32.1829 6.85318C32.1785 7.53468 31.9893 7.71788 31.2898 7.72521C30.4495 7.73254 29.6106 7.72667 28.7703 7.72667ZM30.8323 3.62153H26.7113V6.34608H30.8323V3.62153Z" fill="#EF7B10"/>
<path id="Vector_5" d="M28.704 15.1367C27.8637 15.1367 27.0248 15.144 26.1845 15.1338C25.5935 15.1279 25.3648 14.8934 25.3618 14.2969C25.356 13.0189 25.356 11.7424 25.3618 10.4644C25.3648 9.85615 25.573 9.64217 26.1845 9.63924C27.9194 9.63191 29.6528 9.63044 31.3877 9.63924C31.9714 9.64217 32.1752 9.85028 32.1796 10.438C32.1884 11.7336 32.1899 13.0292 32.1796 14.3262C32.1752 14.9169 31.9435 15.1294 31.332 15.1352C30.4565 15.1426 29.5795 15.1367 28.7025 15.1367H28.704ZM30.8363 11.0096H26.7198V13.759H30.8363V11.0096Z" fill="#EF7B10"/>
<path id="Vector_6" d="M38.7471 11.6442C37.4331 11.6442 36.1191 11.6471 34.8037 11.6427C34.2361 11.6413 33.8988 11.3818 33.9457 10.9627C34.0015 10.4732 34.3329 10.3164 34.7978 10.3178C37.4448 10.3251 40.0919 10.3193 42.739 10.3237C43.2669 10.3237 43.5675 10.5743 43.5705 10.9847C43.5734 11.4024 43.2889 11.6413 42.7448 11.6427C41.4118 11.6486 40.0802 11.6442 38.7471 11.6442Z" fill="#EF7B10"/>
<path id="Vector_7" d="M38.7478 4.26339C37.4514 4.26339 36.1564 4.26632 34.86 4.26339C34.2734 4.26192 33.9009 3.98932 33.9449 3.56723C34.0006 3.03229 34.3878 2.9165 34.8527 2.9165C37.444 2.91944 40.0368 2.9165 42.6282 2.91944C43.2514 2.91944 43.5711 3.15686 43.5711 3.58628C43.5711 4.0201 43.2441 4.26192 42.6355 4.26339C41.3391 4.26632 40.0442 4.26339 38.7478 4.26339Z" fill="#EF7B10"/>
<path id="Vector_8" d="M36.4048 13.0878C36.9694 13.0878 37.5355 13.0775 38.1001 13.0907C38.5283 13.101 38.8582 13.271 38.8656 13.759C38.8729 14.2471 38.5488 14.4376 38.1191 14.442C36.9884 14.4567 35.8578 14.4537 34.7285 14.4449C34.2945 14.442 33.9836 14.2397 33.9454 13.7766C33.9132 13.3882 34.2622 13.1024 34.7652 13.0893C35.3122 13.0761 35.8592 13.0863 36.4062 13.0863L36.4048 13.0878Z" fill="#EF7B10"/>
<path id="Vector_9" d="M36.3563 7.02462C35.7916 7.02462 35.2256 7.02462 34.661 7.02462C34.221 7.02462 33.9512 6.79013 33.9512 6.36657C33.9512 5.94448 34.2239 5.70998 34.6624 5.70998C35.8283 5.70998 36.9957 5.70705 38.1615 5.70998C38.5942 5.70998 38.8611 5.92249 38.8611 6.36804C38.8611 6.81504 38.5912 7.02023 38.1586 7.02316C37.5573 7.02756 36.9561 7.02316 36.3548 7.02316L36.3563 7.02462Z" fill="#EF7B10"/>
</g>
<defs>
<clipPath id="clip0_573_367">
<rect width="54" height="54" fill="white"/>
</clipPath>
</defs>
</svg>
