<svg width="36" height="37" viewBox="0 0 36 37" fill="none" xmlns="http://www.w3.org/2000/svg">
<path d="M34.875 9.92188C35.5078 10.3438 36 11.0469 36 11.8203C36 13.0156 35.0156 14 33.75 14H2.17969C0.914062 14 0 13.0156 0 11.8203C0 11.0469 0.421875 10.3438 1.05469 9.92188L17.4375 0.710938C17.7891 0.5 18.1406 0.5 18.4922 0.710938L34.875 9.92188ZM33.5391 11.75L18 2.96094L2.39062 11.75H14.4141C14.1328 11.2578 14.0625 10.6953 14.0625 10.0625C14.0625 7.95312 15.8203 6.125 18 6.125C20.1094 6.125 21.9375 7.95312 21.9375 10.0625C21.9375 10.6953 21.7969 11.2578 21.5156 11.75H33.5391ZM18 11.75C18.9141 11.75 19.6875 11.0469 19.6875 10.0625C19.6875 9.14844 18.9141 8.375 18 8.375C17.0156 8.375 16.3125 9.14844 16.3125 10.0625C16.3125 11.0469 17.0156 11.75 18 11.75ZM4.5 16.25H6.75V25.25H12.375V16.25H14.625V25.25H21.375V16.25H23.625V25.25H29.25V16.25H31.5V25.25C32.0625 25.25 32.625 25.8125 32.625 26.375C32.625 27.0078 32.0625 27.5 31.5 27.5H4.5C3.86719 27.5 3.375 27.0078 3.375 26.375C3.375 25.8125 3.86719 25.25 4.5 25.25V16.25ZM33.1875 29.75C33.75 29.75 34.3125 30.3125 34.3125 30.875C34.3125 31.5078 33.75 32 33.1875 32H2.8125C2.17969 32 1.6875 31.5078 1.6875 30.875C1.6875 30.3125 2.17969 29.75 2.8125 29.75H33.1875ZM34.875 34.25C35.4375 34.25 36 34.8125 36 35.375C36 36.0078 35.4375 36.5 34.875 36.5H1.125C0.492188 36.5 0 36.0078 0 35.375C0 34.8125 0.492188 34.25 1.125 34.25H34.875Z" fill="#003671"/>
</svg>
