<svg width="66" height="66" viewBox="0 0 66 66" fill="none" xmlns="http://www.w3.org/2000/svg">
<g clip-path="url(#clip0_1164_724)">
<path d="M18.1767 66C17.9017 65.8951 17.6233 65.7972 17.35 65.6855C15.5281 64.9464 14.4848 63.3119 14.4831 61.1428C14.478 54.4844 14.4814 47.8259 14.4814 41.1675C14.4814 38.4192 14.4676 35.6692 14.4865 32.9209C14.502 30.6006 15.8237 28.8544 17.9619 28.3267C18.4139 28.215 18.8969 28.2012 19.3661 28.1995C22.0508 28.1875 24.7355 28.1806 27.4201 28.2047C27.934 28.2098 28.0819 28.0551 28.0698 27.5498C28.0389 26.1765 28.0492 24.7998 28.0612 23.4265C28.0819 21.0392 29.5445 19.5989 31.9387 19.5972C37.5023 19.5972 43.0642 19.5972 48.6278 19.5972C50.955 19.5972 52.4537 21.0942 52.4589 23.4162C52.4623 24.9803 52.4589 26.5444 52.4589 28.1926C52.7408 28.1926 52.9711 28.1926 53.1997 28.1926C55.8414 28.1926 58.4831 28.1909 61.1248 28.1926C63.6205 28.1961 65.1398 29.3167 65.8858 31.692C65.903 31.747 65.9597 31.79 65.9975 31.8381V62.26C65.6228 62.9956 65.322 63.7828 64.8545 64.4548C64.2426 65.3331 63.2458 65.6854 62.2592 65.9983H18.1767V66ZM34.797 46.6847C34.5925 46.6383 34.3656 46.5764 34.1353 46.5334C29.2523 45.607 24.3659 44.6961 19.4881 43.7473C18.5222 43.56 17.5803 43.2369 16.5972 42.967C16.5972 43.1372 16.5972 43.3297 16.5972 43.5205C16.5972 49.3848 16.635 55.2475 16.5748 61.1119C16.5559 63.0128 17.8897 63.9598 19.4555 63.9564C33.3086 63.9254 47.1634 63.9392 61.0165 63.9375C62.9914 63.9375 63.9401 62.9922 63.9401 61.0242C63.9401 55.1822 63.9401 49.3401 63.9401 43.4981V42.8811C63.2286 43.1251 62.5823 43.4294 61.9034 43.5651C57.9348 44.3592 53.9576 45.1137 49.9839 45.8803C48.5401 46.1587 47.0964 46.4355 45.6251 46.7173C45.6251 47.4186 45.632 48.0614 45.6251 48.7025C45.5908 51.3614 43.5455 53.6972 40.9931 53.9945C38.2139 54.3176 35.689 52.6505 35.0806 49.9623C34.8469 48.9311 34.8881 47.8362 34.7987 46.6847H34.797ZM45.6251 44.5947C50.0251 43.7525 54.3409 42.9361 58.6498 42.0973C59.8667 41.8601 61.0973 41.6367 62.2712 41.2569C63.4744 40.8667 63.9367 40.0606 63.9384 38.7973C63.9401 36.9497 63.8748 35.1003 63.9573 33.2561C64.033 31.5494 63.0275 30.2397 60.9719 30.25C50.2537 30.3067 39.5356 30.2844 28.8175 30.2861C25.5519 30.2861 22.288 30.2706 19.0223 30.2809C17.6422 30.2861 16.6178 31.3001 16.604 32.6751C16.5834 34.8012 16.6144 36.9273 16.5972 39.0551C16.5886 40.0039 17.0389 40.6673 17.833 41.0747C18.3383 41.3342 18.9037 41.5215 19.4623 41.6298C23.4361 42.4015 27.4167 43.1458 31.3939 43.8986C32.5231 44.1117 33.654 44.3231 34.8795 44.5517C34.8795 43.4036 34.8675 42.3569 34.883 41.3101C34.9036 39.9558 35.6598 39.1772 36.9953 39.1669C39.1644 39.1497 41.3351 39.1497 43.5042 39.1669C44.8345 39.1772 45.6148 39.9798 45.6217 41.3015C45.6269 42.374 45.6217 43.4448 45.6217 44.593L45.6251 44.5947ZM50.3912 28.105C50.3912 26.5908 50.3912 25.1161 50.3912 23.6414C50.3895 22.2062 49.8395 21.6545 48.4095 21.6545C44.0955 21.6545 39.7814 21.6545 35.4673 21.6545C34.2659 21.6545 33.0628 21.6459 31.8614 21.658C30.7476 21.67 30.1564 22.2681 30.1478 23.3698C30.1409 24.3358 30.1478 25.3017 30.1478 26.2676C30.1478 26.8812 30.1478 27.4965 30.1478 28.0981H32.3976V23.8631H48.1105V28.1067H50.3912V28.105ZM36.9936 41.274C36.9936 43.8986 36.9609 46.4733 37.0211 49.0445C37.0331 49.5619 37.3167 50.1239 37.614 50.5742C38.3995 51.7584 39.9051 52.2294 41.2526 51.8048C42.6156 51.3734 43.5317 50.1136 43.5506 48.5684C43.573 46.7861 43.5558 45.0037 43.5558 43.2231C43.5558 42.5854 43.5558 41.9461 43.5558 41.2758H36.9936V41.274ZM34.5375 28.1462H45.9861V25.9479H34.5375V28.1462Z" fill="#EF7B10"/>
<path d="M32.8711 0C33.8645 0.415938 34.5641 1.18766 35.2756 1.95422C37.5117 4.36219 39.753 6.765 42.0062 9.1575C42.6439 9.83469 42.9722 10.603 42.9653 11.5345C42.9533 13.102 42.9688 14.6695 42.9602 16.2388C42.955 17.05 42.558 17.5209 41.9186 17.5158C41.2878 17.5106 40.8787 17.0139 40.8753 16.2284C40.8702 14.9445 40.8753 13.6606 40.8753 12.3011C40.4542 12.3011 40.095 12.3028 39.7341 12.3011C38.1236 12.2891 36.5097 12.3406 34.9044 12.2461C32.9192 12.1292 31.3603 10.4311 31.3311 8.44422C31.3036 6.57594 31.3208 4.70766 31.3191 2.83938C31.3191 2.60734 31.3191 2.37531 31.3191 2.06078C31.0406 2.06078 30.812 2.06078 30.5834 2.06078C21.5841 2.06078 12.5864 2.06078 3.58703 2.06078C2.37531 2.06078 2.0625 2.37359 2.0625 3.58359C2.0625 20.5287 2.0625 37.4739 2.0625 54.4191C2.0625 55.6205 2.38734 55.947 3.58703 55.947C6.03625 55.947 8.48375 55.947 10.933 55.947C11.9384 55.947 12.4042 56.265 12.4128 56.9577C12.4214 57.6572 11.9419 58.0027 10.9622 58.0044C8.42875 58.0044 5.89359 58.0044 3.36016 58.0044C1.68094 58.0044 0.680625 57.2963 0.11 55.7167C0.089375 55.6583 0.0395312 55.6119 0.0034375 55.5603C0 37.8555 0 20.1523 0 2.44922C0.402187 1.21859 1.21172 0.395312 2.44922 0H32.8711ZM33.3884 3.70219C33.3884 5.40031 33.3506 6.91797 33.4022 8.43391C33.4366 9.46688 34.2684 10.1853 35.3272 10.1973C36.5045 10.2111 37.6836 10.2025 38.8627 10.1973C38.9916 10.1973 39.1205 10.1544 39.3095 10.12C37.3381 7.98188 35.4234 5.90734 33.3884 3.70047V3.70219Z" fill="white"/>
<path d="M50.79 9.76573e-06C51.0186 0.41251 51.3348 0.799229 51.4603 1.24095C51.7164 2.14329 51.8952 3.07142 52.055 3.99782C52.1203 4.37767 52.3008 4.5272 52.6377 4.65095C53.3595 4.91564 54.0522 5.25939 54.7758 5.51204C55.0112 5.59454 55.3653 5.58595 55.5716 5.4622C56.4361 4.95001 57.2645 4.37423 58.1102 3.82767C58.8372 3.35673 59.1827 3.38595 59.81 4.00298C60.5748 4.75407 61.3208 5.52407 62.0805 6.28032C62.5445 6.74267 62.6012 7.23423 62.242 7.78251C61.6663 8.65907 61.0733 9.52704 60.5353 10.4277C60.4116 10.6339 60.403 10.988 60.4855 11.2234C60.7433 11.9694 61.0475 12.7016 61.3844 13.4149C61.4841 13.6245 61.7247 13.8531 61.9412 13.9081C62.8728 14.147 63.8302 14.2845 64.7548 14.5441C65.1966 14.6678 65.5867 14.9824 65.9992 15.2092V19.592C65.597 19.8413 65.2258 20.1936 64.7892 20.3191C63.8869 20.5786 62.9519 20.7247 62.0255 20.9C61.6559 20.9688 61.4789 21.1424 61.3328 21.5136C60.9427 22.507 60.5009 23.4833 60.0077 24.4286C59.6502 25.1144 59.0572 25.2725 58.5089 24.9494C57.9641 24.628 57.9056 24.0608 58.2184 23.375C58.7134 22.2905 59.1723 21.1853 59.5848 20.0647C59.7928 19.5009 60.0902 19.1727 60.6969 19.0627C61.7677 18.8702 62.8264 18.6175 63.8697 18.3941C63.8989 18.3167 63.923 18.2789 63.9264 18.2394C64.0123 17.0832 63.503 16.382 62.3984 16.1356C61.7917 16.0016 61.1867 15.8606 60.5766 15.7541C60.0437 15.6595 59.7911 15.333 59.6037 14.8517C59.1586 13.7002 58.6859 12.5555 58.1841 11.428C57.9709 10.9502 57.9555 10.5411 58.2477 10.1011C58.8664 9.17298 59.4645 8.23454 60.0919 7.2686C59.633 6.81829 59.1792 6.37485 58.71 5.91423C57.7922 6.51407 56.8709 7.10188 55.9652 7.71204C55.4633 8.05064 55.0198 8.01798 54.4698 7.75673C53.4128 7.25314 52.3197 6.82001 51.2197 6.4161C50.6869 6.22017 50.3328 5.95892 50.2245 5.37454C50.0492 4.42751 49.8189 3.49079 49.6402 2.54548C49.5731 2.19142 49.4442 2.02298 49.0558 2.05048C48.5883 2.08314 48.1173 2.05907 47.6172 2.05907C47.3783 3.18314 47.1514 4.26767 46.9177 5.35048C46.7544 6.10501 46.3058 6.46251 45.6784 6.34563C45.0494 6.22876 44.7297 5.73376 44.8775 4.97579C45.1439 3.6111 45.4223 2.24642 45.7627 0.897197C45.8469 0.56376 46.1855 0.295635 46.4072 -0.00170898C47.8681 -0.00170898 49.3291 -0.00170898 50.79 -0.00170898V9.76573e-06Z" fill="white"/>
<path d="M19.1431 9.1849C21.4188 9.1849 23.6944 9.166 25.9683 9.20381C26.3378 9.20896 26.7916 9.36709 27.0511 9.61459C27.5736 10.1147 27.2969 10.9879 26.5922 11.2062C26.3327 11.2869 26.0422 11.2972 25.7672 11.2972C21.3019 11.3024 16.8366 11.3007 12.373 11.3007C12.287 11.3007 12.2011 11.3024 12.1152 11.3007C11.3245 11.2715 10.8381 10.8658 10.8398 10.2368C10.8416 9.60772 11.3331 9.19006 12.1238 9.18834C14.463 9.17975 16.8039 9.1849 19.1431 9.1849Z" fill="white"/>
<path d="M57.1724 17.4591C56.906 18.5316 56.686 19.6195 56.3577 20.6731C56.1171 21.4483 55.5396 21.7164 54.926 21.4827C54.345 21.2627 54.1594 20.6525 54.4447 19.9117C55.8747 16.2147 53.9703 12.308 50.2286 11.2956C49.7371 11.1633 49.218 11.122 48.7075 11.0773C47.953 11.0103 47.5302 10.6288 47.5474 9.97735C47.5646 9.33282 48.0114 8.97532 48.7849 8.98563C53.3207 9.04407 57.0125 12.827 57.0143 17.4213L57.1707 17.4608L57.1724 17.4591Z" fill="white"/>
<path d="M19.0725 13.8977C21.3687 13.8977 23.665 13.896 25.9629 13.8977C26.836 13.8977 27.3121 14.2656 27.3121 14.9221C27.3121 15.5684 26.8034 15.9688 25.9646 15.9688C21.3498 15.9706 16.735 15.9723 12.1201 15.9688C11.2659 15.9688 10.7004 15.4171 10.8585 14.7331C11.0029 14.1143 11.4378 13.8909 12.0531 13.8926C14.3923 13.9029 16.7315 13.8977 19.0707 13.896L19.0725 13.8977Z" fill="white"/>
<path d="M15.6646 20.6216C14.4409 20.6216 13.2154 20.6267 11.9916 20.6198C11.2887 20.6147 10.8418 20.2073 10.8418 19.5955C10.8418 18.987 11.2904 18.5694 11.9934 18.5676C14.4632 18.5608 16.9348 18.5591 19.4046 18.5676C20.1041 18.5694 20.5252 18.9939 20.508 19.6281C20.4926 20.2314 20.0818 20.613 19.4029 20.6181C18.1568 20.6284 16.9107 20.6216 15.6646 20.6216Z" fill="white"/>
<path d="M6.70752 9.03894C7.08908 9.25894 7.56002 9.40332 7.8333 9.71957C8.26127 10.2163 7.9519 11.0224 7.30221 11.2011C6.94299 11.2991 6.5408 11.3077 6.16612 11.275C5.55252 11.2218 5.16065 10.7818 5.16408 10.2352C5.16752 9.69035 5.57315 9.26925 6.17815 9.19707C6.32596 9.17988 6.47549 9.19363 6.62502 9.19363L6.70924 9.03894H6.70752Z" fill="white"/>
<path d="M6.55847 20.6147C6.04113 20.6628 5.56504 20.6009 5.29175 20.0853C5.0391 19.6058 5.13707 19.1709 5.52722 18.8152C5.92941 18.4474 7.22879 18.4491 7.63957 18.81C8.04347 19.1658 8.11566 19.6127 7.88019 20.0819C7.60347 20.6319 7.08613 20.6594 6.55675 20.6147H6.55847Z" fill="white"/>
<path d="M6.67041 13.8978C7.58995 13.9047 8.03682 14.2742 7.99557 14.9926C7.95604 15.6836 7.49198 15.9809 6.46932 15.9706C5.65807 15.962 5.18369 15.5925 5.16479 14.9531C5.14244 14.2347 5.63573 13.8892 6.67041 13.8978Z" fill="white"/>
<path d="M41.2748 48.5185C41.2817 49.0909 40.8417 49.5601 40.2814 49.5773C39.7177 49.5962 39.1969 49.0806 39.2072 48.5151C39.2175 47.972 39.7091 47.4907 40.2522 47.489C40.8125 47.489 41.268 47.9462 41.2748 48.5168V48.5185Z" fill="#EF7B10"/>
</g>
<defs>
<clipPath id="clip0_1164_724">
<rect width="66" height="66" fill="white"/>
</clipPath>
</defs>
</svg>
