<svg width="50" height="36" viewBox="0 0 50 36" fill="none" xmlns="http://www.w3.org/2000/svg">
<path d="M48.75 28H1.25C0.546875 28 0 28.5469 0 29.25V30.5C0 33.2344 2.1875 35.5 5 35.5H45C47.7344 35.5 50 33.2344 50 30.5V29.25C50 28.625 49.375 28 48.75 28ZM45 33H5C3.59375 33 2.5 31.9062 2.5 30.5H47.5C47.5 31.9062 46.3281 33 45 33ZM6.25 25.5C6.875 25.5 7.5 24.9531 7.5 24.25V5.5C7.5 4.17188 8.59375 3 10 3H40C41.3281 3 42.5 4.17188 42.5 5.5V24.25C42.5 24.9531 43.0469 25.5 43.75 25.5C44.375 25.5 45 24.9531 45 24.25V5.5C45 2.76562 42.7344 0.5 40 0.5H10C7.1875 0.5 5 2.76562 5 5.5V24.25C5 24.9531 5.54688 25.5 6.25 25.5Z" fill="#1D1E20"/>
</svg>
