<svg width="70" height="78" viewBox="0 0 70 78" fill="none" xmlns="http://www.w3.org/2000/svg">
<g id="Isolation_Mode" clip-path="url(#clip0_1633_2)">
<g id="Group">
<path id="Vector" d="M52.3474 -1.07315e-05C56.3714 0.906816 59.2937 3.48612 61.9553 6.45907C62.1593 6.68475 62.4485 6.90321 62.5072 7.16856C62.6031 7.60136 62.7066 8.18101 62.5011 8.49222C62.2955 8.80342 61.6446 9.09351 61.309 8.99097C59.489 8.43606 58.0077 8.97139 56.5188 10.0374C54.7488 11.3049 52.7906 12.2581 50.5896 12.4967C48.08 12.7692 46.56 12.1638 44.2769 10.1178C42.689 10.8391 42.0371 12.3143 42.2972 14.5932C43.7097 14.8055 45.1313 14.9637 46.5309 15.2373C56.705 17.2251 65.3065 26.0532 67.0872 36.304C67.2239 37.0928 66.8439 37.725 66.1435 37.8719C65.4968 38.0079 64.8826 37.5869 64.7291 36.8228C64.2262 34.3208 63.4029 31.9399 62.171 29.7063C61.9542 29.3121 61.7201 28.9273 61.462 28.4831C60.3863 29.7197 59.6395 31.0851 58.9891 32.519C58.5301 33.531 58.0526 34.5403 57.5007 35.5028C56.5025 37.2448 55.0177 38.162 52.9702 38.0909C51.4909 38.0393 50.0066 38.0177 48.5258 38.0517C46.7758 38.0914 45.4052 38.9194 44.3728 40.3224C43.3705 41.6847 42.6849 43.1943 42.3865 44.8735C42.3646 44.9982 42.3426 45.1234 42.3105 45.246C42.1172 45.9756 41.5882 46.3796 40.9567 46.2884C40.2794 46.1853 39.8585 45.6185 39.9585 44.8395C40.1942 42.9991 40.8858 41.3245 41.8366 39.7474C43.7153 36.6301 46.5161 35.3776 50.0489 35.5605C51.0773 35.612 52.1092 35.5935 53.1375 35.645C54.0949 35.6924 54.8039 35.2797 55.2798 34.4867C55.7455 33.7077 56.198 32.9101 56.5494 32.0738C57.4048 30.0221 58.4877 28.124 60.0307 26.4479C58.6275 24.5869 56.983 23.0174 55.1192 21.6536C54.5122 22.2131 53.9541 22.7959 53.3283 23.2915C51.6787 24.5977 49.8597 25.1021 47.8321 24.2798C46.3886 23.6945 45.1797 23.9423 43.9341 24.9496C41.8555 26.6288 39.4112 27.3558 36.7419 26.9704C34.8546 26.6978 33.4024 25.5761 32.2374 24.1365C31.2269 22.886 30.3659 21.5124 29.3881 20.1207C27.0433 21.3887 24.9473 23.1184 23.0406 25.2531C23.26 25.4159 23.4604 25.5478 23.6425 25.7024C24.8525 26.7277 26.1185 27.6953 27.2524 28.8005C29.357 30.8532 29.9426 33.3346 28.8581 36.1051C28.2144 37.7508 27.437 39.3444 26.6821 40.9437C26.3919 41.5574 25.7196 41.7537 25.1417 41.4925C24.5403 41.221 24.2623 40.5681 24.5423 39.8952C24.9121 39.009 25.3707 38.1604 25.7436 37.2752C26.1251 36.3699 26.4771 35.4492 26.7928 34.5182C27.2228 33.2496 26.8749 32.13 26.0654 31.1145C24.805 29.5332 23.2268 28.3358 21.5155 27.1945C20.3326 28.766 19.4334 30.4508 18.7101 32.2331C17.493 35.2256 16.91 38.3418 16.8886 41.578C16.8855 42.0134 16.7151 42.5606 16.4218 42.847C16.1852 43.0784 15.5328 43.1753 15.2696 43.0063C14.9125 42.7754 14.5151 42.221 14.5391 41.8305C14.6677 39.736 14.7212 37.6055 15.166 35.5667C17.5088 24.845 26.1501 16.6877 36.8593 14.957C37.8223 14.8024 38.7976 14.7292 39.7611 14.6195C40.0672 12.3854 39.3831 10.8304 37.7948 10.1168C34.6975 13.2871 31.1637 13.1371 27.2279 11.0519C26.4087 10.6176 25.6273 10.1008 24.8621 9.57217C23.7333 8.7926 22.5255 8.54168 21.2135 8.92193C20.5571 9.11205 19.9557 9.15482 19.5303 8.51695C19.1049 7.87908 19.3727 7.31901 19.82 6.80119C21.9169 4.37285 24.2118 2.18565 27.1677 0.852201C27.9838 0.483803 28.8714 0.27822 29.7263 -0.0015564H31.6865C32.5185 0.256065 33.3698 0.466799 34.1793 0.780582C36.9949 1.8698 38.185 4.12399 38.4767 7.00626C38.5033 7.26388 38.5461 7.61682 38.7165 7.75336C39.4892 8.37165 40.3105 8.93121 41.0715 9.48097C41.6571 9.01725 42.2488 8.46543 42.9216 8.04499C43.3756 7.76212 43.5755 7.47822 43.6235 6.93206C43.9336 3.42068 45.6005 1.4066 48.9584 0.408061C49.4333 0.266884 49.9112 0.134468 50.3866 -0.0015564L52.3474 -1.07315e-05ZM31.6891 19.0083C32.5358 20.621 33.4433 22.0998 34.7496 23.289C35.6922 24.1443 36.7552 24.7316 38.0743 24.6451C39.7167 24.5389 41.2699 24.086 42.5176 22.9886C44.3493 21.3769 46.3371 21.1759 48.5559 21.9457C50.2836 22.5444 51.9337 21.8638 52.8855 20.2573C46.837 16.5877 38.4757 15.9787 31.6901 19.0083H31.6891ZM23.6839 6.21381C24.8749 6.90218 25.9792 7.59106 27.1284 8.19029C28.3287 8.81528 29.5416 9.44284 30.8066 9.90914C32.4231 10.5042 33.9411 10.1415 35.4014 9.03322C34.3543 8.58548 33.4081 8.18668 32.4675 7.77603C31.6345 7.41536 31.3172 6.80171 31.583 6.10871C31.8487 5.4157 32.5644 5.18951 33.4193 5.54194C34.2262 5.87479 35.0291 6.21845 35.9391 6.60128C35.8881 6.2808 35.8707 6.05976 35.8156 5.84851C35.2296 3.59329 32.4114 2.01201 29.8477 2.5221C27.3253 3.02292 25.4493 4.62481 23.6849 6.21381H23.6839ZM46.1274 6.59973C47.1048 6.19166 47.9709 5.81295 48.8503 5.4662C49.5868 5.17818 50.2963 5.49093 50.5116 6.1592C50.7238 6.81974 50.4305 7.41279 49.6924 7.73893C48.7202 8.16813 47.7378 8.57311 46.6544 9.03322C48.2728 10.2183 49.9189 10.5676 51.6021 9.79012C53.9159 8.71944 56.1536 7.48234 58.4689 6.29368C56.9896 4.92004 55.4308 3.66594 53.5369 2.88844C51.5522 2.07333 49.6893 2.45254 47.9143 3.48148C46.7865 4.13533 46.2932 5.21012 46.1274 6.60128V6.59973Z" fill="white"/>
<path id="Vector_2" d="M24.6856 69.5845C25.1314 70.0055 25.6236 70.4347 26.0756 70.9041C26.7387 71.5929 26.7387 72.2025 26.0648 72.8924C24.5642 74.4278 23.0538 75.9534 21.5338 77.4693C20.8197 78.1798 20.2214 78.1772 19.5103 77.46C13.1799 71.0748 6.85296 64.6858 0.529656 58.293C-0.177317 57.5773 -0.175787 56.9678 0.529656 56.249C2.03236 54.7157 3.54339 53.1907 5.06276 51.6742C5.74422 50.9946 6.3451 50.9951 7.03014 51.6685C7.49432 52.125 7.91972 52.6212 8.42776 53.1704C9.3658 52.2131 10.2069 51.3501 11.0531 50.4912C11.9397 49.5916 12.8221 48.6878 13.7199 47.8001C19.1992 42.3828 27.7032 42.5714 32.9147 48.2401C33.2555 48.6111 33.587 48.7522 34.0777 48.7502C38.1992 48.7332 42.3211 48.7739 46.4426 48.7265C48.4936 48.7028 50.1152 49.3963 51.2817 51.2512C51.5006 51.0451 51.6974 50.8668 51.8836 50.6792C54.7998 47.7372 57.6894 44.7684 60.6361 41.8583C63.6456 38.8859 68.546 40.1183 69.7411 44.131C70.3965 46.3327 69.789 48.2318 68.2032 49.8358C64.3667 53.7149 60.5283 57.5921 56.6881 61.4674C56.0842 62.0774 55.4799 62.6875 54.8753 63.2975C52.4095 65.7959 49.4337 67.0279 45.9381 67.0197C40.6103 67.0068 35.2805 67.0985 29.9557 66.9769C27.7333 66.9279 26.0286 67.5741 24.6856 69.5845ZM23.0212 67.6086C23.0564 67.5887 23.0894 67.565 23.1196 67.538C23.3175 67.3432 23.5277 67.1572 23.7078 66.948C25.2196 65.2075 27.1131 64.5264 29.4033 64.5578C34.9551 64.6284 40.5083 64.5805 46.0611 64.5805C48.7798 64.5805 51.118 63.6314 53.0446 61.6895C57.5435 57.1553 62.0382 52.6155 66.5286 48.0701C67.8675 46.7145 67.9303 44.8323 66.7086 43.5874C65.463 42.3179 63.5502 42.3627 62.1975 43.7235C58.8684 47.0722 55.5479 50.4294 52.2361 53.7949C52.0114 54.0252 51.8501 54.3108 51.7684 54.6234C51.2108 56.9534 49.371 58.479 46.9914 58.4847C41.4887 58.4981 35.9861 58.4991 30.4837 58.4878C29.5303 58.4878 28.9805 58.0343 28.9779 57.2744C28.9754 56.5144 29.5247 56.0635 30.4745 56.0527C30.6505 56.0527 30.8265 56.0527 31.0019 56.0527C36.2558 56.0527 41.5045 56.0666 46.7558 56.0326C47.351 56.0251 47.9346 55.8655 48.4523 55.5689C49.3618 55.0263 49.6821 53.8928 49.3628 52.8994C49.0175 51.8267 48.1468 51.1862 46.9654 51.1847C42.543 51.177 38.1206 51.1548 33.6992 51.2012C32.6791 51.212 31.993 50.9121 31.3151 50.112C27.2651 45.331 20.0933 45.0152 15.6005 49.3669C14.8568 50.0883 14.1396 50.8343 13.4097 51.568L10.2697 54.7234C14.5431 59.0401 18.7615 63.3037 23.0212 67.6086ZM23.4512 71.9418L6.04364 54.34L3.15658 57.262C8.93835 63.0987 14.7722 68.9884 20.5753 74.8477L23.4512 71.9418Z" fill="white"/>
</g>
</g>
<defs>
<clipPath id="clip0_1633_2">
<rect width="70" height="78" fill="white"/>
</clipPath>
</defs>
</svg>
