<svg width="40" height="40" viewBox="0 0 40 40" fill="none" xmlns="http://www.w3.org/2000/svg">
<path d="M36.4062 6.5625L21.4062 0.3125C20.9375 0.15625 20.4688 0.078125 20 0.078125C19.4531 0.078125 18.9844 0.15625 18.5156 0.3125L3.51562 6.5625C2.10938 7.1875 1.25 8.51562 1.25 10C1.25 30.1562 16.0156 40 19.9219 40C23.8281 40 38.75 30.3125 38.75 10C38.75 8.51562 37.8125 7.1875 36.4062 6.5625ZM36.1719 10.0781C36.1719 27.6562 23.2031 37.5 20 37.5C16.6406 37.5 3.75 27.5781 3.75 10C3.75 9.53125 3.98438 9.0625 4.45312 8.90625L19.4531 2.65625C19.6094 2.57812 19.7656 2.5 20 2.5C20.1562 2.5 20.3125 2.57812 20.4688 2.65625L35.4688 8.90625C36.1719 9.21875 36.1719 9.84375 36.1719 10.0781ZM26.25 14.2188C25.8594 14.2188 25.5469 14.2969 25.3125 14.5312L17.8906 22.0312L14.6094 18.75C14.375 18.5156 14.0625 18.3594 13.75 18.3594C12.9688 18.3594 12.5 18.9844 12.5 19.6094C12.5 19.9219 12.5781 20.2344 12.8125 20.5469L17.0312 24.6875C17.2656 24.9219 17.5781 25 17.8906 25C18.2031 25 18.5156 24.9219 18.75 24.6875L27.1094 16.3281C27.3438 16.0938 27.5 15.7812 27.5 15.4688C27.5 14.7656 26.9531 14.2188 26.25 14.2188Z" fill="#1D1E20"/>
</svg>
