<svg width="40" height="40" viewBox="0 0 40 40" fill="none" xmlns="http://www.w3.org/2000/svg">
<path d="M2.5 31.25C2.5 33.3594 4.14062 35 6.25 35H38.75C39.375 35 40 35.625 40 36.25C40 36.9531 39.375 37.5 38.75 37.5H6.25C2.73438 37.5 0 34.7656 0 31.25V3.75C0 3.125 0.546875 2.5 1.25 2.5C1.875 2.5 2.5 3.125 2.5 3.75V31.25ZM25.8594 23.4375C25.3906 23.9062 24.5312 23.9062 24.0625 23.4375L17.4219 16.7969L9.60938 24.6875C9.14062 25.1562 8.28125 25.1562 7.8125 24.6875C7.34375 24.2188 7.34375 23.3594 7.8125 22.8906L16.5625 14.1406C17.0312 13.6719 17.8906 13.6719 18.3594 14.1406L25 20.7812L35.3125 10.3906C35.7812 9.92188 36.6406 9.92188 37.1094 10.3906C37.5781 10.8594 37.5781 11.7188 37.1094 12.1875L25.8594 23.4375Z" fill="#1D1E20"/>
</svg>
