<svg width="40" height="36" viewBox="0 0 40 36" fill="none" xmlns="http://www.w3.org/2000/svg">
<path d="M39.6094 17.1406L28.3594 5.89062C27.8906 5.42188 27.0312 5.42188 26.5625 5.89062C26.0938 6.35938 26.0938 7.21875 26.5625 7.6875L35.7031 16.75H13.75C13.0469 16.75 12.5 17.375 12.5 18C12.5 18.7031 13.0469 19.25 13.75 19.25H35.7031L26.5625 28.3906C26.0938 28.8594 26.0938 29.7188 26.5625 30.1875C27.0312 30.6562 27.8906 30.6562 28.3594 30.1875L39.6094 18.9375C39.8438 18.7031 40 18.3906 40 18C40 17.6875 39.8438 17.375 39.6094 17.1406ZM13.75 33H6.25C4.14062 33 2.5 31.3594 2.5 29.25V6.75C2.5 4.71875 4.14062 3 6.25 3H13.75C14.375 3 15 2.45312 15 1.75C15 1.125 14.375 0.5 13.75 0.5H6.25C2.73438 0.5 0 3.3125 0 6.75V29.25C0 32.7656 2.73438 35.5 6.25 35.5H13.75C14.375 35.5 15 34.9531 15 34.25C15 33.625 14.375 33 13.75 33Z" fill="#1D1E20"/>
</svg>
