<svg width="40" height="40" viewBox="0 0 40 40" fill="none" xmlns="http://www.w3.org/2000/svg">
<path d="M36.25 5C38.2812 5 40 6.71875 40 8.75V13.75C40 15.8594 38.2812 17.5 36.25 17.5H3.75C1.64062 17.5 0 15.8594 0 13.75V8.75C0 6.71875 1.64062 5 3.75 5H36.25ZM36.25 7.5H25V15H36.25C36.875 15 37.5 14.4531 37.5 13.75V8.75C37.5 8.125 36.875 7.5 36.25 7.5ZM2.5 8.75V13.75C2.5 14.4531 3.04688 15 3.75 15H22.5V7.5H3.75C3.04688 7.5 2.5 8.125 2.5 8.75ZM36.25 22.5C38.2812 22.5 40 24.2188 40 26.25V31.25C40 33.3594 38.2812 35 36.25 35H3.75C1.64062 35 0 33.3594 0 31.25V26.25C0 24.2188 1.64062 22.5 3.75 22.5H36.25ZM36.25 25H15V32.5H36.25C36.875 32.5 37.5 31.9531 37.5 31.25V26.25C37.5 25.625 36.875 25 36.25 25ZM2.5 26.25V31.25C2.5 31.9531 3.04688 32.5 3.75 32.5H12.5V25H3.75C3.04688 25 2.5 25.625 2.5 26.25Z" fill="#1D1E20"/>
</svg>
