<svg width="24" height="40" viewBox="0 0 24 40" fill="none" xmlns="http://www.w3.org/2000/svg">
<path d="M11.4844 25.8125C11.625 25.9531 11.8125 26 12 26C12.1406 26 12.3281 25.9531 12.4688 25.8125L19.2188 19.8125C19.5469 19.5781 19.5469 19.0625 19.2656 18.7812C19.0312 18.4531 18.5156 18.4531 18.2344 18.7344L12.75 23.6094V8.75C12.75 8.375 12.375 8 12 8C11.5781 8 11.25 8.375 11.25 8.75V23.6094L5.71875 18.6875C5.4375 18.4531 4.92188 18.4531 4.6875 18.7812C4.40625 19.0625 4.40625 19.5781 4.73438 19.8125L11.4844 25.8125ZM21 23H18.75C18.3281 23 18 23.375 18 23.75C18 24.1719 18.3281 24.5 18.75 24.5H21C21.7969 24.5 22.5 25.2031 22.5 26V29C22.5 29.8438 21.7969 30.5 21 30.5H3C2.15625 30.5 1.5 29.8438 1.5 29V26C1.5 25.2031 2.15625 24.5 3 24.5H5.25C5.625 24.5 6 24.1719 6 23.75C6 23.375 5.625 23 5.25 23H3C1.3125 23 0 24.3594 0 26V29C0 30.6875 1.3125 32 3 32H21C22.6406 32 24 30.6875 24 29V26C24 24.3594 22.6406 23 21 23ZM20.625 27.5C20.625 26.8906 20.1094 26.375 19.5 26.375C18.8438 26.375 18.375 26.8906 18.375 27.5C18.375 28.1562 18.8438 28.625 19.5 28.625C20.1094 28.625 20.625 28.1562 20.625 27.5Z" fill="#003671"/>
</svg>
