<svg width="16" height="24" viewBox="0 0 16 24" fill="none" xmlns="http://www.w3.org/2000/svg">
<path d="M0 8C0 6.90625 0.875 6 2 6H14C15.0938 6 16 6.90625 16 8V16C16 17.125 15.0938 18 14 18H2C0.875 18 0 17.125 0 16V8ZM1 8V9.25L7.09375 13.75C7.625 14.125 8.34375 14.125 8.875 13.75L15 9.25V8C15 7.46875 14.5312 7 14 7H1.96875C1.4375 7 0.96875 7.46875 0.96875 8H1ZM1 10.5V16C1 16.5625 1.4375 17 2 17H14C14.5312 17 15 16.5625 15 16V10.5L9.46875 14.5625C8.59375 15.1875 7.375 15.1875 6.5 14.5625L1 10.5Z" fill="#003671"/>
</svg>
