<svg width="18" height="19" viewBox="0 0 18 19" fill="none" xmlns="http://www.w3.org/2000/svg">
<path d="M15.625 0.75H1.875C1.36719 0.75 0.898438 0.984375 0.546875 1.33594C0.195312 1.6875 0 2.15625 0 2.625V16.375C0 16.8828 0.195312 17.3516 0.546875 17.7031C0.898438 18.0547 1.36719 18.25 1.875 18.25H7.22656V12.3125H4.76562V9.5H7.22656V7.39062C7.22656 4.96875 8.67188 3.60156 10.8594 3.60156C11.9531 3.60156 13.0469 3.79688 13.0469 3.79688V6.17969H11.8359C10.625 6.17969 10.2344 6.92188 10.2344 7.70312V9.5H12.9297L12.5 12.3125H10.2344V18.25H15.625C16.0938 18.25 16.5625 18.0547 16.9141 17.7031C17.2656 17.3516 17.5 16.8828 17.5 16.375V2.625C17.5 2.15625 17.2656 1.6875 16.9141 1.33594C16.5625 0.984375 16.0938 0.75 15.625 0.75Z" fill="#4A4D50"/>
</svg>
