<svg width="56" height="72" viewBox="0 0 56 72" fill="none" xmlns="http://www.w3.org/2000/svg">
<path d="M29.75 21.3438C30.2969 21.4531 31.7188 21.7812 32.375 21.8906C33.25 22.1094 33.7969 23.0938 33.5781 24.0781C33.3594 24.9531 32.375 25.5 31.3906 25.2812C30.9531 25.1719 29.5312 24.8438 28.9844 24.7344C27.5625 24.5156 26.4688 24.7344 25.5938 25.0625C24.8281 25.5 24.5 25.9375 24.5 26.2656C24.3906 26.8125 24.5 27.0312 24.5 27.1406C24.6094 27.25 24.7188 27.4688 25.0469 27.6875C25.8125 28.2344 26.9062 28.5625 28.4375 29H28.5469C29.8594 29.4375 31.6094 29.9844 32.8125 30.8594C33.5781 31.4062 34.125 32.0625 34.5625 32.9375C35 33.8125 35 34.7969 34.8906 35.8906C34.5625 37.75 33.25 39.0625 31.6094 39.8281C31.0625 40.0469 30.4062 40.2656 29.75 40.375V41.25C29.75 42.2344 28.875 43 28 43C27.0156 43 26.25 42.2344 26.25 41.25V40.2656C25.1562 40.0469 23.625 39.5 22.6406 39.1719C22.4219 39.1719 22.3125 39.0625 22.0938 39.0625C21.2188 38.7344 20.7812 37.75 21 36.7656C21.3281 35.8906 22.3125 35.3438 23.2969 35.6719C23.4062 35.7812 23.7344 35.8906 23.9531 35.8906C24.9375 36.3281 26.1406 36.6562 26.9062 36.7656C28.3281 37.0938 29.5312 36.875 30.2969 36.5469C30.9531 36.2188 31.2812 35.8906 31.3906 35.2344C31.5 34.7969 31.3906 34.4688 31.3906 34.3594C31.2812 34.1406 31.0625 33.9219 30.8438 33.7031C30.0781 33.1562 28.9844 32.8281 27.4531 32.3906L27.2344 32.2812C25.9219 31.8438 24.2812 31.4062 23.0781 30.5312C22.4219 30.0938 21.7656 29.4375 21.3281 28.6719C21 27.6875 20.8906 26.7031 21 25.7188C21.3281 23.8594 22.6406 22.6562 24.1719 21.8906C24.8281 21.6719 25.4844 21.4531 26.25 21.3438V20.25C26.25 19.375 27.0156 18.5 28 18.5C28.875 18.5 29.75 19.375 29.75 20.25V21.3438ZM5.25 30.75C5.25 18.2812 15.4219 8 28 8C40.4688 8 50.75 18.2812 50.75 30.75C50.75 43.3281 40.4688 53.5 28 53.5C15.4219 53.5 5.25 43.3281 5.25 30.75ZM28 50C38.6094 50 47.25 41.4688 47.25 30.75C47.25 20.1406 38.6094 11.5 28 11.5C17.2812 11.5 8.75 20.1406 8.75 30.75C8.75 41.4688 17.2812 50 28 50ZM10.0625 50H6.125C4.59375 50 3.5 51.2031 3.5 52.625V57.875C3.5 59.4062 4.59375 60.5 6.125 60.5H49.875C51.2969 60.5 52.5 59.4062 52.5 57.875V52.625C52.5 51.2031 51.2969 50 49.875 50H45.8281C46.9219 49.0156 48.0156 47.8125 49 46.5H49.875C53.1562 46.5 56 49.3438 56 52.625V57.875C56 61.2656 53.1562 64 49.875 64H6.125C2.73438 64 0 61.2656 0 57.875V52.625C0 49.3438 2.73438 46.5 6.125 46.5H6.89062C7.875 47.8125 8.96875 49.0156 10.0625 50Z" fill="#1D1E20"/>
</svg>
