<svg width="30" height="40" viewBox="0 0 30 40" fill="none" xmlns="http://www.w3.org/2000/svg">
<path d="M5 9.375C5 8.35938 5.78125 7.5 6.875 7.5H10.625C11.6406 7.5 12.5 8.35938 12.5 9.375V13.125C12.5 14.2188 11.6406 15 10.625 15H6.875C5.78125 15 5 14.2188 5 13.125V9.375ZM7.5 10V12.5H10V10H7.5ZM23.125 7.5C24.1406 7.5 25 8.35938 25 9.375V13.125C25 14.2188 24.1406 15 23.125 15H19.375C18.2812 15 17.5 14.2188 17.5 13.125V9.375C17.5 8.35938 18.2812 7.5 19.375 7.5H23.125ZM22.5 12.5V10H20V12.5H22.5ZM5 19.375C5 18.3594 5.78125 17.5 6.875 17.5H10.625C11.6406 17.5 12.5 18.3594 12.5 19.375V23.125C12.5 24.2188 11.6406 25 10.625 25H6.875C5.78125 25 5 24.2188 5 23.125V19.375ZM7.5 20V22.5H10V20H7.5ZM23.125 17.5C24.1406 17.5 25 18.3594 25 19.375V23.125C25 24.2188 24.1406 25 23.125 25H19.375C18.2812 25 17.5 24.2188 17.5 23.125V19.375C17.5 18.3594 18.2812 17.5 19.375 17.5H23.125ZM22.5 22.5V20H20V22.5H22.5ZM5 40C2.1875 40 0 37.8125 0 35V5C0 2.26562 2.1875 0 5 0H25C27.7344 0 30 2.26562 30 5V35C30 37.8125 27.7344 40 25 40H5ZM2.5 5V35C2.5 36.4062 3.59375 37.5 5 37.5H10V32.5C10 29.7656 12.1875 27.5 15 27.5C17.7344 27.5 20 29.7656 20 32.5V37.5H25C26.3281 37.5 27.5 36.4062 27.5 35V5C27.5 3.67188 26.3281 2.5 25 2.5H5C3.59375 2.5 2.5 3.67188 2.5 5ZM17.5 32.5C17.5 31.1719 16.3281 30 15 30C13.5938 30 12.5 31.1719 12.5 32.5V37.5H17.5V32.5Z" fill="#1D1E20"/>
</svg>
