<svg width="45" height="31" viewBox="0 0 45 31" fill="none" xmlns="http://www.w3.org/2000/svg">
<path d="M18.0469 0H18.75L16.0156 2.8125C14.6875 3.125 13.5156 3.75 12.4219 4.60938L9.29688 7.26562C9.0625 7.42188 8.75 7.57812 8.51562 7.57812H1.25C0.546875 7.57812 0 6.95312 0 6.32812C0 5.625 0.546875 5.07812 1.25 5.07812H8.04688L10.8594 2.65625C12.8906 0.9375 15.4688 0 18.0469 0ZM20.3125 2.73438C22.1875 1.01562 24.6094 0 27.1875 0C29.5312 0 31.7969 0.859375 33.5938 2.42188L36.7969 5H43.75C44.375 5 45 5.625 45 6.25C45 6.95312 44.375 7.5 43.75 7.5H36.3281C36.0156 7.5 35.7812 7.42188 35.5469 7.26562L32.0312 4.29688C30.7031 3.125 28.9844 2.5 27.1875 2.5C25.2344 2.5 23.4375 3.28125 22.0312 4.60938L15.7812 10.4688C14.6875 11.5625 14.6875 13.4375 15.8594 14.4531C16.9531 15.3906 18.5156 15.3906 19.5312 14.4531L25.4688 8.98438C26.0156 8.51562 26.7969 8.51562 27.2656 9.0625C27.7344 9.53125 27.7344 10.3125 27.1875 10.7812L26.5625 11.4062L33.2812 18.0469C33.8281 18.5938 34.2188 19.2188 34.4531 19.9219H43.75C44.375 19.9219 45 20.4688 45 21.1719C45 21.875 44.375 22.4219 43.75 22.4219H34.6094C34.4531 23.5156 33.9062 24.5312 33.0469 25.3125C31.7969 26.4062 30.1562 26.7969 28.6719 26.4844C28.4375 27.1094 28.125 27.7344 27.6562 28.2812C25.8594 30.2344 22.8125 30.4688 20.7812 28.8281C20.7031 28.9062 20.625 28.9062 20.5469 28.9844C18.5156 30.8594 15.3906 30.7812 13.4375 28.75L11.4844 26.875L10.3125 25.7031L8.04688 23.4375C7.5 22.8906 6.71875 22.5 5.85938 22.5H1.25C0.546875 22.5 0 21.9531 0 21.25C0 20.625 0.546875 20 1.25 20H5.85938C7.34375 20 8.75 20.625 9.84375 21.7188L12.0312 23.9062L15.1562 27.0312C16.1719 28.0469 17.8125 28.125 18.9062 27.1094C19.1406 26.875 19.375 26.6406 19.5312 26.3281C19.6875 26.0156 20 25.7812 20.4688 25.7031C20.8594 25.625 21.25 25.7812 21.4844 26.0938L22.1094 26.7188C23.125 27.7344 24.8438 27.6562 25.7812 26.5625C26.25 26.0938 26.4844 25.4688 26.4062 24.7656C26.4062 24.2969 26.6406 23.9062 27.0312 23.6719C27.5 23.4375 27.9688 23.4375 28.3594 23.6719C29.2969 24.2969 30.5469 24.2188 31.4062 23.4375C32.4219 22.5 32.5 20.8594 31.4844 19.8438L24.6875 13.0469L21.25 16.25C19.2969 18.125 16.25 18.125 14.2188 16.3281C11.9531 14.2969 11.875 10.7031 14.0625 8.59375L20.3125 2.73438Z" fill="#1D1E20"/>
</svg>
