<svg width="38" height="40" viewBox="0 0 38 40" fill="none" xmlns="http://www.w3.org/2000/svg">
<path d="M28 10C30.7344 10 33 7.8125 33 5C33 2.26562 30.7344 0 28 0C25.1875 0 23 2.26562 23 5C23 7.8125 25.1875 10 28 10ZM28 2.5C29.3281 2.5 30.5 3.67188 30.5 5C30.5 6.40625 29.3281 7.5 28 7.5C26.5938 7.5 25.5 6.40625 25.5 5C25.5 3.67188 26.5938 2.5 28 2.5ZM37.4531 26.875L34.4062 16.1719C33.7812 13.9844 31.8281 12.5 29.5625 12.5H24.0938C24.1719 12.9688 24.25 13.3594 24.25 13.75C24.25 14.2188 24.1719 14.6094 24.0938 15H29.5625C30.7344 15 31.6719 15.7812 31.9844 16.875L35.0312 27.5H26.75V30H30.5V38.75C30.5 39.4531 31.0469 40 31.75 40C32.375 40 33 39.4531 33 38.75V30H35.0312C36.75 30 37.9219 28.4375 37.4531 26.875ZM3 17.5C3 16.1719 4.09375 15 5.5 15H11.8281C11.75 14.6094 11.75 14.2188 11.75 13.75C11.75 13.3594 11.75 12.9688 11.8281 12.5H5.5C2.6875 12.5 0.5 14.7656 0.5 17.5V25C0.5 26.4062 1.59375 27.5 3 27.5V38.75C3 39.4531 3.54688 40 4.25 40C4.875 40 5.5 39.4531 5.5 38.75V27.5H9.25V25H3V17.5ZM8 10C10.7344 10 13 7.8125 13 5C13 2.26562 10.7344 0 8 0C5.1875 0 3 2.26562 3 5C3 7.8125 5.1875 10 8 10ZM8 2.5C9.32812 2.5 10.5 3.67188 10.5 5C10.5 6.40625 9.32812 7.5 8 7.5C6.59375 7.5 5.5 6.40625 5.5 5C5.5 3.67188 6.59375 2.5 8 2.5ZM18 18.75C20.3438 18.75 22.375 16.7969 22.375 14.375C22.375 12.0312 20.3438 10 18 10C15.5781 10 13.625 11.9531 13.625 14.375C13.625 16.7969 15.5781 18.75 18 18.75ZM18 12.5C19.0156 12.5 19.875 13.3594 19.875 14.375C19.875 15.4688 19.0156 16.25 18 16.25C16.9062 16.25 16.125 15.4688 16.125 14.375C16.125 13.3594 16.9062 12.5 18 12.5ZM20.5 21.25H15.5C13.3906 21.25 11.75 22.9688 11.75 25V30C11.75 31.4062 12.8438 32.5 14.25 32.5V37.5C14.25 38.9062 15.3438 40 16.75 40H19.25C20.5781 40 21.75 38.9062 21.75 37.5V32.5C23.0781 32.5 24.25 31.4062 24.25 30V25C24.25 22.9688 22.5312 21.25 20.5 21.25ZM21.75 30H19.25V37.5H16.75V30H14.25V25C14.25 24.375 14.7969 23.75 15.5 23.75H20.5C21.125 23.75 21.75 24.375 21.75 25V30Z" fill="#1D1E20"/>
</svg>
