<svg width="42" height="42" viewBox="0 0 42 42" fill="none" xmlns="http://www.w3.org/2000/svg">
<path d="M18.5781 30.6094C18.1094 29.8281 17.1719 29.6719 16.5469 30.2969L9.4375 37.4062C8.26562 38.5781 6.39062 38.8906 4.98438 37.9531C3.1875 36.7031 2.95312 34.125 4.4375 32.6406L14.9844 22.0938C15.4531 21.625 15.4531 20.8438 14.9844 20.375C14.5156 19.9062 13.7344 19.9062 13.1875 20.375L2.64062 30.9219C0.296875 33.1875 0.296875 36.9375 2.64062 39.2812C3.96875 40.6094 5.76562 41.2344 7.64062 41C8.96875 40.7656 10.2188 40.0625 11.1562 39.125L18.2656 32.0156C18.6562 31.625 18.7344 31.0781 18.5 30.6094C18.5781 30.6094 18.5781 30.6094 18.5781 30.6094ZM21.2344 7.95312C21.625 7.32812 22.0938 6.78125 22.5625 6.23438C24.3594 4.51562 26.7031 3.5 29.125 3.5C29.6719 3.5 30.2188 3.57812 30.7656 3.65625L25.375 9.125L26.3906 15.6094L32.875 16.625L38.3438 11.2344C38.8125 14.2031 37.875 17.25 35.7656 19.4375C35.375 19.75 34.9844 20.0625 34.5938 20.375C34.0469 20.7656 33.9688 21.7031 34.5156 22.1719C34.9844 22.6406 35.6875 22.7188 36.1562 22.3281C36.625 22.0156 37.0938 21.625 37.4844 21.1562C40.4531 18.1875 41.625 14.0469 40.6094 9.98438C40.4531 9.28125 39.8281 8.65625 39.125 8.42188C38.3438 8.26562 37.5625 8.42188 37.0156 8.96875L32.0156 13.9688L28.5781 13.4219L28.0312 9.98438L32.9531 4.98438C33.5 4.4375 33.7344 3.65625 33.5 2.875C33.3438 2.17188 32.7188 1.54688 32.0156 1.39062C27.9531 0.375 23.8125 1.54688 20.8438 4.51562C20.1406 5.14062 19.5938 5.84375 19.2031 6.625C18.8906 7.09375 18.9688 7.79688 19.3594 8.1875C19.9062 8.73438 20.8438 8.65625 21.2344 7.95312ZM5.92188 34.75C5.92188 35.4531 6.46875 35.9219 7.17188 35.9219C7.79688 35.9219 8.34375 35.375 8.34375 34.75C8.34375 34.2031 7.71875 33.5781 7.17188 33.5781C6.54688 33.5781 5.92188 34.125 5.92188 34.75ZM40.2188 31.4688L30.5312 21.7031C29.2812 20.5312 27.7188 19.9062 26.0781 19.9062C24.9062 19.9062 23.6562 20.2188 22.6406 20.9219L15.9219 14.2812V8.5L6 1L1 6L8.5 15.9219H14.2031L20.8438 22.5625C19.2812 24.9844 19.5156 28.2656 21.7031 30.4531L31.3906 40.1406C31.8594 40.7656 32.4844 41 33.1875 41C33.8125 41 34.4375 40.7656 34.9062 40.2969L40.1406 34.9844C41.2344 34.0469 41.2344 32.4062 40.2188 31.4688ZM13.4219 13.5H9.75L4.28125 6.23438L6.15625 4.35938L13.3438 9.75V13.5H13.4219ZM33.1875 38.5L23.4219 28.8125C22.7188 28.1094 22.3281 27.1719 22.3281 26.1562C22.3281 25.1406 22.7188 24.2031 23.4219 23.5C24.125 22.7969 25.0625 22.4062 26.0781 22.4062C27.0938 22.4062 28.0312 22.7969 28.7344 23.5L38.4219 33.1875L33.1875 38.5Z" fill="#1D1E20"/>
</svg>
