<svg width="228" height="96" viewBox="0 0 228 96" fill="none" xmlns="http://www.w3.org/2000/svg">
<g style="mix-blend-mode:multiply">
<rect width="228" height="96" fill="transparent"/>
</g>
<path fill-rule="evenodd" clip-rule="evenodd" d="M140.27 37.9835L141.707 29.7156C138.803 28.6649 135.75 28.0857 132.664 28C127.672 28 115.818 30.1807 115.818 40.7946C115.818 46.5839 120.496 49.0578 124.426 51.1363C127.273 52.6422 129.729 53.9406 129.729 56.1419C129.729 61.3816 117.254 60.4412 113.131 57.1754L111.632 65.805C115.229 67.3159 119.1 68.062 123.001 67.996C129.863 67.996 140.218 64.4408 140.218 54.7673C140.218 48.7118 135.119 45.9649 131.067 43.7827C128.398 42.3449 126.184 41.1523 126.184 39.42C126.184 35.0587 135.971 35.6065 140.27 37.9835ZM175.274 67.3243H166.035L164.857 61.5885H152.042L149.975 67.3243H139.485L154.491 31.576C154.857 30.6644 155.505 29.8933 156.339 29.3748C157.174 28.8563 158.152 28.6173 159.131 28.6926H167.224L175.274 67.3243ZM160.258 39.1928L154.966 53.6616H163.224L160.258 39.1928ZM86.9215 28.6924L77.3308 55.2633L76.1939 49.5378L72.8144 32.1339C72.8144 32.1339 72.401 28.6924 68.0397 28.6924H52.186L52 29.3435C54.4736 29.9741 56.8721 30.8437 59.1632 31.9358C60.3112 32.4882 61.432 33.0992 62.5209 33.7668L71.2642 67.3241H81.7438L97.7421 28.6924H86.9215ZM105.442 67.3241H95.3858L101.669 28.6924H111.725L105.442 67.3241Z" fill="#D7D9DB"/>
</svg>
