<svg width="49" height="36" viewBox="0 0 49 36" fill="none" xmlns="http://www.w3.org/2000/svg">
<path d="M49 22.375C49 29.7031 43.0938 35.5 35.875 35.5H35C33.0312 35.5 31.5 33.9688 31.5 32C31.5 30.1406 33.0312 28.5 35 28.5H35.875C39.1562 28.5 42 25.7656 42 22.375V21.5H35C31.0625 21.5 28 18.4375 28 14.5V7.5C28 3.67188 31.0625 0.5 35 0.5H42C45.8281 0.5 49 3.67188 49 7.5V11V14.5V22.375ZM21 22.375C21 29.7031 15.0938 35.5 7.875 35.5H7C5.03125 35.5 3.5 33.9688 3.5 32C3.5 30.1406 5.03125 28.5 7 28.5H7.875C11.1562 28.5 14 25.7656 14 22.375V21.5H7C3.0625 21.5 0 18.4375 0 14.5V7.5C0 3.67188 3.0625 0.5 7 0.5H14C17.8281 0.5 21 3.67188 21 7.5V11V14.5V22.375Z" fill="#003671"/>
</svg>
