<svg width="40" height="40" viewBox="0 0 40 40" fill="none" xmlns="http://www.w3.org/2000/svg">
<path d="M12.25 32H6.4375V13.3125H12.25V32ZM9.3125 10.8125C7.5 10.8125 6 9.25 6 7.375C6 4.8125 8.75 3.1875 11 4.5C12.0625 5.0625 12.6875 6.1875 12.6875 7.375C12.6875 9.25 11.1875 10.8125 9.3125 10.8125ZM33.9375 32H28.1875V22.9375C28.1875 20.75 28.125 18 25.125 18C22.125 18 21.6875 20.3125 21.6875 22.75V32H15.875V13.3125H21.4375V15.875H21.5C22.3125 14.4375 24.1875 12.875 27 12.875C32.875 12.875 34 16.75 34 21.75V32H33.9375Z" fill="#D7D9DB"/>
</svg>
