<svg width="40" height="40" viewBox="0 0 40 40" fill="none" xmlns="http://www.w3.org/2000/svg">
<path d="M29.75 10.125C27.1875 7.5 23.6875 6 19.9375 6C12.3125 6 6.0625 12.25 6.0625 19.875C6.0625 22.375 6.75 24.75 7.9375 26.8125L6 34L13.3125 32.125C15.375 33.1875 17.625 33.8125 19.9375 33.8125C27.625 33.8125 34 27.5625 34 19.9375C34 16.1875 32.375 12.75 29.75 10.125ZM19.9375 31.4375C17.875 31.4375 15.875 30.875 14.0625 29.8125L13.6875 29.5625L9.3125 30.75L10.5 26.5L10.1875 26.0625C9.0625 24.1875 8.4375 22.0625 8.4375 19.875C8.4375 13.5625 13.625 8.375 20 8.375C23.0625 8.375 25.9375 9.5625 28.125 11.75C30.3125 13.9375 31.625 16.8125 31.625 19.9375C31.625 26.25 26.3125 31.4375 19.9375 31.4375ZM26.3125 22.8125C25.9375 22.625 24.25 21.8125 23.9375 21.6875C23.625 21.5625 23.375 21.5 23.125 21.875C22.9375 22.1875 22.25 23 22.0625 23.25C21.8125 23.4375 21.625 23.5 21.3125 23.3125C19.25 22.3125 17.9375 21.5 16.5625 19.1875C16.1875 18.5625 16.9375 18.625 17.5625 17.3125C17.6875 17.0625 17.625 16.875 17.5625 16.6875C17.5 16.5 16.75 14.8125 16.5 14.125C16.1875 13.4375 15.9375 13.5 15.6875 13.5C15.5 13.5 15.25 13.5 15.0625 13.5C14.8125 13.5 14.4375 13.5625 14.125 13.9375C13.8125 14.3125 12.9375 15.125 12.9375 16.8125C12.9375 18.5625 14.125 20.1875 14.3125 20.4375C14.5 20.625 16.75 24.125 20.25 25.625C22.4375 26.625 23.3125 26.6875 24.4375 26.5C25.0625 26.4375 26.4375 25.6875 26.75 24.875C27.0625 24.0625 27.0625 23.375 26.9375 23.25C26.875 23.0625 26.625 23 26.3125 22.8125Z" fill="#D7D9DB"/>
</svg>
