<svg width="40" height="40" viewBox="0 0 40 40" fill="none" xmlns="http://www.w3.org/2000/svg">
<path d="M38.75 10.4688C39.4531 10.9375 40 11.7188 40 12.5781C40 13.9062 38.9062 15 37.5 15H2.42188C1.01562 15 0 13.9062 0 12.5781C0 11.7188 0.46875 10.9375 1.17188 10.4688L19.375 0.234375C19.7656 0 20.1562 0 20.5469 0.234375L38.75 10.4688ZM37.2656 12.5L20 2.73438L2.65625 12.5H16.0156C15.7031 11.9531 15.625 11.3281 15.625 10.625C15.625 8.28125 17.5781 6.25 20 6.25C22.3438 6.25 24.375 8.28125 24.375 10.625C24.375 11.3281 24.2188 11.9531 23.9062 12.5H37.2656ZM20 12.5C21.0156 12.5 21.875 11.7188 21.875 10.625C21.875 9.60938 21.0156 8.75 20 8.75C18.9062 8.75 18.125 9.60938 18.125 10.625C18.125 11.7188 18.9062 12.5 20 12.5ZM5 17.5H7.5V27.5H13.75V17.5H16.25V27.5H23.75V17.5H26.25V27.5H32.5V17.5H35V27.5C35.625 27.5 36.25 28.125 36.25 28.75C36.25 29.4531 35.625 30 35 30H5C4.29688 30 3.75 29.4531 3.75 28.75C3.75 28.125 4.29688 27.5 5 27.5V17.5ZM36.875 32.5C37.5 32.5 38.125 33.125 38.125 33.75C38.125 34.4531 37.5 35 36.875 35H3.125C2.42188 35 1.875 34.4531 1.875 33.75C1.875 33.125 2.42188 32.5 3.125 32.5H36.875ZM38.75 37.5C39.375 37.5 40 38.125 40 38.75C40 39.4531 39.375 40 38.75 40H1.25C0.546875 40 0 39.4531 0 38.75C0 38.125 0.546875 37.5 1.25 37.5H38.75Z" fill="#1D1E20"/>
</svg>
