<?xml version="1.0" encoding="utf-8"?>
<!-- Generator: Adobe Illustrator 26.5.0, SVG Export Plug-In . SVG Version: 6.00 Build 0)  -->
<svg version="1.1" id="Layer_1" xmlns="http://www.w3.org/2000/svg" xmlns:xlink="http://www.w3.org/1999/xlink" x="0px" y="0px"
	 viewBox="0 0 42 42" style="enable-background:new 0 0 42 42;" xml:space="preserve">
<style type="text/css">
	.st0{fill:#003B79;}
</style>
<path class="st0" d="M18.6,30.6c-0.5-0.8-1.4-0.9-2-0.3l-7.1,7.1c-1.2,1.2-3,1.5-4.5,0.5c-1.8-1.2-2-3.8-0.5-5.3L15,22.1
	c0.5-0.5,0.5-1.2,0-1.7c-0.5-0.5-1.2-0.5-1.8,0L2.6,30.9c-2.3,2.3-2.3,6,0,8.4c1.3,1.3,3.1,2,5,1.7c1.3-0.2,2.6-0.9,3.5-1.9l7.1-7.1
	C18.7,31.6,18.7,31.1,18.6,30.6C18.6,30.6,18.6,30.6,18.6,30.6z M21.2,8c0.4-0.6,0.9-1.2,1.3-1.7c1.8-1.7,4.1-2.7,6.6-2.7
	c0.5,0,1.1,0.1,1.6,0.2l-5.4,5.5l1,6.5l6.5,1l5.5-5.4c0.5,3-0.5,6-2.6,8.2c-0.4,0.3-0.8,0.6-1.2,0.9c-0.5,0.4-0.6,1.3-0.1,1.8
	c0.5,0.5,1.2,0.5,1.6,0.2c0.5-0.3,0.9-0.7,1.3-1.2c3-3,4.1-7.1,3.1-11.2c-0.2-0.7-0.8-1.3-1.5-1.6c-0.8-0.2-1.6,0-2.1,0.5l-5,5
	l-3.4-0.5L28,10L33,5c0.5-0.5,0.8-1.3,0.5-2.1c-0.2-0.7-0.8-1.3-1.5-1.5c-4.1-1-8.2,0.2-11.2,3.1c-0.7,0.6-1.2,1.3-1.6,2.1
	c-0.3,0.5-0.2,1.2,0.2,1.6C19.9,8.7,20.8,8.7,21.2,8z M5.9,34.8c0,0.7,0.5,1.2,1.2,1.2c0.6,0,1.2-0.5,1.2-1.2c0-0.5-0.6-1.2-1.2-1.2
	C6.5,33.6,5.9,34.1,5.9,34.8z M40.2,31.5l-9.7-9.8c-1.2-1.2-2.8-1.8-4.5-1.8c-1.2,0-2.4,0.3-3.4,1l-6.7-6.6V8.5L6,1L1,6l7.5,9.9h5.7
	l6.6,6.6c-1.6,2.4-1.3,5.7,0.9,7.9l9.7,9.7c0.5,0.6,1.1,0.9,1.8,0.9c0.6,0,1.2-0.2,1.7-0.7l5.2-5.3C41.2,34,41.2,32.4,40.2,31.5z
	 M13.4,13.5H9.8L4.3,6.2l1.9-1.9l7.2,5.4L13.4,13.5L13.4,13.5z M33.2,38.5l-9.8-9.7c-0.7-0.7-1.1-1.6-1.1-2.7c0-1,0.4-2,1.1-2.7
	s1.6-1.1,2.7-1.1c1,0,2,0.4,2.7,1.1l9.7,9.7L33.2,38.5z"/>
</svg>
