<svg width="68" height="72" viewBox="0 0 68 72" fill="none" xmlns="http://www.w3.org/2000/svg">
<g clip-path="url(#clip0_1164_736)">
<path d="M15.3486 62.7705C16.334 57.0414 20.1341 50.7726 28.2739 47.9394C25.139 45.5814 23.6069 42.502 23.966 38.6488C24.2084 36.0428 25.422 33.8612 27.4353 32.1582C31.6104 28.6264 37.6892 29.0351 41.4521 33.028C44.9338 36.724 45.4291 43.7072 39.7308 47.9604C46.8267 50.5053 51.1239 55.41 52.6932 62.9661C53.9015 61.7068 55.0709 60.6081 56.1005 59.3924C60.7816 53.8764 62.9966 47.4766 62.9099 40.3012C62.8957 39.0645 62.7276 37.8261 62.572 36.5947C62.4357 35.5223 62.7613 34.855 63.5786 34.745C64.4101 34.6332 64.9444 35.152 65.1036 36.2314C65.7936 40.8793 65.5936 45.4958 64.1076 49.9586C60.1801 61.7505 51.9837 68.9084 39.6918 71.4952C38.602 71.724 37.8979 71.3607 37.7688 70.5729C37.6361 69.7642 38.0766 69.2315 39.0514 69.0586C42.4552 68.449 45.6786 67.3363 48.6418 65.5722C50.6127 64.3984 50.4446 64.9993 49.9758 62.6273C48.6419 55.8624 43.3203 50.8931 36.4119 49.8189C27.6635 48.4582 19.2708 54.479 17.9121 63.0919C17.7529 64.1003 18.1144 64.866 18.9966 65.3888C22.0554 67.2053 25.3495 68.3966 28.8524 69.0498C29.9139 69.2472 30.3455 69.7642 30.2075 70.5817C30.0766 71.3485 29.4043 71.7013 28.3553 71.5092C23.1929 70.5642 18.5047 68.5503 14.4039 65.2997C7.7166 60.0003 3.86343 53.1061 2.74534 44.7325C2.34906 41.7702 2.41452 38.7956 2.96648 35.8472C3.11332 35.0611 3.62637 34.6751 4.32694 34.745C5.03106 34.8166 5.39019 35.255 5.48042 35.9135C5.50695 36.1109 5.43796 36.3222 5.41142 36.5266C4.04565 46.8443 7.20001 55.5358 15.0249 62.5452C15.0992 62.6116 15.1894 62.6587 15.3504 62.7688L15.3486 62.7705ZM34.0235 32.2542C29.905 32.228 26.4517 35.6166 26.4393 39.6899C26.4269 43.7282 29.8059 47.1045 33.9139 47.1587C38.0218 47.2128 41.4963 43.84 41.537 39.7597C41.5777 35.6987 38.1545 32.2804 34.0235 32.2542Z" fill="white"/>
<path d="M24.9498 24.6335C25.3655 22.2475 25.8113 19.8074 26.1935 17.3586C26.2465 17.0214 26.1032 16.5306 25.8644 16.2913C24.1873 14.6163 22.4677 12.9849 20.7499 11.3517C20.304 10.9273 19.9962 10.4644 20.1979 9.84607C20.3978 9.23124 20.8932 9.02688 21.5247 8.94129C23.9095 8.6199 26.2855 8.23039 28.6702 7.91948C29.1391 7.85835 29.3478 7.65923 29.5336 7.28544C30.5774 5.1737 31.6495 3.07593 32.6809 0.958953C32.9551 0.391281 33.3284 0.00351798 33.9741 2.46185e-05C34.6163 -0.00346875 35.0037 0.365081 35.2832 0.937993C36.3146 3.05497 37.392 5.15099 38.427 7.26622C38.6304 7.68193 38.8781 7.85311 39.3593 7.91599C41.7706 8.23214 44.1802 8.57274 46.5756 8.9902C47.0108 9.06531 47.5893 9.4653 47.7167 9.84083C47.8441 10.2199 47.6318 10.8888 47.3257 11.1998C45.6468 12.908 43.9042 14.5551 42.1598 16.1988C41.7795 16.5568 41.6556 16.8852 41.7547 17.4162C42.1899 19.7253 42.5561 22.0484 42.9701 24.361C43.0745 24.9444 43.0179 25.4527 42.5137 25.8195C41.9776 26.209 41.4363 26.0745 40.8932 25.7915C38.8127 24.7034 36.718 23.6396 34.6481 22.5305C34.1775 22.2772 33.8131 22.2737 33.3443 22.5235C31.2266 23.6536 29.0966 24.7593 26.9577 25.8492C25.9051 26.3854 24.879 25.7758 24.9515 24.6317L24.9498 24.6335ZM43.4743 11.0618C42.0661 10.8487 40.4756 10.4976 38.8693 10.4015C37.4681 10.3194 36.7021 9.72031 36.1802 8.47668C35.5645 7.01295 34.7755 5.62085 33.9865 4.04534C33.3001 5.41474 32.6985 6.63392 32.0794 7.84438C30.7171 10.5098 31.3717 10.026 28.2457 10.5046C26.9347 10.7054 25.6203 10.8906 24.4314 11.0653C25.4557 12.1534 26.3934 13.3534 27.5415 14.3106C28.7817 15.3464 29.1408 16.4276 28.7145 17.9734C28.3182 19.4039 28.1873 20.9061 27.9166 22.5148C29.645 21.6222 31.262 20.8397 32.8206 19.9594C33.6468 19.493 34.3332 19.4947 35.1559 19.9559C36.7162 20.831 38.3297 21.6152 40.0652 22.5113C39.7291 20.562 39.4407 18.7576 39.0957 16.9638C38.9507 16.2075 39.1099 15.6416 39.6689 15.0809C40.971 13.7744 42.2094 12.405 43.4743 11.06V11.0618Z" fill="#EF7B10"/>
<path d="M22.6564 18.6143C22.5397 18.782 22.3468 19.175 22.0514 19.4685C20.7758 20.7331 19.4543 21.954 18.1947 23.2308C17.9682 23.4614 17.8055 23.9085 17.8515 24.2212C18.1168 26.0343 18.4972 27.8316 18.7378 29.6464C18.7962 30.0813 18.5786 30.6507 18.292 31.0053C17.9311 31.4525 17.3543 31.3529 16.8484 31.0892C15.2066 30.2333 13.5542 29.3931 11.9249 28.5163C11.5127 28.2945 11.196 28.2805 10.7749 28.5058C9.16681 29.3704 7.53213 30.1826 5.91869 31.0368C5.38972 31.3162 4.88552 31.4245 4.37955 31.0455C3.89304 30.6804 3.78335 30.2018 3.89834 29.601C4.24155 27.8002 4.55646 25.9941 4.82714 24.1828C4.87136 23.8893 4.71745 23.4701 4.50515 23.2553C3.242 21.9802 1.93992 20.7401 0.636071 19.5052C0.169021 19.0632 -0.156499 18.5829 0.0823334 17.9331C0.319397 17.2851 0.889056 17.1262 1.5224 17.0423C3.33576 16.8013 5.14912 16.5463 6.9554 16.2528C7.19954 16.2127 7.48437 15.9559 7.60467 15.7253C8.39724 14.2127 9.16327 12.6861 9.90631 11.1508C10.2141 10.515 10.5361 9.92984 11.357 9.94032C12.1354 9.94906 12.4574 10.5045 12.7528 11.1176C13.4853 12.632 14.2584 14.1254 14.9908 15.638C15.1872 16.0432 15.4136 16.2458 15.9107 16.3035C17.7276 16.5166 19.5357 16.803 21.3473 17.0685C22.1894 17.1926 22.6564 17.6589 22.6582 18.6178L22.6564 18.6143ZM15.8453 27.7198C15.6347 26.4517 15.5339 25.3181 15.242 24.2334C14.943 23.1208 15.2986 22.375 16.1301 21.6536C16.9793 20.9165 17.717 20.0571 18.5397 19.2152C17.3243 19.0458 16.1619 18.8536 14.9943 18.7279C14.0602 18.6283 13.3986 18.2842 13.0129 17.3637C12.5494 16.2581 11.9479 15.2083 11.334 13.9909C10.7519 15.1524 10.1788 16.1341 9.7577 17.1768C9.33134 18.2301 8.60776 18.665 7.49852 18.7506C6.37689 18.8362 5.26765 19.0615 4.17079 19.2239C5.09074 20.1689 5.9293 21.0929 6.83864 21.9435C7.45783 22.5217 7.65597 23.1243 7.47375 23.9505C7.21015 25.1487 7.05093 26.3679 6.82094 27.732C8.07172 27.084 9.19512 26.5408 10.2761 25.926C11.0155 25.5068 11.6719 25.5068 12.4096 25.926C13.4888 26.5373 14.6086 27.0788 15.847 27.7216L15.8453 27.7198Z" fill="#EF7B10"/>
<path d="M50.5636 31.2988C49.649 31.311 49.0368 30.5914 49.1748 29.7757C49.4827 27.9434 49.7905 26.1094 50.1408 24.2841C50.2292 23.8195 50.1302 23.5173 49.7887 23.1959C48.4796 21.9645 47.204 20.6999 45.9002 19.465C45.4508 19.0388 45.166 18.5672 45.3783 17.9524C45.5888 17.3358 46.1178 17.135 46.7264 17.0511C48.5662 16.7996 50.4061 16.5516 52.2372 16.2511C52.5008 16.2075 52.8051 15.9262 52.936 15.6747C53.7639 14.094 54.5654 12.4975 55.3385 10.8906C55.6127 10.3194 55.9948 9.94212 56.637 9.94037C57.281 9.94037 57.6649 10.3159 57.9391 10.8853C58.714 12.494 59.5366 14.0783 60.3203 15.6817C60.5079 16.0642 60.729 16.2407 61.1908 16.2965C63.0076 16.5131 64.8245 16.7542 66.6202 17.0913C67.0873 17.1786 67.6162 17.5664 67.8692 17.9681C68.1859 18.4677 67.8657 18.9969 67.4358 19.4091C66.1355 20.6493 64.8582 21.9139 63.5455 23.14C63.1633 23.4981 63.0448 23.8247 63.1492 24.3575C63.5012 26.1304 63.8179 27.912 64.0532 29.7023C64.108 30.1146 63.8887 30.6578 63.6109 30.9949C63.2447 31.4403 62.6768 31.3652 62.1691 31.1014C60.5273 30.2456 58.875 29.4089 57.2474 28.5268C56.8033 28.2858 56.4636 28.298 56.0267 28.5338C54.4203 29.3984 52.7927 30.2263 51.1686 31.0595C50.9404 31.1765 50.6892 31.2516 50.5601 31.3023L50.5636 31.2988ZM63.8427 19.2118C62.5866 19.0371 61.373 18.8432 60.1523 18.707C59.2942 18.6109 58.7157 18.2581 58.3584 17.4406C57.8666 16.3158 57.2668 15.2363 56.6406 13.9909C56.0709 15.121 55.4959 16.0747 55.0996 17.0965C54.6627 18.2179 53.9037 18.672 52.7343 18.7541C51.6375 18.8327 50.5512 19.0615 49.4667 19.224C50.4221 20.2021 51.3049 21.1523 52.246 22.0449C52.8033 22.5724 52.9395 23.14 52.7962 23.8632C52.5503 25.0946 52.3593 26.3382 52.1187 27.7338C53.3924 27.0718 54.5335 26.5111 55.6428 25.8946C56.3292 25.512 56.9484 25.5068 57.6348 25.8876C58.7458 26.5024 59.8851 27.0648 61.1607 27.7268C60.9201 26.333 60.7272 25.0928 60.4831 23.8614C60.3398 23.1383 60.4778 22.5741 61.0386 22.0466C61.9833 21.1593 62.8643 20.2074 63.8409 19.2135L63.8427 19.2118Z" fill="#EF7B10"/>
<path d="M35.2384 70.7773C35.2313 71.4708 34.6917 71.9983 33.9894 72.0018C33.2552 72.0053 32.7032 71.4376 32.7315 70.711C32.758 70.0193 33.31 69.511 34.0177 69.5267C34.7182 69.5442 35.2454 70.0822 35.2366 70.7773H35.2384Z" fill="white"/>
</g>
<defs>
<clipPath id="clip0_1164_736">
<rect width="68" height="72" fill="white"/>
</clipPath>
</defs>
</svg>
