<svg width="161" height="160" viewBox="0 0 161 160" fill="none" xmlns="http://www.w3.org/2000/svg">
<ellipse cx="80.5" cy="80" rx="80.5" ry="80" fill="url(#paint0_linear_888_8)"/>
<ellipse cx="80.5004" cy="80" rx="61.3812" ry="61" fill="url(#paint1_linear_888_8)"/>
<g clip-path="url(#clip0_888_8)">
<path d="M42 104.931C42.5917 104.146 43.1112 103.293 43.7861 102.592C46.1361 100.154 48.5342 97.761 50.9323 95.3716C51.2651 95.0409 51.3224 94.8092 51.0969 94.3665C47.2215 86.7742 51.4112 77.8704 59.7019 76.0452C66.5542 74.5357 73.5395 79.3948 74.5916 86.4043C75.6418 93.4044 71.2339 99.689 64.3391 100.957C61.4215 101.494 58.6499 100.946 55.9948 99.4965C55.821 99.6591 55.6342 99.8235 55.4604 99.9991C52.9126 102.568 50.3665 105.14 47.8168 107.709C45.7349 109.807 43.2776 109.308 42.1017 106.556C42.0869 106.521 42.0351 106.5 42 106.472C42 105.959 42 105.447 42 104.933V104.931ZM72.7963 88.4892C72.8 82.5801 68.1054 77.8013 62.2812 77.7882C56.3553 77.7732 51.5832 82.5465 51.5961 88.478C51.609 94.3497 56.3405 99.1378 62.1647 99.1715C68.0019 99.2032 72.7926 94.3926 72.7963 88.491V88.4892ZM52.4854 96.5878C50.8066 98.2859 49.1758 99.9356 47.545 101.583C46.5004 102.639 45.4465 103.683 44.4129 104.75C43.7547 105.428 43.8064 106.173 44.5127 106.728C45.0693 107.165 45.6295 107.102 46.2323 106.497C48.8338 103.881 51.4278 101.26 54.0219 98.639C54.1125 98.5475 54.1735 98.4261 54.168 98.4354C53.5967 97.8077 53.0679 97.2285 52.4854 96.5878Z" fill="black"/>
<path d="M113 89.6848C112.68 90.1799 112.222 90.3461 111.645 90.3443C108.849 90.3312 106.053 90.3443 103.256 90.3349C102.246 90.3312 101.915 89.993 101.915 88.9973C101.914 82.4717 101.914 75.9443 101.915 69.4187C101.915 68.408 102.228 68.0904 103.245 68.0885C106.065 68.0829 108.884 68.0941 111.702 68.0792C112.255 68.0755 112.687 68.2417 112.998 68.7032V89.6829L113 89.6848ZM111.016 88.2781V70.1267H103.907V88.2781H111.016Z" fill="black"/>
<path d="M97.4569 64.0663C99.7293 62.8128 101.972 61.5742 104.134 60.3804C104.167 59.6406 104.104 58.955 104.241 58.3142C104.696 56.1938 106.532 54.8561 108.662 55.0112C110.568 55.1513 112.274 56.8177 112.435 58.6934C112.626 60.9259 111.367 62.7885 109.257 63.2948C107.898 63.6217 106.635 63.3321 105.578 62.3849C105.276 62.1159 105.067 62.1122 104.738 62.2953C102.784 63.3938 100.826 64.4829 98.8529 65.5459C98.4739 65.7514 98.4147 65.9793 98.4628 66.3754C98.6735 68.1109 98.0375 69.5027 96.5953 70.4406C95.1494 71.3803 93.6056 71.3934 92.1504 70.4723C90.6731 69.5382 90.0352 68.139 90.1998 66.3661C90.2183 66.1662 90.05 65.8392 89.8762 65.7458C88.2695 64.8827 86.6479 64.0458 85.0116 63.2368C84.8341 63.149 84.4754 63.2107 84.3164 63.3433C82.7152 64.6753 81.077 64.8416 79.2484 63.8552C79.0709 63.7599 78.7103 63.7842 78.5532 63.9075C76.4805 65.5459 74.4374 67.2198 72.3684 68.862C72.0412 69.1216 72.0781 69.3421 72.1817 69.6914C72.8898 72.0734 71.553 74.4404 69.1771 75.0531C66.9473 75.6285 64.6416 74.1956 64.1387 71.8455C63.7763 70.1491 64.3014 68.6901 65.6696 67.6346C67.0582 66.5641 68.5855 66.4557 70.1608 67.246C70.3641 67.3487 70.5564 67.4758 70.7839 67.6084C73.0599 65.772 75.3286 63.9393 77.4826 62.2019C77.4383 61.2304 77.2719 60.3486 77.3828 59.5042C77.6768 57.2586 79.829 55.7865 82.1697 56.1228C84.272 56.4236 85.8936 58.5869 85.5866 60.7316C85.5312 61.1221 85.6033 61.307 85.9583 61.4845C87.5484 62.2803 89.1163 63.121 90.7082 63.9131C90.9005 64.0084 91.2629 64.014 91.4164 63.8944C93.5131 62.2467 95.3547 62.2729 97.4551 64.0626L97.4569 64.0663ZM68.1713 73.1887C69.3713 73.2055 70.3882 72.2266 70.427 71.0178C70.4658 69.8166 69.4119 68.7256 68.2083 68.7237C67.0286 68.7237 65.9988 69.7531 65.9858 70.9431C65.9729 72.1388 66.9769 73.17 68.1694 73.1868L68.1713 73.1887ZM108.26 61.4378C109.466 61.4527 110.477 60.4757 110.507 59.2632C110.538 58.0377 109.51 56.9747 108.296 56.9728C107.123 56.9728 106.084 58.0096 106.075 59.1941C106.066 60.3916 107.068 61.421 108.262 61.4359L108.26 61.4378ZM96.5325 66.9153C96.5325 65.6879 95.5451 64.6772 94.3451 64.6772C93.147 64.6772 92.156 65.6898 92.156 66.9153C92.156 68.1595 93.1174 69.1347 94.3451 69.1347C95.571 69.1347 96.5306 68.1614 96.5306 66.9153H96.5325ZM81.4653 58.0564C80.2302 58.0526 79.2724 59.011 79.2669 60.2589C79.2632 61.4957 80.232 62.4933 81.4431 62.5008C82.6505 62.5082 83.6378 61.5125 83.6434 60.2814C83.6471 59.0353 82.6949 58.0601 81.4653 58.0564Z" fill="#EF7B10"/>
<path d="M87.0146 79.7778C87.0146 82.8061 87.0164 85.8345 87.0146 88.8647C87.0146 90.0136 86.7021 90.3349 85.5835 90.3368C82.8341 90.3424 80.0865 90.3405 77.3371 90.3368C76.2111 90.3368 75.9005 90.0192 75.8986 88.874C75.8968 82.7706 75.8949 76.6654 75.8986 70.562C75.8986 69.4561 76.2148 69.1403 77.2909 69.1403C80.0865 69.1403 82.8803 69.1385 85.6759 69.1403C86.667 69.1403 87.009 69.4747 87.0109 70.4817C87.0183 73.581 87.0146 76.6785 87.0146 79.7778ZM84.9659 88.2818V71.171H77.9288V88.2818H84.9659Z" fill="black"/>
<path d="M99.9975 82.9985C99.9975 85.0031 100.001 87.0077 99.9957 89.0122C99.992 89.993 99.6758 90.3312 98.7181 90.3349C95.8762 90.3443 93.0325 90.3461 90.1907 90.3349C89.2551 90.3312 88.9019 89.9575 88.9019 89.0029C88.8964 85.0162 88.8982 81.0313 88.9019 77.0446C88.9019 76.0414 89.2421 75.7089 90.2369 75.7089C92.9863 75.707 95.7375 75.7089 98.4869 75.7089C99.772 75.7089 99.9975 75.9405 99.9975 77.2669C99.9975 79.1781 99.9975 81.0893 99.9975 83.0004V82.9985ZM98.0007 77.7284H90.9376V88.265H98.0007V77.7284Z" fill="black"/>
<path d="M62.2858 80.8128C66.5199 80.9155 69.8684 84.3586 69.7907 88.5321C69.7094 92.9392 66.2389 96.2309 61.8051 96.1076C57.7263 95.9937 54.5239 92.4142 54.6274 88.0819C54.7217 84.084 58.2699 80.7156 62.2858 80.8128ZM62.2156 82.808C59.0853 82.8024 56.5633 85.33 56.5651 88.4649C56.567 91.5773 59.1426 94.1666 62.2211 94.1498C65.3052 94.133 67.8013 91.609 67.8105 88.4948C67.8216 85.3188 65.3551 82.8117 62.2137 82.8061L62.2156 82.808Z" fill="#EF7B10"/>
</g>
<defs>
<linearGradient id="paint0_linear_888_8" x1="130.923" y1="21.0989" x2="34.376" y2="147.395" gradientUnits="userSpaceOnUse">
<stop stop-color="#FBFBFB"/>
<stop offset="1" stop-color="#EFF1F3"/>
</linearGradient>
<linearGradient id="paint1_linear_888_8" x1="118.948" y1="35.0879" x2="45.3308" y2="131.388" gradientUnits="userSpaceOnUse">
<stop stop-color="#EEF0F2"/>
<stop offset="1" stop-color="#FDFEFE"/>
</linearGradient>
<clipPath id="clip0_888_8">
<rect width="71" height="54" fill="white" transform="translate(42 55)"/>
</clipPath>
</defs>
</svg>
