<svg width="228" height="96" viewBox="0 0 228 96" fill="none" xmlns="http://www.w3.org/2000/svg">
<g style="mix-blend-mode:multiply">
<rect width="228" height="96" fill="transparent"/>
</g>
<path fill-rule="evenodd" clip-rule="evenodd" d="M186.747 35.7551V60.6367H180.409V37.3518C180.465 36.8973 180.346 36.4385 180.076 36.0686C180.005 35.9782 179.916 35.9037 179.815 35.8497C179.714 35.7957 179.603 35.7635 179.488 35.7551H178.567V33.1004H184.18C186.1 33.1004 186.747 33.7959 186.747 35.7551ZM196.259 60.6367H189.911V39.1053H193.653C195.563 39.1053 196.259 39.8596 196.259 41.76V60.6367ZM177.735 39.0857V60.6367H171.387V41.7404C171.387 39.84 172.131 39.0857 173.983 39.0857H177.735ZM183.612 67.4645C194.584 67.4645 202.636 59.2555 202.636 47.9804H202.597C202.597 36.7347 194.662 28.5257 183.612 28.5257C172.562 28.5257 164.559 36.6955 164.559 47.9804C164.559 59.2653 172.641 67.4645 183.612 67.4645ZM183.612 24C197.072 24 207.122 34.2465 207.162 47.9804H207.122C207.122 61.7535 197.101 72 183.612 72C170.123 72 160.043 61.7143 160.043 47.9804C160.043 34.2465 170.153 24 183.612 24ZM78.022 31.6997C80.4612 31.6997 81.8816 32.9046 81.8816 34.8638C81.8816 36.8524 80.422 38.0377 78.022 38.0377C75.622 38.0377 74.1624 36.8426 74.1624 34.8638C74.1624 32.885 75.5828 31.6997 78.022 31.6997ZM81.8816 41.7013V62.0377H75.0833V43.827C75.0833 42.6515 74.6033 42.1128 73.4571 42.1128H73.0653V39.3993H79.6971C79.9992 39.38 80.3019 39.4274 80.5837 39.538C80.8655 39.6486 81.1195 39.8197 81.3279 40.0393C81.5363 40.2589 81.6939 40.5215 81.7896 40.8087C81.8852 41.0959 81.9167 41.4006 81.8816 41.7013ZM31.3445 49.8122H37.5649L34.6555 38.8898L31.3445 49.8122ZM30.2571 54.7886L28.1412 62.0376H21L28.7584 38.4686C29.0796 37.6949 29.2748 36.8747 29.3363 36.0392C29.3363 35.1478 28.7094 34.7069 27.5731 34.7069H26.5935V32.1502H37.5649C38.2844 32.0859 39.0017 32.2952 39.5737 32.7364C40.1457 33.1777 40.5302 33.8183 40.6506 34.5306L48.3502 62.0376H40.5918L38.6327 54.7886H30.2571ZM57.8816 34.4326V62.0375H51.0931V36.3623C51.0931 35.1966 50.6131 34.7068 49.4571 34.7068H49.0163V32.1501H55.7069C56.0068 32.1311 56.3073 32.1779 56.5871 32.2875C56.8669 32.397 57.1194 32.5665 57.3267 32.7841C57.534 33.0016 57.6911 33.262 57.787 33.5468C57.8828 33.8316 57.9152 34.1339 57.8816 34.4326ZM69.8816 62.0375V34.4326C69.9152 34.1339 69.8828 33.8316 69.787 33.5468C69.6911 33.262 69.534 33.0016 69.3267 32.7841C69.1194 32.5665 68.8669 32.397 68.5871 32.2875C68.3073 32.1779 68.0068 32.1311 67.7069 32.1501H61.0163V34.7068H61.4571C62.6131 34.7068 63.0931 35.1966 63.0931 36.3623V62.0375H69.8816ZM97.2024 51.3306V55.6506C96.2305 56.75 94.8733 57.4338 93.4114 57.5608C92.1575 57.5608 91.7069 56.9436 91.7069 55.2881C91.7069 53.6326 92.0596 52.8881 93.3135 52.3494C94.5675 51.8649 95.872 51.5232 97.2024 51.3306ZM87.9649 46.1192C90.059 45.0576 92.3583 44.4628 94.7045 44.3755C96.5363 44.3755 97.2024 45.0514 97.2024 47.0106V47.5102C94.4204 47.951 93.5486 48.1273 91.9812 48.4898C91.1023 48.6936 90.2434 48.9755 89.4147 49.3322C86.6326 50.449 85.369 52.6236 85.369 55.9738C85.369 60.2057 87.1518 62.2628 90.8547 62.2628C92.0944 62.2594 93.3217 62.0166 94.4694 61.5477C95.534 61.0323 96.5229 60.373 97.4082 59.5885V59.902C97.3696 60.1868 97.3972 60.4766 97.4888 60.749C97.5804 61.0214 97.7335 61.2691 97.9362 61.4728C98.1389 61.6765 98.3859 61.8307 98.6578 61.9235C98.9298 62.0164 99.2195 62.0453 99.5045 62.0081H105.862V59.4808H105.549C104.363 59.4808 103.922 58.9812 103.922 57.6587V47.0498C103.922 41.3583 101.963 39.3992 96.409 39.3992C94.6307 39.4037 92.8589 39.6141 91.129 40.0261C89.4979 40.4008 87.9281 41.0044 86.4661 41.8187L87.9649 46.1192ZM116.353 46.8342V62.0374H109.555V43.817C109.555 42.6415 109.075 42.1028 107.929 42.1028H107.527V39.3893H113.993C115.384 39.3893 116.079 40.1534 116.079 41.6325V42.5632C118.705 40.0162 120.634 39.1248 123.387 39.1248C124.165 39.0729 124.944 39.1876 125.674 39.4613C126.404 39.735 127.067 40.1613 127.619 40.7117C128.755 41.9362 129.02 43.0628 129.02 46.6383V62.0374H122.231V47.7746C122.231 45.5313 121.829 44.9436 120.272 44.9436C119.521 44.9597 118.783 45.1369 118.107 45.4631C117.431 45.7892 116.833 46.2568 116.353 46.8342ZM149.953 57.463H140.363L149.522 44.4148V39.8499H135.015C134.687 39.7956 134.352 39.8201 134.036 39.9215C133.72 40.0229 133.432 40.1982 133.198 40.4329C132.963 40.6676 132.788 40.9548 132.686 41.2708C132.585 41.5869 132.56 41.9225 132.615 42.2499V46.2956H135.338V45.894C135.338 44.8654 135.867 44.3756 136.964 44.3756H141.862L132.576 57.5511V62.0377H149.914L149.953 57.463Z" fill="#D7D9DB"/>
</svg>
