<svg width="64" height="66" viewBox="0 0 64 66" fill="none" xmlns="http://www.w3.org/2000/svg">
<g id="Layer_1" clip-path="url(#clip0_1509_227)">
<path id="Vector" d="M41.3219 14.3925C41.0492 14.0195 40.8771 13.7109 40.6368 13.4685C38.3193 11.1458 35.9898 8.83493 33.662 6.5224C33.5274 6.38846 33.3945 6.23927 33.2309 6.15111C32.8151 5.92562 32.4044 5.96122 32.067 6.30539C31.7296 6.64956 31.7091 7.05815 31.9392 7.46674C32.021 7.61085 32.1522 7.72783 32.2715 7.84651C34.6112 10.176 36.9526 12.5055 39.294 14.8333C39.4133 14.9519 39.5275 15.1316 39.6706 15.1622C39.9825 15.23 40.3642 15.33 40.6215 15.2096C40.8959 15.0825 41.0578 14.718 41.3219 14.3891V14.3925ZM13.4857 42.0987C13.2846 41.7596 13.184 41.4714 12.9881 41.2764C10.5819 38.8622 8.16211 36.4615 5.74401 34.0591C5.6537 33.9693 5.55997 33.8794 5.45091 33.8167C5.00614 33.5658 4.58183 33.6166 4.24101 33.9913C3.91894 34.3439 3.91383 34.7576 4.16092 35.1594C4.24783 35.3001 4.37904 35.4154 4.50003 35.5341C6.82611 37.85 9.15218 40.1643 11.4783 42.4785C11.6129 42.6124 11.7458 42.8091 11.906 42.8413C12.2161 42.904 12.5944 42.9718 12.8569 42.8498C13.1142 42.7311 13.2624 42.3784 13.484 42.0987H13.4857ZM17.0148 38.6333C16.8359 38.3078 16.7541 38.0297 16.5735 37.8483C15.0415 36.3004 13.4993 34.7644 11.9435 33.2419C11.526 32.8333 10.9466 32.8571 10.5768 33.225C10.1746 33.6268 10.1832 34.1608 10.6211 34.6288C10.9534 34.9831 11.3078 35.3171 11.6521 35.6596C12.8211 36.8226 13.9662 38.0111 15.1778 39.1284C15.4317 39.3623 15.9549 39.4556 16.3076 39.3861C16.5735 39.3335 16.766 38.9164 17.0148 38.6333ZM31.946 12.1494C31.6546 12.397 31.249 12.575 31.1809 12.8412C31.0957 13.1701 31.1655 13.6889 31.3854 13.9194C32.8747 15.4775 34.4169 16.9864 35.954 18.4987C36.4278 18.965 36.9475 18.97 37.3616 18.5682C37.7893 18.1529 37.774 17.6154 37.2815 17.1204C35.7887 15.6233 34.2908 14.1314 32.7793 12.653C32.5833 12.4597 32.2971 12.358 31.946 12.1494Z" fill="white"/>
<path id="Vector_2" d="M16.1521 0.359619C17.0757 0.756343 18.0965 1.01404 18.9076 1.57353C22.1999 3.84367 22.5867 8.46025 19.7988 11.3238C19.683 11.4442 19.5688 11.5662 19.4597 11.6815C19.8329 12.2986 20.2317 12.4512 20.9695 12.185C23.783 11.1695 26.927 12.319 28.5186 14.8451C30.1222 17.3916 29.7814 20.6129 27.6734 22.7813C27.5575 22.9 27.4059 22.9864 27.2286 23.1221C28.3261 24.1359 29.1202 25.2396 29.5701 26.5688C30.1171 28.1913 29.2667 29.8003 27.6172 30.2258C27.3752 30.2885 27.1145 30.3004 26.8606 30.3004C24.3095 30.3055 21.7602 30.3089 19.2092 30.3021C17.1234 30.297 15.8249 28.4711 16.5082 26.5197C16.8917 25.4244 17.4864 24.4597 18.3146 23.6443C18.4628 23.4985 18.6673 23.412 18.894 23.2679C17.483 22.0031 16.7707 20.5756 16.5577 18.8954H13.7715C13.5636 20.5976 12.8376 22.0116 11.5494 23.1628C12.5582 24.0918 13.3199 25.143 13.7851 26.3959C14.5485 28.4507 13.2637 30.2987 11.0586 30.3021C8.55017 30.3055 6.04346 30.3055 3.53505 30.3021C1.33849 30.2987 0.0450872 28.4372 0.842599 26.3891C1.07776 25.7856 1.39472 25.1989 1.75428 24.6581C2.10362 24.1359 2.55691 23.6816 3.00338 23.1492C2.89261 23.0305 2.75629 22.8813 2.61655 22.7372C0.842598 20.9113 0.321149 18.1173 1.32315 15.7962C1.60773 15.1367 2.12237 14.8756 2.67449 15.1147C3.1806 15.3334 3.34931 15.8692 3.11585 16.5168C2.2604 18.8836 2.9693 20.9181 5.11474 22.2439C6.00086 22.7915 6.00938 23.5781 5.10792 24.1088C3.90313 24.8192 3.09029 25.833 2.61996 27.1317C2.36946 27.8234 2.72391 28.388 3.46348 28.3931C6.01449 28.4134 8.5638 28.4117 11.1148 28.3931C11.8987 28.388 12.2446 27.8336 11.9737 27.0944C11.517 25.8398 10.7331 24.8497 9.57603 24.1546C8.56721 23.5476 8.57573 22.805 9.58796 22.1879C11.5749 20.9774 12.3792 18.6615 11.534 16.5829C10.6769 14.4738 8.44452 13.3532 6.16957 13.8906C5.42488 14.0669 4.98182 13.916 4.75518 13.4091C4.50127 12.8412 4.81482 12.2579 5.51009 12.0613C6.78985 11.7019 8.06451 11.7137 9.33064 12.1427C10.2236 12.4444 10.2253 12.4394 10.8967 11.6798C9.71576 10.5778 8.94041 9.25709 8.74273 7.6312C8.33205 4.29295 10.4587 1.26157 13.7596 0.502033C13.9214 0.464734 14.0799 0.40709 14.2401 0.359619C14.8774 0.359619 15.5165 0.359619 16.1538 0.359619H16.1521ZM22.9769 28.4083C24.209 28.4083 25.4411 28.4151 26.6731 28.4066C27.6649 28.3999 28.0091 27.8828 27.6444 26.9537C27.1912 25.7974 26.4482 24.87 25.3865 24.2105C24.2533 23.5069 24.2533 22.8559 25.3899 22.154C27.1179 21.0876 27.9461 19.0785 27.4399 17.1763C26.898 15.1384 25.1701 13.7855 23.0775 13.7635C21.0104 13.7414 19.2484 15.0452 18.6639 17.0271C18.0794 19.0141 18.8889 21.0656 20.6935 22.171C21.7875 22.8406 21.7926 23.5341 20.7071 24.1936C19.5943 24.8683 18.8377 25.8364 18.381 27.0368C18.0624 27.8726 18.4339 28.3982 19.3455 28.4049C20.5571 28.4151 21.767 28.4083 22.9787 28.4083H22.9769ZM18.5787 13.5702C18.2788 13.3244 18.0198 13.0768 17.7284 12.8768C16.3157 11.9121 16.314 11.5018 17.7386 10.5405C19.4904 9.35881 20.1823 7.13105 19.4103 5.16608C18.6673 3.27571 16.6241 2.0245 14.7138 2.29068C12.6417 2.5789 11.1097 3.95896 10.6973 5.90697C10.2969 7.80243 11.1591 9.67076 12.9348 10.7575C13.8788 11.3356 13.8788 12.0698 12.9518 12.6631C12.5377 12.9276 12.1577 13.2447 11.8135 13.499C12.2668 14.1534 12.6809 14.6892 13.0268 15.2673C13.3386 15.7895 13.4409 16.5999 13.8788 16.8406C14.385 17.1187 15.1603 16.9101 15.8181 16.9118C15.9885 16.9118 16.1742 16.9542 16.3242 16.8983C16.4929 16.8355 16.723 16.7084 16.7639 16.5643C17.0893 15.4199 17.7028 14.4552 18.577 13.5685L18.5787 13.5702Z" fill="#EF7B10"/>
<path id="Vector_3" d="M29.1023 46.1796C26.7847 48.4972 24.5132 50.769 22.2042 53.0765C24.9273 55.5772 27.1869 58.461 30.3378 60.3735C42.493 67.7485 58.1859 61.133 61.1715 47.3477C62.7017 40.2813 60.8511 34.0422 55.882 28.761C54.4165 27.2046 52.8436 25.7466 51.3593 24.2818C49.0878 26.5485 46.8128 28.817 44.4885 31.1363C45.5961 32.2332 46.7651 33.3979 47.9444 34.5525C48.9702 35.5562 49.812 36.687 50.3744 38.0111C50.4698 38.2366 50.6112 38.5604 50.5209 38.7232C50.342 39.0419 50.0506 39.4302 49.737 39.5048C49.4627 39.5709 48.902 39.3267 48.7981 39.0809C47.808 36.7497 45.8466 35.2374 44.1494 33.5047C42.4436 31.7636 40.6935 30.0631 38.9706 28.3388C36.9735 26.3417 36.9752 23.7104 38.9741 21.703C40.005 20.6655 41.0326 19.6228 42.0891 18.6106C43.9449 16.8322 46.6118 16.8135 48.4402 18.6106C51.4803 21.5979 54.5596 24.5513 57.4838 27.6488C62.1292 32.5706 64.1468 38.4773 63.4771 45.1979C62.4938 55.0618 55.369 62.9878 45.6029 64.8832C37.7607 66.4057 30.8882 64.2593 25.1522 58.6967C22.3354 55.9654 19.5782 53.1765 16.8056 50.4011C14.8101 48.4039 14.8204 45.7591 16.8107 43.7551C17.7974 42.7633 18.7875 41.7732 19.7878 40.795C21.785 38.8385 24.4212 38.8317 26.415 40.7984C29.012 43.3601 31.5766 45.9524 34.1771 48.509C37.6841 51.9558 43.0843 52.0575 46.5828 48.7515C48.2034 47.2205 49.1099 45.3336 49.3264 43.1211C49.3945 42.4225 49.8291 41.9682 50.388 42.0207C50.9708 42.075 51.2878 42.5378 51.2469 43.2719C50.9844 47.9004 47.152 52.1321 42.5168 52.895C38.7304 53.5189 35.4619 52.4983 32.7371 49.7958C31.5511 48.6192 30.3701 47.4375 29.1074 46.1812L29.1023 46.1796ZM27.7237 44.8046C26.8546 43.9416 25.9821 43.077 25.1113 42.214C25.021 42.1242 24.9324 42.0326 24.837 41.9495C23.8094 41.0459 22.3575 41.0188 21.3709 41.9495C20.2019 43.0549 19.0652 44.1942 17.9491 45.3522C17.126 46.2067 16.9334 47.5664 17.6952 48.4243C18.6955 49.55 19.8883 50.5096 20.9789 51.5218C23.1482 49.3601 25.4112 47.1069 27.722 44.8029L27.7237 44.8046ZM49.7848 22.8135C48.8032 21.7997 47.8523 20.7129 46.789 19.7499C45.8841 18.9311 44.4408 19.0379 43.5308 19.9042C42.3635 21.0147 41.2183 22.1489 40.1056 23.3137C39.2246 24.236 39.1581 25.6838 40.0135 26.6095C40.9729 27.6471 42.038 28.5881 43.0196 29.5375C45.257 27.3148 47.5234 25.0616 49.7865 22.8152L49.7848 22.8135Z" fill="white"/>
<path id="Vector_4" d="M41.3221 14.3925C41.0579 14.7197 40.8961 15.0859 40.6217 15.2131C40.3661 15.3317 39.9844 15.2317 39.6708 15.1656C39.5277 15.1351 39.4135 14.9554 39.2942 14.8367C36.9528 12.5089 34.6114 10.1794 32.2717 7.84994C32.1524 7.73126 32.0195 7.61258 31.9394 7.47017C31.7076 7.05988 31.7298 6.65299 32.0672 6.30882C32.4046 5.96465 32.817 5.93074 33.2311 6.15454C33.3947 6.2427 33.5276 6.39189 33.6622 6.52583C35.99 8.83836 38.3195 11.1492 40.637 13.4719C40.8773 13.7126 41.0494 14.0229 41.3221 14.3959V14.3925Z" fill="white"/>
<path id="Vector_5" d="M13.4859 42.0987C13.2644 42.3801 13.1161 42.7311 12.8588 42.8498C12.5964 42.9718 12.2198 42.904 11.9079 42.8413C11.7478 42.8091 11.6148 42.6107 11.4802 42.4785C9.15243 40.1642 6.82635 37.85 4.50198 35.5341C4.3827 35.4154 4.24978 35.3001 4.16287 35.1594C3.91578 34.7576 3.92089 34.3439 4.24296 33.9913C4.58378 33.6166 5.0081 33.5657 5.45286 33.8167C5.56192 33.8777 5.65565 33.9693 5.74597 34.0591C8.16406 36.4615 10.5839 38.8622 12.99 41.2764C13.1843 41.4714 13.2865 41.7596 13.4876 42.0987H13.4859Z" fill="white"/>
<path id="Vector_6" d="M17.0157 38.6333C16.7669 38.9147 16.5744 39.3335 16.3085 39.3861C15.9558 39.4556 15.4326 39.3623 15.1787 39.1284C13.9671 38.0111 12.822 36.8226 11.653 35.6596C11.3087 35.3171 10.9543 34.9831 10.622 34.6288C10.1823 34.1608 10.1738 33.6268 10.5777 33.225C10.9475 32.8571 11.5269 32.8333 11.9444 33.2419C13.5002 34.7644 15.0424 36.3021 16.5744 37.8483C16.755 38.0314 16.8385 38.3078 17.0157 38.6333Z" fill="white"/>
<path id="Vector_7" d="M31.9468 12.1494C32.2979 12.3579 32.5842 12.4597 32.7801 12.6529C34.2917 14.1313 35.7895 15.6233 37.2823 17.1203C37.7748 17.6154 37.7901 18.1545 37.3624 18.5682C36.9483 18.97 36.4286 18.9649 35.9548 18.4987C34.4178 16.9864 32.8756 15.4775 31.3862 13.9194C31.1664 13.6888 31.0965 13.17 31.1817 12.8411C31.2499 12.575 31.6571 12.3952 31.9468 12.1494Z" fill="white"/>
</g>
<defs>
<clipPath id="clip0_1509_227">
<rect width="63" height="65" fill="white" transform="translate(0.601562 0.359619)"/>
</clipPath>
</defs>
</svg>
