<svg width="160" height="160" viewBox="0 0 160 160" fill="none" xmlns="http://www.w3.org/2000/svg">
<circle cx="80" cy="80" r="80" fill="url(#paint0_linear_888_2)"/>
<circle cx="80" cy="80" r="61" fill="url(#paint1_linear_888_2)"/>
<g clip-path="url(#clip0_888_2)">
<path d="M94.8293 87.4869C95.5919 84.3272 97.4305 82.3624 100.519 81.9225C103.155 81.5459 105.368 82.5544 106.834 84.8398C108.6 87.5931 108.286 90.3259 106.374 92.9897C106.574 93.0047 106.721 93.014 106.867 93.027C107.564 93.083 107.954 93.4725 107.956 94.194C107.964 99.7267 107.964 105.259 107.956 110.792C107.956 111.579 107.544 111.983 106.765 111.994C105.942 112.007 105.119 111.998 104.296 111.998C88.0413 111.998 71.787 111.998 55.5327 111.998C53.3678 111.998 51.8078 110.376 52.0168 108.218C52.081 107.545 52.5118 106.903 52.7959 106.259C52.8582 106.119 53.0067 106.016 53.1185 105.901C53.8243 105.172 54.8178 104.562 55.1606 103.686C55.5217 102.76 55.2706 101.583 55.2724 100.515C55.2779 98.515 55.3329 96.5148 55.2633 94.5183C55.0616 88.7377 59.0945 82.9645 65.822 81.9411C65.5416 81.0613 65.2684 80.1926 64.988 79.3258C64.7093 78.4664 64.4105 77.6164 64.1466 76.7533C63.8624 75.8213 64.3207 75.1725 65.2758 75.1707C68.8412 75.1614 72.4084 75.1632 75.9739 75.1707C76.9766 75.1725 77.4312 75.8082 77.1251 76.7869C76.654 78.2875 76.1553 79.7806 75.6714 81.2775C75.6017 81.4919 75.5412 81.7081 75.4716 81.943C79.213 82.5414 82.1038 84.4204 84.0909 87.4869H94.8312H94.8293ZM70.6945 109.769C75.6567 109.769 80.619 109.767 85.5794 109.771C86.1935 109.771 86.7105 109.618 86.9854 108.997C87.2696 108.356 86.9873 107.882 86.5528 107.446C85.9992 106.89 85.4548 106.327 84.903 105.768C84.1716 105.026 83.805 104.146 83.8105 103.082C83.827 100.176 83.8233 97.2697 83.8141 94.3617C83.7958 88.5065 79.455 84.1016 73.6935 84.0867C71.6807 84.0811 69.6698 84.0681 67.657 84.0942C66.9292 84.1035 66.1887 84.1445 65.4774 84.2937C60.6948 85.3003 57.4832 89.3212 57.4667 94.289C57.4575 97.4748 57.4538 100.661 57.474 103.846C57.4777 104.43 57.298 104.862 56.8892 105.259C56.1102 106.012 55.3531 106.79 54.6088 107.576C53.9984 108.221 54.0259 109.079 54.7042 109.493C55.014 109.681 55.4356 109.754 55.8077 109.756C60.77 109.772 65.7304 109.767 70.6926 109.767L70.6945 109.769ZM105.768 88.5476C105.764 86.1335 103.775 84.1035 101.405 84.0905C99.0015 84.0774 96.9888 86.1168 96.9888 88.5643C96.9888 90.9728 98.9814 93.0084 101.352 93.0214C103.753 93.0345 105.771 90.9877 105.768 88.5476ZM86.0414 89.6977V92.9842H94.7487V89.6977H86.0414ZM86.0212 98.5616H94.745V95.3087H86.0212V98.5616ZM97.0181 98.5672H105.727V95.3031H97.0181V98.5672ZM105.746 100.89H97.0218V104.145H105.746V100.89ZM97.0144 109.731H105.727V106.464H97.0144V109.731ZM94.7615 100.882H86.0102C86.0102 101.675 85.9864 102.417 86.0175 103.157C86.0487 103.928 86.3328 104.184 87.0697 104.186C88.3273 104.186 89.5848 104.186 90.8423 104.186C92.1383 104.186 93.4343 104.186 94.7634 104.186V100.882H94.7615ZM66.7019 77.4095C67.1712 78.8504 67.6002 80.2131 68.0713 81.5609C68.1208 81.7044 68.4086 81.8423 68.5901 81.8479C69.5469 81.8759 70.5057 81.861 71.4626 81.861C72.5795 81.861 73.3122 81.3241 73.6605 80.2504C73.9611 79.3202 74.2581 78.3881 74.5697 77.4095H66.7001H66.7019ZM88.6701 106.447C89.3098 107.494 89.473 108.563 89.1228 109.722H94.7432V106.447H88.6701Z" fill="black"/>
<path d="M81.6151 80.709H79.4245V77.4934C79.4245 75.9816 79.397 74.4698 79.4392 72.9598C79.4538 72.4379 79.2339 72.162 78.8617 71.888C75.7748 69.6119 71.4889 69.7741 68.4954 72.2906C67.4469 73.1723 67.2599 73.1723 66.2169 72.2981C62.9539 69.5578 58.362 69.6082 55.1558 72.4342C54.7324 72.8088 54.3108 73.0829 53.7407 72.8349C53.1302 72.5702 53.0569 72.039 53.0771 71.4443C53.3539 62.4555 57.2236 55.4055 64.3398 50.2009C69.6063 46.3515 75.5933 44.5824 82.033 45.0839C93.4149 45.9675 101.644 51.653 106.216 62.435C107.436 65.317 107.941 68.3872 107.964 71.5338C107.968 72.0837 107.88 72.5553 107.343 72.8144C106.782 73.0847 106.351 72.8499 105.92 72.4733C102.613 69.5727 97.9757 69.5485 94.7036 72.4006C93.8457 73.1481 93.5395 73.1444 92.6358 72.3726C89.624 69.802 85.4995 69.5877 82.275 71.8209C81.8094 72.1434 81.5821 72.4919 81.5931 73.1201C81.6408 75.6274 81.6133 78.1365 81.6133 80.7108L81.6151 80.709ZM55.4308 69.405C55.5389 69.3695 55.6068 69.3565 55.6673 69.3285C59.5938 67.3656 63.3829 67.6005 67.0125 70.0891C67.3534 70.3221 67.5312 70.186 67.7842 70.0108C71.5861 67.3731 76.3064 67.36 80.0551 69.9959C80.4144 70.2475 80.6435 70.2475 81.0028 69.9959C84.6654 67.4029 89.4975 67.3787 93.1564 69.9474C93.589 70.2513 93.8493 70.2177 94.2728 69.9269C96.5605 68.3536 99.0994 67.7086 101.827 68.184C103.114 68.4077 104.357 68.8942 105.576 69.2484C104.756 58.7571 95.4771 47.8036 81.4428 47.2928C67.5239 46.7858 56.604 57.1298 55.4308 69.405Z" fill="#EF7B10"/>
<path d="M66.4442 54.3653C66.908 54.9786 67.337 55.5434 67.7971 56.1511C64.9961 58.3787 62.899 61.1227 61.4141 64.452C60.7304 64.15 60.076 63.8592 59.3867 63.5554C61.0035 59.8626 63.3371 56.8352 66.4461 54.3672L66.4442 54.3653Z" fill="#EF7B10"/>
<path d="M69.474 54.9357C69.0744 54.2833 68.7059 53.6812 68.3008 53.0176C69.1788 52.531 70.0111 52.0706 70.9166 51.5692C71.2393 52.2757 71.5326 52.915 71.8515 53.6104C71.0725 54.0428 70.308 54.4697 69.474 54.9339V54.9357Z" fill="#EF7B10"/>
</g>
<defs>
<linearGradient id="paint0_linear_888_2" x1="130.11" y1="21.0989" x2="33.4066" y2="146.813" gradientUnits="userSpaceOnUse">
<stop stop-color="#FBFBFB"/>
<stop offset="1" stop-color="#EFF1F3"/>
</linearGradient>
<linearGradient id="paint1_linear_888_2" x1="118.209" y1="35.0879" x2="44.4725" y2="130.945" gradientUnits="userSpaceOnUse">
<stop stop-color="#EEF0F2"/>
<stop offset="1" stop-color="#FDFEFE"/>
</linearGradient>
<clipPath id="clip0_888_2">
<rect width="56" height="67" fill="white" transform="translate(52 45)"/>
</clipPath>
</defs>
</svg>
