<svg width="160" height="160" viewBox="0 0 160 160" fill="none" xmlns="http://www.w3.org/2000/svg">
<circle cx="80" cy="80" r="80" fill="url(#paint0_linear_888_7)"/>
<circle cx="80" cy="80" r="61" fill="url(#paint1_linear_888_7)"/>
<g clip-path="url(#clip0_888_7)">
<path d="M91.7556 45C92.1443 45.1096 92.5381 45.2072 92.9233 45.3322C94.115 45.7191 95.1304 46.3835 96.0139 47.2704C101.584 52.8487 107.159 58.422 112.735 63.9935C114.263 65.519 115.007 67.3408 115.002 69.5102C114.983 76.5045 114.983 83.4989 115.002 90.4932C115.007 92.6626 114.259 94.4827 112.732 96.0082C107.155 101.58 101.58 107.153 96.0104 112.73C94.4849 114.257 92.6648 115.007 90.4972 115.002C83.5028 114.983 76.5084 114.983 69.5141 115.002C67.3447 115.009 65.523 114.262 63.9974 112.736C58.4259 107.16 52.8595 101.58 47.2709 96.0202C46.0655 94.82 45.3943 93.3732 45.0039 91.7568V68.2432C45.396 66.6303 46.0638 65.1817 47.2692 63.9815C52.8509 58.422 58.4173 52.8453 63.9837 47.2704C64.8689 46.3852 65.8825 45.7191 67.0742 45.3339C67.4595 45.2089 67.8515 45.1113 68.2402 45.0017C76.0787 45.0017 83.9154 45.0017 91.7539 45.0017L91.7556 45ZM47.9318 79.9615C47.9318 83.3328 47.9626 86.7058 47.9181 90.0755C47.8958 91.7551 48.4694 93.0889 49.6645 94.2721C55.0374 99.5953 60.3863 104.943 65.7079 110.317C66.9098 111.533 68.2676 112.086 69.9678 112.077C76.666 112.043 83.3624 112.045 90.0605 112.077C91.7351 112.086 93.0774 111.538 94.2623 110.343C99.6026 104.955 104.967 99.5919 110.354 94.2498C111.528 93.0855 112.085 91.7671 112.078 90.1131C112.047 83.3705 112.047 76.6261 112.078 69.8834C112.086 68.2295 111.53 66.9128 110.355 65.7468C104.969 60.4047 99.6026 55.0421 94.264 49.6538C93.0792 48.4587 91.7385 47.909 90.0622 47.9176C83.3419 47.9484 76.6215 47.9484 69.9011 47.9176C68.2505 47.9107 66.9252 48.4535 65.7592 49.6281C60.4172 55.0147 55.0545 60.3807 49.6662 65.7194C48.4711 66.9025 47.8958 68.2346 47.9181 69.9143C47.9626 73.2616 47.9318 76.6124 47.9318 79.9598V79.9615Z" fill="black"/>
<path d="M68.3629 62.6511C68.3629 61.5125 68.3321 60.3996 68.3698 59.2883C68.4656 56.4564 71.5322 54.3144 74.4755 55.59C74.5782 55.6345 74.6827 55.6773 74.8522 55.7492C75.936 54.3161 77.3588 53.5045 79.196 53.799C80.9904 54.0867 82.1547 55.2013 82.7112 56.8074C83.6923 56.8074 84.622 56.6515 85.4764 56.8382C87.4694 57.2748 88.7398 59.0366 88.7433 61.1632C88.7518 66.745 88.7467 72.3268 88.7467 77.9103C88.7467 78.1517 88.7467 78.3931 88.7467 78.6345C88.7912 78.6482 88.834 78.6602 88.8785 78.6739C89.3614 77.8401 89.8374 77.0011 90.3305 76.1741C91.5838 74.0732 93.3919 72.861 95.8712 72.7309C97.2837 72.6572 98.5713 73.0425 99.7459 73.8061C100.388 74.2239 100.537 74.8232 100.27 75.7478C99.097 79.8057 97.9241 83.8653 96.741 87.9198C96.0218 90.3837 95.414 92.8886 94.5254 95.2908C92.2858 101.35 87.8906 105.006 81.5349 106.049C72.8506 107.471 64.4831 101.575 62.8256 93.0068C62.6031 91.8527 62.5209 90.6559 62.5174 89.4779C62.49 82.0966 62.5739 74.7136 62.4712 67.3323C62.4267 64.0311 65.2861 61.8464 68.0667 62.6631C68.1061 62.6751 68.154 62.6614 68.3646 62.6511H68.3629ZM97.1878 75.8282C95.1709 75.4104 93.8234 76.0029 92.8457 77.6894C91.5342 79.9529 90.2277 82.2182 88.9196 84.4834C88.2416 85.658 87.7296 85.997 86.9489 85.7847C86.1065 85.557 85.8154 85.0091 85.8154 83.6479C85.8154 76.3573 85.8154 69.0684 85.8137 61.7779C85.8137 61.4611 85.8034 61.1392 85.7572 60.8259C85.6442 60.0794 85.074 59.6034 84.3446 59.6171C83.6443 59.6308 83.0998 60.0965 82.9903 60.8122C82.9423 61.1255 82.932 61.4457 82.932 61.7642C82.9286 66.1611 82.932 70.5581 82.9269 74.955C82.9269 75.2718 82.9166 75.5954 82.8601 75.907C82.7095 76.7494 81.8927 77.2391 81.0692 77.0045C80.3398 76.7956 80.0025 76.2734 80.0025 75.318C80.0008 70.808 80.0025 66.2964 80.0025 61.7864C80.0025 60.6478 80.0162 59.5075 79.9973 58.3689C79.9819 57.3775 79.458 56.7646 78.6361 56.7183C77.6927 56.667 77.1123 57.2868 77.1106 58.386C77.1054 63.5346 77.1106 68.6832 77.1054 73.8318C77.1054 74.9327 76.5353 75.6039 75.6415 75.6142C74.7477 75.6245 74.1673 74.9482 74.1416 73.866C74.1382 73.7068 74.1416 73.5476 74.1416 73.3883C74.1416 68.9914 74.1416 64.5945 74.1416 60.1975C74.1416 59.9475 74.1519 59.6941 74.1245 59.4459C74.0457 58.7267 73.467 58.1823 72.765 58.1412C72.1486 58.1052 71.5322 58.5538 71.3627 59.2079C71.2839 59.5109 71.2565 59.8345 71.2548 60.1496C71.248 65.1389 71.2514 70.1283 71.2497 75.1159C71.2497 75.3437 71.2617 75.5748 71.2308 75.7991C71.0956 76.7819 70.0717 77.3589 69.1848 76.9394C68.4639 76.597 68.3184 75.9481 68.3201 75.2238C68.3252 72.7634 68.3252 70.3029 68.3201 67.8425C68.3201 67.4333 68.315 67.0207 68.2568 66.6183C68.1574 65.9385 67.6198 65.4899 66.9418 65.4643C65.9573 65.4283 65.4368 66.0789 65.4368 67.3751C65.4333 74.7102 65.4248 82.0452 65.447 89.3803C65.4504 90.3991 65.5172 91.4367 65.7193 92.4332C66.9812 98.6639 72.426 103.066 78.494 103.292C84.3497 103.509 89.9144 99.9189 91.7448 94.3577C93.058 90.37 94.1401 86.3052 95.3215 82.2747C95.9465 80.1396 96.5629 78.0027 97.1947 75.8265L97.1878 75.8282Z" fill="#EF7B10"/>
</g>
<defs>
<linearGradient id="paint0_linear_888_7" x1="130.11" y1="21.0989" x2="33.4066" y2="146.813" gradientUnits="userSpaceOnUse">
<stop stop-color="#FBFBFB"/>
<stop offset="1" stop-color="#EFF1F3"/>
</linearGradient>
<linearGradient id="paint1_linear_888_7" x1="118.209" y1="35.0879" x2="44.4725" y2="130.945" gradientUnits="userSpaceOnUse">
<stop stop-color="#EEF0F2"/>
<stop offset="1" stop-color="#FDFEFE"/>
</linearGradient>
<clipPath id="clip0_888_7">
<rect width="70" height="70" fill="white" transform="translate(45 45)"/>
</clipPath>
</defs>
</svg>
