<svg width="160" height="160" viewBox="0 0 160 160" fill="none" xmlns="http://www.w3.org/2000/svg">
<circle cx="80" cy="80" r="80" fill="url(#paint0_linear_888_6)"/>
<circle cx="80" cy="80" r="61" fill="url(#paint1_linear_888_6)"/>
<g clip-path="url(#clip0_888_6)">
<path d="M82.6048 105.292C81.2182 106.297 79.8454 107.312 78.4496 108.295C78.1345 108.517 77.7528 108.732 77.3826 108.773C76.3041 108.894 75.6741 108.028 75.9316 106.823C76.3317 104.96 76.7502 103.1 77.1618 101.239C77.7528 98.5717 78.3461 95.9066 78.9325 93.2392C78.9785 93.0289 78.9762 92.8049 79.0061 92.4986C76.2167 93.1866 73.5056 93.198 70.6634 92.4758C71.0038 94.046 71.3142 95.5043 71.6338 96.9625C72.3444 100.185 73.0595 103.408 73.7724 106.631C73.9402 107.388 73.9954 108.13 73.2044 108.601C72.4731 109.036 71.8615 108.727 71.2406 108.274C63.8431 102.88 56.4341 97.4974 49.0296 92.1123C47.6085 91.0792 47.6568 90.0941 49.1676 89.157C50.5749 88.2815 51.9845 87.413 53.5413 86.4484C52.7088 85.8519 51.9753 85.2896 51.205 84.7867C50.4139 84.2725 49.5332 83.8839 48.7951 83.3102C48.418 83.0199 48.0247 82.4119 48.0776 82.0028C48.1374 81.5479 48.6088 80.9651 49.048 80.7685C52.9112 79.0474 56.8135 77.4109 60.6858 75.7126C60.9388 75.6006 61.2009 75.2029 61.2193 74.924C61.2768 74.0738 61.5137 73.0201 61.1136 72.4212C60.7548 71.8864 59.6166 71.9092 58.8646 71.5869C56.9537 70.7664 55.029 69.9618 53.1894 68.9973C52.4375 68.6041 51.7867 67.8933 51.2808 67.1916C50.1656 65.6488 50.5979 63.8842 52.2696 62.7597C53.7505 61.7631 55.466 61.3928 57.1768 61.05C58.2139 60.842 59.2647 60.6728 60.3156 60.5677C60.8146 60.5174 61.0078 60.3208 61.1044 59.8683C61.831 56.4763 62.7301 53.1118 63.2659 49.6924C63.942 45.3885 67.2877 44.2777 70.6634 45.6559C70.9693 45.7816 71.2222 46.0468 71.4912 46.2571C73.4619 47.7953 76.4191 47.7656 78.3415 46.1816C81.3378 43.7131 85.6332 45.3176 86.3737 49.1302C87.0543 52.6478 87.8477 56.1426 88.5766 59.6511C88.7008 60.2454 88.9583 60.4991 89.6206 60.6043C91.5085 60.9037 93.3964 61.2648 95.2429 61.7517C96.1328 61.9848 97.0043 62.4557 97.7563 62.9974C99.267 64.0876 99.5637 65.8202 98.3909 67.2624C97.6528 68.1699 96.7077 69.0453 95.6683 69.5436C93.5896 70.5378 91.3935 71.2898 89.2205 72.0738C88.71 72.2567 88.4777 72.4121 88.4731 72.9858C88.4547 75.452 88.4295 75.4657 90.7428 76.4646C94.0747 77.9046 97.4251 79.2988 100.736 80.7799C101.15 80.9651 101.615 81.5457 101.631 81.9616C101.649 82.4211 101.293 83.0519 100.9 83.3422C99.9155 84.0713 98.8117 84.6336 97.7747 85.2942C97.2711 85.6142 96.8158 86.005 96.1374 86.517C97.9356 87.5067 99.497 88.7181 101.265 89.2781C107.789 91.3421 112.14 97.1043 111.993 103.847C111.841 110.805 106.343 116.967 99.4855 117.863C91.2004 118.946 84.1432 113.737 82.7359 105.502C82.729 105.454 82.6807 105.415 82.6002 105.296L82.6048 105.292ZM97.255 115.189C103.737 115.221 109.07 110.009 109.116 103.598C109.162 97.0151 103.956 91.6826 97.4481 91.6483C90.7474 91.6118 85.4884 96.7866 85.4585 103.447C85.4286 109.906 90.7037 115.157 97.255 115.189ZM64.188 72.9218C64.1558 73.1915 64.1213 73.3561 64.1213 73.5206C64.1236 75.8017 64.1121 78.0806 64.1443 80.3617C64.1719 82.3571 64.8158 84.1719 65.9862 85.7764C68.334 88.9992 71.5786 90.2838 75.5223 90.1512C79.8546 90.0072 83.6396 87.3467 85.0446 83.2713C86.2035 79.9114 85.4286 76.4394 85.7091 72.8989C78.4565 74.1766 71.3372 74.1698 64.188 72.9218ZM96.2915 65.6419C96.2708 65.5002 96.2501 65.3585 96.2294 65.219C95.4775 64.9082 94.7462 64.5173 93.9667 64.2956C90.4415 63.3014 86.8037 63.0797 83.1728 62.9151C76.0949 62.5974 69.0101 62.5539 61.9552 63.2739C59.5821 63.5162 57.2412 64.1196 54.9003 64.6179C54.4105 64.7208 53.9759 65.0819 53.516 65.3219C53.4953 65.4293 53.4746 65.539 53.4539 65.6465C54.284 66.2179 55.0658 66.8807 55.9535 67.3424C59.29 69.0818 62.9233 69.8864 66.6094 70.4213C72.4317 71.2692 78.261 71.2327 84.0719 70.2704C87.4683 69.7081 90.8048 68.9218 93.8747 67.3082C94.737 66.8556 95.4912 66.1996 96.2961 65.6373L96.2915 65.6419ZM85.6608 60.0328C85.6539 60.0603 85.6884 60.0031 85.6792 59.9551C84.9733 56.5038 84.2811 53.0478 83.5476 49.601C83.2004 47.9645 81.4987 47.2902 80.188 48.3759C77.2653 50.7941 72.5306 50.8307 69.5367 48.3576C68.2029 47.2536 66.5128 48.0056 66.1932 49.7176C65.9218 51.1713 65.708 52.6364 65.4113 54.0855C64.9951 56.1083 64.526 58.1174 64.1006 60.0351H85.6608V60.0328ZM52.7847 82.3296C52.9664 82.4805 53.0929 82.5879 53.2193 82.6953C54.1759 83.5045 55.2153 84.2359 56.0684 85.141C57.0434 86.1741 57.1653 87.7261 55.4683 88.6107C54.2955 89.221 53.2101 89.9935 51.996 90.7501C58.1012 95.1889 64.0914 99.5454 70.1575 103.954C70.1736 103.724 70.1989 103.637 70.1805 103.559C69.3113 99.5888 68.4513 95.614 67.543 91.6529C67.4533 91.2644 67.1383 90.8484 66.8094 90.6061C64.0776 88.5878 62.2449 85.9822 61.5758 82.6496C61.3159 81.3582 61.2653 80.028 61.1136 78.6497C58.3587 79.868 55.6039 81.0862 52.7847 82.3319V82.3296ZM79.4729 104.048C80.5306 103.278 81.4458 102.642 82.3196 101.952C82.5358 101.781 82.6968 101.456 82.7497 101.177C83.95 95.0312 87.5648 91.0678 93.5896 89.2712C93.9506 89.1638 94.3162 89.077 94.8152 88.9467C94.514 88.7478 94.3507 88.6381 94.1874 88.5353C92.8445 87.6827 92.5916 86.5879 93.539 85.3102C93.9759 84.7227 94.5438 84.2199 95.1026 83.7399C95.6752 83.2462 96.3122 82.8256 96.9767 82.3342C94.1299 81.0748 91.3728 79.8565 88.5421 78.6063C88.5145 78.8645 88.4869 78.9994 88.4892 79.132C88.5927 84.0256 86.6956 87.9227 82.6692 90.7775C82.4806 90.9124 82.3036 91.1569 82.253 91.3809C81.3263 95.5431 80.4202 99.7099 79.4706 104.05L79.4729 104.048Z" fill="black"/>
<g clip-path="url(#clip1_888_6)">
<path d="M93.6829 109.978C93.1834 109.978 92.7042 109.778 92.3512 109.42L88.3248 105.355C87.8917 104.917 87.8917 104.207 88.3248 103.769C88.7583 103.332 89.4606 103.332 89.8941 103.769L93.6829 107.597L103.706 97.471C104.139 97.0335 104.842 97.0335 105.275 97.471C105.708 97.9089 105.708 98.6184 105.275 99.0563L95.0146 109.42C94.6615 109.778 94.1823 109.978 93.6829 109.978Z" fill="#EF7B10"/>
</g>
</g>
<defs>
<linearGradient id="paint0_linear_888_6" x1="130.11" y1="21.0989" x2="33.4066" y2="146.813" gradientUnits="userSpaceOnUse">
<stop stop-color="#FBFBFB"/>
<stop offset="1" stop-color="#EFF1F3"/>
</linearGradient>
<linearGradient id="paint1_linear_888_6" x1="118.209" y1="35.0879" x2="44.4725" y2="130.945" gradientUnits="userSpaceOnUse">
<stop stop-color="#EEF0F2"/>
<stop offset="1" stop-color="#FDFEFE"/>
</linearGradient>
<clipPath id="clip0_888_6">
<rect width="64" height="73" fill="white" transform="translate(48 45)"/>
</clipPath>
<clipPath id="clip1_888_6">
<rect width="17.6" height="12.8352" fill="white" transform="translate(88 97.1429)"/>
</clipPath>
</defs>
</svg>
