<svg width="160" height="160" viewBox="0 0 160 160" fill="none" xmlns="http://www.w3.org/2000/svg">
<circle cx="80" cy="80" r="80" fill="url(#paint0_linear_888_17)"/>
<circle cx="80" cy="80" r="61" fill="url(#paint1_linear_888_17)"/>
<g clip-path="url(#clip0_888_17)">
<path d="M44.9999 92.013C45.4948 90.7343 46.2563 89.7299 47.6715 89.3521C47.7902 89.3212 47.8907 88.9906 47.8943 88.7981C47.9126 87.3705 47.8998 85.9429 47.9071 84.5153C47.9126 83.4237 48.3052 83.0314 49.3863 83.0296C51.4827 83.0259 53.5773 83.0296 55.6737 83.0296C55.9184 83.0296 56.1631 83.0296 56.4571 83.0296C56.6781 79.515 57.551 76.2421 59.1854 73.178C60.8198 70.1121 63.0422 67.5384 65.8289 65.3606C65.3943 64.7177 64.9707 64.1074 64.5634 63.488C64.0923 62.7706 64.1836 62.0877 64.7862 61.7044C65.3615 61.3376 66.0189 61.5137 66.4827 62.1767C66.8991 62.7706 67.3008 63.3736 67.7227 63.9912C75.3468 59.6938 83.1646 59.2198 90.9312 63.2774C98.7088 67.3422 102.735 74.0353 103.577 82.8134C104.156 82.8134 104.783 82.8043 105.409 82.8171C105.818 82.8243 106.238 82.808 106.631 82.897C107.213 83.0296 107.504 83.4564 107.474 84.0503C107.447 84.6134 107.135 85.062 106.576 85.082C105.098 85.1365 103.617 85.1401 102.14 85.082C101.521 85.0584 101.209 84.5316 101.203 83.7143C101.189 81.4512 100.791 79.2553 100.058 77.1175C96.9393 68.0179 87.7738 62.0895 78.1536 62.9468C68.5956 63.7986 60.5769 71.2582 59.0758 80.7211C58.9133 81.7454 58.8567 82.7916 58.7983 83.8287C58.7362 84.9512 58.3709 85.3417 57.2533 85.3435C54.9542 85.3472 52.6551 85.3435 50.2975 85.3435V89.2813H51.1138C57.0598 89.2813 63.0057 89.2722 68.9517 89.2994C69.3662 89.2994 69.8885 89.4447 70.1715 89.7172C70.8162 90.3347 70.3742 91.4172 69.463 91.5752C69.2183 91.617 68.9626 91.5988 68.7124 91.5988C62.1292 91.5988 55.5441 91.5988 48.9608 91.5988C47.6825 91.5988 47.33 91.9439 47.3282 93.199C47.3282 93.8111 47.3246 94.4232 47.3282 95.0335C47.3337 96.1142 47.7245 96.5119 48.8092 96.5119C55.4619 96.5156 62.1127 96.5119 68.7654 96.5137C68.9937 96.5137 69.2238 96.4992 69.4484 96.5246C70.0948 96.6009 70.5587 97.1095 70.5422 97.707C70.5258 98.3173 70.0583 98.7768 69.3918 98.8223C69.1653 98.8386 68.9371 98.8313 68.7088 98.8313C62.2844 98.8313 55.86 98.7805 49.4356 98.8604C47.2533 98.8876 45.7376 98.1865 44.998 96.0887V92.0093L44.9999 92.013Z" fill="black"/>
<path d="M109.625 89.2831C110.6 77.9839 107.629 68.2885 98.6623 60.9053C98.3647 60.6601 98.0524 60.4349 97.6872 60.1552C97.227 60.8345 96.7887 61.4865 96.3431 62.1331C95.8227 62.8869 95.1634 63.0812 94.5608 62.6653C93.9563 62.2493 93.907 61.5937 94.4257 60.8163C94.8512 60.177 95.284 59.5413 95.7807 58.8057C94.7471 58.2571 93.7719 57.6832 92.7511 57.2037C75.6857 49.1975 56.5221 58.7039 51.4436 75.8879C51.2701 76.4728 51.1404 77.0721 50.9888 77.6624C50.7734 78.4997 50.2164 78.9266 49.5498 78.7704C48.8285 78.6014 48.5108 77.9912 48.7153 77.1066C49.6777 72.9564 51.3559 69.1149 53.8596 65.6549C58.9856 58.5732 65.8318 54.0306 74.4841 52.5285C84.3106 50.823 93.1601 53.2551 100.797 59.652C106.791 64.6741 110.37 71.1383 111.65 78.823C111.938 80.5576 111.98 82.3376 112.072 84.0994C112.134 85.2963 112.127 86.5023 112.072 87.7011C112.026 88.6692 112.063 89.3684 113.231 89.8007C114.404 90.2348 114.939 91.3863 114.981 92.6578C115.012 93.5859 115.008 94.5158 114.981 95.444C114.932 97.3202 113.467 98.8114 111.568 98.8186C104.437 98.8422 97.3073 98.8332 90.1762 98.8277C89.3563 98.8277 88.8669 98.3664 88.876 97.6653C88.8851 96.9569 89.4038 96.5174 90.2766 96.5156C97.1338 96.5119 103.991 96.5137 110.848 96.5137C112.382 96.5137 112.66 96.234 112.66 94.6811C112.66 94.1834 112.66 93.684 112.66 93.1863C112.656 91.9639 112.296 91.5989 111.082 91.5989C104.658 91.5989 98.2332 91.5989 91.8088 91.5989C91.5586 91.5989 91.3029 91.6116 91.0601 91.5643C90.4885 91.4535 90.0977 90.9486 90.116 90.3946C90.136 89.8025 90.5816 89.3448 91.2025 89.2903C91.4052 89.2722 91.6116 89.2831 91.8179 89.2831C97.4899 89.2831 103.164 89.2831 108.836 89.2831H109.623H109.625Z" fill="black"/>
<path d="M79.3696 101C77.0924 100.873 74.9156 99.6142 73.6921 97.0205C72.4722 94.4377 72.7553 91.9113 74.5668 89.6917C76.3747 87.4759 78.7834 86.7185 81.5993 87.2815C81.7983 87.3215 81.9974 87.3814 82.1873 87.4577C82.8082 87.7102 83.0967 88.2914 82.9068 88.8799C82.7096 89.4847 82.1691 89.748 81.5062 89.6772C80.6807 89.5882 79.8151 89.412 79.0226 89.5646C76.4642 90.0532 74.8864 92.5379 75.4379 95.0153C76.0003 97.54 78.4565 99.1365 80.9401 98.5952C83.5149 98.034 85.0599 95.6383 84.5558 93.0682C84.4755 92.6559 84.523 92.1601 84.6782 91.7714C86.8805 86.2898 89.1157 80.8228 91.3363 75.3485C91.6048 74.6873 91.4477 74.2314 90.9145 73.9644C90.2954 73.6557 89.8827 73.9354 89.5303 74.4367C87.4704 77.37 85.4032 80.2979 83.3396 83.2275C83.2081 83.4128 83.0858 83.6053 82.9306 83.7706C82.5124 84.2174 81.8495 84.2846 81.3838 83.945C80.9108 83.5999 80.7848 82.9769 81.077 82.4247C81.119 82.3448 81.1683 82.2685 81.2213 82.1941C83.4035 79.0973 85.573 75.9914 87.7753 72.9092C88.5679 71.8012 89.68 71.3054 91.0496 71.5851C92.4412 71.8703 93.4474 72.6821 93.6921 74.0898C93.8162 74.8018 93.6994 75.6427 93.4273 76.322C91.3582 81.4912 89.218 86.6313 87.1271 91.7932C86.9609 92.2037 86.9006 92.7104 86.9572 93.1518C87.4978 97.322 84.1888 101.049 79.3714 101.002L79.3696 101Z" fill="#EF7B10"/>
</g>
<defs>
<linearGradient id="paint0_linear_888_17" x1="130.11" y1="21.0989" x2="33.4066" y2="146.813" gradientUnits="userSpaceOnUse">
<stop stop-color="#FBFBFB"/>
<stop offset="1" stop-color="#EFF1F3"/>
</linearGradient>
<linearGradient id="paint1_linear_888_17" x1="118.209" y1="35.0879" x2="44.4725" y2="130.945" gradientUnits="userSpaceOnUse">
<stop stop-color="#EEF0F2"/>
<stop offset="1" stop-color="#FDFEFE"/>
</linearGradient>
<clipPath id="clip0_888_17">
<rect width="70" height="49" fill="white" transform="translate(45 52)"/>
</clipPath>
</defs>
</svg>
