<svg width="10" height="7" viewBox="0 0 10 7" fill="none" xmlns="http://www.w3.org/2000/svg">
<g clip-path="url(#clip0_281_9387)">
<path d="M8.40709 3.06652C8.41333 3.05423 8.41958 3.04166 8.4261 3.02936C8.39488 3.00696 8.35998 2.98811 8.33273 2.96188C7.58972 2.24767 6.84728 1.53264 6.10483 0.817341C6.06964 0.783461 6.03388 0.749854 6.00294 0.712969C5.87097 0.555865 5.86643 0.344936 5.98904 0.181275C6.16017 -0.046867 6.48003 -0.0618944 6.70111 0.150947C7.73758 1.14767 8.7732 2.14548 9.8091 3.14302C10.064 3.38865 10.0637 3.62281 9.80797 3.86898C8.78711 4.85204 7.76625 5.8351 6.7451 6.81816C6.72013 6.8422 6.69544 6.86707 6.66876 6.88975C6.42071 7.09931 6.03473 6.99794 5.93597 6.69466C5.8741 6.50505 5.93994 6.3504 6.08269 6.21324C6.83677 5.49029 7.5883 4.76488 8.34096 4.04029C8.36679 4.01543 8.39176 3.98974 8.43689 3.94466C8.36395 3.94466 8.32251 3.94466 8.28108 3.94466C5.71261 3.94466 3.14442 3.94466 0.575954 3.94466C0.519193 3.94466 0.462148 3.94439 0.405953 3.93865C0.185434 3.91625 0.0174189 3.74576 0.000957489 3.53046C-0.0140839 3.33455 0.132929 3.13237 0.335284 3.08455C0.40652 3.06761 0.482864 3.06761 0.556939 3.06761C3.1325 3.06679 5.70778 3.06707 8.28335 3.06707C8.3245 3.06707 8.36594 3.06707 8.40709 3.06707V3.06652Z" fill="white"/>
</g>
<defs>
<clipPath id="clip0_281_9387">
<rect width="10" height="7" fill="white" transform="matrix(-1 0 0 1 10 0)"/>
</clipPath>
</defs>
</svg>
