<svg width="9" height="8" viewBox="0 0 9 8" fill="none" xmlns="http://www.w3.org/2000/svg">
<path d="M4.92487 1.00136e-05C5.0727 0.000641346 5.21438 0.060153 5.31934 0.165715L7.90597 2.78842C8.22256 3.10983 8.40039 3.54552 8.40039 3.99978C8.40039 4.45404 8.22256 4.88973 7.90597 5.21114L5.31934 7.83384C5.21375 7.94027 5.07093 8 4.92205 8C4.77317 8 4.63034 7.94027 4.52476 7.83384C4.47194 7.78072 4.43001 7.71753 4.4014 7.6479C4.37279 7.57827 4.35806 7.50358 4.35806 7.42815C4.35806 7.35272 4.37279 7.27804 4.4014 7.20841C4.43001 7.13878 4.47194 7.07558 4.52476 7.02246L7.11138 4.40547C7.1642 4.35235 7.20613 4.28915 7.23474 4.21952C7.26335 4.14989 7.27808 4.07521 7.27808 3.99978C7.27808 3.92435 7.26335 3.84966 7.23474 3.78003C7.20613 3.7104 7.1642 3.64721 7.11138 3.59409L4.52476 0.977096C4.47194 0.923977 4.43001 0.860781 4.4014 0.791151C4.37279 0.721521 4.35806 0.646836 4.35806 0.571405C4.35806 0.495975 4.37279 0.42129 4.4014 0.35166C4.43001 0.28203 4.47194 0.218834 4.52476 0.165715C4.57741 0.112757 4.63986 0.070859 4.70852 0.0424237C4.77718 0.0139885 4.8507 -0.000424385 4.92487 1.00136e-05Z" fill="#D2D2D2"/>
<path d="M0.896451 1.00136e-05C1.04792 0.000641346 1.19306 0.060153 1.3006 0.165715L4.76476 3.59409C4.81888 3.64721 4.86183 3.7104 4.89114 3.78003C4.92046 3.84966 4.93555 3.92435 4.93555 3.99978C4.93555 4.07521 4.92046 4.14989 4.89114 4.21952C4.86183 4.28915 4.81888 4.35235 4.76476 4.40547L1.3006 7.83384C1.19243 7.94027 1.04609 8 0.893564 8C0.741033 8 0.5947 7.94027 0.486525 7.83384C0.43241 7.78072 0.389457 7.71753 0.360146 7.6479C0.330834 7.57827 0.315743 7.50358 0.315743 7.42815C0.315743 7.35272 0.330834 7.27804 0.360146 7.20841C0.389457 7.13878 0.43241 7.07558 0.486525 7.02246L3.54076 3.99978L0.486525 0.977096C0.43241 0.923977 0.389457 0.860781 0.360146 0.791151C0.330834 0.721521 0.315743 0.646836 0.315743 0.571405C0.315743 0.495975 0.330834 0.42129 0.360146 0.35166C0.389457 0.28203 0.43241 0.218834 0.486525 0.165715C0.540473 0.112757 0.604454 0.070859 0.674798 0.0424237C0.745142 0.0139885 0.820467 -0.000424385 0.896451 1.00136e-05Z" fill="#D2D2D2"/>
</svg>
