<svg width="160" height="160" viewBox="0 0 160 160" fill="none" xmlns="http://www.w3.org/2000/svg">
<circle cx="80" cy="80" r="80" fill="url(#paint0_linear_888_14)"/>
<circle cx="80" cy="80" r="61" fill="url(#paint1_linear_888_14)"/>
<g clip-path="url(#clip0_888_14)">
<path d="M54.9059 120C53.9522 119.752 52.9707 119.577 52.0507 119.241C46.7993 117.323 43.5288 112.18 44.0554 106.742C44.5839 101.287 48.826 96.8606 54.3893 95.9565C54.6834 95.9095 54.9755 95.8528 55.351 95.7862V94.9428C55.351 86.4474 55.351 77.9521 55.351 69.4568C55.351 69.2865 55.351 69.1143 55.351 68.9441C55.3629 68.1025 55.7941 67.5859 56.4756 67.5937C57.1551 67.6016 57.5823 68.1202 57.5823 68.9656C57.5843 77.6077 57.5823 86.2498 57.5823 94.8919C57.5823 95.1835 57.5823 95.4731 57.5823 95.8156C61.3614 96.3362 64.4034 98.0368 66.5393 101.143C68.6832 104.258 69.1124 107.669 68.1686 111.333H101.503V52.3663H57.5843C57.5843 52.6012 57.5843 52.8556 57.5843 53.11C57.5843 56.5269 57.5783 59.9458 57.5883 63.3627C57.5883 63.9928 57.3995 64.4704 56.7339 64.6406C55.9868 64.8304 55.3689 64.3471 55.359 63.5349C55.3411 61.9732 55.353 60.4096 55.353 58.8479C55.353 56.748 55.349 54.6482 55.353 52.5503C55.357 51.0532 56.2928 50.1353 57.8068 50.1275C58.697 50.1236 59.5851 50.1275 60.5667 50.1275C60.5667 49.1784 60.5607 48.284 60.5667 47.3897C60.5806 45.9415 61.5204 45.0021 62.9828 45.0021C77.5111 45.0002 92.0394 45.0002 106.566 45.0021C108.036 45.0021 108.994 45.9356 108.996 47.374C109 57.5543 109 67.7346 108.996 77.9149C108.996 78.7545 108.561 79.2672 107.875 79.2614C107.192 79.2555 106.768 78.7447 106.768 77.8993C106.768 67.9871 106.768 58.0768 106.768 48.1646C106.768 47.875 106.768 47.5854 106.768 47.2449H62.8437V50.1275H63.6881C76.154 50.1275 88.6219 50.1275 101.088 50.1275C102.918 50.1275 103.78 50.969 103.78 52.7558C103.78 70.2357 103.78 87.7136 103.78 105.194C103.78 105.509 103.78 105.824 103.78 106.197H106.764V105.348C106.764 98.0975 106.768 90.8468 106.759 83.5961C106.759 82.919 106.902 82.3691 107.659 82.2105C108.358 82.0638 108.934 82.5178 108.992 83.2282C109.006 83.3984 108.996 83.5707 108.996 83.7409C108.996 91.1129 108.996 98.4869 108.996 105.859C108.996 107.626 108.116 108.491 106.294 108.509C105.481 108.517 104.668 108.509 103.78 108.509C103.78 109.487 103.788 110.385 103.78 111.282C103.768 112.552 102.956 113.446 101.67 113.599C101.326 113.64 100.977 113.634 100.629 113.634C89.7763 113.634 78.9238 113.642 68.0712 113.62C67.4235 113.62 67.0778 113.812 66.7201 114.358C64.7034 117.429 61.8522 119.29 58.1585 119.865C58.0155 119.887 57.8784 119.953 57.7373 119.998H54.9059V120ZM56.3345 98.0172C50.8049 98.0172 46.2748 102.444 46.2609 107.863C46.247 113.307 50.801 117.802 56.3345 117.804C61.8423 117.806 66.3844 113.352 66.3903 107.937C66.3983 102.446 61.9078 98.0172 56.3345 98.0172Z" fill="black"/>
<path d="M76.9113 97.8859C76.4941 97.5513 76.1464 97.2831 75.8106 97.0013C75.3119 96.5825 75.1013 96.0659 75.3298 95.4357C75.5543 94.8154 76.0292 94.4298 76.6868 94.5179C77.8631 94.6745 78.4651 94.197 79.1109 93.2087C82.586 87.9052 90.6568 88.2359 93.7485 93.7723C94.0823 94.3692 94.432 94.5786 95.0618 94.5003C95.2804 94.4729 95.5089 94.5003 95.7314 94.5062C96.3454 94.5277 96.7547 94.8447 96.9752 95.3907C97.1998 95.9446 97.0786 96.4553 96.6573 96.8702C96.3116 97.2107 95.9281 97.5141 95.493 97.8918C95.8665 98.2088 96.2043 98.4847 96.5302 98.7705C97.0189 99.199 97.2196 99.7274 96.9872 100.348C96.7567 100.96 96.2758 101.342 95.6162 101.254C94.5373 101.111 94.0167 101.573 93.4445 102.465C89.9654 107.89 81.7773 107.557 78.6797 101.906C78.4194 101.43 78.1492 101.203 77.6008 101.268C77.2591 101.307 76.9074 101.275 76.5597 101.258C75.9497 101.226 75.5424 100.904 75.3337 100.352C75.1211 99.792 75.2543 99.2852 75.6894 98.882C76.047 98.5493 76.4484 98.2597 76.9113 97.8859ZM79.2341 99.0034H93.2855C92.5663 98.2166 92.6557 97.4867 93.2597 96.7508H79.1923C79.8639 97.5336 79.8043 98.2695 79.236 99.0034H79.2341ZM91.5291 101.346H80.9368C82.3595 103.238 84.1556 104.178 86.4128 104.119C88.5348 104.064 90.2336 103.148 91.5291 101.346ZM80.9428 94.4377H91.537C90.2138 92.5864 88.4832 91.6744 86.3194 91.6509C84.0901 91.6255 82.3138 92.5492 80.9428 94.4377Z" fill="black"/>
<path d="M79.1508 84.5216C84.1419 84.5216 89.1331 84.5216 94.1242 84.5216C94.3726 84.5216 94.6229 84.5137 94.8693 84.5372C95.4693 84.5959 95.823 84.9286 95.8786 85.5177C95.9382 86.1498 95.5945 86.5373 94.9984 86.6958C94.766 86.7584 94.5057 86.733 94.2573 86.733C84.1757 86.733 74.0941 86.733 64.0125 86.733C63.8138 86.733 63.6131 86.7467 63.4164 86.7252C62.7786 86.6547 62.3593 86.2046 62.3613 85.6116C62.3613 85.0108 62.7786 84.5862 63.4343 84.5314C63.6806 84.5118 63.931 84.5196 64.1794 84.5196C69.1705 84.5196 74.1616 84.5196 79.1528 84.5196L79.1508 84.5216Z" fill="black"/>
<path d="M75.6233 69.7756C79.5434 69.7756 83.4656 69.7756 87.3858 69.7756C87.6083 69.7756 87.8348 69.7599 88.0554 69.7873C88.6773 69.8656 89.1462 70.3529 89.1005 70.9185C89.0528 71.5232 88.725 71.9146 88.0792 71.9811C87.8329 72.0065 87.5845 72.0124 87.3361 72.0124C79.4938 72.0124 71.6514 72.0124 63.809 72.0124C62.5851 72.0124 62.0685 71.6817 62.0626 70.9067C62.0566 70.12 62.5811 69.7756 63.7832 69.7756C67.7292 69.7756 71.6753 69.7756 75.6213 69.7756H75.6233Z" fill="black"/>
<path d="M75.5773 81.8092C71.6571 81.8092 67.735 81.8092 63.8148 81.8092C63.5426 81.8092 63.2048 81.8894 63.0121 81.7642C62.6544 81.5313 62.2411 81.224 62.106 80.8581C61.9232 80.361 62.2272 79.8952 62.7637 79.7113C63.0578 79.6095 63.3936 79.5919 63.7095 79.5919C71.6254 79.586 79.5432 79.586 87.4591 79.5899C87.7293 79.5899 88.0134 79.5802 88.2678 79.6545C88.834 79.8189 89.148 80.226 89.0923 80.8052C89.0387 81.3747 88.6969 81.7426 88.083 81.7935C87.8366 81.8131 87.5882 81.8111 87.3399 81.8111C83.4197 81.8111 79.4975 81.8111 75.5773 81.8111V81.8092Z" fill="#1D1E20"/>
<path d="M75.5876 74.7072C79.5078 74.7072 83.4299 74.7072 87.3501 74.7072C87.5985 74.7072 87.8469 74.7033 88.0932 74.7248C88.7072 74.7777 89.047 75.1534 89.0927 75.7209C89.1423 76.3354 88.7887 76.7386 88.1886 76.8893C87.9542 76.948 87.6959 76.9206 87.4475 76.9206C79.5316 76.9206 71.6137 76.9206 63.6979 76.9206C63.4992 76.9206 63.2985 76.9343 63.1038 76.9108C62.4739 76.8364 62.0547 76.3726 62.0646 75.7816C62.0746 75.1886 62.4998 74.7463 63.1554 74.7209C63.9482 74.6896 64.743 74.7072 65.5378 74.7072C68.8877 74.7072 72.2376 74.7072 75.5876 74.7072Z" fill="black"/>
<path d="M73.3829 67.255C70.6172 67.2648 68.3461 65.0671 68.3282 62.3684C68.3103 59.6227 70.5794 57.3721 73.3591 57.38C76.115 57.3858 78.3721 59.5992 78.384 62.3096C78.3959 65.0044 76.1289 67.2472 73.3829 67.2569V67.255ZM76.0951 62.337C76.101 60.8204 74.9308 59.6383 73.4048 59.6227C71.8431 59.607 70.5913 60.7949 70.5774 62.3038C70.5655 63.7833 71.8669 65.0631 73.371 65.0475C74.8771 65.0318 76.0891 63.8283 76.0951 62.337Z" fill="#EF7B10"/>
<path d="M91.6165 62.341C91.6165 63.478 91.6244 64.617 91.6125 65.754C91.6085 66.0436 91.6145 66.3626 91.4973 66.6151C91.2668 67.1004 90.8277 67.3548 90.2753 67.2295C89.6276 67.0847 89.3514 66.6209 89.3514 65.9869C89.3514 63.8635 89.3514 61.7382 89.3514 59.6149C89.3514 59.2724 89.3454 58.9319 89.3554 58.5894C89.3713 58.0532 89.6037 57.6305 90.1422 57.47C90.7005 57.3037 91.1595 57.4817 91.4973 57.969C92.4073 59.2783 93.3272 60.5816 94.2452 61.885C94.3942 62.0963 94.5551 62.296 94.8452 62.6776C94.8452 61.2842 94.8412 60.1002 94.8452 58.9162C94.8492 58.0082 95.2704 57.5052 95.9936 57.5287C96.6811 57.5522 97.0765 58.0493 97.0785 58.9123C97.0825 61.1589 97.0725 63.4036 97.0845 65.6503C97.0884 66.3176 96.9315 66.8832 96.2221 67.0984C95.5168 67.3137 95.0479 66.9517 94.6644 66.3978C93.7186 65.0299 92.755 63.6737 91.7973 62.3116C91.7397 62.3214 91.68 62.3312 91.6224 62.341H91.6165Z" fill="#EF7B10"/>
<path d="M88.1354 66.3215C87.9268 66.5524 87.7022 67.0143 87.3585 67.1278C87.0148 67.2413 86.5478 67.026 86.1485 66.9106C86.0412 66.8793 85.9299 66.6894 85.912 66.5583C85.7372 65.3743 84.9364 65.2178 83.935 65.3645C83.79 65.3861 83.633 65.39 83.49 65.3645C82.6257 65.206 82.1329 65.4996 81.8865 66.3783C81.6719 67.1434 81.0222 67.4233 80.4043 67.1885C79.7764 66.9497 79.5221 66.3391 79.7983 65.6189C80.7301 63.1864 81.6819 60.7617 82.6177 58.3291C82.8442 57.7401 83.2555 57.3937 83.8933 57.3917C84.4993 57.3917 84.9186 57.7185 85.1331 58.2743C86.0789 60.7284 87.0207 63.1825 87.9605 65.6405C88.0201 65.799 88.046 65.9692 88.1374 66.3215H88.1354ZM84.5828 63.1492C84.3404 62.5249 84.1337 61.9946 83.8715 61.3253C83.6171 62.0083 83.4145 62.5543 83.1919 63.1492H84.5828Z" fill="#EF7B10"/>
<path d="M69.4331 91.6235C67.5475 91.6235 65.6619 91.6294 63.7763 91.6216C62.8305 91.6177 62.3477 91.2243 62.3616 90.5022C62.3755 89.7898 62.8742 89.4023 63.8141 89.4023C67.6349 89.3984 71.4557 89.3984 75.2766 89.4023C76.1985 89.4023 76.6972 89.8172 76.6873 90.5413C76.6774 91.2517 76.2303 91.6177 75.3123 91.6216C73.3532 91.6314 71.3922 91.6235 69.4331 91.6235Z" fill="black"/>
<path d="M64.2943 65.0573C64.8984 65.0573 65.413 65.0377 65.9276 65.0632C66.5932 65.0945 67.0045 65.5113 67.0204 66.118C67.0363 66.7364 66.5912 67.2276 65.9176 67.2491C65.0017 67.2785 64.0837 67.2785 63.1678 67.2491C62.4902 67.2256 62.073 66.7951 62.071 66.116C62.0571 63.5837 62.0571 61.0513 62.071 58.517C62.075 57.8477 62.5558 57.3898 63.1797 57.3898C63.8314 57.3898 64.2884 57.8575 64.2924 58.5855C64.3023 60.703 64.2963 62.8204 64.2963 65.0592L64.2943 65.0573Z" fill="#EF7B10"/>
<path d="M54.8115 106.9C56.1805 105.538 57.4462 104.229 58.7675 102.976C60.4822 101.352 63.1963 101.988 63.8798 104.162C64.2176 105.238 64.0368 106.268 63.2222 107.084C61.3286 108.984 59.4311 110.882 57.476 112.722C55.964 114.143 53.6889 114.109 52.1451 112.704C51.2351 111.876 50.3569 111.01 49.5124 110.117C48.3064 108.843 48.3501 106.996 49.5681 105.843C50.7582 104.716 52.6061 104.733 53.8638 105.898C54.1857 106.195 54.4678 106.534 54.8115 106.9ZM54.9089 111.685C55.3917 111.375 55.8904 111.154 56.26 110.8C57.9489 109.186 59.602 107.536 61.2651 105.896C61.3863 105.777 61.577 105.655 61.5969 105.516C61.6406 105.207 61.722 104.757 61.5571 104.602C61.3485 104.409 60.9034 104.385 60.5756 104.422C60.3749 104.446 60.1921 104.71 60.0173 104.88C58.7516 106.119 57.4979 107.368 56.2262 108.599C55.2785 109.514 54.3824 109.512 53.4346 108.62C53.0948 108.299 52.761 107.972 52.4352 107.638C52.0497 107.24 51.6126 107.025 51.1477 107.458C50.6788 107.894 50.8814 108.344 51.2689 108.73C52.0358 109.493 52.7849 110.276 53.5956 110.992C53.9234 111.282 54.3903 111.419 54.9049 111.683L54.9089 111.685Z" fill="#EF7B10"/>
</g>
<defs>
<linearGradient id="paint0_linear_888_14" x1="130.11" y1="21.0989" x2="33.4066" y2="146.813" gradientUnits="userSpaceOnUse">
<stop stop-color="#FBFBFB"/>
<stop offset="1" stop-color="#EFF1F3"/>
</linearGradient>
<linearGradient id="paint1_linear_888_14" x1="118.209" y1="35.0879" x2="44.4725" y2="130.945" gradientUnits="userSpaceOnUse">
<stop stop-color="#EEF0F2"/>
<stop offset="1" stop-color="#FDFEFE"/>
</linearGradient>
<clipPath id="clip0_888_14">
<rect width="65" height="75" fill="white" transform="translate(44 45)"/>
</clipPath>
</defs>
</svg>
