<svg width="160" height="160" viewBox="0 0 160 160" fill="none" xmlns="http://www.w3.org/2000/svg">
<circle cx="80" cy="80" r="80" fill="url(#paint0_linear_888_15)"/>
<circle cx="80" cy="80" r="61" fill="url(#paint1_linear_888_15)"/>
<g clip-path="url(#clip0_888_15)">
<path d="M91.072 119C89.8618 118.356 88.6497 117.709 87.428 117.059C85.4459 118.981 82.5852 118.62 81.2358 115.991C80.2104 116.38 79.166 116.369 78.1711 115.839C77.1686 115.306 76.555 114.466 76.2805 113.32C74.1669 113.392 72.7432 112.46 72.139 110.345C70.2751 110.443 68.8628 109.725 68.1958 107.894C67.5306 106.069 68.5293 104.7 69.5394 103.176C69.3126 103.191 69.0515 103.138 68.8628 103.231C67.3896 103.951 65.9678 103.841 64.5765 103.022C63.9018 102.623 63.2176 102.238 62.5544 101.82C61.3556 101.064 61.003 99.7671 61.7234 98.5467C64.7385 93.4367 67.7689 88.3343 70.8125 83.2395C71.5292 82.0418 72.8709 81.7167 74.0964 82.3973C74.8454 82.8117 75.5811 83.249 76.3053 83.7052C77.6566 84.555 78.3827 85.7793 78.3293 87.3857C78.3122 87.897 78.4951 88.148 78.9259 88.3647C79.8483 88.8304 80.7803 88.9274 81.7504 88.5605C82.4174 88.3077 83.0883 88.07 83.7439 87.7906C85.5602 87.015 87.3194 87.1366 89.0022 88.1404C89.473 88.4217 89.8904 88.4369 90.4031 88.2829C91.3789 87.9883 92.3814 87.7792 93.3686 87.5149C94.6417 87.1765 95.8596 87.3343 97.0622 87.8305C97.8074 88.1385 98.5526 88.4788 99.3321 88.6574C99.9039 88.7886 100.531 88.6841 101.194 88.6841C100.811 87.0663 100.935 85.5683 102.109 84.5474C103.22 83.5817 104.545 82.8136 105.877 82.1673C106.891 81.6749 107.991 82.2871 108.669 83.4277C110.588 86.65 112.5 89.876 114.417 93.1002C115.448 94.8339 116.485 96.5658 117.51 98.3033C118.395 99.8014 118.076 101.113 116.546 101.967C115.456 102.575 114.326 103.128 113.173 103.603C112.77 103.769 112.197 103.756 111.779 103.609C110.842 103.28 110.194 103.714 109.504 104.233C110.438 105.63 110.626 107.079 109.675 108.502C108.654 110.031 107.16 110.407 105.435 109.972C104.427 112.506 103.254 113.318 100.925 113.065C100.681 114.285 100.125 115.323 98.9567 115.922C97.8169 116.506 96.6696 116.435 95.5718 115.945C95.2326 116.563 95.0134 117.257 94.5579 117.717C94.0281 118.251 93.2924 118.58 92.6444 118.998H91.072V119ZM88.7678 115.249C89.4692 115.666 90.1763 116.097 90.8948 116.512C91.7944 117.03 92.6291 116.878 93.0713 116.131C93.5154 115.378 93.2505 114.572 92.368 114.034C91.7391 113.65 91.0568 113.337 90.4907 112.877C90.2125 112.65 89.9514 112.114 90.0314 111.808C90.1229 111.457 90.5555 111.092 90.9234 110.949C91.175 110.852 91.6019 111.073 91.8992 111.244C93.4449 112.132 94.9657 113.063 96.5133 113.949C97.2719 114.382 98.0952 114.156 98.505 113.468C98.9109 112.787 98.6994 111.953 97.9885 111.481C97.6721 111.272 97.3367 111.09 97.0089 110.896C95.6385 110.086 94.2625 109.282 92.896 108.464C92.2003 108.048 91.9926 107.426 92.3375 106.862C92.6863 106.288 93.2829 106.198 94.0166 106.609C94.1405 106.679 94.2625 106.753 94.3845 106.826C96.5552 108.107 98.7184 109.398 100.897 110.662C101.903 111.246 102.988 110.803 103.174 109.744C103.308 108.985 102.898 108.497 102.267 108.128C100.032 106.816 97.7979 105.504 95.5832 104.16C95.265 103.967 94.9067 103.626 94.8381 103.297C94.7713 102.978 94.96 102.495 95.204 102.246C95.5966 101.841 96.1169 101.969 96.5838 102.246C99.0786 103.725 101.575 105.2 104.074 106.674C104.688 107.037 105.294 107.415 105.923 107.75C106.683 108.155 107.512 107.928 107.914 107.248C108.318 106.563 108.099 105.769 107.367 105.273C107.23 105.179 107.083 105.1 106.94 105.016C102.908 102.634 98.8766 100.252 94.8438 97.8718C94.3197 97.5619 93.7955 97.2578 93.2371 96.9327C92.41 98.7672 91.0987 99.8736 89.1109 100.092C87.5843 100.26 86.4026 99.2501 86.3779 97.7102C86.3607 96.7122 86.395 95.7141 86.3702 94.7161C86.3264 92.9937 86.3169 91.2847 87.569 89.8703C86.7438 89.4198 85.9624 89.3456 85.1562 89.6156C84.6397 89.7886 84.1175 89.9597 83.622 90.184C81.556 91.1136 79.5091 91.3227 77.4545 90.0072C75.1903 93.8207 72.9528 97.5866 70.5857 101.571C71.0641 101.516 71.3538 101.541 71.5959 101.446C73.1815 100.828 74.7672 101.202 75.8631 102.48C75.9813 102.617 76.1014 102.75 76.2214 102.885C78.0187 101.244 81.3635 101.48 82.3984 104.864C83.702 104.752 84.836 105.134 85.6822 106.177C86.5208 107.212 86.6675 108.4 86.3226 109.643C89.0975 110.757 89.7494 112.251 88.7735 115.249H88.7678ZM106.573 84.1501C105.804 84.6025 105.107 85.0055 104.419 85.42C103.134 86.1937 102.852 87.2659 103.594 88.5529C103.973 89.2107 104.385 89.8513 104.745 90.5205C105.05 91.087 104.855 91.7029 104.337 91.9957C103.832 92.2808 103.277 92.1478 102.898 91.6288C102.746 91.4197 102.61 91.1915 102.496 90.9577C102.328 90.6155 102.119 90.6022 101.749 90.6764C101.034 90.817 100.262 91.009 99.5742 90.876C98.4211 90.6535 97.3233 90.1631 96.1855 89.8456C95.5813 89.6764 94.9162 89.4711 94.3254 89.568C93.0408 89.7772 91.7791 90.146 90.5212 90.4939C89.5283 90.7695 88.7411 91.4311 88.6725 92.4462C88.5487 94.237 88.6382 96.043 88.6363 97.8433C89.6998 97.9897 90.7156 97.3528 91.0968 96.2502C91.2264 95.8757 91.2378 95.4613 91.3084 95.0678C91.4646 94.199 92.1679 93.8359 92.9512 94.2351C93.3743 94.4499 93.7746 94.7123 94.1824 94.9537C98.4592 97.4802 102.734 100.01 107.019 102.524C107.234 102.649 107.573 102.757 107.773 102.676C108.2 102.503 108.574 102.199 108.999 101.929C108.564 101.193 108.154 100.501 107.745 99.809C106.994 98.5429 106.243 97.2768 105.492 96.0107C105.204 95.5278 105.16 94.986 105.614 94.6609C105.925 94.4385 106.447 94.3758 106.841 94.4423C107.093 94.4841 107.329 94.8644 107.495 95.1381C108.553 96.8852 109.582 98.6474 110.634 100.396C111.227 101.383 112.235 101.813 113.184 101.375C114.105 100.951 114.957 100.385 115.9 99.8451C112.769 94.5754 109.685 89.3836 106.573 84.1463V84.1501ZM72.8747 84.1938C72.7604 84.2851 72.7108 84.3079 72.6898 84.3459C69.7033 89.3665 66.7225 94.3891 63.7284 99.404C63.5016 99.7823 63.6426 99.9534 63.959 100.132C64.5174 100.448 65.0625 100.786 65.619 101.107C66.9379 101.866 68.0185 101.585 68.8152 100.263C69.6004 98.9611 70.3742 97.6551 71.1499 96.3472C72.6898 93.756 74.2355 91.1649 75.7678 88.5681C76.4654 87.3838 76.2634 86.2678 75.2075 85.5797C74.4528 85.0873 73.6599 84.6558 72.8766 84.1938H72.8747ZM74.3003 109.573C74.3403 110.394 74.6662 110.837 75.3047 111.048C75.9908 111.276 76.5321 111.021 76.9285 110.485C77.9291 109.132 78.9163 107.767 79.8788 106.385C80.401 105.638 80.2466 104.79 79.5662 104.318C78.9068 103.86 78.0873 103.987 77.5574 104.7C76.5397 106.071 75.5487 107.463 74.569 108.862C74.4032 109.099 74.3537 109.421 74.3003 109.571V109.573ZM80.0637 114.055C80.2219 113.972 80.6736 113.871 80.887 113.592C81.9924 112.141 83.0635 110.664 84.0908 109.158C84.5292 108.518 84.2985 107.708 83.6848 107.274C83.0712 106.841 82.2478 106.906 81.7733 107.537C80.6907 108.974 79.6215 110.424 78.6305 111.926C78.0091 112.867 78.7181 114.04 80.0637 114.057V114.055ZM70.155 106.653C70.2274 107.394 70.5095 107.852 71.108 108.077C71.7369 108.312 72.3029 108.162 72.7089 107.655C73.254 106.97 73.7686 106.255 74.2412 105.52C74.6986 104.809 74.5195 104.041 73.8658 103.583C73.2178 103.13 72.4268 103.233 71.9065 103.894C71.3938 104.544 70.9155 105.225 70.4542 105.913C70.2903 106.158 70.2274 106.468 70.155 106.655V106.653ZM87.0926 113.363C87.0354 112.603 86.74 112.128 86.1472 111.922C85.5431 111.713 84.9561 111.818 84.5368 112.344C84.1518 112.825 83.7897 113.325 83.4561 113.842C83.0064 114.544 83.1531 115.337 83.782 115.802C84.3805 116.247 85.2515 116.148 85.7603 115.529C86.1511 115.053 86.5036 114.546 86.8353 114.027C86.982 113.799 87.0373 113.51 87.0926 113.361V113.363Z" fill="black"/>
<path d="M91.6427 46C92.9807 46.3631 93.9489 47.249 94.8942 48.2052C97.8731 51.2146 100.871 54.2068 103.89 57.1781C105.007 58.2769 105.533 59.5354 105.523 61.1171C105.483 66.8905 105.508 72.664 105.506 78.4394C105.506 78.677 105.533 78.9222 105.485 79.1504C105.367 79.7131 104.972 80.0286 104.422 80.021C103.875 80.0134 103.474 79.7074 103.381 79.1314C103.339 78.8766 103.36 78.6105 103.36 78.3481C103.36 72.6697 103.36 66.9913 103.36 61.311V60.3757C102.983 60.3757 102.683 60.3795 102.382 60.3757C100.215 60.351 98.0331 60.484 95.889 60.2578C93.0321 59.9574 91.132 57.6458 91.1015 54.7809C91.0805 52.8571 91.0977 50.9313 91.0977 49.0074C91.0977 48.7508 91.0977 48.4961 91.0977 48.1482C90.7679 48.1482 90.5145 48.1482 90.261 48.1482C79.8015 48.1482 69.3421 48.1482 58.8826 48.1482C56.5231 48.1482 55.1795 49.5036 55.1795 51.8704C55.1795 70.5234 55.1795 89.1746 55.1795 107.828C55.1795 110.204 56.4945 111.521 58.894 111.527C62.3017 111.537 65.7075 111.527 69.1153 111.531C69.3992 111.531 69.6908 111.529 69.9672 111.586C70.4665 111.69 70.7429 112.021 70.7772 112.535C70.8134 113.078 70.5637 113.458 70.051 113.626C69.809 113.704 69.5364 113.708 69.2792 113.708C65.8009 113.713 62.3227 113.715 58.8445 113.709C55.351 113.704 53.0087 111.403 53.0087 107.913C52.9972 89.2145 52.9991 70.5139 53.003 51.8134C53.0049 48.8535 54.4476 46.9752 57.3121 46.1236C57.3731 46.1046 57.4208 46.0418 57.4741 46C68.8637 46 80.2532 46 91.6427 46ZM101.469 58.142C98.7574 55.4368 96.0339 52.7164 93.3561 50.0454C93.3561 51.7963 93.2685 53.6688 93.3847 55.528C93.4705 56.8835 94.8313 58.0792 96.2016 58.1267C97.9836 58.1895 99.7675 58.142 101.468 58.142H101.469Z" fill="#EF7B10"/>
<path d="M79.2791 74.3882C73.632 74.3882 67.9868 74.3882 62.3396 74.3882C62.1014 74.3882 61.8613 74.3997 61.6249 74.3749C61.0055 74.3122 60.6701 73.9263 60.6529 73.3408C60.6358 72.7457 60.9884 72.3674 61.5811 72.2572C61.7888 72.2173 62.008 72.2401 62.2234 72.2401C73.5881 72.2401 84.9529 72.2401 96.3177 72.2401C96.5082 72.2401 96.7007 72.2287 96.8894 72.2515C97.4745 72.3218 97.9262 72.818 97.8671 73.3693C97.8042 73.951 97.4898 74.3369 96.8646 74.3787C96.6283 74.3959 96.3882 74.3882 96.1499 74.3882C90.5276 74.3882 84.9053 74.3882 79.281 74.3882H79.2791Z" fill="#EF7B10"/>
<path d="M79.2276 67.8068C73.5328 67.8068 67.8399 67.8068 62.1452 67.803C61.865 67.803 61.4895 67.8392 61.3256 67.6833C61.0302 67.4 60.7139 66.9989 60.6795 66.6206C60.6338 66.1244 61.0093 65.748 61.5601 65.6758C61.7945 65.6454 62.0346 65.6511 62.2729 65.6511C73.59 65.6511 84.9071 65.6511 96.2242 65.6511C97.3677 65.6511 97.8995 66.0085 97.8747 66.7537C97.8518 67.4685 97.3239 67.8106 96.2394 67.8106C90.5694 67.8106 84.8995 67.8106 79.2276 67.8106V67.8068Z" fill="#EF7B10"/>
<path d="M70.4896 60.3737C67.6804 60.3737 64.8692 60.3928 62.0599 60.3528C61.6559 60.3471 61.1546 60.157 60.8764 59.8776C60.3732 59.37 60.6705 58.4974 61.3681 58.2769C61.6768 58.178 62.0237 58.1723 62.3534 58.1723C67.7833 58.1666 73.2112 58.1685 78.6411 58.1685C78.8317 58.1685 79.0242 58.159 79.2128 58.1799C79.9237 58.2541 80.364 58.7027 80.3411 59.3149C80.3163 59.927 79.857 60.3604 79.1347 60.368C77.3737 60.3871 75.6107 60.3756 73.8478 60.3756C72.729 60.3756 71.6103 60.3756 70.4896 60.3756V60.3737Z" fill="#EF7B10"/>
</g>
<defs>
<linearGradient id="paint0_linear_888_15" x1="130.11" y1="21.0989" x2="33.4066" y2="146.813" gradientUnits="userSpaceOnUse">
<stop stop-color="#FBFBFB"/>
<stop offset="1" stop-color="#EFF1F3"/>
</linearGradient>
<linearGradient id="paint1_linear_888_15" x1="118.209" y1="35.0879" x2="44.4725" y2="130.945" gradientUnits="userSpaceOnUse">
<stop stop-color="#EEF0F2"/>
<stop offset="1" stop-color="#FDFEFE"/>
</linearGradient>
<clipPath id="clip0_888_15">
<rect width="65" height="73" fill="white" transform="translate(53 46)"/>
</clipPath>
</defs>
</svg>
