<svg width="43" height="43" viewBox="0 0 43 43" fill="none" xmlns="http://www.w3.org/2000/svg">
<g id="Layer_1" clip-path="url(#clip0_474_3216)">
<path id="Vector" d="M-0.000901189 42.1554C0.197915 41.8136 0.498769 41.7231 0.883777 41.7284C2.14084 41.7463 3.3979 41.7347 4.70651 41.7347V41.2141C4.70651 36.7632 4.70651 32.3133 4.70651 27.8624C4.70651 27.1093 4.89481 26.9148 5.64379 26.9137C7.6877 26.9106 9.73161 26.9106 11.7755 26.9137C12.5256 26.9148 12.7075 27.102 12.7075 27.8655C12.7086 32.2881 12.7075 36.7106 12.7075 41.1331C12.7075 41.313 12.7075 41.4928 12.7075 41.7032H17.4844V41.1857C17.4844 35.6578 17.4844 30.1289 17.4844 24.601C17.4844 23.7217 17.6611 23.544 18.5395 23.544C20.5276 23.544 22.5147 23.544 24.5029 23.544C25.3234 23.544 25.5149 23.7375 25.5149 24.56C25.5149 30.0878 25.5149 35.6168 25.5149 41.1447C25.5149 41.3245 25.5149 41.5033 25.5149 41.7084H30.2917V41.1741C30.2917 33.1968 30.2917 25.2194 30.2917 17.242C30.2917 16.2744 30.4306 16.1377 31.4131 16.1377C33.3865 16.1377 35.361 16.1377 37.3344 16.1377C38.0971 16.1377 38.2938 16.3386 38.2938 17.1116C38.2938 25.1174 38.2938 33.1221 38.2938 41.1279C38.2938 41.3088 38.2938 41.4897 38.2938 41.7347C38.46 41.7347 38.6073 41.7347 38.7545 41.7347C39.9022 41.7347 41.0499 41.7326 42.1986 41.7347C42.7172 41.7358 43.0075 41.9745 42.997 42.3794C42.9865 42.7707 42.7077 42.9915 42.207 42.9915C28.4045 42.9915 14.6021 42.9915 0.799622 42.9989C0.433549 42.9989 0.187395 42.8632 -0.00195312 42.574V42.1544L-0.000901189 42.1554ZM31.5993 17.4555V41.699H37.001V17.4555H31.5993ZM24.1936 41.7137V24.865H18.8088V41.7137H24.1936ZM11.4042 41.7221V28.2389H6.00671V41.7221H11.4042Z" fill="black"/>
<path id="Vector_2" d="M40.0644 -9.38049e-05C40.8186 0.256528 41.4024 0.692997 41.5949 1.51229C41.6454 1.72685 41.6549 1.95507 41.6559 2.17699C41.6612 3.82821 41.6233 5.48047 41.6696 7.13064C41.7075 8.46634 40.7607 9.23515 39.9581 9.31719C38.7915 9.43603 37.9605 8.79132 37.6849 7.52504C37.5955 7.60812 37.5145 7.67018 37.4471 7.7459C35.439 9.99766 33.2468 12.0506 30.8746 13.9154C30.7873 13.9848 30.7 14.0584 30.6043 14.1131C30.3003 14.2866 30.01 14.2677 29.7712 13.9995C29.5534 13.7544 29.5713 13.3685 29.8385 13.1318C30.3098 12.7153 30.8052 12.3251 31.2902 11.9244C33.6265 9.99134 35.7356 7.83319 37.6849 5.51308C37.8069 5.36794 37.9594 5.21544 38.1299 5.14813C38.5464 4.98301 38.9472 5.27854 38.964 5.75182C38.9819 6.24087 38.964 6.73098 38.9703 7.22109C38.9777 7.72907 39.2449 8.04985 39.6583 8.06458C40.0801 8.0793 40.3915 7.74485 40.3936 7.22214C40.402 5.52885 40.4031 3.83557 40.3936 2.14228C40.3894 1.49336 40.0318 1.22307 39.3838 1.30616C37.7343 1.5186 36.0838 1.72264 34.4333 1.92457C33.8632 1.99399 33.5308 2.31792 33.6013 2.75965C33.6696 3.19086 34.0631 3.40646 34.6048 3.32758C35.1445 3.24975 35.6852 3.18455 36.2269 3.11934C36.5635 3.07832 36.8696 3.10987 37.0474 3.46536C37.2168 3.80507 37.0516 4.04907 36.8486 4.29833C34.5827 7.07384 32.0455 9.57065 29.2168 11.7719C23.7383 16.0377 17.6108 18.9805 10.9047 20.7348C8.33376 21.4079 5.73127 21.9138 3.07407 22.0978C2.92049 22.1083 2.76796 22.1315 2.61543 22.1536C2.20833 22.2135 1.92851 22.5185 1.9485 22.8782C1.96954 23.2715 2.27776 23.5618 2.72378 23.5282C3.72733 23.4524 4.73298 23.3841 5.72811 23.2389C10.1578 22.5953 14.4297 21.3742 18.5554 19.6462C21.4493 18.4346 24.2138 16.9738 26.8321 15.2437C26.9835 15.1438 27.1329 15.0386 27.2918 14.9503C27.6589 14.7473 28.0197 14.8251 28.2101 15.1385C28.3931 15.4393 28.3184 15.7801 27.9818 16.0125C27.5221 16.3301 27.0509 16.633 26.5764 16.9286C20.9812 20.4172 14.9315 22.7688 8.47471 24.0509C6.61594 24.42 4.7172 24.5967 2.83108 24.8176C1.77598 24.9406 0.815566 24.1361 0.688282 23.1127C0.553634 22.0337 1.26054 21.0587 2.33877 20.9062C3.66631 20.719 5.00858 20.6243 6.32982 20.4035C11.2087 19.5873 15.8635 18.0707 20.2974 15.8705C25.2847 13.3947 29.7038 10.1554 33.5445 6.12729C33.9936 5.65611 34.4197 5.16285 34.9151 4.61595C34.6742 4.61595 34.527 4.61595 34.3797 4.61595C33.2888 4.62121 32.4052 3.86291 32.3358 2.86061C32.2558 1.71318 32.9869 0.816049 34.1251 0.673014C35.7199 0.473185 37.3146 0.277563 38.9093 0.0766825C38.9882 0.0672169 39.064 0.0251477 39.1408 -0.00219727C39.449 -0.00219727 39.7572 -0.00219727 40.0644 -0.00219727V-9.38049e-05Z" fill="#EF7B10"/>
</g>
<defs>
<clipPath id="clip0_474_3216">
<rect width="43" height="43" fill="white"/>
</clipPath>
</defs>
</svg>
