<svg width="68" height="72" viewBox="0 0 68 72" fill="none" xmlns="http://www.w3.org/2000/svg">
<g clip-path="url(#clip0_530_12)">
<path d="M15.3476 62.7705C16.333 57.0414 20.1331 50.7726 28.2729 47.9394C25.138 45.5814 23.6059 42.502 23.9651 38.6488C24.2074 36.0428 25.4211 33.8612 27.4343 32.1582C31.6095 28.6264 37.6882 29.0351 41.4511 33.028C44.9328 36.724 45.4281 43.7072 39.7298 47.9604C46.8257 50.5053 51.123 55.41 52.6922 62.9661C53.9005 61.7068 55.0699 60.6081 56.0995 59.3924C60.7806 53.8764 62.9956 47.4766 62.9089 40.3012C62.8947 39.0645 62.7267 37.8261 62.571 36.5947C62.4348 35.5223 62.7603 34.855 63.5776 34.745C64.4091 34.6332 64.9434 35.152 65.1026 36.2314C65.7926 40.8793 65.5927 45.4958 64.1066 49.9586C60.1791 61.7505 51.9828 68.9084 39.6909 71.4952C38.6011 71.724 37.897 71.3607 37.7678 70.5729C37.6351 69.7642 38.0756 69.2315 39.0504 69.0586C42.4542 68.449 45.6776 67.3363 48.6409 65.5722C50.6117 64.3984 50.4436 64.9993 49.9748 62.6273C48.6409 55.8624 43.3193 50.8931 36.4109 49.8189C27.6625 48.4582 19.2698 54.479 17.9111 63.0919C17.7519 64.1003 18.1134 64.866 18.9956 65.3888C22.0544 67.2053 25.3485 68.3966 28.8514 69.0498C29.9129 69.2472 30.3445 69.7642 30.2066 70.5817C30.0756 71.3485 29.4034 71.7013 28.3543 71.5092C23.192 70.5642 18.5038 68.5503 14.4029 65.2997C7.71562 60.0003 3.86246 53.1061 2.74437 44.7325C2.34808 41.7702 2.41354 38.7956 2.96551 35.8472C3.11235 35.0611 3.62539 34.6751 4.32597 34.745C5.03008 34.8166 5.38921 35.255 5.47944 35.9135C5.50598 36.1109 5.43698 36.3222 5.41044 36.5266C4.04468 46.8443 7.19903 55.5358 15.0239 62.5452C15.0982 62.6116 15.1884 62.6587 15.3494 62.7688L15.3476 62.7705ZM34.0226 32.2542C29.904 32.228 26.4507 35.6166 26.4383 39.6899C26.4259 43.7282 29.805 47.1045 33.9129 47.1587C38.0208 47.2128 41.4954 43.84 41.5361 39.7597C41.5767 35.6987 38.1535 32.2804 34.0226 32.2542Z" fill="black"/>
<path d="M24.9498 24.6335C25.3655 22.2475 25.8113 19.8074 26.1935 17.3586C26.2465 17.0214 26.1032 16.5306 25.8644 16.2913C24.1873 14.6163 22.4677 12.9849 20.7499 11.3517C20.304 10.9273 19.9962 10.4644 20.1979 9.84607C20.3978 9.23124 20.8932 9.02688 21.5247 8.94129C23.9095 8.6199 26.2855 8.23039 28.6702 7.91948C29.1391 7.85835 29.3478 7.65923 29.5336 7.28544C30.5774 5.1737 31.6495 3.07593 32.6809 0.958953C32.9551 0.391281 33.3284 0.00351798 33.9741 2.46185e-05C34.6163 -0.00346875 35.0037 0.365081 35.2832 0.937993C36.3146 3.05497 37.392 5.15099 38.427 7.26622C38.6304 7.68193 38.8781 7.85311 39.3593 7.91599C41.7706 8.23214 44.1802 8.57274 46.5756 8.9902C47.0108 9.06531 47.5893 9.4653 47.7167 9.84083C47.8441 10.2199 47.6318 10.8888 47.3257 11.1998C45.6468 12.908 43.9042 14.5551 42.1598 16.1988C41.7795 16.5568 41.6556 16.8852 41.7547 17.4162C42.1899 19.7253 42.5561 22.0484 42.9701 24.361C43.0745 24.9444 43.0179 25.4527 42.5137 25.8195C41.9776 26.209 41.4363 26.0745 40.8932 25.7915C38.8127 24.7034 36.718 23.6396 34.6481 22.5305C34.1775 22.2772 33.8131 22.2737 33.3443 22.5235C31.2266 23.6536 29.0966 24.7593 26.9577 25.8492C25.9051 26.3854 24.879 25.7758 24.9515 24.6317L24.9498 24.6335ZM43.4743 11.0618C42.0661 10.8487 40.4756 10.4976 38.8693 10.4015C37.4681 10.3194 36.7021 9.72031 36.1802 8.47668C35.5645 7.01295 34.7755 5.62085 33.9865 4.04534C33.3001 5.41474 32.6985 6.63392 32.0794 7.84438C30.7171 10.5098 31.3717 10.026 28.2457 10.5046C26.9347 10.7054 25.6203 10.8906 24.4314 11.0653C25.4557 12.1534 26.3934 13.3534 27.5415 14.3106C28.7817 15.3464 29.1408 16.4276 28.7145 17.9734C28.3182 19.4039 28.1873 20.9061 27.9166 22.5148C29.645 21.6222 31.262 20.8397 32.8206 19.9594C33.6468 19.493 34.3332 19.4947 35.1559 19.9559C36.7162 20.831 38.3297 21.6152 40.0652 22.5113C39.7291 20.562 39.4407 18.7576 39.0957 16.9638C38.9507 16.2075 39.1099 15.6416 39.6689 15.0809C40.971 13.7744 42.2094 12.405 43.4743 11.06V11.0618Z" fill="#EF7B10"/>
<path d="M22.6554 18.6143C22.5387 18.782 22.3458 19.175 22.0504 19.4685C20.7749 20.7331 19.4533 21.954 18.1937 23.2308C17.9672 23.4614 17.8045 23.9085 17.8505 24.2212C18.1159 26.0343 18.4962 27.8316 18.7368 29.6464C18.7952 30.0813 18.5776 30.6507 18.291 31.0053C17.9301 31.4525 17.3534 31.3529 16.8474 31.0892C15.2056 30.2333 13.5533 29.3931 11.9239 28.5163C11.5117 28.2945 11.195 28.2805 10.774 28.5058C9.16583 29.3704 7.53116 30.1826 5.91771 31.0368C5.38874 31.3162 4.88454 31.4245 4.37857 31.0455C3.89206 30.6804 3.78237 30.2018 3.89737 29.601C4.24058 27.8002 4.55548 25.9941 4.82616 24.1828C4.87039 23.8893 4.71647 23.4701 4.50418 23.2553C3.24102 21.9802 1.93894 20.7401 0.635094 19.5052C0.168044 19.0632 -0.157476 18.5829 0.0813568 17.9331C0.31842 17.2851 0.88808 17.1262 1.52143 17.0423C3.33478 16.8013 5.14814 16.5463 6.95442 16.2528C7.19856 16.2127 7.48339 15.9559 7.60369 15.7253C8.39626 14.2127 9.16229 12.6861 9.90533 11.1508C10.2132 10.515 10.5351 9.92984 11.356 9.94032C12.1344 9.94906 12.4564 10.5045 12.7519 11.1176C13.4843 12.632 14.2574 14.1254 14.9898 15.638C15.1862 16.0432 15.4126 16.2458 15.9097 16.3035C17.7266 16.5166 19.5347 16.803 21.3463 17.0685C22.1884 17.1926 22.6554 17.6589 22.6572 18.6178L22.6554 18.6143ZM15.8443 27.7198C15.6338 26.4517 15.5329 25.3181 15.241 24.2334C14.942 23.1208 15.2976 22.375 16.1291 21.6536C16.9783 20.9165 17.716 20.0571 18.5387 19.2152C17.3233 19.0458 16.161 18.8536 14.9933 18.7279C14.0592 18.6283 13.3976 18.2842 13.0119 17.3637C12.5484 16.2581 11.9469 15.2083 11.333 13.9909C10.751 15.1524 10.1778 16.1341 9.75672 17.1768C9.33036 18.2301 8.60679 18.665 7.49754 18.7506C6.37592 18.8362 5.26667 19.0615 4.16981 19.2239C5.08976 20.1689 5.92833 21.0929 6.83766 21.9435C7.45685 22.5217 7.655 23.1243 7.47278 23.9505C7.20918 25.1487 7.04995 26.3679 6.81997 27.732C8.07074 27.084 9.19414 26.5408 10.2751 25.926C11.0146 25.5068 11.6709 25.5068 12.4086 25.926C13.4878 26.5373 14.6077 27.0788 15.8461 27.7216L15.8443 27.7198Z" fill="#EF7B10"/>
<path d="M50.5636 31.2989C49.649 31.3111 49.0368 30.5915 49.1748 29.7758C49.4827 27.9435 49.7905 26.1095 50.1408 24.2842C50.2292 23.8196 50.1302 23.5174 49.7887 23.196C48.4796 21.9646 47.204 20.7 45.9002 19.4651C45.4508 19.0389 45.166 18.5673 45.3783 17.9525C45.5888 17.3359 46.1178 17.135 46.7264 17.0512C48.5662 16.7997 50.4061 16.5516 52.2372 16.2512C52.5008 16.2075 52.8051 15.9263 52.936 15.6748C53.7639 14.094 54.5654 12.4976 55.3385 10.8906C55.6127 10.3195 55.9948 9.94218 56.637 9.94043C57.281 9.94043 57.6649 10.316 57.9391 10.8854C58.714 12.4941 59.5366 14.0783 60.3203 15.6818C60.5079 16.0643 60.729 16.2407 61.1908 16.2966C63.0076 16.5132 64.8245 16.7542 66.6202 17.0913C67.0873 17.1787 67.6162 17.5664 67.8692 17.9682C68.1859 18.4677 67.8657 18.997 67.4358 19.4092C66.1355 20.6493 64.8582 21.9139 63.5455 23.1401C63.1633 23.4982 63.0448 23.8248 63.1492 24.3575C63.5012 26.1304 63.8179 27.912 64.0532 29.7024C64.108 30.1146 63.8887 30.6578 63.6109 30.9949C63.2447 31.4403 62.6768 31.3652 62.1691 31.1015C60.5273 30.2456 58.875 29.409 57.2474 28.5269C56.8033 28.2858 56.4636 28.2981 56.0267 28.5339C54.4203 29.3985 52.7927 30.2264 51.1686 31.0596C50.9404 31.1766 50.6892 31.2517 50.5601 31.3024L50.5636 31.2989ZM63.8427 19.2118C62.5866 19.0372 61.373 18.8433 60.1523 18.707C59.2942 18.611 58.7157 18.2581 58.3584 17.4407C57.8666 16.3158 57.2668 15.2364 56.6406 13.991C56.0709 15.1211 55.4959 16.0748 55.0996 17.0966C54.6627 18.218 53.9037 18.6721 52.7343 18.7542C51.6375 18.8328 50.5512 19.0616 49.4667 19.224C50.4221 20.2022 51.3049 21.1524 52.246 22.0449C52.8033 22.5724 52.9395 23.1401 52.7962 23.8632C52.5503 25.0946 52.3593 26.3383 52.1187 27.7339C53.3924 27.0719 54.5335 26.5112 55.6428 25.8946C56.3292 25.5121 56.9484 25.5069 57.6348 25.8876C58.7458 26.5025 59.8851 27.0649 61.1607 27.7269C60.9201 26.333 60.7272 25.0929 60.4831 23.8615C60.3398 23.1384 60.4778 22.5742 61.0386 22.0467C61.9833 21.1594 62.8643 20.2074 63.8409 19.2136L63.8427 19.2118Z" fill="#EF7B10"/>
<path d="M35.2393 70.7773C35.2323 71.4708 34.6927 71.9983 33.9903 72.0018C33.2561 72.0053 32.7042 71.4376 32.7325 70.711C32.759 70.0193 33.311 69.511 34.0186 69.5267C34.7192 69.5442 35.2464 70.0822 35.2376 70.7773H35.2393Z" fill="black"/>
</g>
<defs>
<clipPath id="clip0_530_12">
<rect width="68" height="72" fill="white"/>
</clipPath>
</defs>
</svg>
