<svg width="45" height="45" viewBox="0 0 45 45" fill="none" xmlns="http://www.w3.org/2000/svg">
<g id="Layer_1" clip-path="url(#clip0_268_448)">
<path id="Vector" d="M41.0616 0.19726C40.9009 0.131507 40.7402 0.0657534 40.5795 0H39.4101C39.3789 0.0270059 39.3525 0.0704501 39.3153 0.0798434C37.4071 0.549511 36.6168 2.78278 37.7801 4.32681C37.8521 4.42309 37.8365 4.66027 37.7622 4.76947C35.9643 7.43131 34.1557 10.0849 32.3363 12.7327C32.2619 12.8395 32.0412 12.937 31.9177 12.9112C30.9306 12.701 30.0899 12.9511 29.3307 13.5804C29.2275 13.6661 28.9697 13.6697 28.8353 13.6063C27.7043 13.0732 26.5853 12.5155 25.4627 11.9636C25.3728 11.9202 25.29 11.8638 25.2312 11.8286C25.2456 11.5726 25.2876 11.3519 25.2672 11.137C25.1581 9.98513 24.5764 9.1409 23.4598 8.73464C22.3624 8.33425 21.3417 8.55616 20.531 9.38043C19.713 10.2094 19.4851 11.2121 19.9589 12.2924C20.0968 12.6047 20.0236 12.7597 19.8077 12.9616C19.31 13.4278 18.8303 13.9127 18.3421 14.3883C17.2831 15.4215 16.2216 16.4536 15.1554 17.4928C14.5162 17.1405 13.8445 17.0301 13.1489 17.1898C11.7792 17.5045 10.9529 18.6141 10.9816 20.0325C10.9852 20.191 10.9253 20.4411 10.8137 20.4975C9.58559 21.128 8.34065 21.728 7.09572 22.3374C6.562 21.7867 5.94793 21.445 5.18873 21.4192C4.02176 21.3804 3.09705 21.8348 2.55374 22.8458C2.01283 23.8521 2.10518 24.8748 2.82839 25.7718C3.55041 26.6677 4.52669 26.993 5.67088 26.7205C6.99377 26.4059 7.77695 25.3186 7.75417 23.9131C7.75177 23.7534 7.81054 23.5022 7.92208 23.4446C9.15142 22.8141 10.3976 22.2141 11.6305 21.6094C11.6893 21.654 11.7264 21.6775 11.76 21.7068C12.8275 22.6544 14.2019 22.793 15.2969 22.0638C16.4159 21.3194 16.777 20.0219 16.2672 18.6763C16.2181 18.5483 16.284 18.3076 16.386 18.2067C17.8672 16.7331 19.3676 15.2795 20.8512 13.8082C21.0359 13.625 21.1738 13.6368 21.3933 13.7284C22.4775 14.1793 23.4742 14.002 24.3545 13.2517C24.544 13.0885 24.6747 13.0638 24.8978 13.1753C26.0024 13.7295 27.1118 14.2744 28.2284 14.8051C28.4695 14.919 28.5391 15.0423 28.5115 15.3065C28.3772 16.5452 29.1532 17.6994 30.3597 18.101C31.5891 18.5096 32.8964 18.0763 33.5692 16.9937C34.2696 15.8665 34.1545 14.7699 33.3317 13.7389C33.3641 13.6744 33.3821 13.6168 33.4145 13.5699C35.2483 10.8775 37.0845 8.18748 38.9123 5.49276C39.0431 5.29902 39.1582 5.28023 39.3873 5.3272C40.8373 5.62544 42.2178 4.83757 42.6424 3.4955C43.0633 2.16517 42.3785 0.735029 41.0616 0.19726ZM4.99204 25.4877C4.23884 25.4865 3.60078 24.8524 3.60198 24.1068C3.60318 23.346 4.21845 22.7507 5.00163 22.7519C5.77282 22.753 6.40369 23.3683 6.40129 24.1151C6.39769 24.8524 5.74404 25.49 4.99204 25.4877ZM13.727 21.189C12.969 21.182 12.3237 20.5409 12.3369 19.807C12.3513 19.0708 13.0122 18.445 13.7666 18.4544C14.5329 18.465 15.1446 19.0849 15.1374 19.8458C15.1314 20.6067 14.5114 21.1973 13.727 21.189ZM22.5039 12.6376C21.7495 12.6411 21.1042 12.0117 21.1006 11.2673C21.097 10.5147 21.7195 9.90646 22.4955 9.90411C23.2727 9.90294 23.8952 10.5041 23.8976 11.2579C23.8988 12.0023 23.2607 12.6341 22.5039 12.6376ZM31.2316 16.901C30.4473 16.8939 29.8536 16.2975 29.8608 15.5237C29.868 14.7769 30.5168 14.1534 31.2724 14.1699C32.0268 14.1851 32.6745 14.8356 32.6613 15.5624C32.6469 16.3104 32.0088 16.908 31.2316 16.901ZM39.9786 4.05558C39.211 4.04853 38.5861 3.4227 38.5981 2.67358C38.6101 1.93738 39.277 1.3045 40.0242 1.31859C40.7809 1.33386 41.4058 1.96908 41.3974 2.71703C41.389 3.47319 40.7642 4.0638 39.9786 4.05558Z" fill="#EF7B10"/>
<path id="Vector_2" d="M42.1288 10.8752H37.8999V43.6462H42.1288C42.1288 43.4677 42.1288 43.2975 42.1288 43.126C42.1288 38.6149 42.1288 34.1026 42.1288 29.5914C42.1288 29.4446 42.1192 29.2967 42.1408 29.1523C42.196 28.7683 42.4718 28.5311 42.8376 28.544C43.2286 28.5581 43.4397 28.7777 43.4949 29.1405C43.5189 29.299 43.5129 29.4622 43.5129 29.6231C43.5129 34.1049 43.5129 38.5879 43.5129 43.0697C43.5129 43.2564 43.5129 43.4442 43.5129 43.6826C43.8199 43.6826 44.0862 43.672 44.35 43.6849C44.7386 43.7049 44.9953 43.9691 44.9977 44.3307C45.0013 44.6936 44.747 44.9613 44.3644 44.993C44.2601 45.0012 44.1545 44.9965 44.0502 44.9965C29.6879 44.9965 15.3255 44.9965 0.964378 44.9965C0.920002 44.9965 0.874426 44.9965 0.83005 44.9965C0.290337 44.9918 0.00608902 44.7687 9.22182e-05 44.3484C-0.00590458 43.9233 0.280742 43.6861 0.80966 43.6814C1.01595 43.6791 1.22344 43.6814 1.4861 43.6814C1.4861 43.4724 1.4861 43.301 1.4861 43.1307C1.4861 39.6153 1.4861 36.0998 1.4861 32.5844C1.4861 31.4078 1.91067 30.9887 3.10164 30.9875C4.40534 30.9863 5.71025 30.9828 7.01395 30.9887C8.0466 30.9934 8.49276 31.429 8.49396 32.4388C8.49756 35.9988 8.49516 39.5577 8.49516 43.1178C8.49516 43.2904 8.49516 43.463 8.49516 43.6579H10.2558C10.2558 43.4853 10.2558 43.3163 10.2558 43.1472C10.2558 38.2251 10.2558 33.3041 10.2558 28.382C10.2558 28.2211 10.2534 28.0591 10.2606 27.8983C10.2942 27.2008 10.7787 26.7241 11.4996 26.7194C12.9832 26.7088 14.468 26.71 15.9516 26.717C16.7 26.7206 17.1833 27.1691 17.2541 27.8983C17.2685 28.0438 17.2613 28.1906 17.2613 28.3374C17.2613 33.2595 17.2613 38.1804 17.2613 43.1026V43.6532H18.9944C18.9944 43.4724 18.9944 43.2881 18.9944 43.1037C18.9944 35.2814 18.9944 27.4591 18.9944 19.6368C18.9944 18.5272 19.4285 18.1069 20.5715 18.1069C21.8908 18.1069 23.2101 18.1069 24.5294 18.1069C25.5381 18.1069 26.001 18.566 26.001 19.5652C26.001 27.4168 26.001 35.2685 26.001 43.119C26.001 43.2916 26.001 43.4642 26.001 43.6579H27.7353V43.0873C27.7353 36.7444 27.7485 30.4016 27.7257 24.0587C27.7209 22.5534 28.588 22.3186 29.7562 22.429C30.1304 22.4642 30.3739 22.7824 30.3391 23.1393C30.3019 23.5151 30.0765 23.717 29.6927 23.7393C29.5307 23.7487 29.3676 23.7405 29.1637 23.7405V43.6462H33.3639V23.7664C33.1624 23.757 32.9717 23.7511 32.7822 23.737C32.3888 23.71 32.1753 23.4752 32.1477 23.117C32.1214 22.7707 32.3276 22.4877 32.6719 22.4513C33.0808 22.4078 33.5174 22.4125 33.912 22.5123C34.4157 22.6392 34.6964 23.0255 34.7324 23.5491C34.7444 23.7241 34.742 23.9002 34.742 24.0763C34.742 30.4192 34.742 36.762 34.742 43.1049V43.6509H36.5026C36.5026 43.4607 36.5026 43.2646 36.5026 43.0673C36.5026 32.4622 36.5026 21.8572 36.5026 11.2509C36.5026 11.0748 36.4978 10.8986 36.5098 10.7237C36.5554 10.0016 37.0315 9.51665 37.7763 9.50725C39.2599 9.48847 40.7448 9.48847 42.2284 9.50725C42.9408 9.51665 43.3977 9.95344 43.4901 10.6403C43.5117 10.7988 43.5117 10.962 43.5117 11.1217C43.5117 15.9851 43.5117 20.8485 43.5117 25.7108C43.5117 25.8716 43.5153 26.0348 43.4889 26.1922C43.4277 26.5585 43.1891 26.7781 42.8149 26.7769C42.4383 26.7757 42.2104 26.5421 42.1444 26.184C42.1156 26.0278 42.1276 25.8634 42.1276 25.7026C42.1276 20.9425 42.1276 16.1812 42.1276 11.4211C42.1276 11.2474 42.1276 11.0736 42.1276 10.8716L42.1288 10.8752ZM20.3868 19.4489V43.6485H24.6206V19.4489H20.3868ZM15.8412 43.6697V28.0615H11.6447V43.6697H15.8412ZM2.90734 32.3484V43.6544H7.09551V32.3484H2.90614H2.90734Z" fill="black"/>
</g>
<defs>
<clipPath id="clip0_268_448">
<rect width="45" height="45" fill="white"/>
</clipPath>
</defs>
</svg>
