<svg width="52" height="52" viewBox="0 0 52 52" fill="none" xmlns="http://www.w3.org/2000/svg">
<g id="Layer_1" clip-path="url(#clip0_573_270)">
<path id="Vector" d="M4.35475 45.9168H6.07126V45.2759C6.07126 36.6665 6.07126 28.0571 6.07126 19.4491C6.07126 18.4415 6.29829 18.2163 7.31056 18.2163C8.86221 18.2163 10.4153 18.2134 11.967 18.2163C12.6206 18.2163 12.9865 18.5238 12.9951 19.0622C13.0053 19.6223 12.6293 19.9414 11.9453 19.9428C10.5917 19.9457 9.23964 19.9428 7.84272 19.9428V45.8995H44.1584V19.9428C42.8786 19.9428 41.6191 19.9428 40.361 19.9428C40.1802 19.9428 39.9995 19.9515 39.8201 19.9385C39.3169 19.9024 38.9829 19.5401 38.9944 19.055C39.006 18.5931 39.3314 18.2264 39.8129 18.2221C41.5815 18.2076 43.35 18.2048 45.1186 18.225C45.5958 18.2307 45.8648 18.544 45.9154 19.0204C45.9328 19.1806 45.9198 19.3452 45.9198 19.5069C45.9198 28.0802 45.9198 36.6535 45.9198 45.2254C45.9198 45.439 45.9198 45.6527 45.9198 45.9009H47.6565V45.3091C47.6565 36.411 47.6565 27.5128 47.6565 18.6147C47.6565 17.1221 47.0087 16.4768 45.5134 16.4754C43.6899 16.4754 41.8678 16.4768 40.0443 16.4754C39.3588 16.4754 38.9857 16.1578 38.9944 15.5962C39.0031 15.0563 39.3675 14.7503 40.0211 14.7489C41.9878 14.746 43.956 14.7417 45.9226 14.7489C47.872 14.7561 49.3817 16.2646 49.3817 18.2192C49.386 27.2256 49.3831 36.232 49.3846 45.2383C49.3846 45.4506 49.3846 45.6628 49.3846 45.9356C49.9471 45.9356 50.4648 45.9313 50.9825 45.9356C51.668 45.9428 51.9774 46.2503 51.9832 46.9187C52.002 49.5257 49.7143 51.9062 47.1084 51.9899C46.9465 51.9957 46.7831 51.9942 46.6211 51.9942C32.8673 51.9942 19.115 51.9942 5.36123 51.9942C2.62667 51.9942 0.568879 50.2879 0.0670857 47.6072C0.0208108 47.3618 0.00924202 47.1049 0.0121342 46.8537C0.0179186 46.2719 0.33172 45.95 0.910157 45.937C1.44955 45.924 1.98894 45.9341 2.60642 45.9341C2.60642 45.6974 2.60642 45.4895 2.60642 45.2817C2.60642 36.3474 2.63679 27.4132 2.58328 18.4805C2.57027 16.3613 4.20869 14.6348 6.34746 14.7287C8.2028 14.8109 10.0654 14.7445 11.9236 14.746C12.6221 14.746 12.9923 15.0448 12.9966 15.602C13.0009 16.1607 12.6278 16.4725 11.9366 16.4725C10.0408 16.4754 8.1464 16.4682 6.25057 16.4754C5.07056 16.4797 4.33739 17.1885 4.33595 18.3491C4.33161 27.445 4.33306 36.5423 4.3345 45.6382C4.3345 45.709 4.34462 45.7797 4.3533 45.9111L4.35475 45.9168ZM1.86602 47.6895C1.96291 47.9421 2.02365 48.1673 2.13066 48.3665C2.83057 49.6686 3.95129 50.2692 5.40461 50.2692C19.1208 50.2721 32.837 50.272 46.5546 50.2663C46.8944 50.2663 47.24 50.2287 47.5741 50.1595C48.8206 49.9025 49.9529 48.7606 50.0455 47.6895H1.86602Z" fill="black"/>
<path id="Vector_2" d="M29.4574 15.462C29.4574 16.4638 29.4618 16.4552 30.4191 16.8247C30.8717 16.9994 31.3214 17.1914 31.748 17.4209C32.0488 17.5826 32.2599 17.5855 32.4928 17.3127C32.7372 17.0254 33.0177 16.7655 33.2924 16.5057C34.0762 15.7637 35.1434 15.719 35.9243 16.4451C36.6893 17.1582 37.4326 17.8973 38.1426 18.6653C38.883 19.4664 38.9018 20.6328 38.0544 21.3229C37.1304 22.075 36.8932 22.7939 37.6119 23.7784C37.7348 23.9473 37.8173 24.1696 37.8462 24.3789C37.9359 25.0271 38.2858 25.2522 38.9177 25.1555C39.2171 25.1093 39.5309 25.1382 39.836 25.1512C40.7601 25.1902 41.5598 25.9668 41.5786 26.8921C41.6031 28.0282 41.6046 29.1657 41.5786 30.3018C41.5554 31.2416 40.7326 32.0355 39.7897 32.0702C39.2503 32.0904 38.5808 31.9013 38.2048 32.1539C37.8361 32.4022 37.7623 33.0908 37.5584 33.5874C37.3892 33.9973 37.0306 34.4463 37.1043 34.8086C37.1795 35.1811 37.6727 35.4698 37.9879 35.7917C38.8989 36.7228 38.9134 37.7766 38.0096 38.7005C37.3791 39.3457 36.7428 39.9852 36.0964 40.6146C35.1782 41.5082 34.0864 41.4981 33.1782 40.606C32.8572 40.2913 32.568 39.7961 32.1963 39.7211C31.8362 39.6474 31.3879 40.0098 30.9773 40.1772C30.7777 40.2595 30.5767 40.3375 30.3728 40.4111C29.7625 40.6334 29.4574 41.0626 29.4574 41.6987C29.4574 41.9326 29.4632 42.1679 29.456 42.4018C29.4242 43.3863 28.6389 44.1817 27.6527 44.1961C26.5522 44.2134 25.4517 44.212 24.3513 44.1961C23.339 44.1817 22.5538 43.3776 22.5335 42.3613C22.5249 41.9283 22.5625 41.4923 22.5162 41.0636C22.4988 40.9019 22.3398 40.6897 22.1894 40.619C21.5213 40.3072 20.8416 40.0199 20.1489 39.7687C19.9826 39.7095 19.7064 39.7658 19.5618 39.8755C19.2495 40.1152 18.9964 40.4299 18.7072 40.7013C17.8959 41.4649 16.8374 41.4938 16.0348 40.7373C15.2872 40.0314 14.5598 39.3024 13.8541 38.5547C13.131 37.7881 13.1542 36.7242 13.883 35.9158C14.1607 35.6084 14.4889 35.3442 14.7463 35.0208C14.849 34.8924 14.8938 34.6311 14.8374 34.4781C14.5786 33.7693 14.2865 33.072 13.9741 32.3863C13.9105 32.2477 13.7109 32.0991 13.562 32.0846C13.1325 32.0442 12.6972 32.076 12.2648 32.0687C11.215 32.0514 10.4167 31.2647 10.4052 30.2195C10.3936 29.1556 10.3936 28.0903 10.4052 27.0264C10.4167 25.9625 11.2439 25.0617 12.2981 25.17C13.4853 25.2927 14.2069 24.9693 14.3906 23.7336C14.4108 23.5965 14.4976 23.4666 14.5569 23.3366C14.9806 22.4041 14.9734 22.4113 14.2373 21.6534C13.964 21.372 13.6675 21.0789 13.5012 20.7325C13.1383 19.976 13.2814 19.2456 13.8599 18.6378C14.5439 17.9204 15.2467 17.2174 15.9654 16.5331C16.8171 15.719 17.9147 15.7464 18.7679 16.5649C19.1164 16.8998 19.4346 17.4166 19.8395 17.5018C20.2111 17.5797 20.6811 17.1871 21.1091 17.0066C21.3246 16.9157 21.5372 16.7858 21.7628 16.7569C22.4598 16.6674 22.629 16.2617 22.5393 15.6309C22.4988 15.348 22.5234 15.0535 22.5364 14.7662C22.5755 13.8423 23.3535 13.0412 24.2761 13.0224C25.4127 12.9993 26.5493 12.9978 27.686 13.0224C28.6259 13.044 29.4184 13.8669 29.4574 14.8081C29.4661 15.0246 29.4574 15.2411 29.4589 15.4577L29.4574 15.462ZM17.4491 39.5334C17.7875 39.1812 18.1389 38.7943 18.5148 38.432C19.1424 37.8257 19.8771 37.7463 20.6652 38.0653C21.4475 38.3814 22.2241 38.7178 23.0064 39.0325C23.7844 39.3443 24.2428 39.9838 24.2573 40.8182C24.2645 41.2512 24.2327 41.6872 24.2761 42.1159C24.2891 42.2444 24.4872 42.4552 24.6058 42.4595C25.5255 42.4884 26.4467 42.4696 27.3664 42.4797C27.6599 42.4826 27.7395 42.3455 27.7322 42.0827C27.7207 41.6858 27.7264 41.2888 27.7308 40.8918C27.7395 39.9593 28.1935 39.3429 29.0684 39.0079C29.79 38.7322 30.5073 38.4392 31.2115 38.1202C32.085 37.7261 32.8485 37.8314 33.5441 38.4984C33.8304 38.7726 34.0921 39.0758 34.3958 39.3284C34.4956 39.4121 34.766 39.4511 34.8383 39.3833C35.5585 38.7077 36.2555 38.0047 37.0552 37.2122C36.6141 36.8152 36.2078 36.4875 35.8462 36.1165C35.2172 35.4727 35.1203 34.6917 35.4804 33.8761C35.8072 33.137 36.1094 32.3863 36.4044 31.6328C36.7211 30.8258 37.3589 30.3625 38.2222 30.3509C38.6372 30.3451 39.0566 30.3812 39.4658 30.3307C39.6104 30.3134 39.8375 30.0968 39.8432 29.9655C39.8765 29.0647 39.8548 28.161 39.8649 27.2588C39.8678 26.9787 39.7608 26.869 39.4817 26.8777C39.0855 26.8907 38.6878 26.8835 38.2901 26.8806C37.3531 26.8734 36.7284 26.4201 36.3958 25.5554C36.1109 24.8177 35.8101 24.0858 35.4891 23.3626C35.1218 22.5383 35.2215 21.7718 35.8361 21.1179C36.1196 20.8162 36.4377 20.5433 36.7038 20.2272C36.7905 20.1247 36.8426 19.8533 36.7775 19.7855C36.0892 19.0579 35.3734 18.3563 34.6243 17.6071C34.202 18.0445 33.8535 18.4357 33.4732 18.7937C32.8456 19.3856 32.0604 19.4852 31.2708 19.1388C30.5304 18.814 29.7813 18.5065 29.0294 18.212C28.1935 17.8843 27.7409 17.2549 27.7308 16.3512C27.7264 15.9543 27.7264 15.5573 27.7308 15.1603C27.7337 14.8701 27.6136 14.7388 27.3071 14.7474C26.7662 14.7648 26.224 14.7518 25.6831 14.7518C24.7374 14.7518 24.2635 15.2161 24.2616 16.1448C24.2616 16.1997 24.2616 16.2531 24.2616 16.3079C24.2529 17.2751 23.8032 17.8872 22.8994 18.2279C22.227 18.4805 21.5574 18.7476 20.9067 19.0521C19.8959 19.5285 19.1555 19.4231 18.3529 18.6364C18.0232 18.313 17.6877 17.9955 17.4086 17.7255C16.6103 18.531 15.867 19.2817 15.0543 20.1016C15.3971 20.4163 15.7991 20.7541 16.1635 21.128C16.7506 21.7314 16.8706 22.4488 16.5641 23.2255C16.2416 24.044 15.9032 24.8582 15.5561 25.668C15.2279 26.4345 14.6509 26.8618 13.8006 26.8791C13.4217 26.8864 13.0414 26.8965 12.664 26.8763C12.2807 26.856 12.0971 26.9773 12.126 27.3974C12.1564 27.8463 12.1217 28.2996 12.1361 28.75C12.1535 29.2653 12.0103 29.9453 12.2793 30.2426C12.5136 30.5025 13.225 30.3379 13.7268 30.348C14.6306 30.3653 15.264 30.8128 15.5894 31.6443C15.8844 32.3979 16.191 33.1456 16.5163 33.8862C16.8634 34.6773 16.7607 35.4582 16.1765 36.0891C15.8945 36.3937 15.572 36.6622 15.3117 36.9812C15.225 37.0866 15.199 37.3811 15.2756 37.459C15.961 38.1461 16.6769 38.8044 17.4505 39.5363L17.4491 39.5334Z" fill="#EF7B10"/>
<path id="Vector_3" d="M6.85963 2.62295C8.54144 2.62295 10.2175 2.62295 11.8935 2.62295C12.7206 2.62295 12.9983 2.89723 12.9983 3.71862C12.9997 6.45994 12.9997 9.20127 12.9983 11.9426C12.9983 12.6413 12.6975 13.0094 12.1393 13.0123C11.5811 13.0152 11.2717 12.6427 11.2717 11.9513C11.2702 9.44523 11.2717 6.9392 11.2717 4.3509C10.7728 4.3509 10.2941 4.3509 9.81544 4.3509C8.98539 4.3509 8.15533 4.36966 7.32672 4.34223C6.96809 4.33069 6.80613 4.43318 6.6673 4.78541C6.0932 6.24341 4.67893 7.07201 3.09112 6.94209C1.69853 6.8266 0.469354 5.75259 0.110723 4.3379C-0.333227 2.59119 0.616855 0.824273 2.3218 0.226638C4.02385 -0.370997 5.86906 0.415745 6.61669 2.05708C6.69767 2.23608 6.77142 2.41941 6.85819 2.62295H6.85963ZM5.20096 3.50208C5.21109 2.58109 4.41429 1.77269 3.48445 1.75681C2.56474 1.74238 1.74625 2.54644 1.74047 3.47177C1.73468 4.39709 2.52859 5.20548 3.45553 5.21703C4.37525 5.22858 5.19084 4.4274 5.20096 3.50352V3.50208Z" fill="#EF7B10"/>
<path id="Vector_4" d="M45.128 4.36534H40.7217C40.7217 4.56743 40.7217 4.75654 40.7217 4.94565C40.7217 7.20049 40.7217 9.45534 40.7217 11.7087C40.7217 11.8343 40.7246 11.9614 40.7217 12.087C40.7029 12.6485 40.3819 13.0007 39.8801 13.0123C39.3465 13.0253 38.998 12.6716 38.9965 12.0783C38.9907 9.24602 38.9907 6.41519 38.9965 3.58292C38.9965 2.93765 39.3132 2.62729 39.9625 2.6244C41.5503 2.61863 43.1367 2.61429 44.7245 2.62873C45.0397 2.63162 45.1829 2.54067 45.3058 2.23319C45.9811 0.528347 47.7526 -0.342121 49.4865 0.14436C51.1307 0.6063 52.2138 2.27939 51.9651 3.97702C51.7077 5.74394 50.1589 7.03737 48.3412 6.93488C46.9703 6.85837 45.9739 6.15535 45.3723 4.91245C45.3261 4.81573 45.2971 4.71035 45.2538 4.61219C45.2176 4.5299 45.1728 4.45195 45.128 4.36389V4.36534ZM46.791 3.47754C46.7837 4.39854 47.582 5.20549 48.5118 5.21848C49.4272 5.23003 50.2486 4.41875 50.2515 3.49775C50.2543 2.57243 49.459 1.76692 48.5306 1.75826C47.6123 1.74816 46.7982 2.55511 46.791 3.47754Z" fill="#EF7B10"/>
<path id="Vector_5" d="M26.8594 6.87424C26.8594 8.00022 26.8623 9.11753 26.8594 10.2334C26.858 10.9148 26.5369 11.2901 25.9787 11.28C25.4408 11.2699 25.1357 10.9047 25.1328 10.2536C25.1284 9.28065 25.1053 8.30625 25.1443 7.33473C25.1617 6.92043 24.9737 6.79195 24.6426 6.65482C23.2326 6.07162 22.4416 4.73777 22.537 3.15851C22.6195 1.79867 23.6636 0.531225 25.0258 0.138576C26.7943 -0.371001 28.6309 0.567314 29.2585 2.29959C29.8832 4.02609 29.0633 5.9186 27.3713 6.65915C27.2079 6.72988 27.0431 6.79629 26.8594 6.87279V6.87424ZM27.7242 3.50063C27.7343 2.58108 26.9303 1.76403 26.0077 1.75681C25.0851 1.74959 24.2781 2.54355 24.2637 3.4732C24.2492 4.38698 25.0605 5.2127 25.9802 5.21847C26.9042 5.2228 27.7141 4.42596 27.7242 3.50063Z" fill="#EF7B10"/>
<path id="Vector_6" d="M26.0366 19.95C30.7624 19.9457 34.6524 23.8245 34.6567 28.5435C34.6611 33.3982 30.8217 37.2728 26.0076 37.2699C21.1763 37.2684 17.3325 33.4112 17.334 28.5681C17.334 23.787 21.2066 19.9529 26.0366 19.9486V19.95ZM32.9257 28.6085C32.9098 24.8033 29.7805 21.6707 26.0076 21.6794C22.1784 21.6895 19.0534 24.8206 19.065 28.6374C19.0765 32.4224 22.2102 35.5391 26.0091 35.5419C29.7762 35.5448 32.9416 32.3704 32.9257 28.6085Z" fill="#EF7B10"/>
</g>
<defs>
<clipPath id="clip0_573_270">
<rect width="52" height="52" fill="white"/>
</clipPath>
</defs>
</svg>
