<svg width="54" height="62" viewBox="0 0 54 62" fill="none" xmlns="http://www.w3.org/2000/svg">
<g clip-path="url(#clip0_573_475)">
<path d="M29.1975 51.2066C28.0275 52.0607 26.8692 52.9227 25.6915 53.7574C25.4257 53.9457 25.1036 54.1282 24.7913 54.1631C23.8813 54.266 23.3497 53.5303 23.567 52.5072C23.9046 50.9251 24.2577 49.3449 24.605 47.7647C25.1036 45.4993 25.6042 43.2358 26.099 40.9703C26.1378 40.7917 26.1358 40.6015 26.1611 40.3413C23.8076 40.9257 21.5201 40.9354 19.122 40.3219C19.4091 41.6556 19.671 42.8941 19.9407 44.1326C20.5403 46.8698 21.1437 49.607 21.7451 52.3442C21.8868 52.9867 21.9333 53.6176 21.2659 54.0175C20.6489 54.3864 20.1328 54.1243 19.609 53.7399C13.3673 49.1586 7.11593 44.5869 0.868441 40.0133C-0.330611 39.1358 -0.289866 38.2991 0.984853 37.5032C2.17226 36.7597 3.36161 36.022 4.67514 35.2028C3.97278 34.6962 3.35385 34.2186 2.70388 33.7915C2.03645 33.3548 1.29335 33.0247 0.670539 32.5375C0.352344 32.2909 0.0205677 31.7746 0.0651926 31.4271C0.115638 31.0408 0.513382 30.5457 0.883962 30.3788C4.14352 28.917 7.43606 27.5271 10.7034 26.0847C10.9168 25.9896 11.138 25.6518 11.1535 25.415C11.202 24.6928 11.4019 23.7979 11.0643 23.2893C10.7616 22.8351 9.80118 22.8545 9.16673 22.5807C7.55441 21.8838 5.93046 21.2005 4.37829 20.3813C3.74384 20.0474 3.19476 19.4437 2.76791 18.8477C1.82691 17.5374 2.19167 16.0387 3.6022 15.0836C4.8517 14.2372 6.2991 13.9227 7.74261 13.6315C8.61765 13.4549 9.50433 13.3112 10.391 13.2219C10.812 13.1792 10.975 13.0123 11.0565 12.6279C11.6696 9.74707 12.4282 6.88954 12.8803 3.98541C13.4507 0.330015 16.2737 -0.613438 19.122 0.557142C19.38 0.663912 19.5934 0.889098 19.8204 1.06769C21.4832 2.37416 23.9783 2.34893 25.6003 1.00363C28.1284 -1.09293 31.7527 0.269835 32.3775 3.50786C32.9518 6.49546 33.6212 9.46365 34.2362 12.4435C34.341 12.9482 34.5583 13.1637 35.1171 13.253C36.71 13.5073 38.3029 13.814 39.8609 14.2275C40.6118 14.4255 41.3471 14.8254 41.9815 15.2855C43.2563 16.2115 43.5065 17.6829 42.517 18.9079C41.8942 19.6786 41.0968 20.4221 40.2198 20.8453C38.4659 21.6897 36.613 22.3284 34.7795 22.9942C34.3487 23.1495 34.1528 23.2815 34.1489 23.7688C34.1334 25.8634 34.112 25.8751 36.0639 26.7234C38.8753 27.9464 41.7022 29.1306 44.4961 30.3885C44.8453 30.5457 45.2372 31.0388 45.2508 31.3921C45.2663 31.7823 44.9656 32.3181 44.6338 32.5647C43.8034 33.1839 42.8721 33.6615 41.9971 34.2225C41.5722 34.4943 41.188 34.8262 40.6156 35.2611C42.1329 36.1016 43.4503 37.1305 44.9423 37.6061C50.4467 39.3591 54.1176 44.253 53.9934 49.9797C53.8653 55.8889 49.2263 61.1225 43.4406 61.8835C36.45 62.8037 30.4955 58.3795 29.3081 51.3852C29.3023 51.3444 29.2615 51.3114 29.1936 51.2105L29.1975 51.2066ZM41.5586 59.6122C47.028 59.6394 51.5274 55.2133 51.5662 49.7681C51.605 44.1773 47.2124 39.6483 41.7216 39.6192C36.0678 39.5881 31.6305 43.9832 31.6053 49.64C31.5801 55.126 36.0309 59.5851 41.5586 59.6122ZM13.6583 23.7144C13.6312 23.9435 13.6021 24.0833 13.6021 24.2231C13.604 26.1604 13.5943 28.0959 13.6215 30.0333C13.6447 31.728 14.188 33.2693 15.1756 34.6321C17.1565 37.3693 19.8942 38.4603 23.2216 38.3477C26.877 38.2254 30.0706 35.9657 31.2561 32.5045C32.2339 29.6508 31.5801 26.702 31.8168 23.695C25.6973 24.7802 19.6904 24.7744 13.6583 23.7144ZM40.7456 17.5315C40.7282 17.4112 40.7107 17.2908 40.6932 17.1724C40.0588 16.9084 39.4418 16.5764 38.7841 16.3881C35.8097 15.5437 32.7403 15.3554 29.6767 15.2156C23.7047 14.9458 17.7269 14.9089 11.7744 15.5204C9.77208 15.7262 7.79694 16.2386 5.8218 16.6618C5.40854 16.7492 5.04184 17.0559 4.6538 17.2598C4.63633 17.351 4.61887 17.4442 4.60141 17.5354C5.30183 18.0207 5.9615 18.5837 6.71042 18.9758C9.52567 20.4531 12.5912 21.1365 15.7014 21.5907C20.614 22.3109 25.5324 22.2799 30.4353 21.4626C33.301 20.985 36.1163 20.3172 38.7065 18.9467C39.434 18.5623 40.0704 18.0052 40.7495 17.5276L40.7456 17.5315ZM31.776 12.7677C31.7702 12.791 31.7993 12.7424 31.7915 12.7017C31.1959 9.77037 30.6119 6.83518 29.993 3.90776C29.7 2.51782 28.2642 1.94514 27.1583 2.86724C24.6923 4.9211 20.6974 4.95216 18.1713 2.85171C17.0459 1.91408 15.6199 2.55276 15.3502 4.00676C15.1212 5.24141 14.9408 6.48575 14.6905 7.71651C14.3393 9.43453 13.9435 11.1409 13.5846 12.7696H31.776V12.7677ZM4.03681 31.7047C4.19008 31.8328 4.2968 31.924 4.40351 32.0153C5.21064 32.7025 6.08761 33.3237 6.80743 34.0924C7.63008 34.9699 7.73291 36.288 6.30104 37.0393C5.31153 37.5576 4.39575 38.2137 3.37131 38.8563C8.52258 42.6262 13.5768 46.3263 18.6951 50.0709C18.7087 49.8749 18.73 49.8011 18.7145 49.7351C17.9811 46.3631 17.2555 42.9873 16.4891 39.6231C16.4134 39.2931 16.1476 38.9398 15.8702 38.734C13.5652 37.0199 12.0188 34.8068 11.4542 31.9765C11.235 30.8796 11.1923 29.7498 11.0643 28.5792C8.73988 29.6139 6.41551 30.6486 4.03681 31.7066V31.7047ZM26.5549 50.1505C27.4474 49.4963 28.2196 48.9567 28.9569 48.3704C29.1393 48.2248 29.2751 47.9492 29.3197 47.7123C30.3325 42.4923 33.3825 39.1261 38.4659 37.6003C38.7705 37.509 39.079 37.4353 39.5 37.3246C39.2458 37.1557 39.1081 37.0626 38.9703 36.9752C37.8372 36.2511 37.6238 35.3212 38.4232 34.2361C38.7918 33.7372 39.2711 33.3101 39.7425 32.9024C40.2257 32.4831 40.7631 32.1259 41.3238 31.7086C38.9218 30.6389 36.5955 29.6042 34.2071 28.5424C34.1838 28.7617 34.1605 28.8763 34.1625 28.9889C34.2498 33.1451 32.6491 36.4549 29.2518 38.8796C29.0927 38.9941 28.9433 39.2018 28.9006 39.3921C28.1187 42.9271 27.3543 46.466 26.553 50.1525L26.5549 50.1505Z" fill="black"/>
<g clip-path="url(#clip1_573_475)">
<path d="M38.5449 55.1869C38.1235 55.1869 37.7192 55.0167 37.4213 54.7132L34.0241 51.2601C33.6586 50.8882 33.6586 50.2856 34.0241 49.9137C34.3898 49.5421 34.9824 49.5421 35.3481 49.9137L38.5449 53.1645L47.0019 44.5645C47.3676 44.1929 47.9602 44.1929 48.3259 44.5645C48.6914 44.9364 48.6914 45.5389 48.3259 45.9109L39.6685 54.7132C39.3707 55.0167 38.9664 55.1869 38.5449 55.1869Z" fill="#EF7B10"/>
</g>
</g>
<defs>
<clipPath id="clip0_573_475">
<rect width="54" height="62" fill="white"/>
</clipPath>
<clipPath id="clip1_573_475">
<rect width="14.85" height="10.9011" fill="white" transform="translate(33.75 44.2858)"/>
</clipPath>
</defs>
</svg>
