<svg width="160" height="160" viewBox="0 0 160 160" fill="none" xmlns="http://www.w3.org/2000/svg">
<circle cx="80" cy="80" r="80" fill="url(#paint0_linear_281_11898)"/>
<circle cx="80" cy="80" r="61" fill="url(#paint1_linear_281_11898)"/>
<g clip-path="url(#clip0_281_11898)">
<path d="M61.3476 106.771C62.333 101.041 66.1331 94.7726 74.2729 91.9394C71.138 89.5814 69.6059 86.502 69.9651 82.6488C70.2074 80.0428 71.4211 77.8612 73.4343 76.1582C77.6095 72.6264 83.6882 73.0351 87.4511 77.028C90.9328 80.724 91.4281 87.7072 85.7298 91.9604C92.8257 94.5053 97.123 99.41 98.6922 106.966C99.9005 105.707 101.07 104.608 102.1 103.392C106.781 97.8764 108.996 91.4766 108.909 84.3012C108.895 83.0645 108.727 81.8261 108.571 80.5947C108.435 79.5223 108.76 78.855 109.578 78.745C110.409 78.6332 110.943 79.152 111.103 80.2314C111.793 84.8793 111.593 89.4958 110.107 93.9586C106.179 105.75 97.9828 112.908 85.6909 115.495C84.6011 115.724 83.897 115.361 83.7678 114.573C83.6351 113.764 84.0756 113.231 85.0504 113.059C88.4542 112.449 91.6776 111.336 94.6409 109.572C96.6117 108.398 96.4436 108.999 95.9748 106.627C94.6409 99.8624 89.3193 94.8931 82.4109 93.8189C73.6625 92.4582 65.2698 98.479 63.9111 107.092C63.7519 108.1 64.1134 108.866 64.9956 109.389C68.0544 111.205 71.3485 112.397 74.8514 113.05C75.9129 113.247 76.3445 113.764 76.2066 114.582C76.0756 115.348 75.4034 115.701 74.3543 115.509C69.192 114.564 64.5038 112.55 60.4029 109.3C53.7156 104 49.8625 97.1061 48.7444 88.7325C48.3481 85.7702 48.4135 82.7956 48.9655 79.8472C49.1123 79.0611 49.6254 78.6751 50.326 78.745C51.0301 78.8166 51.3892 79.255 51.4794 79.9135C51.506 80.1109 51.437 80.3222 51.4104 80.5266C50.0447 90.8443 53.199 99.5358 61.0239 106.545C61.0982 106.612 61.1884 106.659 61.3494 106.769L61.3476 106.771ZM80.0226 76.2542C75.904 76.228 72.4507 79.6166 72.4383 83.6899C72.4259 87.7282 75.805 91.1045 79.9129 91.1587C84.0208 91.2128 87.4954 87.84 87.5361 83.7597C87.5767 79.6987 84.1535 76.2804 80.0226 76.2542Z" fill="black"/>
<path d="M70.9498 68.6335C71.3655 66.2475 71.8113 63.8074 72.1935 61.3586C72.2465 61.0214 72.1032 60.5306 71.8644 60.2913C70.1873 58.6163 68.4677 56.9849 66.7499 55.3517C66.304 54.9273 65.9962 54.4644 66.1979 53.8461C66.3978 53.2312 66.8932 53.0269 67.5247 52.9413C69.9095 52.6199 72.2855 52.2304 74.6702 51.9195C75.1391 51.8583 75.3478 51.6592 75.5336 51.2854C76.5774 49.1737 77.6495 47.0759 78.6809 44.959C78.9551 44.3913 79.3284 44.0035 79.9741 44C80.6163 43.9965 81.0037 44.3651 81.2832 44.938C82.3146 47.055 83.392 49.151 84.427 51.2662C84.6304 51.6819 84.8781 51.8531 85.3593 51.916C87.7706 52.2321 90.1802 52.5727 92.5756 52.9902C93.0108 53.0653 93.5893 53.4653 93.7167 53.8408C93.8441 54.2199 93.6318 54.8888 93.3257 55.1998C91.6468 56.908 89.9042 58.5551 88.1598 60.1988C87.7795 60.5568 87.6556 60.8852 87.7547 61.4162C88.1899 63.7253 88.5561 66.0484 88.9701 68.361C89.0745 68.9444 89.0179 69.4527 88.5137 69.8195C87.9776 70.209 87.4363 70.0745 86.8932 69.7915C84.8127 68.7034 82.718 67.6396 80.6481 66.5305C80.1775 66.2772 79.8131 66.2737 79.3443 66.5235C77.2266 67.6536 75.0966 68.7593 72.9577 69.8492C71.9051 70.3854 70.879 69.7758 70.9515 68.6317L70.9498 68.6335ZM89.4743 55.0618C88.0661 54.8487 86.4756 54.4976 84.8693 54.4015C83.4681 54.3194 82.7021 53.7203 82.1802 52.4767C81.5645 51.013 80.7755 49.6208 79.9865 48.0453C79.3001 49.4147 78.6985 50.6339 78.0794 51.8444C76.7171 54.5098 77.3717 54.026 74.2457 54.5046C72.9347 54.7054 71.6203 54.8906 70.4314 55.0653C71.4557 56.1534 72.3934 57.3534 73.5415 58.3106C74.7817 59.3464 75.1408 60.4276 74.7145 61.9734C74.3182 63.4039 74.1873 64.9061 73.9166 66.5148C75.645 65.6222 77.262 64.8397 78.8206 63.9594C79.6468 63.493 80.3332 63.4947 81.1559 63.9559C82.7162 64.831 84.3297 65.6152 86.0652 66.5113C85.7291 64.562 85.4407 62.7576 85.0957 60.9638C84.9507 60.2075 85.1099 59.6416 85.6689 59.0809C86.971 57.7744 88.2094 56.405 89.4743 55.06V55.0618Z" fill="#EF7B10"/>
<path d="M68.6554 62.6143C68.5387 62.782 68.3458 63.175 68.0504 63.4685C66.7749 64.7331 65.4533 65.954 64.1937 67.2308C63.9672 67.4614 63.8045 67.9085 63.8505 68.2212C64.1159 70.0343 64.4962 71.8316 64.7368 73.6464C64.7952 74.0813 64.5776 74.6507 64.291 75.0053C63.9301 75.4525 63.3534 75.3529 62.8474 75.0892C61.2056 74.2333 59.5533 73.3931 57.9239 72.5163C57.5117 72.2945 57.195 72.2805 56.774 72.5058C55.1658 73.3704 53.5312 74.1826 51.9177 75.0368C51.3887 75.3162 50.8845 75.4245 50.3786 75.0455C49.8921 74.6804 49.7824 74.2018 49.8974 73.601C50.2406 71.8002 50.5555 69.9941 50.8262 68.1828C50.8704 67.8893 50.7165 67.4701 50.5042 67.2553C49.241 65.9802 47.9389 64.7401 46.6351 63.5052C46.168 63.0632 45.8425 62.5829 46.0814 61.9331C46.3184 61.2851 46.8881 61.1262 47.5214 61.0423C49.3348 60.8013 51.1481 60.5463 52.9544 60.2528C53.1986 60.2127 53.4834 59.9559 53.6037 59.7253C54.3963 58.2127 55.1623 56.6861 55.9053 55.1508C56.2132 54.515 56.5351 53.9298 57.356 53.9403C58.1344 53.9491 58.4564 54.5045 58.7519 55.1176C59.4843 56.632 60.2574 58.1254 60.9898 59.638C61.1862 60.0432 61.4126 60.2458 61.9097 60.3035C63.7266 60.5166 65.5347 60.803 67.3463 61.0685C68.1884 61.1926 68.6554 61.6589 68.6572 62.6178L68.6554 62.6143ZM61.8443 71.7198C61.6338 70.4517 61.5329 69.3181 61.241 68.2334C60.942 67.1208 61.2976 66.375 62.1291 65.6536C62.9783 64.9165 63.716 64.0571 64.5387 63.2152C63.3233 63.0458 62.161 62.8536 60.9933 62.7279C60.0592 62.6283 59.3976 62.2842 59.0119 61.3637C58.5484 60.2581 57.9469 59.2083 57.333 57.9909C56.751 59.1524 56.1778 60.1341 55.7567 61.1768C55.3304 62.2301 54.6068 62.665 53.4975 62.7506C52.3759 62.8362 51.2667 63.0615 50.1698 63.2239C51.0898 64.1689 51.9283 65.0929 52.8377 65.9435C53.4569 66.5217 53.655 67.1243 53.4728 67.9505C53.2092 69.1487 53.05 70.3679 52.82 71.732C54.0707 71.084 55.1941 70.5408 56.2751 69.926C57.0146 69.5068 57.6709 69.5068 58.4086 69.926C59.4878 70.5373 60.6077 71.0788 61.8461 71.7216L61.8443 71.7198Z" fill="#EF7B10"/>
<path d="M96.5636 75.2989C95.649 75.3111 95.0368 74.5915 95.1748 73.7758C95.4827 71.9435 95.7905 70.1095 96.1408 68.2842C96.2292 67.8196 96.1302 67.5174 95.7887 67.196C94.4796 65.9646 93.204 64.7 91.9002 63.4651C91.4508 63.0389 91.166 62.5673 91.3783 61.9525C91.5888 61.3359 92.1178 61.135 92.7264 61.0512C94.5662 60.7997 96.4061 60.5516 98.2372 60.2512C98.5008 60.2075 98.8051 59.9263 98.936 59.6748C99.7639 58.094 100.565 56.4976 101.338 54.8906C101.613 54.3195 101.995 53.9422 102.637 53.9404C103.281 53.9404 103.665 54.316 103.939 54.8854C104.714 56.4941 105.537 58.0783 106.32 59.6818C106.508 60.0643 106.729 60.2407 107.191 60.2966C109.008 60.5132 110.825 60.7542 112.62 61.0913C113.087 61.1787 113.616 61.5664 113.869 61.9682C114.186 62.4677 113.866 62.997 113.436 63.4092C112.135 64.6493 110.858 65.9139 109.545 67.1401C109.163 67.4982 109.045 67.8248 109.149 68.3575C109.501 70.1304 109.818 71.912 110.053 73.7024C110.108 74.1146 109.889 74.6578 109.611 74.9949C109.245 75.4403 108.677 75.3652 108.169 75.1015C106.527 74.2456 104.875 73.409 103.247 72.5269C102.803 72.2858 102.464 72.2981 102.027 72.5339C100.42 73.3985 98.7927 74.2264 97.1686 75.0596C96.9404 75.1766 96.6892 75.2517 96.5601 75.3024L96.5636 75.2989ZM109.843 63.2118C108.587 63.0372 107.373 62.8433 106.152 62.707C105.294 62.611 104.716 62.2581 104.358 61.4407C103.867 60.3158 103.267 59.2364 102.641 57.991C102.071 59.1211 101.496 60.0748 101.1 61.0966C100.663 62.218 99.9037 62.6721 98.7343 62.7542C97.6375 62.8328 96.5512 63.0616 95.4667 63.224C96.4221 64.2022 97.3049 65.1524 98.246 66.0449C98.8033 66.5724 98.9395 67.1401 98.7962 67.8632C98.5503 69.0946 98.3593 70.3383 98.1187 71.7339C99.3924 71.0719 100.534 70.5112 101.643 69.8946C102.329 69.5121 102.948 69.5069 103.635 69.8876C104.746 70.5025 105.885 71.0649 107.161 71.7269C106.92 70.333 106.727 69.0929 106.483 67.8615C106.34 67.1384 106.478 66.5742 107.039 66.0467C107.983 65.1594 108.864 64.2074 109.841 63.2136L109.843 63.2118Z" fill="#EF7B10"/>
<path d="M81.2393 114.777C81.2323 115.471 80.6927 115.998 79.9903 116.002C79.2561 116.005 78.7042 115.438 78.7325 114.711C78.759 114.019 79.311 113.511 80.0186 113.527C80.7192 113.544 81.2464 114.082 81.2376 114.777H81.2393Z" fill="black"/>
</g>
<defs>
<linearGradient id="paint0_linear_281_11898" x1="130.11" y1="21.0989" x2="33.4066" y2="146.813" gradientUnits="userSpaceOnUse">
<stop stop-color="#FBFBFB"/>
<stop offset="1" stop-color="#EFF1F3"/>
</linearGradient>
<linearGradient id="paint1_linear_281_11898" x1="118.209" y1="35.0879" x2="44.4725" y2="130.945" gradientUnits="userSpaceOnUse">
<stop stop-color="#EEF0F2"/>
<stop offset="1" stop-color="#FDFEFE"/>
</linearGradient>
<clipPath id="clip0_281_11898">
<rect width="68" height="72" fill="white" transform="translate(46 44)"/>
</clipPath>
</defs>
</svg>
