<svg width="108" height="97" viewBox="0 0 108 97" fill="none" xmlns="http://www.w3.org/2000/svg">
<g id="Isolation_Mode" clip-path="url(#clip0_548_456)">
<path id="Vector" d="M0.000234375 81.4C0.530234 79.29 1.24023 77.27 2.62023 75.54C5.84023 71.54 10.1302 69.66 15.1502 69.26C16.5502 69.15 18.1302 67.39 17.9102 66.02C17.8702 65.75 17.5102 65.49 17.2502 65.3C13.5002 62.55 11.5502 58.84 11.5802 54.2C11.6302 47.24 17.2502 41.6 24.3802 41.21C30.8502 40.86 37.0802 46 37.8902 52.51C38.5502 57.76 36.7302 62.06 32.4402 65.2C31.6802 65.76 31.6002 66.24 31.8702 67.01C32.3802 68.47 33.2702 69.13 34.8402 69.29C39.4502 69.76 43.4802 71.46 46.5602 75.04C48.6002 77.4 49.6402 80.16 49.6502 83.29C49.6602 87.24 49.6502 91.18 49.6502 95.13C49.6502 96.58 49.3102 96.93 47.8802 96.93C32.5102 96.93 17.1402 96.93 1.77023 96.9C1.17023 96.9 0.580234 96.51 -0.00976562 96.3C-0.00976562 91.34 -0.00976562 86.37 -0.00976562 81.41L0.000234375 81.4ZM2.34023 94.5H47.1602C47.1902 94.27 47.2402 94.1 47.2402 93.93C47.2402 90.09 47.2402 86.25 47.2202 82.41C47.2202 82.03 47.1702 81.64 47.0902 81.27C45.8702 75.26 39.7402 72.03 34.9702 71.75C34.7202 71.74 34.2902 72.14 34.2002 72.43C33.6102 74.18 32.5902 75.61 31.0902 76.66C28.1202 78.73 24.8602 79.2 21.4302 78.1C18.2602 77.08 16.1202 75 15.2502 71.7C13.0202 71.75 10.9802 72.31 9.08023 73.3C4.70023 75.59 2.21023 79.06 2.34023 84.2C2.42023 87.24 2.35023 90.28 2.35023 93.32C2.35023 93.69 2.35023 94.07 2.35023 94.51L2.34023 94.5ZM14.0002 54.48C14.0202 60.5 18.8502 65.29 24.8802 65.27C30.8602 65.25 35.6802 60.37 35.6602 54.35C35.6402 48.38 30.7402 43.58 24.7002 43.62C18.7502 43.65 13.9802 48.49 14.0002 54.48ZM20.5202 66.97C19.7902 68.12 19.3102 69.37 18.4302 70.16C17.4302 71.06 17.6302 71.81 18.1402 72.68C19.5802 75.15 21.8602 76.16 24.6002 76.22C27.4102 76.28 29.8202 75.36 31.3802 72.87C32.1802 71.6 32.0402 71.27 31.0902 70.12C30.4802 69.38 30.0802 68.48 29.6002 67.64C29.4702 67.41 29.4002 67.16 29.3002 66.9C26.2502 67.96 23.2702 67.92 20.5202 66.98V66.97Z" fill="black"/>
<path id="Vector_2" d="M82.5196 96.91C74.8696 96.91 67.2196 96.91 59.5696 96.91C57.9996 96.91 57.6996 96.61 57.6996 95C57.6996 91.4 57.7596 87.8 57.6896 84.21C57.5596 78.06 60.5696 73.9 65.8196 71.14C68.0696 69.96 70.5096 69.38 73.0496 69.25C74.3096 69.18 75.9496 67.2 75.6796 65.98C75.6196 65.71 75.2596 65.48 74.9896 65.28C69.8496 61.58 67.9596 55.11 70.3396 49.38C72.6896 43.75 78.4896 40.5 84.6696 41.37C90.2896 42.16 94.9296 46.91 95.6496 52.74C96.2896 57.95 94.3596 62.11 90.1896 65.2C89.4696 65.73 89.3796 66.22 89.6196 66.94C90.0996 68.41 91.0496 69.1 92.5496 69.27C98.4696 69.93 103.31 72.36 106.18 77.86C107.01 79.46 107.39 81.19 107.39 83C107.38 87.05 107.39 91.1 107.39 95.16C107.39 96.63 107.11 96.91 105.6 96.91C97.9096 96.91 90.2296 96.91 82.5396 96.91H82.5196ZM92.2296 71.61C90.4296 76.09 88.2496 77.93 83.8796 78.56C79.3296 79.22 74.3096 76.61 73.1496 72.29C73.0796 72.04 72.5496 71.74 72.2596 71.76C69.6696 71.96 67.2796 72.79 65.1496 74.28C62.1696 76.37 60.1996 79.1 60.1396 82.88C60.0796 86.55 60.1196 90.21 60.1296 93.88C60.1296 94.08 60.1796 94.28 60.2096 94.49H104.95C104.98 94.28 105.02 94.14 105.02 94.01C105.02 90.34 105.08 86.67 104.99 83.01C104.96 81.85 104.73 80.62 104.27 79.56C102.01 74.33 97.5796 72.31 92.2196 71.61H92.2296ZM93.3696 54.47C93.3696 48.48 88.6096 43.65 82.6496 43.63C76.6196 43.6 71.7296 48.41 71.7096 54.38C71.6896 60.39 76.5196 65.27 82.5096 65.28C88.5396 65.29 93.3596 60.5 93.3696 54.47ZM78.2496 66.97C77.5296 68.14 76.9896 69.23 76.2396 70.16C75.3496 71.27 75.1696 71.6 75.9596 72.82C76.3996 73.51 76.9596 74.2 77.6196 74.66C80.4696 76.67 83.5196 76.76 86.6096 75.24C88.0896 74.51 89.1796 73.33 89.6096 71.67C89.6796 71.41 89.6796 70.97 89.5296 70.84C88.2996 69.79 87.5096 68.49 87.0896 66.88C84.0496 67.92 81.0696 67.93 78.2496 66.96V66.97Z" fill="black"/>
<path id="Vector_3" d="M99.2204 15.47C99.2004 22.26 94.3704 28.29 87.3904 30.2C85.0804 30.83 82.7304 31.0299 80.3404 30.7199C79.9304 30.67 79.4404 30.7999 79.0704 30.99C76.5504 32.3299 74.0504 33.72 71.5404 35.09C70.9304 35.42 70.3304 35.8899 69.6204 35.3499C68.9204 34.82 69.1604 34.11 69.3304 33.43C69.8204 31.4 70.3404 29.3699 70.7804 27.33C70.8604 26.9699 70.7504 26.4 70.5004 26.15C61.6904 17.45 66.0004 3.60995 78.3504 0.519951C85.6404 -1.30005 93.3204 1.75995 97.0704 7.82995C98.5304 10.2 99.2404 12.7 99.2304 15.47H99.2204ZM72.1004 32.08C74.3404 30.85 76.3704 29.6999 78.4304 28.6299C78.9104 28.3799 79.5604 28.26 80.1004 28.33C83.7104 28.76 87.1204 28.24 90.2904 26.4C96.9604 22.5299 98.8804 14.33 94.5204 8.28995C90.3904 2.55995 81.9804 0.699951 75.5304 4.07995C67.0704 8.50995 65.7404 18.5799 72.8004 24.9599C73.4904 25.5899 73.5204 26.24 73.3304 27.03C72.9304 28.64 72.5404 30.25 72.1004 32.08Z" fill="#EF7B10"/>
<path id="Vector_4" d="M8.09961 15.4101C8.15961 8.43005 13.1796 2.40005 20.4896 0.550054C27.6196 -1.24995 35.3396 1.65005 39.1596 7.56005C42.9196 13.3901 42.1396 20.7501 37.1596 25.8001C36.5596 26.4101 36.4296 26.9201 36.6496 27.7201C37.1796 29.6301 37.6496 31.5601 38.0396 33.5101C38.1496 34.0801 38.0696 34.8801 37.7396 35.3101C37.2496 35.9601 36.5396 35.5001 35.9496 35.1701C33.4096 33.7801 30.8796 32.3701 28.3296 31.0101C27.9096 30.7901 27.3396 30.7001 26.8596 30.7501C18.2796 31.7701 9.71961 26.2801 8.30961 17.6901C8.18961 16.9401 8.16961 16.1601 8.10961 15.4001L8.09961 15.4101ZM35.2396 32.0701C34.8296 30.3201 34.5396 28.7901 34.0896 27.3001C33.7496 26.1801 33.9996 25.4501 34.8896 24.6601C40.1096 20.0401 40.5296 12.4701 35.9196 7.24005C30.7596 1.38005 21.3896 0.770054 15.1096 5.89005C9.16961 10.7301 8.94961 19.5301 14.6696 24.6201C18.2496 27.8101 22.4796 28.8901 27.1996 28.3401C27.7696 28.2701 28.4496 28.3901 28.9696 28.6501C31.0096 29.7001 33.0096 30.8301 35.2596 32.0601L35.2396 32.0701Z" fill="#EF7B10"/>
<path id="Vector_5" d="M82.5105 14.29C85.2305 14.29 87.9505 14.3 90.6705 14.29C91.5005 14.29 92.1505 14.48 92.2405 15.42C92.3105 16.18 91.7105 16.62 90.6505 16.62C85.2405 16.62 79.8305 16.62 74.4305 16.63C73.5905 16.63 72.9605 16.41 72.8605 15.49C72.7805 14.74 73.3905 14.3 74.4605 14.3C77.1505 14.3 79.8305 14.3 82.5205 14.3L82.5105 14.29Z" fill="#EF7B10"/>
<path id="Vector_6" d="M82.5104 19.96C85.2304 19.96 87.9504 19.97 90.6704 19.96C91.5104 19.96 92.1404 20.16 92.2404 21.09C92.3104 21.85 91.7204 22.29 90.6504 22.29C85.2404 22.29 79.8304 22.29 74.4304 22.3C73.5904 22.3 72.9604 22.08 72.8604 21.16C72.7804 20.41 73.4004 19.97 74.4604 19.96C77.1504 19.96 79.8304 19.96 82.5204 19.96H82.5104Z" fill="#EF7B10"/>
<path id="Vector_7" d="M82.6293 10.94C79.8693 10.94 77.1193 10.92 74.3593 10.94C73.4893 10.94 72.8593 10.65 72.8693 9.73996C72.8693 8.88996 73.4893 8.57996 74.2993 8.57996C79.8093 8.57996 85.3293 8.57996 90.8393 8.57996C91.6493 8.57996 92.2493 8.91996 92.2293 9.77996C92.2093 10.63 91.6193 10.93 90.7993 10.93C88.0793 10.91 85.3593 10.93 82.6393 10.93L82.6293 10.94Z" fill="#EF7B10"/>
<path id="Vector_8" d="M24.8206 16.61C22.1006 16.61 19.3806 16.6 16.6606 16.61C15.8106 16.61 15.1506 16.37 15.1406 15.44C15.1406 14.51 15.8006 14.27 16.6506 14.27C22.0906 14.28 27.5306 14.29 32.9806 14.27C33.8406 14.27 34.5006 14.53 34.5006 15.44C34.5006 16.34 33.8406 16.62 32.9806 16.61C30.2606 16.58 27.5406 16.61 24.8206 16.61Z" fill="#EF7B10"/>
<path id="Vector_9" d="M24.7805 19.9599C27.5005 19.9599 30.2205 19.98 32.9405 19.95C33.7905 19.95 34.4105 20.17 34.5105 21.09C34.5905 21.84 33.9705 22.29 32.9105 22.29C27.5005 22.29 22.0905 22.29 16.6905 22.29C15.8605 22.29 15.2105 22.09 15.1305 21.15C15.0605 20.39 15.6605 19.9599 16.7205 19.9599C19.4105 19.9599 22.0905 19.9599 24.7805 19.9599Z" fill="#EF7B10"/>
<path id="Vector_10" d="M24.7391 10.94C22.0491 10.94 19.3691 10.93 16.6791 10.94C15.8391 10.94 15.1591 10.72 15.1391 9.79997C15.1191 8.86997 15.7791 8.58997 16.6191 8.58997C22.0991 8.58997 27.5791 8.58997 33.0491 8.58997C33.8591 8.58997 34.4791 8.89997 34.4891 9.73997C34.4891 10.64 33.8691 10.95 32.9991 10.94C30.2391 10.92 27.4891 10.94 24.7291 10.94H24.7391Z" fill="#EF7B10"/>
</g>
<defs>
<clipPath id="clip0_548_456">
<rect width="107.37" height="96.91" fill="white"/>
</clipPath>
</defs>
</svg>
