<svg width="42" height="42" viewBox="0 0 42 42" fill="none" xmlns="http://www.w3.org/2000/svg">
<g id="Layer_1" clip-path="url(#clip0_548_43)">
<path id="Vector" d="M42.0008 17.3057C41.8649 18.0957 41.786 18.9021 41.5822 19.6746C39.908 26.0449 35.8823 30.0968 29.4954 31.7228C28.3328 32.0186 27.0946 32.1041 25.8883 32.1315C23.2794 32.1907 20.6672 32.1633 18.0561 32.1446C16.6382 32.1337 15.4636 32.6114 14.4632 33.6271C12.1326 35.9927 9.7779 38.3364 7.41992 40.6757C5.68539 42.397 3.06224 42.443 1.33539 40.8083C-0.424335 39.1417 -0.452824 36.3817 1.29704 34.6088C3.10169 32.7801 4.92825 30.9722 6.74495 29.1545C7.32459 28.5749 7.89984 27.9887 8.48605 27.4156C9.41632 26.5062 9.85132 25.3974 9.85022 24.1056C9.84913 21.454 9.84803 18.8024 9.85022 16.1508C9.8557 8.24763 15.388 1.63843 23.1654 0.243612C23.6727 0.15267 24.1844 0.0814502 24.6939 0.00146484C25.5146 0.00146484 26.3342 0.00146484 27.1549 0.00146484C27.9438 0.13733 28.7481 0.21622 29.5206 0.417827C35.8735 2.0767 39.8915 6.10008 41.5768 12.4386C41.785 13.2232 41.8627 14.0427 42.0008 14.8459V17.3068V17.3057ZM15.8745 31.2177C17.3143 30.7487 18.7431 30.9503 20.1555 30.9295C22.0138 30.9021 23.8721 30.9251 25.7305 30.9218C27.0048 30.9196 28.2638 30.786 29.5008 30.4737C37.3867 28.4861 42.1542 20.6958 40.3704 12.7148C38.4945 4.32396 29.5074 -0.76004 21.3586 1.96165C15.1524 4.0336 11.1059 9.61834 11.0796 16.1596C11.0687 18.8375 11.0895 21.5164 11.0687 24.1943C11.0643 24.7334 10.9383 25.2725 10.8681 25.8115C10.8572 25.8981 10.8473 25.9858 10.8309 26.1194C12.3156 25.9244 13.6085 26.2619 14.6637 27.3083C15.732 28.3678 16.0739 29.6706 15.8745 31.2177ZM14.6933 30.7235C14.6933 29.1402 13.9756 28.0161 12.8514 27.5603C11.6045 27.0541 10.4452 27.2469 9.48644 28.1914C7.0156 30.6271 4.56338 33.0825 2.12431 35.5511C0.915729 36.775 0.948601 38.6629 2.14732 39.8594C3.33069 41.0405 5.18794 41.0625 6.42829 39.8988C6.86658 39.4879 7.28295 39.0541 7.70809 38.6289C9.69792 36.6392 11.6845 34.6461 13.6798 32.6618C14.3197 32.0252 14.6845 31.2801 14.6922 30.7257L14.6933 30.7235Z" fill="black"/>
<path id="Vector_2" d="M12.2949 16.5187C12.3355 13.0004 13.2624 10.2448 15.1076 7.80027C15.2062 7.66988 15.306 7.53839 15.4166 7.41787C15.6807 7.13189 16.0182 7.09464 16.291 7.31378C16.5529 7.52306 16.5912 7.88792 16.3754 8.19691C16.039 8.67791 15.6643 9.13482 15.3607 9.63555C10.9308 16.9624 15.0057 26.381 23.3836 28.1943C30.0938 29.6472 36.8807 25.1078 38.0783 18.3671C39.2704 11.6582 35.0881 5.35359 28.4502 3.96645C24.762 3.19618 21.3828 4.02013 18.3619 6.28054C18.2523 6.36272 18.1504 6.45366 18.0376 6.53036C17.7297 6.74073 17.3604 6.698 17.1555 6.43394C16.9419 6.15892 16.9561 5.78091 17.2772 5.56615C18.2282 4.93175 19.153 4.22503 20.1808 3.74292C28.1204 0.012099 37.491 4.73233 39.2715 13.3236C40.811 20.7513 35.9515 27.9982 28.4546 29.4533C21.2108 30.8602 14.07 26.0884 12.5875 18.8273C12.4023 17.9223 12.353 16.9898 12.2949 16.5198V16.5187Z" fill="black"/>
<path id="Vector_3" d="M25.9096 23.2024C23.5867 23.2024 21.2638 23.2122 18.9409 23.1991C17.1581 23.1881 15.7578 21.7385 15.8608 19.9734C15.8882 19.5 16.0372 18.9916 16.2717 18.5808C18.576 14.5398 20.8989 10.5099 23.2405 6.48981C24.4688 4.38061 27.3735 4.37404 28.5996 6.47776C30.9357 10.4858 33.2542 14.5037 35.5585 18.5304C36.789 20.6801 35.3153 23.1914 32.8357 23.2013C30.527 23.2111 28.2172 23.2035 25.9085 23.2035L25.9096 23.2024ZM25.9075 21.9566C26.0028 21.9566 26.0992 21.9566 26.1945 21.9566C28.3936 21.9566 30.5938 21.9675 32.7929 21.9522C34.362 21.9423 35.2496 20.4982 34.4858 19.1648C32.1826 15.1403 29.8641 11.1235 27.5313 7.11545C26.7753 5.81706 25.0692 5.82035 24.3132 7.11874C21.9815 11.1279 19.664 15.1458 17.3663 19.1746C17.1822 19.4968 17.0902 19.9339 17.122 20.3043C17.2085 21.3353 17.9854 21.9511 19.1041 21.9544C21.3723 21.9599 23.6393 21.9555 25.9075 21.9555V21.9566Z" fill="#EF7B10"/>
<path id="Vector_4" d="M27.7863 12.2421C27.7863 12.802 27.8006 13.363 27.7831 13.9229C27.7513 14.9364 27.0895 15.6793 26.1274 15.8097C25.31 15.9203 24.4608 15.3791 24.1781 14.5628C24.1518 14.4861 24.119 14.405 24.119 14.3261C24.1146 12.9214 24.0598 11.5135 24.1354 10.1132C24.1771 9.33523 24.7468 8.84655 25.5018 8.66248C26.226 8.48717 26.8517 8.7085 27.3437 9.27168C27.6636 9.63874 27.782 10.0836 27.7863 10.5602C27.7918 11.1201 27.7874 11.6811 27.7863 12.241V12.2421ZM26.5208 12.2366C26.5208 11.6778 26.5252 11.119 26.5197 10.5613C26.5142 10.1219 26.2666 9.83816 25.9116 9.84692C25.5697 9.85569 25.3319 10.1274 25.3297 10.5449C25.3243 11.6482 25.3243 12.7516 25.3297 13.855C25.3319 14.3064 25.5686 14.5704 25.9368 14.5628C26.2907 14.5551 26.5142 14.2998 26.5197 13.8714C26.5274 13.3268 26.5219 12.7812 26.5219 12.2366H26.5208Z" fill="#EF7B10"/>
<path id="Vector_5" d="M25.915 17.0424C26.9373 17.038 27.7755 17.8597 27.7832 18.8754C27.7908 19.8769 26.9395 20.7348 25.9347 20.7403C24.9321 20.7458 24.0764 19.8999 24.0665 18.893C24.0566 17.886 24.897 17.0456 25.9161 17.0413L25.915 17.0424ZM26.5154 18.8645C26.5067 18.527 26.2503 18.2805 25.9161 18.2849C25.5665 18.2893 25.3156 18.5643 25.3342 18.9226C25.3507 19.2535 25.6257 19.5033 25.9533 19.4868C26.2842 19.4704 26.5253 19.2042 26.5154 18.8656V18.8645Z" fill="#EF7B10"/>
</g>
<defs>
<clipPath id="clip0_548_43">
<rect width="42" height="42" fill="white"/>
</clipPath>
</defs>
</svg>
