<svg width="156" height="174" viewBox="0 0 156 174" fill="none" xmlns="http://www.w3.org/2000/svg">
<path d="M66.1059 170.808L11.8941 139.465C4.53211 135.209 0 127.349 0 118.838V56.1624C0 47.6508 4.53211 39.7906 11.8941 35.5349L66.1059 4.19184C73.4679 -0.0639473 82.5321 -0.0639473 89.8941 4.19184L144.106 35.5349C151.468 39.7906 156 47.6508 156 56.1624V118.838C156 127.349 151.468 135.209 144.106 139.465L89.8941 170.808C82.5321 175.064 73.4679 175.064 66.1059 170.808Z" fill="url(#paint0_linear_888_22)"/>
<path d="M68.9701 154.454L25.5353 129.455C19.634 126.06 16 119.789 16 112.999V63.0015C16 56.2112 19.634 49.94 25.5353 46.5449L68.9701 21.5463C74.8714 18.1512 82.1395 18.1512 88.0299 21.5463L131.465 46.5449C137.366 49.94 141 56.2112 141 63.0015V112.999C141 119.789 137.366 126.06 131.465 129.455L88.0299 154.454C82.1286 157.849 74.8605 157.849 68.9701 154.454Z" fill="url(#paint1_linear_888_22)"/>
<circle cx="38.5" cy="26.5" r="23.5" fill="#EFF2F4" stroke="white" stroke-width="6"/>
<path d="M42.1456 18.5455V36H37.407V22.9091H37.3047L33.4865 25.1932V21.1705L37.782 18.5455H42.1456Z" fill="#003671"/>
<g clip-path="url(#clip0_888_22)">
<path d="M55.6879 76.3019C55.6879 75.7169 55.6879 75.25 55.6879 74.7851C55.6879 70.7312 55.686 66.6772 55.6879 62.6232C55.6879 61.3999 56.0665 61.0039 57.2334 61.0039C71.4068 61 85.5763 61 99.7478 61C100.932 61 101.311 61.3881 101.311 62.6035C101.315 66.8545 101.311 71.1054 101.311 75.3564C101.311 75.646 101.311 75.9336 101.311 76.3019C102.516 76.3019 103.65 76.3019 104.784 76.3019C107.151 76.3059 108.817 77.8838 108.98 80.2752C108.992 80.4466 108.995 80.6179 108.995 80.7913C108.995 91.0858 109.007 101.382 108.974 111.677C108.972 112.483 108.805 113.365 108.45 114.078C107.695 115.591 106.339 116.239 104.675 116.237C98.4644 116.237 92.2514 116.237 86.0404 116.237H84.9317C85.3899 117.315 85.7083 118.288 86.1976 119.162C87.481 121.461 89.3507 123.256 91.2981 124.97C91.4806 125.131 91.7505 125.263 91.8204 125.466C91.9466 125.836 92.1 126.311 91.9699 126.624C91.8417 126.932 91.3835 127.113 91.0438 127.302C90.9117 127.375 90.7098 127.32 90.5409 127.32C83.1649 127.32 75.787 127.32 68.411 127.32C68.3391 127.32 68.2653 127.316 68.1935 127.32C67.5975 127.363 67.1315 127.148 66.9237 126.559C66.7102 125.96 67.0189 125.547 67.4499 125.155C68.7643 123.955 70.1195 122.795 71.335 121.499C72.6805 120.065 73.7522 118.428 73.9483 116.233C73.6415 116.233 73.3658 116.233 73.0901 116.233C66.2481 116.233 59.4041 116.233 52.562 116.233C49.6924 116.233 48.011 114.571 48.009 111.691C48.0013 101.396 48.0032 91.0996 48.009 80.8051C48.009 78.4038 49.3215 76.625 51.4048 76.3532C52.5037 76.2094 53.6337 76.3079 54.7482 76.298C55.0336 76.296 55.319 76.298 55.6918 76.298L55.6879 76.3019ZM98.9925 108.316V63.3599H57.9984V108.316H98.9945H98.9925ZM50.2729 110.802C50.2729 111.346 50.2146 111.864 50.2845 112.36C50.434 113.418 51.201 113.924 52.5484 113.924C69.8458 113.924 87.1432 113.924 104.441 113.924C104.658 113.924 104.877 113.93 105.095 113.911C105.844 113.84 106.409 113.442 106.6 112.723C106.761 112.11 106.734 111.448 106.79 110.802H50.2729ZM55.6316 108.431V78.5535C54.5599 78.5535 53.5464 78.5476 52.5329 78.5535C50.8981 78.5634 50.2496 79.2272 50.2496 80.8917C50.2496 89.8093 50.2496 98.7289 50.2496 107.647C50.2496 107.905 50.2496 108.165 50.2496 108.431H55.6335H55.6316ZM106.755 108.432V107.493C106.755 100.443 106.755 93.3906 106.755 86.3404C106.755 84.4237 106.761 82.507 106.751 80.5923C106.745 79.6153 106.268 78.7564 105.472 78.6914C104.114 78.5791 102.74 78.6599 101.371 78.6599V108.432H106.755ZM71.1175 124.985H88.0072C85.6792 122.357 83.3998 119.834 82.7941 116.3H76.2258C75.82 119.986 73.461 122.423 71.1175 124.985Z" fill="black"/>
<path d="M79.3706 129.691C84.341 129.691 89.3114 129.691 94.2798 129.695C94.5652 129.695 94.9439 129.658 95.1147 129.817C95.4176 130.103 95.769 130.523 95.7729 130.893C95.7768 131.224 95.3924 131.622 95.0875 131.872C94.8973 132.028 94.5322 131.994 94.2468 131.994C84.3546 132 74.4643 131.998 64.572 131.994C64.3312 131.994 64.0847 131.984 63.8536 131.923C63.2847 131.774 63.0032 131.37 63.0246 130.785C63.0459 130.19 63.4012 129.841 63.9546 129.717C64.1856 129.664 64.438 129.691 64.6788 129.691C69.5754 129.691 74.474 129.691 79.3706 129.691Z" fill="black"/>
<path d="M59.817 131.998C59.6714 131.998 59.5277 132.004 59.3821 131.998C58.5725 131.955 58.0929 131.498 58.1181 130.798C58.1414 130.131 58.6152 129.717 59.3918 129.695C59.7044 129.685 60.0189 129.683 60.3335 129.695C61.0751 129.725 61.5838 130.2 61.5819 130.846C61.5799 131.452 61.0907 131.931 60.3956 131.992C60.2034 132.01 60.0092 131.994 59.817 131.994V131.998Z" fill="black"/>
<path d="M98.9813 131.984C98.7638 131.984 98.5444 132.01 98.3308 131.98C97.6746 131.884 97.2649 131.403 97.2902 130.789C97.3154 130.176 97.76 129.741 98.4299 129.697C98.7658 129.676 99.1055 129.685 99.4434 129.693C100.234 129.713 100.762 130.186 100.754 130.854C100.746 131.488 100.237 131.951 99.488 131.996C99.3191 132.006 99.1502 131.996 98.9813 131.996C98.9813 131.992 98.9813 131.988 98.9813 131.982V131.984Z" fill="black"/>
<path d="M83.2832 81.3153C83.6637 80.5648 84.021 79.9029 84.3394 79.2213C84.6927 78.4609 85.2558 78.1576 85.8984 78.4235C86.4926 78.6697 86.7081 79.3001 86.4518 80.0427C85.1063 83.947 81.0193 86.6536 76.9032 86.3621C72.5172 86.0528 68.8729 82.9227 68.0283 78.7407C66.7624 72.4784 71.4357 66.7146 77.674 66.8978C80.563 66.9825 82.9628 68.1822 84.8364 70.4258C85.4364 71.1448 85.4577 71.7516 84.9199 72.244C84.3743 72.7444 83.753 72.6242 83.1123 71.8895C79.202 67.4159 72.2939 68.7239 70.4456 74.2986C69.6961 76.56 70.0184 78.6993 71.2571 80.7086C71.3678 80.8898 71.5173 81.0474 71.6513 81.2207C75.1907 77.6139 80.0427 77.9567 83.2832 81.3153ZM73.2259 82.7119C75.6179 84.5774 79.4893 84.5518 81.6387 82.6883C79.4661 80.0388 75.216 80.0329 73.2259 82.7119Z" fill="#EF7B10"/>
<path d="M78.5351 91.3459C82.9987 91.3459 87.4643 91.3459 91.928 91.3459C92.1707 91.3459 92.4192 91.3222 92.6541 91.3695C93.2211 91.4818 93.5706 91.862 93.5977 92.4332C93.6249 93.0006 93.3298 93.4261 92.757 93.5679C92.4794 93.6368 92.1823 93.6467 91.893 93.6467C82.9638 93.6506 74.0365 93.6506 65.1072 93.6487C63.9831 93.6487 63.4026 93.2606 63.387 92.5061C63.3715 91.7438 63.9462 91.3478 65.0704 91.3459C69.5593 91.3459 74.0481 91.3459 78.5351 91.3459Z" fill="#EF7B10"/>
<path d="M78.5219 98.7722C76.4115 98.7722 74.299 98.8017 72.1905 98.7486C71.7634 98.7367 71.2022 98.526 70.9479 98.2088C70.3713 97.4859 70.9712 96.5167 71.9614 96.5108C74.1689 96.495 76.3765 96.5049 78.586 96.5049C80.6732 96.5049 82.7584 96.5029 84.8456 96.5049C85.7543 96.5049 86.2358 96.9008 86.2377 97.6277C86.2396 98.3664 85.7775 98.7643 84.8534 98.7682C82.7429 98.7781 80.6324 98.7722 78.52 98.7722H78.5219Z" fill="#EF7B10"/>
<path d="M74.2461 73.8022C74.2461 72.0037 75.6537 70.5638 77.4167 70.5598C79.1602 70.5559 80.6202 72.0116 80.6416 73.7766C80.6649 75.6933 79.1 77.4819 77.407 77.4721C75.7314 77.4622 74.2461 75.7366 74.248 73.8022H74.2461ZM77.4555 72.6144C76.8264 72.5967 76.308 73.1029 76.2847 73.7628C76.2556 74.5488 76.8633 75.4234 77.4361 75.4156C77.9681 75.4096 78.5952 74.5449 78.5952 73.82C78.5952 73.1857 78.071 72.6321 77.4574 72.6144H77.4555Z" fill="#EF7B10"/>
<path d="M84.7146 74.5389C85.4971 73.5776 86.2601 72.6301 87.0348 71.6924C87.6037 71.0049 88.2483 70.8808 88.788 71.3359C89.3084 71.7752 89.3045 72.4686 88.755 73.156C87.825 74.3163 86.8931 75.4746 85.9475 76.621C85.2311 77.4917 84.7418 77.5193 83.8623 76.7845C83.3594 76.363 82.841 75.9592 82.3498 75.5238C81.7693 75.0097 81.7052 74.3636 82.1518 73.8475C82.5653 73.3708 83.208 73.3373 83.7769 73.7726C84.0836 74.009 84.3788 74.2611 84.7146 74.5369V74.5389Z" fill="#EF7B10"/>
<path d="M78.463 103.575C77.7602 103.575 77.0573 103.589 76.3545 103.571C75.6594 103.555 75.1701 103.065 75.1798 102.434C75.1895 101.835 75.6536 101.349 76.3176 101.337C77.7718 101.311 79.226 101.311 80.6803 101.337C81.3482 101.349 81.8083 101.833 81.818 102.434C81.8277 103.065 81.3385 103.553 80.6434 103.569C79.9172 103.587 79.1892 103.573 78.4611 103.573L78.463 103.575Z" fill="#EF7B10"/>
</g>
<defs>
<linearGradient id="paint0_linear_888_22" x1="18.4212" y1="147.152" x2="137.735" y2="28.005" gradientUnits="userSpaceOnUse">
<stop stop-color="#ECEFF1"/>
<stop offset="1" stop-color="white"/>
</linearGradient>
<linearGradient id="paint1_linear_888_22" x1="30.764" y1="135.586" x2="125.935" y2="40.1142" gradientUnits="userSpaceOnUse">
<stop stop-color="white"/>
<stop offset="1" stop-color="#ECEFF1"/>
</linearGradient>
<clipPath id="clip0_888_22">
<rect width="61" height="71" fill="white" transform="translate(48 61)"/>
</clipPath>
</defs>
</svg>
