<svg width="86" height="89" viewBox="0 0 86 89" fill="none" xmlns="http://www.w3.org/2000/svg">
<g clip-path="url(#clip0_281_9283)">
<path d="M85.9993 74.8773C85.941 75.0421 85.8692 75.202 85.8243 75.3715C85.0053 78.547 82.5818 80.5526 79.483 80.567C75.2286 80.5837 70.9741 80.5717 66.7197 80.5717C66.4145 80.5717 66.1093 80.5717 65.6807 80.5717C65.6807 81.1471 65.6807 81.6724 65.6807 82.1953C65.6807 83.5347 65.7032 84.8766 65.6695 86.216C65.6201 88.2884 63.6298 89.647 61.9132 88.6824C60.3111 87.7823 58.7942 86.7007 57.2661 85.6549C56.6714 85.2466 56.5615 84.4396 56.9093 83.8403C57.2728 83.2172 57.9954 83.0238 58.6775 83.4488C59.9072 84.2152 61.1099 85.0318 62.3261 85.8244C62.555 85.9725 62.7951 86.099 63.1563 86.3115C63.1563 84.3489 63.1563 82.5439 63.1563 80.7365C63.1563 78.7333 63.9641 77.8499 65.858 77.8451C70.2516 77.8332 74.6474 77.8451 79.041 77.8403C81.9805 77.8403 83.4772 76.2406 83.4772 73.1105C83.4772 63.5195 83.4772 53.9309 83.4772 44.34C83.4772 41.2743 81.9603 39.6627 79.0814 39.6627C65.3935 39.6627 51.7057 39.6627 38.0178 39.6627C35.2803 39.6627 33.7432 41.2838 33.7432 44.1776C33.7432 53.9166 33.7432 63.6556 33.7432 73.3946C33.7432 76.1762 35.2848 77.826 37.9169 77.8379C41.3029 77.8523 44.6912 77.8809 48.0773 77.8236C49.5313 77.7997 50.8373 78.1006 52.0176 79.027C52.5561 79.4496 53.1642 79.7695 53.7162 80.173C54.3804 80.6601 54.5397 81.3835 54.1672 82.0329C53.806 82.6656 53.0902 82.8519 52.4103 82.4866C52.3115 82.4341 52.2083 82.3767 52.123 82.3027C50.4177 80.789 48.4587 80.4141 46.2687 80.5359C43.5042 80.6887 40.7262 80.524 37.9573 80.5837C34.0798 80.6696 31.1358 77.4464 31.1762 73.4137C31.2592 65.0452 31.2008 56.6767 31.2008 48.3058C31.2008 47.9834 31.2008 47.6587 31.2008 47.2075C30.9024 47.3674 30.6825 47.4629 30.4828 47.5943C28.5306 48.874 26.5762 50.1466 24.6374 51.4455C23.6882 52.0806 22.7121 52.2668 21.7046 51.6914C20.6612 51.0969 20.2753 50.1084 20.2999 48.8645C20.3358 47.1454 20.3089 45.4239 20.3089 43.595C19.9387 43.595 19.6402 43.595 19.344 43.595C15.0604 43.595 10.779 43.5998 6.49543 43.595C2.74137 43.5879 -0.00068578 40.6607 -0.00292969 36.6495C-0.00068578 30.5158 0.00828985 24.3797 -0.00068578 18.2459C-0.00068578 17.5941 0.133949 16.9972 0.753267 16.8158C1.13473 16.7036 1.72712 16.7179 1.97395 16.9614C2.2881 17.2742 2.4923 17.8735 2.49454 18.351C2.5282 24.277 2.51698 30.2054 2.51698 36.1314C2.51698 39.3117 4.02264 40.9233 6.99133 40.9233C11.4141 40.9233 15.8368 40.9233 20.2596 40.9233C21.9739 40.9233 22.8333 41.8354 22.8378 43.6595C22.8423 45.5218 22.8378 47.3842 22.8378 49.373C23.1721 49.1844 23.3943 49.077 23.5985 48.9433C25.9299 47.4104 28.2501 45.8609 30.595 44.3519C31.0572 44.0535 31.2278 43.7192 31.2547 43.1486C31.4095 39.8799 34.0865 37.0435 37.1674 37.0005C41.8123 36.9337 46.4594 36.9742 51.1066 36.9695C51.4409 36.9695 51.773 36.9695 52.2061 36.9695C52.2218 36.6161 52.2487 36.3033 52.2487 35.9906C52.2487 26.3709 52.2532 16.7513 52.2487 7.13169C52.2487 4.42416 50.678 2.7027 48.1289 2.70031C34.3019 2.68599 20.475 2.68599 6.64577 2.70031C4.11688 2.7027 2.53044 4.45281 2.51698 7.1484C2.51025 8.60722 2.52147 10.066 2.51249 11.5273C2.50576 12.5086 2.04127 13.0744 1.26712 13.0792C0.49073 13.084 -0.0074175 12.5133 0.00828985 11.544C0.0419485 9.46437 -0.0994177 7.35135 0.20351 5.31473C0.665755 2.2419 3.31132 0.0214324 6.23738 0.0166572C20.3448 -0.00483119 34.4523 -0.00721878 48.5597 0.0166572C51.9031 0.02382 54.6183 2.90326 54.7686 6.45361C54.7866 6.86905 54.7888 7.28688 54.7888 7.70471C54.7888 17.0569 54.7888 26.4091 54.7888 35.7613C54.7888 36.1147 54.7888 36.4681 54.7888 36.9695H55.8143C63.54 36.9695 71.2658 36.9695 78.9916 36.9695C82.7367 36.9695 84.7674 38.5668 85.8939 42.3965C85.9096 42.4466 85.9634 42.4848 85.9993 42.5278V74.8773Z" fill="black"/>
<path d="M19.0979 27.1757C17.3095 29.4678 15.5839 31.7288 13.809 33.9469C11.4147 36.9362 7.07503 36.165 5.84761 32.5549C5.25522 30.8144 5.52 29.186 6.60605 27.7726C9.38625 24.1554 12.1866 20.5501 15.0229 16.983C16.8742 14.6551 19.706 14.5071 21.8624 16.5461C24.4541 19.0005 27.0391 21.4622 29.6128 23.907C30.8313 22.6273 32.0228 21.3738 33.3647 19.9651C32.8732 19.5067 32.3616 19.0913 31.9173 18.609C30.3354 16.8875 30.939 14.4211 33.1044 13.7908C37.3296 12.5588 41.5594 11.3459 45.7914 10.1426C47.9882 9.5194 49.6689 11.2958 49.0989 13.6404C48.0129 18.0956 46.9156 22.5461 45.8004 26.9942C45.1586 29.5585 42.9013 30.1936 41.1151 28.3241C40.7179 27.9087 40.3769 27.4311 39.762 26.6838C39.5062 27.1518 39.3963 27.4861 39.1853 27.7177C37.2242 29.8426 35.2563 31.958 33.2704 34.0591C31.2509 36.196 28.6569 36.2414 26.5252 34.2095C24.2948 32.0822 22.0621 29.9596 19.8294 27.837C19.6028 27.6221 19.3672 27.4192 19.0979 27.1804V27.1757ZM33.5195 16.484C34.3318 17.3412 35.0476 18.0885 35.7522 18.8477C36.5375 19.6929 36.5532 20.3901 35.7791 21.2306C34.1523 22.995 32.5165 24.7499 30.8717 26.4976C30.0078 27.4168 29.4782 27.4192 28.5649 26.5501C25.852 23.9715 23.1414 21.3881 20.4263 18.8095C18.9588 17.4152 17.9041 17.5035 16.6655 19.096C15.4336 20.679 14.1949 22.2548 12.963 23.8378C11.5 25.7168 10.0168 27.5816 8.58518 29.4916C7.82225 30.5111 7.99279 31.8339 8.88362 32.5979C9.75425 33.3452 10.9233 33.2354 11.7513 32.3185C12.0026 32.0392 12.227 31.7336 12.4604 31.4351C14.1927 29.2123 15.9205 26.9847 17.6573 24.7642C18.5571 23.6134 19.136 23.5513 20.1705 24.5302C22.8273 27.042 25.4661 29.5752 28.1251 32.087C29.4154 33.307 30.4274 33.2688 31.6324 31.9771C33.9638 29.4869 36.2862 26.987 38.6132 24.4944C39.5803 23.4582 40.1031 23.4606 41.0859 24.492C41.7681 25.2059 42.448 25.9222 43.2176 26.7316C44.4047 21.9516 45.5401 17.3746 46.7047 12.6782C42.2752 13.9556 37.9759 15.1971 33.5172 16.484H33.5195Z" fill="#EF7B10"/>
<path d="M50.3601 56.5812C52.5209 54.5303 54.6684 52.4889 56.8158 50.4499C57.2129 50.0727 57.6034 49.6883 58.0095 49.3253C59.946 47.5943 62.5018 47.6636 64.3127 49.5546C66.3703 51.7034 68.3854 53.8976 70.4183 56.0727C70.6136 56.2804 70.8178 56.4762 71.1386 56.8009C71.5941 56.2804 72.0048 55.7623 72.4648 55.2967C74.0961 53.6493 76.3423 54.2677 76.9279 56.5645C78.097 61.1487 79.2391 65.7425 80.3544 70.3433C80.8503 72.3919 79.1359 74.2351 77.2241 73.7003C72.8799 72.4826 68.5424 71.2339 64.2184 69.9422C62.1226 69.3167 61.5661 66.8885 63.083 65.2243C63.5295 64.7349 64.0187 64.2884 64.4585 63.8491C63.1974 62.5311 62.0059 61.2872 60.7516 59.974C60.6708 60.0433 60.4531 60.2128 60.2557 60.4014C57.9175 62.6243 55.5839 64.8495 53.2502 67.0747C50.8694 69.3453 48.1027 69.1758 46.054 66.5805C43.3187 63.1161 40.608 59.6278 37.9064 56.1324C36.1988 53.9215 36.4478 50.8773 38.4427 49.1105C40.4353 47.346 43.2805 47.6564 45.033 49.8387C45.5065 50.426 45.9755 51.0181 46.4175 51.6341C46.8775 52.2764 46.8035 53.0954 46.2806 53.5586C45.7466 54.0313 45.0038 53.9692 44.481 53.3604C43.9716 52.7659 43.5206 52.1188 43.0135 51.5243C42.1833 50.5526 40.9671 50.4284 40.0897 51.1948C39.1764 51.9923 39.0081 53.2577 39.8047 54.2963C42.6006 57.9398 45.419 61.5642 48.2687 65.1599C49.1214 66.2343 50.3107 66.2104 51.3833 65.1981C54.1051 62.629 56.8113 60.0409 59.5242 57.4623C60.7718 56.2756 61.151 56.2876 62.3268 57.5458C63.8078 59.1288 65.2843 60.7166 66.7608 62.3043C67.8693 63.4981 67.8625 63.9852 66.7181 65.1909C66.0876 65.8571 65.4481 66.5136 64.7031 67.2896C69.1393 68.5694 73.405 69.8014 77.9107 71.1026C76.7394 66.3656 75.6107 61.8053 74.4349 57.0516C73.6855 57.8443 73.046 58.52 72.4042 59.1957C71.3002 60.3584 70.8245 60.3584 69.7519 59.2052C67.4654 56.7532 65.1811 54.2987 62.89 51.8514C61.6267 50.5 60.599 50.4857 59.2594 51.7655C56.6138 54.2892 53.9615 56.8105 51.3115 59.327C50.4296 60.165 49.7834 60.1268 49.0249 59.2028C48.7848 58.9115 48.5515 58.6131 48.3316 58.3075C47.8177 57.5936 47.8132 56.9083 48.3383 56.3879C48.8925 55.8387 49.4827 55.8339 50.0706 56.3449C50.1536 56.4165 50.2389 56.4834 50.3645 56.586L50.3601 56.5812Z" fill="#EF7B10"/>
</g>
<defs>
<clipPath id="clip0_281_9283">
<rect width="86" height="89" fill="white"/>
</clipPath>
</defs>
</svg>
