<svg width="51" height="41" viewBox="0 0 51 41" fill="none" xmlns="http://www.w3.org/2000/svg">
<path d="M9.04688 13.75C9.04688 11.4062 11.0781 9.375 13.4219 9.375C15.8438 9.375 17.7969 11.4062 17.7969 13.75C17.7969 16.1719 15.8438 18.125 13.4219 18.125C11.0781 18.125 9.04688 16.1719 9.04688 13.75ZM13.4219 11.875C12.4062 11.875 11.5469 12.7344 11.5469 13.75C11.5469 14.8438 12.4062 15.625 13.4219 15.625C14.5156 15.625 15.2969 14.8438 15.2969 13.75C15.2969 12.7344 14.5156 11.875 13.4219 11.875ZM17.6406 4.0625C18.4219 4.375 19.125 4.76562 19.75 5.23438L21.8594 4.60938C22.3281 4.45312 22.7969 4.60938 23.1094 4.92188C24.3594 6.32812 25.2969 7.96875 25.9219 9.84375C26.0781 10.2344 25.9219 10.7031 25.6094 11.0156L23.9688 12.5C24.0469 12.9688 24.0469 13.4375 24.0469 13.8281C24.0469 14.2188 24.0469 14.6875 24.0469 15.0781L25.6094 16.5625C25.9219 16.875 26.0781 17.3438 25.9219 17.7344C25.2969 19.6094 24.3594 21.25 23.1094 22.6562C22.7969 22.9688 22.3281 23.125 21.8594 22.9688L19.9062 22.3438C19.2031 22.8906 18.4219 23.3594 17.6406 23.6719L17.1719 25.7031C17.0156 26.1719 16.7031 26.4844 16.3125 26.6406C15.375 26.7969 14.4375 26.875 13.4219 26.875C12.4844 26.875 11.5469 26.7969 10.6094 26.6406C10.2188 26.4844 9.90625 26.1719 9.75 25.7031L9.28125 23.6719C8.5 23.3594 7.71875 22.8906 7.01562 22.3438L5.0625 22.9688C4.59375 23.125 4.125 22.9688 3.8125 22.6562C2.5625 21.25 1.625 19.6094 1 17.7344C0.84375 17.3438 1 16.875 1.3125 16.5625L2.875 15.0781C2.875 14.6875 2.875 14.2188 2.875 13.8281C2.875 13.4375 2.875 12.9688 2.95312 12.5L1.3125 11.0156C1 10.7031 0.84375 10.2344 1 9.84375C1.625 7.96875 2.5625 6.32812 3.8125 4.92188C4.125 4.60938 4.59375 4.45312 5.0625 4.60938L7.17188 5.23438C7.79688 4.76562 8.5 4.375 9.28125 4.0625L9.75 1.875C9.90625 1.40625 10.2188 1.09375 10.6094 0.9375C11.5469 0.78125 12.4844 0.625 13.4219 0.625C14.4375 0.625 15.375 0.78125 16.3125 0.9375C16.7031 1.09375 17.0156 1.40625 17.1719 1.875L17.6406 4.0625ZM5.53125 11.5625L5.375 12.8125C5.375 13.2031 5.29688 13.5156 5.29688 13.8281C5.29688 14.1406 5.375 14.4531 5.375 14.7656L5.53125 16.0156L3.65625 17.7344C4.04688 18.6719 4.51562 19.5312 5.14062 20.3125L7.5625 19.6094L8.57812 20.3906C9.125 20.7812 9.67188 21.0938 10.2969 21.4062L11.3906 21.875L12.0156 24.2969C12.4844 24.375 12.9531 24.375 13.4219 24.375C13.9688 24.375 14.4375 24.375 14.9062 24.2969L15.5312 21.875L16.625 21.4062C17.25 21.0938 17.7969 20.7812 18.3438 20.3906L19.3594 19.6094L21.7812 20.3125C22.4062 19.5312 22.875 18.6719 23.2656 17.7344L21.3906 16.0156L21.5469 14.7656C21.5469 14.4531 21.5469 14.1406 21.5469 13.8281C21.5469 13.5156 21.5469 13.2031 21.5469 12.8125L21.3906 11.5625L23.2656 9.84375C22.875 8.90625 22.4062 8.04688 21.7812 7.26562L19.2812 7.96875L18.2656 7.26562C17.7969 6.875 17.25 6.5625 16.7031 6.32812L15.5312 5.85938L14.9062 3.28125C14.4375 3.20312 13.9688 3.125 13.4219 3.125C12.9531 3.125 12.4844 3.20312 12.0156 3.28125L11.3906 5.85938L10.2188 6.32812C9.67188 6.5625 9.125 6.875 8.65625 7.26562L7.64062 7.96875L5.14062 7.26562C4.51562 8.04688 4.04688 8.90625 3.65625 9.84375L5.53125 11.5625ZM37.25 23.125C39.5938 23.125 41.625 25.1562 41.625 27.5C41.625 29.9219 39.5938 31.875 37.25 31.875C34.8281 31.875 32.875 29.9219 32.875 27.5C32.875 25.1562 34.8281 23.125 37.25 23.125ZM39.125 27.5C39.125 26.4844 38.2656 25.625 37.25 25.625C36.1562 25.625 35.375 26.4844 35.375 27.5C35.375 28.5938 36.1562 29.375 37.25 29.375C38.2656 29.375 39.125 28.5938 39.125 27.5ZM46.9375 31.7188C46.625 32.5 46.2344 33.2031 45.7656 33.8281L46.3906 35.9375C46.5469 36.4062 46.3906 36.875 46.0781 37.1875C44.6719 38.4375 43.0312 39.375 41.1562 40C40.7656 40.1562 40.2969 40 39.9844 39.6875L38.4219 38.0469C38.0312 38.125 37.5625 38.125 37.1719 38.125C36.7812 38.125 36.3125 38.125 35.9219 38.125L34.4375 39.6875C34.125 40 33.6562 40.1562 33.2656 40C31.3906 39.375 29.75 38.4375 28.3438 37.1875C28.0312 36.875 27.875 36.4062 28.0312 35.9375L28.6562 33.9844C28.1094 33.2812 27.6406 32.5 27.3281 31.7188L25.2969 31.25C24.8281 31.0938 24.5156 30.7812 24.3594 30.3125C24.2031 29.4531 24.125 28.5156 24.125 27.5C24.125 26.5625 24.2031 25.625 24.3594 24.6875C24.5156 24.2969 24.8281 23.9062 25.2969 23.8281L27.3281 23.3594C27.6406 22.5781 28.1094 21.7969 28.6562 21.0938L28.0312 19.1406C27.875 18.6719 28.0312 18.2031 28.3438 17.8906C29.75 16.6406 31.3906 15.7031 33.2656 15.0781C33.6562 14.9219 34.125 15.0781 34.4375 15.3906L35.9219 16.9531C36.3125 16.9531 36.7812 16.875 37.1719 16.875C37.5625 16.875 38.0312 16.9531 38.4219 16.9531L39.9844 15.3906C40.2969 15.0781 40.7656 14.9219 41.1562 15.0781C43.0312 15.7031 44.6719 16.6406 46.0781 17.8906C46.3906 18.2031 46.5469 18.6719 46.3906 19.1406L45.7656 21.25C46.2344 21.875 46.625 22.5781 46.9375 23.3594L49.125 23.8281C49.5938 23.9062 49.9062 24.2969 50.0625 24.6875C50.2188 25.625 50.375 26.5625 50.375 27.5C50.375 28.5156 50.2188 29.4531 50.0625 30.3125C49.9062 30.7812 49.5938 31.0938 49.125 31.25L46.9375 31.7188ZM39.4375 19.6094L38.1875 19.4531C37.7969 19.4531 37.4844 19.375 37.1719 19.375C36.8594 19.375 36.5469 19.4531 36.2344 19.4531L34.9844 19.6094L33.2656 17.7344C32.3281 18.125 31.4688 18.5938 30.6875 19.2188L31.3906 21.6406L30.6094 22.6562C30.2188 23.125 29.9062 23.75 29.5938 24.375L29.125 25.4688L26.7031 26.0938C26.625 26.5625 26.625 27.0312 26.625 27.5C26.625 28.0469 26.625 28.5156 26.7031 28.9844L29.125 29.6094L29.5938 30.7031C29.9062 31.3281 30.2188 31.875 30.6094 32.4219L31.3906 33.4375L30.6875 35.8594C31.4688 36.4844 32.3281 36.9531 33.2656 37.3438L34.9844 35.4688L36.2344 35.625C36.5469 35.625 36.8594 35.625 37.1719 35.625C37.4844 35.625 37.7969 35.625 38.1875 35.625L39.4375 35.4688L41.1562 37.3438C42.0938 36.9531 42.9531 36.4844 43.7344 35.8594L43.0312 33.3594L43.7344 32.3438C44.125 31.875 44.4375 31.3281 44.6719 30.7812L45.1406 29.6094L47.7188 28.9844C47.7969 28.5156 47.875 28.0469 47.875 27.5C47.875 27.0312 47.7969 26.5625 47.7188 26.0938L45.1406 25.4688L44.6719 24.2969C44.4375 23.75 44.125 23.2031 43.7344 22.7344L43.0312 21.7188L43.7344 19.2188C42.9531 18.5938 42.0938 18.125 41.1562 17.7344L39.4375 19.6094Z" fill="#1D1E20"/>
</svg>
