<svg width="40" height="40" viewBox="0 0 40 40" fill="none" xmlns="http://www.w3.org/2000/svg">
<path d="M21.25 9.53125C21.6406 9.60938 22.6562 9.84375 23.125 9.92188C23.75 10.0781 24.1406 10.7812 23.9844 11.4844C23.8281 12.1094 23.125 12.5 22.4219 12.3438C22.1094 12.2656 21.0938 12.0312 20.7031 11.9531C19.6875 11.7969 18.9062 11.9531 18.2812 12.1875C17.7344 12.5 17.5 12.8125 17.5 13.0469C17.4219 13.4375 17.5 13.5938 17.5 13.6719C17.5781 13.75 17.6562 13.9062 17.8906 14.0625C18.4375 14.4531 19.2188 14.6875 20.3125 15H20.3906C21.3281 15.3125 22.5781 15.7031 23.4375 16.3281C23.9844 16.7188 24.375 17.1875 24.6875 17.8125C25 18.4375 25 19.1406 24.9219 19.9219C24.6875 21.25 23.75 22.1875 22.5781 22.7344C22.1875 22.8906 21.7188 23.0469 21.25 23.125V23.75C21.25 24.4531 20.625 25 20 25C19.2969 25 18.75 24.4531 18.75 23.75V23.0469C17.9688 22.8906 16.875 22.5 16.1719 22.2656C16.0156 22.2656 15.9375 22.1875 15.7812 22.1875C15.1562 21.9531 14.8438 21.25 15 20.5469C15.2344 19.9219 15.9375 19.5312 16.6406 19.7656C16.7188 19.8438 16.9531 19.9219 17.1094 19.9219C17.8125 20.2344 18.6719 20.4688 19.2188 20.5469C20.2344 20.7812 21.0938 20.625 21.6406 20.3906C22.1094 20.1562 22.3438 19.9219 22.4219 19.4531C22.5 19.1406 22.4219 18.9062 22.4219 18.8281C22.3438 18.6719 22.1875 18.5156 22.0312 18.3594C21.4844 17.9688 20.7031 17.7344 19.6094 17.4219L19.4531 17.3438C18.5156 17.0312 17.3438 16.7188 16.4844 16.0938C16.0156 15.7812 15.5469 15.3125 15.2344 14.7656C15 14.0625 14.9219 13.3594 15 12.6562C15.2344 11.3281 16.1719 10.4688 17.2656 9.92188C17.7344 9.76562 18.2031 9.60938 18.75 9.53125V8.75C18.75 8.125 19.2969 7.5 20 7.5C20.625 7.5 21.25 8.125 21.25 8.75V9.53125ZM3.75 16.25C3.75 7.34375 11.0156 0 20 0C28.9062 0 36.25 7.34375 36.25 16.25C36.25 25.2344 28.9062 32.5 20 32.5C11.0156 32.5 3.75 25.2344 3.75 16.25ZM20 30C27.5781 30 33.75 23.9062 33.75 16.25C33.75 8.67188 27.5781 2.5 20 2.5C12.3438 2.5 6.25 8.67188 6.25 16.25C6.25 23.9062 12.3438 30 20 30ZM7.1875 30H4.375C3.28125 30 2.5 30.8594 2.5 31.875V35.625C2.5 36.7188 3.28125 37.5 4.375 37.5H35.625C36.6406 37.5 37.5 36.7188 37.5 35.625V31.875C37.5 30.8594 36.6406 30 35.625 30H32.7344C33.5156 29.2969 34.2969 28.4375 35 27.5H35.625C37.9688 27.5 40 29.5312 40 31.875V35.625C40 38.0469 37.9688 40 35.625 40H4.375C1.95312 40 0 38.0469 0 35.625V31.875C0 29.5312 1.95312 27.5 4.375 27.5H4.92188C5.625 28.4375 6.40625 29.2969 7.1875 30Z" fill="#1D1E20"/>
</svg>
