<svg width="44" height="44" viewBox="0 0 44 44" fill="none" xmlns="http://www.w3.org/2000/svg">
<path d="M31.6875 11.6875C30.6719 10.75 29.2656 10.5938 28.0938 11.1406C26.2188 10.125 24.1094 9.5 22 9.5C16.2188 9.5 11.2188 13.4062 9.89062 19.0312C8.48438 24.5781 10.9844 30.3594 16.0625 33.0938C21.1406 35.75 27.3906 34.6562 31.2188 30.4375C35.125 26.1406 35.5156 19.8906 32.3906 15.125C32.8594 13.9531 32.5469 12.625 31.6875 11.6875ZM29.0312 29.1094C25.2812 32.8594 18.6406 32.8594 14.8906 29.1094C12 26.2188 11.2188 21.9219 12.7031 18.1719C14.2656 14.5 17.9375 12 22 12C23.5625 12 25.0469 12.4688 26.5312 13.1719C26.2188 14.1875 26.4531 15.3594 27.2344 16.1406C28.0938 17 29.3438 17.2344 30.5156 16.8438C32.9375 20.75 32.3125 25.8281 29.0312 29.1094ZM36.1406 7.85938C30.5156 2.3125 22.3125 0.59375 14.9688 3.32812C14.2656 3.5625 13.9531 4.42188 14.4219 5.125C14.9688 5.98438 15.8281 5.67188 15.9062 5.59375C22.625 3.09375 30.3594 4.96875 35.2031 10.5156C40.2031 16.2969 40.9062 24.6562 36.8438 31.1406C34.8906 30.2812 32.5469 30.9844 31.375 32.7812C30.2031 34.6562 30.5156 37.0781 32.1562 38.4844C33.7969 39.9688 36.2969 39.9688 37.9375 38.4844C39.5781 37.0781 39.9688 34.6562 38.7969 32.7812C43.7969 25.0469 42.8594 14.6562 36.1406 7.85938ZM35.125 37C34.0312 37 33.3281 36.1406 33.3281 35.125C33.3281 34.0312 34.1094 33.25 35.125 33.25C36.1406 33.25 36.9219 34.0312 36.9219 35.125C36.9219 36.1406 36.1406 37 35.125 37ZM29.4219 38.9531C29.1094 38.4844 28.4844 38.25 27.9375 38.4844C22.7812 40.3594 17 39.7344 12.3125 36.6875C7.39062 33.4062 4.5 27.9375 4.42188 22C4.42188 18.7188 5.4375 15.6719 7.07812 12.9375C9.10938 13.7969 11.4531 13.0938 12.625 11.2188C13.7969 9.42188 13.4062 7 11.7656 5.51562C10.125 4.10938 7.70312 4.10938 5.98438 5.51562C4.34375 6.92188 3.95312 9.34375 5.125 11.2188C0.125 18.9531 1.0625 29.4219 7.78125 36.1406C13.3281 41.6875 21.5312 43.4844 28.7969 40.8281C29.3438 40.5938 29.9688 39.8125 29.4219 38.9531ZM8.875 7C9.89062 7 10.6719 7.85938 10.6719 8.875C10.6719 9.96875 9.89062 10.75 8.875 10.75C7.78125 10.75 7 9.89062 7 8.875C7 7.78125 7.78125 7 8.875 7ZM22 15.75C18.4844 15.75 15.75 18.4844 15.75 22C15.75 25.4375 18.4844 28.25 22 28.25C25.4375 28.25 28.25 25.4375 28.25 22C28.25 18.5625 25.4375 15.75 22 15.75ZM22 25.75C19.8906 25.75 18.3281 24.0312 18.3281 22C18.3281 19.8906 19.9688 18.25 22 18.25C24.0312 18.25 25.6719 19.8906 25.6719 22C25.6719 24.0312 24.0312 25.75 22 25.75Z" fill="#1D1E20"/>
</svg>
