<svg width="40" height="38" viewBox="0 0 40 38" fill="none" xmlns="http://www.w3.org/2000/svg">
<path d="M35 7.5H30V3.75C30 1.71875 28.2812 0 26.25 0H13.75C11.6406 0 10 1.71875 10 3.75V7.5H5C2.1875 7.5 0 9.76562 0 12.5V32.5C0 35.3125 2.1875 37.5 5 37.5H35C37.7344 37.5 40 35.3125 40 32.5V12.5C40 9.76562 37.7344 7.5 35 7.5ZM12.5 3.75C12.5 3.125 13.0469 2.5 13.75 2.5H26.25C26.875 2.5 27.5 3.125 27.5 3.75V7.5H12.5V3.75ZM7.5 35H5C3.59375 35 2.5 33.9062 2.5 32.5V12.5C2.5 11.1719 3.59375 10 5 10H7.5V35ZM30 35H10V10H30V35ZM37.5 32.5C37.5 33.9062 36.3281 35 35 35H32.5V10H35C36.3281 10 37.5 11.1719 37.5 12.5V32.5Z" fill="#1D1E20"/>
</svg>
