<?xml version="1.0" encoding="utf-8"?>
<!-- Generator: Adobe Illustrator 27.0.1, SVG Export Plug-In . SVG Version: 6.00 Build 0)  -->
<svg version="1.1" id="Layer_1" xmlns="http://www.w3.org/2000/svg" xmlns:xlink="http://www.w3.org/1999/xlink" x="0px" y="0px"
	 viewBox="0 0 512 512" style="enable-background:new 0 0 512 512;" xml:space="preserve">
<style type="text/css">
	.st0{fill:#7B7C7E;}
</style>
<path class="st0" d="M380.4,123.7c-12.6-12.6-31.4-14.5-46.4-6.8c-23.6-13.2-50.2-21-78-21c-73.4,0-137.3,50-155,121.1
	c-17.9,71.2,14.1,145.4,79.8,180c64.8,34.5,144.6,20.6,193.9-33.8C424.1,308.9,430,228,389.2,167
	C395.3,152.1,391.8,135.1,380.4,123.7z M346.6,346.5c-48.4,48.4-132.7,48.4-181.1,0c-36.6-36.6-47.5-91.6-27.8-139.5
	c19.9-47.9,66.5-79,118.4-79c20.5,0,39.1,5.4,57.9,14.4c-3.4,13.2-0.5,27.6,9.7,37.9c10.9,10.8,26.9,14.4,41.2,9.2
	C396.3,239.7,388.5,304.9,346.6,346.5z M437.1,75C365.8,3.6,260-18.7,166.8,16.3c-9.2,3.5-13.7,13.8-7.5,23
	c7.2,11.1,18.3,6.9,18.8,6.7c86.8-32.5,185.3-8.2,247,62.3c64.5,73.9,73.2,181.3,21.8,264.6c-25.5-11.5-55.6-2.5-70.8,21.1
	c-14.1,23.6-10.5,54.8,10.8,73c21.1,18.4,52.5,18.4,73.8,0c21.1-18.2,25.8-49.4,10.6-73C535.1,294.1,523.8,161.8,437.1,75z
	 M424.1,447.1c-13.2,0-23.1-10.8-23.1-24s10.8-24,23.1-24c13.2,0,23.1,10.8,23.1,24S437.4,447.1,424.1,447.1z M351.2,472.9
	c-4-6.2-11.6-9-18.5-6.5c-66.3,24.1-140.3,15.7-199.7-23.2C69.9,401.7,32.9,331.3,31.9,255.9c0-42,12.2-81.9,33.8-116.8
	c25.6,11.4,55.8,2.2,70.8-21.4c15-23.5,10.5-54.6-10.8-73C104.5,26.4,73,26.4,51.8,44.6s-26,49.4-11.1,73
	C-23.2,216.7-11.8,350.2,75,437c70.8,70.9,175.9,93.5,268.8,59.4C350.4,493.1,358.3,483.9,351.2,472.9z M88,64
	c13.2,0,23.1,10.8,23.1,24s-9.8,23.1-23.1,23.1c-13.2,0-23.1-10.8-23.1-24S74.8,64,88,64z M256.1,175.1c-44.2,0-80,35.9-80,80
	c0,44.2,35.8,80,80,80c44.1,0,80-35.9,80-80C336,211.9,300.3,175.1,256.1,175.1z M256.1,303.1c-26.6,0-47.1-21.5-47.1-48
	s21.5-48,47.1-48c26.5,0,47.1,21.5,47.1,48S282.6,303.1,256.1,303.1z"/>
</svg>
