<svg width="21" height="21" viewBox="0 0 21 21" fill="none" xmlns="http://www.w3.org/2000/svg">
<path d="M19.8047 19.4453L14.2578 13.9375C15.5078 12.4922 16.2109 10.6562 16.2109 8.625C16.2109 4.17188 12.5391 0.5 8.08594 0.5C3.59375 0.5 0 4.17188 0 8.625C0 13.1172 3.63281 16.75 8.08594 16.75C10.0781 16.75 11.9141 16.0469 13.3594 14.7969L18.8672 20.3438C19.0234 20.4609 19.1797 20.5 19.375 20.5C19.5312 20.5 19.6875 20.4609 19.8047 20.3438C20.0391 20.1094 20.0391 19.6797 19.8047 19.4453ZM8.125 15.5C4.29688 15.5 1.25 12.4141 1.25 8.625C1.25 4.83594 4.29688 1.75 8.125 1.75C11.9141 1.75 15 4.83594 15 8.625C15 12.4531 11.9141 15.5 8.125 15.5Z" fill="#003671"/>
</svg>
