<svg width="94" height="94" viewBox="0 0 94 94" fill="none" xmlns="http://www.w3.org/2000/svg">
<circle cx="47" cy="47" r="47" fill="url(#paint0_linear_888_18)"/>
<circle cx="47.0016" cy="47" r="35.8375" fill="url(#paint1_linear_888_18)"/>
<g clip-path="url(#clip0_888_18)">
<path d="M69 52.7846C68.8086 53.0144 68.6287 53.2534 68.4259 53.4717C63.8311 58.3892 59.2341 63.3055 54.637 68.2208C54.5201 68.346 54.4021 68.4712 54.2818 68.5953C53.7627 69.1307 53.2883 69.1365 52.7807 68.5953C50.85 66.5387 48.925 64.4763 46.9966 62.4174C46.1945 61.5603 45.3832 60.7101 44.5949 59.8403C44.4116 59.6381 44.2466 59.6117 44.0025 59.6737C39.3435 60.856 35.0226 60.0954 31.1463 57.2494C27.5999 54.6448 25.5947 51.091 25.0825 46.7067C25.0676 46.5814 25.0286 46.4585 25 46.3344C25 45.5025 25 44.6707 25 43.84C25.1432 43.0702 25.2315 42.2855 25.4389 41.5341C27.0488 35.6917 30.7853 31.9415 36.6485 30.449C40.3267 29.5126 43.8833 30.0675 47.2452 31.8484C47.4343 31.9484 47.6806 31.9794 47.8995 31.9805C51.7369 31.9886 55.5754 31.9863 59.4128 31.9863C60.3959 31.9863 60.6583 32.2505 60.6583 33.2363C60.6583 34.1969 60.6595 35.1574 60.6583 36.1168C60.6572 36.7694 60.3226 37.1692 59.7875 37.1669C59.2558 37.1646 58.9373 36.774 58.9339 36.1076C58.9304 35.3366 58.9339 34.5668 58.9339 33.7672H50.0376C53.9781 37.5196 55.7771 42.0568 54.9452 47.4213C54.1122 52.7915 51.0242 56.5715 46.1406 58.9602C48.5927 61.5821 51.0368 64.196 53.5301 66.8627C57.717 62.3864 61.8878 57.9262 66.1389 53.3798C65.8948 53.3798 65.7481 53.3798 65.6015 53.3798C63.7544 53.3798 61.9073 53.3798 60.0591 53.3798C59.2238 53.3798 58.935 53.1017 58.9339 52.2848C58.9316 49.5756 58.9293 46.8675 58.9361 44.1583C58.9384 43.3919 59.5835 42.9519 60.1943 43.2874C60.5644 43.4907 60.6629 43.8274 60.6618 44.2307C60.6549 46.524 60.6583 48.8173 60.6583 51.1106V51.6506H61.1763C63.382 51.6506 65.5866 51.6621 67.7923 51.6414C68.3022 51.6368 68.709 51.7505 68.9989 52.1826V52.7846H69ZM53.4029 45.1004C53.3685 37.6954 47.3999 31.7519 40.0253 31.7806C32.6668 31.8094 26.7016 37.7977 26.7176 45.1383C26.7348 52.518 32.7584 58.496 40.1491 58.4673C47.4629 58.4386 53.4361 52.4135 53.4018 45.1004H53.4029Z" fill="black"/>
<path d="M58.9376 40.1889C58.9318 39.7086 59.3203 39.3053 59.7889 39.3042C60.2518 39.3042 60.6609 39.7178 60.6563 40.1831C60.6517 40.6416 60.277 41.023 59.8153 41.0368C59.3352 41.0518 58.9433 40.6726 58.9376 40.1877V40.1889Z" fill="black"/>
<path d="M40.0785 33.4825C46.4952 33.4974 51.7259 38.7401 51.7076 45.1398C51.6893 51.5589 46.4425 56.7786 40.0361 56.7488C33.5794 56.7189 28.4231 51.5095 28.4415 45.0329C28.4598 38.6746 33.7054 33.4676 40.0774 33.4814L40.0785 33.4825ZM49.9533 45.1501C49.9797 39.7087 45.5854 35.2553 40.1622 35.2266C34.653 35.1979 30.19 39.5995 30.1625 45.0892C30.135 50.4766 34.5762 54.9932 39.9296 55.0242C45.48 55.0564 49.927 50.6754 49.9533 45.1501Z" fill="#EF7B10"/>
<path d="M34.6183 49.5367C34.6791 49.4333 34.7661 49.1817 34.9357 49.0117C37.9447 46.0037 40.9617 43.005 43.9809 40.0073C44.3877 39.6041 44.9285 39.5903 45.2757 39.9511C45.6298 40.3187 45.6206 40.8047 45.2116 41.2126C42.1911 44.2286 39.165 47.24 36.1389 50.2502C35.8501 50.5375 35.5098 50.6443 35.1214 50.4674C34.7902 50.3169 34.6229 50.0526 34.6172 49.5356L34.6183 49.5367Z" fill="#EF7B10"/>
<path d="M41.418 49.0715C41.4111 47.6433 42.5592 46.4794 43.9961 46.4599C45.4147 46.4404 46.5995 47.5997 46.6201 49.0313C46.6407 50.4353 45.4594 51.6325 44.0362 51.6497C42.6234 51.6669 41.4249 50.487 41.418 49.0726V49.0715ZM44.8658 49.0623C44.8704 48.5774 44.5232 48.2201 44.0385 48.2109C43.5435 48.2017 43.1425 48.5855 43.1494 49.06C43.1562 49.523 43.5389 49.8907 44.0145 49.8918C44.5003 49.8918 44.8624 49.5414 44.867 49.0623H44.8658Z" fill="#EF7B10"/>
<path d="M36.1087 43.7667C34.6683 43.7633 33.5122 42.6097 33.5156 41.1793C33.5191 39.7581 34.6947 38.5965 36.1235 38.5988C37.5478 38.6022 38.7303 39.7833 38.7223 41.1954C38.7143 42.6258 37.5501 43.7702 36.1075 43.7667H36.1087ZM36.9657 41.2034C36.9726 40.714 36.5922 40.3245 36.1109 40.3291C35.656 40.3337 35.263 40.7197 35.2527 41.1713C35.2424 41.6389 35.6457 42.041 36.1224 42.0376C36.5945 42.0341 36.9589 41.6734 36.9657 41.2034Z" fill="#EF7B10"/>
</g>
<defs>
<linearGradient id="paint0_linear_888_18" x1="76.4396" y1="12.3956" x2="19.6264" y2="86.2527" gradientUnits="userSpaceOnUse">
<stop stop-color="#FBFBFB"/>
<stop offset="1" stop-color="#EFF1F3"/>
</linearGradient>
<linearGradient id="paint1_linear_888_18" x1="69.4492" y1="20.6141" x2="26.1292" y2="76.9302" gradientUnits="userSpaceOnUse">
<stop stop-color="#EEF0F2"/>
<stop offset="1" stop-color="#FDFEFE"/>
</linearGradient>
<clipPath id="clip0_888_18">
<rect width="44" height="39" fill="white" transform="translate(25 30)"/>
</clipPath>
</defs>
</svg>
