<svg width="34" height="37" viewBox="0 0 34 37" fill="none" xmlns="http://www.w3.org/2000/svg">
<path d="M15.2422 1.0625C16.3672 0.640625 17.6328 0.640625 18.7578 1.0625L31.1328 6.33594C32.6797 7.03906 33.875 8.51562 33.875 10.3438C33.8047 17.375 30.9219 30.1016 18.8281 35.9375C17.6328 36.5 16.2969 36.5 15.1016 35.9375C3.00781 30.1016 0.125 17.375 0.125 10.3438C0.0546875 8.51562 1.25 7.03906 2.79688 6.33594L15.2422 1.0625ZM17.8438 3.17188C17.2812 2.89062 16.6484 2.89062 16.0859 3.17188L3.64062 8.44531C2.86719 8.72656 2.30469 9.5 2.375 10.3438C2.375 16.9531 5.11719 28.625 16.0859 33.8984C16.6484 34.1797 17.2812 34.1797 17.8438 33.8984C28.8125 28.625 31.5547 16.9531 31.625 10.3438C31.625 9.5 31.0625 8.72656 30.2891 8.44531L17.8438 3.17188Z" fill="#003671"/>
</svg>
