<svg width="117" height="68" viewBox="0 0 117 68" fill="none" xmlns="http://www.w3.org/2000/svg">
<g clip-path="url(#clip0_281_11872)">
<path d="M83.8304 6.24672C83.6682 6.02303 83.4314 5.37829 82.9805 5.125C81.9328 4.53948 80.804 4.05922 79.6622 3.69079C78.7508 3.39803 77.982 3.78948 77.622 4.74014C77.2522 5.71053 77.6479 6.44408 78.5075 6.86514C79.5195 7.36185 80.5575 7.8125 81.6182 8.1875C82.721 8.57566 83.7817 7.77961 83.8304 6.24672Z" fill="white"/>
<path d="M10.9863 55.1711C8.03132 55.1711 5.07956 55.1776 2.12456 55.1711C0.489735 55.1645 -0.162247 54.4342 0.0323748 52.773C1.36229 41.3717 5.47529 31.1382 12.5206 22.1448C13.578 20.7961 14.483 20.7303 15.6572 21.9178C19.874 26.1776 24.0714 30.4605 28.2947 34.7171C29.1478 35.579 29.297 36.4375 28.5866 37.4441C25.158 42.2928 22.9718 47.6579 22.0343 53.5592C21.8527 54.7007 21.1294 55.2007 19.9681 55.1875C16.9742 55.1546 13.9803 55.1777 10.9863 55.1777V55.1711ZM14.389 25.3158C8.48544 33.3158 4.9563 41.9967 3.61341 51.6711H18.8847C19.9357 46.4145 21.8008 41.5494 24.6974 37.125C25.1321 36.4605 24.8693 36.1316 24.4282 35.6908C22.07 33.3224 19.7216 30.9408 17.3894 28.5461C16.4 27.5329 15.4594 26.4704 14.389 25.3158Z" fill="black"/>
<path d="M54.3452 11.2006C54.3452 14.1612 54.3517 17.1184 54.3452 20.0789C54.3419 21.6217 53.9592 22.1118 52.4346 22.3914C46.8295 23.421 41.6785 25.5395 37.0238 28.9046C35.7588 29.8191 35.1976 29.7303 34.0721 28.5855C29.9558 24.398 25.8396 20.2072 21.7298 16.0131C20.4259 14.6842 20.4518 13.7895 21.8628 12.6579C30.4975 5.73683 40.2481 1.51315 51.1826 0.154594C51.3415 0.134858 51.5037 0.105252 51.6626 0.0789365C53.6056 -0.236853 54.3387 0.407884 54.3419 2.44736C54.3452 5.36512 54.3419 8.28288 54.3419 11.2039L54.3452 11.2006ZM25.1552 14.4309C25.2687 14.6283 25.3076 14.7467 25.3855 14.8256C28.6908 18.2006 32.0123 21.5625 35.3014 24.9539C35.8042 25.4737 36.1416 25.2829 36.6508 25.0099C39.0706 23.7138 41.458 22.3158 43.9718 21.2434C46.184 20.2993 48.5519 19.7401 50.8647 19.0066V3.65459C41.3282 5.0263 32.8038 8.61183 25.1519 14.4309H25.1552Z" fill="black"/>
<path d="M105.846 55.1711C102.933 55.1711 100.02 55.1776 97.107 55.1711C95.6701 55.1678 95.1803 54.7368 94.9273 53.2664C93.9672 47.6414 91.9106 42.4803 88.6702 37.8092C87.5965 36.2599 87.6517 35.7961 88.9978 34.4309C93.033 30.3355 97.0714 26.2401 101.11 22.148C102.579 20.6579 103.377 20.7039 104.658 22.3586C111.574 31.2895 115.622 41.4211 116.958 52.6842C117.163 54.4112 116.514 55.1645 114.821 55.1711C111.827 55.1809 108.833 55.1711 105.839 55.1743L105.846 55.1711ZM113.394 51.6645C112.015 41.9868 108.515 33.3059 102.796 25.5658C102.618 25.625 102.524 25.625 102.475 25.6743C99.0922 29.0954 95.7025 32.5066 92.3583 35.9638C92.1637 36.1645 92.1766 36.7829 92.3323 37.0822C92.9649 38.3191 93.8374 39.4441 94.3532 40.7204C95.7998 44.2993 97.1168 47.9342 98.5278 51.6612H113.4L113.394 51.6645Z" fill="black"/>
<path d="M66.0971 3.60196V19.1447C71.4557 20.2599 76.4672 22.3224 80.9143 25.3552C84.5505 21.671 88.1121 18.0625 91.7677 14.3585C90.7849 13.6678 89.7015 12.898 88.6116 12.1414C87.4244 11.3125 87.1227 10.4079 87.7358 9.48025C88.3262 8.58551 89.3447 8.47367 90.5027 9.28288C92.1018 10.398 93.6912 11.5329 95.2255 12.7335C96.497 13.7302 96.5457 14.7072 95.4461 15.8322C91.2585 20.1217 87.0579 24.4013 82.8508 28.6743C81.7998 29.7401 81.2127 29.7829 79.9866 28.8947C75.3352 25.5263 70.1874 23.3881 64.5726 22.3816C63.0578 22.1085 62.6523 21.6151 62.6523 20.0789C62.6458 14.1579 62.6458 8.24012 62.6523 2.31907C62.6523 0.394724 63.4178 -0.243433 65.3284 0.078935C67.3978 0.427619 69.4673 0.773014 71.5271 1.17104C72.9413 1.44407 73.5187 2.1842 73.3143 3.3092C73.123 4.38157 72.2407 4.83551 70.8297 4.5592C69.2889 4.25657 67.7514 3.93749 66.0906 3.60196H66.0971Z" fill="black"/>
<path d="M62.5413 51.8586C64.9319 53.4178 66.4013 55.454 66.8295 58.2434C67.5269 62.7895 64.4064 67.0197 59.6577 67.8849C55.4603 68.648 51.0327 65.4507 50.251 61.0921C49.3006 55.7928 52.8654 51.2171 58.2759 50.8783C59.0543 50.829 59.4014 50.5395 59.7128 49.8849C62.0321 45.0559 64.374 40.2401 66.7322 35.4309C66.9787 34.9309 67.2836 34.2928 67.7215 34.1053C68.2275 33.8849 69.0611 33.8717 69.4796 34.1678C69.898 34.4638 70.0959 35.2401 70.1672 35.8322C70.2159 36.2204 69.8948 36.6678 69.7001 37.0724C67.3322 41.9671 64.9579 46.8586 62.5348 51.8553L62.5413 51.8586ZM58.4867 54.3586C55.6971 54.3717 53.4752 56.6316 53.4882 59.4375C53.5011 62.2171 55.7977 64.5428 58.5191 64.5296C61.2536 64.5165 63.5014 62.2138 63.5209 59.4046C63.5404 56.625 61.2665 54.3454 58.4899 54.3586H58.4867Z" fill="#EF7B10"/>
<path d="M83.8304 6.24672C83.785 7.77961 82.7243 8.57566 81.6182 8.1875C80.5575 7.8125 79.5195 7.36185 78.5075 6.86514C77.6479 6.44408 77.2522 5.71053 77.622 4.74014C77.982 3.79277 78.7508 3.39803 79.6622 3.69079C80.804 4.05921 81.9328 4.53948 82.9805 5.125C83.4314 5.37829 83.6682 6.01974 83.8304 6.24672Z" fill="black"/>
</g>
<defs>
<clipPath id="clip0_281_11872">
<rect width="117" height="68" fill="white"/>
</clipPath>
</defs>
</svg>
