<svg width="17" height="15" viewBox="0 0 17 15" fill="none" xmlns="http://www.w3.org/2000/svg">
<path d="M16.2012 0.000492239C16.1824 0.0280576 16.1678 0.0590687 16.1448 0.0826961C15.1909 1.05438 14.2365 2.02556 13.2826 2.99675C12.2263 4.07229 11.1696 5.14784 10.1133 6.22338C10.1003 6.23667 10.0883 6.25094 10.0721 6.26768C12.3783 9.17287 14.6839 12.0766 17 14.9946C16.9598 14.9966 16.9342 14.9985 16.9086 14.9985C15.277 14.9985 13.6454 14.9985 12.0133 15C11.9569 15 11.9219 14.9823 11.889 14.9404C10.543 13.2422 9.19545 11.545 7.8484 9.84773C7.65835 9.60801 7.46778 9.36829 7.27251 9.12217C7.25163 9.13989 7.23231 9.15318 7.21612 9.16943C6.20897 10.1948 5.20181 11.2201 4.19466 12.2454C3.30706 13.1497 2.41895 14.0534 1.53031 14.9567C1.50995 14.9774 1.47549 14.997 1.4473 14.997C0.964865 14.9985 0.482432 14.997 0 14.9956C0 14.9902 0 14.9852 0 14.9798C0.0261056 14.9577 0.0548219 14.937 0.0788391 14.9129C1.1262 13.8477 2.17303 12.782 3.22039 11.7163C4.19727 10.7219 5.17466 9.72763 6.15154 8.7333C6.30086 8.58169 6.44966 8.42959 6.59846 8.27798C6.58123 8.25436 6.56923 8.23713 6.55565 8.22039C5.70931 7.1542 4.86348 6.08752 4.01714 5.02133C2.70716 3.37135 1.39613 1.72038 0.0861486 0.0689135C0.0704852 0.0492239 0.0626536 0.0236275 0.050645 0.000492239C1.7355 0.000492239 3.42036 0.000492239 5.10522 0.000492239C5.11984 0.0221508 5.13342 0.0447938 5.1496 0.0654678C6.55252 1.83359 7.95596 3.60171 9.3594 5.36934C9.37193 5.38509 9.38759 5.39888 9.41317 5.42546C9.43249 5.40085 9.44502 5.38066 9.46173 5.36344C9.66588 5.15522 9.87107 4.94749 10.0752 4.73977C11.1591 3.63568 12.2435 2.53159 13.3275 1.42749C13.7947 0.95199 14.2615 0.475995 14.7283 0C15.2191 0 15.7104 0 16.2012 0V0.000492239ZM14.7967 13.9614C14.7727 13.9274 14.7591 13.9058 14.7429 13.8856C14.2239 13.2314 13.7049 12.5772 13.186 11.923C12.0206 10.4552 10.8558 8.9873 9.69042 7.51944C7.99773 5.38706 6.30504 3.25468 4.61339 1.12181C4.56953 1.06619 4.52515 1.04207 4.44945 1.04256C3.74668 1.04552 3.04392 1.04453 2.34115 1.04453H2.2383C2.27276 1.08982 2.29469 1.11984 2.31766 1.14889C4.17534 3.48948 6.03354 5.83008 7.89174 8.17067C9.40587 10.0781 10.92 11.985 12.4331 13.8934C12.4717 13.9422 12.5109 13.9633 12.5772 13.9633C13.2857 13.9609 13.9937 13.9619 14.7022 13.9619H14.7967V13.9614Z" fill="#4A4D50"/>
</svg>
