<svg width="40" height="40" viewBox="0 0 40 40" fill="none" xmlns="http://www.w3.org/2000/svg">
<path d="M18.0469 0.625C19.2969 0.15625 20.7031 0.15625 21.9531 0.625L35.7031 6.48438C37.4219 7.26562 38.75 8.90625 38.75 10.9375C38.6719 18.75 35.4688 32.8906 22.0312 39.375C20.7031 40 19.2188 40 17.8906 39.375C4.45312 32.8906 1.25 18.75 1.25 10.9375C1.17188 8.90625 2.5 7.26562 4.21875 6.48438L18.0469 0.625ZM20.9375 2.96875C20.3125 2.65625 19.6094 2.65625 18.9844 2.96875L5.15625 8.82812C4.29688 9.14062 3.67188 10 3.75 10.9375C3.75 18.2812 6.79688 31.25 18.9844 37.1094C19.6094 37.4219 20.3125 37.4219 20.9375 37.1094C33.125 31.25 36.1719 18.2812 36.25 10.9375C36.25 10 35.625 9.14062 34.7656 8.82812L20.9375 2.96875Z" fill="#1D1E20"/>
</svg>
