<svg width="72" height="60" viewBox="0 0 72 60" fill="none" xmlns="http://www.w3.org/2000/svg">
<g clip-path="url(#clip0_281_9375)">
<path d="M34.2383 36.2315C28.7733 36.2142 21.3929 35.7375 14.1026 34.2729C10.6666 33.5827 7.26485 32.722 4.16985 31.0093C3.06311 30.3967 1.99284 29.6029 1.13919 28.6754C-0.458709 26.9369 -0.340743 24.823 1.2829 23.0995C2.85292 21.4299 4.8755 20.5024 6.97315 19.7475C8.40161 19.2341 9.87082 18.8199 11.3379 18.4252C11.8741 18.2807 12.1057 18.0111 12.2559 17.4955C13.472 13.2893 14.6581 9.07447 15.9643 4.8963C16.8244 2.14393 18.7376 0.420458 21.6331 0.124945C22.6262 0.0235641 23.7114 0.288879 24.6788 0.618905C26.3925 1.2013 28.0247 2.03176 29.7341 2.63142C34.1504 4.18016 38.513 4.16507 42.8284 2.13098C44.3684 1.40406 46.0156 0.907947 47.6307 0.351433C51.5407 -0.998869 55.5194 1.76429 56.5124 4.76903C57.2009 6.85057 57.6385 9.02054 58.1468 11.1625C58.6487 13.2807 59.112 15.4075 59.5538 17.5387C59.6525 18.0132 59.867 18.1879 60.3195 18.3023C63.1721 19.0184 66.0076 19.8251 68.5342 21.3954C69.4308 21.9541 70.2973 22.6422 70.9901 23.4403C72.352 25.0085 72.3092 26.8959 71.0308 28.5331C69.9219 29.9502 68.4141 30.813 66.8227 31.5443C63.1721 33.2246 59.2921 34.0917 55.3649 34.7496C49.0205 35.8109 42.6225 36.2272 34.2404 36.2315H34.2383ZM35.7568 26.8031C35.7633 26.7319 35.7697 26.6608 35.774 26.5896C36.2823 26.5896 36.7885 26.5896 37.2968 26.5896C44.1496 26.5594 50.9552 25.9748 57.7092 24.7863C58.6723 24.6159 58.6873 24.5533 58.4535 23.574C57.4304 19.2923 56.4288 15.0042 55.4014 10.7224C55.0089 9.07878 54.6335 7.42865 54.1424 5.81304C53.5461 3.85014 50.7621 1.94332 48.3728 2.86438C46.8564 3.44893 45.2671 3.86739 43.7978 4.55117C38.9827 6.79233 34.0925 6.86351 29.14 5.19613C27.274 4.56843 25.4938 3.67542 23.6364 3.01968C21.2835 2.18707 19.1623 3.23323 18.4609 5.64048C16.7536 11.4882 15.1428 17.3661 13.4634 23.2246C13.2446 23.9903 13.5042 24.2578 14.2034 24.3678C16.6807 24.7561 19.1451 25.2781 21.6352 25.5413C26.3346 26.0395 31.0489 26.3933 35.759 26.8053L35.7568 26.8031ZM60.4654 21.0374C60.7292 21.9714 60.9544 22.7112 61.1496 23.4597C61.6279 25.3061 60.6369 26.9649 58.8138 27.282C52.0876 28.4532 45.3078 29.1262 38.4829 29.219C30.0645 29.3333 21.7253 28.5072 13.4656 26.8678C11.2478 26.4278 10.3684 25.0473 10.9003 22.8255C11.029 22.2928 11.1363 21.7535 11.3036 20.9899C9.54695 21.6327 7.93618 22.1224 6.41764 22.8126C5.31305 23.3152 4.25564 23.9968 3.31406 24.7669C2.33172 25.5715 2.35317 26.4537 3.31406 27.3035C4.04759 27.9507 4.8755 28.5827 5.7699 28.9321C7.95334 29.7841 10.1604 30.6232 12.4275 31.1905C19.2287 32.8881 26.1823 33.4252 33.1659 33.6042C38.9762 33.7531 44.7716 33.4899 50.5433 32.8061C54.7622 32.3057 58.9447 31.5831 62.9984 30.2501C64.8537 29.6396 66.694 28.9666 68.249 27.7306C69.7396 26.5464 69.7268 25.5413 68.2618 24.3355C68.2211 24.301 68.1803 24.2664 68.1353 24.2362C65.8725 22.6228 63.2772 21.829 60.4589 21.0395L60.4654 21.0374Z" fill="white"/>
<path d="M44.1327 59.9893C41.5675 60.136 39.7594 58.8202 38.2087 57.032C36.7931 55.4013 35.2038 55.3819 33.8268 57.004C32.2439 58.8698 30.3629 60.0022 27.7741 59.8663C24.0163 59.67 20.4066 58.9841 17.0735 57.17C11.9152 54.3637 8.8888 49.9742 7.81852 44.2084C7.53541 42.6877 7.82496 41.2015 8.64429 39.8599C9.62662 38.2486 11.0937 37.6079 12.9447 37.9078C19.8982 39.0294 26.899 39.5902 33.9383 39.5643C38.1873 39.5471 42.4469 39.5363 46.6851 39.2645C50.7839 38.9992 54.8676 38.4535 58.9471 37.9315C61.0941 37.6575 62.6598 38.3694 63.6186 40.3215C64.6052 42.3297 64.3178 44.3465 63.6894 46.3698C61.4931 53.4362 56.5621 57.4742 49.5871 59.1588C47.8069 59.5881 45.9537 59.7218 44.1349 59.9893H44.1327ZM44.1285 57.3771C45.8164 57.1204 47.5387 57.004 49.1838 56.5833C55.8221 54.8901 60.2019 50.8521 61.5574 43.9237C61.7225 43.076 61.3901 42.0859 61.1198 41.2145C60.9354 40.6213 60.3498 40.3625 59.6742 40.4725C54.1792 41.3568 48.6519 41.8896 43.0882 42.0859C32.9131 42.444 22.7745 42.1204 12.6959 40.5501C11.4669 40.3581 10.8878 40.6774 10.5596 41.8832C10.4009 42.4677 10.2829 43.1235 10.3795 43.708C11.0036 47.4224 12.683 50.5738 15.5678 53.007C19.1347 56.0139 23.3643 57.0924 27.9092 57.2693C29.1747 57.3189 30.2149 56.9328 31.1093 56.0764C31.4761 55.7248 31.8107 55.3366 32.1538 54.9591C33.1598 53.8547 34.3845 53.2356 35.8923 53.2076C37.5888 53.1774 38.9294 53.8676 40.0232 55.1511C41.0935 56.4065 42.2667 57.5044 44.1285 57.375V57.3771Z" fill="white"/>
<path d="M23.6365 43.7684C25.5454 43.7964 27.4157 44.0445 29.1894 44.8059C29.5069 44.9418 29.82 45.0949 30.1182 45.2718C32.4453 46.6437 32.7906 49.0962 30.9439 51.1087C28.5717 53.6929 25.037 54.3206 21.6096 52.7675C19.9044 51.9953 18.5489 50.8068 17.5344 49.2364C16.2754 47.2886 16.7344 45.4746 18.8792 44.6657C20.3763 44.1005 22.0085 43.8956 23.5807 43.5289C23.5979 43.6087 23.615 43.6886 23.6343 43.7684H23.6365ZM19.3554 47.0535C20.5393 49.6463 23.244 51.1734 25.94 50.9448C27.3535 50.824 28.4795 50.1704 29.2473 48.9474C29.6785 48.2615 29.6012 47.9012 28.9192 47.4957C28.6447 47.3339 28.3508 47.1873 28.0462 47.0988C25.9464 46.4905 23.8059 46.2403 21.631 46.5229C20.8932 46.62 20.1725 46.8594 19.3554 47.0557V47.0535Z" fill="#EF7B10"/>
<path d="M47.364 53.6238C45.1097 53.6087 43.2437 52.7674 41.7617 51.0742C40.3697 49.4844 39.8292 46.7623 42.6389 45.2416C44.7987 44.0724 47.1302 43.7057 49.5302 43.7985C50.7185 43.8438 51.9003 44.1221 53.0778 44.3313C53.4124 44.3895 53.7341 44.5556 54.043 44.7131C55.9283 45.6751 56.413 47.2541 55.2913 49.0595C53.9014 51.3007 51.9239 52.7804 49.3394 53.3585C48.6916 53.503 48.0224 53.5397 47.3618 53.6259L47.364 53.6238ZM49.8756 46.3395C48.6444 46.4409 47.75 46.4301 46.8942 46.6091C45.8347 46.8291 44.7902 47.1613 43.7714 47.5366C43.1536 47.7653 43.0571 48.2851 43.4196 48.8567C44.033 49.8209 44.8416 50.5155 45.9698 50.8002C48.5415 51.4495 51.6922 50.1035 53.0413 47.7998C53.3502 47.2735 53.1958 46.9499 52.681 46.8378C51.6451 46.6134 50.5919 46.4624 49.8756 46.3395Z" fill="#EF7B10"/>
</g>
<defs>
<clipPath id="clip0_281_9375">
<rect width="72" height="60" fill="white"/>
</clipPath>
</defs>
</svg>
