<svg width="63" height="49" viewBox="0 0 63 49" fill="none" xmlns="http://www.w3.org/2000/svg">
<g id="Layer_1" clip-path="url(#clip0_573_401)">
<path id="Vector" d="M0 15.0798C0.0900095 14.8086 0.176685 14.534 0.273362 14.2629C0.996772 12.2088 2.82697 10.958 5.14388 10.958C19.4754 10.958 33.8069 10.958 48.1384 10.958C49.4519 10.958 50.762 10.9546 52.0755 10.958C54.9925 10.9716 57.1327 13.0291 57.1594 15.9848C57.2061 20.9065 57.1761 25.8248 57.1694 30.7465C57.1694 31.4854 56.7627 31.9633 56.1959 31.943C55.6292 31.9227 55.2758 31.4583 55.2758 30.6922C55.2725 25.835 55.2759 20.9777 55.2725 16.117C55.2725 14.5578 54.5091 13.4087 53.1823 13.0155C52.7389 12.8833 52.2555 12.846 51.7888 12.846C46.9916 12.8359 42.1945 12.8392 37.3973 12.8392C26.7362 12.8392 16.075 12.8392 5.41391 12.846C4.92719 12.846 4.42047 12.8799 3.95709 13.0189C2.68695 13.3951 1.85353 14.5781 1.8502 15.9984C1.84353 25.3197 1.84019 34.6377 1.8502 43.9591C1.8502 45.7929 3.17367 47.1115 4.97053 47.1115C20.6955 47.1148 36.4205 47.1148 52.1455 47.1115C53.9757 47.1115 55.2558 45.8437 55.2692 43.9862C55.2892 41.2136 55.2758 38.4409 55.2758 35.6682C55.2758 35.5021 55.2692 35.3326 55.2758 35.1665C55.3092 34.4716 55.6426 34.0852 56.2093 34.0785C56.7827 34.0717 57.1327 34.4513 57.1694 35.1394C57.1827 35.3868 57.1694 35.6377 57.1694 35.8817C59.813 36.2139 61.3565 34.3666 61.0998 32.282C60.6764 28.8517 60.3097 25.418 59.9163 21.9844C59.5663 18.9439 59.2129 15.9068 58.8629 12.8664C58.5562 10.1988 58.2295 7.53453 57.9595 4.86353C57.7528 2.79249 56.256 1.59596 54.2357 1.86374C51.2521 2.26032 48.2584 2.58233 45.2681 2.93824C41.9144 3.33821 38.5607 3.74157 35.2037 4.13816C32.2134 4.49067 29.2264 4.8398 26.2361 5.19232C23.2458 5.54484 20.2588 5.90413 17.2718 6.26004C14.3048 6.61256 11.3379 6.97864 8.36422 7.30065C7.25743 7.41928 6.23066 7.61927 5.45058 8.54124C5.10721 8.94799 4.54048 8.92426 4.17711 8.59886C3.78373 8.24635 3.73706 7.71079 4.11044 7.25658C5.0572 6.10073 6.324 5.61263 7.76416 5.45332C10.4711 5.15503 13.1747 4.81607 15.8783 4.49745C18.8487 4.14832 21.8156 3.80597 24.786 3.45346C28.1396 3.05687 31.4967 2.65012 34.8504 2.25354C37.8607 1.89763 40.871 1.55189 43.878 1.19599C46.8483 0.843468 49.8119 0.460443 52.7856 0.145211C53.8557 0.0333544 54.9692 -0.0920606 56.0126 0.0943671C58.0661 0.460444 59.5363 2.25015 59.7763 4.34153C60.4264 10.0089 61.0798 15.6729 61.7299 21.3404C62.1399 24.9164 62.5466 28.4958 62.96 32.0718C63.2734 34.7733 61.6265 37.6104 57.9728 37.8375C57.1694 37.8884 57.176 37.9053 57.166 38.7527C57.1427 40.7526 57.2161 42.7626 57.0594 44.7489C56.876 47.0776 54.8225 48.8978 52.5356 48.9825C52.3922 48.9893 52.2489 48.9961 52.1055 48.9961C36.4205 48.9961 20.7355 48.9995 5.05387 48.9961C2.51693 48.9961 0.783416 47.5996 0.103344 45.0811C0.0833422 45.0031 0.0333369 44.9319 0 44.8574C0 34.9326 0 25.0079 0 15.0798Z" fill="black"/>
<path id="Vector_2" d="M11.7538 31.9537C10.8104 31.9537 9.87029 31.9639 8.92686 31.9537C7.16 31.93 5.91987 30.6589 5.9132 28.8692C5.90654 27.5981 5.90654 26.327 5.9132 25.0593C5.9232 23.3306 7.12 22.0459 8.83351 22.0086C10.8004 21.9679 12.7673 21.9713 14.7308 22.0086C16.3976 22.0425 17.5711 23.2119 17.6478 24.9305C17.7078 26.2829 17.7045 27.6387 17.6511 28.9912C17.5811 30.7809 16.3443 31.9401 14.5808 31.9537C13.6374 31.9605 12.6973 31.9537 11.7538 31.9537ZM11.8305 23.9237C10.8871 23.9237 9.94696 23.917 9.00353 23.9237C8.16678 23.9339 7.7834 24.2932 7.77007 25.1237C7.75006 26.3507 7.7534 27.5811 7.77007 28.8115C7.78007 29.6217 8.15344 30.0216 8.93352 30.0318C10.8371 30.0521 12.7439 30.0521 14.6475 30.0318C15.4142 30.0216 15.7609 29.6352 15.7676 28.8522C15.7776 27.6015 15.7776 26.3541 15.7676 25.1033C15.7609 24.2898 15.4075 23.9373 14.5941 23.9271C13.674 23.9136 12.7506 23.9271 11.8305 23.9271V23.9237Z" fill="#EF7B10"/>
<path id="Vector_3" d="M16.6677 41.9768C13.5107 41.9768 10.3537 41.9768 7.1967 41.9768C7.01334 41.9768 6.81999 42.0005 6.64664 41.9531C6.17992 41.8243 5.89989 41.4989 5.92323 41.0006C5.94656 40.5091 6.22659 40.1871 6.71998 40.1159C6.94 40.082 7.17003 40.1024 7.39672 40.1024C13.6074 40.1024 19.8214 40.1024 26.032 40.1024C26.1554 40.1024 26.2787 40.1024 26.4021 40.1024C27.1088 40.1125 27.5422 40.4718 27.5355 41.0447C27.5288 41.6141 27.0921 41.9768 26.3887 41.9768C23.1484 41.9768 19.9114 41.9768 16.671 41.9768H16.6677Z" fill="#EF7B10"/>
<path id="Vector_4" d="M49.2354 23.4322C49.2587 25.1168 48.8987 26.6828 48.2086 28.1743C47.8953 28.8522 47.4352 29.0793 46.8985 28.8352C46.3651 28.5946 46.2117 28.0726 46.5084 27.4048C47.6819 24.7677 47.6786 22.134 46.5018 19.5003C46.2051 18.8359 46.3684 18.3241 46.9118 18.08C47.4285 17.8496 47.8919 18.0597 48.1886 18.697C48.8887 20.2053 49.2621 21.7917 49.2354 23.4322Z" fill="#EF7B10"/>
<path id="Vector_5" d="M22.6991 35.0755C23.9292 35.0755 25.156 35.0688 26.3861 35.0755C27.0995 35.0789 27.5296 35.4382 27.5363 36.0009C27.5429 36.5873 27.0895 36.9602 26.3461 36.9602C23.8692 36.9602 21.3889 36.9635 18.912 36.9602C18.2119 36.9602 17.7719 36.5873 17.7619 36.0212C17.7519 35.4518 18.1819 35.0789 18.892 35.0721C20.1621 35.062 21.4323 35.0721 22.7024 35.0721L22.6991 35.0755Z" fill="#EF7B10"/>
<path id="Vector_6" d="M34.5337 36.9669C33.2835 36.9669 32.0367 36.9703 30.7866 36.9669C30.0232 36.9669 29.6198 36.6178 29.6331 35.9907C29.6465 35.3874 30.0132 35.0823 30.7733 35.0789C33.2502 35.0722 35.7271 35.0722 38.204 35.0789C38.9808 35.0789 39.3775 35.4247 39.3608 36.0416C39.3442 36.6314 38.9408 36.9636 38.214 36.9669C36.9872 36.9737 35.7571 36.9669 34.5303 36.9669H34.5337Z" fill="#EF7B10"/>
<path id="Vector_7" d="M10.7946 36.967C9.54447 36.967 8.29767 36.9704 7.04754 36.967C6.34413 36.9636 5.91742 36.5975 5.91408 36.0213C5.91075 35.4484 6.33079 35.0824 7.0442 35.0824C9.54113 35.0756 12.0381 35.0756 14.5383 35.0824C15.2684 35.0824 15.6651 35.4281 15.6651 36.0179C15.6651 36.6009 15.2451 36.967 14.5417 36.9704C13.2915 36.9771 12.0447 36.9704 10.7946 36.9704V36.967Z" fill="#EF7B10"/>
<path id="Vector_8" d="M46.3507 35.0755C47.6008 35.0755 48.8476 35.0687 50.0977 35.0755C50.8245 35.0823 51.2178 35.428 51.2112 36.0212C51.2045 36.6042 50.7878 36.9601 50.0777 36.9601C47.5808 36.9635 45.0839 36.9635 42.5869 36.9601C41.8869 36.9601 41.4635 36.5839 41.4668 36.0009C41.4702 35.4212 41.8802 35.0755 42.6069 35.0721C43.8571 35.0653 45.1039 35.0721 46.354 35.0721L46.3507 35.0755Z" fill="#EF7B10"/>
<path id="Vector_9" d="M45.4581 23.4594C45.1847 24.4559 44.958 25.4389 44.638 26.3914C44.418 27.0354 43.8879 27.2523 43.3745 27.0388C42.8511 26.8219 42.6645 26.266 42.9545 25.6152C43.5946 24.1644 43.5846 22.7272 42.9478 21.2799C42.6711 20.6528 42.8445 20.1308 43.3445 19.8969C43.8679 19.6529 44.418 19.8732 44.6513 20.5545C44.968 21.4832 45.1847 22.4493 45.4614 23.4628L45.4581 23.4594Z" fill="#EF7B10"/>
<path id="Vector_10" d="M41.4312 23.4255C41.2879 23.9068 41.2078 24.3881 41.0045 24.8016C40.7811 25.2491 40.3644 25.4355 39.861 25.222C39.3876 25.0254 39.2276 24.5745 39.321 24.0491C39.3876 23.6627 39.391 23.2424 39.3176 22.8594C39.211 22.3238 39.3643 21.9544 39.8177 21.7171C40.3011 21.4629 40.7345 21.6256 40.9745 22.073C41.1945 22.4798 41.2812 22.9577 41.4345 23.4255H41.4312Z" fill="#EF7B10"/>
<path id="Vector_11" d="M11.7414 27.9336C11.4347 27.9336 11.1247 27.954 10.8213 27.9302C10.2579 27.8862 9.84789 27.4828 9.86789 26.9811C9.89456 26.4253 10.2179 26.0727 10.7513 26.0388C11.4447 25.9948 12.1448 25.9948 12.8382 26.0456C13.3749 26.0829 13.6983 26.432 13.685 27.0049C13.6716 27.5811 13.3149 27.8692 12.7882 27.9268C12.4448 27.9641 12.0915 27.9336 11.7448 27.9336H11.7414Z" fill="#EF7B10"/>
</g>
<defs>
<clipPath id="clip0_573_401">
<rect width="63" height="49" fill="white"/>
</clipPath>
</defs>
</svg>
