<svg width="18" height="15" viewBox="0 0 18 15" fill="none" xmlns="http://www.w3.org/2000/svg">
<path d="M3.37154 0C3.642 0.0694828 3.9267 0.107382 4.18056 0.210554C5.07025 0.574812 5.56848 1.42545 5.42613 2.28662C5.28378 3.14568 4.51509 3.82366 3.53287 3.9521C2.3395 4.10791 1.21018 3.37939 1.01564 2.33294C1.00852 2.30135 0.994284 2.26977 0.982422 2.23819C0.982422 2.07396 0.982422 1.90972 0.982422 1.74549C0.991912 1.72444 1.00852 1.70338 1.01326 1.68022C1.15324 0.981181 1.58978 0.480063 2.3134 0.187393C2.54116 0.0947492 2.79976 0.0631662 3.0465 0.00210554C3.15564 0.00210554 3.26478 0.00210554 3.37391 0.00210554L3.37154 0Z" fill="#4A4D50"/>
<path d="M10.504 5.51445C10.6321 5.43023 10.7318 5.35864 10.8385 5.29548C11.752 4.76277 12.7698 4.6217 13.8374 4.66592C14.4448 4.69119 15.0355 4.79225 15.5931 5.02176C16.3831 5.34811 16.9145 5.89134 17.2514 6.59249C17.6168 7.35259 17.7283 8.15901 17.7331 8.97385C17.7473 10.8267 17.7378 12.6817 17.7378 14.5346C17.7378 14.7641 17.631 14.8609 17.3724 14.863C16.3096 14.863 15.2467 14.863 14.1814 14.863C13.9133 14.863 13.8113 14.7662 13.8113 14.5241C13.8113 12.8775 13.8137 11.2331 13.7994 9.58656C13.7971 9.24547 13.7544 8.90016 13.6761 8.56538C13.5479 8.01373 13.23 7.76527 12.6013 7.68526C12.1553 7.62841 11.7164 7.6621 11.3297 7.89371C10.9002 8.15059 10.7531 8.55275 10.7033 8.98017C10.6559 9.39707 10.6393 9.82028 10.6369 10.2393C10.6298 11.6563 10.6345 13.0754 10.6345 14.4925C10.6345 14.7767 10.5372 14.863 10.2146 14.863C9.18491 14.863 8.15287 14.863 7.1232 14.863C6.80054 14.863 6.70801 14.7809 6.70801 14.4904C6.70801 11.3742 6.70801 8.25586 6.70801 5.13967C6.70801 4.84068 6.79579 4.76488 7.13506 4.76488C8.11728 4.76488 9.09712 4.76488 10.0793 4.76488C10.4115 4.76488 10.504 4.8491 10.504 5.14809C10.504 5.26179 10.504 5.37549 10.504 5.51445Z" fill="#4A4D50"/>
<path d="M1.24805 9.79924C1.24805 8.24535 1.24805 6.69357 1.24805 5.13968C1.24805 4.85122 1.34295 4.76489 1.66324 4.76489C2.70002 4.76489 3.73444 4.76489 4.77122 4.76489C5.08677 4.76489 5.18167 4.84701 5.18404 5.12705C5.18404 8.25167 5.18404 11.3784 5.18404 14.503C5.18404 14.7809 5.08677 14.8631 4.77122 14.8631C3.74155 14.8631 2.70951 14.8631 1.67985 14.8631C1.34532 14.8631 1.24805 14.7788 1.24805 14.4862C1.24805 12.9239 1.24805 11.3615 1.24805 9.79924Z" fill="#4A4D50"/>
</svg>
