<svg width="100" height="100" viewBox="0 0 100 100" fill="none" xmlns="http://www.w3.org/2000/svg">
<g clip-path="url(#clip0_618_294)">
<path d="M33.6088 9C35.7443 9.41854 37.3254 10.5909 38.4495 12.4188C38.8762 13.1128 39.4934 13.1406 40.206 12.7946C42.3632 11.7504 44.581 11.791 46.8119 12.5363C47.2147 12.6708 47.6067 12.8758 47.9598 13.1128C49.3069 14.0204 49.4759 15.4404 48.3301 16.5829C47.6869 17.2235 46.9332 17.7552 46.2401 18.3489C45.6293 18.872 45.4452 19.4721 45.952 20.1746C47.3382 22.0986 46.3549 23.9372 44.4749 24.5821C44.4013 24.6078 44.3428 24.6718 44.189 24.7786C44.7846 25.0818 45.3477 25.3423 45.8849 25.6434C46.9137 26.2221 47.9988 26.7346 48.9322 27.4393C50.6108 28.7056 50.7624 30.2132 49.5343 31.8959C49.3784 32.1095 49.229 32.3252 48.9799 32.6732C49.5582 32.9209 50.0455 33.1708 50.561 33.3416C51.9384 33.8007 53.3289 34.2235 54.7107 34.6698C55.6875 34.9859 56.0709 35.5539 55.8348 36.2949C55.5987 37.038 54.9273 37.305 53.9873 37.0039C52.3998 36.4956 50.81 35.9853 49.2333 35.445C48.7546 35.2806 48.2781 35.0606 47.8623 34.7788C46.4372 33.8114 46.1924 32.37 47.1736 30.9606C48.0551 29.6922 48.0659 29.6217 46.6949 28.8295C45.6271 28.2123 44.4922 27.7041 43.4071 27.1169C42.8418 26.8115 42.2679 26.4912 41.7827 26.0791C40.5807 25.0562 40.7821 23.5892 42.1986 22.8845C42.818 22.577 43.4721 22.3399 44.2107 22.0282C41.8347 18.7311 43.9378 16.8306 46.4956 15.024C44.6872 14.2916 43.0259 14.1741 41.3669 14.9386C40.5135 15.3315 39.6515 15.5835 38.7072 15.387C37.6698 15.1714 36.9464 14.5307 36.3356 13.7043C34.4275 11.1247 31.1982 10.6208 28.4281 12.4765C29.3182 12.9954 30.2214 13.4694 31.0661 14.0289C31.8523 14.5499 32.5172 15.2717 32.4284 16.2519C32.3678 16.9203 31.9931 17.5758 31.6877 18.2015C31.5426 18.4983 31.2307 18.714 30.8971 19.0706C31.5036 19.4764 32.0494 19.8479 32.5995 20.2109C33.3597 20.7149 34.1914 21.1377 34.8693 21.7314C36.1667 22.8717 36.1667 24.407 34.8065 25.4448C33.0587 26.7795 31.7873 28.4494 30.6524 30.2922C29.5738 32.0433 28.3414 33.7004 27.1437 35.3788C26.821 35.8315 26.4117 36.2372 25.9893 36.6067C24.6183 37.8089 23.3036 37.7726 21.9716 36.5234C21.8352 36.3953 21.7377 36.2266 21.6403 36.0984C20.5508 36.7263 20.0375 38.0844 20.4057 39.2546C20.5422 39.6859 20.7349 40.0981 20.9147 40.5145C21.8612 42.699 20.8692 44.2621 18.4435 44.3881C17.1764 44.4543 15.9094 44.4778 14.6424 44.5483C13.2151 44.6294 11.8961 45.0416 10.733 45.8722C11.0189 47.6254 13.0072 49.5281 15.0452 50.0043C16.3881 50.3182 17.7244 50.2755 19.0347 49.8441C19.8058 49.59 20.5248 49.5665 21.1313 50.1879C21.7096 50.7794 21.6814 51.467 21.4367 52.1995C20.6245 54.636 18.9199 56.1778 16.518 57.0277C16.2451 57.1238 15.9657 57.2006 15.6798 57.2882C17.5598 59.7567 20.6072 60.0044 22.734 57.869C23.3015 57.2989 23.7975 56.6625 24.3411 56.0667C24.666 55.7101 24.9887 55.3428 25.3634 55.0439C26.6586 54.0103 28.1898 54.5997 28.3847 56.244C28.506 57.2732 28.4411 58.3217 28.5039 59.3595C28.7248 63.0837 29.877 66.5623 31.4083 69.9363C32.058 71.3691 32.7511 72.7849 33.3965 74.2199C33.7019 74.899 33.4637 75.5844 32.8854 75.8727C32.2681 76.1802 31.5231 75.9368 31.1895 75.2535C29.1883 71.1492 27.2174 67.0257 26.4052 62.4922C26.1474 61.0572 26.0586 59.5944 25.8832 58.0804C25.7142 58.2577 25.5518 58.4456 25.3699 58.6164C24.588 59.3489 23.8689 60.1667 23.0026 60.7839C21.0945 62.1441 19.0282 62.1249 16.9469 61.1597C14.9564 60.2393 13.3385 58.8214 11.8961 57.2199C11.6318 56.9273 11.4932 56.2525 11.6557 55.9279C11.8376 55.5649 12.3942 55.283 12.8426 55.172C13.9796 54.8858 15.2033 54.8581 16.2863 54.4524C17.1418 54.132 17.8392 53.4017 18.6059 52.8529L18.4673 52.5817C17.5771 52.5817 16.6805 52.6479 15.7946 52.571C12.052 52.2443 8.91802 49.5366 8.04734 45.9491C7.87191 45.2273 8.14048 44.7319 8.7036 44.2878C10.7157 42.7054 13.0548 42.116 15.5629 42.0285C16.2906 42.0029 17.0227 42.02 17.7504 41.9965C18.0623 41.9858 18.372 41.926 18.7965 41.8726C18.5907 41.3879 18.4196 41.0078 18.268 40.6213C17.4472 38.52 17.7482 36.5789 19.2102 34.8599C20.4231 33.4313 22.2814 33.1089 23.583 34.7061C23.6805 34.8257 23.8256 34.9069 24.0552 35.0927C24.5014 34.6229 24.9973 34.2065 25.3612 33.6982C26.4225 32.2205 27.5011 30.7471 28.4476 29.1989C29.7406 27.0848 31.1159 25.0626 33.3532 23.5614C32.8486 23.2347 32.4609 22.9784 32.0667 22.7307C31.3173 22.2567 30.5224 21.8424 29.8272 21.3C28.1833 20.0188 28.1118 18.4086 29.563 16.9139C29.7103 16.7622 29.8445 16.5999 30.0806 16.3373C29.6041 16.0213 29.1818 15.7138 28.7335 15.4511C28.0599 15.0582 27.3365 14.7464 26.691 14.3151C25.2096 13.3242 25.1446 11.9597 26.5113 10.8087C27.6094 9.88193 28.9522 9.4826 30.334 9.18365C30.5095 9.14521 30.6762 9.06833 30.8452 9.01068C31.7635 9.01068 32.6818 9.01068 33.6023 9.01068L33.6088 9Z" fill="black"/>
<path d="M91.0003 34.3048C90.409 35.6373 89.352 36.1818 87.9096 36.3099C86.426 36.4423 86.3177 36.6431 86.2549 38.1122C86.1682 40.1537 85.6614 42.0371 84.3706 43.6985C83.5822 44.7107 83.5345 45.9599 83.7685 47.1515C84.3489 50.1261 82.3217 51.1425 79.9284 50.1154C78.9039 49.6755 77.912 49.0755 77.0456 48.375C75.2068 46.8867 75.0271 45.204 76.3439 42.5987C74.5896 43.092 72.859 43.3782 71.3927 44.3391C70.2578 45.0822 69.9936 46.5108 70.7127 47.6746C71.161 48.3964 71.8194 48.9943 72.2483 49.7246C72.5796 50.2905 72.898 50.9909 72.8655 51.6123C72.8179 52.5199 71.8649 53.1562 70.717 52.9555C68.432 52.5541 67.1217 53.72 65.9846 55.4027C64.5335 57.5509 63.1278 59.7419 61.5186 61.7727C59.4805 64.3437 57.0136 66.4086 53.7237 67.3632C51.6033 67.976 50.4662 69.7591 50.4749 72.3323C50.4901 76.7974 49.5934 81.0576 47.7048 85.1128C47.434 85.6936 47.1438 86.2659 46.8298 86.8232C45.8378 88.5914 44.6487 90.1758 42.6865 91.0086H41.2267C39.6846 90.2442 38.7381 88.8882 37.8653 87.5215C36.4856 85.3605 35.2121 83.1311 33.9277 80.9124C33.4209 80.0369 33.5899 79.3599 34.2938 78.9926C34.9912 78.6296 35.5803 78.9307 36.1088 79.7998C37.6314 82.3132 39.1171 84.848 40.748 87.293C41.8591 88.9586 42.3161 88.9202 43.5701 87.2952C45.4349 84.88 46.4334 82.0698 47.2283 79.1763C47.891 76.7611 47.9105 74.2755 48.047 71.8027C48.1921 69.174 49.2252 67.0087 51.5795 65.6079C51.9672 65.3772 52.4068 65.2043 52.8443 65.0868C55.3459 64.4248 57.3103 62.9407 58.9217 61.0317C60.2472 59.46 61.3973 57.7431 62.6059 56.0754C63.1235 55.36 63.5697 54.5955 64.0787 53.8759C65.4172 51.986 66.9722 50.4186 69.6254 50.4742C69.2031 49.8399 68.7916 49.3168 68.4775 48.7402C67.1455 46.293 67.975 43.1561 70.5502 42.0521C72.8764 41.0548 75.4039 40.5124 77.847 39.7843C78.0701 39.7181 78.3322 39.7544 78.5726 39.7672C79.8721 39.8291 80.5435 40.9801 79.8807 42.0905C79.5147 42.7055 79.0036 43.2372 78.5747 43.8181C77.5806 45.1612 77.6846 45.9236 79.0664 46.8867C79.7118 47.3351 80.4374 47.6725 81.3275 48.1722C81.2929 47.4504 81.2712 46.9828 81.2496 46.5172C81.1651 44.8089 81.6416 43.3056 82.6076 41.8535C83.188 40.9801 83.3786 39.8505 83.7057 38.8233C83.7923 38.5521 83.7381 38.2404 83.7555 37.9478C83.9244 35.3234 85.0485 34.1532 87.68 33.8585C88.6546 33.7496 88.7694 33.6877 88.3969 32.7908C88.0374 31.9259 87.55 31.059 86.9198 30.3692C85.8802 29.2289 84.7236 29.1115 83.5584 30.1236C82.313 31.2042 81.2604 32.5004 80.1385 33.7175C79.9436 33.929 79.8288 34.2151 79.6837 34.4713C77.8059 37.8175 74.6264 38.6674 71.3278 36.5683C70.2427 35.8786 69.3785 34.8515 68.3995 33.9653C68.3476 34.1019 68.2501 34.339 68.1678 34.5824C68.0465 34.9347 67.9534 35.2978 67.8213 35.6458C66.7643 38.439 65.0295 39.4682 62.0449 39.0668C61.458 38.9878 60.8732 38.8853 60.2906 38.7699C59.4979 38.6141 59.0127 38.0418 59.1015 37.399C59.2033 36.6772 59.8011 36.2715 60.6544 36.3825C61.3215 36.468 61.9821 36.6196 62.6513 36.6922C64.1826 36.8587 64.8302 36.4829 65.3977 35.0586C65.7225 34.2429 65.9305 33.3823 66.2445 32.5623C66.7015 31.3707 67.5245 30.7429 68.5468 30.9949C69.1511 31.1444 69.7272 31.5907 70.2037 32.0242C70.6932 32.4683 71.0311 33.0727 71.4664 33.5809C72.3522 34.6123 73.5153 35.1291 74.8625 35.2166C75.9324 35.2871 76.7359 34.8536 77.2167 33.8692C78.1827 31.8939 79.5905 30.2496 81.2387 28.8018C82.1766 27.9775 83.1923 27.2793 84.4789 27.1063C86.4476 26.8415 88.007 27.67 89.1311 29.1435C89.9065 30.1621 90.383 31.4028 90.9938 32.5452V34.3069L91.0003 34.3048Z" fill="black"/>
<path d="M32.1384 45.5841C32.1384 47.2283 32.1384 48.6527 32.1384 50.077C32.1384 50.771 31.8612 51.2771 31.1399 51.4244C30.3191 51.591 29.7083 51.0571 29.6996 50.141C29.6801 48.0078 29.6931 45.8745 29.691 43.7412C29.691 43.2073 29.7083 42.6735 29.6866 42.1418C29.6585 41.4072 29.7235 40.711 30.5703 40.4612C31.376 40.222 31.8027 40.7516 32.2012 41.3324C33.2018 42.7867 34.2198 44.2281 35.2334 45.6737C35.3504 45.8403 35.4803 45.9962 35.7294 46.3229C35.7294 44.9947 35.7294 43.865 35.7294 42.7354C35.7294 42.3083 35.6839 41.8748 35.751 41.4584C35.855 40.805 36.2752 40.3971 36.9683 40.4099C37.6505 40.4228 38.127 40.7986 38.1443 41.4841C38.2136 44.337 38.2548 47.1899 38.2634 50.0428C38.2634 50.6706 37.9082 51.1532 37.239 51.3262C36.6001 51.4906 36.1257 51.2194 35.777 50.7283C34.7699 49.3104 33.7823 47.8796 32.7838 46.4553C32.6214 46.2247 32.4459 46.0026 32.1341 45.5862L32.1384 45.5841Z" fill="#EF7B10"/>
<path d="M39.8402 46.073C39.8402 44.7938 39.8315 43.5169 39.8424 42.2377C39.8532 41.0526 40.2495 40.6639 41.4538 40.6469C42.1273 40.6362 42.8031 40.6276 43.4745 40.6554C45.8006 40.7536 47.2756 41.9174 47.8864 44.1596C48.4322 46.1648 48.2286 48.0717 46.9377 49.7694C46.1147 50.852 44.9884 51.4179 43.6023 51.435C42.8204 51.4457 42.0385 51.4606 41.2567 51.4521C40.3492 51.4414 39.9052 51.0399 39.89 50.1452C39.864 48.7871 39.8835 47.4289 39.8835 46.0708C39.8684 46.0708 39.8554 46.0708 39.8402 46.0708V46.073ZM42.3807 49.0092C43.5092 49.1159 44.5834 49.1074 45.1855 48.0226C45.9241 46.6944 45.8938 45.2935 45.1509 43.9717C44.5358 42.8762 43.4463 43.0706 42.3807 43.1282V49.0092Z" fill="#EF7B10"/>
<path d="M63.1279 50.2862C63.1496 50.976 62.8182 51.4671 62.2508 51.5162C61.8198 51.5525 61.3541 51.2237 60.9101 51.0422C60.8538 51.0187 60.8105 50.9098 60.8018 50.835C60.6242 49.4854 59.6994 49.3509 58.5948 49.4961C58.4627 49.5132 58.3219 49.5175 58.1898 49.4961C57.1264 49.3146 56.4311 49.5922 56.1474 50.756C55.9698 51.4842 55.2334 51.7554 54.6118 51.5312C53.9447 51.292 53.6198 50.63 53.8992 49.8954C54.9648 47.0788 56.0521 44.2708 57.1437 41.4627C57.3646 40.8947 57.7891 40.5615 58.4367 40.5445C59.0778 40.5274 59.5629 40.8007 59.786 41.3751C60.8993 44.2302 61.9865 47.0959 63.076 49.9595C63.1214 50.0812 63.1193 50.2222 63.1279 50.2862ZM58.4778 44.8025C58.166 45.6438 57.9234 46.2951 57.6678 46.9849H59.3052C59.0301 46.2588 58.7897 45.6225 58.4778 44.8025Z" fill="#EF7B10"/>
<path d="M52.2096 45.9961C52.2096 47.3029 52.2183 48.6098 52.2075 49.9188C52.1988 50.9289 51.757 51.4499 50.9534 51.4457C50.1521 51.4414 49.7189 50.9246 49.7146 49.906C49.7037 47.2389 49.7124 44.5696 49.7102 41.9025C49.7102 41.2704 49.8705 40.6618 50.5398 40.5059C50.9231 40.4162 51.4862 40.5294 51.7786 40.7728C52.0537 41.0013 52.1793 41.5202 52.1923 41.9153C52.24 43.2734 52.2118 44.6358 52.2118 45.9961H52.2096Z" fill="#EF7B10"/>
<path d="M25.1474 45.8573C25.1474 44.5248 25.1387 43.1901 25.1496 41.8576C25.1582 40.9245 25.6196 40.3906 26.3754 40.4013C27.1313 40.412 27.5905 40.9544 27.5927 41.8811C27.5992 44.5739 27.5992 47.2688 27.5927 49.9615C27.5927 50.9075 27.1552 51.4307 26.3906 51.4478C25.5762 51.4649 25.1539 50.9631 25.1474 49.9381C25.1387 48.5778 25.1474 47.2175 25.1474 45.8573Z" fill="#EF7B10"/>
</g>
<defs>
<clipPath id="clip0_618_294">
<rect width="83" height="82" fill="white" transform="translate(8 9)"/>
</clipPath>
</defs>
</svg>
