<svg width="78" height="75" viewBox="0 0 78 75" fill="none" xmlns="http://www.w3.org/2000/svg">
<g clip-path="url(#clip0_281_9429)">
<path d="M78.0004 55.9757C77.6158 56.5665 77.0725 56.7476 76.3786 56.7414C73.0535 56.7167 69.7265 56.7373 66.4014 56.7229C65.9456 56.7229 65.6058 56.8052 65.2863 57.1901C64.4886 58.1533 63.404 58.6247 62.1525 58.8079C62.5677 61.1296 61.9348 63.0314 59.9365 64.2704C58.1641 65.3695 56.3592 65.1802 54.5827 64.0523C53.5184 66.9008 51.512 68.1276 48.4922 67.613C48.0425 69.8976 46.7992 71.4434 44.4896 71.9065C42.1331 72.3778 40.5317 71.0626 39.0747 69.3563C38.8691 69.593 38.7125 69.7947 38.5334 69.9717C37.9412 70.5583 37.288 70.6098 36.7874 70.122C36.2807 69.628 36.3011 68.9797 36.879 68.3601C37.5851 67.6027 37.9677 66.7671 37.6604 65.7071C37.168 64.007 35.1595 63.2063 33.8368 64.3507C32.3167 65.6638 30.9249 67.1396 29.5778 68.6359C28.7536 69.5539 28.9246 70.9823 29.7629 71.8674C30.6054 72.7545 31.9301 72.9027 32.9618 72.2214C33.1104 72.1226 33.2406 71.997 33.3851 71.8962C33.9386 71.5072 34.5572 71.5566 34.9662 72.0156C35.3976 72.5013 35.3772 73.1805 34.8583 73.6663C33.4421 74.9897 31.7673 75.3149 29.9807 74.6995C28.1777 74.08 27.1216 72.7339 26.8164 70.8156C26.7676 70.513 26.7594 70.2043 26.7289 69.8976C26.7269 69.8771 26.7004 69.8585 26.6333 69.768C25.278 69.768 24.0042 69.3604 22.9786 68.3272C21.9509 67.2899 21.5541 65.9973 21.546 64.5771C18.2901 64.4083 16.4506 62.4406 16.2878 59.3656C13.1174 58.4683 9.88801 58.9005 6.68303 58.8223C4.90656 58.7791 3.12805 58.8264 1.35158 58.8058C0.5193 58.7976 0.0614456 58.4065 0.00446825 57.7479C-0.0606488 56.9822 0.462322 56.4635 1.35768 56.4594C3.64288 56.4471 5.92808 56.4553 8.21328 56.4553C9.30399 56.4553 10.3927 56.4553 11.4467 56.4553C11.3715 55.5703 11.2249 54.7223 11.2494 53.8784C11.284 52.6723 11.8619 51.6781 12.7002 50.8322C13.8337 49.6899 14.9651 48.5455 16.0924 47.3991C17.6186 45.8472 19.4236 45.3367 21.4483 46.1333C23.473 46.9319 24.464 48.5393 24.5231 50.7355C24.5231 50.8096 24.5475 50.8816 24.5699 51.0154C25.9862 50.9886 27.2519 51.4044 28.2754 52.4397C29.301 53.477 29.7324 54.7511 29.7161 56.2618C31.1609 56.233 32.4287 56.6467 33.4543 57.6779C34.4819 58.7132 34.9296 59.979 34.897 61.4506C35.4159 61.5247 35.9185 61.5536 36.4008 61.6709C38.5802 62.2019 40.0677 64.0996 40.0494 66.3657C40.0453 66.905 40.1939 67.2857 40.5886 67.6315C41.0282 68.0164 41.4107 68.4713 41.8381 68.8726C42.941 69.912 44.4611 69.9038 45.448 68.8665C46.4248 67.8394 46.4146 66.3492 45.3686 65.2748C43.5169 63.371 41.6285 61.5042 39.7849 59.5921C39.5061 59.3018 39.2354 58.8655 39.2151 58.4847C39.1683 57.5935 40.2407 57.0604 40.9773 57.5791C41.3273 57.8261 41.6163 58.1636 41.9215 58.4724C43.9157 60.4853 45.914 62.4962 47.898 64.5215C48.6408 65.279 49.5056 65.6 50.5251 65.3037C52.3769 64.7644 52.9385 62.4695 51.5527 61.0431C49.3998 58.8264 47.2143 56.6426 45.0431 54.4444C44.8823 54.2818 44.7032 54.1274 44.5771 53.9381C44.2148 53.3968 44.2515 52.8596 44.7276 52.4109C45.1774 51.9869 45.6922 51.9931 46.1887 52.3327C46.3963 52.4747 46.5672 52.6723 46.7463 52.8534C49.6745 55.8131 52.6048 58.7667 55.5228 61.7367C56.29 62.5168 57.1711 62.842 58.215 62.5147C60.0627 61.9364 60.5633 59.6826 59.1551 58.2398C56.872 55.8996 54.5644 53.5861 52.267 51.2603C52.0879 51.0792 51.8946 50.9043 51.7542 50.6943C51.4082 50.1798 51.453 49.6611 51.8824 49.2247C52.3117 48.7884 52.8286 48.7575 53.3373 49.0848C53.5469 49.2206 53.7219 49.4182 53.901 49.5993C55.9135 51.6308 57.9199 53.6705 59.9365 55.6958C60.6894 56.4512 61.597 56.6652 62.5961 56.2948C63.5688 55.9346 64.104 55.1936 64.2119 54.1583C64.2933 53.3762 64.043 52.6908 63.4915 52.1289C62.7752 51.4003 62.0508 50.6799 61.3406 49.9472C60.6956 49.2803 60.6386 48.6649 61.1514 48.1256C61.6418 47.6111 62.3377 47.6564 62.9584 48.2697C63.6848 48.988 64.3991 49.7166 65.1133 50.4473C66.1511 51.5073 66.5907 52.8102 66.5764 54.3868C66.8837 54.3868 67.1523 54.3868 67.423 54.3868C70.3939 54.3868 73.3628 54.4012 76.3338 54.3744C77.0094 54.3683 77.569 54.5103 78.0024 55.0475V55.9716L78.0004 55.9757ZM23.7233 64.7562C23.8922 65.9376 24.3928 66.7382 25.3492 67.1766C26.3708 67.6459 27.3516 67.4586 28.1594 66.6662C29.3987 65.4518 30.6257 64.221 31.8202 62.9614C32.8479 61.8767 32.8356 60.3742 31.8528 59.3677C30.8435 58.3365 29.3376 58.3345 28.2469 59.4068C27.026 60.6047 25.803 61.8026 24.6533 63.0705C24.2361 63.5315 24.0286 64.1881 23.7254 64.7562H23.7233ZM13.3555 54.2365C13.5101 55.42 14.0026 56.2207 14.9549 56.6714C15.9764 57.1551 16.9552 56.974 17.7631 56.1857C19.0227 54.9549 20.2681 53.7076 21.4768 52.4273C22.4841 51.3591 22.4393 49.8154 21.4422 48.8357C20.437 47.8478 18.9494 47.8581 17.8913 48.8995C16.6724 50.0974 15.4494 51.2953 14.2977 52.5611C13.8785 53.0222 13.6648 53.6726 13.3555 54.2365ZM21.487 62.1793C21.7678 62.0475 22.4068 61.9076 22.8198 61.5206C24.1812 60.2507 25.4937 58.9252 26.7574 57.5565C27.6934 56.5418 27.5876 55.0269 26.6272 54.0842C25.683 53.158 24.228 53.0675 23.2492 53.9916C21.896 55.2718 20.5916 56.6035 19.3178 57.964C18.5872 58.7441 18.4957 59.7258 18.9291 60.6912C19.3524 61.6318 20.1297 62.1134 21.4849 62.1772L21.487 62.1793Z" fill="black"/>
<path d="M78.0005 33.7838C77.565 34.3149 77.0054 34.4589 76.3298 34.4569C71.4318 34.4363 66.5338 34.4363 61.6357 34.4569C60.9276 34.4589 60.3843 34.2696 59.8878 33.7365C58.8438 32.6168 57.745 31.5465 56.6665 30.4598C55.7081 29.4924 54.5644 28.9635 53.197 28.9635C49.467 28.9635 45.735 28.9635 42.005 28.9614C40.6091 28.9614 39.4492 29.4986 38.4724 30.4907C36.7895 32.2011 35.1128 33.9176 33.3994 35.5971C33.0962 35.8935 32.622 36.1837 32.2374 36.1714C31.9017 36.1611 31.4031 35.7721 31.3034 35.449C31.1915 35.0888 31.3197 34.4939 31.572 34.2058C32.4613 33.189 33.4503 32.2587 34.4006 31.2975C35.2084 30.4804 36.0163 29.6653 36.8221 28.8441C38.2913 27.3498 40.0759 26.6006 42.1474 26.5883C45.7757 26.5697 49.406 26.5677 53.0362 26.5883C55.0772 26.6006 56.8476 27.3251 58.3005 28.8009C59.2142 29.7291 60.1482 30.6347 61.0395 31.5836C61.3997 31.9664 61.7701 32.1208 62.2971 32.1187C66.9916 32.0981 71.6882 32.1187 76.3827 32.0961C77.0766 32.092 77.6179 32.2669 78.0005 32.8618V33.7859V33.7838Z" fill="black"/>
<path d="M54.5841 39.831C56.1835 41.4364 57.6771 42.9018 59.1199 44.4188C59.4048 44.7193 59.6408 45.2174 59.6245 45.6125C59.6123 45.9295 59.2196 46.4297 58.9266 46.4852C58.5216 46.5634 57.9274 46.4379 57.6324 46.16C56.2751 44.888 54.989 43.5358 53.6846 42.2041C53.4893 42.0045 53.3387 41.7616 52.8198 41.389C52.598 41.7307 52.423 42.1197 52.1463 42.4079C50.5366 44.073 48.5933 45.0301 46.2674 45.0692C44.8735 45.0939 43.4735 45.1103 42.0836 45.0054C40.6429 44.8963 39.3508 44.2891 38.1054 43.3876C37.9101 43.5687 37.7045 43.7457 37.5153 43.9351C36.4714 44.9848 35.4437 46.0509 34.3876 47.0903C32.7333 48.7184 30.7797 49.2577 28.5881 48.492C26.425 47.7366 25.2021 46.1168 24.9111 43.8322C24.7055 42.2226 25.198 40.7839 26.2521 39.5675C26.7852 38.95 27.3733 38.3799 27.9614 37.8118C28.5352 37.2561 29.16 37.2355 29.6524 37.7151C30.1306 38.1803 30.1347 38.8636 29.6198 39.4296C29.1396 39.9586 28.6105 40.4423 28.1222 40.965C26.8809 42.2926 26.889 44.285 28.1303 45.5364C29.3696 46.7878 31.3495 46.8063 32.6478 45.5302C34.1048 44.0997 35.5231 42.6302 36.9618 41.1812C37.7452 40.3949 38.199 40.3826 39.0435 41.1297C40.2563 42.2041 41.6543 42.7701 43.2781 42.7475C44.1409 42.7351 45.0037 42.7351 45.8665 42.7475C47.6654 42.7722 49.1753 42.1094 50.439 40.8292C51.7291 39.5202 53.0152 38.207 54.3195 36.9124C54.928 36.3093 55.5588 36.2887 56.0635 36.8033C56.5376 37.2849 56.4908 37.9868 55.9393 38.5796C55.7134 38.8224 55.4815 39.0612 55.2393 39.2855C55.0521 39.4605 54.8466 39.6128 54.582 39.831H54.5841Z" fill="black"/>
<path d="M32.9117 20.4012C33.1457 19.652 33.4184 18.6682 33.7643 17.709C33.9495 17.1945 33.9108 16.8281 33.5283 16.4103C32.9097 15.7331 32.3643 14.988 31.7945 14.2697C31.2756 13.6131 31.1474 12.8907 31.4893 12.1147C31.8332 11.3326 32.46 10.9621 33.2902 10.921C33.3919 10.9148 33.4978 10.8942 33.5934 10.9169C35.1989 11.2832 36.1472 10.5217 36.7455 9.08914C36.9103 8.69396 37.1748 8.33171 37.4394 7.99005C38.3083 6.86008 39.867 6.88889 40.6749 8.0662C41.1938 8.82363 41.615 9.65104 42.1502 10.3941C42.3354 10.6493 42.722 10.8469 43.0415 10.8922C43.6397 10.9745 44.2583 10.888 44.8627 10.9395C46.5191 11.0815 47.3107 12.794 46.336 14.1606C45.7438 14.9922 45.0397 15.7393 44.4476 16.5708C44.2746 16.8116 44.1993 17.2336 44.2706 17.5238C44.4761 18.3656 44.7854 19.1807 45.0397 20.0122C45.2575 20.7243 45.1944 21.3912 44.6063 21.9119C44.0264 22.4244 43.3874 22.445 42.6996 22.1239C41.6903 21.6526 40.681 21.171 39.6411 20.7737C39.2871 20.6379 38.7987 20.6338 38.4466 20.7676C37.3132 21.2039 36.2306 21.7699 35.0992 22.2124C33.9861 22.6488 32.8893 21.8317 32.9137 20.4033L32.9117 20.4012ZM42.2499 19.4812C42.2804 19.3988 42.3109 19.3145 42.3435 19.2321C42.2438 18.8966 42.1787 18.5447 42.0383 18.2256C41.5071 17.0257 41.731 16.0048 42.6325 15.0683C43.131 14.5496 43.538 13.9425 44.0732 13.2632C43.5828 13.2632 43.2551 13.2365 42.9316 13.2674C41.6699 13.3909 40.797 12.866 40.215 11.7319C39.8853 11.0918 39.46 10.5011 39.0469 9.83834C38.3836 10.8448 37.8525 11.8163 37.1647 12.6561C36.3833 13.609 35.146 13.1295 34.0655 13.3291C34.796 14.2924 35.5388 15.1136 36.0963 16.0501C36.7536 17.1512 35.8786 18.2009 35.6955 19.5388C37.9339 17.9169 40.0949 17.8366 42.2519 19.4812H42.2499Z" fill="#EF7B10"/>
<path d="M8.14702 32.6416C10.3305 32.6416 12.5139 32.6663 14.6974 32.6189C15.1329 32.6086 15.6538 32.4316 15.9814 32.1496C18.639 29.8595 21.7205 28.7117 25.226 28.7062C27.1815 28.7062 29.135 28.7021 31.0906 28.7062C31.9778 28.7083 32.4804 29.1405 32.4804 29.8712C32.4804 30.608 31.9982 31.0197 31.0865 31.0217C28.4208 31.0279 25.7551 31.0423 23.0893 31.0176C21.5693 31.0032 20.1774 31.3819 19.1599 32.5325C17.3631 34.5619 15.2265 35.2205 12.5363 35.0518C8.89383 34.8233 5.22693 34.9982 1.57224 34.9921C0.678912 34.9921 0.202744 34.6339 0.131523 33.9506C0.0460565 33.1355 0.542574 32.6498 1.5234 32.6457C3.73127 32.6333 5.94118 32.6416 8.14905 32.6416H8.14702Z" fill="black"/>
<path d="M30.1048 7.86245C29.7303 7.69161 29.4434 7.62987 29.2481 7.45903C28.8106 7.0762 28.3934 6.66044 28.017 6.21586C27.5876 5.70953 27.6283 5.05707 28.0882 4.63308C28.5643 4.19467 29.1138 4.16997 29.6001 4.57339C30.0661 4.96034 30.5524 5.3761 30.8618 5.88243C31.0632 6.21174 31.0917 6.77158 30.9635 7.14618C30.8577 7.4508 30.4019 7.62987 30.1048 7.86245Z" fill="#EF7B10"/>
<path d="M40.1833 1.95738C40.1833 2.26405 40.2199 2.57485 40.1752 2.87535C40.0816 3.52781 39.5912 3.92711 38.9644 3.88594C38.3092 3.84272 37.9469 3.45783 37.9042 2.8136C37.8656 2.25376 37.8696 1.68981 37.8981 1.12997C37.9307 0.446632 38.299 0.0411603 38.9909 0.00205388C39.6359 -0.0349943 40.1223 0.417817 40.1914 1.11556C40.2179 1.39342 40.1955 1.67746 40.1955 1.95738C40.1915 1.95738 40.1894 1.95738 40.1853 1.95738H40.1833Z" fill="#EF7B10"/>
<path d="M47.8115 7.74101C47.6731 7.63398 47.2499 7.46109 47.1033 7.15235C46.9528 6.8395 46.9243 6.2879 47.1033 6.0265C47.5001 5.45019 48.0109 4.91711 48.5807 4.51987C48.8595 4.3264 49.4435 4.34286 49.7569 4.5137C50.0377 4.66601 50.2554 5.14969 50.288 5.50577C50.3511 6.20762 48.7598 7.73278 47.8095 7.74101H47.8115Z" fill="#EF7B10"/>
</g>
<defs>
<clipPath id="clip0_281_9429">
<rect width="78" height="75" fill="white"/>
</clipPath>
</defs>
</svg>
