<svg width="94" height="94" viewBox="0 0 94 94" fill="none" xmlns="http://www.w3.org/2000/svg">
<circle cx="47" cy="47" r="47" fill="url(#paint0_linear_888_21)"/>
<circle cx="47.0016" cy="47" r="35.8375" fill="url(#paint1_linear_888_21)"/>
<g clip-path="url(#clip0_888_21)">
<path d="M29 33.3566C29.0263 33.2937 29.0581 33.2317 29.0769 33.1669C29.3872 32.0979 30.3041 31.3944 31.4197 31.3934C36.5637 31.3897 41.7087 31.3915 46.8528 31.3925C47.3169 31.3925 47.6056 31.6245 47.6094 31.9918C47.6131 32.3581 47.3272 32.5958 46.8603 32.5958C41.8212 32.5976 36.7822 32.5967 31.7431 32.5976C31.5912 32.5976 31.4375 32.593 31.2875 32.6127C30.6491 32.6972 30.2375 33.1472 30.2 33.7925C30.1953 33.8742 30.1981 33.9569 30.1981 34.0386C30.1981 42.2775 30.1981 50.5164 30.2019 58.7553C30.2019 58.9854 30.2188 59.2325 30.3012 59.4429C30.5216 60.0056 30.9866 60.2009 31.5641 60.2C33.4738 60.1962 35.3844 60.1991 37.2941 60.1991C42.8253 60.1991 48.3566 60.1991 53.8878 60.1962C54.1203 60.1962 54.3622 60.1887 54.5825 60.1249C55.1009 59.9764 55.3822 59.5143 55.3831 58.8643C55.385 55.6292 55.3831 52.3951 55.3831 49.16C55.3831 49.0426 55.3766 48.9252 55.3878 48.8087C55.4225 48.4405 55.6606 48.2028 55.9897 48.1981C56.3197 48.1934 56.5663 48.4273 56.6075 48.7918C56.6197 48.896 56.6131 49.0022 56.6131 49.1083C56.6131 52.3199 56.6131 55.5306 56.6131 58.7422C56.6131 60.416 55.6203 61.4089 53.9497 61.4089C47.3994 61.4089 40.8481 61.4089 34.2978 61.4089H33.8431C33.8431 61.9246 33.7991 62.4178 33.8553 62.8978C33.9134 63.3937 34.3841 63.7432 34.9325 63.7958C35.0487 63.807 35.1669 63.8014 35.2841 63.8014C42.6903 63.8014 50.0966 63.8014 57.5028 63.8014C58.5631 63.8014 58.9925 63.3721 58.9925 62.3088C58.9925 57.7267 58.9925 53.1437 58.9925 48.5616C58.9925 48.4207 58.9897 48.2798 59.0066 48.1408C59.0459 47.8214 59.2916 47.5969 59.5906 47.5932C59.8906 47.5894 60.1484 47.8074 60.1981 48.123C60.2178 48.2488 60.2094 48.3804 60.2094 48.509C60.2094 53.1146 60.2094 57.7211 60.2094 62.3267C60.2094 63.7338 59.6422 64.5134 58.2997 64.9549C58.28 64.9615 58.265 64.985 58.2481 65H34.5547C32.9516 64.3406 32.5916 63.7958 32.5916 62.0326C32.5916 61.8288 32.5916 61.625 32.5916 61.408C32.1481 61.408 31.7628 61.4136 31.3775 61.407C30.335 61.3892 29.4378 60.7241 29.1097 59.7331C29.0778 59.6355 29.0366 59.5415 29 59.4457C29 50.7494 29 42.0539 29 33.3576V33.3566Z" fill="black"/>
<path d="M65.0005 38.9118C64.8824 39.4445 64.7896 39.9846 64.6434 40.5087C63.6796 43.9514 60.6299 46.5308 57.0684 46.9319C52.3602 47.4626 48.1002 44.3797 47.1627 39.7629C46.1615 34.8342 49.483 29.9825 54.4405 29.1324C59.4552 28.2729 64.1746 31.6733 64.9152 36.6772C64.9387 36.8369 64.9724 36.9947 65.0005 37.1534V38.9109V38.9118ZM63.8015 37.9782C63.7902 33.6854 60.2558 30.1723 55.9733 30.1958C51.6871 30.2192 48.2005 33.7183 48.1996 37.9969C48.1996 42.2869 51.7255 45.8103 56.0071 45.8C60.298 45.7887 63.8118 42.2625 63.8005 37.9782H63.8015Z" fill="#EF7B10"/>
<path d="M33.21 47.0211H33.7022C39.3853 47.0211 45.0675 47.0211 50.7506 47.0211C50.8443 47.0211 50.9381 47.0202 51.0318 47.0211C51.5887 47.0296 51.7978 47.2306 51.7987 47.7876C51.8025 49.6973 51.8006 51.6079 51.8006 53.5176C51.8006 53.7486 51.8006 53.9807 51.8006 54.2108C52.995 54.3254 53.8162 54.8871 54.105 56.0322C54.2212 56.4953 54.2025 57.0091 54.1575 57.4919C54.1078 58.0217 53.6203 58.3955 53.0493 58.4444C52.9678 58.4519 52.8853 58.4491 52.8037 58.4491C46.125 58.4491 39.4462 58.4491 32.7675 58.4491C32.0287 58.4491 31.4906 58.0677 31.4109 57.4346C31.1859 55.6508 32.024 54.3827 33.765 54.2136V48.2498C33.5972 48.2498 33.4378 48.2535 33.2784 48.2498C32.4993 48.2282 32.0156 47.751 31.9959 46.9685C31.9837 46.4885 31.9912 46.0076 31.995 45.5276C31.9987 44.9978 32.2406 44.6239 32.7131 44.375C35.8678 42.7096 39.0197 41.0385 42.1715 39.3656C42.5878 39.1448 42.9956 39.1364 43.4109 39.3571C44.2472 39.8014 45.0862 40.241 45.9215 40.6881C46.2975 40.8901 46.4212 41.2452 46.245 41.5627C46.0725 41.8726 45.734 41.9534 45.359 41.7571C44.5922 41.356 43.8272 40.9521 43.0678 40.5369C42.885 40.4364 42.7397 40.4289 42.5503 40.5294C39.5259 42.1394 36.4978 43.7438 33.4678 45.3416C33.2775 45.4421 33.195 45.5501 33.2062 45.7699C33.225 46.1663 33.2118 46.5637 33.2118 47.0202L33.21 47.0211ZM32.6409 57.1979H52.9528C53.1684 55.9129 52.4381 55.4169 51.4406 55.4216C45.6534 55.4488 39.8653 55.4348 34.0781 55.4348C32.9643 55.4348 32.4412 56.0679 32.6418 57.1979H32.6409ZM43.9612 54.2249V48.2723H41.6231V54.2249H43.9612ZM48.2147 54.2136H50.5631V48.2704H48.2147V54.2136ZM35.0343 48.2658V54.2117H37.3547V48.2658H35.0343ZM38.6447 48.2667V54.2117H40.365V48.2667H38.6447ZM46.9781 54.2174V48.2817H45.2287V54.2174H46.9781Z" fill="black"/>
<path d="M36.5127 34.9836C37.5655 34.9836 38.6184 34.9807 39.6712 34.9845C40.1352 34.9864 40.4015 35.2212 40.394 35.6082C40.3884 35.9022 40.2374 36.0957 39.9571 36.1681C39.824 36.2028 39.6796 36.2056 39.5399 36.2066C37.5159 36.2085 35.4918 36.2085 33.4677 36.2085C33.4209 36.2085 33.374 36.2094 33.3271 36.2085C32.863 36.1925 32.5846 35.9548 32.594 35.5838C32.6034 35.2137 32.8855 34.9864 33.3524 34.9854C34.4052 34.9826 35.458 34.9854 36.5109 34.9854L36.5127 34.9836Z" fill="black"/>
<path d="M35.6062 38.6132C34.8562 38.6132 34.1062 38.616 33.3562 38.6122C32.8874 38.6094 32.6043 38.3811 32.594 38.0129C32.5837 37.6325 32.8781 37.3855 33.3618 37.3845C34.8618 37.3817 36.3618 37.3798 37.8618 37.3845C38.4356 37.3864 38.7656 37.8269 38.5368 38.2703C38.3953 38.5455 38.1421 38.6141 37.8562 38.6141C37.1062 38.6132 36.3562 38.6141 35.6062 38.6141V38.6132Z" fill="black"/>
<path d="M42.8152 45.2364C42.2424 45.2364 41.6687 45.2392 41.0958 45.2364C40.6655 45.2336 40.3899 44.9884 40.3946 44.6249C40.3993 44.2689 40.6533 44.0378 41.0771 44.035C42.2237 44.0284 43.3702 44.0293 44.5158 44.035C44.9377 44.0369 45.1937 44.2698 45.1983 44.6249C45.203 44.994 44.933 45.2336 44.499 45.2364C43.9374 45.2401 43.3758 45.2364 42.8143 45.2364H42.8152Z" fill="black"/>
<path d="M53.6465 40.7971C53.0052 40.1527 52.3893 39.5281 51.7659 38.9109C51.6599 38.8057 51.5399 38.6921 51.404 38.646C51.1227 38.5493 50.8668 38.6244 50.7009 38.8874C50.5152 39.1814 50.594 39.4463 50.8256 39.6793C51.5531 40.4092 52.2824 41.1371 53.0118 41.8651C53.4543 42.3066 53.6531 42.3216 54.1565 41.9346C56.6249 40.0381 59.0924 38.1397 61.5599 36.2423C62.0484 35.8665 62.1534 35.5594 61.9059 35.2259C61.6518 34.8831 61.3106 34.9 60.8118 35.2841C59.0399 36.6471 57.269 38.012 55.4981 39.375C54.8877 39.8446 54.2774 40.3124 53.6456 40.7971H53.6465Z" fill="white"/>
<path d="M53.6495 40.7971C54.2804 40.3124 54.8916 39.8446 55.502 39.375C57.2738 38.011 59.0438 36.6471 60.8157 35.2841C61.3145 34.9 61.6557 34.8831 61.9098 35.2259C62.1573 35.5594 62.0523 35.8665 61.5638 36.2423C59.0963 38.1397 56.6288 40.0381 54.1604 41.9346C53.6579 42.3207 53.4582 42.3066 53.0157 41.8651C52.2863 41.1371 51.5579 40.4092 50.8295 39.6793C50.5979 39.4473 50.5191 39.1824 50.7048 38.8874C50.8707 38.6244 51.1257 38.5483 51.4079 38.646C51.5429 38.693 51.6638 38.8067 51.7698 38.9109C52.3923 39.529 53.0091 40.1527 53.6504 40.7971H53.6495Z" fill="#EF7B10"/>
</g>
<defs>
<linearGradient id="paint0_linear_888_21" x1="76.4396" y1="12.3956" x2="19.6264" y2="86.2527" gradientUnits="userSpaceOnUse">
<stop stop-color="#FBFBFB"/>
<stop offset="1" stop-color="#EFF1F3"/>
</linearGradient>
<linearGradient id="paint1_linear_888_21" x1="69.4492" y1="20.6142" x2="26.1292" y2="76.9302" gradientUnits="userSpaceOnUse">
<stop stop-color="#EEF0F2"/>
<stop offset="1" stop-color="#FDFEFE"/>
</linearGradient>
<clipPath id="clip0_888_21">
<rect width="36" height="36" fill="white" transform="translate(29 29)"/>
</clipPath>
</defs>
</svg>
