<svg width="41" height="41" viewBox="0 0 41 41" fill="none" xmlns="http://www.w3.org/2000/svg">
<path d="M35.9219 0H5.92188C3.10938 0 0.921875 2.26562 0.921875 5V27.4219C0.921875 30.1562 3.10938 32.3438 5.92188 32.3438H13.4219V38.9062C13.4219 39.6875 14.2812 40.0781 14.9062 39.6094L24.6719 32.3438H35.9219C38.6562 32.3438 40.9219 30.0781 40.9219 27.4219V5C40.9219 2.26562 38.7344 0 35.9219 0ZM38.5 27.5C38.5 28.9062 37.3281 30 36 30H24.6719C24.125 30 23.6562 30.2344 23.1875 30.5469L16 35.9375V31.25C16 30.625 15.375 30 14.75 30H6C4.59375 30 3.5 28.9062 3.5 27.5V5C3.5 3.67188 4.59375 2.5 6 2.5H36C37.3281 2.5 38.5 3.67188 38.5 5V27.5Z" fill="#1D1E20"/>
</svg>
