<svg width="74" height="71" viewBox="0 0 74 71" fill="none" xmlns="http://www.w3.org/2000/svg">
<g clip-path="url(#clip0_281_9249)">
<path d="M4.31748 68.7683C4.31748 68.3616 4.31748 68.0442 4.31748 67.7288C4.31748 60.4267 4.34729 53.1245 4.2976 45.8224C4.28567 43.9894 5.23381 42.823 7.24536 42.9063C9.5491 43.0035 11.8588 42.9281 14.1665 42.9301C15.9395 42.9301 16.8022 43.7871 16.8022 45.5744C16.8062 52.9758 16.8042 60.3771 16.8042 67.7764C16.8042 68.07 16.8042 68.3636 16.8042 68.7108H19.913V67.8022C19.913 56.5901 19.9169 45.376 19.907 34.164C19.907 33.2157 20.1018 32.3548 20.9505 31.8529C21.3719 31.6049 21.9265 31.48 22.4234 31.472C24.9279 31.4343 27.4344 31.4462 29.9389 31.4581C31.537 31.4661 32.3917 32.3389 32.3917 33.9576C32.3957 45.2451 32.3917 56.5326 32.3917 67.8181V68.7247H35.5243C35.5243 68.4608 35.5243 68.2009 35.5243 67.9411C35.5243 63.8566 35.5243 59.772 35.5243 55.6895C35.5243 53.8724 36.383 53.0154 38.2077 53.0134C40.6387 53.0095 43.0696 53.0075 45.5006 53.0134C47.1305 53.0194 48.0051 53.9101 48.0071 55.5526C48.0091 59.661 48.0071 63.7713 48.0071 67.8796V68.7227H51.1417V67.8935C51.1417 62.1505 51.1417 56.4076 51.1417 50.6667C51.1417 48.9111 52.0202 48.0402 53.8012 48.0362C56.1825 48.0303 58.5637 48.0303 60.945 48.0362C62.7558 48.0402 63.6224 48.919 63.6244 50.7361C63.6244 56.4294 63.6244 62.1228 63.6244 67.8161V68.7663C64.6779 68.7663 65.6618 68.7604 66.6457 68.7663C67.4388 68.7723 67.9417 69.2146 67.9417 69.8792C67.9417 70.5418 67.4368 70.9722 66.6397 70.9921C66.441 70.998 66.2422 70.9921 66.0434 70.9921C44.6598 70.9921 23.2761 70.9921 1.89249 70.9921C1.66986 70.9921 1.44525 70.998 1.22263 70.9881C0.48122 70.9603 -0.00576636 70.5199 -0.00974176 69.8772C-0.0137172 69.2365 0.479232 68.7723 1.21269 68.7623C2.20257 68.7504 3.19045 68.7584 4.30754 68.7584L4.31748 68.7683ZM30.1079 68.7445V33.7573H22.2783V68.7445H30.1079ZM6.67091 45.2173V68.7167H14.4786V45.2173H6.67091ZM53.4335 68.7128H61.2948V50.387H53.4335V68.7128ZM37.8698 55.2729V68.7207H45.7172V55.2729H37.8698Z" fill="black"/>
<path d="M38.7696 34.4178C32.5044 27.7009 33.3273 17.6652 39.5448 11.833C45.6907 6.06824 55.3211 6.08609 61.4512 11.8786C67.6429 17.7306 68.4141 27.7346 62.0058 34.5964C63.3256 35.8779 63.0811 37.6375 63.3117 39.2304C63.7192 42.0632 62.9698 42.817 60.0737 42.817C53.5263 42.817 46.9788 42.817 40.4313 42.813C39.988 42.813 39.5269 42.817 39.1035 42.7059C38.0103 42.4183 37.3325 41.3133 37.4796 40.1112C37.6187 38.9844 37.74 37.8497 37.9705 36.7388C38.1256 35.9969 38.4615 35.2927 38.7696 34.4198V34.4178ZM50.3976 34.1798C53.077 34.1798 55.7565 34.1957 58.4339 34.1619C58.8096 34.158 59.2707 33.9973 59.545 33.7493C62.9042 30.6944 64.5083 26.8975 64.1247 22.3567C63.4568 14.4694 56.4303 8.79588 48.6286 9.93851C42.8881 10.7796 39.0081 14.1004 37.3603 19.6053C35.7185 25.0903 37.2271 29.8989 41.457 33.8009C41.6975 34.0211 42.1049 34.1619 42.4369 34.1659C45.0905 34.1957 47.744 34.1818 50.3996 34.1818L50.3976 34.1798ZM60.6581 36.5305H40.2822C40.0954 37.8775 39.9165 39.1689 39.7316 40.5119H61.1868C61.0079 39.1649 60.837 37.8735 60.6581 36.5305Z" fill="#EF7B10"/>
<path d="M70.975 12.5571C70.8677 12.6979 70.7007 13.0847 70.4065 13.2772C69.518 13.8544 68.5878 14.3702 67.6555 14.878C67.0076 15.2311 66.3794 15.0625 66.0475 14.4991C65.7156 13.9377 65.8885 13.3228 66.5385 12.932C67.4468 12.3825 68.3592 11.837 69.2954 11.341C70.1084 10.9106 70.979 11.4382 70.973 12.5571H70.975Z" fill="#EF7B10"/>
<path d="M35.0468 13.7334C35.0667 14.7193 34.2378 15.3323 33.5044 14.9673C32.425 14.4297 31.3755 13.8167 30.3678 13.1542C29.851 12.8149 29.8152 12.2218 30.1511 11.7021C30.4632 11.218 30.9541 10.9939 31.4968 11.2835C32.5403 11.8409 33.5699 12.4281 34.5698 13.0609C34.8262 13.2236 34.9514 13.5926 35.0468 13.7354V13.7334Z" fill="#EF7B10"/>
<path d="M39.5092 2.98353C39.6602 3.09859 40.0478 3.26919 40.2406 3.56477C40.831 4.47332 41.3617 5.42353 41.8805 6.37573C42.2085 6.9768 42.0216 7.60168 41.483 7.91709C40.9562 8.22457 40.2884 8.07381 39.9405 7.50448C39.376 6.57807 38.8214 5.64373 38.3185 4.6836C37.8892 3.8663 38.414 2.97957 39.5092 2.98353Z" fill="#EF7B10"/>
<path d="M62.7771 4.24321C62.7354 4.35827 62.6837 4.60227 62.5684 4.81255C62.0874 5.67349 61.5964 6.52848 61.0896 7.37554C60.694 8.03811 60.0361 8.2464 59.4656 7.92107C58.8793 7.58383 58.7401 6.95102 59.1297 6.25274C59.6346 5.34816 60.1554 4.45349 60.6861 3.56478C60.9683 3.09265 61.4096 2.87245 61.9483 3.02718C62.471 3.17596 62.7791 3.54295 62.7771 4.2452V4.24321Z" fill="#EF7B10"/>
<path d="M49.3566 2.74152C49.3566 2.19996 49.3407 1.65642 49.3606 1.11486C49.3884 0.430468 49.8376 -0.00397105 50.4797 -3.57151e-06C51.1157 0.00396391 51.5689 0.444354 51.5828 1.13073C51.6027 2.21583 51.6027 3.30094 51.5828 4.38406C51.5689 5.07043 51.1098 5.5009 50.4657 5.49694C49.8237 5.49297 49.3984 5.06051 49.3586 4.36819C49.3586 4.34438 49.3586 4.3186 49.3586 4.29479C49.3586 3.77704 49.3586 3.25928 49.3586 2.74152H49.3566Z" fill="#EF7B10"/>
<path d="M29.6946 24.64C29.1758 24.64 28.6551 24.6579 28.1383 24.6361C27.4287 24.6063 26.9317 24.1104 26.9476 23.4796C26.9635 22.8646 27.4128 22.4143 28.1184 22.3964C29.1798 22.3687 30.2432 22.3687 31.3047 22.3964C32.0322 22.4143 32.5211 22.9122 32.5033 23.5351C32.4834 24.158 31.9785 24.6162 31.253 24.6381C30.7342 24.6539 30.2154 24.642 29.6966 24.64H29.6946Z" fill="#EF7B10"/>
<path d="M71.1958 24.64C70.677 24.64 70.1582 24.6579 69.6394 24.6341C68.9338 24.6043 68.4269 24.0985 68.4448 23.4775C68.4607 22.8785 68.9318 22.4123 69.6215 22.3944C70.6829 22.3667 71.7464 22.3667 72.8078 22.3944C73.5492 22.4123 74.0183 22.8943 74.0004 23.5331C73.9825 24.158 73.4776 24.6043 72.7521 24.64C72.7283 24.64 72.7024 24.64 72.6786 24.64C72.1837 24.64 71.6907 24.64 71.1958 24.64Z" fill="#EF7B10"/>
</g>
<defs>
<clipPath id="clip0_281_9249">
<rect width="74" height="71" fill="white"/>
</clipPath>
</defs>
</svg>
