<svg width="45" height="45" viewBox="0 0 45 45" fill="none" xmlns="http://www.w3.org/2000/svg">
<g clip-path="url(#clip0_281_9290)">
<path d="M44.2862 45H0.703486C0.468563 44.7654 0.234923 44.5309 0 44.2963C0 42.9492 0 41.6009 0 40.2538C0.310664 39.6039 0.534033 38.8887 0.95253 38.3184C1.69196 37.3135 2.78185 36.8649 4.03991 36.8047V18.4286C3.12076 18.4286 2.23113 18.4132 1.34279 18.4337C0.726593 18.4478 0.25803 18.253 0 17.666C0 16.1125 0 14.5604 0 13.0082C0.216951 12.7801 0.396674 12.4891 0.655988 12.3327C6.09773 9.08357 11.5382 5.83184 17.003 2.6224C18.5923 1.68803 20.0686 0.530633 21.8787 0H23.1085C24.1072 0.235837 24.9468 0.799795 25.8107 1.31505C26.9032 1.96616 27.9995 2.61215 29.0933 3.26198C34.1589 6.27147 39.2232 9.28608 44.2939 12.2879C44.7895 12.5814 45.009 12.9582 44.9949 13.5388C44.9666 14.7398 44.9872 15.9408 44.9859 17.1418C44.9859 18.0492 44.6213 18.4184 43.7111 18.4248C42.9345 18.4299 42.1591 18.4248 41.3824 18.4273C41.2412 18.4273 41.1 18.4427 40.9434 18.4517V36.7983C41.0243 36.8098 41.0795 36.8213 41.1347 36.8252C43.3183 36.9649 44.973 38.7144 44.9846 40.8998C44.9897 41.8226 44.9576 42.7467 44.9949 43.6683C45.0193 44.2771 44.8164 44.7129 44.2837 44.9987L44.2862 45ZM42.9422 16.3394C42.9422 15.628 42.9255 14.9564 42.9499 14.2874C42.9614 13.9797 42.8472 13.8208 42.5891 13.6683C36.2732 9.92566 29.9623 6.17534 23.6541 2.42117C22.8736 1.95719 22.1213 1.95078 21.3408 2.42117C19.7002 3.40938 18.0493 4.37965 16.4023 5.35888C11.7397 8.12997 7.07594 10.9011 2.41599 13.6773C2.27606 13.7606 2.07066 13.8964 2.06553 14.0156C2.03343 14.786 2.04884 15.5575 2.04884 16.342H42.9396L42.9422 16.3394ZM22.4923 42.9531C28.8468 42.9531 35.2013 42.9531 41.5557 42.9531C41.9075 42.9531 42.2592 42.9428 42.6097 42.9557C42.851 42.9646 42.9524 42.8839 42.946 42.6301C42.9319 42.0597 42.9499 41.4881 42.937 40.9164C42.9229 40.2858 42.6854 39.7513 42.1963 39.3399C41.7316 38.949 41.1809 38.8618 40.5955 38.8618C28.531 38.8644 16.4665 38.8644 4.40192 38.8644C4.32875 38.8644 4.25558 38.8644 4.1824 38.8644C2.93076 38.8913 2.0989 39.7014 2.05269 40.9549C2.03472 41.4381 2.07965 41.9239 2.03985 42.4032C2.00134 42.8518 2.14769 42.9633 2.59443 42.9621C9.22748 42.9467 15.8592 42.9518 22.4923 42.9518V42.9531ZM12.3226 18.4517V36.7944H18.3587V18.4517H12.3226ZM26.6413 18.453V36.7931H32.6749V18.453H26.6413ZM10.1813 36.8021V18.4568H6.17091V36.8021H10.1813ZM20.4807 36.7906H24.4936V18.4645H20.4807V36.7906ZM34.82 18.4517V36.7867H38.8098V18.4517H34.82Z" fill="black"/>
<path d="M22.4797 14.322C20.2268 14.3181 18.3666 12.4468 18.3859 10.2025C18.4051 7.95952 20.2357 6.14332 22.4849 6.13819C24.7519 6.13307 26.6044 7.9749 26.6018 10.2295C26.5992 12.484 24.7442 14.3258 22.4797 14.322ZM20.4643 10.2448C20.4694 11.3753 21.3808 12.27 22.5118 12.2584C23.6466 12.2456 24.5298 11.3446 24.5234 10.2064C24.517 9.08744 23.585 8.16588 22.4733 8.18126C21.35 8.19664 20.4591 9.11307 20.4643 10.2461V10.2448Z" fill="#EF7B10"/>
</g>
<defs>
<clipPath id="clip0_281_9290">
<rect width="45" height="45" fill="white"/>
</clipPath>
</defs>
</svg>
