<svg width="40" height="36" viewBox="0 0 40 36" fill="none" xmlns="http://www.w3.org/2000/svg">
<path d="M36.25 0.5C36.875 0.5 37.5 1.125 37.5 1.75C37.5 2.45312 36.875 3 36.25 3H6.25C4.14062 3 2.5 4.71875 2.5 6.75V29.25C2.5 31.3594 4.14062 33 6.25 33H33.75C35.7812 33 37.5 31.3594 37.5 29.25V11.75C37.5 9.71875 35.7812 8 33.75 8H8.75C8.04688 8 7.5 7.45312 7.5 6.75C7.5 6.125 8.04688 5.5 8.75 5.5H33.75C37.1875 5.5 40 8.3125 40 11.75V29.25C40 32.7656 37.1875 35.5 33.75 35.5H6.25C2.73438 35.5 0 32.7656 0 29.25V6.75C0 3.3125 2.73438 0.5 6.25 0.5H36.25ZM28.125 20.5C28.125 19.4844 28.9062 18.625 30 18.625C31.0156 18.625 31.875 19.4844 31.875 20.5C31.875 21.5938 31.0156 22.375 30 22.375C28.9062 22.375 28.125 21.5938 28.125 20.5Z" fill="#1D1E20"/>
</svg>
