<svg width="66" height="90" viewBox="0 0 66 90" fill="none" xmlns="http://www.w3.org/2000/svg">
<g clip-path="url(#clip0_548_445)">
<path d="M3.50415 90.0001C3.14435 89.8278 2.77672 89.6711 2.43257 89.4753C0.930789 88.645 0.148613 87.3447 0.0234653 85.645C0 85.3865 0.0234653 85.1202 0.0234653 84.8539C0.0156435 62.4283 0.0234653 39.9949 0 17.5614C0 15.4074 0.71178 13.6685 2.24484 12.1567C5.6082 8.8591 8.93245 5.51445 12.2332 2.15414C13.6724 0.697218 15.3385 0.0157562 17.4034 0.0157562C31.9362 0.0470878 46.4769 0.0705865 61.0097 9.04403e-05C63.7552 -0.0155754 65.9922 2.00531 65.9844 4.99748C65.9452 31.3865 65.9374 57.7677 65.9922 84.1568C65.9922 86.9531 65.1944 88.9896 62.4646 90.0001H3.50415ZM3.05049 16.5432V17.7886C3.05049 40.0732 3.05049 62.3578 3.05049 84.6424C3.05049 86.6241 3.43375 87.0079 5.39701 87.0079C23.7938 87.0079 42.1906 87.0079 60.5873 87.0079C62.5428 87.0079 62.926 86.6241 62.926 84.6346C62.926 69.5797 62.926 54.5327 62.926 39.4779C62.926 28.0262 62.926 16.5745 62.926 5.13064C62.926 3.50923 62.4489 3.03142 60.8455 3.03142C46.43 3.03142 32.0066 3.03142 17.5911 3.01576C16.7777 3.01576 16.4726 3.18025 16.4961 4.05753C16.5587 6.60322 16.5274 9.14892 16.5117 11.7024C16.4961 14.7181 14.658 16.5432 11.6231 16.5432C8.81512 16.5432 6.01493 16.5432 3.05049 16.5432ZM5.41266 13.5275C7.62621 13.5275 9.7772 13.5588 11.936 13.5118C12.9763 13.4883 13.5004 12.8774 13.5082 11.8043C13.5238 10.1985 13.5082 8.58495 13.5082 6.9792C13.5082 6.44657 13.5082 5.91393 13.5082 5.42046C10.794 8.13847 8.13463 10.8017 5.40483 13.5275H5.41266Z" fill="black"/>
<path d="M37.1848 35.3264C37.701 37.8173 38.319 40.1671 38.6397 42.5562C38.8821 44.3577 39.0307 46.2611 38.7179 48.0314C38.2095 50.8904 35.2215 52.8486 32.4526 52.5118C29.4256 52.1436 27.1104 49.6684 27.0322 46.6841C26.9383 43.1045 27.7752 39.6658 28.6669 36.2428C28.7217 36.0157 28.7921 35.7964 28.839 35.5692C28.8468 35.5222 28.8155 35.4674 28.7764 35.3342C26.3438 36.2585 24.4432 37.8094 22.9961 39.9478C21.8933 41.5771 21.291 43.3943 21.0563 45.3368C20.853 47.0601 19.8127 48 18.0684 48.0079C15.5264 48.0157 12.9765 48.0235 10.4344 48.0079C8.59628 48 7.43866 46.8564 7.54816 45.0235C7.94707 38.2637 10.583 32.4752 15.5733 27.9243C22.8397 21.3055 31.3732 19.2925 40.7124 22.269C50.0907 25.2611 55.8006 31.9113 57.9907 41.5301C58.2488 42.6658 58.3505 43.8408 58.4052 45.0079C58.4913 46.8564 57.3649 48 55.5425 48.0079C52.9691 48.0235 50.3958 48.0235 47.8224 48.0079C46.1485 48 45.1239 47.0366 44.9049 45.3603C44.3182 40.9034 42.0265 37.6606 37.9904 35.671C37.7323 35.5457 37.4664 35.4517 37.1692 35.3264H37.1848ZM50.0203 31.8486C48.2448 33.6345 46.5005 35.3812 44.7172 37.175C46.5005 39.3995 47.5721 42.0392 47.9319 44.953H55.4173C55.0184 39.9321 53.2194 35.5692 50.0203 31.8486ZM15.9722 31.8329C12.7575 35.5849 10.9428 39.9478 10.5674 44.9609H18.0606C18.3813 41.9687 19.5389 39.3603 21.2519 37.1593C19.4529 35.3499 17.7321 33.611 15.9722 31.8329ZM42.3472 34.8094C44.154 32.9844 45.8748 31.2533 47.6347 29.4831C43.9193 26.3107 39.5704 24.517 34.5332 24.1175C34.5332 25.7233 34.5332 27.235 34.5332 28.7546C34.5332 28.8878 34.5958 29.0366 34.6584 29.1619C35.0182 29.8825 35.378 30.611 35.7691 31.316C35.8786 31.5196 36.0506 31.7938 36.2462 31.8408C38.5145 32.4126 40.5716 33.3917 42.3472 34.8094ZM18.35 29.4909C20.1412 31.2925 21.8698 33.0235 23.6453 34.8094C25.3818 33.423 27.4076 32.4282 29.6525 31.8878C29.7854 31.8564 29.9888 31.8173 30.0357 31.7154C30.5207 30.7677 31.2324 29.8434 31.3889 28.8329C31.6157 27.2977 31.4515 25.7076 31.4515 24.1097C26.3986 24.5327 22.0575 26.3186 18.3578 29.4909H18.35ZM33.1722 32.8747C33.0706 32.8825 32.9689 32.8982 32.8672 32.906C32.5152 34.0183 32.1398 35.1149 31.8191 36.235C30.8961 39.4387 30.1218 42.6737 30.0201 46.0261C29.9575 48.0705 31.2559 49.4961 33.0393 49.4726C34.8226 49.4491 36.1132 48.0705 35.949 46.0575C35.7769 43.8799 35.4718 41.7024 35.0182 39.564C34.5332 37.3003 33.798 35.0992 33.1722 32.8669V32.8747Z" fill="#EF7B10"/>
<path d="M38.2559 70.5039C32.1158 70.5039 25.9758 70.5039 19.8278 70.5039C18.6155 70.5039 17.9428 69.8929 18.0288 68.8825C18.0992 68.1148 18.5451 67.6684 19.296 67.5352C19.468 67.5039 19.6479 67.5195 19.82 67.5195C32.1002 67.5195 44.3882 67.5195 56.6683 67.5195C57.6382 67.5195 58.2405 67.9269 58.4048 68.6631C58.6238 69.6658 57.9511 70.496 56.8482 70.5039C54.5643 70.5195 52.2882 70.5039 50.0042 70.5039C46.0855 70.5039 42.1668 70.5039 38.2481 70.5039H38.2559Z" fill="black"/>
<path d="M38.2567 56.9844C44.3655 56.9844 50.4821 56.9844 56.5909 56.9844C57.7251 56.9844 58.3899 57.517 58.429 58.4178C58.4681 59.2246 57.991 59.8356 57.1932 59.9687C56.849 60.0235 56.4971 60.0235 56.1451 60.0235C44.1856 60.0235 32.2183 60.0235 20.2588 60.0235C19.9694 60.0235 19.6722 60.0235 19.3828 59.9922C18.5537 59.8904 18.0375 59.3343 18.014 58.551C17.9984 57.7442 18.5459 57.1097 19.3828 57C19.6409 56.9687 19.9069 56.9844 20.1728 56.9844C26.1956 56.9844 32.2261 56.9844 38.2489 56.9844H38.2567Z" fill="black"/>
<path d="M38.1617 81.0235C32.139 81.0235 26.1162 81.0235 20.0857 81.0235C19.7102 81.0235 19.3113 81.0078 18.9671 80.8903C18.2397 80.6319 17.9425 80.0522 18.0364 79.2924C18.1302 78.564 18.5682 78.141 19.2957 78.0392C19.5538 78 19.8197 78.0078 20.0857 78.0078C32.1625 78.0078 44.2393 78.0078 56.3239 78.0078C56.4412 78.0078 56.5585 78.0078 56.6758 78.0078C57.8256 78.0392 58.4357 78.564 58.4357 79.5118C58.4357 80.4439 57.7787 81.0235 56.6758 81.0313C54.8064 81.0392 52.9292 81.0313 51.0598 81.0313C46.7579 81.0313 42.4637 81.0313 38.1617 81.0313V81.0235Z" fill="black"/>
<path d="M32.898 10.5587C30.528 10.5587 28.158 10.5587 25.7959 10.5587C24.8338 10.5587 24.2159 10.1279 24.0516 9.40725C23.8248 8.39681 24.4583 7.54302 25.5769 7.53519C30.5202 7.50386 35.4636 7.51169 40.3991 7.53519C41.3925 7.53519 41.9713 8.16966 41.9556 9.05477C41.9478 9.92423 41.3221 10.543 40.3522 10.5509C37.8648 10.5744 35.3853 10.5509 32.898 10.5509V10.5587Z" fill="black"/>
<path d="M33.0079 13.5352C33.97 13.5352 34.9321 13.5117 35.8942 13.5352C36.8484 13.5587 37.5054 14.1932 37.5054 15.0235C37.5054 15.8538 36.8249 16.5196 35.8942 16.5274C33.9387 16.5509 31.9833 16.5509 30.0278 16.5274C29.1127 16.5196 28.44 15.8146 28.4635 14.9843C28.4948 14.1775 29.1205 13.5666 30.0278 13.5431C31.0212 13.5117 32.0146 13.5431 33.0001 13.5431L33.0079 13.5352Z" fill="black"/>
<path d="M9.38623 68.1776C9.64435 67.9817 9.94158 67.8172 10.1528 67.5744C10.4422 67.2454 10.6299 66.8303 10.9193 66.5092C11.459 65.9139 12.1238 65.8199 12.82 66.235C13.477 66.6266 13.7664 67.4726 13.3597 68.1462C12.6714 69.2977 11.9361 70.4334 11.1227 71.4987C10.536 72.2663 9.63653 72.1802 8.82307 71.4439C7.37604 70.1358 7.1805 69.4387 7.93921 68.5144C8.21297 68.1854 8.76831 68.0914 9.19851 67.8877C9.26108 67.9817 9.32366 68.0757 9.38623 68.1776Z" fill="black"/>
<path d="M9.78469 57.6266C10.1289 57.1175 10.4339 56.6162 10.7859 56.1541C11.3021 55.4648 12.2173 55.3159 12.8821 55.7781C13.5235 56.2167 13.7425 57.0783 13.2967 57.7911C12.6553 58.8329 11.9826 59.859 11.263 60.846C10.6373 61.7076 9.72212 61.7546 8.91648 61.034C8.61143 60.7598 8.33767 60.4622 8.04826 60.1723C7.5242 59.6397 7.35213 59.0209 7.69628 58.3394C8.05608 57.6266 8.674 57.3838 9.45618 57.5483C9.56568 57.5718 9.67519 57.5953 9.78469 57.6188V57.6266Z" fill="black"/>
<path d="M9.3622 78.6815C9.62032 78.4856 9.92536 78.329 10.1366 78.094C10.4103 77.7885 10.5824 77.4047 10.8405 77.0914C11.3959 76.4177 12.1937 76.3003 12.8663 76.7702C13.4921 77.2089 13.7424 78.0235 13.3278 78.705C12.663 79.8016 11.959 80.8825 11.2003 81.9164C10.6684 82.6449 9.72982 82.6997 9.03368 82.1201C8.65824 81.7989 8.31408 81.4386 7.96992 81.0783C7.47715 80.5535 7.30508 79.8877 7.72745 79.3237C8.04814 78.8929 8.62695 78.6501 9.09626 78.329C9.1823 78.4465 9.26834 78.5718 9.35438 78.6893L9.3622 78.6815Z" fill="black"/>
</g>
<defs>
<clipPath id="clip0_548_445">
<rect width="66" height="90" fill="white"/>
</clipPath>
</defs>
</svg>
