<svg width="156" height="178" viewBox="0 0 156 178" fill="none" xmlns="http://www.w3.org/2000/svg">
<path d="M66.1059 174.808L11.8941 143.465C4.53211 139.209 0 131.349 0 122.838V60.1624C0 51.6508 4.53211 43.7906 11.8941 39.5349L66.1059 8.19184C73.4679 3.93605 82.5321 3.93605 89.8941 8.19184L144.106 39.5349C151.468 43.7906 156 51.6508 156 60.1624V122.838C156 131.349 151.468 139.209 144.106 143.465L89.8941 174.808C82.5321 179.064 73.4679 179.064 66.1059 174.808Z" fill="url(#paint0_linear_888_26)"/>
<path d="M68.9701 158.454L25.5353 133.455C19.634 130.06 16 123.789 16 116.999V67.0015C16 60.2112 19.634 53.94 25.5353 50.5449L68.9701 25.5463C74.8714 22.1512 82.1395 22.1512 88.0299 25.5463L131.465 50.5449C137.366 53.94 141 60.2112 141 67.0015V116.999C141 123.789 137.366 130.06 131.465 133.455L88.0299 158.454C82.1286 161.849 74.8605 161.849 68.9701 158.454Z" fill="url(#paint1_linear_888_26)"/>
<circle cx="42.5" cy="26.5" r="23.5" fill="#EFF2F4" stroke="white" stroke-width="6"/>
<path d="M35.9013 36V32.5909L42.4126 27.2045C42.8445 26.8466 43.2138 26.5114 43.5206 26.1989C43.8331 25.8807 44.0717 25.554 44.2365 25.2188C44.407 24.8835 44.4922 24.5114 44.4922 24.1023C44.4922 23.6534 44.3956 23.2699 44.2024 22.9517C44.0149 22.6335 43.7536 22.3892 43.4183 22.2188C43.0831 22.0426 42.6967 21.9545 42.2592 21.9545C41.8217 21.9545 41.4354 22.0426 41.1001 22.2188C40.7706 22.3949 40.5149 22.6534 40.3331 22.9943C40.1513 23.3352 40.0604 23.75 40.0604 24.2386H35.5604C35.5604 23.0114 35.8359 21.9545 36.3871 21.0682C36.9382 20.1818 37.7166 19.5 38.7223 19.0227C39.728 18.5455 40.907 18.3068 42.2592 18.3068C43.657 18.3068 44.8672 18.5312 45.8899 18.9801C46.9183 19.4233 47.7109 20.0483 48.2678 20.8551C48.8303 21.6619 49.1115 22.608 49.1115 23.6932C49.1115 24.3636 48.9723 25.0312 48.6939 25.696C48.4155 26.3551 47.9155 27.0852 47.1939 27.8864C46.4723 28.6875 45.4467 29.642 44.1172 30.75L42.4808 32.1136V32.2159H49.299V36H35.9013Z" fill="#003671"/>
<g clip-path="url(#clip0_888_26)">
<path d="M81.5022 87.1855C81.7721 87.1855 82.0403 87.1855 82.3102 87.1855C85.3157 87.1855 88.3212 87.1891 91.3266 87.1819C92.0573 87.1819 92.5144 86.7948 92.527 86.2096C92.5414 85.5977 92.0627 85.1874 91.3069 85.1678C91.1269 85.1624 90.9487 85.1678 90.7687 85.1678C84.8244 85.1678 78.8818 85.1678 72.9374 85.1678C72.4443 85.1678 71.9476 85.1428 71.4581 85.1803C70.7148 85.2373 70.2703 85.9188 70.5367 86.5504C70.7634 87.0856 71.2097 87.1927 71.7443 87.1909C74.9963 87.1819 78.2483 87.1855 81.5004 87.1855H81.5022ZM81.4572 99.1654C84.6426 99.1654 87.8263 99.1654 91.0117 99.1654C91.1917 99.1654 91.3716 99.1779 91.5498 99.1582C92.1131 99.0976 92.5252 98.6676 92.5288 98.152C92.5324 97.6329 92.1311 97.2154 91.5552 97.1565C91.3321 97.1333 91.1071 97.1387 90.8839 97.1387C84.6264 97.1387 78.3689 97.1387 72.1114 97.1387C71.8432 97.1387 71.5157 97.0673 71.3195 97.1904C70.9938 97.3956 70.5673 97.7078 70.5241 98.02C70.4809 98.334 70.8048 98.7533 71.0712 99.028C71.2169 99.1779 71.5751 99.1582 71.8378 99.16C75.0449 99.1671 78.2519 99.1654 81.459 99.1654H81.4572ZM81.5705 105.074C78.4085 105.074 75.2464 105.074 72.0826 105.074C70.956 105.074 70.4485 105.401 70.4647 106.118C70.4791 106.805 70.974 107.113 72.0646 107.113C78.3455 107.113 84.6246 107.113 90.9055 107.113C91.1737 107.113 91.4472 107.11 91.7082 107.063C92.2175 106.972 92.563 106.607 92.4928 106.143C92.4407 105.791 92.1185 105.442 91.8342 105.178C91.6902 105.044 91.3662 105.079 91.1251 105.078C87.9396 105.072 84.756 105.074 81.5705 105.074ZM79.3389 117.065C81.8279 117.065 84.3151 117.065 86.804 117.065C87.8299 117.065 88.323 116.751 88.3482 116.083C88.3734 115.397 87.8551 115.047 86.7968 115.047C82.492 115.047 78.1889 115.047 73.8841 115.047C73.0994 115.047 72.3148 115.054 71.5301 115.05C71.0172 115.05 70.6716 115.297 70.5079 115.762C70.2667 116.444 70.8174 117.059 71.6723 117.063C74.2278 117.07 76.7834 117.065 79.3389 117.066V117.065ZM78.3365 95.1602C80.5123 95.1602 82.6899 95.162 84.8658 95.1602C85.7116 95.1602 86.1813 94.8087 86.2047 94.1754C86.2281 93.5242 85.744 93.1478 84.8622 93.1335C84.7272 93.1317 84.5922 93.1335 84.459 93.1335C83.471 93.1335 82.4848 93.1335 81.4968 93.1335C78.4229 93.1335 75.349 93.1335 72.2752 93.1335C72.0952 93.1335 71.9152 93.1299 71.7371 93.1335C70.9182 93.1549 70.4395 93.5492 70.4665 94.179C70.4917 94.7927 70.9542 95.1566 71.7425 95.1584C73.9417 95.162 76.1409 95.1584 78.3383 95.1584L78.3365 95.1602ZM49.1042 97.4152C48.4167 96.9621 47.875 95.6811 46.86 96.6445C45.8144 97.6382 47.1551 98.177 47.5889 98.8888C47.1677 99.6025 45.7856 100.163 46.8834 101.171C47.8768 102.082 48.4113 100.841 49.2536 100.284C49.4029 100.491 49.5451 100.751 49.7449 100.955C50.3226 101.542 50.9309 101.61 51.3844 101.171C51.8631 100.707 51.8055 100.154 51.2116 99.5454C51.0011 99.3313 50.7905 99.1172 50.5853 98.9102C51.8037 97.549 51.9315 97.169 51.397 96.6302C50.8841 96.1146 50.4378 96.2663 49.1042 97.4134V97.4152ZM50.5241 108.084C50.7851 107.877 51.0731 107.691 51.3052 107.454C51.8217 106.924 51.8325 106.362 51.3736 105.929C50.9363 105.518 50.382 105.536 49.8835 106.027C49.6333 106.273 49.4443 106.582 49.2572 106.826C48.4023 106.291 47.893 105.005 46.8834 105.939C45.7802 106.96 47.1857 107.5 47.5997 108.218C47.1587 108.924 45.8216 109.456 46.851 110.464C47.8678 111.459 48.4005 110.121 49.1168 109.707C49.8205 110.16 50.3694 111.459 51.379 110.444C52.3562 109.463 51.0838 108.933 50.5241 108.084ZM63.4135 86.661C62.9852 86.2846 62.6108 85.9313 62.2095 85.6102C61.7128 85.2106 61.1549 85.2534 60.768 85.6851C60.3792 86.1204 60.3972 86.6646 60.8669 87.1106C61.4986 87.71 62.1483 88.2934 62.8142 88.8554C63.3073 89.2711 63.831 89.2693 64.2522 88.7947C65.395 87.5102 66.5126 86.2025 67.6086 84.8805C67.9919 84.4185 67.9037 83.8654 67.4916 83.505C67.0849 83.1482 66.4622 83.191 66.0392 83.6121C65.9133 83.737 65.8071 83.8833 65.6901 84.0188C64.9342 84.8948 64.1784 85.7726 63.4117 86.6628L63.4135 86.661ZM63.4117 116.526C62.9798 116.144 62.6234 115.803 62.2419 115.496C61.7416 115.093 61.1801 115.113 60.7932 115.516C60.3738 115.955 60.3918 116.521 60.8867 116.992C61.5022 117.577 62.1357 118.144 62.7836 118.693C63.2623 119.098 63.84 119.111 64.2306 118.67C65.3878 117.368 66.5306 116.053 67.6302 114.704C68.1197 114.103 67.7328 113.183 66.9769 113.145C66.6385 113.129 66.194 113.356 65.9511 113.614C65.0818 114.538 64.2774 115.523 63.4117 116.528V116.526ZM63.4387 106.542C63.3577 106.5 63.3343 106.491 63.3181 106.476C62.9978 106.198 62.6792 105.916 62.3589 105.64C61.7614 105.124 61.1909 105.112 60.7644 105.599C60.3522 106.07 60.417 106.603 60.9713 107.115C61.513 107.615 62.0655 108.103 62.618 108.592C63.3523 109.242 63.8382 109.206 64.4897 108.451C65.4669 107.318 66.4406 106.184 67.4124 105.047C67.9649 104.402 67.9883 103.836 67.4898 103.406C67.0147 102.997 66.383 103.119 65.8629 103.724C65.0638 104.653 64.2648 105.583 63.4387 106.542ZM63.4081 96.6213C63.1633 96.4019 62.9816 96.2395 62.798 96.0772C62.6144 95.9131 62.4381 95.7418 62.2455 95.5901C61.7434 95.1977 61.1783 95.2101 60.795 95.6098C60.3738 96.0469 60.3882 96.6142 60.8849 97.0834C61.5004 97.6668 62.1339 98.2341 62.7818 98.7818C63.2857 99.2082 63.8526 99.1975 64.2756 98.7211C65.4004 97.4509 66.5036 96.1628 67.5906 94.8623C67.9973 94.3752 67.9145 93.8097 67.4646 93.4422C66.9913 93.055 66.4622 93.1068 65.9889 93.6402C65.1322 94.6071 64.2971 95.5919 63.4099 96.6231L63.4081 96.6213ZM48.8216 89.6618C48.6255 89.4941 48.4617 89.3478 48.2889 89.2104C47.7598 88.7894 47.1785 88.7947 46.7862 89.2175C46.3597 89.676 46.4137 90.238 46.9464 90.7411C47.3027 91.0783 47.677 91.3959 48.046 91.7206C48.7119 92.3075 49.2482 92.2897 49.8331 91.6242C50.5241 90.8375 51.2026 90.0382 51.8739 89.2336C52.3778 88.6306 52.3598 88.0597 51.8559 87.6583C51.3844 87.2836 50.8265 87.3746 50.3316 87.9277C49.8277 88.4897 49.34 89.0659 48.8216 89.6618Z" fill="white"/>
<path d="M111 116.139C110.894 116.349 110.791 116.564 110.68 116.77C110.012 118.012 108.961 118.578 107.55 118.572C104.745 118.558 101.937 118.569 99.1313 118.569C98.8901 118.569 98.649 118.569 98.3304 118.569C98.3304 120.055 98.3394 121.473 98.3286 122.89C98.3142 124.824 97.0653 126.41 95.1756 126.872C94.7887 126.966 94.3765 126.986 93.9752 126.988C91.8192 126.998 89.6649 127.002 87.5089 126.982C87.1886 126.979 86.753 126.936 86.5821 126.734C86.3571 126.47 86.2095 126.012 86.2653 125.675C86.3499 125.161 86.816 124.965 87.3415 124.965C89.0027 124.966 90.6638 124.965 92.3249 124.965C92.9314 124.965 93.5379 124.972 94.1426 124.963C95.325 124.945 96.1762 124.171 96.2932 123.004C96.3148 122.783 96.304 122.56 96.304 122.337C96.304 107.336 96.304 92.3362 96.304 77.336V76.5082H56.7217C56.7217 76.7526 56.7217 76.9881 56.7217 77.2236C56.7217 92.313 56.7307 107.402 56.7055 122.492C56.7037 123.891 57.5639 124.999 59.2412 124.988C66.8071 124.938 74.373 124.966 81.9389 124.966C82.1638 124.966 82.3942 124.943 82.6102 124.986C83.1591 125.095 83.5064 125.436 83.492 125.999C83.4776 126.552 83.1555 126.902 82.5778 126.972C82.423 126.991 82.2646 126.991 82.1081 126.991C74.4306 126.991 66.7513 126.988 59.0739 126.997C57.7169 126.997 56.5615 126.577 55.6742 125.544C55.0282 124.792 54.6952 123.908 54.6952 122.911C54.6952 121.491 54.6952 120.071 54.6952 118.567C54.3965 118.567 54.1571 118.567 53.9178 118.567C51.157 118.567 48.3927 118.506 45.6338 118.585C43.2672 118.654 41.9804 116.847 42.0002 114.978C42.074 107.834 42.029 100.689 42.0308 93.5458C42.0308 93.3228 42.0056 93.0945 42.047 92.8804C42.1496 92.3523 42.5059 92.0615 43.0386 92.0633C43.5714 92.0633 43.9277 92.3541 44.0285 92.8822C44.0699 93.098 44.0447 93.3264 44.0447 93.5476C44.0447 100.648 44.0447 107.747 44.0447 114.847C44.0447 116.187 44.41 116.549 45.7562 116.551C48.4719 116.551 51.1894 116.551 53.9052 116.551H54.6592V83.2894H44.0465C44.0465 84.8254 44.0465 86.3329 44.0465 87.8405C44.0465 88.0635 44.0681 88.2882 44.0357 88.5077C43.9529 89.0768 43.5732 89.3944 43.0242 89.3854C42.4771 89.3765 42.0794 89.0554 42.0434 88.4791C42.0038 87.8369 42.0308 87.1893 42.0308 86.5435C42.0308 83.6051 42.0272 80.6686 42.0308 77.7303C42.0344 75.8677 43.332 74.494 45.2055 74.4691C48.0778 74.428 50.9519 74.453 53.826 74.4494C54.0905 74.4494 54.3551 74.4494 54.6952 74.4494C54.6952 72.9633 54.688 71.5468 54.697 70.1303C54.7096 68.1803 55.9964 66.4516 57.9131 66.1518C59.2502 65.9431 60.6414 66.0377 62.0073 66.0733C62.585 66.0894 62.855 66.5604 62.8082 67.1152C62.7578 67.7164 62.3601 68.0287 61.7698 68.0429C60.8501 68.0661 59.9287 68.0465 59.0091 68.0518C57.6053 68.059 56.7397 68.8957 56.7253 70.2855C56.7109 71.5753 56.7253 72.867 56.7271 74.1586C56.7271 74.2229 56.7523 74.2871 56.7775 74.3995H96.3058C96.3058 73.5164 96.3058 72.6368 96.3058 71.7555C96.3058 71.2667 96.313 70.7761 96.304 70.2873C96.277 68.8957 95.4221 68.0536 94.0184 68.0536C85.0379 68.0501 76.0575 68.0536 67.0771 68.0518C66.0242 68.0518 65.4933 67.704 65.5041 67.0189C65.5131 66.3534 66.0152 66.0252 67.0375 66.0252C75.9513 66.0252 84.8634 66.0644 93.7772 66.002C96.8007 65.9806 98.5032 68.2445 98.3484 70.5317C98.262 71.809 98.3322 73.0989 98.3322 74.4512C98.6508 74.4512 98.8919 74.4512 99.1331 74.4512C101.692 74.4512 104.255 74.5315 106.811 74.4244C108.815 74.3406 110.25 74.9757 111.002 76.8793V104.122C110.662 104.566 110.286 104.941 109.652 104.705C109.03 104.473 108.977 103.963 108.979 103.394C108.988 96.9623 108.985 90.5326 108.985 84.1011C108.985 83.8406 108.985 83.5784 108.985 83.2876H98.3682V88.7699C98.6418 88.7699 98.8829 88.7699 99.1241 88.7699C100.965 88.7699 102.806 88.761 104.646 88.7753C105.315 88.7806 105.743 89.2017 105.742 89.7868C105.742 90.3774 105.322 90.7699 104.637 90.777C103.2 90.7895 101.764 90.7806 100.326 90.7823C99.682 90.7823 99.0377 90.7823 98.3808 90.7823V97.865C98.6724 97.865 98.9171 97.865 99.1619 97.865C100.958 97.865 102.754 97.8543 104.548 97.8703C105.403 97.8775 105.94 98.5108 105.697 99.1959C105.493 99.7686 105.023 99.9095 104.46 99.9077C102.664 99.9006 100.868 99.9042 99.0737 99.9077C98.8379 99.9077 98.6022 99.9291 98.3664 99.9416V107.203C98.64 107.203 98.8811 107.203 99.1223 107.203C100.94 107.203 102.759 107.197 104.577 107.206C105.301 107.21 105.742 107.609 105.742 108.218C105.742 108.824 105.306 109.204 104.568 109.21C103.109 109.219 101.651 109.213 100.191 109.213C99.592 109.213 98.9927 109.213 98.3844 109.213V116.553C101.419 116.553 104.403 116.553 107.386 116.553C108.585 116.553 108.983 116.151 108.985 114.938C108.986 112.869 108.995 110.799 108.979 108.73C108.976 108.198 109.064 107.727 109.6 107.518C110.117 107.319 110.568 107.476 110.889 107.945C110.908 107.975 110.964 107.981 111.004 107.997V116.143L111 116.139ZM54.6754 76.4725C51.4738 76.4725 48.3405 76.4636 45.2055 76.4797C44.59 76.4832 44.1311 76.8722 44.0969 77.4484C44.0249 78.6794 44.0753 79.9157 44.0753 81.1307H54.6754V76.4725ZM98.3718 76.4672V81.1414H108.983C108.983 80.0834 108.983 79.0647 108.983 78.0478C108.983 77.8926 108.992 77.7356 108.97 77.5822C108.884 76.9221 108.432 76.4975 107.759 76.4725C107.154 76.4511 106.55 76.4654 105.943 76.4654C103.436 76.4654 100.929 76.4654 98.3718 76.4654V76.4672Z" fill="black"/>
<path d="M81.5024 87.1855C78.2504 87.1855 74.9984 87.1801 71.7463 87.1908C71.2118 87.1908 70.7637 87.0855 70.5387 86.5503C70.2724 85.9188 70.7169 85.2373 71.4602 85.1802C71.9515 85.1427 72.4464 85.1677 72.9395 85.1677C78.8839 85.1677 84.8265 85.1677 90.7708 85.1677C90.9508 85.1677 91.129 85.1641 91.3089 85.1677C92.063 85.1873 92.5435 85.5977 92.5291 86.2096C92.5147 86.7947 92.0594 87.1801 91.3287 87.1819C88.3232 87.189 85.3178 87.1855 82.3123 87.1855C82.0423 87.1855 81.7742 87.1855 81.5042 87.1855H81.5024Z" fill="#EF7B10"/>
<path d="M81.458 99.1654C78.251 99.1654 75.044 99.169 71.8369 99.1601C71.5742 99.1601 71.216 99.1779 71.0703 99.028C70.8039 98.7533 70.4818 98.334 70.5231 98.0201C70.5645 97.7078 70.9911 97.3956 71.3186 97.1905C71.5148 97.0674 71.8423 97.1387 72.1105 97.1387C78.368 97.1387 84.6255 97.1387 90.883 97.1387C91.108 97.1387 91.3329 97.1352 91.5543 97.1566C92.1302 97.2154 92.5315 97.6329 92.5279 98.1521C92.5243 98.6677 92.1122 99.0976 91.5489 99.1583C91.3707 99.1779 91.1908 99.1654 91.0108 99.1654C87.8253 99.1654 84.6417 99.1654 81.4562 99.1654H81.458Z" fill="#EF7B10"/>
<path d="M81.5711 105.074C84.7565 105.074 87.9402 105.072 91.1256 105.078C91.3686 105.078 91.6925 105.044 91.8347 105.178C92.1191 105.442 92.4412 105.791 92.4934 106.143C92.5618 106.608 92.218 106.974 91.7087 107.063C91.446 107.11 91.1742 107.113 90.9061 107.113C84.6252 107.115 78.346 107.115 72.0651 107.113C70.9745 107.113 70.4814 106.803 70.4652 106.118C70.449 105.402 70.9565 105.074 72.0831 105.074C75.2452 105.074 78.4072 105.074 81.5711 105.074Z" fill="#EF7B10"/>
<path d="M79.3366 117.065C76.7811 117.065 74.2255 117.07 71.6699 117.063C70.8151 117.061 70.2662 116.444 70.5055 115.762C70.6693 115.298 71.0149 115.049 71.5278 115.05C72.3124 115.052 73.0971 115.047 73.8818 115.047C78.1866 115.047 82.4897 115.047 86.7945 115.047C87.8527 115.047 88.3728 115.397 88.3458 116.083C88.3207 116.751 87.8275 117.065 86.8017 117.065C84.3127 117.065 81.8256 117.065 79.3366 117.065Z" fill="#EF7B10"/>
<path d="M78.3376 95.1602C76.1384 95.1602 73.9392 95.1638 71.7418 95.1602C70.9535 95.1602 70.491 94.7945 70.4658 94.1808C70.4406 93.551 70.9175 93.1567 71.7364 93.1353C71.9163 93.13 72.0945 93.1353 72.2745 93.1353C75.3483 93.1353 78.4222 93.1353 81.4961 93.1353C82.4841 93.1353 83.4703 93.1353 84.4584 93.1353C84.5933 93.1353 84.7283 93.1353 84.8615 93.1353C85.7433 93.1496 86.2275 93.526 86.2041 94.1772C86.1807 94.8105 85.7109 95.1602 84.8651 95.162C82.6893 95.1656 80.5116 95.162 78.3358 95.162L78.3376 95.1602Z" fill="#EF7B10"/>
<path d="M49.1042 97.4134C50.4378 96.2663 50.8841 96.1146 51.397 96.6302C51.9315 97.169 51.8037 97.549 50.5853 98.9102C50.7905 99.1172 51.0029 99.3313 51.2116 99.5453C51.8055 100.152 51.8631 100.707 51.3844 101.171C50.9327 101.608 50.3226 101.54 49.7449 100.955C49.5433 100.751 49.4011 100.491 49.2536 100.284C48.4113 100.842 47.8768 102.084 46.8834 101.171C45.7856 100.163 47.1677 99.6042 47.5889 98.8888C47.1533 98.177 45.8144 97.6364 46.86 96.6445C47.8732 95.6811 48.4167 96.962 49.1042 97.4152V97.4134Z" fill="black"/>
<path d="M50.5234 108.082C51.0831 108.931 52.3554 109.461 51.3782 110.442C50.3686 111.457 49.8197 110.16 49.116 109.705C48.3997 110.119 47.8652 111.457 46.8502 110.462C45.8208 109.454 47.1597 108.922 47.5989 108.216C47.1849 107.499 45.7794 106.958 46.8826 105.938C47.8922 105.005 48.4015 106.289 49.2564 106.824C49.4453 106.58 49.6325 106.271 49.8827 106.025C50.3794 105.534 50.9355 105.515 51.3728 105.927C51.8335 106.36 51.8227 106.922 51.3044 107.452C51.0723 107.69 50.7843 107.875 50.5234 108.082Z" fill="black"/>
<path d="M63.4138 86.6593C64.1822 85.769 64.9381 84.8931 65.6922 84.0153C65.8091 83.8797 65.9153 83.7352 66.0413 83.6085C66.4642 83.1875 67.0869 83.1465 67.4936 83.5015C67.9058 83.8619 67.994 84.4149 67.6106 84.877C66.5128 86.199 65.3952 87.5067 64.2542 88.7912C63.8331 89.2657 63.3094 89.2693 62.8163 88.8518C62.1504 88.2899 61.5007 87.7065 60.869 87.1071C60.3993 86.661 60.3813 86.1169 60.77 85.6816C61.157 85.2481 61.7149 85.207 62.2116 85.6067C62.6111 85.9278 62.9854 86.281 63.4156 86.6575L63.4138 86.6593Z" fill="#EF7B10"/>
<path d="M63.4094 116.526C64.2733 115.523 65.0777 114.538 65.9488 113.613C66.1917 113.354 66.6362 113.125 66.9746 113.143C67.7305 113.181 68.1174 114.101 67.6279 114.703C66.5301 116.053 65.3855 117.366 64.2283 118.668C63.8377 119.107 63.26 119.097 62.7813 118.692C62.1334 118.142 61.4999 117.575 60.8844 116.99C60.3877 116.519 60.3697 115.953 60.7909 115.514C61.1778 115.109 61.7393 115.09 62.2396 115.495C62.6211 115.803 62.9775 116.142 63.4094 116.524V116.526Z" fill="#EF7B10"/>
<path d="M63.4373 106.542C64.2633 105.583 65.0624 104.653 65.8615 103.724C66.3816 103.119 67.0133 102.996 67.4884 103.406C67.9869 103.836 67.9635 104.402 67.411 105.047C66.4392 106.184 65.4655 107.32 64.4883 108.451C63.8368 109.206 63.3509 109.242 62.6166 108.592C62.0641 108.103 61.5116 107.615 60.9699 107.115C60.4156 106.603 60.349 106.07 60.7629 105.599C61.1913 105.112 61.76 105.124 62.3575 105.64C62.6796 105.916 62.9964 106.198 63.3167 106.476C63.3329 106.491 63.3563 106.498 63.4373 106.542Z" fill="#EF7B10"/>
<path d="M63.4107 96.6195C64.2998 95.5902 65.133 94.6036 65.9897 93.6366C66.463 93.1032 66.9939 93.0515 67.4654 93.4386C67.9153 93.8079 67.9981 94.3717 67.5914 94.8587C66.5044 96.161 65.4012 97.4491 64.2764 98.7176C63.8534 99.1957 63.2865 99.2046 62.7826 98.7782C62.1347 98.2305 61.5012 97.6632 60.8858 97.0798C60.3908 96.6106 60.3746 96.0433 60.7958 95.6062C61.1791 95.2066 61.746 95.1941 62.2463 95.5866C62.4389 95.7382 62.6153 95.9095 62.7988 96.0736C62.9824 96.236 63.1642 96.4001 63.4089 96.6178L63.4107 96.6195Z" fill="#EF7B10"/>
<path d="M48.8241 89.66C49.3424 89.0641 49.8301 88.4896 50.334 87.9259C50.8289 87.3728 51.3868 87.2818 51.8583 87.6565C52.3622 88.0579 52.3802 88.6288 51.8763 89.2318C51.205 90.0364 50.5266 90.8357 49.8355 91.6224C49.2524 92.2861 48.7161 92.3057 48.0484 91.7188C47.6795 91.3941 47.3051 91.0747 46.9488 90.7393C46.4143 90.2362 46.3621 89.6742 46.7886 89.2157C47.1809 88.7929 47.7622 88.7876 48.2913 89.2086C48.4641 89.346 48.6279 89.4941 48.8241 89.66Z" fill="black"/>
</g>
<defs>
<linearGradient id="paint0_linear_888_26" x1="18.4212" y1="151.152" x2="137.735" y2="32.005" gradientUnits="userSpaceOnUse">
<stop stop-color="#ECEFF1"/>
<stop offset="1" stop-color="white"/>
</linearGradient>
<linearGradient id="paint1_linear_888_26" x1="30.764" y1="139.586" x2="125.935" y2="44.1142" gradientUnits="userSpaceOnUse">
<stop stop-color="white"/>
<stop offset="1" stop-color="#ECEFF1"/>
</linearGradient>
<clipPath id="clip0_888_26">
<rect width="69" height="61" fill="white" transform="translate(42 66)"/>
</clipPath>
</defs>
</svg>
