<svg width="160" height="160" viewBox="0 0 160 160" fill="none" xmlns="http://www.w3.org/2000/svg">
<circle cx="80" cy="80" r="80" fill="url(#paint0_linear_888_3)"/>
<circle cx="80" cy="80" r="61" fill="url(#paint1_linear_888_3)"/>
<g clip-path="url(#clip0_888_3)">
<path d="M115 82.919C114.827 84.1141 114.705 85.3183 114.471 86.5008C112.076 98.6625 105.173 107.264 93.8842 112.293C88.7316 114.588 83.275 115.342 77.6547 114.865C62.4183 113.571 49.9057 102.538 46.7447 87.6167C42.9919 69.9005 53.7737 52.0548 71.1762 47.2833C73.2595 46.7128 75.4418 46.5058 77.5773 46.126C77.7518 46.0954 77.9209 46.0432 78.0937 46C79.7092 46 81.3266 46 82.9422 46C83.5143 46.0828 84.0864 46.1566 84.6567 46.252C85.522 46.396 86.0024 47.0007 85.8945 47.7891C85.7955 48.5126 85.146 48.9986 84.3293 48.9428C83.1886 48.8654 82.0498 48.7214 80.9074 48.7052C65.9769 48.4802 52.7627 58.9465 49.5189 73.5435C46.1834 88.5562 53.9608 103.7 68.1178 109.755C81.2438 115.369 96.7429 111.37 105.481 100.126C109.158 95.394 111.402 90.0807 112.066 84.1159C112.967 76.0147 111.011 68.646 106.346 61.9811C106.285 61.8929 106.208 61.8155 105.994 61.5635C105.994 62.1557 106.012 62.5678 105.99 62.9764C105.947 63.7756 105.42 64.3029 104.68 64.3155C103.934 64.3281 103.315 63.7576 103.302 62.9584C103.277 61.2521 103.277 59.5459 103.302 57.8396C103.315 57.035 103.874 56.5167 104.695 56.5095C106.379 56.4951 108.061 56.4933 109.745 56.5095C110.576 56.5185 111.109 57.0692 111.105 57.8522C111.101 58.6333 110.562 59.1715 109.732 59.1913C109.09 59.2075 108.448 59.1949 107.681 59.1949C108.052 59.7024 108.358 60.1074 108.647 60.5214C112.253 65.66 114.363 71.3458 114.879 77.613C114.896 77.8092 114.959 78.0036 115 78.198V82.9136V82.919Z" fill="#EF7B10"/>
<path d="M103.522 80.4766C103.5 69.2238 95.3161 59.5476 84.2338 57.7442C78.7394 56.8496 73.5797 57.8828 68.7762 60.6978C68.5837 60.8112 68.3965 60.9389 68.1969 61.0379C67.5006 61.3835 66.7504 61.1765 66.3816 60.5484C66.0038 59.9058 66.1783 59.0797 66.8853 58.6855C68.1555 57.9782 69.4238 57.2366 70.7677 56.6966C84.4425 51.207 99.5889 57.8648 104.657 71.6878C110.015 86.3046 101.296 102.169 86.2236 105.554C71.9209 108.767 57.9835 99.6507 55.2489 85.2769C54.0129 78.7793 55.2039 72.6633 58.6204 66.9937C59.1385 66.1352 59.8743 65.8886 60.5868 66.3044C61.3262 66.7363 61.4737 67.5301 60.934 68.4084C58.2893 72.7209 57.2639 77.415 57.6219 82.4349C58.2605 91.3712 64.5123 99.5481 73.1101 102.244C82.379 105.153 90.5882 103.117 97.3653 96.1121C101.537 91.7996 103.43 86.4612 103.522 80.4748V80.4766Z" fill="black"/>
<path d="M80.5248 85.1455C77.3116 85.1545 75.0358 81.9075 76.18 78.8945C76.3689 78.3995 76.2717 78.1421 75.9245 77.8038C74.6202 76.5385 73.3429 75.2443 72.0619 73.9556C71.3495 73.2393 71.2829 72.4059 71.8748 71.8264C72.4631 71.2504 73.2817 71.3314 74.0049 72.0514C75.3254 73.3653 76.6442 74.6792 77.9503 76.0093C78.2219 76.2847 78.4414 76.3531 78.821 76.1893C79.8951 75.7285 81.0177 75.7033 82.0936 76.1461C82.6117 76.3585 82.8834 76.2199 83.236 75.8653C86.0317 73.0431 88.8455 70.2407 91.6539 67.4311C92.1 66.9847 92.5678 66.6319 93.2568 66.8641C94.133 67.1593 94.4874 68.088 93.9927 68.8656C93.8505 69.0888 93.6544 69.2832 93.4637 69.4721C90.6734 72.2674 87.8848 75.0644 85.08 77.8452C84.749 78.1727 84.6788 78.4229 84.8533 78.8819C86.0012 81.9021 83.7505 85.1365 80.5284 85.1455H80.5248ZM80.5356 82.4042C81.615 82.397 82.4372 81.5601 82.43 80.4748C82.4228 79.3913 81.5934 78.5777 80.5014 78.5831C79.4165 78.5885 78.6034 79.4183 78.6087 80.509C78.6159 81.5907 79.4489 82.4114 80.5356 82.4042Z" fill="black"/>
<path d="M81.8713 62.1953C81.8713 62.4869 81.8875 62.7785 81.8677 63.0664C81.8155 63.8134 81.2902 64.3119 80.567 64.3227C79.8491 64.3335 79.2518 63.8476 79.1979 63.124C79.1511 62.4797 79.1493 61.8245 79.1979 61.1802C79.2536 60.4566 79.8527 59.9742 80.5724 59.9904C81.2956 60.0066 81.8173 60.507 81.8677 61.254C81.8875 61.5653 81.8713 61.8803 81.8713 62.1935V62.1953Z" fill="black"/>
<path d="M62.2021 79.1375C62.4935 79.1375 62.785 79.1231 63.0746 79.1393C63.8231 79.1825 64.334 79.7009 64.3538 80.419C64.3736 81.139 63.8968 81.7509 63.179 81.8085C62.5133 81.8607 61.8351 81.8643 61.1694 81.8049C60.4534 81.7401 59.991 81.1156 60.0252 80.392C60.0576 79.6991 60.5505 79.1915 61.2648 79.1429C61.576 79.1213 61.8909 79.1393 62.2039 79.1393L62.2021 79.1375Z" fill="black"/>
<path d="M98.8027 81.8463C98.5113 81.8463 98.2198 81.8625 97.9302 81.8427C97.1907 81.7941 96.6888 81.2614 96.6798 80.536C96.6708 79.8179 97.1638 79.2203 97.8834 79.1717C98.5293 79.1267 99.1823 79.1249 99.8264 79.1735C100.55 79.2293 101.028 79.8305 101.01 80.554C100.992 81.2758 100.485 81.7995 99.74 81.8445C99.4288 81.8625 99.114 81.8481 98.8009 81.8463H98.8027Z" fill="black"/>
<path d="M81.8533 98.8245C81.8533 99.1161 81.8713 99.4077 81.8497 99.6957C81.7958 100.468 81.2435 100.99 80.5004 100.992C79.7448 100.992 79.2015 100.484 79.1673 99.6993C79.1421 99.1197 79.1421 98.5365 79.1673 97.9552C79.2015 97.1704 79.7448 96.6611 80.4968 96.6611C81.2381 96.6611 81.7958 97.1848 81.8516 97.9516C81.8731 98.2414 81.8551 98.5329 81.8551 98.8227L81.8533 98.8245Z" fill="black"/>
<path d="M91.1758 48.6782C91.1758 49.4468 90.5803 50.0425 89.8229 50.0317C89.0907 50.0209 88.4592 49.3694 88.479 48.6458C88.4988 47.9223 89.0889 47.3499 89.8211 47.3427C90.6019 47.3355 91.1758 47.9007 91.174 48.6782H91.1758Z" fill="black"/>
<path d="M64.6236 63.2752C64.6164 64.0456 64.0317 64.6089 63.2527 64.5927C62.5169 64.5783 61.9448 64.0042 61.9376 63.2716C61.9304 62.5283 62.5457 61.9055 63.2887 61.9055C64.0479 61.9055 64.6308 62.5049 64.6236 63.2734V63.2752Z" fill="black"/>
</g>
<defs>
<linearGradient id="paint0_linear_888_3" x1="130.11" y1="21.0989" x2="33.4066" y2="146.813" gradientUnits="userSpaceOnUse">
<stop stop-color="#FBFBFB"/>
<stop offset="1" stop-color="#EFF1F3"/>
</linearGradient>
<linearGradient id="paint1_linear_888_3" x1="118.209" y1="35.0879" x2="44.4725" y2="130.945" gradientUnits="userSpaceOnUse">
<stop stop-color="#EEF0F2"/>
<stop offset="1" stop-color="#FDFEFE"/>
</linearGradient>
<clipPath id="clip0_888_3">
<rect width="69" height="69" fill="white" transform="translate(46 46)"/>
</clipPath>
</defs>
</svg>
