<svg width="161" height="160" viewBox="0 0 161 160" fill="none" xmlns="http://www.w3.org/2000/svg">
<ellipse cx="80.5" cy="80" rx="80.5" ry="80" fill="url(#paint0_linear_888_12)"/>
<ellipse cx="80.5004" cy="80" rx="61.3812" ry="61" fill="url(#paint1_linear_888_12)"/>
<g clip-path="url(#clip0_888_12)">
<path d="M88.2441 49C88.625 49.1119 89.0092 49.2119 89.385 49.3357C92.1408 50.2462 94.0315 52.7539 94.0518 55.7041C94.0908 61.14 94.0688 66.5759 94.062 72.0118C94.062 72.9257 93.5051 73.514 92.6994 73.5208C91.8733 73.5276 91.313 72.9223 91.3113 71.9728C91.3046 66.5573 91.3147 61.1434 91.3012 55.7279C91.2961 53.8577 90.0638 52.2995 88.2492 51.8519C87.804 51.7417 87.3267 51.723 86.8646 51.723C76.3072 51.7162 65.7497 51.7162 55.1906 51.7196C52.9224 51.7196 51.3516 52.8183 50.8573 54.7699C50.7456 55.2141 50.7219 55.6906 50.7219 56.1518C50.7151 70.3451 50.7134 84.5367 50.7185 98.73C50.7185 101.49 52.3773 103.135 55.1534 103.138C61.1405 103.145 67.1293 103.138 73.1164 103.142C73.4109 103.142 73.7122 103.142 74.0017 103.193C74.6652 103.308 75.0952 103.873 75.0732 104.556C75.0512 105.224 74.5603 105.772 73.9035 105.846C73.7156 105.868 73.5227 105.856 73.3331 105.856C67.2393 105.856 61.1456 105.856 55.0535 105.856C51.4734 105.856 48.9158 103.81 48.1134 100.312C48.0897 100.212 48.0389 100.119 48 100.022C48 84.9606 48 69.9009 48 54.8394C48.044 54.7021 48.0999 54.5664 48.1286 54.4257C48.4469 52.8896 49.2221 51.6264 50.3986 50.5972C51.3905 49.7274 52.5889 49.3103 53.8398 49H88.2441Z" fill="black"/>
<path d="M113 97.9908C112.788 99.02 112.663 100.078 112.352 101.077C110.116 108.24 105.285 112.61 97.8874 113.79C88.5725 115.277 79.7111 108.785 78.0794 99.5371C76.4053 90.0472 82.494 81.0439 91.8885 79.1144C101.601 77.1204 111.124 83.6703 112.756 93.4637C112.824 93.874 112.919 94.2809 113 94.6896V97.9891V97.9908ZM110.275 96.4071C110.317 88.2635 103.665 81.5543 95.4821 81.4915C87.3182 81.4288 80.5575 88.1058 80.4983 96.2935C80.439 104.495 87.1134 111.213 95.3687 111.262C103.543 111.309 110.231 104.644 110.275 96.4071Z" fill="#EF7B10"/>
<path d="M71.0494 70.6791C72.5085 70.6791 73.971 70.613 75.4267 70.6927C79.0491 70.8877 81.7659 73.7124 81.8708 77.3324C81.8962 78.2191 81.8895 79.1093 81.8742 79.9961C81.859 80.9015 81.2987 81.4898 80.4947 81.4881C79.6923 81.4847 79.1405 80.893 79.1253 79.9842C79.11 79.1381 79.1287 78.2921 79.1185 77.446C79.0914 75.196 77.4309 73.4276 75.1846 73.3835C72.4154 73.3292 69.6427 73.336 66.8718 73.3818C64.7288 73.4174 63.0852 75.0282 62.9396 77.1781C62.8685 78.2107 62.9142 79.2483 62.8702 80.2826C62.8431 80.9066 62.4504 81.2982 61.8715 81.4491C61.2858 81.6 60.7814 81.4017 60.431 80.8981C60.3261 80.7472 60.2109 80.5539 60.2143 80.3826C60.2516 78.8651 60.1111 77.3086 60.4107 75.8403C61.0522 72.6934 63.7893 70.6961 67.1781 70.6503C68.468 70.6333 69.7595 70.6469 71.0494 70.6469C71.0494 70.6571 71.0494 70.6655 71.0494 70.6757V70.6791Z" fill="black"/>
<path d="M71.1127 67.951C68.1606 68.029 65.7028 65.6671 65.608 62.6592C65.5166 59.7531 67.8915 57.1945 70.7403 57.1284C73.8126 57.0572 76.35 59.3292 76.4312 62.2252C76.5209 65.406 74.2341 67.8679 71.1127 67.951ZM73.7076 62.5677C73.7263 61.0722 72.5329 59.8582 71.0332 59.848C69.5774 59.8396 68.3553 61.0213 68.3147 62.4778C68.274 63.9292 69.5046 65.2093 70.9739 65.2432C72.4398 65.2771 73.689 64.053 73.7076 62.566V62.5677Z" fill="black"/>
<path d="M65.6506 89.6114C62.9439 89.6114 60.239 89.6148 57.5324 89.6081C56.8519 89.6081 56.3119 89.196 56.1596 88.6043C56.014 88.0414 56.251 87.4157 56.7537 87.1207C56.9298 87.0173 57.1464 86.9291 57.3445 86.9291C62.8407 86.9172 68.3352 86.9088 73.8315 86.9291C74.5475 86.9325 75.013 87.4632 75.0671 88.1346C75.1213 88.7908 74.7557 89.369 74.1378 89.5487C73.9212 89.6114 73.6791 89.6097 73.4489 89.6097C70.8489 89.6131 68.2489 89.6114 65.6489 89.6114H65.6506Z" fill="black"/>
<path d="M64.2425 97.733C62.0674 97.733 59.8905 97.733 57.7154 97.733C56.7438 97.733 56.1429 97.2244 56.131 96.4054C56.1192 95.5662 56.6862 95.027 57.6697 95.0236C62.064 95.0117 66.4583 95.0117 70.8525 95.0236C71.8275 95.027 72.3963 95.5797 72.3743 96.4207C72.354 97.221 71.7632 97.7297 70.8356 97.7313C68.6385 97.7347 66.4413 97.7313 64.2442 97.7313L64.2425 97.733Z" fill="black"/>
<path d="M92.6099 99.8118C94.6344 97.4991 96.6114 95.2423 98.5885 92.9839C99.3959 92.0615 100.198 91.134 101.014 90.2184C101.651 89.5063 102.463 89.4097 103.071 89.9539C103.668 90.488 103.667 91.3205 103.039 92.0377C99.9799 95.5407 96.9178 99.0403 93.8523 102.536C93.1279 103.362 92.3509 103.388 91.5638 102.606C89.8542 100.909 88.1496 99.2031 86.4501 97.494C85.7832 96.8225 85.7392 95.9866 86.3147 95.4186C86.8868 94.8523 87.7163 94.9049 88.3917 95.5763C89.7848 96.9633 91.166 98.3604 92.6099 99.8118Z" fill="#EF7B10"/>
</g>
<defs>
<linearGradient id="paint0_linear_888_12" x1="130.923" y1="21.0989" x2="34.376" y2="147.395" gradientUnits="userSpaceOnUse">
<stop stop-color="#FBFBFB"/>
<stop offset="1" stop-color="#EFF1F3"/>
</linearGradient>
<linearGradient id="paint1_linear_888_12" x1="118.948" y1="35.0879" x2="45.3308" y2="131.388" gradientUnits="userSpaceOnUse">
<stop stop-color="#EEF0F2"/>
<stop offset="1" stop-color="#FDFEFE"/>
</linearGradient>
<clipPath id="clip0_888_12">
<rect width="65" height="65" fill="white" transform="translate(48 49)"/>
</clipPath>
</defs>
</svg>
