<?xml version="1.0" encoding="utf-8"?>
<!-- Generator: Adobe Illustrator 26.5.0, SVG Export Plug-In . SVG Version: 6.00 Build 0)  -->
<svg version="1.1" id="Layer_1" xmlns="http://www.w3.org/2000/svg" xmlns:xlink="http://www.w3.org/1999/xlink" x="0px" y="0px"
	 viewBox="0 0 41 41" style="enable-background:new 0 0 41 41;" xml:space="preserve">
<style type="text/css">
	.st0{fill:#003B79;}
</style>
<path class="st0" d="M35.9,0h-30c-2.8,0-5,2.3-5,5v22.4c0,2.7,2.2,4.9,5,4.9h7.5v6.6c0,0.8,0.9,1.2,1.5,0.7l9.8-7.3h11.3
	c2.7,0,5-2.3,5-4.9V5C40.9,2.3,38.7,0,35.9,0z M38.5,27.5c0,1.4-1.2,2.5-2.5,2.5H24.7c-0.5,0-1,0.2-1.5,0.5L16,35.9v-4.7
	c0-0.6-0.6-1.2-1.2-1.2H6c-1.4,0-2.5-1.1-2.5-2.5V5c0-1.3,1.1-2.5,2.5-2.5h30c1.3,0,2.5,1.2,2.5,2.5V27.5z"/>
</svg>
