<?xml version="1.0" encoding="utf-8"?>
<!-- Generator: Adobe Illustrator 26.5.0, SVG Export Plug-In . SVG Version: 6.00 Build 0)  -->
<svg version="1.1" id="Layer_1" xmlns="http://www.w3.org/2000/svg" xmlns:xlink="http://www.w3.org/1999/xlink" x="0px" y="0px"
	 viewBox="0 0 384 512" style="enable-background:new 0 0 384 512;" xml:space="preserve">
<style type="text/css">
	.st0{fill:#003B79;}
</style>
<path class="st0" d="M274.8,6.3c4.6-4.1,10.5-6.3,16.6-6.3c17.2,0,29.2,17,23.4,33.3L246.7,224h109.4c15.8,0,27.9,12.1,27.9,27
	c0,7.8-3.3,15.2-9.1,20.3L109.1,505.8c-4.5,4-10.4,6.2-16.5,6.2c-17.2,0-29.2-17.1-23.4-33.3L137.3,288H25.8
	C11.6,288,0,276.4,0,262.2c0-7.4,3.2-14.4,8.7-19.3L274.8,6.3z M275.4,48.7L42.1,256H160c5.2,0,10.1,2.5,13.1,6.8
	c3,4.2,3.7,9.7,2,14.6l-66.5,186.2L343.8,256H224c-5.2,0-10.1-2.5-13.1-6.8c-3-5.1-3.7-9.7-2-14.6L275.4,48.7z"/>
</svg>
