<svg width="36" height="33" viewBox="0 0 36 33" fill="none" xmlns="http://www.w3.org/2000/svg">
<path d="M32.625 0.75C33.1875 0.75 33.75 1.3125 33.75 1.875C33.75 2.50781 33.1875 3 32.625 3H5.625C3.72656 3 2.25 4.54688 2.25 6.375V26.625C2.25 28.5234 3.72656 30 5.625 30H30.375C32.2031 30 33.75 28.5234 33.75 26.625V10.875C33.75 9.04688 32.2031 7.5 30.375 7.5H7.875C7.24219 7.5 6.75 7.00781 6.75 6.375C6.75 5.8125 7.24219 5.25 7.875 5.25H30.375C33.4688 5.25 36 7.78125 36 10.875V26.625C36 29.7891 33.4688 32.25 30.375 32.25H5.625C2.46094 32.25 0 29.7891 0 26.625V6.375C0 3.28125 2.46094 0.75 5.625 0.75H32.625ZM25.3125 18.75C25.3125 17.8359 26.0156 17.0625 27 17.0625C27.9141 17.0625 28.6875 17.8359 28.6875 18.75C28.6875 19.7344 27.9141 20.4375 27 20.4375C26.0156 20.4375 25.3125 19.7344 25.3125 18.75Z" fill="#003671"/>
</svg>
