<svg width="66" height="66" viewBox="0 0 66 66" fill="none" xmlns="http://www.w3.org/2000/svg">
<g clip-path="url(#clip0_532_36)">
<path d="M18.1757 66C17.9007 65.8951 17.6223 65.7972 17.349 65.6855C15.5271 64.9464 14.4839 63.3119 14.4821 61.1428C14.477 54.4844 14.4804 47.8259 14.4804 41.1675C14.4804 38.4192 14.4667 35.6692 14.4856 32.9209C14.501 30.6006 15.8228 28.8544 17.9609 28.3267C18.4129 28.215 18.8959 28.2012 19.3651 28.1995C22.0498 28.1875 24.7345 28.1806 27.4192 28.2047C27.9331 28.2098 28.0809 28.0551 28.0689 27.5498C28.0379 26.1765 28.0482 24.7998 28.0603 23.4265C28.0809 21.0392 29.5435 19.5989 31.9378 19.5972C37.5014 19.5972 43.0632 19.5972 48.6268 19.5972C50.954 19.5972 52.4528 21.0942 52.4579 23.4162C52.4613 24.9803 52.4579 26.5444 52.4579 28.1926C52.7398 28.1926 52.9701 28.1926 53.1987 28.1926C55.8404 28.1926 58.4821 28.1909 61.1239 28.1926C63.6195 28.1961 65.1389 29.3167 65.8848 31.692C65.902 31.747 65.9587 31.79 65.9965 31.8381V62.26C65.6218 62.9956 65.321 63.7828 64.8535 64.4548C64.2417 65.3331 63.2448 65.6854 62.2582 65.9983H18.1757V66ZM34.796 46.6847C34.5915 46.6383 34.3646 46.5764 34.1343 46.5334C29.2514 45.607 24.3649 44.6961 19.4871 43.7473C18.5212 43.56 17.5793 43.2369 16.5962 42.967C16.5962 43.1372 16.5962 43.3297 16.5962 43.5205C16.5962 49.3848 16.634 55.2475 16.5739 61.1119C16.5549 63.0128 17.8887 63.9598 19.4545 63.9564C33.3076 63.9254 47.1624 63.9392 61.0156 63.9375C62.9904 63.9375 63.9392 62.9922 63.9392 61.0242C63.9392 55.1822 63.9392 49.3401 63.9392 43.4981V42.8811C63.2276 43.1251 62.5814 43.4294 61.9025 43.5651C57.9339 44.3592 53.9567 45.1137 49.9829 45.8803C48.5392 46.1587 47.0954 46.4355 45.6242 46.7173C45.6242 47.4186 45.631 48.0614 45.6242 48.7025C45.5898 51.3614 43.5445 53.6972 40.9921 53.9945C38.2129 54.3176 35.6881 52.6505 35.0796 49.9623C34.8459 48.9311 34.8871 47.8362 34.7978 46.6847H34.796ZM45.6242 44.5947C50.0242 43.7525 54.34 42.9361 58.6489 42.0973C59.8657 41.8601 61.0964 41.6367 62.2703 41.2569C63.4734 40.8667 63.9357 40.0606 63.9374 38.7973C63.9392 36.9497 63.8739 35.1003 63.9564 33.2561C64.032 31.5494 63.0265 30.2397 60.9709 30.25C50.2528 30.3067 39.5346 30.2844 28.8165 30.2861C25.5509 30.2861 22.287 30.2706 19.0214 30.2809C17.6412 30.2861 16.6168 31.3001 16.6031 32.6751C16.5824 34.8012 16.6134 36.9273 16.5962 39.0551C16.5876 40.0039 17.0379 40.6673 17.832 41.0747C18.3373 41.3342 18.9028 41.5215 19.4614 41.6298C23.4351 42.4015 27.4157 43.1458 31.3929 43.8986C32.5221 44.1117 33.6531 44.3231 34.8785 44.5517C34.8785 43.4036 34.8665 42.3569 34.882 41.3101C34.9026 39.9558 35.6589 39.1772 36.9943 39.1669C39.1634 39.1497 41.3342 39.1497 43.5032 39.1669C44.8335 39.1772 45.6138 39.9798 45.6207 41.3015C45.6259 42.374 45.6207 43.4448 45.6207 44.593L45.6242 44.5947ZM50.3903 28.105C50.3903 26.5908 50.3903 25.1161 50.3903 23.6414C50.3885 22.2062 49.8385 21.6545 48.4085 21.6545C44.0945 21.6545 39.7804 21.6545 35.4664 21.6545C34.2649 21.6545 33.0618 21.6459 31.8604 21.658C30.7467 21.67 30.1554 22.2681 30.1468 23.3698C30.1399 24.3358 30.1468 25.3017 30.1468 26.2676C30.1468 26.8812 30.1468 27.4965 30.1468 28.0981H32.3967V23.8631H48.1095V28.1067H50.3903V28.105ZM36.9926 41.274C36.9926 43.8986 36.9599 46.4733 37.0201 49.0445C37.0321 49.5619 37.3157 50.1239 37.6131 50.5742C38.3985 51.7584 39.9042 52.2294 41.2517 51.8048C42.6146 51.3734 43.5307 50.1136 43.5496 48.5684C43.572 46.7861 43.5548 45.0037 43.5548 43.2231C43.5548 42.5854 43.5548 41.9461 43.5548 41.2758H36.9926V41.274ZM34.5365 28.1462H45.9851V25.9479H34.5365V28.1462Z" fill="#EF7B10"/>
<path d="M32.8711 0C33.8645 0.415938 34.5641 1.18766 35.2756 1.95422C37.5117 4.36219 39.753 6.765 42.0062 9.1575C42.6439 9.83469 42.9722 10.603 42.9653 11.5345C42.9533 13.102 42.9688 14.6695 42.9602 16.2388C42.955 17.05 42.558 17.5209 41.9186 17.5158C41.2878 17.5106 40.8787 17.0139 40.8753 16.2284C40.8702 14.9445 40.8753 13.6606 40.8753 12.3011C40.4542 12.3011 40.095 12.3028 39.7341 12.3011C38.1236 12.2891 36.5097 12.3406 34.9044 12.2461C32.9192 12.1292 31.3603 10.4311 31.3311 8.44422C31.3036 6.57594 31.3208 4.70766 31.3191 2.83938C31.3191 2.60734 31.3191 2.37531 31.3191 2.06078C31.0406 2.06078 30.812 2.06078 30.5834 2.06078C21.5841 2.06078 12.5864 2.06078 3.58703 2.06078C2.37531 2.06078 2.0625 2.37359 2.0625 3.58359C2.0625 20.5287 2.0625 37.4739 2.0625 54.4191C2.0625 55.6205 2.38734 55.947 3.58703 55.947C6.03625 55.947 8.48375 55.947 10.933 55.947C11.9384 55.947 12.4042 56.265 12.4128 56.9577C12.4214 57.6572 11.9419 58.0027 10.9622 58.0044C8.42875 58.0044 5.89359 58.0044 3.36016 58.0044C1.68094 58.0044 0.680625 57.2963 0.11 55.7167C0.089375 55.6583 0.0395312 55.6119 0.0034375 55.5603C0 37.8555 0 20.1523 0 2.44922C0.402187 1.21859 1.21172 0.395312 2.44922 0H32.8711ZM33.3884 3.70219C33.3884 5.40031 33.3506 6.91797 33.4022 8.43391C33.4366 9.46688 34.2684 10.1853 35.3272 10.1973C36.5045 10.2111 37.6836 10.2025 38.8627 10.1973C38.9916 10.1973 39.1205 10.1544 39.3095 10.12C37.3381 7.98188 35.4234 5.90734 33.3884 3.70047V3.70219Z" fill="black"/>
<path d="M50.789 9.76573e-06C51.0176 0.41251 51.3339 0.799229 51.4593 1.24095C51.7154 2.14329 51.8942 3.07142 52.054 3.99782C52.1193 4.37767 52.2998 4.5272 52.6367 4.65095C53.3586 4.91564 54.0512 5.25939 54.7748 5.51204C55.0103 5.59454 55.3643 5.58595 55.5706 5.4622C56.4351 4.95001 57.2636 4.37423 58.1092 3.82767C58.8362 3.35673 59.1817 3.38595 59.809 4.00298C60.5739 4.75407 61.3198 5.52407 62.0795 6.28032C62.5436 6.74267 62.6003 7.23423 62.2411 7.78251C61.6653 8.65907 61.0723 9.52704 60.5343 10.4277C60.4106 10.6339 60.402 10.988 60.4845 11.2234C60.7423 11.9694 61.0465 12.7016 61.3834 13.4149C61.4831 13.6245 61.7237 13.8531 61.9403 13.9081C62.8718 14.147 63.8292 14.2845 64.7539 14.5441C65.1956 14.6678 65.5857 14.9824 65.9982 15.2092V19.592C65.5961 19.8413 65.2248 20.1936 64.7882 20.3191C63.8859 20.5786 62.9509 20.7247 62.0245 20.9C61.655 20.9688 61.4779 21.1424 61.3318 21.5136C60.9417 22.507 60.5 23.4833 60.0067 24.4286C59.6492 25.1144 59.0562 25.2725 58.5079 24.9494C57.9631 24.628 57.9046 24.0608 58.2175 23.375C58.7125 22.2905 59.1714 21.1853 59.5839 20.0647C59.7918 19.5009 60.0892 19.1727 60.6959 19.0627C61.7667 18.8702 62.8254 18.6175 63.8687 18.3941C63.8979 18.3167 63.922 18.2789 63.9254 18.2394C64.0114 17.0832 63.502 16.382 62.3975 16.1356C61.7907 16.0016 61.1857 15.8606 60.5756 15.7541C60.0428 15.6595 59.7901 15.333 59.6028 14.8517C59.1576 13.7002 58.685 12.5555 58.1831 11.428C57.97 10.9502 57.9545 10.5411 58.2467 10.1011C58.8654 9.17298 59.4636 8.23454 60.0909 7.2686C59.632 6.81829 59.1782 6.37485 58.709 5.91423C57.7912 6.51407 56.87 7.10188 55.9642 7.71204C55.4623 8.05064 55.0189 8.01798 54.4689 7.75673C53.4118 7.25314 52.3187 6.82001 51.2187 6.4161C50.6859 6.22017 50.3318 5.95892 50.2236 5.37454C50.0482 4.42751 49.8179 3.49079 49.6392 2.54548C49.5721 2.19142 49.4432 2.02298 49.0548 2.05048C48.5873 2.08314 48.1164 2.05907 47.6162 2.05907C47.3773 3.18314 47.1504 4.26767 46.9167 5.35048C46.7534 6.10501 46.3048 6.46251 45.6775 6.34563C45.0484 6.22876 44.7287 5.73376 44.8765 4.97579C45.1429 3.6111 45.4214 2.24642 45.7617 0.897197C45.8459 0.56376 46.1845 0.295635 46.4062 -0.00170898C47.8671 -0.00170898 49.3281 -0.00170898 50.789 -0.00170898V9.76573e-06Z" fill="black"/>
<path d="M19.1431 9.1849C21.4188 9.1849 23.6944 9.166 25.9683 9.20381C26.3378 9.20896 26.7916 9.36709 27.0511 9.61459C27.5736 10.1147 27.2969 10.9879 26.5922 11.2062C26.3327 11.2869 26.0422 11.2972 25.7672 11.2972C21.3019 11.3024 16.8366 11.3007 12.373 11.3007C12.287 11.3007 12.2011 11.3024 12.1152 11.3007C11.3245 11.2715 10.8381 10.8658 10.8398 10.2368C10.8416 9.60772 11.3331 9.19006 12.1238 9.18834C14.463 9.17975 16.8039 9.1849 19.1431 9.1849Z" fill="black"/>
<path d="M57.1724 17.459C56.906 18.5315 56.686 19.6195 56.3577 20.6731C56.1171 21.4482 55.5396 21.7164 54.926 21.4826C54.345 21.2626 54.1594 20.6524 54.4447 19.9117C55.8747 16.2146 53.9703 12.3079 50.2286 11.2956C49.7371 11.1632 49.218 11.122 48.7075 11.0773C47.953 11.0103 47.5302 10.6287 47.5474 9.97729C47.5646 9.33276 48.0114 8.97526 48.7849 8.98557C53.3207 9.04401 57.0125 12.827 57.0143 17.4212L57.1707 17.4607L57.1724 17.459Z" fill="black"/>
<path d="M19.0734 13.8977C21.3697 13.8977 23.6659 13.896 25.9639 13.8977C26.837 13.8977 27.3131 14.2656 27.3131 14.9221C27.3131 15.5684 26.8044 15.9688 25.9656 15.9688C21.3508 15.9706 16.7359 15.9723 12.1211 15.9688C11.2669 15.9688 10.7014 15.4171 10.8595 14.7331C11.0039 14.1143 11.4387 13.8909 12.0541 13.8926C14.3933 13.9029 16.7325 13.8977 19.0717 13.896L19.0734 13.8977Z" fill="black"/>
<path d="M15.6646 20.6215C14.4409 20.6215 13.2154 20.6266 11.9916 20.6198C11.2887 20.6146 10.8418 20.2073 10.8418 19.5954C10.8418 18.987 11.2904 18.5693 11.9934 18.5676C14.4632 18.5607 16.9348 18.559 19.4046 18.5676C20.1041 18.5693 20.5252 18.9938 20.508 19.6281C20.4926 20.2313 20.0818 20.6129 19.4029 20.6181C18.1568 20.6284 16.9107 20.6215 15.6646 20.6215Z" fill="black"/>
<path d="M6.7085 9.03882C7.09006 9.25882 7.561 9.40319 7.83428 9.71944C8.26225 10.2162 7.95287 11.0223 7.30319 11.201C6.94397 11.299 6.54178 11.3076 6.16709 11.2749C5.5535 11.2216 5.16162 10.7816 5.16506 10.2351C5.1685 9.69022 5.57412 9.26913 6.17912 9.19694C6.32694 9.17976 6.47647 9.19351 6.626 9.19351L6.71022 9.03882H6.7085Z" fill="black"/>
<path d="M6.55847 20.6147C6.04113 20.6628 5.56504 20.6009 5.29175 20.0853C5.0391 19.6058 5.13707 19.1709 5.52722 18.8152C5.92941 18.4474 7.22879 18.4491 7.63957 18.81C8.04347 19.1658 8.11566 19.6127 7.88019 20.0819C7.60347 20.6319 7.08613 20.6594 6.55675 20.6147H6.55847Z" fill="black"/>
<path d="M6.67041 13.8979C7.58995 13.9047 8.03682 14.2743 7.99557 14.9927C7.95604 15.6836 7.49198 15.981 6.46932 15.9707C5.65807 15.9621 5.18369 15.5925 5.16479 14.9532C5.14244 14.2347 5.63573 13.8893 6.67041 13.8979Z" fill="black"/>
<path d="M41.2739 48.5185C41.2807 49.0909 40.8407 49.5601 40.2804 49.5773C39.7167 49.5962 39.1959 49.0806 39.2062 48.5151C39.2165 47.972 39.7081 47.4907 40.2512 47.489C40.8115 47.489 41.267 47.9462 41.2739 48.5168V48.5185Z" fill="black"/>
</g>
<defs>
<clipPath id="clip0_532_36">
<rect width="66" height="66" fill="white"/>
</clipPath>
</defs>
</svg>
