<svg width="55" height="66" viewBox="0 0 55 66" fill="none" xmlns="http://www.w3.org/2000/svg">
<g id="Layer_1" clip-path="url(#clip0_816_62)">
<path id="Vector" d="M50.7307 42.3949C50.7307 43.434 50.6822 44.3951 50.7453 45.3464C50.7987 46.1417 50.5171 46.6246 49.7766 46.8759C49.5945 46.9369 49.4319 47.0588 49.1041 47.2369C49.5363 47.6272 49.9611 47.9297 50.2719 48.3199C50.5001 48.6078 50.6943 49.0078 50.7089 49.3664C50.7598 50.7275 50.738 52.0911 50.7259 53.4547C50.7064 55.6427 48.9536 57.399 46.7662 57.4088C43.9622 57.421 41.1606 57.4234 38.3566 57.4014C37.8978 57.399 37.7108 57.5136 37.6016 57.9893C37.0578 60.3091 36.4654 62.6191 35.8901 64.9315C35.6521 65.8853 35.5138 65.9951 34.5184 65.9951C26.621 65.9951 18.7236 65.9951 10.8263 65.9951C9.79935 65.9951 9.62455 65.8146 9.61484 64.7949C9.58328 61.5556 9.6464 58.3113 9.48617 55.0792C9.22155 49.7103 7.54642 44.7537 4.6283 40.2556C2.5526 37.0577 0.996435 33.6695 0.382221 29.8838C-0.85106 22.278 0.894471 15.4139 5.70136 9.42539C9.98143 4.09797 15.6137 1.03665 22.3701 0.192658C35.6958 -1.4685 47.9728 7.74716 50.3568 21.095C50.7598 23.3562 50.7161 25.6296 50.7404 27.9055C50.7453 28.2933 50.8205 28.7056 50.9638 29.0666C52.2213 32.2816 53.5129 35.4844 54.7704 38.6994C55.5327 40.6484 54.3189 42.3876 52.2189 42.3949C51.7552 42.3949 51.2891 42.3949 50.7283 42.3949H50.7307ZM34.3387 64.3754C34.9117 62.0727 35.4846 59.7749 36.0624 57.4575C35.5186 57.3429 35.0379 57.2673 34.5694 57.1356C32.7025 56.6087 31.2046 55.55 30.0999 53.945C29.8086 53.5205 29.7843 53.0863 30.2165 52.7595C30.6753 52.4131 31.0929 52.5594 31.4206 53.0058C31.474 53.0766 31.5226 53.1522 31.576 53.2229C32.819 54.8426 34.4698 55.7525 36.4921 55.7891C39.8958 55.8501 43.2995 55.8257 46.7055 55.8013C48.0966 55.7915 49.0799 54.7646 49.1308 53.3717C49.1503 52.8595 49.0726 52.335 49.1478 51.8301C49.3955 50.1445 48.9391 48.7761 47.4994 47.7979C47.4096 47.737 47.3368 47.6443 47.2639 47.5613C46.8391 47.0637 46.9095 46.5466 47.4703 46.2173C47.8539 45.9929 48.2544 45.7953 48.6623 45.6221C49.0167 45.4733 49.1575 45.2611 49.1454 44.861C49.1138 43.856 49.1333 42.8486 49.1357 41.8436C49.1381 41.0386 49.3736 40.7996 50.1553 40.7923C50.8011 40.7874 51.4469 40.7972 52.0902 40.7923C53.2167 40.7801 53.6197 40.1898 53.2021 39.1384C52.2262 36.6748 51.3085 34.1818 50.2403 31.7596C49.4027 29.8618 49.0459 27.9494 49.1041 25.8687C49.211 22.0853 48.3467 18.4849 46.725 15.0602C42.3114 5.73961 31.7338 0.178022 21.666 1.91968C15.5142 2.98565 10.4281 5.90549 6.61418 10.8914C2.41908 16.3749 0.882332 22.5781 1.95538 29.4227C2.52833 33.0841 4.0408 36.3406 6.03395 39.4336C9.43519 44.7147 11.1419 50.5348 11.2099 56.8282C11.2341 59.1089 11.2147 61.3872 11.2147 63.668C11.2147 63.9022 11.2147 64.1363 11.2147 64.3778H34.3387V64.3754Z" fill="black"/>
<path id="Vector_2" d="M25.3399 5.38598C36.4735 5.38598 45.4026 14.387 45.3929 25.5955C45.3832 36.6797 36.3982 45.627 25.2938 45.6148C14.221 45.6026 5.34038 36.5894 5.34766 25.3736C5.35494 14.365 14.3399 5.38354 25.3399 5.38354V5.38598ZM6.9451 25.4785C6.93782 35.6332 15.1896 43.9732 25.2792 44.0098C35.466 44.0464 43.8027 35.6893 43.7955 25.4492C43.7882 15.3212 35.483 6.99348 25.3885 6.99104C15.2455 6.99104 6.95238 15.3017 6.9451 25.4785Z" fill="#EF7B10"/>
<path id="Vector_3" d="M18.163 34.9575C15.9271 34.6258 14.8856 33.5574 14.9608 31.7303C15.0264 30.1619 16.233 29.091 18.163 28.9617C18.163 28.7324 18.163 28.4958 18.163 28.2592C18.163 26.0029 18.163 23.7465 18.163 21.4902C18.163 20.6413 18.3888 20.4169 19.2191 20.4071C19.4643 20.4071 19.7095 20.4169 19.9522 20.4022C20.7582 20.3583 21.3482 19.7949 21.3554 19.0728C21.3627 18.3532 20.7728 17.7702 19.9741 17.7239C19.6633 17.7068 19.3526 17.7215 19.0394 17.719C18.4737 17.7141 18.1654 17.4361 18.163 16.8604C18.1581 15.4749 18.1606 14.0893 18.163 12.7063C18.163 12.1379 18.4495 11.8281 19.02 11.8281C23.2442 11.8257 27.4709 11.8257 31.6951 11.8281C32.3045 11.8281 32.5788 12.155 32.5764 12.7526C32.5715 13.8454 32.5764 14.9358 32.5764 16.0823C33.6227 16.0969 34.5161 16.4067 35.1619 17.2409C35.6329 17.8507 35.8247 18.5386 35.7785 19.307C35.6887 20.8438 34.5647 21.839 32.5764 22.0683C32.5764 22.3 32.5764 22.5391 32.5764 22.7781C32.5764 25.0345 32.5764 27.2908 32.5764 29.5472C32.5764 30.3448 32.3336 30.5839 31.5519 30.5961C31.2411 30.6009 30.9255 30.5765 30.6196 30.6131C29.9035 30.6961 29.3694 31.2961 29.3815 31.9621C29.3961 32.6109 29.9059 33.1793 30.5978 33.2622C30.9498 33.3061 31.3091 33.2842 31.6635 33.2817C32.2632 33.2793 32.5764 33.5671 32.5764 34.1745C32.5764 35.5381 32.5764 36.8992 32.5764 38.2628C32.5764 38.8653 32.2899 39.1775 31.683 39.1775C27.4806 39.1775 23.2782 39.1799 19.0734 39.1751C18.4228 39.1751 18.1679 38.897 18.163 38.2189C18.1557 37.1285 18.163 36.0381 18.163 34.96V34.9575ZM19.7847 16.0823C21.7269 16.2286 22.9165 17.3068 22.9626 18.9143C23.0136 20.7096 21.9575 21.7707 19.7993 22.0732V24.6978C20.9233 24.6978 22.0085 24.6905 23.0937 24.7003C23.754 24.7052 24.0138 24.9735 24.0308 25.6321C24.0405 25.9663 24.0138 26.3053 24.0454 26.6371C24.1182 27.364 24.696 27.9055 25.366 27.908C26.0337 27.9104 26.6115 27.3713 26.6916 26.6444C26.7207 26.3785 26.7037 26.1078 26.7061 25.8394C26.711 24.9003 26.9076 24.6978 27.8375 24.6978C28.8741 24.6978 29.9083 24.6978 30.9789 24.6978C30.9789 23.5099 30.9789 22.4171 30.9789 21.3243C30.9789 20.7218 31.263 20.4096 31.8699 20.4071C32.1807 20.4071 32.4938 20.4193 32.8046 20.3998C33.6033 20.3486 34.1908 19.7583 34.1762 19.0387C34.1617 18.341 33.5936 17.7776 32.8264 17.7239C32.5618 17.7044 32.2923 17.7215 32.0253 17.7166C31.2266 17.7093 30.9838 17.4751 30.9814 16.6872C30.9765 15.6212 30.9814 14.5553 30.9814 13.4649H19.7871V16.0798L19.7847 16.0823ZM19.758 26.3322C19.758 27.4811 19.7653 28.5519 19.758 29.6252C19.7532 30.3302 19.4934 30.579 18.7893 30.5936C18.4786 30.6009 18.1654 30.5765 17.8571 30.6058C17.1288 30.6717 16.585 31.2327 16.5656 31.906C16.5437 32.5963 17.1069 33.1988 17.8595 33.272C18.146 33.2988 18.4373 33.2793 18.7262 33.2842C19.5152 33.2939 19.758 33.5305 19.7604 34.3209C19.7653 35.3868 19.7604 36.4504 19.7604 37.5334H30.9377V34.9185C29.01 34.7697 27.8229 33.694 27.7768 32.0913C27.7258 30.2887 28.8061 29.2008 30.9449 28.9349V26.3419H28.3497C28.1531 28.2592 27.1771 29.474 25.6695 29.4862C24.9995 29.4911 24.259 29.2788 23.6715 28.9495C22.7125 28.408 22.4139 27.4055 22.3969 26.337H19.758V26.3322Z" fill="#EF7B10"/>
</g>
<defs>
<clipPath id="clip0_816_62">
<rect width="55" height="66" fill="white"/>
</clipPath>
</defs>
</svg>
