<svg width="74" height="96" viewBox="0 0 74 96" fill="none" xmlns="http://www.w3.org/2000/svg">
<path d="M55 67.3125C57.4375 65.8125 58.1875 61.6875 60.25 59.4375C62.5 57.375 66.625 56.8125 68.125 54.1875C69.625 51.5625 68.125 47.625 68.875 44.625C69.625 41.8125 72.8125 39.1875 72.8125 36C72.8125 33 69.4375 30.375 68.6875 27.5625C67.9375 24.5625 69.4375 20.625 67.9375 18C66.4375 15.375 62.3125 14.8125 60.25 12.75C58 10.5 57.4375 6.375 54.8125 4.875C52.1875 3.375 48.25 4.875 45.25 4.125C42.625 3.375 40 0 37 0C33.8125 0 31.1875 3.375 28.375 4.125C25.375 4.875 21.4375 3.375 18.8125 4.875C16.375 6.375 15.625 10.5 13.5625 12.75C11.3125 14.8125 7.1875 15.375 5.6875 18C4.1875 20.625 5.6875 24.5625 4.9375 27.5625C4.1875 30.375 1 33 1 36C1 39.1875 4.1875 41.8125 4.9375 44.625C5.6875 47.625 4.1875 51.5625 5.6875 54.1875C7.1875 56.625 11.3125 57.375 13.5625 59.4375C15.625 61.6875 16.1875 65.8125 18.8125 67.3125C21.4375 68.8125 25.375 67.3125 28.375 68.0625C31.1875 68.8125 33.8125 72 37 72C40 72 42.625 68.8125 45.4375 68.0625C48.4375 67.3125 52.375 68.8125 55 67.3125ZM36.8125 66C35.3125 65.25 32.875 63.1875 29.6875 62.25C26.5 61.5 23.5 62.0625 21.8125 61.875C20.875 60.5625 19.75 57.5625 17.5 55.3125C15.25 53.0625 12.25 51.9375 10.9375 51C10.9375 49.3125 11.5 46.3125 10.75 43.125C9.8125 39.9375 7.75 37.6875 7 36.1875C7.75 34.5 9.8125 32.25 10.75 29.0625C11.5 25.875 10.9375 22.875 10.9375 21.1875C12.4375 20.25 15.4375 19.125 17.6875 16.875C19.9375 14.625 21.0625 11.625 22 10.125C23.6875 10.125 26.6875 10.6875 29.875 9.9375C33.0625 9 35.3125 6.9375 36.8125 6.1875C38.5 6.9375 40.75 9 43.9375 9.9375C47.125 10.6875 50.125 10.125 51.8125 10.125C52.75 11.625 53.875 14.625 56.125 16.875C58.375 19.125 61.375 20.25 62.875 21.1875C62.875 22.875 62.3125 25.875 63.0625 29.0625C64 32.25 66.0625 34.5 66.8125 36.1875C66.0625 37.6875 64 39.9375 63.0625 43.125C62.3125 46.125 62.875 49.125 62.875 51C61.375 51.9375 58.375 53.0625 56.125 55.3125C53.875 57.5625 52.75 60.5625 51.8125 62.0625C50.125 62.0625 47.125 61.5 43.9375 62.25C40.75 63.1875 38.5 65.25 36.8125 66ZM53.3125 36C53.3125 27 45.8125 19.5 37 19.5C28 19.5 20.5 27 20.5 36C20.5 45.1875 27.8125 52.5 36.8125 52.5C45.625 52.5 53.3125 45.1875 53.3125 36ZM37 46.5C31.1875 46.5 26.5 41.8125 26.5 36C26.5 30.375 31.1875 25.5 36.8125 25.5C42.4375 25.5 47.3125 30.375 47.3125 36C47.3125 41.8125 42.625 46.5 37 46.5ZM67.9375 69.5625C67.375 67.875 65.5 67.125 64 67.875C62.5 68.4375 61.75 70.125 62.3125 71.625L66.8125 83.25L58 81.9375L53.3125 89.8125L48.625 78.375C48.0625 76.875 46.375 76.125 44.6875 76.6875C43.1875 77.4375 42.4375 79.125 43.1875 80.625L47.875 92.0625C48.8125 94.5 50.875 96 53.6875 96C56.125 96 58.1875 94.6875 59.3125 92.625L61.1875 88.6875L65.3125 89.625C67.5625 90 70 89.25 71.5 87.375C73 85.6875 73.375 83.0625 72.4375 81L67.9375 69.5625ZM29.125 76.6875C27.4375 76.125 25.75 76.875 25.1875 78.375L20.5 89.8125L15.8125 81.9375L7 83.25L11.5 71.625C12.0625 70.125 11.3125 68.4375 9.8125 67.875C8.3125 67.125 6.4375 67.875 5.875 69.5625L1.375 81C0.4375 83.0625 0.8125 85.6875 2.3125 87.375C3.8125 89.25 6.25 90 8.5 89.625L12.625 88.6875L14.5 92.625C15.625 94.6875 17.6875 96 20.3125 96C22.9375 96 25 94.5 25.9375 92.0625L30.625 80.625C31.375 79.125 30.625 77.4375 29.125 76.6875Z" fill="#B8BBBE"/>
</svg>
