<svg width="45" height="40" viewBox="0 0 45 40" fill="none" xmlns="http://www.w3.org/2000/svg">
<path d="M20.625 2.5C20.625 1.48438 21.4062 0.625 22.5 0.625C23.5156 0.625 24.375 1.48438 24.375 2.5C24.375 3.59375 23.5156 4.375 22.5 4.375C21.4062 4.375 20.625 3.59375 20.625 2.5ZM13.5938 31.4062C8.75 26.4844 8.75 18.5938 13.5938 13.6719C18.5156 8.82812 26.4062 8.82812 31.3281 13.6719C36.1719 18.5938 36.1719 26.4844 31.3281 31.4062C26.4062 36.25 18.5156 36.25 13.5938 31.4062ZM23.3594 21.6406L30.3906 28.6719C33.4375 24.7656 33.125 19.0625 29.5312 15.4688C25.625 11.5625 19.2969 11.5625 15.3906 15.4688C11.4844 19.375 11.4844 25.7031 15.3906 29.6094C18.9844 33.2031 24.6875 33.5156 28.5938 30.4688L21.5625 23.4375C21.0938 22.9688 21.0938 22.1094 21.5625 21.6406C22.0312 21.1719 22.8906 21.1719 23.3594 21.6406ZM44.375 22.5C44.375 23.5938 43.5156 24.375 42.5 24.375C41.4062 24.375 40.625 23.5938 40.625 22.5C40.625 21.4844 41.4062 20.625 42.5 20.625C43.5156 20.625 44.375 21.4844 44.375 22.5ZM0.625 22.5C0.625 21.4844 1.40625 20.625 2.5 20.625C3.51562 20.625 4.375 21.4844 4.375 22.5C4.375 23.5938 3.51562 24.375 2.5 24.375C1.40625 24.375 0.625 23.5938 0.625 22.5ZM9.375 7.5C9.375 8.59375 8.51562 9.375 7.5 9.375C6.40625 9.375 5.625 8.59375 5.625 7.5C5.625 6.48438 6.40625 5.625 7.5 5.625C8.51562 5.625 9.375 6.48438 9.375 7.5ZM35.625 7.5C35.625 6.48438 36.4062 5.625 37.5 5.625C38.5156 5.625 39.375 6.48438 39.375 7.5C39.375 8.59375 38.5156 9.375 37.5 9.375C36.4062 9.375 35.625 8.59375 35.625 7.5ZM9.375 37.5C9.375 38.5938 8.51562 39.375 7.5 39.375C6.40625 39.375 5.625 38.5938 5.625 37.5C5.625 36.4844 6.40625 35.625 7.5 35.625C8.51562 35.625 9.375 36.4844 9.375 37.5ZM35.625 37.5C35.625 36.4844 36.4062 35.625 37.5 35.625C38.5156 35.625 39.375 36.4844 39.375 37.5C39.375 38.5938 38.5156 39.375 37.5 39.375C36.4062 39.375 35.625 38.5938 35.625 37.5Z" fill="#1D1E20"/>
</svg>
