<svg width="45" height="45" viewBox="0 0 45 45" fill="none" xmlns="http://www.w3.org/2000/svg">
<g clip-path="url(#clip0_268_427)">
<path d="M0 21.0036C0.0841654 20.414 0.16338 19.8243 0.254972 19.2359C0.897351 15.0847 2.61655 11.4192 5.30242 8.2132C8.10092 4.87468 11.5653 2.47888 15.703 1.09764C18.452 0.179698 21.274 -0.154773 24.1715 0.0657304C33.1834 0.748299 41.194 7.26925 43.9071 15.8788C46.0669 22.7317 44.9938 29.1635 40.9576 35.0576C37.7395 39.7575 33.327 42.8731 27.7956 44.3138C26.6433 44.6136 25.4415 44.7201 24.2619 44.9196C24.1641 44.9357 24.0701 44.9741 23.9747 45.0013H20.9015C20.399 44.9357 19.8952 44.8799 19.3952 44.8043C16.4296 44.3571 13.5915 43.5222 10.9774 42.0183C10.7162 41.8684 10.4922 41.8337 10.2013 41.9341C8.61705 42.4779 7.02409 42.997 5.43733 43.5321C4.00404 44.0165 2.57323 44.5108 1.14242 45.0013H0C0 44.59 0 44.1788 0 43.7687C0.0482713 43.6857 0.113871 43.6077 0.143576 43.5185C1.12757 40.5702 2.11156 37.6219 3.07822 34.6686C3.13268 34.5039 3.09927 34.2611 3.01386 34.1087C1.57191 31.5432 0.684462 28.7956 0.259922 25.8906C0.170806 25.2873 0.0866408 24.684 0 24.0795C0 23.0538 0 22.0281 0 21.0036ZM2.29351 42.6848C2.56209 42.6105 2.72795 42.5721 2.88761 42.5188C5.28138 41.7198 7.67761 40.9294 10.0639 40.1106C10.5788 39.9335 11.0059 39.9966 11.4787 40.2531C12.3884 40.7461 13.3043 41.2466 14.2636 41.6269C17.9656 43.0924 21.8025 43.6337 25.7435 42.9561C31.0385 42.0468 35.3829 39.4379 38.6864 35.2149C42.7907 29.9675 44.2029 24.0325 42.5505 17.5412C41.0356 11.5914 37.4387 7.15156 32.0608 4.21813C27.6273 1.80003 22.8979 1.14966 17.9693 2.29182C13.4962 3.32868 9.76442 5.64397 6.80007 9.14105C2.83439 13.8162 1.18945 19.2235 1.96056 25.322C2.33064 28.2505 3.22428 31.0229 4.76277 33.5612C5.02764 33.9985 5.05735 34.4221 4.89273 34.8966C4.49171 36.0548 4.10801 37.2193 3.7206 38.3825C3.25522 39.7798 2.79231 41.1784 2.29227 42.6848H2.29351Z" fill="black"/>
<path d="M25.9928 30.4096C26.2775 30.4096 26.4966 30.4071 26.7144 30.4096C27.4088 30.417 27.7442 30.7403 27.7467 31.4241C27.7516 32.5081 27.7529 33.592 27.7467 34.676C27.743 35.3375 27.4075 35.6757 26.7454 35.6769C24.4184 35.6818 22.0903 35.6781 19.7633 35.6781C19.2509 35.6781 18.7385 35.6818 18.2261 35.6781C17.5602 35.6719 17.2173 35.3424 17.2136 34.6883C17.2074 33.5895 17.2074 32.4907 17.2136 31.3919C17.2173 30.7577 17.559 30.4232 18.1902 30.4096C18.4353 30.4046 18.6803 30.4096 18.9464 30.4096V23.3745C18.6927 23.3745 18.4365 23.3795 18.1803 23.3745C17.5701 23.3609 17.2198 23.0277 17.2161 22.4256C17.2074 21.2971 17.2062 20.1698 17.2161 19.0413C17.2211 18.4603 17.5689 18.1097 18.1493 18.1085C20.4478 18.101 22.745 18.101 25.0435 18.1085C25.6747 18.111 25.9903 18.4727 25.9903 19.1627C25.9928 22.7229 25.9903 26.282 25.9903 29.8422C25.9903 30.0144 25.9903 30.1878 25.9903 30.4108L25.9928 30.4096ZM18.9836 21.6204C19.2918 21.6204 19.5542 21.6118 19.8166 21.6217C20.3698 21.6427 20.7189 21.9822 20.7201 22.5408C20.7275 25.4408 20.7275 28.3408 20.7201 31.2396C20.7189 31.8144 20.3599 32.1464 19.7745 32.1612C19.5158 32.1674 19.2583 32.1612 18.9984 32.1612V33.8881H25.973V32.1625C25.7923 32.1625 25.6351 32.1625 25.4767 32.1625C24.4902 32.1612 24.2402 31.9085 24.2402 30.9113C24.2402 27.3969 24.2402 23.8812 24.2402 20.3668V19.8837H18.9836V21.6192V21.6204Z" fill="#EF7B10"/>
<path d="M22.5014 9.31567C24.4347 9.32558 26.0079 10.9224 25.993 12.8598C25.9782 14.7936 24.3778 16.3631 22.442 16.3433C20.5285 16.3235 18.9689 14.7403 18.9727 12.8214C18.9764 10.8864 20.5669 9.307 22.5027 9.31691L22.5014 9.31567ZM24.2355 12.845C24.2479 11.9171 23.4594 11.1045 22.52 11.0747C21.5818 11.045 20.7426 11.8614 20.7302 12.814C20.7179 13.7418 21.5063 14.5545 22.4457 14.5842C23.3839 14.6139 24.2231 13.7976 24.2355 12.845Z" fill="#EF7B10"/>
<path d="M41.5384 22.5297C41.3973 23.6892 41.2747 24.85 41.1052 26.0058C41.0123 26.6437 40.5767 26.9745 40.0704 26.8803C39.5394 26.7812 39.2944 26.3093 39.3637 25.6589C39.4899 24.4833 39.6706 23.3027 39.6669 22.1259C39.6607 19.8949 39.1595 17.7505 38.2398 15.7115C38.1854 15.5913 38.1309 15.4724 38.0863 15.3485C37.9019 14.832 38.0764 14.3575 38.5196 14.1618C38.9713 13.9623 39.4528 14.1308 39.6843 14.6313C39.9726 15.2531 40.2449 15.8862 40.4665 16.534C41.1299 18.4715 41.4666 20.4672 41.5371 22.5297H41.5384Z" fill="#EF7B10"/>
<path d="M37.0782 11.076C37.5659 11.0859 37.9558 11.5009 37.9347 11.9877C37.9149 12.4572 37.5164 12.8313 37.0448 12.8239C36.5584 12.8152 36.1673 12.399 36.1883 11.9121C36.2081 11.4426 36.6067 11.0673 37.077 11.076H37.0782Z" fill="#EF7B10"/>
</g>
<defs>
<clipPath id="clip0_268_427">
<rect width="45" height="45" fill="white"/>
</clipPath>
</defs>
</svg>
