<svg width="16" height="12" viewBox="0 0 16 12" fill="none" xmlns="http://www.w3.org/2000/svg">
<g clip-path="url(#clip0_2121_17922)">
<path d="M0 0H16V12H0V0Z" fill="#DE2910"/>
<path d="M1.91994 4.43995L2.99993 1.19995L4.07992 4.43995L1.19995 2.45995H4.79991L1.91994 4.43995Z" fill="#FFDE00"/>
<path d="M6.60432 1.26209L5.49288 1.50839L6.23425 0.644478L6.16154 1.8072L5.54476 0.77784L6.60432 1.26209Z" fill="#FFDE00"/>
<path d="M7.726 2.68365L6.60603 2.47961L7.62443 1.97085L7.10647 3.01436L6.93718 1.82636L7.726 2.68365Z" fill="#FFDE00"/>
<path d="M7.5626 4.67815L6.62323 4.03507L7.76057 3.98591L6.86206 4.72742L7.19201 3.57368L7.5626 4.67815Z" fill="#FFDE00"/>
<path d="M6.14982 5.98102L5.53172 5.02502L6.59979 5.41895L5.48461 5.7559L6.23456 4.81912L6.14982 5.98102Z" fill="#FFDE00"/>
</g>
<defs>
<clipPath id="clip0_2121_17922">
<rect width="16" height="12" fill="white"/>
</clipPath>
</defs>
</svg>
