<svg width="16" height="12" viewBox="0 0 16 12" fill="none" xmlns="http://www.w3.org/2000/svg">
<g clip-path="url(#clip0_2121_17777)">
<path d="M0 0H16V12H0V0Z" fill="#CC0000"/>
<path d="M0.0124512 0.997559H15.9875V1.95756H0.0124512V0.997559ZM0.0124512 2.96506H15.9875V3.92506H0.0124512V2.96506ZM0.0124512 4.93506H15.9875V5.89506H0.0124512V4.93506Z" fill="white"/>
<path d="M0 0.0124512H8V7.01245H0V0.0124512Z" fill="#000066"/>
<path d="M5.18739 1.84495L5.33739 2.86245L5.91239 2.01245L5.60239 2.99245L6.48989 2.47245L5.78739 3.22245L6.81239 3.14245L5.85489 3.51245L6.81239 3.88245L5.78739 3.80245L6.48989 4.55245L5.60239 4.03245L5.90989 5.01495L5.33489 4.16245L5.18489 5.17995L5.03739 4.16245L4.46239 5.01245L4.77239 4.03245L3.88489 4.55245L4.58489 3.80245L3.55989 3.88245L4.51989 3.51245L3.56239 3.14245L4.58739 3.22245L3.88489 2.47245L4.77239 2.99245L4.46239 2.00995L5.03739 2.86245L5.18739 1.84495ZM4.35489 1.88745C4.08428 1.7675 3.788 1.71702 3.49293 1.7406C3.19787 1.76419 2.91337 1.86108 2.66525 2.0225C2.41713 2.18392 2.21325 2.40475 2.07211 2.66494C1.93098 2.92513 1.85705 3.21645 1.85705 3.51245C1.85705 3.80846 1.93098 4.09978 2.07211 4.35997C2.21325 4.62016 2.41713 4.84098 2.66525 5.0024C2.91337 5.16382 3.19787 5.26072 3.49293 5.2843C3.788 5.30788 4.08428 5.25741 4.35489 5.13745C4.05602 5.35188 3.70381 5.47974 3.33698 5.50697C2.97016 5.53419 2.60293 5.45972 2.27569 5.29176C1.94844 5.12379 1.67386 4.86883 1.48213 4.55491C1.29041 4.241 1.18896 3.88029 1.18896 3.51245C1.18896 3.14462 1.29041 2.78391 1.48213 2.46999C1.67386 2.15608 1.94844 1.90112 2.27569 1.73315C2.60293 1.56518 2.97016 1.49071 3.33698 1.51794C3.70381 1.54516 4.05602 1.67302 4.35489 1.88745Z" fill="#FFCC00"/>
<path d="M0.0125 6.90503H15.9875V7.86503H0.0125V6.90503ZM0.0125 8.86003H15.9875V9.82003H0.0125V8.86003ZM0 11.04H15.975V12H0V11.04Z" fill="white"/>
</g>
<defs>
<clipPath id="clip0_2121_17777">
<rect width="16" height="12" fill="white"/>
</clipPath>
</defs>
</svg>
