<svg width="16" height="12" viewBox="0 0 16 12" fill="none" xmlns="http://www.w3.org/2000/svg">
<g clip-path="url(#clip0_2121_17758)">
<path fill-rule="evenodd" clip-rule="evenodd" d="M-0.5 0H17.5V12H-0.5V0Z" fill="white"/>
<path fill-rule="evenodd" clip-rule="evenodd" d="M-0.5 0H17.5V6H-0.5V0Z" fill="#DF0000"/>
<path fill-rule="evenodd" clip-rule="evenodd" d="M3.65009 1.00495C3.17654 1.10672 2.75242 1.36831 2.44894 1.74581C2.14546 2.12331 1.98109 2.59372 1.98344 3.07807C1.98578 3.56243 2.1547 4.03123 2.46182 4.40577C2.76894 4.78031 3.19557 5.03778 3.67009 5.13495C3.39825 5.21361 3.11357 5.23783 2.83235 5.20623C2.55114 5.17463 2.27893 5.08782 2.03134 4.95078C1.78374 4.81375 1.56564 4.62918 1.38953 4.40767C1.21342 4.18616 1.08278 3.93207 1.00509 3.65995C0.850778 3.11298 0.919318 2.52715 1.19572 2.03057C1.47212 1.53398 1.9339 1.16703 2.48009 1.00995C2.88009 0.894955 3.25009 0.892455 3.65259 1.00495H3.65009Z" fill="white"/>
<path fill-rule="evenodd" clip-rule="evenodd" d="M3.3251 2.75003L3.4476 3.12503L3.1226 2.89503L2.8026 3.13003L2.9201 2.75003L2.6001 2.51753L2.9976 2.51253L3.1226 2.13753L3.2476 2.51253H3.6426L3.3251 2.75003ZM3.7626 4.05003L3.8876 4.42753L3.5626 4.19753L3.2401 4.43003L3.3601 4.05253L3.0401 3.81753L3.4376 3.81503L3.5601 3.43753L3.6851 3.81253H4.0851L3.7626 4.05003ZM5.2251 4.04003L5.3476 4.42003L5.0226 4.18753L4.7026 4.42003L4.8201 4.04253L4.5001 3.81003L4.8976 3.80503L5.0226 3.43003L5.1476 3.80503H5.5426L5.2251 4.04003ZM5.6601 2.75003L5.7826 3.12753L5.4576 2.89753L5.1376 3.13003L5.2576 2.75253L4.9351 2.51753L5.3351 2.51503L5.4551 2.13753L5.5801 2.51253H5.9801L5.6601 2.75003ZM4.5026 1.89253L4.6276 2.27253L4.3026 2.04003L3.9801 2.27503L4.1001 1.89503L3.7801 1.66003L4.1751 1.65753L4.3001 1.28003L4.4251 1.65503H4.8251L4.5026 1.89253Z" fill="white"/>
</g>
<defs>
<clipPath id="clip0_2121_17758">
<rect width="16" height="12" fill="white"/>
</clipPath>
</defs>
</svg>
