<svg width="16" height="12" viewBox="0 0 16 12" fill="none" xmlns="http://www.w3.org/2000/svg">
<g clip-path="url(#clip0_2121_17492)">
<path d="M0 8H16V12H0V8Z" fill="#1EB53A"/>
<path d="M0 0H16V4H0V0Z" fill="#0099B5"/>
<path d="M0 3.83997H16V8.15997H0V3.83997Z" fill="#CE1126"/>
<path d="M0 4.07996H16V7.91996H0V4.07996Z" fill="white"/>
<path d="M3.35992 3.35998C4.15521 3.35998 4.79992 2.71527 4.79992 1.91998C4.79992 1.12469 4.15521 0.47998 3.35992 0.47998C2.56463 0.47998 1.91992 1.12469 1.91992 1.91998C1.91992 2.71527 2.56463 3.35998 3.35992 3.35998Z" fill="white"/>
<path d="M3.8399 3.35998C4.63519 3.35998 5.2799 2.71527 5.2799 1.91998C5.2799 1.12469 4.63519 0.47998 3.8399 0.47998C3.04461 0.47998 2.3999 1.12469 2.3999 1.91998C2.3999 2.71527 3.04461 3.35998 3.8399 3.35998Z" fill="#0099B5"/>
<path d="M6.52748 2.78455L6.43628 3.05815L6.57548 3.10615" fill="white"/>
<path d="M6.52745 2.78455L6.61865 3.05815L6.47945 3.10615" fill="white"/>
<path d="M6.80138 2.98359L6.51298 2.9814L6.51035 3.12862" fill="white"/>
<path d="M6.80141 2.98358L6.56938 3.15486L6.48071 3.03731" fill="white"/>
<path d="M6.25352 2.98358L6.48555 3.15486L6.57422 3.03731" fill="white"/>
<path d="M6.25356 2.98359L6.54195 2.9814L6.54458 3.12862" fill="white"/>
<path d="M6.69673 3.30556L6.60969 3.03061L6.46886 3.07359" fill="white"/>
<path d="M6.69683 3.30552L6.46223 3.13778L6.54663 3.01713" fill="white"/>
<path d="M6.3581 3.30552L6.5927 3.13778L6.5083 3.01713" fill="white"/>
<path d="M6.35821 3.30556L6.44524 3.03061L6.58607 3.07359" fill="white"/>
<path d="M6.52748 2.78455L6.43628 3.05815L6.57548 3.10615" fill="white"/>
<path d="M6.52745 2.78455L6.61865 3.05815L6.47945 3.10615" fill="white"/>
<path d="M6.80138 2.98359L6.51298 2.9814L6.51035 3.12862" fill="white"/>
<path d="M6.80141 2.98358L6.56938 3.15486L6.48071 3.03731" fill="white"/>
<path d="M6.25352 2.98358L6.48555 3.15486L6.57422 3.03731" fill="white"/>
<path d="M6.25356 2.98359L6.54195 2.9814L6.54458 3.12862" fill="white"/>
<path d="M6.69673 3.30556L6.60969 3.03061L6.46886 3.07359" fill="white"/>
<path d="M6.69683 3.30552L6.46223 3.13778L6.54663 3.01713" fill="white"/>
<path d="M6.3581 3.30552L6.5927 3.13778L6.5083 3.01713" fill="white"/>
<path d="M6.35821 3.30556L6.44524 3.03061L6.58607 3.07359" fill="white"/>
<path d="M6.52748 2.78455L6.43628 3.05815L6.57548 3.10615" fill="white"/>
<path d="M6.52745 2.78455L6.61865 3.05815L6.47945 3.10615" fill="white"/>
<path d="M6.80138 2.98359L6.51298 2.9814L6.51035 3.12862" fill="white"/>
<path d="M6.80141 2.98358L6.56938 3.15486L6.48071 3.03731" fill="white"/>
<path d="M6.25352 2.98358L6.48555 3.15486L6.57422 3.03731" fill="white"/>
<path d="M6.25356 2.98359L6.54195 2.9814L6.54458 3.12862" fill="white"/>
<path d="M6.69673 3.30556L6.60969 3.03061L6.46886 3.07359" fill="white"/>
<path d="M6.69683 3.30552L6.46223 3.13778L6.54663 3.01713" fill="white"/>
<path d="M6.3581 3.30552L6.5927 3.13778L6.5083 3.01713" fill="white"/>
<path d="M6.35821 3.30556L6.44524 3.03061L6.58607 3.07359" fill="white"/>
<path d="M6.52748 2.78455L6.43628 3.05815L6.57548 3.10615" fill="white"/>
<path d="M6.52745 2.78455L6.61865 3.05815L6.47945 3.10615" fill="white"/>
<path d="M6.80138 2.98359L6.51298 2.9814L6.51035 3.12862" fill="white"/>
<path d="M6.80141 2.98358L6.56938 3.15486L6.48071 3.03731" fill="white"/>
<path d="M6.25352 2.98358L6.48555 3.15486L6.57422 3.03731" fill="white"/>
<path d="M6.25356 2.98359L6.54195 2.9814L6.54458 3.12862" fill="white"/>
<path d="M6.69673 3.30556L6.60969 3.03061L6.46886 3.07359" fill="white"/>
<path d="M6.69683 3.30552L6.46223 3.13778L6.54663 3.01713" fill="white"/>
<path d="M6.3581 3.30552L6.5927 3.13778L6.5083 3.01713" fill="white"/>
<path d="M6.35821 3.30556L6.44524 3.03061L6.58607 3.07359" fill="white"/>
<path d="M6.52748 2.78455L6.43628 3.05815L6.57548 3.10615" fill="white"/>
<path d="M6.52745 2.78455L6.61865 3.05815L6.47945 3.10615" fill="white"/>
<path d="M6.80138 2.98359L6.51298 2.9814L6.51035 3.12862" fill="white"/>
<path d="M6.80141 2.98358L6.56938 3.15486L6.48071 3.03731" fill="white"/>
<path d="M6.25352 2.98358L6.48555 3.15486L6.57422 3.03731" fill="white"/>
<path d="M6.25356 2.98359L6.54195 2.9814L6.54458 3.12862" fill="white"/>
<path d="M6.69673 3.30556L6.60969 3.03061L6.46886 3.07359" fill="white"/>
<path d="M6.69683 3.30552L6.46223 3.13778L6.54663 3.01713" fill="white"/>
<path d="M6.3581 3.30552L6.5927 3.13778L6.5083 3.01713" fill="white"/>
<path d="M6.35821 3.30556L6.44524 3.03061L6.58607 3.07359" fill="white"/>
<path d="M6.52748 2.78455L6.43628 3.05815L6.57548 3.10615" fill="white"/>
<path d="M6.52745 2.78455L6.61865 3.05815L6.47945 3.10615" fill="white"/>
<path d="M6.80138 2.98359L6.51298 2.9814L6.51035 3.12862" fill="white"/>
<path d="M6.80141 2.98358L6.56938 3.15486L6.48071 3.03731" fill="white"/>
<path d="M6.25352 2.98358L6.48555 3.15486L6.57422 3.03731" fill="white"/>
<path d="M6.25356 2.98359L6.54195 2.9814L6.54458 3.12862" fill="white"/>
<path d="M6.69673 3.30556L6.60969 3.03061L6.46886 3.07359" fill="white"/>
<path d="M6.69683 3.30552L6.46223 3.13778L6.54663 3.01713" fill="white"/>
<path d="M6.3581 3.30552L6.5927 3.13778L6.5083 3.01713" fill="white"/>
<path d="M6.35821 3.30556L6.44524 3.03061L6.58607 3.07359" fill="white"/>
<path d="M6.52748 2.78455L6.43628 3.05815L6.57548 3.10615" fill="white"/>
<path d="M6.52745 2.78455L6.61865 3.05815L6.47945 3.10615" fill="white"/>
<path d="M6.80138 2.98359L6.51298 2.9814L6.51035 3.12862" fill="white"/>
<path d="M6.80141 2.98358L6.56938 3.15486L6.48071 3.03731" fill="white"/>
<path d="M6.25352 2.98358L6.48555 3.15486L6.57422 3.03731" fill="white"/>
<path d="M6.25356 2.98359L6.54195 2.9814L6.54458 3.12862" fill="white"/>
<path d="M6.69673 3.30556L6.60969 3.03061L6.46886 3.07359" fill="white"/>
<path d="M6.69683 3.30552L6.46223 3.13778L6.54663 3.01713" fill="white"/>
<path d="M6.3581 3.30552L6.5927 3.13778L6.5083 3.01713" fill="white"/>
<path d="M6.35821 3.30556L6.44524 3.03061L6.58607 3.07359" fill="white"/>
<path d="M6.52748 2.78455L6.43628 3.05815L6.57548 3.10615" fill="white"/>
<path d="M6.52745 2.78455L6.61865 3.05815L6.47945 3.10615" fill="white"/>
<path d="M6.80138 2.98359L6.51298 2.9814L6.51035 3.12862" fill="white"/>
<path d="M6.80141 2.98358L6.56938 3.15486L6.48071 3.03731" fill="white"/>
<path d="M6.25352 2.98358L6.48555 3.15486L6.57422 3.03731" fill="white"/>
<path d="M6.25356 2.98359L6.54195 2.9814L6.54458 3.12862" fill="white"/>
<path d="M6.69673 3.30556L6.60969 3.03061L6.46886 3.07359" fill="white"/>
<path d="M6.69683 3.30552L6.46223 3.13778L6.54663 3.01713" fill="white"/>
<path d="M6.3581 3.30552L6.5927 3.13778L6.5083 3.01713" fill="white"/>
<path d="M6.35821 3.30556L6.44524 3.03061L6.58607 3.07359" fill="white"/>
<path d="M6.52748 2.78455L6.43628 3.05815L6.57548 3.10615" fill="white"/>
<path d="M6.52745 2.78455L6.61865 3.05815L6.47945 3.10615" fill="white"/>
<path d="M6.80138 2.98359L6.51298 2.9814L6.51035 3.12862" fill="white"/>
<path d="M6.80141 2.98358L6.56938 3.15486L6.48071 3.03731" fill="white"/>
<path d="M6.25352 2.98358L6.48555 3.15486L6.57422 3.03731" fill="white"/>
<path d="M6.25356 2.98359L6.54195 2.9814L6.54458 3.12862" fill="white"/>
<path d="M6.69673 3.30556L6.60969 3.03061L6.46886 3.07359" fill="white"/>
<path d="M6.69683 3.30552L6.46223 3.13778L6.54663 3.01713" fill="white"/>
<path d="M6.3581 3.30552L6.5927 3.13778L6.5083 3.01713" fill="white"/>
<path d="M6.35821 3.30556L6.44524 3.03061L6.58607 3.07359" fill="white"/>
<path d="M6.52748 2.78455L6.43628 3.05815L6.57548 3.10615" fill="white"/>
<path d="M6.52745 2.78455L6.61865 3.05815L6.47945 3.10615" fill="white"/>
<path d="M6.80138 2.98359L6.51298 2.9814L6.51035 3.12862" fill="white"/>
<path d="M6.80141 2.98358L6.56938 3.15486L6.48071 3.03731" fill="white"/>
<path d="M6.25352 2.98358L6.48555 3.15486L6.57422 3.03731" fill="white"/>
<path d="M6.25356 2.98359L6.54195 2.9814L6.54458 3.12862" fill="white"/>
<path d="M6.69673 3.30556L6.60969 3.03061L6.46886 3.07359" fill="white"/>
<path d="M6.69683 3.30552L6.46223 3.13778L6.54663 3.01713" fill="white"/>
<path d="M6.3581 3.30552L6.5927 3.13778L6.5083 3.01713" fill="white"/>
<path d="M6.35821 3.30556L6.44524 3.03061L6.58607 3.07359" fill="white"/>
<path d="M6.52748 2.78455L6.43628 3.05815L6.57548 3.10615" fill="white"/>
<path d="M6.52745 2.78455L6.61865 3.05815L6.47945 3.10615" fill="white"/>
<path d="M6.80138 2.98359L6.51298 2.9814L6.51035 3.12862" fill="white"/>
<path d="M6.80141 2.98358L6.56938 3.15486L6.48071 3.03731" fill="white"/>
<path d="M6.25352 2.98358L6.48555 3.15486L6.57422 3.03731" fill="white"/>
<path d="M6.25356 2.98359L6.54195 2.9814L6.54458 3.12862" fill="white"/>
<path d="M6.69673 3.30556L6.60969 3.03061L6.46886 3.07359" fill="white"/>
<path d="M6.69683 3.30552L6.46223 3.13778L6.54663 3.01713" fill="white"/>
<path d="M6.3581 3.30552L6.5927 3.13778L6.5083 3.01713" fill="white"/>
<path d="M6.35821 3.30556L6.44524 3.03061L6.58607 3.07359" fill="white"/>
<path d="M6.52748 2.78455L6.43628 3.05815L6.57548 3.10615" fill="white"/>
<path d="M6.52745 2.78455L6.61865 3.05815L6.47945 3.10615" fill="white"/>
<path d="M6.80138 2.98359L6.51298 2.9814L6.51035 3.12862" fill="white"/>
<path d="M6.80141 2.98358L6.56938 3.15486L6.48071 3.03731" fill="white"/>
<path d="M6.25352 2.98358L6.48555 3.15486L6.57422 3.03731" fill="white"/>
<path d="M6.25356 2.98359L6.54195 2.9814L6.54458 3.12862" fill="white"/>
<path d="M6.69673 3.30556L6.60969 3.03061L6.46886 3.07359" fill="white"/>
<path d="M6.69683 3.30552L6.46223 3.13778L6.54663 3.01713" fill="white"/>
<path d="M6.3581 3.30552L6.5927 3.13778L6.5083 3.01713" fill="white"/>
<path d="M6.35821 3.30556L6.44524 3.03061L6.58607 3.07359" fill="white"/>
</g>
<defs>
<clipPath id="clip0_2121_17492">
<rect width="16" height="12" fill="white"/>
</clipPath>
</defs>
</svg>
