<svg width="160" height="160" viewBox="0 0 160 160" fill="none" xmlns="http://www.w3.org/2000/svg">
<circle cx="80" cy="80" r="80" fill="url(#paint0_linear_888_4)"/>
<circle cx="80" cy="80" r="61" fill="url(#paint1_linear_888_4)"/>
<g clip-path="url(#clip0_888_4)">
<path d="M59.6758 67.1847C59.7262 69.8167 60.2842 72.1182 61.7477 74.148C62.2535 74.8485 63.0456 75.0343 63.681 74.6198C64.3435 74.1874 64.4497 73.3851 63.9888 72.6149C63.6468 72.0431 63.2922 71.4678 63.0492 70.8531C62.4822 69.4236 62.3075 67.9298 62.4588 66.3967C62.538 65.5926 62.0591 64.9797 61.2959 64.8565C60.5848 64.7421 59.9494 65.1834 59.791 65.9625C59.6992 66.4164 59.701 66.8899 59.6758 67.1829V67.1847ZM96.74 82.7463C96.6608 80.5932 96.2396 78.5633 95.264 76.6729C94.8805 75.9295 94.1479 75.6829 93.4602 76.0028C92.7456 76.3351 92.499 77.0731 92.8392 77.8647C92.9796 78.1917 93.129 78.5133 93.2586 78.8439C93.8203 80.293 94.0147 81.8029 94.0147 83.3485C94.0147 84.1579 94.5151 84.6922 95.2459 84.753C95.948 84.8101 96.5546 84.3581 96.6896 83.6362C96.7454 83.3342 96.7256 83.0161 96.74 82.7481V82.7463ZM68.9265 89.7132C68.9373 88.9949 68.2731 88.3409 67.5459 88.3517C66.8492 88.3624 66.2228 88.9914 66.2102 89.6918C66.1976 90.3976 66.7952 91.0069 67.5243 91.0337C68.2767 91.0605 68.9157 90.4601 68.9265 89.7132Z" fill="white"/>
<path d="M45 106.242C45.612 105.284 46.0567 105.134 47.2789 105.564C51.3994 107.017 55.5972 108.191 59.8653 109.129C60.1029 109.181 60.3441 109.222 60.6754 109.286C60.3477 107.558 61.2118 106.14 61.6906 104.623C62.6591 101.549 63.5789 98.4598 64.524 95.3793C64.7904 94.5145 65.4366 94.0964 66.1693 94.2893C66.9793 94.5038 67.379 95.2006 67.1377 96.0512C66.5689 98.0631 65.9821 100.068 65.4024 102.076C65.3718 102.182 65.3556 102.291 65.3178 102.468C66.9955 103.086 68.6696 103.702 70.3941 104.337C70.504 104.113 70.6192 103.908 70.7092 103.692C73.0079 98.2132 75.2922 92.7276 77.618 87.2599C77.8682 86.6738 77.78 86.261 77.429 85.8125C75.9943 83.9846 74.565 82.1531 73.1321 80.3234C72.8171 79.9213 72.4967 79.5229 72.0988 79.0208C71.8972 79.673 71.719 80.2287 71.5552 80.7897C71.1916 82.0262 70.846 83.2699 70.4733 84.5046C70.2159 85.3551 69.5391 85.775 68.8136 85.5749C67.9946 85.348 67.6346 84.644 67.8938 83.7291C68.5382 81.4616 69.1809 79.1941 69.8523 76.9355C69.9729 76.5281 69.9369 76.2386 69.6633 75.9027C68.7182 74.7431 67.811 73.5512 66.8803 72.3791C65.4618 70.5904 64.803 68.5677 64.9164 66.2895C64.9938 64.7546 65.091 63.2161 65.0838 61.6794C65.0766 59.8569 64.9686 58.0343 64.9038 56.2117C64.839 54.3641 64.7436 52.5165 64.7166 50.6689C64.6986 49.4449 65.2062 49 66.4573 49C72.2951 49 78.1346 49 83.9724 49C85.2288 49 85.7707 49.5253 85.6663 50.7547C85.3261 54.7447 84.6546 58.6561 82.7501 62.2566C82.6889 62.3727 82.6187 62.5014 82.6097 62.6283C82.4189 65.2871 82.3127 67.8566 84.1542 70.192C86.0731 72.6239 87.695 75.2863 89.4717 77.8307C90.6454 79.5121 91.2178 81.3419 91.2304 83.4003C91.2718 90.2654 91.3798 97.1304 91.432 103.995C91.4356 104.557 91.63 104.762 92.1377 104.901C93.4751 105.269 94.7928 105.707 96.1267 106.081C97.5488 106.479 98.5479 107.323 99.0087 108.722C99.1473 109.143 99.3867 109.095 99.6765 109.013C103.59 107.898 107.503 106.779 111.417 105.661C111.674 105.588 111.923 105.482 112.182 105.412C113.003 105.194 113.694 105.518 113.93 106.224C114.162 106.919 113.816 107.658 113.042 107.939C111.55 108.48 110.051 109.008 108.535 109.478C103.072 111.17 97.5038 112.419 91.8298 113.157C85.9651 113.92 80.0769 114.177 74.1618 113.877C65.0082 113.414 56.1229 111.675 47.5202 108.53C47.1007 108.377 46.6453 108.277 46.2709 108.048C45.8136 107.769 45.4212 107.383 45.0018 107.042C45.0018 106.774 45.0018 106.508 45.0018 106.24L45 106.242ZM67.8308 61.6634C67.7588 63.3358 67.703 64.8922 67.6238 66.4467C67.5392 68.1049 68.0774 69.538 69.1035 70.8334C72.1673 74.7037 75.1662 78.6259 78.2876 82.4515C79.9275 84.4617 81.0364 86.6005 81.3442 89.2111C81.7996 93.0761 82.4333 96.9196 82.9931 100.77C83.2253 102.369 83.4647 103.967 83.7078 105.604C85.3927 105.261 87.011 104.93 88.6923 104.587C88.6923 104.299 88.6941 104.037 88.6923 103.776C88.6365 97.0911 88.5644 90.4065 88.5374 83.7202C88.5302 82.0584 88.1072 80.586 87.1406 79.2173C85.2234 76.5013 83.3765 73.7353 81.4756 71.0068C80.2893 69.3021 79.6899 67.4384 79.7655 65.3621C79.7889 64.6992 79.7691 64.0345 79.7691 63.2787C75.8557 62.7498 71.8936 62.2119 67.829 61.6634H67.8308ZM82.8527 51.7017H67.4636C67.4636 51.9519 67.4546 52.1681 67.4636 52.3843C67.5608 54.3641 67.6868 56.3439 67.7462 58.3255C67.7624 58.8687 67.9856 58.9795 68.459 59.0421C72.2591 59.5352 76.0591 60.0355 79.8501 60.5823C80.4208 60.6645 80.6422 60.5073 80.8474 60.0284C81.976 57.3803 82.5269 54.5982 82.8509 51.7035L82.8527 51.7017ZM78.0356 111.354H81.6394C80.7214 104.719 79.8141 98.1525 78.9051 91.5876C78.8511 91.5787 78.7971 91.568 78.7413 91.559C76.7881 96.2138 74.835 100.868 72.8639 105.57C73.6289 106.084 74.3508 106.61 75.1104 107.074C76.7413 108.069 77.8844 109.379 78.0356 111.355V111.354ZM64.4484 105.032C64.1118 105.925 63.7805 106.772 63.4745 107.628C63.0137 108.916 63.6527 109.939 65.037 110.13C67.235 110.432 69.4293 110.748 71.6326 111.012C72.8189 111.155 74.0178 111.202 75.4146 111.307C75.1176 110.812 74.997 110.369 74.7072 110.164C73.2509 109.131 71.8324 107.994 70.2411 107.212C68.4266 106.32 66.4429 105.764 64.4502 105.032H64.4484ZM84.039 108.289C84.0966 108.863 84.1578 109.369 84.1956 109.874C84.2748 110.946 84.7104 111.293 85.7617 111.154C87.4466 110.932 89.1369 110.748 90.8218 110.523C92.6957 110.271 94.566 109.99 96.4633 109.719C96.3193 109.045 95.8801 108.816 95.3671 108.663C93.7416 108.178 92.1197 107.682 90.4888 107.214C90.2223 107.137 89.9127 107.117 89.6427 107.169C87.803 107.521 85.9669 107.9 84.039 108.289Z" fill="black"/>
<path d="M59.6758 67.1847C59.701 66.8917 59.6992 66.4181 59.791 65.9643C59.9476 65.1852 60.5848 64.7439 61.2959 64.8582C62.0591 64.9815 62.538 65.5926 62.4588 66.3985C62.3075 67.9316 62.4822 69.4254 63.0492 70.8549C63.294 71.4695 63.6468 72.0449 63.9888 72.6167C64.4497 73.3868 64.3435 74.1891 63.681 74.6215C63.0456 75.0361 62.2535 74.8503 61.7477 74.1498C60.2824 72.12 59.7244 69.8185 59.6758 67.1865V67.1847Z" fill="#EF7B10"/>
<path d="M96.7385 82.7464C96.7259 83.0162 96.7457 83.3324 96.6881 83.6344C96.5531 84.3563 95.9465 84.8084 95.2444 84.7512C94.5136 84.6922 94.0131 84.158 94.0131 83.3467C94.0131 81.8011 93.8187 80.2912 93.2571 78.8421C93.1293 78.5115 92.9781 78.1899 92.8377 77.8629C92.4992 77.0713 92.7441 76.3352 93.4587 76.001C94.1464 75.6812 94.879 75.9278 95.2624 76.6711C96.2363 78.5616 96.6593 80.5914 96.7385 82.7446V82.7464Z" fill="#EF7B10"/>
<path d="M68.9275 89.7132C68.9167 90.4601 68.2777 91.0605 67.5252 91.0337C66.7944 91.0069 66.1985 90.3994 66.2111 89.6918C66.2237 88.9913 66.8502 88.3624 67.5468 88.3516C68.2741 88.3409 68.9383 88.9949 68.9275 89.7132Z" fill="#EF7B10"/>
</g>
<defs>
<linearGradient id="paint0_linear_888_4" x1="130.11" y1="21.0989" x2="33.4066" y2="146.813" gradientUnits="userSpaceOnUse">
<stop stop-color="#FBFBFB"/>
<stop offset="1" stop-color="#EFF1F3"/>
</linearGradient>
<linearGradient id="paint1_linear_888_4" x1="118.209" y1="35.0879" x2="44.4725" y2="130.945" gradientUnits="userSpaceOnUse">
<stop stop-color="#EEF0F2"/>
<stop offset="1" stop-color="#FDFEFE"/>
</linearGradient>
<clipPath id="clip0_888_4">
<rect width="69" height="65" fill="white" transform="translate(45 49)"/>
</clipPath>
</defs>
</svg>
