<svg width="50" height="50" viewBox="0 0 50 50" fill="none" xmlns="http://www.w3.org/2000/svg">
<g id="Layer_1" clip-path="url(#clip0_474_3225)">
<path id="Vector" d="M-2.32831e-10 46.6567C0.0625 46.1067 0.144531 45.558 0.186198 45.0054C0.526042 40.4753 0.856771 35.9438 1.19141 31.4136C1.22656 30.9387 1.25 30.4637 1.30339 29.9913C1.36979 29.3979 1.64453 29.1453 2.23568 29.144C4.98568 29.1374 7.73568 29.1374 10.4857 29.144C11.1107 29.1453 11.3958 29.4545 11.4076 30.0953C11.4141 30.4545 11.4076 30.815 11.4076 31.2334C11.6055 31.2439 11.776 31.2597 11.9466 31.2597C13.2161 31.2623 14.4857 31.2742 15.7539 31.2571C16.6211 31.2452 17.4167 31.4492 18.181 31.865C19.9102 32.807 21.6602 33.7096 23.3906 34.6491C23.9661 34.9609 24.5586 35.1109 25.2096 35.107C27.2109 35.0951 29.2161 35.1701 31.2135 35.0833C33.0846 35.0017 34.6133 35.9991 34.7292 38.2003C35.0078 38.0766 35.2708 37.9635 35.5326 37.8437C38.6797 36.399 41.8281 34.9543 44.974 33.5083C47.2461 32.4649 49.1589 33.3083 49.9271 35.6925C49.9414 35.7385 49.9727 35.778 49.9961 35.8201V37.0017C49.6732 38.2845 48.8464 39.0792 47.6966 39.6858C41.7109 42.8397 35.7448 46.0317 29.7773 49.2224C28.0807 50.1303 26.349 50.2355 24.5547 49.5776C22.543 48.8395 20.5286 48.1066 18.5169 47.3659C16.2826 46.5413 14.0595 46.1387 11.8477 46.158C11.7083 46.158 11.5677 46.1764 11.4062 46.1883C11.4062 46.558 11.4062 46.8856 11.4062 47.2119C11.4036 48.079 11.1628 48.3237 10.306 48.3237C7.23177 48.3237 4.15755 48.3172 1.08203 48.3316C0.623698 48.3343 0.253906 48.2356 -0.00390625 47.8382C-0.00390625 47.4448 -0.00390625 47.0501 -0.00390625 46.6567H-2.32831e-10ZM11.4297 44.5988C12.3529 44.5988 13.2292 44.6212 14.1042 44.5922C14.9974 44.5633 15.8372 44.733 16.6745 45.0462C19.444 46.0791 22.2292 47.0711 25.0013 48.0961C26.3737 48.604 27.7031 48.5816 29.0052 47.8882C35.1406 44.6212 41.276 41.3568 47.4023 38.074C47.7292 37.899 48.0339 37.5977 48.2344 37.2806C48.6432 36.6306 48.5091 35.728 48.0039 35.1833C47.4557 34.5912 46.6341 34.4333 45.8555 34.7899C41.7617 36.6675 37.6654 38.5398 33.5807 40.4371C32.7943 40.8016 32.0065 40.991 31.138 40.9818C28.4687 40.9555 25.7995 40.9713 23.1302 40.9726C22.1289 40.9726 21.8594 41.2002 21.6562 42.2042C21.569 42.6305 21.2148 42.9278 20.8333 42.8923C20.431 42.8555 20.1393 42.5291 20.1289 42.0871C20.125 41.941 20.138 41.791 20.168 41.6476C20.4453 40.2792 21.4779 39.445 22.931 39.4398C25.7461 39.4319 28.5625 39.4398 31.3776 39.4345C31.6198 39.4345 31.8685 39.4227 32.1042 39.3713C32.7604 39.2266 33.1862 38.6385 33.1497 37.9635C33.1042 37.1346 32.5052 36.6254 31.5365 36.6214C29.3555 36.6148 27.1745 36.6096 24.9935 36.624C24.2083 36.6293 23.4883 36.4425 22.7982 36.0741C21.0182 35.1228 19.2266 34.1925 17.4531 33.2281C16.8893 32.9215 16.3112 32.786 15.6797 32.7912C14.4753 32.8018 13.2708 32.7939 12.0664 32.7939H11.4297V44.5962V44.5988ZM9.83463 46.7422V30.7216H2.79688C2.39453 36.0662 1.99479 41.3884 1.59245 46.7422H9.83463Z" fill="black"/>
<path id="Vector_2" d="M18.1414 14.7378C18.1414 12.505 18.1544 10.2721 18.1323 8.0393C18.127 7.49458 18.3289 7.16696 18.7924 6.89854C22.6271 4.68018 26.4539 2.44734 30.2742 0.203981C30.7195 -0.0578544 31.0932 -0.0749592 31.5424 0.188192C35.4057 2.45261 39.2755 4.70649 43.1492 6.9538C43.5659 7.19459 43.7377 7.51695 43.7377 7.99325C43.7312 12.4918 43.7299 16.9904 43.7377 21.4876C43.7377 21.9837 43.5619 22.3126 43.1284 22.5639C39.2547 24.8086 35.3862 27.0651 31.5216 29.3269C31.1101 29.5677 30.7547 29.5664 30.3406 29.3243C26.5034 27.0783 22.6622 24.8375 18.8106 22.6139C18.3302 22.3363 18.1257 22.0008 18.131 21.435C18.1557 19.2022 18.1414 16.9693 18.1414 14.7365V14.7378ZM40.3549 22.3823C40.8757 22.0837 41.3588 21.7903 41.8588 21.5284C42.1244 21.3889 42.2065 21.21 42.2052 20.9087C42.1948 16.8062 42.1948 12.7037 42.2052 8.60113C42.2052 8.30377 42.1271 8.13404 41.864 7.98141C38.3132 5.92488 34.7716 3.85388 31.2195 1.80131C31.0763 1.71841 30.8067 1.71052 30.6661 1.79078C27.0867 3.85915 23.5138 5.94067 19.95 8.03535C19.8054 8.12088 19.6635 8.3564 19.6622 8.52218C19.6466 12.6734 19.6492 16.8259 19.6544 20.9771C19.6544 21.1087 19.6909 21.3047 19.7781 21.3613C20.3367 21.7166 20.9135 22.0416 21.5112 22.3929C21.5828 22.1916 21.6336 22.056 21.6804 21.9192C22.2377 20.2706 23.239 19.1101 24.9604 18.5732C25.9864 18.2535 26.9435 17.7062 27.8797 17.2838C27.5698 16.5864 27.3106 15.9904 27.0398 15.3983C26.9877 15.2825 26.9096 15.1707 26.8185 15.0839C26.2416 14.526 25.95 13.8181 25.8159 13.0497C25.7156 12.4747 25.7807 11.9168 26.1244 11.4011C26.2729 11.18 26.3797 10.8826 26.3836 10.6182C26.4057 8.99191 27.0411 7.7301 28.4747 6.93407C29.519 6.35382 30.6557 6.35645 31.8015 6.45908C33.9187 6.64855 35.4461 8.32482 35.4408 10.4708C35.4408 10.8576 35.4695 11.1892 35.7586 11.4971C35.9213 11.6708 36.0007 11.9642 36.032 12.2142C36.1648 13.2892 35.8002 14.2089 35.1101 15.0154C35.0164 15.1246 34.9031 15.2273 34.8432 15.3549C34.5606 15.9575 34.2937 16.568 33.9708 17.2877C34.976 17.7338 35.9812 18.2772 37.0489 18.6311C38.5333 19.1232 39.4604 20.1127 40.032 21.5192C40.1414 21.7889 40.2364 22.0652 40.3549 22.3837V22.3823ZM39.0385 23.1757C38.7729 22.5573 38.5528 21.9455 38.252 21.3758C37.9448 20.7942 37.4252 20.4456 36.8172 20.185C35.5958 19.6627 34.3914 19.0956 33.1935 18.5206C32.933 18.3956 32.7468 18.3667 32.4825 18.5167C31.4708 19.0903 30.4343 19.093 29.4187 18.5311C29.1427 18.3785 28.9513 18.3917 28.6674 18.5285C27.4708 19.1074 26.2651 19.6706 25.0398 20.1863C24.3927 20.4587 23.8823 20.8561 23.5593 21.4679C23.3406 21.8837 23.2091 22.3455 23.0177 22.7771C22.8718 23.106 22.9929 23.2652 23.2833 23.4323C25.7208 24.8375 28.1531 26.2533 30.5763 27.6835C30.8614 27.8519 31.0541 27.8217 31.3224 27.6638C33.2286 26.5401 35.1453 25.4349 37.058 24.3244C37.6896 23.9586 38.3198 23.5928 39.0372 23.1757H39.0385ZM33.9252 10.5932C34.0763 8.95638 32.851 8.0893 31.6414 7.98799C31.0333 7.93667 30.3992 7.95115 29.8015 8.0643C28.6909 8.27351 27.9461 9.2498 27.9291 10.3906C27.9252 10.7024 27.933 11.0142 27.9539 11.3247C27.9838 11.7471 27.9135 12.105 27.4903 12.3155C27.4109 12.355 27.325 12.4892 27.3289 12.576C27.3523 13.1115 27.5112 13.5878 27.9161 13.9773C28.1257 14.1786 28.2794 14.4483 28.4226 14.7062C28.7846 15.3562 29.032 16.0983 29.4981 16.6588C30.3627 17.6983 31.5841 17.6706 32.4226 16.6075C32.8549 16.0588 33.0893 15.3523 33.4187 14.7207C33.5372 14.4944 33.6179 14.1944 33.8067 14.0707C34.3185 13.7339 34.433 13.2207 34.5411 12.6918C34.5606 12.5931 34.5346 12.4089 34.476 12.3813C33.7846 12.0576 33.8705 11.4484 33.9252 10.5945V10.5932Z" fill="#EF7B10"/>
</g>
<defs>
<clipPath id="clip0_474_3225">
<rect width="50" height="50" fill="white"/>
</clipPath>
</defs>
</svg>
