<svg width="156" height="181" viewBox="0 0 156 181" fill="none" xmlns="http://www.w3.org/2000/svg">
<path d="M66.1059 177.808L11.8941 146.465C4.53211 142.209 0 134.349 0 125.838V63.1624C0 54.6508 4.53211 46.7906 11.8941 42.5349L66.1059 11.1918C73.4679 6.93605 82.5321 6.93605 89.8941 11.1918L144.106 42.5349C151.468 46.7906 156 54.6508 156 63.1624V125.838C156 134.349 151.468 142.209 144.106 146.465L89.8941 177.808C82.5321 182.064 73.4679 182.064 66.1059 177.808Z" fill="url(#paint0_linear_888_24)"/>
<path d="M68.3939 161.454L24.6116 136.455C18.6631 133.06 15 126.789 15 119.999V70.0015C15 63.2112 18.6631 56.94 24.6116 53.5449L68.3939 28.5463C74.3424 25.1512 81.6686 25.1512 87.6061 28.5463L131.388 53.5449C137.337 56.94 141 63.2112 141 70.0015V119.999C141 126.789 137.337 133.06 131.388 136.455L87.6061 161.454C81.6576 164.849 74.3314 164.849 68.3939 161.454Z" fill="url(#paint1_linear_888_24)"/>
<path d="M60 27C60 40.3079 49.4261 51 36.5 51C23.5739 51 13 40.3079 13 27C13 13.6921 23.5739 3 36.5 3C49.4261 3 60 13.6921 60 27Z" fill="#EFF2F4" stroke="white" stroke-width="6"/>
<path d="M36.3796 36.2386C35.0046 36.2386 33.783 36.0028 32.7148 35.5312C31.6523 35.054 30.8171 34.3977 30.2092 33.5625C29.6012 32.7273 29.2944 31.767 29.2887 30.6818H34.0614C34.0671 31.017 34.1694 31.3182 34.3683 31.5852C34.5728 31.8466 34.8512 32.0511 35.2035 32.1989C35.5558 32.3466 35.9592 32.4205 36.4137 32.4205C36.8512 32.4205 37.2376 32.3437 37.5728 32.1903C37.908 32.0312 38.1694 31.8125 38.3569 31.5341C38.5444 31.2557 38.6353 30.9375 38.6296 30.5795C38.6353 30.2273 38.5273 29.9148 38.3058 29.642C38.0898 29.3693 37.7859 29.1562 37.3938 29.0028C37.0018 28.8494 36.5501 28.7727 36.0387 28.7727H34.266V25.5H36.0387C36.5103 25.5 36.9251 25.4233 37.283 25.2699C37.6467 25.1165 37.9279 24.9034 38.1268 24.6307C38.3313 24.358 38.4308 24.0455 38.4251 23.6932C38.4308 23.3523 38.3484 23.0511 38.1779 22.7898C38.0075 22.5284 37.7688 22.3239 37.462 22.1761C37.1609 22.0284 36.8114 21.9545 36.4137 21.9545C35.9819 21.9545 35.5955 22.0312 35.2546 22.1847C34.9194 22.3381 34.6552 22.5511 34.462 22.8239C34.2688 23.0966 34.1694 23.4091 34.1637 23.7614H29.6296C29.6353 22.6932 29.9279 21.75 30.5075 20.9318C31.0927 20.1136 31.8938 19.4716 32.9109 19.0057C33.9279 18.5398 35.0955 18.3068 36.4137 18.3068C37.7035 18.3068 38.8427 18.5256 39.8313 18.9631C40.8256 19.4006 41.6012 20.0028 42.158 20.7699C42.7205 21.5312 42.9989 22.4034 42.9933 23.3864C43.0046 24.3636 42.6694 25.1648 41.9876 25.7898C41.3114 26.4148 40.4535 26.7841 39.4137 26.8977V27.0341C40.8228 27.1875 41.8825 27.6193 42.5927 28.3295C43.3029 29.0341 43.6523 29.9205 43.641 30.9886C43.6467 32.0114 43.3398 32.9176 42.7205 33.7074C42.1069 34.4972 41.2518 35.1165 40.1552 35.5653C39.0643 36.0142 37.8058 36.2386 36.3796 36.2386Z" fill="#003671"/>
<g clip-path="url(#clip0_888_24)">
<path d="M81.3486 88.5895C77.6066 88.5895 73.8646 88.5895 70.1226 88.593C69.8664 88.593 69.5356 88.5551 69.3711 88.6911C69.0871 88.9288 68.7287 89.2905 68.7339 89.5953C68.7374 89.9001 69.1114 90.2445 69.3954 90.4856C69.5443 90.6114 69.8508 90.5752 70.0863 90.5752C77.5703 90.5786 85.0525 90.5786 92.5365 90.5752C92.7928 90.5752 93.1201 90.6062 93.288 90.4684C93.5581 90.2463 93.8837 89.9001 93.8889 89.6004C93.8941 89.3025 93.5876 88.934 93.3192 88.7153C93.1374 88.5671 92.7841 88.5947 92.5071 88.5947C88.7876 88.5878 85.0664 88.5895 81.3469 88.5895H81.3486ZM81.2776 96.2738C85.0196 96.2738 88.7599 96.2738 92.5019 96.2738C92.6958 96.2738 92.8967 96.2928 93.0837 96.2531C93.6049 96.1412 93.9408 95.8347 93.9304 95.2767C93.9201 94.7256 93.6066 94.4087 93.0594 94.3347C92.8465 94.3054 92.6283 94.3071 92.4118 94.3071C85.0162 94.3071 77.6188 94.3071 70.2231 94.3071C69.9859 94.3071 69.7469 94.3123 69.5114 94.3433C69.011 94.4087 68.7391 94.729 68.6958 95.2043C68.6525 95.6831 68.8828 96.0465 69.3521 96.1911C69.5928 96.2652 69.8612 96.2721 70.1157 96.2721C73.8352 96.2773 77.5547 96.2755 81.2759 96.2755L81.2776 96.2738ZM76.7651 100.135C74.8413 100.135 72.9175 100.135 70.9954 100.135C70.5417 100.135 70.0863 100.121 69.6343 100.147C69.0629 100.18 68.6906 100.565 68.6837 101.086C68.6768 101.592 69.0612 102.009 69.6049 102.074C69.733 102.09 69.8646 102.083 69.9928 102.083C74.4672 102.083 78.94 102.083 83.4144 102.083C83.5651 102.083 83.7192 102.093 83.8681 102.071C84.4118 101.995 84.772 101.58 84.7356 101.051C84.6975 100.5 84.3876 100.193 83.8335 100.145C83.6395 100.128 83.4456 100.133 83.2499 100.133C81.0889 100.133 78.9278 100.133 76.7668 100.133L76.7651 100.135ZM90.6265 102.083C91.3607 102.083 92.0949 102.093 92.8291 102.079C93.5201 102.067 93.9408 101.68 93.9356 101.089C93.9304 100.521 93.5339 100.145 92.869 100.14C91.4006 100.126 89.9322 100.126 88.4655 100.14C87.8023 100.145 87.3919 100.524 87.3815 101.082C87.3711 101.656 87.8162 102.067 88.4915 102.079C89.2032 102.093 89.9166 102.083 90.6283 102.083H90.6265Z" fill="white"/>
<path d="M79.9159 132C78.8423 131.7 77.7341 131.488 76.7003 131.087C71.6094 129.117 68.5548 123.914 69.1574 118.34C69.7167 113.173 74.0094 108.728 79.2509 107.888C85.9592 106.812 92.0717 111.06 93.3739 117.703C94.6743 124.329 89.8466 130.97 83.0743 131.876C82.9289 131.895 82.7869 131.959 82.6449 132H79.9176H79.9159ZM71.0605 119.864C71.0639 125.488 75.6769 130.076 81.3254 130.068C86.9635 130.059 91.6094 125.439 91.6042 119.848C91.5973 114.234 86.9773 109.67 81.3081 109.676C75.6146 109.683 71.0587 114.21 71.0622 119.864H71.0605Z" fill="#EF7B10"/>
<path d="M57.5852 118.466V117.629C57.5852 106.307 57.5852 94.9839 57.5852 83.6625C57.5852 83.4472 57.5644 83.2285 57.5973 83.0184C57.6822 82.4742 58.0441 82.1607 58.5739 82.1693C59.0986 82.178 59.4675 82.4759 59.5229 83.039C59.5454 83.2733 59.535 83.5109 59.535 83.7468C59.535 96.2945 59.535 108.84 59.535 121.388C59.535 122.723 59.7878 122.978 61.1107 122.978C62.9497 122.978 64.7904 122.976 66.6294 122.978C67.3757 122.978 67.8294 123.35 67.8242 123.944C67.8207 124.536 67.367 124.903 66.619 124.905C64.5843 124.908 62.5497 124.915 60.5151 124.903C58.8597 124.894 57.6077 123.648 57.5835 122.008C57.5765 121.497 57.5835 120.985 57.5835 120.394C57.1125 120.394 56.683 120.358 56.2623 120.401C54.5584 120.573 52.941 119.21 53.0017 117.164C53.0882 114.245 53.0242 111.32 53.0242 108.398C53.0242 95.3352 53.0242 82.2727 53.0242 69.2101C53.0259 67.5413 53.8034 66.4409 55.2493 66.0775C55.5159 66.0103 55.8051 66.0034 56.0839 66.0034C69.5904 66 83.0952 66 96.6017 66C98.4839 66 99.7445 67.2227 99.7566 69.0896C99.7722 71.3025 99.7428 73.5155 99.7791 75.7285C99.7843 76.066 99.9644 76.4759 100.202 76.7187C101.582 78.1429 102.996 79.5344 104.418 80.9191C104.815 81.3048 105.002 81.7095 105 82.2761C104.986 95.4248 104.991 108.573 104.988 121.722C104.988 123.761 103.824 124.905 101.767 124.906C99.9055 124.906 98.0441 124.906 96.1826 124.906C95.2822 124.906 94.8614 124.603 94.851 123.956C94.8406 123.3 95.2649 122.979 96.1497 122.979C98.032 122.979 99.9159 122.985 101.798 122.976C102.676 122.972 103.035 122.623 103.035 121.774C103.036 108.947 103.035 96.1223 103.035 83.2956C103.035 83.1906 103.024 83.0838 103.012 82.884C102.777 82.884 102.548 82.884 102.321 82.884C99.5073 82.884 96.6934 82.884 93.8796 82.884C92.7921 82.884 92.5168 82.6051 92.5168 81.5029C92.5168 78.5166 92.5168 75.5321 92.5168 72.4426C92.2675 72.4426 92.0406 72.4426 91.8138 72.4426C81.5333 72.4426 71.251 72.4426 60.9705 72.4426C59.8415 72.4426 59.535 72.7423 59.5333 73.8427C59.5315 75.3685 59.5367 76.8927 59.5315 78.4185C59.5281 79.1711 59.1627 79.6171 58.5688 79.6223C57.9765 79.6274 57.5869 79.1659 57.5835 78.4323C57.5783 76.7773 57.5748 75.124 57.5835 73.469C57.5939 71.7468 58.8406 70.5155 60.5826 70.5155C71.4692 70.5121 82.3575 70.5086 93.2441 70.5327C93.625 70.5327 94.0926 70.7359 94.3731 70.9977C95.4761 72.0241 96.5185 73.1125 97.6614 74.256C97.7081 74.0218 97.7549 73.8909 97.7566 73.76C97.7618 72.2342 97.767 70.7084 97.7566 69.1843C97.7514 68.2801 97.4034 67.934 96.5012 67.9323C83.0813 67.9288 69.6614 67.9305 56.2432 67.9323C55.3047 67.9323 54.9739 68.275 54.9739 69.2273C54.9739 85.2124 54.9739 101.196 54.9739 117.181C54.9739 118.123 55.3116 118.457 56.2571 118.467C56.6657 118.471 57.0761 118.467 57.5817 118.467L57.5852 118.466ZM101.44 80.9242C99.1263 78.632 96.8112 76.3398 94.5099 74.0614V80.9242H101.44Z" fill="black"/>
<path d="M81.3513 88.5895C85.0708 88.5895 88.792 88.5878 92.5115 88.5947C92.7885 88.5947 93.14 88.5671 93.3236 88.7153C93.592 88.934 93.8985 89.3025 93.8933 89.6004C93.8881 89.9001 93.5626 90.2463 93.2924 90.4684C93.1245 90.6062 92.7972 90.5752 92.5409 90.5752C85.0569 90.5804 77.5747 90.5804 70.0907 90.5752C69.8552 90.5752 69.5487 90.6114 69.3998 90.4856C69.1158 90.2445 68.7418 89.9018 68.7383 89.5953C68.7348 89.2905 69.0916 88.9271 69.3755 88.6911C69.5383 88.5551 69.8708 88.593 70.1271 88.593C73.869 88.5878 77.611 88.5895 81.353 88.5895H81.3513Z" fill="black"/>
<path d="M81.2806 96.2739C77.5611 96.2739 73.8416 96.2739 70.1204 96.2704C69.8641 96.2704 69.5957 96.2635 69.3568 96.1895C68.8858 96.0448 68.6572 95.6815 68.7005 95.2027C68.7438 94.7274 69.0139 94.4071 69.5161 94.3416C69.7516 94.3106 69.9905 94.3055 70.2278 94.3055C77.6234 94.3037 85.0208 94.3055 92.4165 94.3055C92.633 94.3055 92.8511 94.3055 93.0641 94.333C93.6113 94.4071 93.9247 94.7239 93.9351 95.275C93.9455 95.833 93.6096 96.1413 93.0884 96.2515C92.9014 96.2911 92.7005 96.2722 92.5066 96.2722C88.7646 96.2722 85.0243 96.2722 81.2823 96.2722L81.2806 96.2739Z" fill="black"/>
<path d="M76.7668 100.135C78.9278 100.135 81.0889 100.135 83.2499 100.135C83.4439 100.135 83.6395 100.13 83.8335 100.147C84.3893 100.195 84.6993 100.502 84.7356 101.053C84.772 101.58 84.4118 101.995 83.8681 102.072C83.7192 102.093 83.5668 102.083 83.4144 102.084C78.94 102.084 74.4672 102.084 69.9928 102.084C69.8629 102.084 69.7313 102.091 69.6049 102.076C69.0612 102.01 68.6768 101.594 68.6837 101.087C68.6906 100.565 69.0612 100.181 69.6343 100.149C70.0863 100.123 70.5417 100.137 70.9954 100.137C72.9192 100.137 74.843 100.137 76.7651 100.137L76.7668 100.135Z" fill="black"/>
<path d="M90.6259 102.083C89.9142 102.083 89.2008 102.093 88.4891 102.079C87.8138 102.067 87.367 101.654 87.3791 101.082C87.3895 100.524 87.7999 100.147 88.4631 100.14C89.9315 100.126 91.3999 100.126 92.8666 100.14C93.5315 100.147 93.9298 100.522 93.9333 101.089C93.9385 101.678 93.5177 102.067 92.8268 102.079C92.0926 102.091 91.3584 102.083 90.6242 102.083H90.6259Z" fill="black"/>
<path d="M80.1395 116.49C79.4071 117.245 78.6815 118.006 77.9387 118.748C77.3603 119.327 76.8079 119.373 76.3594 118.92C75.9109 118.466 75.975 117.944 76.5672 117.353C77.8642 116.06 79.1612 114.768 80.4651 113.483C81.0729 112.884 81.5404 112.869 82.143 113.457C83.4832 114.768 84.8114 116.089 86.1343 117.417C86.6521 117.937 86.6815 118.533 86.2486 118.944C85.8001 119.37 85.272 119.316 84.7161 118.774C83.9612 118.038 83.2114 117.296 82.4599 116.557C82.4477 116.545 82.4183 116.547 82.2954 116.521V117.203C82.2954 119.843 82.2954 122.482 82.2954 125.122C82.2954 125.335 82.2954 125.55 82.278 125.764C82.2348 126.325 81.8832 126.637 81.3568 126.666C80.8183 126.697 80.4703 126.369 80.3473 125.848C80.304 125.664 80.3231 125.464 80.3231 125.271C80.3231 122.611 80.3231 119.95 80.3231 117.289V116.597L80.1413 116.492L80.1395 116.49Z" fill="#EF7B10"/>
</g>
<defs>
<linearGradient id="paint0_linear_888_24" x1="18.4212" y1="154.152" x2="137.735" y2="35.005" gradientUnits="userSpaceOnUse">
<stop stop-color="#ECEFF1"/>
<stop offset="1" stop-color="white"/>
</linearGradient>
<linearGradient id="paint1_linear_888_24" x1="29.8821" y1="142.586" x2="125.048" y2="46.3559" gradientUnits="userSpaceOnUse">
<stop stop-color="white"/>
<stop offset="1" stop-color="#ECEFF1"/>
</linearGradient>
<clipPath id="clip0_888_24">
<rect width="52" height="66" fill="white" transform="translate(53 66)"/>
</clipPath>
</defs>
</svg>
