<svg width="161" height="160" viewBox="0 0 161 160" fill="none" xmlns="http://www.w3.org/2000/svg">
<ellipse cx="80.5" cy="80" rx="80.5" ry="80" fill="url(#paint0_linear_599_297)"/>
<ellipse cx="80.5004" cy="80" rx="61.3812" ry="61" fill="url(#paint1_linear_599_297)"/>
<g clip-path="url(#clip0_599_297)">
<path d="M58.028 85.5041C58.028 79.3215 58.028 73.1363 58.028 66.9537C58.028 66.7732 58.0154 66.5903 58.0356 66.4123C58.0884 65.9129 58.4734 65.5817 58.9867 65.5742C59.5252 65.5668 59.9328 65.9129 59.9806 66.4345C59.9982 66.6348 59.9857 66.835 59.9857 67.0377C59.9857 79.2448 59.9857 91.4519 59.9857 103.659C59.9857 105.335 60.7078 106.052 62.3987 106.052C73.2312 106.052 84.0636 106.052 94.896 106.052C96.5416 106.052 97.2764 105.323 97.2764 103.689C97.2764 100.517 97.2738 97.3453 97.2789 94.1712C97.2789 93.3307 97.9482 92.8165 98.6301 93.1848C98.9094 93.3356 99.2038 93.7559 99.2088 94.0575C99.2491 97.511 99.2592 100.964 99.2189 104.418C99.1988 106.242 97.4726 107.886 95.6156 107.97C95.4118 107.98 95.208 107.975 95.0017 107.975C84.0862 107.975 73.1733 107.943 62.2578 108C59.8875 108.012 57.9702 106.208 58.0004 103.815C58.0784 97.7112 58.0255 91.6077 58.0255 85.5041H58.028Z" fill="black"/>
<path d="M90.3472 79.0619C92.1463 79.0619 93.9429 79.0545 95.742 79.0693C96.0867 79.0718 96.2754 78.9729 96.4516 78.6639C98.3614 75.3414 102.181 73.6307 105.918 74.3996C109.687 75.1733 112.54 78.2708 112.951 82.0308C113.464 86.7377 110.017 90.9501 105.198 91.4742C101.328 91.8944 98.4117 90.4211 96.4138 87.1431C96.3006 86.9577 95.9861 86.797 95.7596 86.7871C94.7179 86.75 93.6711 86.7105 92.6344 86.7871C91.5902 86.8638 90.6969 86.6091 89.932 85.9318C89.5168 85.5659 89.1394 85.5214 88.7292 85.9219C87.4862 87.1258 85.9186 86.7426 84.4365 86.7402C84.2327 86.7402 83.9987 86.5374 83.8301 86.3743C82.9243 85.5041 82.0285 84.6241 81.1377 83.7391C80.5464 83.1507 80.554 82.6761 81.1553 82.0778C82.031 81.2076 82.8966 80.3226 83.81 79.4945C84.0666 79.2621 84.4818 79.0916 84.8291 79.0841C86.6659 79.0446 88.5078 79.0644 90.3447 79.0644L90.3472 79.0619ZM83.0249 82.9282C83.4778 83.3361 83.888 83.6229 84.1874 83.9937C84.7435 84.6859 85.4153 85.0097 86.3011 84.8391C86.608 84.7798 86.9351 84.713 87.2019 84.5623C87.7152 84.2755 88.1933 83.9294 88.6864 83.6031C89.1041 83.3262 89.5193 83.3163 89.9421 83.5957C90.4 83.8973 90.8404 84.231 91.3285 84.4782C91.6883 84.6611 92.1085 84.8144 92.5061 84.8268C93.8749 84.8688 95.2463 84.8638 96.6151 84.8342C97.2593 84.8194 97.6493 85.0616 97.8934 85.6376C99.0056 88.2531 102.025 90.0033 105.055 89.5756C108.95 89.0268 111.519 85.7513 110.842 81.712C110.306 78.5131 108.049 76.5626 104.556 76.2091C102.141 75.9644 99.2295 77.2474 97.916 80.1422C97.6342 80.7627 97.2341 81 96.5472 80.995C92.8886 80.9728 89.23 80.9802 85.5688 80.9926C85.3424 80.9926 85.0605 81.0371 84.9045 81.173C84.2931 81.7021 83.7194 82.2731 83.0274 82.9282H83.0249Z" fill="#EF7B10"/>
<path d="M89.4311 57.3126C89.4311 58.9244 89.3883 60.3854 89.4462 61.8439C89.4864 62.8698 90.3344 63.5892 91.4013 63.6361C91.7687 63.6535 92.1411 63.609 92.5034 63.6535C93.0092 63.7153 93.3061 64.0317 93.3413 64.5385C93.3766 65.0477 93.1149 65.4605 92.6292 65.5199C91.1019 65.7028 89.6399 65.552 88.5152 64.3407C87.8282 63.6015 87.4634 62.7338 87.4659 61.7203C87.4709 59.8539 87.4659 57.9875 87.4609 56.121C87.4609 56.084 87.4433 56.0444 87.4105 55.9257H86.784C78.6314 55.9257 70.4762 55.9257 62.3236 55.9257C60.7585 55.9257 59.9886 56.6797 59.986 58.2099C59.986 59.3347 59.9911 60.4571 59.986 61.5819C59.981 62.2567 59.6212 62.6572 59.0324 62.6696C58.4159 62.6819 58.036 62.274 58.0334 61.567C58.0284 60.2618 58.0158 58.9565 58.0385 57.6537C58.0687 55.7354 59.7822 54.0148 61.7323 54.0099C70.5995 53.9926 79.4693 54 88.339 54.0173C88.646 54.0173 89.0285 54.1829 89.2474 54.398C92.4581 57.5178 95.6512 60.6548 98.8267 63.8092C99.0557 64.0366 99.2142 64.4371 99.2168 64.7609C99.2495 67.0501 99.2369 69.3368 99.2319 71.6259C99.2319 72.3428 98.8645 72.7581 98.2556 72.7581C97.6466 72.7581 97.2767 72.3428 97.2767 71.6308C97.2717 69.584 97.2818 67.5346 97.2667 65.4877C97.2667 65.2677 97.2163 64.9834 97.0729 64.84C94.5743 62.3581 92.0555 59.8934 89.4286 57.3126H89.4311Z" fill="black"/>
<path d="M73.2339 97.3725C70.1666 97.3725 67.1018 97.3775 64.0345 97.3701C63.1563 97.3701 62.6103 96.5642 63.0959 95.9264C63.2972 95.6619 63.7728 95.4715 64.1251 95.4691C68.8481 95.4394 73.5685 95.4493 78.2915 95.4493C79.6201 95.4493 80.9487 95.4493 82.2772 95.4493C83.1126 95.4493 83.5404 95.783 83.5303 96.4257C83.5228 97.0586 83.0975 97.3725 82.2471 97.3725C79.2427 97.3725 76.2358 97.3725 73.2314 97.3725H73.2339Z" fill="black"/>
<path d="M69.2457 70.3824C67.5321 70.3824 65.8186 70.3824 64.105 70.3824C63.3552 70.3824 62.9551 70.0561 62.94 69.4505C62.9224 68.8201 63.3401 68.4616 64.11 68.4616C67.5774 68.4616 71.0448 68.4616 74.5122 68.4616C75.262 68.4616 75.6621 68.788 75.6772 69.3936C75.6923 70.024 75.2771 70.3824 74.5071 70.3824C72.7533 70.3849 70.9995 70.3824 69.2457 70.3824Z" fill="black"/>
<path d="M69.3034 77.1312C67.5697 77.1312 65.836 77.1312 64.1024 77.1312C63.355 77.1312 62.9549 76.8024 62.9399 76.1968C62.9248 75.5664 63.3399 75.2129 64.1124 75.2104C67.5798 75.2104 71.0472 75.2104 74.5146 75.2104C75.2619 75.2104 75.6645 75.5392 75.6771 76.1448C75.6922 76.7752 75.2745 77.1287 74.5045 77.1312C72.7708 77.1337 71.0371 77.1312 69.3034 77.1312Z" fill="black"/>
<path d="M69.2905 83.8775C67.5569 83.8775 65.8232 83.88 64.0895 83.8775C63.3497 83.8775 62.9471 83.5363 62.9396 82.9282C62.932 82.3176 63.3396 81.9567 64.0643 81.9567C67.5518 81.9542 71.0393 81.9542 74.5294 81.9567C75.2691 81.9567 75.6743 82.2978 75.6793 82.9035C75.6868 83.5339 75.2742 83.8775 74.4941 83.8775C72.7604 83.88 71.0268 83.8775 69.2931 83.8775H69.2905Z" fill="black"/>
<path d="M69.3088 90.6238C67.5751 90.6238 65.8414 90.6238 64.1077 90.6238C63.3377 90.6238 62.92 90.2629 62.9401 89.6325C62.9578 89.0268 63.3578 88.703 64.1077 88.703C67.5751 88.703 71.0424 88.703 74.5098 88.703C75.2597 88.703 75.6623 89.0293 75.6774 89.6325C75.695 90.2629 75.2773 90.6238 74.5098 90.6238C72.7761 90.6263 71.0424 90.6238 69.3088 90.6238Z" fill="black"/>
<path d="M104.103 83.8775C103.471 83.8775 102.84 83.8874 102.21 83.875C101.586 83.8602 101.204 83.477 101.209 82.9084C101.214 82.3399 101.599 81.9641 102.231 81.9592C103.514 81.9493 104.795 81.9468 106.078 81.9592C106.702 81.9641 107.087 82.3547 107.082 82.9257C107.077 83.4943 106.692 83.8651 106.06 83.875C105.409 83.8874 104.757 83.8775 104.105 83.8775H104.103Z" fill="#EF7B10"/>
</g>
<defs>
<linearGradient id="paint0_linear_599_297" x1="130.923" y1="21.0989" x2="34.376" y2="147.395" gradientUnits="userSpaceOnUse">
<stop stop-color="#FBFBFB"/>
<stop offset="1" stop-color="#EFF1F3"/>
</linearGradient>
<linearGradient id="paint1_linear_599_297" x1="118.948" y1="35.0879" x2="45.3308" y2="131.388" gradientUnits="userSpaceOnUse">
<stop stop-color="#EEF0F2"/>
<stop offset="1" stop-color="#FDFEFE"/>
</linearGradient>
<clipPath id="clip0_599_297">
<rect width="55" height="54" fill="white" transform="translate(58 54)"/>
</clipPath>
</defs>
</svg>
