<svg width="160" height="160" viewBox="0 0 160 160" fill="none" xmlns="http://www.w3.org/2000/svg">
<circle cx="80" cy="80" r="80" fill="url(#paint0_linear_888_16)"/>
<circle cx="80" cy="80" r="61" fill="url(#paint1_linear_888_16)"/>
<g clip-path="url(#clip0_888_16)">
<path d="M105.378 47C105.968 47.2935 106.165 47.7565 106.163 48.4256C106.14 53.7103 106.151 58.9933 106.151 64.278C106.151 64.5366 106.151 64.7969 106.151 65.052C114.399 65.7647 118.253 73.1354 117.986 78.3416C117.665 84.6134 113.042 89.9767 106.265 90.714C106.265 91.6801 106.244 92.6566 106.274 93.6315C106.291 94.2097 106.088 94.6238 105.64 94.9802C104.996 95.4921 104.389 96.0511 103.763 96.5927C104.421 97.2793 105.033 97.9536 105.687 98.5825C106.092 98.9721 106.277 99.3914 106.274 99.9627C106.257 104.199 106.265 108.436 106.264 112.671C106.264 113.72 106 113.988 104.961 113.988C92.1781 113.988 79.3948 113.988 66.6097 113.996C66.0697 113.996 65.6583 113.846 65.2833 113.455C64.8024 112.952 64.278 112.494 63.7225 111.97C63.4047 112.438 63.087 112.875 62.804 113.333C62.5106 113.804 62.1183 114.002 61.5592 113.995C59.8456 113.974 58.1303 113.99 56.415 113.986C55.3368 113.986 55.0729 113.722 55.0729 112.637C55.0729 105.038 55.0729 97.44 55.0729 89.8404C55.0729 84.4037 55.0955 78.9652 55.0521 73.5285C55.0434 72.5449 55.2587 71.8374 56.1702 71.4059C56.4184 71.2888 56.6285 71.0914 56.9705 70.8486C55.6146 70.4048 55 69.6781 55 68.1617C55 66.668 55.7483 66.0146 56.9757 65.3839C56.5105 65.1376 56.2049 64.9454 55.875 64.8091C55.2708 64.5593 55.0608 64.1313 55.0642 63.4779C55.0851 59.3287 55.0747 55.1796 55.0747 51.0321C55.0747 50.1376 55.1024 49.2397 55.0642 48.347C55.0382 47.7407 55.1979 47.283 55.75 47C60.0922 47 64.4343 47 68.7764 47C69.4032 47.6551 70.0299 48.312 70.6289 48.9392C71.3112 48.2945 71.997 47.6464 72.6845 47C75.7662 47 78.8496 47 81.933 47C82.7195 47.8683 83.506 48.7365 84.2473 49.5541C85.1206 48.7068 86.0009 47.8525 86.8828 47C93.0479 47 99.213 47 105.378 47ZM56.8664 112.265C57.6615 112.265 58.3907 112.167 59.0817 112.284C60.7779 112.574 61.9533 111.998 62.6217 110.394C62.6304 110.375 62.646 110.357 62.6582 110.34C63.1582 109.627 63.6391 109.556 64.2763 110.13C64.8909 110.684 65.5003 111.245 66.0802 111.834C66.3944 112.153 66.7225 112.274 67.1705 112.274C79.3271 112.263 91.4836 112.265 103.64 112.265C103.868 112.265 104.095 112.265 104.347 112.265C104.347 108.209 104.352 104.257 104.335 100.305C104.335 100.101 104.191 99.8561 104.041 99.7006C103.319 98.9442 102.569 98.2174 101.836 97.4714C101.213 96.8373 101.223 96.3498 101.868 95.7471C102.583 95.078 103.312 94.4246 104.02 93.7485C104.165 93.6105 104.326 93.4026 104.331 93.2209C104.362 92.3317 104.345 91.4407 104.345 90.5375C104.175 90.5165 104.071 90.5043 103.967 90.4903C100.159 89.982 97.0845 88.221 94.857 85.0484C94.6001 84.6815 94.3431 84.5435 93.9056 84.547C90.4315 84.5627 86.9592 84.5575 83.4852 84.554C83.2265 84.554 82.9591 84.5505 82.7108 84.4893C82.2455 84.374 82.032 84.0351 82.0719 83.5616C82.1101 83.1179 82.3584 82.8384 82.8063 82.779C83.0199 82.751 83.2386 82.7563 83.4556 82.7563C86.5599 82.7563 89.6641 82.7563 92.7684 82.7563C92.9993 82.7563 93.232 82.7563 93.4455 82.7563C93.1313 81.3953 92.8292 80.0903 92.5114 78.7154C91.2753 78.7154 89.9767 78.7154 88.678 78.7154C86.7891 78.7154 84.9001 78.7154 83.0129 78.7154C82.4487 78.7154 82.098 78.4359 82.0737 77.8594C82.0494 77.2724 82.4122 76.9963 82.9487 76.9195C83.1188 76.895 83.2959 76.9107 83.4695 76.909C86.27 76.909 89.0704 76.909 91.8708 76.909H92.4958C92.8222 75.5446 93.1278 74.2605 93.4472 72.9275C93.2389 72.9275 93.0045 72.9275 92.7719 72.9275C89.6885 72.9275 86.6068 72.9293 83.5234 72.924C83.2438 72.924 82.9539 72.924 82.6883 72.8472C82.2351 72.7179 82.0146 72.3737 82.0737 71.9003C82.1327 71.4303 82.4174 71.1613 82.8931 71.1246C83.065 71.1106 83.2404 71.1194 83.414 71.1194C86.9089 71.1194 90.4038 71.1141 93.8986 71.1264C94.2841 71.1264 94.5184 71.018 94.7441 70.6844C96.5897 67.98 99.1054 66.2364 102.276 65.4678C102.939 65.307 103.616 65.2005 104.255 65.0764V48.9968C104.137 48.9794 104.073 48.9602 104.008 48.9602C98.6245 48.9584 93.2406 48.9532 87.8568 48.9689C87.6346 48.9689 87.3603 49.1087 87.2005 49.2729C86.4592 50.0398 85.7491 50.8365 85.0286 51.6244C84.4418 52.2638 83.9609 52.2638 83.4157 51.5964C82.8098 50.8539 82.2421 50.08 81.6188 49.3532C81.4486 49.1558 81.1344 48.9759 80.8844 48.9741C78.4746 48.9462 76.0648 48.9497 73.655 48.9706C73.4293 48.9724 73.1533 49.0982 72.9918 49.2589C72.4067 49.8424 71.8633 50.4696 71.2973 51.0723C70.7852 51.6174 70.3042 51.6086 69.8146 51.0304C69.365 50.4993 68.9205 49.9595 68.5091 49.3969C68.266 49.065 67.9969 48.9444 67.5819 48.9462C64.2173 48.9637 60.8526 48.9567 57.4879 48.9584C57.2987 48.9584 57.1094 48.9794 56.9115 48.9916C56.8924 49.1156 56.8664 49.1995 56.8664 49.2834C56.8629 53.8256 56.8577 58.3696 56.8768 62.9119C56.8768 63.1128 57.0678 63.3836 57.2466 63.5006C57.8091 63.8675 58.4237 64.1523 58.9932 64.5104C59.7224 64.9699 59.7362 65.7176 59.0348 66.2085C58.4289 66.6313 57.8004 67.0209 57.1928 67.4401C56.6737 67.7983 56.7066 68.7539 57.2466 69.0701C57.7709 69.3776 58.3091 69.6624 58.8352 69.9663C59.7588 70.5027 59.7935 71.2469 58.9237 71.8409C58.4567 72.1588 58.0001 72.496 57.507 72.7703C57.0174 73.0428 56.8438 73.3853 56.8455 73.9688C56.8664 86.4617 56.8612 98.9529 56.8612 111.446C56.8612 111.685 56.8612 111.925 56.8612 112.265H56.8664ZM116.113 77.8664C116.097 71.7972 111.238 66.9073 105.232 66.9178C99.2668 66.9283 94.3778 71.8898 94.3865 77.9275C94.3952 83.9739 99.2668 88.8289 105.31 88.8149C111.285 88.801 116.128 83.8936 116.113 77.8681V77.8664Z" fill="black"/>
<path d="M80.63 54.9839C74.2913 54.9839 67.9526 54.9839 61.6122 54.9804C61.3361 54.9804 60.9767 55.0101 60.8048 54.8563C60.5635 54.6432 60.3083 54.2519 60.343 53.9706C60.3778 53.6876 60.7233 53.3958 60.9993 53.2089C61.1677 53.0953 61.4629 53.1687 61.7007 53.1687C74.3139 53.1687 86.9271 53.1687 99.5386 53.1687C99.6479 53.1687 99.7556 53.1687 99.865 53.1687C100.573 53.1827 100.966 53.5146 100.96 54.0929C100.955 54.6746 100.58 54.9804 99.8406 54.9804C93.436 54.9839 87.033 54.9804 80.6283 54.9804L80.63 54.9839Z" fill="#EF7B10"/>
<path d="M80.6204 59.1628C86.9122 59.1628 93.2023 59.1628 99.4942 59.1628C99.7546 59.1628 100.069 59.0894 100.262 59.2082C100.541 59.3794 100.834 59.6589 100.935 59.9577C101.074 60.3682 100.829 60.7334 100.406 60.8749C100.166 60.9552 99.8935 60.9622 99.6365 60.9622C86.9678 60.9657 74.2973 60.9657 61.6285 60.964C60.632 60.964 60.2292 60.6582 60.2986 59.9682C60.3438 59.5209 60.5834 59.2432 61.0313 59.1872C61.2674 59.1575 61.507 59.1645 61.7466 59.1645C68.0384 59.1645 74.3285 59.1645 80.6204 59.1645V59.1628Z" fill="#EF7B10"/>
<path d="M78.0311 66.9178C72.4979 66.9178 66.9665 66.9178 61.4334 66.9178C60.6695 66.9178 60.3309 66.6872 60.2927 66.1456C60.2545 65.6058 60.515 65.2703 61.0254 65.1428C61.2112 65.0974 61.4126 65.1131 61.6087 65.1131C72.5431 65.1131 83.4774 65.1131 94.4117 65.1149C94.6687 65.1149 94.9378 65.1253 95.1774 65.2039C95.634 65.3524 95.8076 65.7141 95.7399 66.1823C95.6739 66.6313 95.3927 66.8706 94.9517 66.9143C94.759 66.9335 94.5611 66.9213 94.3666 66.9213C88.9203 66.9213 83.4757 66.9213 78.0293 66.9213L78.0311 66.9178Z" fill="#EF7B10"/>
<path d="M69.6864 96.397C66.9953 96.397 64.3025 96.397 61.6115 96.397C61.3945 96.397 61.1688 96.418 60.9656 96.3603C60.5195 96.2363 60.1948 95.9061 60.3233 95.4519C60.4135 95.1322 60.7295 94.8509 61.0021 94.6186C61.1184 94.519 61.3789 94.5836 61.5733 94.5836C67.0005 94.5836 72.426 94.5836 77.8533 94.5836C78.0269 94.5836 78.2057 94.5661 78.3724 94.5993C78.8602 94.6954 79.1589 95.0099 79.1484 95.5043C79.138 95.9935 78.8429 96.3097 78.3463 96.3865C78.1554 96.4162 77.9557 96.3988 77.7613 96.3988C75.0702 96.3988 72.3774 96.3988 69.6864 96.3988V96.397Z" fill="black"/>
<path d="M91.494 94.5819C94.2493 94.5819 97.0028 94.5819 99.7581 94.5819C100.567 94.5819 100.947 94.8702 100.939 95.4624C100.93 96.0599 100.524 96.3953 99.7772 96.3953C94.2458 96.3971 88.7162 96.3988 83.1848 96.3953C82.4643 96.3953 82.0736 96.0704 82.0684 95.4991C82.0632 94.9191 82.4504 94.5872 83.1657 94.5854C85.9418 94.5802 88.7179 94.5837 91.494 94.5837V94.5819Z" fill="black"/>
<path d="M91.4592 102.197C88.7907 102.197 86.1223 102.197 83.452 102.197C83.235 102.197 83.0145 102.209 82.8027 102.171C82.3392 102.085 82.0058 101.769 82.0944 101.317C82.1569 100.999 82.4624 100.689 82.735 100.469C82.8878 100.345 83.1934 100.398 83.4312 100.398C88.8116 100.394 94.1937 100.396 99.574 100.398C99.7685 100.398 99.9664 100.394 100.157 100.424C100.663 100.504 100.935 100.834 100.921 101.327C100.909 101.818 100.628 102.138 100.112 102.183C99.8969 102.202 99.6782 102.199 99.4612 102.199C96.7927 102.199 94.1242 102.199 91.454 102.199L91.4592 102.197Z" fill="black"/>
<path d="M91.5076 108.067C88.7506 108.067 85.9953 108.067 83.2383 108.067C82.4657 108.067 82.0647 107.753 82.0664 107.164C82.0699 106.584 82.4796 106.262 83.2539 106.262C88.7663 106.259 94.2786 106.259 99.7909 106.262C100.522 106.262 100.959 106.64 100.935 107.215C100.911 107.761 100.501 108.067 99.7752 108.067C97.0182 108.069 94.2629 108.067 91.5059 108.067H91.5076Z" fill="black"/>
<path d="M69.7536 71.1159C72.488 71.1159 75.2225 71.1159 77.9569 71.1159C78.7226 71.1159 79.1566 71.4356 79.1601 71.9946C79.1653 72.5624 78.7243 72.9206 77.9778 72.9206C72.4655 72.9241 66.9531 72.9241 61.4408 72.9206C60.6787 72.9206 60.2811 72.5816 60.2932 71.9824C60.3054 71.3919 60.6578 71.1159 61.4183 71.1159C64.1961 71.1141 66.974 71.1159 69.7518 71.1159H69.7536Z" fill="black"/>
<path d="M69.7487 90.5061C66.95 90.5061 64.1531 90.5095 61.3544 90.5043C60.6113 90.5043 60.1807 90.0606 60.3127 89.4316C60.4342 88.8551 60.8648 88.6996 61.3874 88.6979C62.7329 88.6979 64.0767 88.6979 65.4222 88.6979C69.5004 88.6979 73.577 88.6979 77.6552 88.6979C77.8288 88.6979 78.0024 88.6892 78.176 88.7031C78.7542 88.7486 79.1709 89.1486 79.1622 89.6378C79.1535 90.1374 78.742 90.5026 78.143 90.5043C75.3444 90.5095 72.5474 90.5061 69.7487 90.5061Z" fill="black"/>
<path d="M69.7154 108.067C66.9601 108.067 64.2066 108.067 61.4513 108.067C60.67 108.067 60.2881 107.76 60.295 107.155C60.302 106.584 60.6874 106.264 61.42 106.262C66.9514 106.259 72.4811 106.257 78.0125 106.262C78.7018 106.262 79.1445 106.629 79.1584 107.166C79.174 107.725 78.7313 108.065 77.9778 108.065C75.2225 108.065 72.469 108.065 69.7137 108.065L69.7154 108.067Z" fill="black"/>
<path d="M69.7067 76.9859C72.4619 76.9859 75.2172 76.9789 77.9725 76.9964C78.2763 76.9981 78.6444 77.0732 78.8684 77.2549C79.3875 77.6777 79.1791 78.5163 78.5333 78.7102C78.2902 78.7836 78.0194 78.7853 77.7607 78.7853C72.4012 78.7888 67.0434 78.7888 61.6839 78.7871C61.4894 78.7871 61.2915 78.7923 61.1005 78.7626C60.5797 78.6822 60.2724 78.387 60.2984 77.8349C60.3245 77.2846 60.6439 77.0033 61.1804 76.9946C61.8957 76.9824 62.6127 76.9859 63.328 76.9859C65.4548 76.9859 67.5799 76.9859 69.7067 76.9859Z" fill="black"/>
<path d="M69.6846 84.6361C66.9294 84.6361 64.1741 84.6326 61.4188 84.6378C60.8736 84.6378 60.4031 84.533 60.3111 83.8918C60.2347 83.3625 60.4656 82.9956 61.0004 82.8821C61.2313 82.8331 61.4744 82.8366 61.7122 82.8366C67.0492 82.8349 72.3861 82.8349 77.7231 82.8366C78.7092 82.8366 79.1797 83.1406 79.1658 83.7626C79.1519 84.3635 78.7127 84.6378 77.7561 84.6378C75.065 84.6378 72.3757 84.6378 69.6846 84.6378V84.6361Z" fill="black"/>
<path d="M69.6868 102.197C67.0409 102.197 64.3968 102.197 61.7509 102.197C61.5338 102.197 61.3151 102.206 61.1015 102.181C60.5981 102.124 60.3151 101.829 60.2994 101.32C60.2838 100.805 60.5703 100.508 61.0633 100.426C61.2752 100.391 61.4956 100.394 61.7109 100.394C67.0444 100.394 72.3796 100.394 77.7131 100.394C77.9076 100.394 78.1055 100.389 78.2965 100.415C78.819 100.485 79.1229 100.803 79.1541 101.324C79.1836 101.801 78.7687 102.178 78.2079 102.187C77.0586 102.204 75.9092 102.195 74.7599 102.195C73.0689 102.195 71.3779 102.195 69.6868 102.195V102.197Z" fill="black"/>
<path d="M88.8836 88.78C90.7065 88.78 92.5312 88.78 94.3542 88.78C94.5487 88.78 94.7466 88.773 94.9393 88.794C95.4445 88.8481 95.731 89.1399 95.7501 89.6483C95.7692 90.1654 95.4844 90.4606 94.9896 90.548C94.7987 90.5812 94.6007 90.5794 94.4063 90.5794C90.7378 90.5794 87.0693 90.5794 83.4008 90.5794C83.2914 90.5794 83.1838 90.5829 83.0744 90.5759C82.4042 90.5305 82.0448 90.1898 82.0674 89.629C82.0882 89.0822 82.4216 88.787 83.0865 88.7835C85.0189 88.773 86.9512 88.78 88.8818 88.78H88.8836Z" fill="black"/>
<path d="M99.863 76.3569C100.707 76.17 101.153 76.3237 101.323 76.8076C101.512 77.3457 101.29 77.7685 100.613 78.1616C100.426 78.2699 100.245 78.3974 100.049 78.4848C99.547 78.7049 98.9515 79.1818 98.547 79.056C97.7258 78.801 96.974 78.2629 96.2605 77.7458C95.8976 77.482 95.8994 76.9369 96.2396 76.6382C96.4862 76.4233 96.9115 76.3831 97.2657 76.3429C97.4254 76.3237 97.606 76.4932 97.8143 76.5945C97.9341 76.1752 98.0296 75.7751 98.1616 75.3873C99.4047 71.7657 103.143 69.6693 106.879 70.4922C110.575 71.3063 113.119 74.7671 112.789 78.5372C112.469 82.1885 109.356 85.2178 105.731 85.368C105.389 85.382 104.955 85.3034 104.721 85.092C104.521 84.9121 104.445 84.4578 104.502 84.1608C104.592 83.6926 105.019 83.5861 105.467 83.5669C107.365 83.4813 108.91 82.6829 109.969 81.0948C111.287 79.1207 111.346 77.0278 110.172 74.982C109.03 72.9904 107.203 72.0383 104.95 72.1972C102.596 72.3632 100.898 73.6053 100.002 75.8555C99.9481 75.9918 99.922 76.1403 99.863 76.3586V76.3569Z" fill="#EF7B10"/>
<path d="M105.358 74.112C105.53 74.2256 105.829 74.3426 106.001 74.561C106.16 74.7654 106.284 75.0886 106.252 75.3384C106.063 76.8269 106.422 78.0446 107.683 78.9757C108.181 79.3426 108.127 79.9803 107.733 80.3541C107.341 80.7262 106.858 80.7088 106.395 80.3C106.346 80.2563 106.301 80.2091 106.256 80.1619C104.159 78.1162 104.131 78.0358 104.349 75.0851C104.391 74.5208 104.692 74.2186 105.36 74.1085L105.358 74.112Z" fill="#EF7B10"/>
</g>
<defs>
<linearGradient id="paint0_linear_888_16" x1="130.11" y1="21.0989" x2="33.4066" y2="146.813" gradientUnits="userSpaceOnUse">
<stop stop-color="#FBFBFB"/>
<stop offset="1" stop-color="#EFF1F3"/>
</linearGradient>
<linearGradient id="paint1_linear_888_16" x1="118.209" y1="35.0879" x2="44.4725" y2="130.945" gradientUnits="userSpaceOnUse">
<stop stop-color="#EEF0F2"/>
<stop offset="1" stop-color="#FDFEFE"/>
</linearGradient>
<clipPath id="clip0_888_16">
<rect width="63" height="67" fill="white" transform="translate(55 47)"/>
</clipPath>
</defs>
</svg>
