<svg width="89" height="81" viewBox="0 0 89 81" fill="none" xmlns="http://www.w3.org/2000/svg">
<g id="Layer_1" clip-path="url(#clip0_474_3162)">
<path id="Vector" d="M0 37.3812C0.227538 35.8807 0.415606 34.3733 0.687259 32.8797C2.05017 25.3887 5.34947 18.8303 10.4923 13.2114C15.9277 7.2717 22.5263 3.1072 30.4089 1.28119C45.4125 -2.19539 58.5447 1.3943 69.5083 12.228C75.155 17.8099 78.6424 24.6222 80.2049 32.3787C81.3217 37.9214 81.266 43.4733 79.9983 48.9929C79.8451 49.6554 79.9704 49.9763 80.602 50.3295C88.4613 54.7064 91.3102 64.6767 86.9707 72.4609C86.6201 73.0911 86.1883 73.5528 85.4012 73.3958C84.4701 73.2112 84.0824 72.297 84.5723 71.3736C85.4592 69.7046 86.0374 67.9548 86.2626 66.0687C87.0659 59.2933 82.4734 52.7511 75.7819 51.1929C67.7995 49.3322 60.1328 54.4247 58.7699 62.4929C57.5324 69.8177 62.9376 77.1494 70.3024 78.1929C73.7689 78.6846 76.973 78.0474 79.9403 76.2099C80.6136 75.7943 81.266 75.7528 81.8163 76.3692C82.276 76.8863 82.269 77.4842 81.8325 78.022C81.6584 78.2367 81.3914 78.3914 81.1499 78.5414C74.6326 82.5559 66.2438 81.5771 60.8131 76.1383C60.3069 75.6304 59.9494 75.4873 59.29 75.8867C58.4565 76.3923 57.5347 76.7639 56.6385 77.1633C55.6726 77.595 54.911 77.378 54.586 76.6208C54.2609 75.8636 54.6255 75.2034 55.6099 74.7463C56.5479 74.31 57.4836 73.8668 58.3705 73.4489C57.609 71.5514 56.8776 69.7253 56.1579 67.9317C54.5535 68.6173 52.8702 69.4345 51.1218 70.067C33.281 76.4984 13.4782 65.6139 9.39641 47.1623C5.83473 31.0606 15.0779 15.1113 30.8965 10.058C44.7275 5.64191 60.1119 11.3554 67.6253 23.7127C67.8389 24.0659 68.1036 24.5622 68.0038 24.8877C67.8738 25.3125 67.4721 25.7673 67.0658 25.9727C66.476 26.2705 65.9559 25.9173 65.5891 25.4002C64.737 24.2044 63.8942 22.9994 63.0304 21.8128C62.7611 21.4435 62.4314 21.1157 61.8811 20.4854C61.3982 21.088 60.9872 21.6789 60.4973 22.1891C59.8565 22.8563 59.0508 22.8955 58.5029 22.3692C57.8923 21.7828 57.9294 21.0579 58.6515 20.3308C59.1391 19.8391 59.6638 19.3866 60.2327 18.8626C54.9621 14.151 48.9115 11.6647 41.816 11.2377C41.816 11.9648 41.8253 12.6112 41.816 13.2599C41.7951 14.368 41.347 14.9197 40.4856 14.922C39.6242 14.9243 39.1575 14.3587 39.1412 13.2737C39.132 12.6458 39.1412 12.0156 39.1412 11.4016C34.8853 10.5474 24.3791 14.8481 20.7919 18.9411C21.3166 19.4212 21.8715 19.8829 22.3731 20.3977C23.0348 21.0764 23.0441 21.829 22.4566 22.3807C21.9249 22.8793 21.1332 22.8401 20.5156 22.2514C19.9978 21.7574 19.5103 21.2334 18.9414 20.654C14.4905 25.6149 11.9759 31.2707 11.3746 37.9099C12.0502 37.9099 12.6493 37.896 13.2483 37.9122C14.1074 37.9353 14.6762 38.4662 14.6762 39.2118C14.6762 39.9736 14.1283 40.4769 13.2506 40.4977C12.6446 40.5115 12.0386 40.5 11.2794 40.5C11.4303 47.8825 13.9588 54.2516 19.083 60.0113C19.5799 59.3949 19.9932 58.8016 20.4877 58.2914C21.1309 57.6266 21.9319 57.6012 22.4799 58.1414C23.051 58.7024 23.0208 59.4411 22.3568 60.1267C21.8599 60.6392 21.3189 61.1101 20.7478 61.648C26.0439 66.3273 32.0736 68.8643 39.1436 69.2475C39.1436 68.4857 39.1343 67.8324 39.1436 67.1791C39.1621 66.1657 39.6381 65.5839 40.4438 65.5609C41.282 65.5378 41.7881 66.1357 41.816 67.1953C41.8299 67.7701 41.8276 68.3472 41.8345 68.922C41.8345 68.9774 41.8624 69.0305 41.9297 69.2798C43.1998 69.1275 44.5139 69.0397 45.8002 68.8043C49.1831 68.1879 52.3594 66.9944 55.3313 65.2584C55.7724 64.9999 55.9814 64.7321 55.9953 64.1896C56.1671 57.1741 60.7968 51.052 67.5324 48.9652C68.2313 48.7482 68.5842 48.425 68.7073 47.7163C68.8768 46.7259 69.1693 45.7587 69.3319 44.7684C69.499 43.7503 69.571 42.7161 69.701 41.5365C68.9 41.5365 68.164 41.5457 67.428 41.5365C66.5016 41.5226 65.9049 40.9986 65.9188 40.2345C65.9327 39.4727 66.5364 38.9625 67.4628 38.9487C68.1802 38.9371 68.8954 38.9487 69.8078 38.9487C69.448 36.8734 69.1275 34.9227 68.763 32.9836C68.5773 31.9932 68.8443 31.3515 69.643 31.1252C70.4278 30.9036 71.05 31.3238 71.3077 32.3164C72.6103 37.3097 72.6474 42.3237 71.526 47.3515C71.4888 47.5201 71.4447 47.6863 71.4192 47.8571C71.4076 47.9402 71.4285 48.0256 71.4308 48.0441C73.3881 48.268 75.3245 48.4896 77.4373 48.732C77.6834 47.0953 78.041 45.3801 78.1873 43.6464C78.8026 36.3378 77.5697 29.3431 74.0475 22.8747C68.1315 12.0156 59.0764 5.19406 46.7684 3.20184C33.5224 1.05727 22.1014 4.97014 12.8141 14.615C7.14192 20.5062 3.88208 27.6187 2.92317 35.7422C0.689581 54.621 12.6377 72.0177 31.1217 76.7385C36.6081 78.1398 42.1596 78.2667 47.7297 77.1979C47.9293 77.161 48.129 77.1333 48.331 77.1079C49.2156 77.004 49.8146 77.3849 49.9586 78.1398C50.0956 78.8531 49.6243 79.5318 48.7791 79.6749C47.2142 79.9427 45.6447 80.2497 44.0635 80.3651C32.5032 81.2101 22.2663 77.9713 13.5664 70.3025C6.23409 63.8364 1.90157 55.6967 0.392388 46.0727C0.236826 45.0823 0.130022 44.085 0.00232182 43.0901C0.00232182 41.1902 0.00232182 39.288 0.00232182 37.3881L0 37.3812Z" fill="black"/>
<path id="Vector_2" d="M45.9251 38.9418C49.5308 38.9418 53.1204 38.9418 56.7099 38.9418C58.1169 38.9418 58.7369 39.3412 58.7345 40.2507C58.7345 41.1533 58.1309 41.5365 56.7006 41.5365C53.1389 41.5365 49.5773 41.5365 45.9645 41.5365C45.8693 41.7743 45.7741 42.0075 45.6813 42.2383C44.7502 44.556 42.2914 46.0796 39.9812 45.7726C37.3134 45.4171 35.2679 43.4826 34.9591 41.024C34.634 38.427 36.0155 36.0608 38.4813 35.112C39.0107 34.9089 39.1593 34.6573 39.1546 34.1194C39.1337 29.5994 39.143 25.0771 39.143 20.5547C39.143 20.3239 39.1384 20.093 39.143 19.8645C39.1686 18.8788 39.6701 18.2555 40.4502 18.2324C41.2512 18.2093 41.8085 18.858 41.8154 19.8899C41.8294 22.2215 41.8201 24.5553 41.8201 26.8869C41.8201 29.3062 41.8294 31.7255 41.8108 34.1448C41.8061 34.6319 41.9176 34.8996 42.4354 35.0866C44.2464 35.7469 45.3469 37.0996 45.9251 38.9418ZM40.4479 43.1363C42.0801 43.1502 43.385 41.9082 43.4291 40.2992C43.4732 38.7271 42.1567 37.379 40.557 37.3559C38.8783 37.3305 37.5479 38.6024 37.5386 40.2345C37.5293 41.8274 38.8296 43.1225 40.4502 43.1363H40.4479Z" fill="#EF7B10"/>
<path id="Vector_3" d="M70.3324 63.7002C72.2247 61.9319 74.0752 60.2421 75.8792 58.5038C77.0912 57.3358 78.4843 56.9041 80.0864 57.3819C82.8679 58.2107 83.936 61.6595 81.9694 63.7833C79.3271 66.6389 76.5851 69.4091 73.785 72.1147C71.9995 73.8391 69.139 73.8091 67.3141 72.1147C65.6029 70.5264 63.9683 68.8505 62.3872 67.1329C60.9546 65.5747 61.1171 63.1393 62.6263 61.6711C64.1657 60.1729 66.6129 60.1221 68.1987 61.5903C68.9811 62.3128 69.7125 63.0908 70.3301 63.7049L70.3324 63.7002ZM70.6343 70.9489C71.2797 70.538 71.9554 70.2517 72.443 69.7762C74.1193 68.1464 75.7306 66.4496 77.3675 64.7806C78.1964 63.9357 79.0555 63.1185 79.8542 62.2459C80.6343 61.3941 80.3371 60.1683 79.3086 59.8797C78.6515 59.695 78.1407 59.9582 77.681 60.4314C75.7098 62.4606 73.7292 64.4805 71.7394 66.4935C70.8804 67.3638 70.2303 67.3592 69.3642 66.4935C68.4239 65.5563 67.5114 64.5913 66.5595 63.6633C65.8583 62.9777 65.0967 62.9546 64.4861 63.5433C63.9126 64.0973 63.9149 64.9584 64.5557 65.6209C65.9999 67.1145 67.4464 68.6104 68.9486 70.0462C69.3572 70.4364 69.9772 70.6095 70.6319 70.9512L70.6343 70.9489Z" fill="#EF7B10"/>
<path id="Vector_4" d="M24.8558 44.2675C23.6693 44.2675 22.4829 44.2859 21.2988 44.2628C19.7965 44.2351 18.9468 43.3879 18.9189 41.8943C18.898 40.7447 18.8934 39.5928 18.9259 38.4432C18.9607 37.192 19.6874 36.3194 20.9412 36.2824C23.5695 36.2039 26.2048 36.2016 28.8354 36.2709C30.1403 36.3055 30.9065 37.2474 30.925 38.5632C30.9413 39.6851 30.9413 40.8071 30.925 41.929C30.9065 43.3441 30.0288 44.2305 28.587 44.2628C27.3448 44.2906 26.1003 44.2698 24.8558 44.2698V44.2675ZM21.5867 38.9395V41.5665H28.248V38.9395H21.5867Z" fill="black"/>
</g>
<defs>
<clipPath id="clip0_474_3162">
<rect width="89" height="81" fill="white"/>
</clipPath>
</defs>
</svg>
