<svg width="42" height="35" viewBox="0 0 42 35" fill="none" xmlns="http://www.w3.org/2000/svg">
<g id="Layer_1" clip-path="url(#clip0_474_3209)">
<path id="Vector" d="M3.82379 33.5003H11.0402C11.1303 32.9193 10.8336 32.021 11.8246 32.0446C12.7503 32.0666 12.4708 32.9083 12.5453 33.4894H13.9463V31.2735C13.7801 31.2735 13.6 31.2735 13.4198 31.2735C9.50715 31.2735 5.59295 31.2735 1.6803 31.2735C0.569721 31.2735 0.0121031 30.7097 0.0105498 29.5916C0.0105498 28.9555 0.00899656 28.3195 0.0105498 27.6835C0.0136563 26.6549 0.591467 26.0644 1.60264 26.0644C5.51528 26.0644 9.42948 26.0644 13.3421 26.0644C13.5239 26.0644 13.7056 26.0644 13.9448 26.0644V23.8517H3.82224C3.82224 24.0794 3.83466 24.3071 3.81913 24.5317C3.78496 25.0216 3.50382 25.3137 3.08289 25.3169C2.66351 25.3184 2.34975 25.0169 2.33111 24.5442C2.31092 24.0637 2.30937 23.5816 2.33111 23.1026C2.35441 22.6189 2.65264 22.3488 3.14036 22.3456C4.15308 22.3394 5.1658 22.3441 6.17852 22.3441C6.34006 22.3441 6.5016 22.3441 6.66314 22.3441C2.02978 21.4662 -0.335826 17.5072 0.0385084 13.7491C0.426822 9.84351 3.69487 6.80003 7.42579 6.69324C11.4425 6.5786 14.7634 9.46504 15.3831 13.2498C16.0526 17.3313 13.4027 21.5384 8.81906 22.3409C10.4593 22.3409 12.1011 22.388 13.7398 22.3237C14.81 22.2828 15.5757 23.0413 15.4872 24.0951C15.4328 24.7421 15.4825 25.397 15.4763 26.0487C15.467 26.9203 14.8581 27.5359 13.9961 27.5484C13.2909 27.5579 12.5841 27.5579 11.879 27.5642C11.8665 27.5642 11.8557 27.5814 11.8044 27.6207C11.7345 28.1609 12.011 29.0246 11.0464 29.0152C10.1083 29.0074 10.3816 28.1688 10.3055 27.5767H1.54827V29.7863C1.69117 29.7863 1.8698 29.7863 2.04842 29.7863C5.9766 29.7863 9.90633 29.7863 13.8345 29.7863C14.9109 29.7863 15.4763 30.3595 15.4779 31.4478C15.4779 32.1309 15.4841 32.8125 15.4779 33.4956C15.4685 34.3672 14.8581 34.9923 13.9961 34.9923C10.3894 34.997 6.78274 34.9954 3.17608 34.9923C2.6371 34.9923 2.3482 34.7127 2.32956 34.1741C2.31403 33.7249 2.31403 33.2742 2.32956 32.8251C2.34664 32.3429 2.63555 32.0351 3.05027 32.021C3.49916 32.0053 3.78651 32.2974 3.82068 32.8172C3.83466 33.0308 3.82379 33.2459 3.82379 33.4972V33.5003ZM14.0054 14.5312C14.0256 11.0967 11.1893 8.20556 7.78769 8.18985C4.34413 8.17572 1.49391 11.0198 1.48148 14.4857C1.46906 17.9657 4.27734 20.8286 7.7209 20.8475C11.1505 20.8663 13.9836 18.0176 14.0054 14.5312Z" fill="#EF7B10"/>
<path id="Vector_2" d="M26.7983 7.44841C30.0974 7.44841 33.3981 7.44684 36.6972 7.44841C39.7726 7.44998 41.9969 9.70197 41.9984 12.8177C42 18.4335 42.0015 24.0493 41.9984 29.6652C41.9969 32.7228 39.7618 34.9936 36.7515 34.9952C30.4748 34.9983 24.1981 34.9952 17.9199 34.9952C17.7972 34.9952 17.6714 35.0046 17.5518 34.9842C17.1883 34.9214 16.9351 34.5963 16.9569 34.2178C16.9802 33.8252 17.1976 33.5897 17.5751 33.5206C17.7242 33.4923 17.8811 33.5111 18.0348 33.5111C24.2354 33.5111 30.436 33.5111 36.6366 33.5111C38.4974 33.5111 39.9264 32.4621 40.3784 30.7503C40.4794 30.3656 40.5228 29.9557 40.5244 29.5568C40.5337 24.0038 40.5337 18.4492 40.5291 12.8962C40.5291 10.5217 38.9541 8.9356 36.5978 8.9356C29.9219 8.93403 23.246 8.9356 16.5701 8.9356C16.4163 8.9356 16.261 8.94659 16.1103 8.92775C15.7376 8.87906 15.4828 8.56812 15.4844 8.18808C15.4859 7.80804 15.7453 7.50338 16.1181 7.45626C16.2548 7.43899 16.3946 7.44998 16.5328 7.44998C19.9546 7.44998 23.378 7.44998 26.7998 7.44998L26.7983 7.44841Z" fill="black"/>
<path id="Vector_3" d="M17.6616 20.1045C17.1848 20.1045 16.7421 20.1092 16.2979 20.1045C15.79 20.0967 15.484 19.814 15.4824 19.3649C15.4824 18.9126 15.7853 18.6283 16.2932 18.6221C16.7359 18.6158 17.1801 18.6221 17.6911 18.6221C17.6911 18.1415 17.6865 17.6829 17.6911 17.2244C17.6989 16.6622 17.9552 16.3905 18.5035 16.3889C20.4218 16.3842 22.34 16.3842 24.2568 16.3889C24.7786 16.3905 25.0427 16.6653 25.052 17.1945C25.0598 17.6437 25.0536 18.0928 25.0536 18.5294C25.0909 18.564 25.1126 18.6032 25.1359 18.6032C26.7466 18.6016 28.362 18.6739 29.9665 18.5718C32.0137 18.443 33.5778 17.3123 34.8934 15.7969C35.8456 14.7023 36.5383 13.4507 37.0245 12.0797C37.0711 11.9493 37.1053 11.8127 37.1596 11.6855C37.3398 11.2552 37.7328 11.0652 38.1242 11.2097C38.4923 11.3447 38.6943 11.7358 38.5684 12.1629C38.4426 12.5916 38.2935 13.0172 38.1102 13.4255C36.9158 16.0905 35.1808 18.2499 32.4735 19.4717C31.5105 19.9067 30.4977 20.1155 29.4384 20.1077C27.9985 20.0967 26.5571 20.1045 25.08 20.1045C25.0194 21.3295 24.5534 22.3377 23.5966 23.0773C22.8464 23.6568 21.989 23.8955 21.0493 23.8217C19.6296 23.7087 17.8216 22.6031 17.6601 20.1045H17.6616ZM19.1714 17.8902C19.1714 18.7179 19.1233 19.5093 19.1823 20.293C19.2693 21.4441 20.2043 22.3016 21.3164 22.3377C22.382 22.3738 23.3698 21.6137 23.5127 20.4909C23.6199 19.6428 23.5345 18.7712 23.5345 17.8902H19.1714Z" fill="black"/>
<path id="Vector_4" d="M21.3673 0.0957766C22.6689 0.0957766 23.9923 -0.0596952 25.266 0.130326C27.5679 0.472678 29.3308 1.68033 30.0407 4.04853C30.2255 4.66728 30.1867 5.36297 30.1991 6.02569C30.2069 6.42615 29.8589 6.70411 29.466 6.69783C29.073 6.69312 28.7717 6.41359 28.7468 6.00371C28.722 5.61738 28.767 5.22163 28.7002 4.84473C28.3849 3.04032 27.1361 2.15774 25.5238 1.68818C25.0594 1.55313 24.5577 1.5013 24.0715 1.49502C22.262 1.47304 20.4509 1.46676 18.6413 1.49502C17.2822 1.51544 16.0459 1.91433 15.0425 2.8927C14.345 3.57269 13.9971 4.40502 14.0033 5.38653C14.0033 5.57184 14.0095 5.75872 14.0018 5.94403C13.98 6.41044 13.6771 6.7104 13.2469 6.69783C12.8384 6.68684 12.5588 6.3916 12.5355 5.9456C12.4019 3.45962 13.5964 1.53742 15.8828 0.565333C16.7681 0.190002 17.6892 -0.00787128 18.6522 -1.91696e-05C19.5578 0.00626252 20.4618 -1.91696e-05 21.3673 -1.91696e-05C21.3673 0.0313893 21.3673 0.0627977 21.3673 0.0942062V0.0957766Z" fill="black"/>
<path id="Vector_5" d="M27.2622 5.63777C27.2622 5.76183 27.2716 5.88589 27.2607 6.00996C27.225 6.4167 26.9283 6.69623 26.5353 6.69937C26.1423 6.70251 25.8395 6.42612 25.7975 6.02252C25.6702 4.83685 25.2694 4.47094 24.061 4.4678C22.267 4.46309 20.473 4.45681 18.6805 4.47565C18.3372 4.47879 17.9769 4.55103 17.6554 4.6751C17.194 4.85413 16.9051 5.20276 16.9502 5.74927C16.9564 5.82622 16.9548 5.90474 16.9502 5.98169C16.9191 6.4167 16.6162 6.70565 16.2046 6.69937C15.7946 6.69309 15.5088 6.39942 15.4824 5.95813C15.3845 4.32803 16.5355 3.02772 18.2037 2.99475C20.3176 2.95234 22.4347 2.95549 24.5503 2.99475C26.0864 3.02301 27.2638 4.21496 27.2638 5.63777H27.2622Z" fill="black"/>
<path id="Vector_6" d="M7.80449 9.57178C8.46152 9.75395 9.13252 9.90157 9.77402 10.1308C10.3037 10.3193 10.4792 10.77 10.285 11.1956C10.1049 11.5898 9.67461 11.7091 9.18378 11.5018C7.18008 10.6569 5.08474 11.6447 4.57993 13.7098C4.25841 15.0259 4.61411 16.1864 5.64081 17.0611C6.67838 17.9468 7.88215 18.1321 9.12476 17.5621C10.341 17.003 10.9964 16.0042 11.0694 14.6411C11.0788 14.4715 11.0632 14.2987 11.0772 14.1291C11.1129 13.7036 11.3987 13.4146 11.7762 13.4067C12.1769 13.3973 12.4829 13.6926 12.5233 14.1307C12.7469 16.4801 10.998 18.8231 8.68985 19.2644C5.9235 19.7937 3.42897 17.994 2.98474 15.1483C2.58245 12.5666 4.51314 10.0555 7.17698 9.70369C7.37269 9.67857 7.57461 9.70055 7.77498 9.70055C7.7843 9.65815 7.79517 9.61418 7.80449 9.57178Z" fill="#EF7B10"/>
</g>
<defs>
<clipPath id="clip0_474_3209">
<rect width="42" height="35" fill="white"/>
</clipPath>
</defs>
</svg>
