<svg width="161" height="160" viewBox="0 0 161 160" fill="none" xmlns="http://www.w3.org/2000/svg">
<ellipse cx="80.5" cy="80" rx="80.5" ry="80" fill="url(#paint0_linear_888_13)"/>
<ellipse cx="80.5004" cy="80" rx="61.3812" ry="61" fill="url(#paint1_linear_888_13)"/>
<g clip-path="url(#clip0_888_13)">
<path d="M70.8373 84.5019C70.8373 82.0069 70.8861 79.5093 70.818 77.0156C70.7807 75.6633 71.3992 74.8149 72.4869 74.1889C73.7482 73.4614 75.1419 73.1169 76.5601 72.9395C79.4003 72.5821 82.2392 72.6053 84.9868 73.5256C85.8226 73.8059 86.6223 74.2596 87.3577 74.7545C88.0315 75.2083 88.2938 75.9332 88.2912 76.7816C88.2732 81.8758 88.2616 86.9687 88.2976 92.0628C88.3066 93.275 87.7743 94.0848 86.8139 94.689C85.5256 95.4988 84.0804 95.8561 82.5954 96.0528C79.6909 96.4359 76.807 96.3909 73.9899 95.4756C73.4319 95.2944 72.8868 95.0425 72.375 94.7532C71.3387 94.1671 70.7936 93.3174 70.8219 92.0538C70.8784 89.5395 70.8386 87.0214 70.8386 84.5058L70.8373 84.5019ZM72.8546 89.7658C72.8546 90.4316 72.9176 91.0525 72.8392 91.6553C72.7248 92.541 73.1735 92.9639 73.9025 93.275C75.6087 94.0025 77.4087 94.2314 79.2332 94.2429C81.3238 94.2571 83.4054 94.0874 85.334 93.1683C85.6811 93.0038 86.171 92.7017 86.2096 92.4112C86.3253 91.5409 86.252 90.6463 86.252 89.7619C81.7584 91.3404 77.3496 91.37 72.8546 89.7658ZM72.8546 79.1687V80.5904C72.8546 82.1856 72.9523 82.3218 74.4695 82.8643C74.5659 82.899 74.6624 82.9311 74.7601 82.9607C77.2506 83.7268 79.8002 83.7757 82.3408 83.3939C83.489 83.2216 84.5934 82.7319 85.6991 82.3347C85.9293 82.2524 86.2237 81.9529 86.2404 81.7357C86.3034 80.8911 86.2662 80.0389 86.2662 79.1622C81.7866 80.742 77.3791 80.7716 72.8572 79.1687H72.8546ZM86.27 84.4544C81.7468 86.0509 77.3238 86.0573 72.8546 84.4736V85.9236C72.8546 87.4816 72.9228 87.5805 74.3846 88.1358C74.4991 88.1795 74.6161 88.213 74.7331 88.249C77.2441 89.0279 79.8143 89.0703 82.3755 88.6834C83.5224 88.5099 84.6281 88.0201 85.73 87.6114C85.9614 87.5253 86.2263 87.1795 86.2456 86.934C86.3099 86.1267 86.27 85.3105 86.27 84.4544ZM72.7029 76.6094C73.1323 76.878 73.4666 77.148 73.8459 77.3125C76.2001 78.3344 78.6854 78.4103 81.1888 78.238C82.5774 78.1429 83.948 77.8999 85.2196 77.2958C85.5886 77.121 85.9087 76.8446 86.3922 76.5207C85.8624 76.1903 85.514 75.8882 85.1103 75.7353C81.8484 74.4987 78.5196 74.5128 75.1677 75.2995C74.2946 75.5039 73.4358 75.779 72.7029 76.6107V76.6094Z" fill="#EF7B10"/>
<path d="M92.4605 71.0975C91.9539 71.5975 91.5065 72.0384 91.0294 72.5089C85.0379 66.6614 78.4086 61.6958 70.3085 58.6609C70.5232 59.7098 70.7148 60.6495 70.9231 61.6662C70.2725 61.8089 69.6309 61.9503 68.9533 62.0994C68.601 60.4592 68.2449 58.8897 67.9337 57.3125C67.8321 56.7996 68.061 56.3278 68.583 56.2019C70.3432 55.7764 72.1162 55.4062 73.9407 55.0013C74.0885 55.6916 74.2197 56.3021 74.365 56.9757C73.8533 57.0978 73.366 57.2135 72.8774 57.3279C75.4707 58.6969 78.0653 60.0659 80.6638 61.4362C80.5442 61.2009 80.4041 60.9245 80.2267 60.5749C81.1331 60.089 82.0228 59.6134 82.9563 59.1134C83.261 59.7278 83.549 60.3063 83.8563 60.9233C83.108 61.3256 82.3918 61.7112 81.5767 62.1496C85.538 64.7988 89.1433 67.7823 92.4605 71.0987V71.0975Z" fill="black"/>
<path d="M105.103 73.9511C104.059 74.239 103.176 74.4833 102.292 74.7237C102.258 74.7327 102.214 74.7121 102.107 74.6954C101.941 74.1067 101.768 73.4922 101.581 72.8315C103.176 72.3816 104.702 71.9458 106.232 71.5242C106.743 71.3828 107.247 71.5165 107.412 72.0243C107.974 73.7647 108.468 75.5271 109 77.3292C108.312 77.5285 107.713 77.7007 107.052 77.8922C106.877 77.3202 106.714 76.7829 106.507 76.1055C103.487 84.0893 98.66 90.7414 92.8086 96.8305C92.3817 96.3035 91.9742 95.7996 91.5293 95.2481C97.3177 89.1642 102.304 82.3334 105.103 73.9511Z" fill="black"/>
<path d="M90.0674 110.101C89.7627 109.014 89.5056 108.097 89.2343 107.131C89.8848 106.946 90.4866 106.776 91.1654 106.583C91.321 107.119 91.4676 107.618 91.6116 108.118C91.9047 109.137 92.194 110.157 92.4872 111.176C92.653 111.752 92.4859 112.257 91.9317 112.436C90.2114 112.99 88.468 113.473 86.6769 114C86.4841 113.305 86.3131 112.688 86.1356 112.045C86.7322 111.865 87.2555 111.708 87.9138 111.51C79.9204 108.487 73.2628 103.655 67.2031 97.8241C67.7058 97.3691 68.1726 96.9475 68.6984 96.4706C74.8468 102.308 81.669 107.299 90.0687 110.101H90.0674Z" fill="black"/>
<path d="M53.6573 93.7031C54.7348 93.4832 55.6669 93.2917 56.6634 93.0886C56.8112 93.7506 56.9514 94.3766 57.1031 95.0553C55.4625 95.405 53.8733 95.7649 52.2764 96.0747C51.7236 96.1814 51.2877 95.8857 51.1604 95.3407C50.7567 93.6156 50.3967 91.8816 50.002 90.0704C50.6795 89.9265 51.3057 89.7941 51.9794 89.6514C52.1054 90.1964 52.2186 90.6874 52.3741 91.3546C53.9826 87.5008 55.9935 84.0353 58.3104 80.751C60.6363 77.4526 63.2528 74.3946 66.2704 71.3777C66.4761 71.6643 66.6407 71.9536 66.8631 72.1875C67.0869 72.4215 67.3684 72.5988 67.6616 72.8315C61.6713 78.9617 56.7097 85.5894 53.6599 93.7043L53.6573 93.7031Z" fill="black"/>
<path d="M108.028 70.4547C107.328 70.3468 106.694 70.2491 106.085 70.1565C106.131 68.8711 106.239 67.6306 106.207 66.3941C106.152 64.2667 105.611 62.2704 104.252 60.5749C102.714 58.6571 100.619 57.801 98.2446 57.5182C95.1717 57.1518 92.2235 57.7688 89.3242 58.6969C88.1426 59.0748 86.9892 59.544 85.7549 59.9965C85.4952 59.4129 85.2342 58.8254 84.9141 58.1056C86.6434 57.5156 88.32 56.8857 90.0326 56.3716C92.6954 55.572 95.4276 55.189 98.2073 55.4666C103.398 55.9846 107.081 59.0157 108.023 64.3425C108.213 65.4223 108.258 66.5367 108.263 67.6371C108.268 68.5484 108.117 69.4611 108.028 70.456V70.4547Z" fill="black"/>
<path d="M104.021 90.7504C104.61 90.4908 105.186 90.2362 105.871 89.9329C106.366 91.2877 106.889 92.6117 107.333 93.9601C108.136 96.3986 108.628 98.9052 108.634 101.477C108.64 103.899 108.208 106.233 106.905 108.336C105.232 111.032 102.738 112.465 99.6814 113.024C97.6679 113.392 95.6557 113.316 93.5664 112.987C93.6654 112.339 93.7606 111.708 93.8557 111.09C95.1363 111.133 96.377 111.235 97.6126 111.204C99.7405 111.151 101.735 110.612 103.433 109.255C105.281 107.781 106.153 105.78 106.464 103.495C106.884 100.407 106.306 97.4308 105.375 94.5064C104.98 93.2647 104.493 92.0526 104.021 90.7504Z" fill="black"/>
<path d="M63.1008 111.646C63.1522 112.274 63.2011 112.882 63.2551 113.54C62.1673 113.54 61.131 113.603 60.1063 113.526C58.3166 113.391 56.6194 112.901 55.0649 111.968C52.235 110.27 50.7513 107.695 50.2267 104.515C49.8885 102.463 50.0094 100.409 50.345 98.3126C50.9261 98.4064 51.4751 98.4553 51.9933 98.6057C52.1322 98.6455 52.2659 98.999 52.2569 99.2034C52.2119 100.243 52.046 101.282 52.0602 102.319C52.0923 104.571 52.5989 106.705 54.0672 108.492C55.5304 110.272 57.4937 111.168 59.7399 111.446C60.8289 111.581 61.9346 111.581 63.0995 111.646H63.1008Z" fill="black"/>
<path d="M50.4159 68.2695C50.2024 63.7833 51.0253 59.8127 54.8427 57.0515C56.8266 55.6144 59.1242 55.063 61.5439 55.0553C62.9042 55.0514 64.2658 55.1774 65.7136 55.2481C65.5876 55.9949 65.4847 56.6081 65.3677 57.3048C64.721 57.2379 64.1013 57.1621 63.4803 57.1132C61.1222 56.9294 58.8182 57.112 56.6967 58.2753C54.3836 59.544 53.1275 61.5904 52.6723 64.1214C52.4435 65.3978 52.428 66.7116 52.3072 68.0973C51.7723 68.1448 51.1526 68.2014 50.4146 68.2682L50.4159 68.2695Z" fill="black"/>
<path d="M70.3584 67.5857C70.8213 68.1307 71.2314 68.6114 71.6724 69.1308C70.7454 69.9676 69.8428 70.7825 69.029 71.5165C68.489 71.0628 67.9927 70.6437 67.4668 70.2015C68.4722 69.2914 69.3928 68.4585 70.3571 67.5857H70.3584Z" fill="black"/>
<path d="M56.8467 81.2202C56.2669 81.5377 55.7037 81.8475 55.0685 82.1946C54.4797 81.0184 53.9204 79.9001 53.3418 78.7445C53.9808 78.4527 54.5517 78.193 55.1778 77.9064C55.7294 79.0028 56.2746 80.0839 56.8454 81.2189L56.8467 81.2202Z" fill="black"/>
<path d="M77.571 64.6215C76.5449 65.3619 75.5716 66.065 74.5469 66.8041C74.1342 66.2642 73.742 65.7501 73.3203 65.196C74.3553 64.4466 75.3595 63.7178 76.4228 62.9478C76.8034 63.5031 77.1672 64.0327 77.571 64.6215Z" fill="black"/>
<path d="M60.4745 90.3584C59.7159 89.3172 58.9882 88.3184 58.2129 87.254C58.776 86.8658 59.3032 86.5008 59.8792 86.1036C60.6031 87.0959 61.309 88.0613 62.0753 89.1102C61.552 89.519 61.0338 89.9213 60.4745 90.3571V90.3584Z" fill="black"/>
<path d="M93.853 72.5127C94.7106 73.4626 95.5412 74.3843 96.4207 75.3587C95.9115 75.7957 95.4255 76.2135 94.8881 76.6749C94.0446 75.7456 93.2307 74.8471 92.3809 73.9087C92.8862 73.4292 93.3567 72.9832 93.853 72.5127Z" fill="black"/>
<path d="M98.8155 78.3152C99.5883 79.3846 100.315 80.3911 101.064 81.4298C100.497 81.8154 99.9624 82.1804 99.3941 82.5674C98.6625 81.557 97.958 80.5839 97.2109 79.553C97.7381 79.1468 98.2485 78.7535 98.8168 78.3152H98.8155Z" fill="black"/>
<path d="M84.1141 101.938C84.532 102.474 84.9164 102.97 85.3561 103.533C84.3262 104.286 83.3182 105.024 82.2601 105.799C81.8692 105.235 81.5015 104.705 81.1055 104.133C82.1045 103.404 83.0726 102.697 84.1141 101.938Z" fill="black"/>
<path d="M76.2222 107.165C76.5475 107.763 76.8471 108.315 77.1891 108.943C76.0294 109.525 74.9133 110.086 73.7472 110.672C73.4502 110.015 73.1853 109.43 72.9102 108.826C74.0223 108.268 75.0946 107.731 76.2222 107.165Z" fill="black"/>
<path d="M64.4194 91.9664C65.268 92.8958 66.0883 93.7917 66.9395 94.725C66.447 95.1954 65.9803 95.6428 65.4776 96.1235C64.6148 95.18 63.7791 94.2648 62.8945 93.2981C63.4127 92.8457 63.8961 92.424 64.4194 91.9664Z" fill="black"/>
<path d="M89.6733 97.1184C90.1696 97.5812 90.6312 98.0118 91.1545 98.5003C90.1863 99.3872 89.2644 100.233 88.2975 101.12C87.8308 100.584 87.4091 100.099 86.9668 99.5903C87.8925 98.7445 88.7797 97.9347 89.6733 97.1184Z" fill="black"/>
<path d="M69.5146 110.178C69.7357 110.831 69.935 111.421 70.1639 112.094C69.0774 112.406 68.0527 112.7 66.9714 113.01C66.8081 112.305 66.6628 111.681 66.5137 111.038C67.5307 110.747 68.4834 110.473 69.5146 110.177V110.178Z" fill="black"/>
<path d="M51.9186 75.1684C51.6049 74.0784 51.3079 73.05 50.998 71.9728C51.6859 71.8096 52.2954 71.6656 52.9627 71.5075C53.2519 72.5037 53.5335 73.4729 53.8344 74.509C53.2082 74.7249 52.6039 74.9319 51.9174 75.1684H51.9186Z" fill="black"/>
<path d="M101.725 86.3028C102.322 85.9622 102.88 85.6447 103.481 85.3027C103.958 86.1974 104.416 87.0535 104.898 87.9572C104.276 88.267 103.698 88.5536 103.087 88.8583C102.631 88.0009 102.193 87.1795 101.725 86.3028Z" fill="black"/>
</g>
<defs>
<linearGradient id="paint0_linear_888_13" x1="130.923" y1="21.0989" x2="34.376" y2="147.395" gradientUnits="userSpaceOnUse">
<stop stop-color="#FBFBFB"/>
<stop offset="1" stop-color="#EFF1F3"/>
</linearGradient>
<linearGradient id="paint1_linear_888_13" x1="118.948" y1="35.0879" x2="45.3308" y2="131.388" gradientUnits="userSpaceOnUse">
<stop stop-color="#EEF0F2"/>
<stop offset="1" stop-color="#FDFEFE"/>
</linearGradient>
<clipPath id="clip0_888_13">
<rect width="59" height="59" fill="white" transform="translate(50 55)"/>
</clipPath>
</defs>
</svg>
