<svg width="94" height="94" viewBox="0 0 94 94" fill="none" xmlns="http://www.w3.org/2000/svg">
<circle cx="47" cy="47" r="47" fill="url(#paint0_linear_888_19)"/>
<circle cx="47.0016" cy="47" r="35.8375" fill="url(#paint1_linear_888_19)"/>
<g clip-path="url(#clip0_888_19)">
<path d="M24 50.7655C24.0853 50.1939 24.1705 49.6215 24.2558 49.05C24.8517 45.0212 26.4486 41.4231 29.044 38.288C32.7873 33.7664 37.5984 31.0628 43.4168 30.2269C54.7872 28.592 65.6663 35.9721 68.3628 47.1244C68.6282 48.2238 68.7337 49.3616 68.9156 50.4801C68.9314 50.5773 68.971 50.6701 69 50.7655V52.3409C68.6256 52.9457 68.0648 53.0499 67.3898 53.0472C62.9971 53.0245 58.6043 53.0359 54.2115 53.0359H53.7729C53.3423 53.8402 53.0021 54.6332 52.5258 55.3334C51.5854 56.7145 50.2354 57.553 48.6208 57.9722C48.2323 58.0729 47.8966 57.9031 47.7744 57.5548C47.6549 57.2152 47.8271 56.8878 48.2147 56.7224C48.7764 56.4835 49.3714 56.3005 49.8952 55.9977C51.0976 55.3019 51.8701 54.2332 52.2823 52.9238C53.3177 49.6364 54.3311 46.342 55.3515 43.0493C55.3629 43.0125 55.3532 42.9688 55.3532 42.8725C54.3917 43.1701 53.4522 43.4624 52.5108 43.7512C50.1114 44.4882 47.7111 45.2199 45.3135 45.963C42.9158 46.7061 41.3514 48.8417 41.3487 51.3536C41.347 53.6853 42.8974 55.7964 45.1816 56.5692C45.8452 56.7942 46.0878 57.0996 45.9445 57.5302C45.8004 57.9626 45.4163 58.0676 44.751 57.8305C42.5924 57.0602 41.1149 55.6047 40.3758 53.4393C40.265 53.1164 40.1288 53.028 39.7983 53.0289C35.0689 53.0402 30.3396 53.0262 25.6102 53.0481C24.9352 53.0516 24.3744 52.9475 24 52.3427C24 51.8175 24 51.2924 24 50.7672V50.7655ZM54.0727 51.6784H61.7385C61.2313 46.0304 58.6491 41.683 53.6279 39.0591C48.3598 36.3064 43.0441 36.5891 38.0607 39.8398C33.8332 42.5977 31.6632 46.6466 31.2773 51.6836H39.9759C40.0163 51.2075 40.0216 50.7541 40.098 50.313C40.5621 47.6417 42.0158 45.7074 44.6095 44.8348C48.0381 43.6804 51.515 42.6677 54.97 41.5911C55.5053 41.424 56.0133 41.4091 56.4396 41.8327C56.8676 42.259 56.8421 42.7666 56.676 43.2979C56.1363 45.0186 55.602 46.7411 55.0667 48.4636C54.7354 49.5305 54.4058 50.5974 54.0718 51.6784H54.0727ZM31.0409 38.0683C27.5534 41.5973 25.4133 46.966 25.3799 51.688C25.4924 51.6959 25.6066 51.7116 25.7209 51.7116C26.9953 51.7134 28.2688 51.6985 29.5433 51.7221C29.9089 51.7291 29.9678 51.5873 29.9897 51.2687C30.1945 48.3139 31.1279 45.6041 32.8128 43.1622C33.2725 42.4961 33.791 41.8703 34.2551 41.262C33.1705 40.1846 32.1062 39.1264 31.0409 38.0683ZM47.1987 35.9476C51.2575 36.1602 54.7529 37.6245 57.7131 40.2791C58.8231 39.1763 59.8884 38.1173 60.9545 37.0591C57.1321 33.3358 51.5792 31.3709 47.1987 31.4129V35.9476ZM67.657 51.7116C67.4065 46.4137 65.5116 41.8756 62.0153 38.0902C60.9132 39.186 59.8409 40.2529 58.8513 41.2375C59.6432 42.4559 60.5309 43.6558 61.2428 44.9521C62.3361 46.9415 62.8881 49.1121 63.0199 51.3808C63.0313 51.5742 63.0542 51.7169 63.3073 51.7151C64.7399 51.7081 66.1726 51.7116 67.657 51.7116ZM45.8215 31.3656C40.4558 31.5512 35.9276 33.531 32.0859 37.011C33.1635 38.0928 34.2322 39.1641 35.3106 40.2468C35.707 39.9247 36.114 39.5684 36.5473 39.2472C39.2077 37.2709 42.1925 36.1655 45.5104 35.9808C45.8145 35.9642 45.8241 35.811 45.8232 35.5861C45.8188 34.3905 45.8215 33.194 45.8215 31.9984C45.8215 31.798 45.8215 31.5976 45.8215 31.3665V31.3656Z" fill="black"/>
<path d="M46.9753 48.0467C47.9746 48.0528 48.8596 48.5185 49.5426 49.3823C49.8018 49.7106 49.779 50.072 49.4977 50.3215C49.2138 50.5727 48.8579 50.5622 48.5652 50.248C48.211 49.869 47.8436 49.539 47.311 49.42C46.3838 49.2125 45.4214 49.6738 45.0267 50.542C44.618 51.4409 44.9274 52.493 45.7641 53.047C46.549 53.5669 47.6424 53.447 48.2971 52.7687C48.3982 52.6636 48.487 52.5455 48.5951 52.4475C48.8781 52.1901 49.2437 52.1823 49.5048 52.4186C49.7693 52.6575 49.8045 53.0129 49.5636 53.3244C48.7779 54.3389 47.7267 54.8307 46.4567 54.6697C45.1551 54.5043 44.2032 53.7743 43.7391 52.5367C43.2698 51.2842 43.508 50.1184 44.4071 49.1206C45.054 48.4029 45.8828 48.0458 46.9753 48.0458V48.0467Z" fill="#EF7B10"/>
</g>
<defs>
<linearGradient id="paint0_linear_888_19" x1="76.4396" y1="12.3956" x2="19.6264" y2="86.2527" gradientUnits="userSpaceOnUse">
<stop stop-color="#FBFBFB"/>
<stop offset="1" stop-color="#EFF1F3"/>
</linearGradient>
<linearGradient id="paint1_linear_888_19" x1="69.4492" y1="20.6141" x2="26.1292" y2="76.9302" gradientUnits="userSpaceOnUse">
<stop stop-color="#EEF0F2"/>
<stop offset="1" stop-color="#FDFEFE"/>
</linearGradient>
<clipPath id="clip0_888_19">
<rect width="45" height="28" fill="white" transform="translate(24 30)"/>
</clipPath>
</defs>
</svg>
