<svg width="100" height="100" viewBox="0 0 100 100" fill="none" xmlns="http://www.w3.org/2000/svg">
<g clip-path="url(#clip0_618_278)">
<path d="M26.3353 59.3185C27.2062 58.7753 28.1677 58.4338 28.7529 57.7696C31.9177 54.1796 34.8106 50.3933 36.3847 45.8352C36.9617 44.1599 37.3051 42.4066 37.7474 40.6882C38.5221 37.6845 41.1182 36.4529 44.0001 37.7275C47.2776 39.1743 48.654 41.8015 47.9479 45.2409C47.3628 48.0941 46.7886 50.9526 46.2171 53.8085C46.1732 54.0317 46.1897 54.2656 46.1704 54.6179C46.588 54.6179 46.9562 54.6179 47.3215 54.6179C51.2968 54.6179 55.2886 54.8142 59.2474 54.5641C63.4342 54.3006 66.5029 58.1541 64.2886 62.1528C67.4754 65.2507 67.5825 67.687 64.599 70.6101C66.1787 73.189 65.8023 75.5447 63.5139 77.6314C64.4699 79.0432 64.7996 80.5518 64.2309 82.1411C63.5468 84.0584 62.1073 85.2793 60.0633 85.3949C54.838 85.6961 49.6018 85.9704 44.371 85.9973C40.3133 86.0188 36.316 85.3411 32.6485 83.4749C31.5633 82.9236 30.5633 82.1975 29.5605 81.5038C28.6127 80.8503 27.6182 80.4066 26.4671 80.4227C26.3875 80.5088 26.3105 80.5545 26.3051 80.6083C26.0853 82.6224 25.9012 82.7865 23.8463 82.7865C19.904 82.7865 15.9616 82.7892 12.0193 82.7865C10.4726 82.7865 10.0029 82.3186 10.0001 80.7938C9.99736 73.5144 9.99736 66.2322 10.0001 58.9528C10.0001 57.3823 10.4616 56.9386 12.1018 56.9386C15.9424 56.9332 19.7803 56.9386 23.621 56.9386C25.7748 56.9386 25.9562 57.0811 26.3353 59.3212V59.3185ZM49.9864 77.6341C47.6924 75.5447 47.3325 73.1836 48.9177 70.5671C47.1457 69.2763 46.5853 67.5499 46.86 65.4067C46.4534 65.6863 46.1787 65.8799 45.9012 66.0682C43.654 67.5875 41.1347 68.3728 38.4534 68.7224C37.599 68.8326 36.9507 68.5449 36.7336 67.6736C36.5413 66.9072 37.077 66.2376 38.0029 66.0279C38.2336 65.9741 38.4781 65.9768 38.7144 65.9391C41.7831 65.4578 44.4946 64.3014 46.5056 61.8839C47.5661 60.6066 48.3435 59.1867 48.7034 57.4388C47.3133 57.4388 46.0496 57.463 44.7858 57.4334C43.5138 57.4038 42.9012 56.6697 43.1347 55.4515C43.8325 51.8347 44.5386 48.2205 45.2721 44.6117C45.7336 42.3421 44.8765 40.8119 42.6512 40.0644C41.6127 39.7175 40.8463 40.0993 40.5578 41.1535C40.1073 42.8019 39.7474 44.4745 39.2419 46.1041C37.8902 50.4444 35.2336 54.0666 32.5001 57.6432C30.8847 59.7568 29.0551 61.5478 26.2638 61.9296V77.583C28.2968 77.626 29.9589 78.3709 31.5276 79.4923C32.621 80.2721 33.8243 80.974 35.0798 81.4634C39.7391 83.284 44.6128 83.4077 49.6182 83.0339C48.7226 81.1488 48.8023 79.3605 49.9836 77.6341H49.9864ZM23.3051 79.9145V59.6358H12.8875V79.9145H23.3051ZM56.7639 68.5852C58.338 68.5852 59.9095 68.596 61.4836 68.5825C63.0468 68.5691 63.904 67.8161 63.9095 66.485C63.9122 65.1888 62.9809 64.3229 61.5084 64.3149C58.3298 64.3014 55.1485 64.3014 51.9671 64.3149C50.4644 64.3229 49.5743 65.1593 49.5908 66.4877C49.6073 67.757 50.4974 68.5664 51.9397 68.5825C53.5468 68.5987 55.154 68.5852 56.7611 68.5879L56.7639 68.5852ZM56.7776 75.6092C58.0413 75.6092 59.3051 75.6253 60.5688 75.6038C61.9479 75.5823 62.871 74.6949 62.8573 73.4391C62.8435 72.2236 61.9424 71.3604 60.6045 71.3496C58.077 71.3308 55.5468 71.3335 53.0193 71.3496C51.6457 71.3577 50.6759 72.2774 50.7007 73.4929C50.7254 74.6626 51.6952 75.5769 52.9836 75.6011C54.2474 75.6253 55.5111 75.6065 56.7748 75.6065L56.7776 75.6092ZM56.8353 57.4388C55.7391 57.4388 54.643 57.4227 53.5468 57.4415C52.1347 57.4657 51.2996 58.2321 51.2748 59.4906C51.2529 60.7545 52.165 61.6822 53.5358 61.701C55.7281 61.7279 57.9204 61.7279 60.1128 61.701C61.4397 61.6849 62.3682 60.776 62.3737 59.5766C62.3792 58.4015 61.4232 57.4764 60.1237 57.4469C59.0276 57.4227 57.9314 57.4415 56.8353 57.4388ZM56.8078 78.3682C55.8518 78.3682 54.8957 78.3467 53.9397 78.3736C52.6979 78.4113 51.8545 79.1938 51.7666 80.3367C51.6814 81.45 52.5468 82.5498 53.7611 82.6009C55.7721 82.687 57.7913 82.6843 59.8023 82.6063C61.0331 82.5579 61.8628 81.528 61.8106 80.3689C61.7611 79.2395 60.9067 78.4193 59.6732 78.3763C58.7171 78.344 57.7611 78.3709 56.8051 78.3682H56.8078Z" fill="black"/>
<path d="M69.4097 68.1577C69.363 67.1385 69.2723 66.2108 69.308 65.2857C69.3218 64.963 69.5773 64.5597 69.8493 64.3499C72.9124 61.9808 75.9866 59.6197 79.0883 57.299C85.1652 52.7571 88.2201 46.7846 88.1624 39.2819C88.1267 34.9228 88.1569 30.5611 88.1569 26.1993V25.1317C75.9372 21.1868 76.896 21.7542 66.4729 13.6788C63.4564 15.822 60.5883 18.054 57.5251 19.9901C53.7668 22.3673 49.6185 23.9458 45.2256 24.8359C44.5251 24.9785 44.374 25.2958 44.3795 25.9277C44.4069 28.5442 44.3905 31.1608 44.3905 33.7773C44.3905 34.1376 44.3905 34.5006 44.3905 34.904C43.4317 34.7749 42.5965 34.6593 41.6981 34.5383C41.6817 34.3124 41.6487 34.0516 41.6487 33.7934C41.646 30.6068 41.6652 27.4202 41.635 24.2336C41.624 23.2198 42.069 22.647 43.0608 22.4695C51.613 20.9555 58.6982 16.8008 64.8135 10.8982C66.058 9.69618 66.5251 9.6908 67.7751 10.8901C73.9262 16.7981 81.0416 20.9663 89.6267 22.4856C90.5168 22.6443 90.9894 23.1149 90.9866 24.0695C90.9646 29.4693 91.0663 34.8717 90.9454 40.2688C90.7778 47.7607 87.7146 53.9645 81.7641 58.7054C77.8328 61.8383 73.7943 64.8393 69.8025 67.8969C69.6734 67.9964 69.5278 68.0743 69.4152 68.1469L69.4097 68.1577Z" fill="black"/>
<path d="M66.2623 23.3677C74.0864 23.3543 80.493 29.5688 80.5123 37.1871C80.5315 44.9694 74.1853 51.2216 66.2733 51.2216C58.5013 51.2216 52.1029 44.9694 52.0617 37.3377C52.0205 29.6441 58.3859 23.3811 66.2623 23.3677ZM77.7211 37.2839C77.7101 31.1097 72.5864 26.0783 66.3062 26.0676C60.015 26.0568 54.7705 31.2011 54.8117 37.3458C54.8502 43.4985 60.0178 48.4976 66.3172 48.4787C72.6551 48.4599 77.7348 43.4743 77.7238 37.2839H77.7211Z" fill="#EF7B10"/>
<path d="M15.7307 75.1575C15.7115 73.907 16.8021 72.8126 18.0604 72.8233C19.2609 72.8314 20.3653 73.899 20.3928 75.0795C20.4203 76.303 19.3049 77.3975 18.0357 77.3921C16.7884 77.3868 15.75 76.381 15.7307 75.1575Z" fill="black"/>
<path d="M64.5773 39.2738C66.374 37.5043 68.0581 35.8451 69.7449 34.1859C70.0114 33.9251 70.2614 33.6427 70.5664 33.4303C71.2202 32.9705 71.9345 32.8979 72.5059 33.5137C73.0499 34.0999 73.0856 34.791 72.5142 35.4149C72.1021 35.8613 71.6543 36.2781 71.2202 36.703C69.407 38.4778 67.5993 40.258 65.7779 42.0274C64.9207 42.8611 64.2916 42.8637 63.418 42.0274C62.3933 41.0432 61.374 40.0536 60.374 39.0452C59.635 38.3003 59.5663 37.4963 60.1433 36.9154C60.7312 36.3238 61.679 36.3803 62.4098 37.0875C63.1158 37.7679 63.7889 38.4805 64.5746 39.2791L64.5773 39.2738Z" fill="#EF7B10"/>
</g>
<defs>
<clipPath id="clip0_618_278">
<rect width="81" height="76" fill="white" transform="translate(10 10)"/>
</clipPath>
</defs>
</svg>
