<svg width="100" height="100" viewBox="0 0 100 100" fill="none" xmlns="http://www.w3.org/2000/svg">
<g clip-path="url(#clip0_618_310)">
<path d="M10 20.5771C11.1453 17.1662 13.9827 15.6411 17.0141 14.384C20.6171 12.8877 24.412 12.1313 28.2689 11.6182C32.1051 11.1091 35.9536 10.9071 39.8146 11.039C46.0528 11.2513 52.2105 11.9912 58.0835 14.2685C59.9118 14.9775 61.6411 15.8761 63.1289 17.1848C64.6188 18.4935 65.4112 20.0886 65.3885 22.1166C65.3452 26.1519 65.3823 30.1872 65.37 34.2205C65.3679 34.946 65.4917 35.556 65.9003 36.2217C66.509 37.213 66.8743 38.363 67.2891 39.4656C67.4872 39.9911 67.7802 40.2673 68.3229 40.4631C69.623 40.933 70.8756 41.5327 72.1674 42.0294C72.479 42.149 72.9061 42.1737 73.2136 42.0624C74.2 41.7017 75.1554 41.2545 76.1233 40.8423C77.3305 40.3291 78.4468 40.4713 79.4043 41.3823C80.4093 42.3386 81.3895 43.3196 82.3511 44.3191C83.2839 45.2898 83.4696 46.411 82.9228 47.6558C82.4997 48.6182 82.0684 49.5786 81.7011 50.5638C81.5917 50.8564 81.6 51.2624 81.7114 51.5551C82.2438 52.94 82.8175 54.3106 83.4139 55.6687C83.5315 55.9367 83.7833 56.2211 84.0453 56.3365C85.0524 56.7878 86.0903 57.165 87.1098 57.5833C88.1993 58.0326 88.8968 58.8343 88.9484 60.0235C89.0124 61.5589 89.0165 63.1005 88.9567 64.6359C88.9071 65.8889 88.1766 66.7113 87.019 67.1688C86.0408 67.5562 85.0544 67.9272 84.099 68.3641C83.8163 68.494 83.5356 68.7825 83.4098 69.069C82.8196 70.4024 82.2624 71.7523 81.7465 73.1167C81.6268 73.432 81.6083 73.8607 81.7217 74.1739C82.0829 75.159 82.5224 76.1174 82.9413 77.0819C83.4655 78.2937 83.2963 79.4066 82.3986 80.3588C81.4473 81.3687 80.4609 82.3476 79.4559 83.3018C78.4799 84.2272 77.347 84.3921 76.1088 83.8542C75.1204 83.4234 74.134 82.9886 73.1269 82.6032C72.8793 82.5084 72.5285 82.5249 72.2788 82.6238C70.8714 83.1782 69.4744 83.7552 68.0918 84.3673C67.8277 84.4848 67.5656 84.7445 67.4377 85.0062C67.1034 85.6966 66.7918 86.4077 66.5648 87.1393C66.0943 88.65 65.2606 89.7423 63.5994 90.0019H59.1194C57.5345 89.6722 56.7009 88.6108 56.2386 87.1372C56.0178 86.4303 55.7434 85.7296 55.4029 85.0742C55.2378 84.7589 54.9035 84.4601 54.5754 84.3138C53.3145 83.7491 52.0062 83.2853 50.7557 82.7042C50.2873 82.4857 49.9303 82.4589 49.4701 82.6712C48.494 83.1225 47.5014 83.5471 46.4985 83.9387C45.4956 84.3302 44.47 84.287 43.6735 83.545C42.4003 82.3579 41.2281 81.0636 39.9941 79.8312C39.8208 79.6581 39.5505 79.4994 39.3173 79.487C35.7039 79.2727 32.0782 79.2006 28.4773 78.8605C24.249 78.4627 20.1136 77.5168 16.2217 75.7608C13.4627 74.516 10.9183 72.9827 10 69.7944L10 20.5771ZM80.5847 46.3739C80.4753 46.2276 80.3722 46.0524 80.2318 45.9102C79.4559 45.1229 78.6573 44.3583 77.8938 43.5607C77.5678 43.2186 77.2644 43.2309 76.8661 43.4102C75.6961 43.9358 74.5322 44.4902 73.3189 44.9024C72.8484 45.0611 72.2107 44.9889 71.7299 44.8076C69.9841 44.146 68.2858 43.3587 66.54 42.6972C65.9044 42.456 65.4938 42.1325 65.2565 41.4998C64.8169 40.323 64.3629 39.1503 63.8408 38.0085C63.717 37.7365 63.3084 37.4459 63.0133 37.4253C61.963 37.3552 60.9044 37.4108 59.8499 37.3902C59.3278 37.3799 59.0802 37.6128 58.9048 38.093C58.4817 39.2492 57.9906 40.3786 57.549 41.5265C57.3075 42.151 56.8763 42.4684 56.2448 42.7075C54.5217 43.3546 52.8193 44.0656 51.1416 44.8261C50.5246 45.1064 49.9901 45.1662 49.3813 44.8941C48.2794 44.4036 47.1547 43.9626 46.061 43.4535C45.5802 43.2289 45.2232 43.2145 44.8373 43.6287C44.1357 44.3789 43.4052 45.1043 42.6582 45.8092C42.2826 46.1657 42.2414 46.4934 42.458 46.9592C42.9636 48.0515 43.399 49.1788 43.9005 50.2732C44.2059 50.9368 44.1295 51.5056 43.8221 52.1713C43.075 53.7953 42.392 55.4523 41.7667 57.1279C41.5129 57.81 41.1745 58.2758 40.4832 58.5314C39.3276 58.958 38.2009 59.4567 37.0453 59.8834C36.616 60.042 36.42 60.2811 36.4221 60.7242C36.4283 61.8041 36.4324 62.882 36.42 63.962C36.4138 64.4525 36.6656 64.6833 37.101 64.8461C38.2298 65.2686 39.3358 65.7529 40.4687 66.1651C41.16 66.4165 41.5067 66.872 41.7626 67.5583C42.3982 69.2565 43.1019 70.9321 43.8509 72.5849C44.1295 73.197 44.21 73.7329 43.9376 74.3429C43.4279 75.4909 42.9554 76.6574 42.4395 77.8012C42.2579 78.2031 42.2496 78.4998 42.5922 78.8255C43.3928 79.588 44.1708 80.3712 44.9385 81.1667C45.2356 81.4758 45.5101 81.4964 45.8898 81.3254C47.0124 80.8163 48.1576 80.3629 49.2782 79.8498C49.9674 79.5344 50.5555 79.6148 51.2489 79.9363C52.8709 80.6886 54.5382 81.3522 56.2139 81.9808C56.868 82.226 57.3179 82.5599 57.5634 83.2194C58.005 84.3962 58.4652 85.5647 58.9729 86.7127C59.0781 86.9497 59.4165 87.2238 59.66 87.2362C60.7867 87.2939 61.9176 87.2526 63.0464 87.2733C63.5065 87.2815 63.7315 87.0837 63.8883 86.6653C64.3299 85.4905 64.8334 84.3385 65.2668 83.1596C65.5041 82.5125 65.9581 82.2219 66.5751 81.9849C68.2713 81.3357 69.9573 80.6515 71.6102 79.9013C72.2479 79.6107 72.7926 79.5221 73.4365 79.8147C74.5818 80.3341 75.7539 80.7895 76.8992 81.3068C77.2789 81.4779 77.5492 81.482 77.8505 81.1708C78.6016 80.3959 79.3672 79.6354 80.1452 78.8873C80.5104 78.5369 80.5661 78.2216 80.3412 77.7435C79.8067 76.6079 79.3631 75.429 78.8472 74.2831C78.5789 73.6875 78.68 73.1826 78.938 72.6014C79.6933 70.895 80.3412 69.1432 81.1089 67.4429C81.3194 66.9771 81.7341 66.4887 82.184 66.2661C83.2839 65.7199 84.4519 65.3057 85.6054 64.875C86.0862 64.6956 86.3813 64.4772 86.3627 63.8981C86.3256 62.849 86.3421 61.7959 86.3586 60.7469C86.3648 60.2729 86.1832 60.0276 85.7168 59.8607C84.5344 59.4361 83.3829 58.925 82.2088 58.4778C81.6021 58.247 81.3008 57.8162 81.0717 57.2247C80.3949 55.4874 79.6809 53.7624 78.9297 52.058C78.6842 51.5015 78.5913 51.0131 78.8451 50.4442C79.3651 49.2736 79.8542 48.0865 80.3536 46.9077C80.4238 46.7428 80.4919 46.5779 80.5806 46.3677L80.5847 46.3739ZM37.9574 13.6379C32.6292 13.6894 27.5899 14.1057 22.6497 15.332C19.7999 16.0389 17.0017 16.9148 14.5935 18.6769C11.9852 20.5874 11.9542 22.6463 14.6658 24.4187C16.2361 25.445 17.9943 26.257 19.7669 26.8877C24.055 28.4107 28.5392 28.9981 33.0646 29.2681C39.7981 29.6679 46.4779 29.3278 53.0442 27.6729C55.7908 26.9804 58.4838 26.1066 60.7971 24.3939C63.36 22.4979 63.3869 20.4514 60.729 18.6851C59.2287 17.6897 57.5531 16.8798 55.8507 16.2821C49.986 14.2273 43.8695 13.7348 37.9594 13.6379H37.9574ZM12.6311 26.3498C12.6311 29.8122 12.6765 33.1777 12.6104 36.5411C12.5815 38.0291 13.0995 39.2162 14.3026 39.9561C15.8441 40.9041 17.4454 41.8151 19.1272 42.4643C23.0356 43.9729 27.1566 44.6097 31.3126 44.9353C33.8467 45.1332 36.3994 45.1229 38.9417 45.2156C39.5216 45.2362 39.8848 45.0137 40.2871 44.5541C41.2839 43.4164 42.3755 42.3592 43.4774 41.3205C44.3895 40.461 45.477 40.3394 46.6285 40.8196C47.6232 41.236 48.6013 41.6914 49.6104 42.0706C49.8972 42.1778 50.2996 42.1696 50.5885 42.0562C51.9753 41.5204 53.3455 40.9474 54.7054 40.3498C54.9736 40.2323 55.2646 39.987 55.3822 39.7294C55.8135 38.7731 56.1788 37.7859 56.5647 36.807C57.095 35.4591 58.0855 34.7852 59.53 34.777C60.5742 34.7708 61.6184 34.777 62.6502 34.777V26.3395C60.0005 28.2582 57.0826 29.3546 54.0409 30.1295C46.2591 32.1163 38.3598 32.5264 30.3944 31.702C24.183 31.059 18.0934 29.9482 12.6352 26.3477L12.6311 26.3498ZM12.6311 42.0809C12.6311 45.601 12.6827 48.9418 12.6084 52.2785C12.5733 53.8015 13.1201 54.9763 14.3418 55.7491C15.7017 56.6085 17.1152 57.4308 18.601 58.0306C22.0245 59.4135 25.644 60.0668 29.2945 60.5222C30.7637 60.7057 32.2454 60.786 33.7972 60.92C33.6713 58.7807 34.831 57.7544 36.6037 57.2062C37.068 57.0619 37.4993 56.7981 37.9677 56.6848C38.9417 56.4457 39.4741 55.8748 39.6722 54.8876C39.7857 54.3188 39.9776 53.7129 40.3078 53.2471C41.4077 51.6973 41.2508 50.2299 40.3367 48.6574C40.0127 48.103 39.7774 47.8392 39.0965 47.8516C32.8211 47.9752 26.6201 47.4126 20.5552 45.7144C17.7776 44.9374 15.1197 43.8863 12.6311 42.0809ZM12.6311 57.8574C12.6311 61.2559 12.7157 64.5473 12.598 67.8324C12.532 69.714 13.2646 71.0743 14.7958 71.9254C16.5127 72.8796 18.3018 73.7555 20.1507 74.4089C23.8012 75.699 27.625 76.2678 31.4715 76.5461C34.1356 76.7377 36.8162 76.7068 39.4906 76.7604C39.6784 76.7645 39.9838 76.713 40.0395 76.5955C40.4791 75.6702 40.9661 74.7469 41.2302 73.7679C41.3334 73.3846 40.9042 72.8529 40.7081 72.3933C40.508 71.9213 40.1798 71.472 40.1076 70.9836C39.794 68.8876 38.401 67.9643 36.5252 67.4697C34.6329 66.9689 33.6672 65.7447 33.7724 63.7497C33.7745 63.7085 33.725 63.6652 33.6858 63.6013C26.3601 63.0016 19.0467 62.2823 12.6331 57.8595L12.6311 57.8574Z" fill="black"/>
<path d="M17.6269 36.8731C17.0945 36.6134 16.3433 36.3393 15.6995 35.9044C15.1919 35.5623 15.1176 34.9646 15.4106 34.3876C15.7201 33.7775 16.2567 33.5343 16.884 33.7116C17.4907 33.8826 18.0933 34.1403 18.6339 34.4659C19.1581 34.7812 19.3397 35.3171 19.1312 35.9353C18.9249 36.5516 18.4647 36.8051 17.6269 36.8731Z" fill="#EF7B10"/>
<path d="M23.3455 35.8137C23.7871 35.9168 24.4247 36.0157 25.0252 36.2218C25.634 36.4299 25.9332 37.1039 25.7764 37.7283C25.601 38.4249 25.1119 38.7918 24.4309 38.7403C23.8263 38.6929 23.2175 38.5342 22.6459 38.3281C21.9753 38.0849 21.74 37.5181 21.8865 36.8359C22.0269 36.1723 22.487 35.857 23.3475 35.8158L23.3455 35.8137Z" fill="#EF7B10"/>
<path d="M61.3645 72.8735C55.5246 72.8446 50.8031 68.1086 50.8361 62.3112C50.8691 56.5137 55.6277 51.7963 61.447 51.7942C67.2622 51.7921 71.9837 56.5941 71.9424 62.4699C71.9011 68.2632 67.1859 72.9003 61.3645 72.8714V72.8735ZM61.4037 54.4899C56.998 54.5002 53.527 57.9811 53.5353 62.3792C53.5435 66.7154 57.0661 70.254 61.3727 70.252C65.7455 70.252 69.3361 66.6515 69.3155 62.2885C69.2969 57.9811 65.7434 54.4775 61.4037 54.4878V54.4899Z" fill="#EF7B10"/>
</g>
<defs>
<clipPath id="clip0_618_310">
<rect width="79" height="79" fill="white" transform="translate(10 11)"/>
</clipPath>
</defs>
</svg>
