<svg width="83" height="86" viewBox="0 0 83 86" fill="none" xmlns="http://www.w3.org/2000/svg">
<g clip-path="url(#clip0_281_9241)">
<path d="M53.6481 18.5665C53.2889 18.073 53.0621 17.6648 52.7456 17.344C49.6923 14.2709 46.6233 11.2135 43.5565 8.15383C43.3792 7.97662 43.204 7.77923 42.9885 7.66258C42.4407 7.36424 41.8997 7.41135 41.4551 7.86671C41.0106 8.32207 40.9837 8.86267 41.2868 9.40326C41.3945 9.59393 41.5674 9.74871 41.7245 9.90573C44.807 12.9878 47.8917 16.0699 50.9765 19.1497C51.1336 19.3068 51.284 19.5445 51.4726 19.5849C51.8835 19.6746 52.3864 19.807 52.7254 19.6477C53.0868 19.4795 53.3001 18.9972 53.6481 18.562V18.5665ZM16.975 55.224C16.71 54.7754 16.5776 54.3941 16.3194 54.1361C13.1494 50.9419 9.96139 47.7656 6.77564 44.587C6.65665 44.4681 6.53317 44.3492 6.38949 44.2662C5.80353 43.9343 5.24451 44.0016 4.79549 44.4973C4.37118 44.9639 4.36444 45.5112 4.68998 46.0428C4.80447 46.229 4.97734 46.3815 5.13674 46.5386C8.20126 49.6027 11.2658 52.6646 14.3303 55.7265C14.5076 55.9037 14.6828 56.1639 14.8938 56.2065C15.3024 56.2895 15.8008 56.3792 16.1465 56.2177C16.4855 56.0607 16.6809 55.5941 16.9727 55.224H16.975ZM21.6245 50.639C21.3888 50.2083 21.281 49.8405 21.043 49.6004C19.0247 47.5525 16.9929 45.5202 14.9432 43.5058C14.3931 42.9652 13.6298 42.9966 13.1426 43.4834C12.6128 44.015 12.624 44.7216 13.201 45.3407C13.6388 45.8095 14.1058 46.2514 14.5593 46.7045C16.0994 48.2433 17.6081 49.8158 19.2043 51.294C19.5388 51.6036 20.2281 51.727 20.6928 51.635C21.043 51.5654 21.2967 51.0136 21.6245 50.639ZM41.2957 15.5988C40.9118 15.9263 40.3775 16.1619 40.2877 16.514C40.1754 16.9492 40.2675 17.6356 40.5571 17.9407C42.5193 20.0021 44.5511 21.9985 46.5761 23.9994C47.2003 24.6163 47.885 24.623 48.4305 24.0914C48.9941 23.5418 48.9739 22.8307 48.325 22.1757C46.3584 20.195 44.3849 18.2211 42.3936 16.265C42.1354 16.0093 41.7582 15.8747 41.2957 15.5988Z" fill="white"/>
<path d="M20.4869 0C21.7038 0.524896 23.0486 0.865855 24.1172 1.60609C28.4547 4.60967 28.9643 10.7178 25.2914 14.5064C25.1387 14.6657 24.9883 14.8272 24.8446 14.9797C25.3363 15.7962 25.8616 15.9981 26.8337 15.6459C30.5403 14.3023 34.6825 15.8232 36.7794 19.1654C38.892 22.5347 38.443 26.7966 35.6658 29.6656C35.5131 29.8226 35.3133 29.937 35.0799 30.1165C36.5257 31.4579 37.5719 32.9182 38.1646 34.6768C38.8852 36.8235 37.7649 38.9522 35.5917 39.5153C35.2729 39.5983 34.9294 39.614 34.5949 39.614C31.2341 39.6207 27.8754 39.6252 24.5146 39.6162C21.7666 39.6095 20.0559 37.1936 20.9562 34.6118C21.4613 33.1627 22.2448 31.8863 23.3359 30.8074C23.5312 30.6145 23.8007 30.5001 24.0992 30.3094C22.2403 28.636 21.3019 26.7473 21.0213 24.5243H17.3506C17.0767 26.7764 16.1203 28.6472 14.423 30.1703C15.7521 31.3996 16.7556 32.7903 17.3685 34.448C18.3743 37.1667 16.6816 39.6117 13.7764 39.6162C10.4717 39.6207 7.16923 39.6207 3.86449 39.6162C0.970605 39.6117 -0.733398 37.1487 0.317292 34.439C0.627111 33.6405 1.04469 32.8643 1.5184 32.1488C1.97864 31.4579 2.57583 30.8567 3.16403 30.1524C3.0181 29.9954 2.8385 29.798 2.6544 29.6073C0.317292 27.1914 -0.369697 23.4947 0.9504 20.4238C1.32533 19.5513 2.00333 19.2058 2.73073 19.5221C3.39752 19.8115 3.61978 20.5203 3.31221 21.3772C2.18518 24.5086 3.11913 27.2004 5.94567 28.9545C7.1131 29.6791 7.12432 30.7199 5.93669 31.422C4.34943 32.3619 3.27853 33.7033 2.65889 35.4215C2.32887 36.3367 2.79584 37.0837 3.7702 37.0904C7.13106 37.1173 10.4897 37.1151 13.8505 37.0904C14.8833 37.0837 15.339 36.3502 14.982 35.3722C14.3804 33.7122 13.3476 32.4023 11.8232 31.4826C10.4942 30.6795 10.5054 29.697 11.839 28.8805C14.4567 27.2789 15.5164 24.2148 14.4028 21.4647C13.2736 18.6742 10.3325 17.1915 7.33536 17.9026C6.35427 18.1358 5.77055 17.9362 5.47196 17.2655C5.13744 16.514 5.55053 15.7424 6.46652 15.4822C8.15256 15.0066 9.83187 15.0224 11.5 15.5899C12.6764 15.9891 12.6786 15.9824 13.5632 14.9775C12.0073 13.5194 10.9858 11.772 10.7254 9.62086C10.1843 5.2041 12.9862 1.19335 17.3349 0.188424C17.5482 0.139075 17.7569 0.0628081 17.968 0C18.8076 0 19.6495 0 20.4892 0H20.4869ZM29.4784 37.1106C31.1016 37.1106 32.7248 37.1196 34.348 37.1084C35.6546 37.0994 36.1081 36.4152 35.6276 35.186C35.0305 33.6562 34.0516 32.4292 32.6529 31.5566C31.16 30.6257 31.16 29.7643 32.6574 28.8356C34.9339 27.4247 36.025 24.7666 35.3582 22.2498C34.6443 19.5535 32.3678 17.7635 29.6109 17.7343C26.8876 17.7052 24.5662 19.4301 23.7962 22.0524C23.0261 24.6813 24.0925 27.3955 26.47 28.8581C27.9114 29.7441 27.9181 30.6616 26.488 31.5342C25.022 32.4269 24.0252 33.7078 23.4235 35.2959C23.0037 36.4018 23.4931 37.0972 24.6942 37.1061C26.2904 37.1196 27.8844 37.1106 29.4807 37.1106H29.4784ZM23.6839 17.4786C23.2888 17.1533 22.9475 16.8258 22.5636 16.5612C20.7025 15.2848 20.7002 14.742 22.5771 13.4701C24.885 11.9066 25.7965 8.95913 24.7795 6.35932C23.8007 3.85821 21.1088 2.20277 18.5921 2.55494C15.8621 2.93628 13.8438 4.7622 13.3005 7.33958C12.7729 9.84741 13.9089 12.3194 16.2483 13.7572C17.492 14.5221 17.492 15.4934 16.2707 16.2785C15.7252 16.6284 15.2245 17.0479 14.771 17.3844C15.3682 18.2502 15.9137 18.9591 16.3695 19.724C16.7803 20.4149 16.915 21.4871 17.492 21.8056C18.1588 22.1735 19.1803 21.8976 20.0469 21.8998C20.2714 21.8998 20.5161 21.9559 20.7137 21.8819C20.936 21.7989 21.239 21.6307 21.2929 21.44C21.7217 19.9259 22.5299 18.6495 23.6817 17.4764L23.6839 17.4786Z" fill="#EF7B10"/>
<path d="M37.549 60.6233C34.4957 63.6897 31.5031 66.6955 28.461 69.7484C32.0486 73.057 35.0256 76.8726 39.1767 79.4029C55.1907 89.1606 75.8655 80.4078 79.7989 62.1688C81.8149 52.8194 79.3768 44.5646 72.8302 37.5772C70.8994 35.518 68.8273 33.5889 66.8718 31.6508C63.8791 34.6499 60.882 37.6512 57.8197 40.7198C59.279 42.1712 60.8191 43.7122 62.3727 45.2398C63.7242 46.5677 64.8333 48.0639 65.5742 49.8158C65.6999 50.1141 65.8862 50.5426 65.7672 50.7579C65.5315 51.1796 65.1476 51.6933 64.7345 51.792C64.3731 51.8795 63.6344 51.5565 63.4975 51.2312C62.1931 48.1469 59.609 46.146 57.3729 43.8535C55.1256 41.5498 52.82 39.2999 50.5502 37.0186C47.919 34.3762 47.9212 30.8949 50.5547 28.239C51.9129 26.8662 53.2667 25.4866 54.6587 24.1475C57.1035 21.7944 60.6171 21.7697 63.026 24.1475C67.0312 28.0999 71.088 32.0075 74.9406 36.1057C81.0606 42.6175 83.7188 50.4327 82.8365 59.3245C81.5411 72.3751 72.1544 82.8618 59.288 85.3697C48.9562 87.384 39.9019 84.5442 32.345 77.1844C28.6339 73.5707 25.0014 69.8807 21.3487 66.2087C18.7197 63.5663 18.7332 60.067 21.3554 57.4156C22.6553 56.1033 23.9597 54.7933 25.2775 53.499C27.9087 50.9105 31.3818 50.9015 34.0086 53.5035C37.43 56.8929 40.8089 60.3227 44.2348 63.7054C48.8552 68.2657 55.9698 68.4003 60.5789 64.0261C62.7139 62.0006 63.9083 59.504 64.1934 56.5766C64.2832 55.6525 64.8557 55.0513 65.5921 55.1208C66.3599 55.1926 66.7775 55.805 66.7236 56.7763C66.3779 62.9001 61.3287 68.499 55.2222 69.5084C50.2336 70.3339 45.9276 68.9835 42.3378 65.4079C40.7752 63.8512 39.2194 62.2877 37.5558 60.6255L37.549 60.6233ZM35.7328 58.8041C34.5878 57.6623 33.4383 56.5183 32.2911 55.3766C32.1721 55.2577 32.0554 55.1365 31.9296 55.0266C30.5759 53.831 28.6631 53.7951 27.3632 55.0266C25.8231 56.4892 24.3256 57.9966 22.8551 59.5286C21.7707 60.6592 21.517 62.4582 22.5206 63.5932C23.8384 65.0827 25.41 66.3523 26.8468 67.6914C29.7048 64.8314 32.6862 61.8503 35.7305 58.8018L35.7328 58.8041ZM64.7974 29.7082C63.5042 28.3668 62.2515 26.929 60.8505 25.6549C59.6584 24.5714 57.7569 24.7127 56.558 25.859C55.0201 27.3283 53.5114 28.8289 52.0454 30.37C50.8847 31.5902 50.7972 33.5059 51.9242 34.7306C53.1881 36.1034 54.5913 37.3484 55.8845 38.6046C58.8322 35.6638 61.8182 32.6826 64.7996 29.7105L64.7974 29.7082Z" fill="#1D1E20"/>
<path d="M53.6482 18.5665C53.3002 18.9995 53.0869 19.484 52.7255 19.6522C52.3887 19.8092 51.8858 19.6769 51.4727 19.5894C51.2841 19.549 51.1337 19.3113 50.9766 19.1542C47.8918 16.0744 44.8071 12.9923 41.7247 9.91024C41.5675 9.75322 41.3924 9.5962 41.2869 9.40777C40.9815 8.86493 41.0107 8.32658 41.4552 7.87122C41.8998 7.41586 42.4431 7.37099 42.9886 7.66709C43.2042 7.78373 43.3793 7.98113 43.5566 8.15834C46.6234 11.218 49.6924 14.2754 52.7457 17.3485C53.0622 17.667 53.289 18.0775 53.6482 18.571V18.5665Z" fill="#1D1E20"/>
<path d="M16.9747 55.224C16.6828 55.5964 16.4875 56.0607 16.1485 56.2177C15.8027 56.3792 15.3066 56.2895 14.8957 56.2065C14.6847 56.1639 14.5096 55.9015 14.3322 55.7265C11.2655 52.6646 8.20096 49.6027 5.1387 46.5386C4.98154 46.3815 4.80643 46.229 4.69193 46.0428C4.36639 45.5112 4.37313 44.9639 4.79745 44.4973C5.24646 44.0016 5.80548 43.9343 6.39144 44.2663C6.53513 44.347 6.65861 44.4681 6.77759 44.587C9.96334 47.7656 13.1513 50.9419 16.3214 54.1361C16.5773 54.3941 16.712 54.7754 16.9769 55.224H16.9747Z" fill="#1D1E20"/>
<path d="M21.6247 50.6391C21.2969 51.0114 21.0432 51.5655 20.693 51.635C20.2283 51.727 19.539 51.6036 19.2045 51.2941C17.6083 49.8158 16.0996 48.2434 14.5595 46.7046C14.106 46.2515 13.639 45.8096 13.2012 45.3408C12.622 44.7216 12.6108 44.0151 13.1428 43.4834C13.63 42.9967 14.3933 42.9653 14.9434 43.5059C16.9931 45.5202 19.0249 47.5547 21.0432 49.6005C21.2812 49.8427 21.3912 50.2084 21.6247 50.6391Z" fill="#1D1E20"/>
<path d="M41.2956 15.5988C41.7581 15.8748 42.1353 16.0093 42.3935 16.2651C44.3849 18.2211 46.3583 20.1951 48.3249 22.1758C48.9738 22.8308 48.994 23.5441 48.4305 24.0914C47.8849 24.623 47.2002 24.6163 46.576 23.9994C44.551 21.9985 42.5192 20.0021 40.557 17.9407C40.2674 17.6356 40.1754 16.9492 40.2876 16.5141C40.3774 16.1619 40.914 15.9241 41.2956 15.5988Z" fill="#1D1E20"/>
</g>
<defs>
<clipPath id="clip0_281_9241">
<rect width="83" height="86" fill="white"/>
</clipPath>
</defs>
</svg>
