<svg width="57" height="50" viewBox="0 0 57 50" fill="none" xmlns="http://www.w3.org/2000/svg">
<g id="Layer_1" clip-path="url(#clip0_573_288)">
<path id="Vector" d="M56.9991 22.2853C56.6784 23.261 56.2308 24.1433 55.3775 24.7678C54.4685 25.4333 53.3851 25.5424 52.345 25.7789C46.1557 27.1893 39.9636 28.587 33.7047 30.0031C33.7047 30.8995 33.7047 31.7988 33.7047 32.698C33.7047 33.1497 33.7214 33.6029 33.7005 34.0546C33.6517 35.0813 33.2111 35.5132 32.2002 35.5189C30.5675 35.5274 28.9362 35.5217 27.3035 35.5217C26.4878 35.5217 25.6708 35.526 24.8551 35.5217C23.7578 35.5132 23.313 35.07 23.2991 33.9427C23.2851 32.8509 23.2963 31.7577 23.2963 30.6644C23.2963 30.4591 23.2963 30.2552 23.2963 30.0102C21.5743 29.6165 19.8845 29.2271 18.1932 28.8447C13.1751 27.709 8.15569 26.5804 3.13904 25.4404C1.22467 25.0043 0.00885263 23.455 0.00327547 21.464C-0.00369599 18.7507 -0.00369599 16.0389 0.00327547 13.3256C0.00885263 10.88 1.5593 9.27411 3.98258 9.18773C4.0746 9.1849 4.16802 9.18773 4.26144 9.18773C20.4171 9.18773 36.5713 9.18773 52.727 9.18773C54.1534 9.18773 55.4208 9.57574 56.2587 10.8262C56.585 11.3119 56.7579 11.9052 57.0005 12.449V22.2853H56.9991ZM33.7479 27.3196C33.971 27.2771 34.1522 27.246 34.3321 27.2063C40.5423 25.7959 46.7511 24.3826 52.9612 22.975C54.1115 22.7144 54.4001 22.366 54.4015 21.151C54.4043 18.6261 54.4057 16.1012 54.4015 13.5763C54.4001 12.2579 54.0069 11.8642 52.7103 11.8642C36.5699 11.8642 20.4296 11.8642 4.28933 11.8642C2.99263 11.8642 2.59944 12.2579 2.59666 13.5763C2.59247 16.1012 2.59387 18.6261 2.59666 21.151C2.59666 22.3675 2.88527 22.713 4.03696 22.9736C9.43426 24.1985 14.8316 25.4291 20.2289 26.6569C21.23 26.8849 22.2338 27.1029 23.3005 27.3394C23.3005 26.9528 23.2782 26.6526 23.3047 26.3566C23.3827 25.4985 23.7773 25.0213 24.5205 25.0156C27.1738 24.9929 29.8258 24.9958 32.4791 25.0156C33.1428 25.0198 33.5234 25.4036 33.6364 26.0819C33.6991 26.4671 33.7089 26.8622 33.7493 27.3196H33.7479ZM31.0416 32.8693V27.668H25.9705V32.8693H31.0416Z" fill="#EF7B10"/>
<path id="Vector_2" d="M28.4807 49.9944C20.8191 49.9944 13.1561 49.9873 5.49445 50C3.78645 50.0029 2.43259 49.3911 1.70198 47.7767C1.43288 47.1834 1.30321 46.4725 1.29903 45.8154C1.26836 40.294 1.27672 34.774 1.28509 29.2526C1.28648 28.0121 1.98921 27.4032 3.01262 27.7062C3.56475 27.8691 3.87568 28.2996 3.88962 28.992C3.90636 29.8587 3.8952 30.7254 3.8952 31.592C3.8952 36.2652 3.8952 40.9383 3.8952 45.6115C3.8952 46.9511 4.30094 47.3675 5.61994 47.3675C20.8707 47.3675 36.12 47.3675 51.3708 47.3675C52.7149 47.3675 53.1095 46.9554 53.1095 45.569C53.1095 40.1227 53.1095 34.6777 53.1095 29.2314C53.1095 28.2387 53.4511 27.7699 54.2486 27.6439C54.9304 27.5363 55.5509 27.9838 55.661 28.6777C55.6987 28.9184 55.7196 29.1648 55.7196 29.407C55.7224 34.8151 55.7196 40.2232 55.7238 45.6313C55.7238 47.0559 55.3613 48.3092 54.1845 49.2042C53.5445 49.6913 52.8264 49.9774 52.0233 49.9802C49.2584 49.9915 46.495 49.9929 43.7301 49.9944C38.6465 49.9958 33.5629 49.9944 28.4793 49.9944H28.4807Z" fill="black"/>
<path id="Vector_3" d="M28.5255 0.00847334C30.6964 0.00847334 32.8673 -0.0141844 35.0382 0.0155539C36.9442 0.0410439 38.3873 1.20933 38.7568 3.10126C38.9129 3.89994 38.8641 4.75244 38.8125 5.5752C38.7735 6.1997 38.1949 6.58347 37.5256 6.56789C36.8647 6.55232 36.3698 6.13598 36.307 5.49023C36.2498 4.89264 36.2596 4.28796 36.1996 3.69036C36.1425 3.114 35.7967 2.78263 35.2306 2.70333C34.9936 2.66934 34.7524 2.63536 34.514 2.63536C30.5068 2.63111 26.4982 2.63252 22.491 2.63252C22.4171 2.63252 22.3432 2.63111 22.2679 2.63252C21.1929 2.6651 20.7607 3.09984 20.7272 4.186C20.7133 4.61933 20.7342 5.05407 20.6937 5.48457C20.6366 6.09208 20.1918 6.50558 19.5909 6.56081C18.9132 6.62312 18.2844 6.29883 18.2161 5.68991C18.046 4.18458 17.9665 2.67076 19.0345 1.39484C19.7442 0.546595 20.6463 0.0467083 21.7353 0.0282989C23.9982 -0.00851998 26.2625 0.01697 28.5255 0.01697C28.5255 0.0141378 28.5255 0.0113056 28.5255 0.00847334Z" fill="#EF7B10"/>
</g>
<defs>
<clipPath id="clip0_573_288">
<rect width="57" height="50" fill="white"/>
</clipPath>
</defs>
</svg>
