<svg width="16" height="15" viewBox="0 0 16 15" fill="none" xmlns="http://www.w3.org/2000/svg">
<path d="M10.2174 14.8608H5.2628C5.12366 14.8498 4.98223 14.8433 4.84308 14.8301C4.36405 14.7819 3.8759 14.7753 3.40599 14.6767C1.69516 14.3173 0.623045 13.3048 0.203323 11.67C0.0162722 10.9424 0.0162722 10.1929 0.0094289 9.44997C-0.0019766 8.10876 -0.0042577 6.76975 0.0094289 5.42854C0.0162722 4.66151 0.0231155 3.8901 0.217009 3.13622C0.513552 1.98129 1.18648 1.09811 2.29509 0.545853C3.0661 0.160147 3.90555 0.0418058 4.76324 0.0308482C6.19806 0.0111246 7.63287 0.00235852 9.06768 0.00016701C10.0143 0.00016701 10.961 -0.0107905 11.8985 0.144807C13.7599 0.45381 15.0601 1.70516 15.3498 3.57891C15.3863 3.81559 15.4114 4.05665 15.4434 4.29553V10.4515C15.4137 10.7145 15.3886 10.9796 15.3498 11.2404C15.2403 11.9746 14.9871 12.654 14.5104 13.2457C13.6778 14.2779 12.5372 14.7096 11.2233 14.8038C10.888 14.8279 10.5527 14.8433 10.2174 14.863V14.8608ZM7.74008 13.5459C7.74008 13.5459 7.74008 13.5284 7.74008 13.5196C8.29895 13.5196 8.85782 13.5306 9.41669 13.5174C10.19 13.4999 10.9701 13.5306 11.7343 13.3815C12.8383 13.1668 13.566 12.5488 13.8762 11.4946C14.0222 10.9972 14.0428 10.4822 14.0519 9.97154C14.0701 8.74868 14.0884 7.52363 14.0747 6.29857C14.0656 5.45922 14.0405 4.61549 13.9584 3.77833C13.842 2.61902 13.071 1.81036 11.8917 1.52327C11.2553 1.36767 10.6051 1.36986 9.95731 1.36329C8.67761 1.35014 7.4002 1.35452 6.1205 1.35671C5.35633 1.35671 4.5876 1.34576 3.83255 1.47505C2.65551 1.67667 1.88678 2.32098 1.58795 3.4518C1.4488 3.97557 1.43512 4.51468 1.43055 5.0516C1.41915 6.64264 1.41687 8.23587 1.43055 9.82691C1.43512 10.2981 1.47618 10.7758 1.55373 11.2404C1.67919 12.0009 2.07154 12.6167 2.76728 13.0265C3.27368 13.3246 3.8394 13.4429 4.42108 13.4626C5.52741 13.5021 6.63603 13.5174 7.74236 13.5437L7.74008 13.5459Z" fill="#4A4D50"/>
<path d="M11.7156 7.43386C11.7134 9.53771 9.92269 11.2559 7.73739 11.2559C5.54525 11.2559 3.74775 9.52456 3.75687 7.4229C3.76599 5.32124 5.5635 3.59871 7.74424 3.60967C9.93866 3.61844 11.7202 5.33658 11.7179 7.43605L11.7156 7.43386ZM7.73739 9.9015C9.16308 9.9015 10.3082 8.80356 10.3105 7.43386C10.3105 6.06416 9.16764 4.95964 7.74424 4.95964C6.3117 4.95964 5.16431 6.05759 5.16659 7.43605C5.16659 8.80575 6.3117 9.90369 7.73739 9.90369V9.9015Z" fill="#4A4D50"/>
<path d="M11.8656 4.35031C11.3478 4.35031 10.9395 3.95803 10.9395 3.46056C10.9395 2.96528 11.3523 2.56642 11.8656 2.56861C12.3788 2.56861 12.794 2.96966 12.794 3.46275C12.794 3.95584 12.3811 4.3525 11.8633 4.3525L11.8656 4.35031Z" fill="#4A4D50"/>
</svg>
