<svg width="62" height="62" viewBox="0 0 62 62" fill="none" xmlns="http://www.w3.org/2000/svg">
<g id="Isolation_Mode" clip-path="url(#clip0_573_479)">
<path id="Vector" d="M62.001 58.4926C61.5782 59.2585 61.2559 60.104 60.7076 60.7695C60.0045 61.6233 58.9748 62 57.8531 62C44.493 62 31.137 62.0084 17.7768 62C15.4413 62 13.6541 60.1124 13.6081 57.6345C13.583 56.1236 13.6039 54.6084 13.6039 53.0933C13.6039 45.7477 13.6039 38.4021 13.6039 31.0565C13.6039 28.7838 14.8219 27.1222 16.8686 26.6157C17.2913 26.5111 17.7475 26.4943 18.187 26.4943C20.7109 26.4818 23.2306 26.4776 25.7544 26.4985C26.2316 26.4985 26.3781 26.3688 26.3697 25.8874C26.3404 24.5983 26.3488 23.305 26.3613 22.0116C26.3822 19.7682 27.7551 18.4121 30.0027 18.4121C35.2304 18.4121 40.4539 18.4121 45.6816 18.4121C47.8707 18.4121 49.277 19.8184 49.2812 21.9991C49.2812 23.4682 49.2812 24.9373 49.2812 26.486H49.976C52.458 26.486 54.94 26.486 57.422 26.486C59.7659 26.486 61.1932 27.5407 61.8963 29.7758C61.9131 29.826 61.9675 29.8679 62.001 29.9139V58.4926ZM15.592 40.3233V40.9595C15.592 46.4257 15.6339 51.8962 15.5711 57.3625C15.5501 59.2711 16.8728 60.0873 18.2875 60.0873C31.3002 60.058 44.3172 60.0705 57.3299 60.0705C59.1799 60.0705 60.0673 59.179 60.0673 57.3206C60.0673 51.8544 60.0673 46.3839 60.0673 40.9176C60.0673 40.7041 60.0673 40.4949 60.0673 40.3986C54.4043 41.9263 48.6073 42.6337 42.8564 43.9312C42.8564 44.5883 42.8732 45.2705 42.8564 45.9528C42.7769 48.552 40.5753 50.7033 37.9552 50.7536C35.2555 50.808 32.987 48.7989 32.8112 46.1621C32.761 45.4045 32.8028 44.6427 32.8028 43.8642C30.1367 43.3578 27.5584 42.9057 25.001 42.37C21.8828 41.7129 18.6767 41.4366 15.592 40.3233ZM32.7693 41.8594C32.7693 40.7586 32.7568 39.775 32.7693 38.7872C32.7903 37.5273 33.5144 36.8074 34.7784 36.7949C36.7958 36.7823 38.8132 36.7823 40.8306 36.7949C42.1449 36.8033 42.8522 37.5483 42.8564 38.8876C42.8564 39.8754 42.8564 40.859 42.8564 41.8719C42.982 41.8552 43.0615 41.851 43.1369 41.8384C47.0922 41.085 51.0475 40.34 54.9986 39.5741C56.1622 39.348 57.3383 39.1346 58.46 38.7704C59.6278 38.3937 60.0589 37.6487 60.0589 36.4224C60.0589 34.6686 60.0087 32.9107 60.0756 31.157C60.1384 29.5665 59.1004 28.3987 57.3676 28.4197C52.6463 28.4825 47.9251 28.4448 43.2038 28.4448C34.7491 28.4448 26.2944 28.4406 17.8396 28.4448C16.5756 28.4448 15.6087 29.4033 15.5962 30.6589C15.5753 32.6554 15.6046 34.6561 15.5836 36.6526C15.5753 37.5943 16.0231 38.2347 16.8225 38.6281C17.2871 38.8542 17.7978 39.0132 18.3042 39.1137C21.82 39.7959 25.3401 40.4572 28.8601 41.1227C30.1199 41.3613 31.3839 41.5957 32.7652 41.8552L32.7693 41.8594ZM47.3391 26.4148C47.3391 24.9708 47.3391 23.5812 47.3391 22.1958C47.3391 20.8606 46.8159 20.3458 45.4598 20.3458C40.3577 20.3458 35.2597 20.3458 30.1576 20.3458C29.9776 20.3458 29.7934 20.3374 29.6135 20.3626C28.9354 20.4546 28.362 20.9276 28.3494 21.5512C28.3118 23.1585 28.3369 24.7657 28.3369 26.3939H30.4464V22.4051H45.1878V26.4148H47.3391ZM40.9185 38.7872H34.7533C34.7533 41.2483 34.724 43.6633 34.7784 46.0825C34.7909 46.5681 35.0546 47.0954 35.3351 47.5182C36.0759 48.6315 37.4906 49.071 38.7546 48.6692C40.0354 48.2632 40.8934 47.0787 40.9102 45.6263C40.9311 43.8517 40.9143 42.077 40.9143 40.3023C40.9143 39.8043 40.9143 39.3062 40.9143 38.7872H40.9185ZM32.4512 26.4441H43.1996V24.3639H32.4512V26.4441Z" fill="black"/>
<path id="Vector_2" d="M30.8765 0C31.8099 0.389253 32.467 1.11753 33.1367 1.83744C35.2253 4.08506 37.3138 6.33268 39.4192 8.55937C40.0512 9.22906 40.3735 9.97826 40.3609 10.8991C40.3442 12.3305 40.3609 13.7662 40.3525 15.1976C40.3525 16.0054 39.9842 16.4616 39.3689 16.4533C38.762 16.4449 38.3979 15.9719 38.3937 15.1767C38.3937 13.9922 38.3937 12.8077 38.3937 11.5562C37.7701 11.5562 37.2092 11.5562 36.6483 11.5562C35.376 11.5478 34.1036 11.5939 32.8353 11.5143C30.9016 11.393 29.4493 9.81084 29.4242 7.86458C29.4032 6.12759 29.4158 4.39479 29.4158 2.6578C29.4158 2.44015 29.4158 2.22251 29.4158 1.93789H28.7126C20.2579 1.93789 11.799 1.93789 3.34422 1.93789C2.23925 1.93789 1.92952 2.23925 1.92952 3.32748C1.92952 19.2701 1.92952 35.2127 1.92952 51.1595C1.92952 52.2436 2.24762 52.5617 3.33585 52.5617C5.71741 52.5617 8.09897 52.5617 10.4805 52.5617C11.2423 52.5617 11.665 52.9258 11.6525 53.5453C11.6399 54.1396 11.2214 54.4912 10.4973 54.4912C7.9734 54.4912 5.45372 54.4996 2.92986 54.4912C1.27658 54.487 0 53.2272 0 51.5906C0 35.3592 0 19.132 0 2.90893C0 1.67839 0.719908 0.644569 1.85837 0.184163C2.00905 0.125565 2.15135 0.0627827 2.29785 0H30.8765ZM36.9916 9.58064C35.0746 7.50462 33.2665 5.5458 31.3579 3.47816C31.3579 5.04773 31.3369 6.43732 31.3662 7.82272C31.383 8.78539 32.1029 9.54297 33.0237 9.56808C34.2877 9.60157 35.5559 9.57645 36.9916 9.57645V9.58064Z" fill="#EF7B10"/>
<path id="Vector_3" d="M47.7101 0C47.9236 0.389253 48.2207 0.753392 48.3379 1.16776C48.5807 2.01742 48.7481 2.888 48.8946 3.75859C48.9574 4.11436 49.1248 4.25667 49.4429 4.37386C50.121 4.62081 50.7697 4.94309 51.452 5.18166C51.6738 5.257 52.0044 5.24863 52.2012 5.13562C53.0132 4.65429 53.7917 4.11436 54.5869 3.59954C55.2691 3.15588 55.5956 3.18517 56.1858 3.76278C56.9057 4.47013 57.6047 5.19004 58.3204 5.90157C58.7557 6.33687 58.8101 6.79727 58.4711 7.31209C57.9311 8.13664 57.3745 8.95281 56.868 9.79828C56.7508 9.99082 56.7424 10.3257 56.822 10.5475C57.0647 11.2465 57.3493 11.9371 57.6674 12.6068C57.7595 12.8035 57.9855 13.0169 58.1906 13.0714C59.0654 13.2974 59.9653 13.4271 60.8317 13.6699C61.2461 13.7871 61.6144 14.0801 61.9995 14.2935V18.4121C61.6228 18.6465 61.2712 18.9771 60.861 19.0943C60.0113 19.3371 59.1324 19.4752 58.266 19.6384C57.9186 19.7054 57.7512 19.8644 57.613 20.216C57.2447 21.1494 56.8303 22.066 56.3657 22.9534C56.0309 23.5979 55.4742 23.7444 54.9594 23.4431C54.4488 23.1417 54.3902 22.6101 54.6874 21.9656C55.152 20.9443 55.5831 19.9063 55.9723 18.8557C56.169 18.3284 56.4453 18.0186 57.0187 17.914C58.0232 17.734 59.0194 17.4954 59.9988 17.2862C60.0239 17.215 60.049 17.1773 60.0532 17.1397C60.1341 16.0542 59.6556 15.3957 58.6176 15.1641C58.0483 15.0385 57.4791 14.9046 56.9057 14.8042C56.4034 14.7163 56.169 14.4107 55.9932 13.9545C55.5747 12.8705 55.131 11.799 54.6581 10.74C54.4572 10.2922 54.4446 9.90711 54.7167 9.49274C55.2984 8.62216 55.8593 7.73901 56.4495 6.83076C56.0183 6.40802 55.5914 5.98947 55.152 5.55836C54.2897 6.1234 53.4233 6.67589 52.5737 7.24931C52.1007 7.56741 51.6863 7.53811 51.1715 7.29116C50.1796 6.8182 49.1499 6.4122 48.1161 6.03132C47.618 5.84716 47.2832 5.60022 47.1827 5.05191C47.0195 4.16458 46.8019 3.28144 46.6344 2.39411C46.5716 2.06346 46.4503 1.90441 46.0861 1.92952C45.6467 1.95882 45.203 1.93789 44.7342 1.93789C44.5082 2.99264 44.2947 4.01391 44.0771 5.03099C43.9222 5.73834 43.5037 6.07318 42.9135 5.96435C42.3234 5.85553 42.022 5.39094 42.1601 4.67522C42.4113 3.39445 42.6708 2.1095 42.993 0.845473C43.0726 0.53156 43.3907 0.280429 43.5999 0C44.9728 0 46.3456 0 47.7185 0L47.7101 0Z" fill="black"/>
<path id="Vector_4" d="M17.8896 10.6187C15.8136 10.6187 13.7334 10.6187 11.6573 10.6187C11.4188 10.6187 11.1718 10.6103 10.9374 10.5601C10.4687 10.4555 10.205 10.129 10.1882 9.66021C10.1715 9.15795 10.4435 8.81892 10.9333 8.69336C11.1425 8.63895 11.3727 8.63895 11.5904 8.63895C15.8052 8.63895 20.02 8.63895 24.2348 8.63895C24.3562 8.63895 24.4776 8.63476 24.5989 8.63895C25.2142 8.68499 25.637 9.06587 25.6537 9.59324C25.6746 10.1415 25.2477 10.5894 24.6031 10.6103C23.6572 10.6396 22.7071 10.6229 21.7612 10.6229C20.472 10.6229 19.1787 10.6229 17.8896 10.6229V10.6187Z" fill="#EF7B10"/>
<path id="Vector_5" d="M53.712 16.4197C53.4525 17.4452 53.2307 18.4832 52.9126 19.4919C52.6991 20.1699 52.1466 20.4001 51.5857 20.1783C51.0584 19.969 50.8784 19.3998 51.1253 18.7511C52.5777 14.9464 50.4975 11.1962 46.5255 10.4637C46.3078 10.4219 46.086 10.4177 45.8641 10.4093C45.0563 10.3758 44.642 10.0159 44.6671 9.36295C44.6922 8.73931 45.1233 8.42121 45.9018 8.44633C50.1836 8.58445 53.5655 12.0919 53.5613 16.3821C53.6115 16.3946 53.6618 16.4072 53.712 16.4197Z" fill="black"/>
<path id="Vector_6" d="M17.898 13.0546C20.0954 13.0546 22.2928 13.0546 24.4902 13.0546C25.1683 13.0546 25.5617 13.3476 25.6454 13.875C25.7417 14.4777 25.2436 14.9925 24.5279 14.9967C22.6319 15.0051 20.7358 14.9967 18.8398 14.9967C16.341 14.9967 13.8381 14.9967 11.3393 14.9967C10.6362 14.9967 10.1925 14.6158 10.18 14.034C10.1674 13.4439 10.5901 13.0588 11.3017 13.0546C13.4991 13.0463 15.6965 13.0546 17.8939 13.0546H17.898Z" fill="#EF7B10"/>
<path id="Vector_7" d="M14.7627 19.3747C13.6116 19.3747 12.4606 19.3747 11.3138 19.3747C10.6065 19.3747 10.1753 18.9939 10.1837 18.3995C10.1921 17.8094 10.6232 17.4452 11.3347 17.441C13.5949 17.441 15.8551 17.441 18.1153 17.441C18.8519 17.441 19.2537 17.7801 19.2621 18.387C19.2746 19.019 18.8603 19.3664 18.0943 19.3706C16.9852 19.3706 15.876 19.3706 14.7627 19.3706V19.3747Z" fill="#EF7B10"/>
<path id="Vector_8" d="M6.24542 8.59705C7.11601 8.6389 7.56805 9.02397 7.50108 9.71876C7.48852 9.8527 7.44667 9.99501 7.3797 10.1122C6.95696 10.8321 5.39995 10.8237 4.97721 10.1038C4.67586 9.58901 4.90187 8.93189 5.48366 8.73098C5.72223 8.64727 5.99011 8.64309 6.24542 8.60542V8.59705Z" fill="#EF7B10"/>
<path id="Vector_9" d="M6.21587 19.3747C5.35365 19.3747 4.8765 19.1152 4.88487 18.5669C4.88906 18.2405 5.08578 17.8428 5.32435 17.6043C5.63827 17.2903 6.87718 17.3322 7.13249 17.6629C7.34177 17.9307 7.52175 18.3577 7.46315 18.6674C7.32921 19.358 6.73487 19.425 6.22005 19.3747H6.21587Z" fill="#EF7B10"/>
<path id="Vector_10" d="M6.199 15.1181C5.81812 14.9758 5.44561 14.913 5.16936 14.7163C4.73826 14.4024 4.73826 13.7704 5.09402 13.3728C5.48328 12.9375 6.79753 12.9124 7.22445 13.3351C7.59696 13.7034 7.643 14.3647 7.23282 14.6828C6.95239 14.9005 6.56314 14.9758 6.19481 15.1223L6.199 15.1181Z" fill="#EF7B10"/>
<path id="Vector_11" d="M38.7745 45.597C38.7745 46.1327 38.3476 46.568 37.8244 46.5722C37.3138 46.5764 36.8492 46.1286 36.8325 45.6179C36.8157 45.0864 37.3012 44.6008 37.8328 44.6134C38.3602 44.626 38.7787 45.0612 38.7745 45.597Z" fill="black"/>
</g>
<defs>
<clipPath id="clip0_573_479">
<rect width="62" height="62" fill="white"/>
</clipPath>
</defs>
</svg>
