<svg width="160" height="160" viewBox="0 0 160 160" fill="none" xmlns="http://www.w3.org/2000/svg">
<circle cx="80" cy="80" r="80" fill="url(#paint0_linear_281_11906)"/>
<circle cx="80" cy="80" r="61" fill="url(#paint1_linear_281_11906)"/>
<g clip-path="url(#clip0_281_11906)">
<path d="M65.1757 113C64.9007 112.895 64.6223 112.797 64.349 112.685C62.5271 111.946 61.4839 110.312 61.4821 108.143C61.477 101.484 61.4804 94.8259 61.4804 88.1675C61.4804 85.4192 61.4667 82.6692 61.4856 79.9209C61.501 77.6006 62.8228 75.8544 64.9609 75.3267C65.4129 75.215 65.8959 75.2012 66.3651 75.1995C69.0498 75.1875 71.7345 75.1806 74.4192 75.2047C74.9331 75.2098 75.0809 75.0551 75.0689 74.5498C75.0379 73.1765 75.0482 71.7998 75.0603 70.4265C75.0809 68.0392 76.5435 66.5989 78.9378 66.5972C84.5014 66.5972 90.0632 66.5972 95.6268 66.5972C97.954 66.5972 99.4528 68.0942 99.4579 70.4162C99.4613 71.9803 99.4579 73.5444 99.4579 75.1926C99.7398 75.1926 99.9701 75.1926 100.199 75.1926C102.84 75.1926 105.482 75.1909 108.124 75.1926C110.619 75.1961 112.139 76.3167 112.885 78.692C112.902 78.747 112.959 78.79 112.997 78.8381V109.26C112.622 109.996 112.321 110.783 111.854 111.455C111.242 112.333 110.245 112.685 109.258 112.998H65.1757V113ZM81.796 93.6847C81.5915 93.6383 81.3646 93.5764 81.1343 93.5334C76.2514 92.607 71.3649 91.6961 66.4871 90.7473C65.5212 90.56 64.5793 90.2369 63.5962 89.967C63.5962 90.1372 63.5962 90.3297 63.5962 90.5205C63.5962 96.3848 63.634 102.247 63.5739 108.112C63.5549 110.013 64.8887 110.96 66.4545 110.956C80.3076 110.925 94.1624 110.939 108.016 110.937C109.99 110.937 110.939 109.992 110.939 108.024C110.939 102.182 110.939 96.3401 110.939 90.4981V89.8811C110.228 90.1251 109.581 90.4294 108.902 90.5651C104.934 91.3592 100.957 92.1137 96.9829 92.8803C95.5392 93.1587 94.0954 93.4355 92.6242 93.7173C92.6242 94.4186 92.631 95.0614 92.6242 95.7025C92.5898 98.3614 90.5445 100.697 87.9921 100.995C85.2129 101.318 82.6881 99.6505 82.0796 96.9623C81.8459 95.9311 81.8871 94.8362 81.7978 93.6847H81.796ZM92.6242 91.5947C97.0242 90.7525 101.34 89.9361 105.649 89.0973C106.866 88.8601 108.096 88.6367 109.27 88.2569C110.473 87.8667 110.936 87.0606 110.937 85.7973C110.939 83.9497 110.874 82.1003 110.956 80.2561C111.032 78.5494 110.027 77.2397 107.971 77.25C97.2528 77.3067 86.5346 77.2844 75.8165 77.2861C72.5509 77.2861 69.287 77.2706 66.0214 77.2809C64.6412 77.2861 63.6168 78.3001 63.6031 79.6751C63.5824 81.8012 63.6134 83.9273 63.5962 86.0551C63.5876 87.0039 64.0379 87.6673 64.832 88.0747C65.3373 88.3342 65.9028 88.5215 66.4614 88.6298C70.4351 89.4015 74.4157 90.1458 78.3929 90.8986C79.5221 91.1117 80.6531 91.3231 81.8785 91.5517C81.8785 90.4036 81.8665 89.3569 81.882 88.3101C81.9026 86.9558 82.6589 86.1772 83.9943 86.1669C86.1634 86.1497 88.3342 86.1497 90.5032 86.1669C91.8335 86.1772 92.6138 86.9798 92.6207 88.3015C92.6259 89.374 92.6207 90.4448 92.6207 91.593L92.6242 91.5947ZM97.3903 75.105C97.3903 73.5908 97.3903 72.1161 97.3903 70.6414C97.3885 69.2062 96.8385 68.6545 95.4085 68.6545C91.0945 68.6545 86.7804 68.6545 82.4664 68.6545C81.2649 68.6545 80.0618 68.6459 78.8604 68.658C77.7467 68.67 77.1554 69.2681 77.1468 70.3698C77.1399 71.3358 77.1468 72.3017 77.1468 73.2676C77.1468 73.8812 77.1468 74.4965 77.1468 75.0981H79.3967V70.8631H95.1095V75.1067H97.3903V75.105ZM83.9926 88.274C83.9926 90.8986 83.9599 93.4733 84.0201 96.0445C84.0321 96.5619 84.3157 97.1239 84.6131 97.5742C85.3985 98.7584 86.9042 99.2294 88.2517 98.8048C89.6146 98.3734 90.5307 97.1136 90.5496 95.5684C90.572 93.7861 90.5548 92.0037 90.5548 90.2231C90.5548 89.5854 90.5548 88.9461 90.5548 88.2758H83.9926V88.274ZM81.5365 75.1462H92.9851V72.9479H81.5365V75.1462Z" fill="#EF7B10"/>
<path d="M79.8711 47C80.8645 47.4159 81.5641 48.1877 82.2756 48.9542C84.5117 51.3622 86.753 53.765 89.0062 56.1575C89.6439 56.8347 89.9722 57.603 89.9653 58.5345C89.9533 60.102 89.9688 61.6695 89.9602 63.2388C89.955 64.05 89.558 64.5209 88.9186 64.5158C88.2878 64.5106 87.8787 64.0139 87.8753 63.2284C87.8702 61.9445 87.8753 60.6606 87.8753 59.3011C87.4542 59.3011 87.095 59.3028 86.7341 59.3011C85.1236 59.2891 83.5097 59.3406 81.9044 59.2461C79.9192 59.1292 78.3603 57.4311 78.3311 55.4442C78.3036 53.5759 78.3208 51.7077 78.3191 49.8394C78.3191 49.6073 78.3191 49.3753 78.3191 49.0608C78.0406 49.0608 77.812 49.0608 77.5834 49.0608C68.5841 49.0608 59.5864 49.0608 50.587 49.0608C49.3753 49.0608 49.0625 49.3736 49.0625 50.5836C49.0625 67.5287 49.0625 84.4739 49.0625 101.419C49.0625 102.62 49.3873 102.947 50.587 102.947C53.0363 102.947 55.4838 102.947 57.933 102.947C58.9384 102.947 59.4042 103.265 59.4128 103.958C59.4214 104.657 58.9419 105.003 57.9622 105.004C55.4288 105.004 52.8936 105.004 50.3602 105.004C48.6809 105.004 47.6806 104.296 47.11 102.717C47.0894 102.658 47.0395 102.612 47.0034 102.56C47 84.8555 47 67.1523 47 49.4492C47.4022 48.2186 48.2117 47.3953 49.4492 47H79.8711ZM80.3884 50.7022C80.3884 52.4003 80.3506 53.918 80.4022 55.4339C80.4366 56.4669 81.2684 57.1853 82.3272 57.1973C83.5045 57.2111 84.6836 57.2025 85.8627 57.1973C85.9916 57.1973 86.1205 57.1544 86.3095 57.12C84.3381 54.9819 82.4234 52.9073 80.3884 50.7005V50.7022Z" fill="black"/>
<path d="M97.789 47C98.0176 47.4125 98.3339 47.7992 98.4593 48.2409C98.7154 49.1433 98.8942 50.0714 99.054 50.9978C99.1193 51.3777 99.2998 51.5272 99.6367 51.6509C100.359 51.9156 101.051 52.2594 101.775 52.512C102.01 52.5945 102.364 52.5859 102.571 52.4622C103.435 51.95 104.264 51.3742 105.109 50.8277C105.836 50.3567 106.182 50.3859 106.809 51.003C107.574 51.7541 108.32 52.5241 109.079 53.2803C109.544 53.7427 109.6 54.2342 109.241 54.7825C108.665 55.6591 108.072 56.527 107.534 57.4277C107.411 57.6339 107.402 57.988 107.484 58.2234C107.742 58.9694 108.047 59.7016 108.383 60.4149C108.483 60.6245 108.724 60.8531 108.94 60.9081C109.872 61.147 110.829 61.2845 111.754 61.5441C112.196 61.6678 112.586 61.9824 112.998 62.2092V66.592C112.596 66.8413 112.225 67.1936 111.788 67.3191C110.886 67.5786 109.951 67.7247 109.024 67.9C108.655 67.9688 108.478 68.1424 108.332 68.5136C107.942 69.507 107.5 70.4833 107.007 71.4286C106.649 72.1144 106.056 72.2725 105.508 71.9494C104.963 71.628 104.905 71.0608 105.217 70.375C105.712 69.2905 106.171 68.1853 106.584 67.0647C106.792 66.5009 107.089 66.1727 107.696 66.0627C108.767 65.8702 109.825 65.6175 110.869 65.3941C110.898 65.3167 110.922 65.2789 110.925 65.2394C111.011 64.0832 110.502 63.382 109.397 63.1356C108.791 63.0016 108.186 62.8606 107.576 62.7541C107.043 62.6595 106.79 62.333 106.603 61.8517C106.158 60.7002 105.685 59.5555 105.183 58.428C104.97 57.9502 104.954 57.5411 105.247 57.1011C105.865 56.173 106.464 55.2345 107.091 54.2686C106.632 53.8183 106.178 53.3749 105.709 52.9142C104.791 53.5141 103.87 54.1019 102.964 54.712C102.462 55.0506 102.019 55.018 101.469 54.7567C100.412 54.2531 99.3187 53.82 98.2187 53.4161C97.6859 53.2202 97.3318 52.9589 97.2236 52.3745C97.0482 51.4275 96.8179 50.4908 96.6392 49.5455C96.5721 49.1914 96.4432 49.023 96.0548 49.0505C95.5873 49.0831 95.1164 49.0591 94.6162 49.0591C94.3773 50.1831 94.1504 51.2677 93.9167 52.3505C93.7534 53.105 93.3048 53.4625 92.6775 53.3456C92.0484 53.2288 91.7287 52.7338 91.8765 51.9758C92.1429 50.6111 92.4214 49.2464 92.7617 47.8972C92.8459 47.5638 93.1845 47.2956 93.4062 46.9983C94.8671 46.9983 96.3281 46.9983 97.789 46.9983V47Z" fill="black"/>
<path d="M66.1431 56.1849C68.4188 56.1849 70.6944 56.166 72.9683 56.2038C73.3378 56.209 73.7916 56.3671 74.0511 56.6146C74.5736 57.1147 74.2969 57.9879 73.5922 58.2062C73.3327 58.2869 73.0422 58.2972 72.7672 58.2972C68.3019 58.3024 63.8366 58.3007 59.373 58.3007C59.287 58.3007 59.2011 58.3024 59.1152 58.3007C58.3245 58.2715 57.8381 57.8658 57.8398 57.2368C57.8416 56.6077 58.3331 56.1901 59.1238 56.1883C61.463 56.1797 63.8039 56.1849 66.1431 56.1849Z" fill="black"/>
<path d="M104.172 64.459C103.906 65.5315 103.686 66.6195 103.358 67.6731C103.117 68.4482 102.54 68.7164 101.926 68.4826C101.345 68.2626 101.159 67.6524 101.445 66.9117C102.875 63.2146 100.97 59.3079 97.2286 58.2956C96.7371 58.1632 96.218 58.122 95.7075 58.0773C94.953 58.0103 94.5302 57.6287 94.5474 56.9773C94.5646 56.3328 95.0114 55.9753 95.7849 55.9856C100.321 56.044 104.013 59.827 104.014 64.4212L104.171 64.4607L104.172 64.459Z" fill="black"/>
<path d="M66.0734 60.8977C68.3697 60.8977 70.6659 60.896 72.9639 60.8977C73.837 60.8977 74.3131 61.2656 74.3131 61.9221C74.3131 62.5684 73.8044 62.9688 72.9656 62.9688C68.3508 62.9706 63.7359 62.9723 59.1211 62.9688C58.2669 62.9688 57.7014 62.4171 57.8595 61.7331C58.0039 61.1143 58.4387 60.8909 59.0541 60.8926C61.3933 60.9029 63.7325 60.8977 66.0717 60.896L66.0734 60.8977Z" fill="black"/>
<path d="M62.6646 67.6215C61.4409 67.6215 60.2154 67.6266 58.9916 67.6198C58.2887 67.6146 57.8418 67.2073 57.8418 66.5954C57.8418 65.987 58.2904 65.5693 58.9934 65.5676C61.4632 65.5607 63.9348 65.559 66.4046 65.5676C67.1041 65.5693 67.5252 65.9938 67.508 66.6281C67.4926 67.2313 67.0818 67.6129 66.4029 67.6181C65.1568 67.6284 63.9107 67.6215 62.6646 67.6215Z" fill="black"/>
<path d="M53.7085 56.0388C54.0901 56.2588 54.561 56.4032 54.8343 56.7194C55.2622 57.2162 54.9529 58.0223 54.3032 58.201C53.944 58.299 53.5418 58.3076 53.1671 58.2749C52.5535 58.2216 52.1616 57.7816 52.1651 57.2351C52.1685 56.6902 52.5741 56.2691 53.1791 56.1969C53.3269 56.1798 53.4765 56.1935 53.626 56.1935L53.7102 56.0388H53.7085Z" fill="black"/>
<path d="M53.5585 67.6147C53.0411 67.6628 52.565 67.6009 52.2918 67.0853C52.0391 66.6058 52.1371 66.1709 52.5272 65.8152C52.9294 65.4474 54.2288 65.4491 54.6396 65.81C55.0435 66.1658 55.1157 66.6127 54.8802 67.0819C54.6035 67.6319 54.0861 67.6594 53.5568 67.6147H53.5585Z" fill="black"/>
<path d="M53.6704 60.8979C54.5899 60.9047 55.0368 61.2743 54.9956 61.9927C54.956 62.6836 54.492 62.981 53.4693 62.9707C52.6581 62.9621 52.1837 62.5925 52.1648 61.9532C52.1424 61.2347 52.6357 60.8893 53.6704 60.8979Z" fill="black"/>
<path d="M88.2739 95.5185C88.2807 96.0909 87.8407 96.5601 87.2804 96.5773C86.7167 96.5962 86.1959 96.0806 86.2062 95.5151C86.2165 94.972 86.7081 94.4907 87.2512 94.489C87.8115 94.489 88.267 94.9462 88.2739 95.5168V95.5185Z" fill="black"/>
</g>
<defs>
<linearGradient id="paint0_linear_281_11906" x1="130.11" y1="21.0989" x2="33.4066" y2="146.813" gradientUnits="userSpaceOnUse">
<stop stop-color="#FBFBFB"/>
<stop offset="1" stop-color="#EFF1F3"/>
</linearGradient>
<linearGradient id="paint1_linear_281_11906" x1="118.209" y1="35.0879" x2="44.4725" y2="130.945" gradientUnits="userSpaceOnUse">
<stop stop-color="#EEF0F2"/>
<stop offset="1" stop-color="#FDFEFE"/>
</linearGradient>
<clipPath id="clip0_281_11906">
<rect width="66" height="66" fill="white" transform="translate(47 47)"/>
</clipPath>
</defs>
</svg>
