<svg width="45" height="45" viewBox="0 0 45 45" fill="none" xmlns="http://www.w3.org/2000/svg">
<g id="Layer_1" clip-path="url(#clip0_270_457)">
<path id="Vector" d="M11.4082 27.7896C9.49231 26.8066 8.47553 25.3021 8.65961 23.1895C8.83116 21.2073 9.99319 19.9159 11.9178 19.2264C11.7976 19.096 11.6937 18.9744 11.5822 18.8615C10.3914 17.6654 9.19805 16.4706 8.00596 15.2733C7.455 14.7204 7.45375 14.3994 8.0022 13.8502C9.29321 12.5551 10.5867 11.2637 11.909 9.94227C9.312 8.8352 8.12367 6.95957 8.84994 4.17121C9.33203 2.32191 11.1039 1.05311 13.056 1.01925C14.5987 0.992925 16.6023 1.74142 17.6366 4.42948C17.7167 4.27402 17.7655 4.08721 17.8832 3.96935C19.0691 2.767 20.2637 1.57342 21.4583 0.381089C21.9691 -0.129192 22.3436 -0.129192 22.8557 0.382343C24.3496 1.87307 25.8372 3.37131 27.3335 4.85952C27.6003 5.12407 27.8031 5.45005 27.6153 5.77101C27.4725 6.01549 27.152 6.23741 26.8715 6.30386C25.3889 6.6524 24.3734 7.94754 24.4673 9.44578C24.5599 10.9265 25.7883 12.1589 27.2584 12.2454C28.7585 12.3344 30.0558 11.3176 30.4014 9.84072C30.4665 9.55987 30.6856 9.23766 30.9286 9.09348C31.2491 8.9029 31.5747 9.10351 31.8402 9.37056C33.3378 10.8801 34.8454 12.3796 36.3443 13.8866C36.8264 14.3718 36.8176 14.7555 36.3205 15.2545C35.1297 16.4518 33.9376 17.6479 32.738 18.8352C32.619 18.9531 32.435 19.0045 32.3273 19.1323C35.012 20.1491 35.7094 22.1852 35.6731 23.671C35.623 25.7234 34.4159 27.2354 32.2509 27.9839C32.2509 28.696 32.2509 29.4282 32.2509 30.1604C32.2509 30.771 32.2509 31.3803 32.2509 31.9909C32.2509 33.7449 31.0425 34.7442 29.2982 34.4546C28.289 34.2878 27.3849 33.9042 26.5997 33.2459C26.5321 33.1895 26.4545 33.1444 26.2704 33.1506C26.4645 33.686 26.601 34.2514 26.864 34.7504C28.1187 37.1251 28.1086 39.4784 26.8051 41.8154C26.3969 42.5463 26.1715 43.2886 26.2404 44.1348C26.2854 44.6827 25.9599 45.0062 25.4903 44.9999C25.0232 44.9937 24.8104 44.6702 24.744 44.1123C24.595 42.8748 25.0746 41.8317 25.628 40.7823C26.5146 39.1023 26.4658 37.4172 25.6531 35.7008C25.2837 34.921 25.0671 34.0659 24.8229 33.2321C24.7377 32.94 24.7578 32.6128 24.7578 32.3006C24.754 29.3279 24.7578 26.3565 24.754 23.3838C24.7528 22.2392 24.1192 21.3477 23.1312 21.0707C21.6649 20.6582 20.2687 21.7163 20.2561 23.281C20.2386 25.5177 20.2511 27.7545 20.2511 29.9912C20.2511 31.196 20.2536 32.3996 20.2511 33.6045C20.2499 34.1649 19.9757 34.4834 19.5073 34.4859C19.039 34.4884 18.7573 34.1687 18.756 33.6133C18.7535 31.2825 18.746 28.9518 18.7635 26.6211C18.766 26.2161 18.6759 25.9102 18.3641 25.6394C18.0723 25.3861 17.8307 25.0764 17.5113 24.7316C17.1845 25.7522 16.6899 26.5283 15.9361 27.1238C15.1647 27.7331 14.287 28.0704 13.304 28.0917C13.011 28.098 12.8657 28.172 12.7668 28.4616C12.1858 30.1742 11.5797 31.8793 10.9887 33.5895C10.7921 34.1599 10.8284 34.7241 11.0663 35.2795C12.0305 37.5313 12.9859 39.7868 13.9551 42.0361C14.2757 42.7808 14.2782 43.5581 14.2394 44.3392C14.2193 44.7404 13.87 45.0213 13.4705 44.9962C13.0548 44.9699 12.733 44.7279 12.7718 44.3267C12.8832 43.1682 12.3623 42.2015 11.9378 41.1998C11.1765 39.4044 10.4102 37.6115 9.65384 35.8149C9.26066 34.8808 9.26316 33.9355 9.59875 32.9814C10.2036 31.2612 10.8009 29.5386 11.4119 27.7871L11.4082 27.7896ZM18.6296 23.8101C18.7761 23.0817 18.7973 22.3495 19.0816 21.7414C19.3596 21.1446 19.8517 20.6105 20.3501 20.1617C20.8772 19.6865 21.5735 19.4897 22.2985 19.4734C24.4648 19.4245 25.8271 20.6544 26.318 23.192C26.5209 22.9638 26.6774 22.7745 26.8489 22.599C27.0944 22.3482 27.3774 22.2078 27.733 22.367C28.0924 22.5275 28.2314 22.8134 28.2101 23.197C28.1975 23.4302 28.1888 23.6659 28.2051 23.8991C28.309 25.4375 29.7753 26.7038 31.3155 26.5935C33.0636 26.4681 34.2556 25.0639 34.1342 23.2748C34.0277 21.7138 32.5564 20.4864 30.911 20.608C30.5041 20.6381 30.1422 20.6043 29.9594 20.198C29.7703 19.7805 29.9681 19.4621 30.2724 19.1599C31.6924 17.7507 33.1011 16.3289 34.5136 14.9109C34.6288 14.7943 34.7377 14.6715 34.8004 14.6038C33.6771 13.4754 32.5902 12.3846 31.5071 11.2976C30.1059 13.2585 28.5306 14.0646 26.7124 13.6998C24.8417 13.3249 23.5532 12.2229 23.1074 10.3711C22.5577 8.08545 23.4718 6.3515 25.4427 5.17547C24.3395 4.07091 23.2476 2.97763 22.0643 1.79282C21.9767 1.91945 21.8978 2.07994 21.7776 2.20155C20.3563 3.63209 18.9301 5.05887 17.5026 6.48314C17.1382 6.84548 16.7412 6.91319 16.4157 6.68375C16.0826 6.45055 16.0976 6.11454 16.1164 5.75847C16.2354 3.602 14.2456 2.05988 12.2046 2.71935C10.7508 3.18951 9.94435 4.55611 10.2098 6.10451C10.4578 7.55636 11.7563 8.56314 13.3278 8.5017C13.756 8.4854 14.1492 8.49292 14.3558 8.9518C14.5674 9.42196 14.2782 9.71534 13.9827 10.0112C12.6541 11.3365 11.3305 12.6654 10.002 13.9894C9.81788 14.1725 9.61127 14.3329 9.38087 14.5348C10.9073 16.0544 12.3573 17.4987 13.8074 18.943C13.9514 19.086 14.148 19.2113 14.2181 19.3856C14.3145 19.6251 14.4197 19.9573 14.322 20.1504C14.2143 20.3635 13.9 20.5102 13.6446 20.6005C13.453 20.6682 13.2126 20.588 12.9947 20.5942C11.3293 20.6469 9.9431 22.2291 10.1422 23.844C10.3476 25.509 11.7738 26.7377 13.3228 26.5809C15.0683 26.4054 16.2366 25.0238 16.1089 23.271C16.0801 22.8773 16.1477 22.5564 16.5334 22.3721C16.9291 22.184 17.2233 22.357 17.4913 22.6341C17.8782 23.0328 18.2652 23.4315 18.6308 23.8076L18.6296 23.8101ZM26.8176 24.8257C26.3656 25.104 26.2191 25.4513 26.2366 25.944C26.2754 27.021 26.2366 28.1005 26.2516 29.1787C26.2779 31.2136 27.7167 32.7745 29.7302 32.9739C30.3876 33.0391 30.7432 32.7331 30.7508 32.0749C30.7595 31.3716 30.7533 30.6682 30.7533 29.9648C30.7533 29.3467 30.7533 28.7274 30.7533 28.1017C28.7698 27.7858 27.4688 26.7163 26.8176 24.8244V24.8257Z" fill="black"/>
<path id="Vector_2" d="M2.25097 3.32751C2.32986 3.3576 2.48262 3.39271 2.6141 3.46794C3.85753 4.17882 5.0997 4.89095 6.33687 5.61438C6.81395 5.89396 6.94543 6.31397 6.71002 6.71142C6.47336 7.11137 6.05888 7.19662 5.57053 6.91829C4.32585 6.20866 3.08743 5.489 1.84651 4.77185C1.4959 4.56874 1.3256 4.26784 1.44331 3.87039C1.54599 3.5231 1.80143 3.33378 2.25097 3.32751Z" fill="#EF7B10"/>
<path id="Vector_3" d="M39.0415 22.8523C39.1241 22.8861 39.2882 22.9363 39.4334 23.019C40.6518 23.7149 41.8689 24.4132 43.0811 25.1191C43.5869 25.4137 43.7297 25.8388 43.4843 26.245C43.2463 26.6387 42.8306 26.7176 42.3398 26.4368C41.0938 25.7247 39.8529 25.005 38.6132 24.2841C38.2701 24.0835 38.0848 23.7901 38.2163 23.3839C38.329 23.0366 38.5794 22.8498 39.0415 22.8535V22.8523Z" fill="#EF7B10"/>
<path id="Vector_4" d="M6.81834 23.7788C6.72944 23.8854 6.60547 24.1437 6.40011 24.2665C5.12914 25.0276 3.84564 25.766 2.55588 26.4945C2.1389 26.7302 1.71566 26.5985 1.50404 26.2211C1.29117 25.8425 1.40136 25.4313 1.82335 25.1843C3.10059 24.4333 4.37907 23.686 5.67134 22.9614C6.22606 22.6504 6.86092 23.0429 6.81834 23.7776V23.7788Z" fill="#EF7B10"/>
<path id="Vector_5" d="M38.9825 7.08755C38.5492 7.05996 38.3088 6.86187 38.2124 6.51082C38.1059 6.1234 38.285 5.84256 38.6118 5.65199C39.5397 5.11037 40.4713 4.57376 41.4017 4.03589C41.7523 3.83278 42.0967 3.61964 42.456 3.43283C42.8555 3.22471 43.2624 3.33504 43.4791 3.68484C43.7045 4.04968 43.6131 4.49477 43.2073 4.73549C41.9201 5.49527 40.6216 6.23624 39.3243 6.97722C39.2078 7.04367 39.0626 7.06247 38.9837 7.08755H38.9825Z" fill="#EF7B10"/>
<path id="Vector_6" d="M3.00555 15.7159C2.28679 15.7159 1.56804 15.7196 0.849279 15.7146C0.322106 15.7109 0.0103106 15.4388 0.000293035 14.9874C-0.0109767 14.511 0.303323 14.2214 0.85554 14.2189C2.29306 14.2151 3.73057 14.2139 5.16809 14.2189C5.68274 14.2201 5.99579 14.5148 5.99453 14.9686C5.99328 15.4212 5.68023 15.7096 5.16183 15.7134C4.44307 15.7196 3.72431 15.7146 3.00555 15.7146V15.7159Z" fill="#EF7B10"/>
<path id="Vector_7" d="M41.9799 15.7159C41.2762 15.7159 40.5737 15.7197 39.87 15.7159C39.3165 15.7121 38.9997 15.4288 39.006 14.9561C39.0122 14.5035 39.3228 14.2227 39.8462 14.2214C41.2837 14.2164 42.7212 14.2164 44.1587 14.2214C44.6809 14.2227 44.9939 14.5048 45.0002 14.9574C45.0065 15.4288 44.6871 15.7134 44.1349 15.7171C43.4162 15.7222 42.6974 15.7171 41.9787 15.7171L41.9799 15.7159Z" fill="#EF7B10"/>
</g>
<defs>
<clipPath id="clip0_270_457">
<rect width="45" height="45" fill="white"/>
</clipPath>
</defs>
</svg>
