<svg width="53" height="57" viewBox="0 0 53 57" fill="none" xmlns="http://www.w3.org/2000/svg">
<g clip-path="url(#clip0_281_9326)">
<path d="M26.4936 56.9968C19.5833 56.9968 12.6731 57 5.76281 56.9968C2.85744 56.9968 0.604089 55.1422 0.0767097 52.324C0.00958871 51.9606 0.0127849 51.5783 0.0127849 51.2055C0.00958871 42.5549 0.0127849 33.9043 0 25.2536C0 24.7386 0.150223 24.3627 0.520987 24.0025C2.11591 22.4575 3.70124 20.8967 5.26101 19.3138C5.47835 19.0927 5.63497 18.7104 5.63816 18.4007C5.66693 15.2887 5.70209 12.1734 5.63816 9.06134C5.58383 6.37895 7.69973 4.27158 10.4038 4.33793C13.5584 4.41692 16.7163 4.34741 19.871 4.36321C20.2865 4.36321 20.5774 4.24631 20.865 3.95248C21.7664 3.02991 22.6869 2.12946 23.6138 1.23217C25.3174 -0.417072 27.6762 -0.417072 29.3894 1.23217C30.3195 2.1263 31.2368 3.03307 32.1382 3.95248C32.4226 4.24315 32.7167 4.36637 33.1322 4.36321C36.2677 4.34741 39.4064 4.42008 42.5387 4.33477C45.3546 4.25894 47.429 6.42634 47.365 9.12137C47.2915 12.2145 47.3363 15.3076 47.365 18.4007C47.365 18.7104 47.528 19.0895 47.7454 19.3107C49.2892 20.8809 50.8617 22.4227 52.4407 23.9582C52.8242 24.3279 53 24.7197 53 25.2568C52.9872 33.9074 52.9936 42.558 52.9904 51.2087C52.9904 54.6241 50.5741 56.9905 47.1093 56.9905C40.2374 56.9905 33.3687 56.9905 26.4968 56.9905L26.4936 56.9968ZM26.5064 6.22097C23.569 6.22097 20.6349 6.22097 17.6976 6.22097C15.2205 6.22097 12.7434 6.20834 10.2695 6.22729C8.64902 6.23677 7.5591 7.28888 7.5591 8.82754C7.55271 15.0327 7.55271 21.2411 7.57189 27.4463C7.57189 27.6643 7.74129 27.9708 7.92667 28.0845C13.9803 31.7779 20.05 35.4492 26.1069 39.1427C26.4521 39.3543 26.6822 39.3227 27.005 39.1269C32.9916 35.4713 38.9845 31.8222 44.987 28.1888C45.345 27.9708 45.4537 27.7401 45.4537 27.3452C45.4409 21.219 45.4473 15.0896 45.4441 8.9634C45.4441 8.72959 45.4409 8.48631 45.3866 8.25883C45.0957 6.96345 44.1049 6.23045 42.625 6.22729C37.2521 6.22097 31.8793 6.22729 26.5096 6.22729L26.5064 6.22097ZM2.8031 53.7994C10.0905 49.3635 17.3492 44.9466 24.7037 40.4728C17.0807 35.8505 9.53757 31.2756 1.90496 26.6469C1.90496 26.9787 1.90496 27.1746 1.90496 27.3673C1.90496 35.2849 1.90496 43.2057 1.90496 51.1234C1.90496 51.3603 1.89856 51.5973 1.92094 51.8311C1.99445 52.5736 2.27892 53.2276 2.8031 53.7963V53.7994ZM51.095 26.6596C43.4432 31.3135 35.9129 35.8947 28.3155 40.517C35.6476 44.9624 42.9223 49.3699 50.2193 53.7931C50.8649 53.0127 51.1046 52.1786 51.1014 51.2371C51.0918 43.2594 51.095 35.2849 51.095 27.3073C51.095 27.1335 51.095 26.9597 51.095 26.6596ZM48.3431 55.0379C48.3527 54.9874 48.3623 54.94 48.375 54.8895C48.212 54.7852 48.0522 54.6746 47.8892 54.5767C40.9566 50.3714 34.0175 46.1756 27.0913 41.9577C26.6502 41.6892 26.3434 41.6544 25.8767 41.9388C18.9793 46.1598 12.0658 50.3556 5.15873 54.5609C4.97974 54.6714 4.80714 54.7947 4.63454 54.9147C4.64413 54.9558 4.65372 54.9969 4.66331 55.0411H48.3463L48.3431 55.0379ZM29.6771 4.34425C29.0186 3.64285 28.4113 2.91301 27.7114 2.28428C27.2 1.82615 26.5128 1.74085 25.8544 1.9936C24.7005 2.43909 24.1156 3.50699 23.307 4.34109H29.6771V4.34425ZM47.3682 26.7291C48.4805 26.053 49.5033 25.4306 50.4366 24.8618C49.3946 23.8287 48.3686 22.8145 47.3682 21.8256V26.7291ZM5.62218 21.8161C4.59938 22.824 3.57979 23.8319 2.5506 24.8492C3.52225 25.4369 4.54505 26.053 5.62218 26.7038V21.8161Z" fill="white"/>
<path d="M26.4647 18.941C22.1721 18.941 17.8828 18.941 13.5902 18.941C13.3697 18.941 13.1492 18.9537 12.9318 18.9221C12.4492 18.8557 12.1871 18.5398 12.1455 18.088C12.104 17.652 12.3277 17.3139 12.7464 17.1686C12.983 17.0864 13.2546 17.077 13.5103 17.077C22.1721 17.0738 30.8339 17.0738 39.4989 17.077C39.6587 17.077 39.8186 17.0706 39.9784 17.0928C40.5026 17.1654 40.8797 17.573 40.8701 18.0406C40.8573 18.5493 40.4642 18.9316 39.8825 18.9347C38.246 18.9474 36.6095 18.941 34.9731 18.941C32.138 18.941 29.3061 18.941 26.4711 18.941H26.4647Z" fill="white"/>
<path d="M26.5064 10.145C30.8181 10.145 35.1266 10.145 39.4383 10.145C40.41 10.145 40.883 10.461 40.8671 11.0929C40.8511 11.7058 40.3812 12.0186 39.4575 12.0186C30.8149 12.0186 22.1755 12.0186 13.5328 12.0186C13.4338 12.0186 13.3315 12.0217 13.2324 12.0186C12.5644 11.9775 12.1425 11.6173 12.1329 11.0834C12.1265 10.5273 12.5612 10.1513 13.2707 10.1513C17.6815 10.145 22.0924 10.1513 26.5032 10.1482L26.5064 10.145Z" fill="white"/>
<path d="M26.474 25.9014C22.1814 25.9014 17.8889 25.9014 13.5995 25.9014C13.4205 25.9014 13.2383 25.9108 13.0594 25.895C12.5288 25.854 12.1293 25.4717 12.1388 24.9883C12.1516 24.467 12.4553 24.151 12.9635 24.0468C13.1552 24.0057 13.3598 24.0278 13.5612 24.0278C22.1846 24.0278 30.8081 24.0278 39.4315 24.0278C40.3872 24.0278 40.8762 24.3532 40.8666 24.982C40.857 25.6107 40.3968 25.9014 39.4091 25.9014C35.0974 25.9014 30.7857 25.9014 26.474 25.9014Z" fill="white"/>
</g>
<defs>
<clipPath id="clip0_281_9326">
<rect width="53" height="57" fill="white"/>
</clipPath>
</defs>
</svg>
