<svg width="20" height="20" viewBox="0 0 20 20" fill="none" xmlns="http://www.w3.org/2000/svg">
<path d="M18.8616 18.5192L13.5789 13.2737C14.7693 11.8972 15.439 10.1486 15.439 8.21417C15.439 3.9731 11.942 0.476074 7.7009 0.476074C3.42262 0.476074 0 3.9731 0 8.21417C0 12.4925 3.45982 15.9523 7.7009 15.9523C9.59819 15.9523 11.3468 15.2826 12.7232 14.0922L17.9688 19.3749C18.1175 19.4865 18.2664 19.5237 18.4524 19.5237C18.6011 19.5237 18.75 19.4865 18.8616 19.3749C19.0849 19.1517 19.0849 18.7425 18.8616 18.5192ZM7.7381 14.7618C4.09227 14.7618 1.19048 11.8228 1.19048 8.21417C1.19048 4.60554 4.09227 1.66655 7.7381 1.66655C11.3468 1.66655 14.2857 4.60554 14.2857 8.21417C14.2857 11.86 11.3468 14.7618 7.7381 14.7618Z" fill="#003671"/>
</svg>
