<svg width="67" height="67" viewBox="0 0 67 67" fill="none" xmlns="http://www.w3.org/2000/svg">
<g clip-path="url(#clip0_816_53)">
<path d="M18.7906 48.2892C18.7906 48.6365 18.7906 48.8984 18.7906 49.1602C18.7906 54.2914 18.7906 59.4245 18.7906 64.5557C18.7906 65.7041 18.4855 66.0087 17.3346 66.0087C12.0572 66.0087 6.77782 66.0087 1.50039 66.0087C0.287719 66.0087 0.001931 65.7274 0.001931 64.5305C0 59.3741 0.001931 54.2177 0 49.0613C0 45.4297 1.62397 42.7817 4.77923 41.0532C4.86033 41.0086 4.93951 40.9601 5.10171 40.867C2.87913 39.1482 1.77073 36.9114 1.91362 34.147C2.01404 32.1915 2.81154 30.5057 4.24434 29.1477C7.16981 26.3736 11.6208 26.3484 14.5926 29.0973C17.3713 31.6677 18.1032 36.4652 14.722 40.0949H21.8995C21.8995 39.8369 21.8995 39.5594 21.8995 39.2801C21.8995 35.6252 21.8995 31.9684 21.8995 28.3136C21.8995 26.9769 22.1795 26.6976 23.5177 26.6976C25.1803 26.6976 26.8429 26.6937 28.5074 26.6976C29.6969 26.6995 30.0329 27.0274 30.0348 28.1933C30.0387 32.7677 30.0483 37.344 30.0329 41.9184C30.0194 45.7285 27.4531 48.2815 23.6683 48.2853C22.0791 48.2853 20.4918 48.2853 18.7945 48.2853L18.7906 48.2892ZM23.9773 28.8354C23.9773 29.1768 23.9773 29.4407 23.9773 29.7045C23.9773 33.1169 23.9773 36.5292 23.9773 39.9416C23.9773 41.6041 23.3787 42.1978 21.7064 42.1997C17.4891 42.1997 13.2737 42.1997 9.0564 42.1997C4.83523 42.2017 2.02562 45.0126 2.02369 49.2378C2.01983 53.884 2.02369 58.5321 2.02369 63.1783V63.9252H16.763C16.763 63.6129 16.763 63.351 16.763 63.0891C16.763 57.9346 16.763 52.7783 16.763 47.6238C16.763 46.5413 17.0508 46.2581 18.134 46.2561C19.9415 46.2523 21.7508 46.2057 23.5544 46.2678C26.1342 46.3551 28.0362 44.4636 27.9744 41.8486C27.8798 37.7611 27.9493 33.6698 27.9474 29.5784C27.9474 29.3437 27.9242 29.1089 27.9107 28.8373H23.9773V28.8354ZM14.9189 34.6359C14.9189 31.561 12.4801 29.1089 9.42716 29.1148C6.39548 29.1206 3.90642 31.6386 3.93925 34.665C3.97207 37.6855 6.42831 40.1472 9.41943 40.1628C12.4472 40.1783 14.917 37.6952 14.9189 34.6359Z" fill="#EF7B10"/>
<path d="M49.4509 37.6758C47.2302 37.6758 45.1138 37.6758 42.9955 37.6758C42.7542 37.6758 42.507 37.6971 42.2733 37.6544C41.4758 37.505 41.1514 36.634 41.6419 35.9822C41.7423 35.8483 41.8678 35.7319 41.9875 35.6117C45.7356 31.8462 49.4856 28.0788 53.2356 24.3153C54.0486 23.5006 54.4657 23.5064 55.296 24.3406C59.0286 28.0885 62.7613 31.8365 66.492 35.5864C66.5596 35.6543 66.6658 35.7125 66.6909 35.794C66.8125 36.2053 67.0983 36.7058 66.9651 37.0162C66.8299 37.3305 66.2738 37.6311 65.8934 37.6428C63.9199 37.7049 61.9425 37.6719 59.9652 37.6719C59.7045 37.6719 59.4438 37.6719 59.0789 37.6719C59.0789 38.0366 59.0789 38.3412 59.0789 38.6438C59.0789 47.5035 59.0789 56.3633 59.0789 65.223C59.0789 66.7439 58.8298 66.9961 57.3197 66.9961C55.2226 66.9961 53.1256 66.9961 51.0285 66.9961C49.7328 66.9961 49.4489 66.7129 49.4489 65.4345C49.4489 56.503 49.4489 47.5695 49.4489 38.638V37.6777L49.4509 37.6758ZM45.1216 35.6155C46.734 35.6155 48.3599 35.6136 49.9858 35.6155C51.2042 35.6175 51.4746 35.8871 51.4746 37.0977C51.4746 46.0738 51.4746 55.0499 51.4746 64.0261V64.837H57.0011V63.8379C57.0011 54.9355 57.0011 46.0311 57.0011 37.1287C57.0011 35.9395 57.3158 35.6233 58.4899 35.6194C59.8146 35.6155 61.1392 35.6194 62.4639 35.6194C62.7825 35.6194 63.1011 35.6194 63.4217 35.6194C60.2992 32.4825 57.2444 29.4135 54.2784 26.4338C51.2699 29.4504 48.2131 32.5155 45.1177 35.6194L45.1216 35.6155Z" fill="black"/>
<path d="M20.6018 11.5543C23.199 11.4922 22.4981 12.0005 23.3612 9.53286C23.5196 9.07891 23.647 8.61139 23.8131 8.15938C24.2321 7.02645 25.0701 6.43864 26.223 6.44252C27.3565 6.44834 28.2158 7.05749 28.6135 8.18848C28.9264 9.07503 29.2199 9.96935 29.4767 10.8734C29.6196 11.3739 29.8668 11.5834 30.3978 11.562C31.3363 11.5271 32.2747 11.5426 33.2151 11.5562C34.3776 11.5717 35.2658 12.2139 35.6269 13.2789C35.9842 14.3342 35.6656 15.4187 34.7522 16.1229C34.086 16.6389 33.4179 17.1627 32.7053 17.6089C32.0546 18.0163 31.8267 18.4353 32.1627 19.2035C32.5161 20.0163 32.7401 20.8893 32.9776 21.7487C33.2692 22.7982 32.9042 23.7934 32.0449 24.4355C31.2165 25.0563 30.1004 25.1184 29.2064 24.5228C28.3644 23.9641 27.5496 23.3608 26.7482 22.7439C26.3543 22.4413 26.0337 22.4568 25.6533 22.7497C24.9273 23.3084 24.1877 23.8477 23.4404 24.3773C22.417 25.1029 21.2931 25.1126 20.3566 24.4278C19.4509 23.7663 19.1265 22.7071 19.4896 21.5179C19.758 20.641 20.036 19.768 20.3353 18.9028C20.5033 18.4198 20.4106 18.09 19.9723 17.797C19.2115 17.2888 18.4758 16.7417 17.7478 16.1869C16.7321 15.4148 16.4019 14.3633 16.7919 13.2459C17.1666 12.1693 18.0625 11.562 19.3003 11.5485C19.7329 11.5446 20.1673 11.5485 20.5999 11.5485L20.6018 11.5543ZM21.0382 13.5854C20.5091 13.5854 19.9742 13.5486 19.4509 13.6009C19.2018 13.6262 18.9682 13.8201 18.7287 13.9385C18.8523 14.1732 18.9199 14.4778 19.1091 14.6272C19.8255 15.1956 20.5864 15.7077 21.3201 16.2548C22.415 17.0696 22.7336 18.057 22.3262 19.3703C22.0559 20.2453 21.743 21.1085 21.4978 21.9912C21.4321 22.2279 21.5499 22.515 21.5847 22.7788C21.8434 22.7323 22.1505 22.7575 22.3513 22.6236C23.1121 22.1173 23.8362 21.5508 24.5797 21.0193C25.7151 20.2065 26.6941 20.2065 27.8373 21.0193C28.5633 21.5353 29.2624 22.0921 30.0058 22.5848C30.2279 22.7323 30.5523 22.7187 30.8303 22.7788C30.8593 22.4878 30.9713 22.1736 30.8998 21.9117C30.6643 21.0542 30.3495 20.2162 30.085 19.3665C29.6833 18.0725 29.9846 17.1103 31.0524 16.2994C31.7823 15.7465 32.547 15.2382 33.2595 14.664C33.4642 14.4991 33.5395 14.1713 33.6747 13.9191C33.4295 13.8085 33.1862 13.6145 32.9351 13.6029C32.07 13.5641 31.203 13.5874 30.336 13.5874C28.8163 13.5874 28.0516 13.0325 27.5592 11.5659C27.2908 10.7667 27.061 9.95383 26.7636 9.16621C26.6671 8.91014 26.4103 8.7142 26.2288 8.49111C26.0318 8.69868 25.7653 8.87522 25.6533 9.12159C25.4448 9.57942 25.3096 10.0741 25.1764 10.561C24.4619 13.145 23.8749 13.7348 21.0382 13.5874V13.5854Z" fill="#EF7B10"/>
<path d="M35.1575 55.5563C35.1575 52.2875 35.1575 49.0206 35.1575 45.7518C35.1575 44.5451 35.4607 44.2348 36.6328 44.2348C38.923 44.2348 41.2112 44.2309 43.5014 44.2348C44.4476 44.2348 44.8125 44.5975 44.8125 45.55C44.8164 52.2564 44.8164 58.9609 44.8125 65.6673C44.8125 66.5965 44.4283 66.9845 43.4859 66.9904C41.1475 67.002 38.811 67.0039 36.4725 66.9904C35.536 66.9845 35.1614 66.5907 35.1594 65.6518C35.1536 62.2879 35.1575 58.9221 35.1575 55.5582V55.5563ZM42.7 64.8506V46.3105H37.2642V64.8506H42.7Z" fill="black"/>
<path d="M30.5211 60.2024C30.5211 62.0415 30.5269 63.8787 30.5191 65.7177C30.5153 66.5907 30.1677 66.9787 29.3084 66.9864C26.9236 67.0058 24.5407 67.0039 22.156 66.9864C21.2947 66.9806 20.9085 66.5985 20.9047 65.7391C20.8912 62.0376 20.8912 58.3362 20.9047 54.6367C20.9085 53.7269 21.2851 53.3874 22.2042 53.3855C24.5639 53.3796 26.9255 53.3796 29.2852 53.3855C30.1542 53.3874 30.5153 53.7463 30.5191 54.6135C30.5269 56.4758 30.5211 58.3382 30.5211 60.2005V60.2024ZM22.9998 64.8428H28.4414V55.4806H22.9998V64.8428Z" fill="black"/>
<path d="M27.1869 2.45407C27.1869 2.91383 27.2043 3.3736 27.1831 3.83337C27.156 4.40565 26.8104 4.72769 26.2658 4.76842C25.6807 4.81304 25.2405 4.49489 25.1999 3.91679C25.1285 2.90607 25.1362 1.88566 25.1671 0.871068C25.1845 0.296844 25.6131 0.00391155 26.1403 3.16502e-05C26.7158 -0.00384825 27.0981 0.349222 27.1541 0.931207C27.2024 1.43365 27.1637 1.9458 27.1637 2.45407C27.1715 2.45407 27.1792 2.45407 27.1869 2.45407Z" fill="black"/>
<path d="M35.3976 4.30668C35.1968 4.66363 35.0964 4.94298 34.911 5.14668C34.3452 5.77328 33.7543 6.37855 33.1557 6.97411C32.6575 7.4688 32.0396 7.49596 31.6206 7.07111C31.2208 6.66566 31.2228 6.07203 31.6766 5.57929C32.281 4.92164 32.8738 4.2446 33.5535 3.67426C33.8103 3.45892 34.3355 3.38714 34.6638 3.48996C34.9573 3.58308 35.1446 4.00793 35.3957 4.30474L35.3976 4.30668Z" fill="black"/>
<path d="M21.2189 6.7142C21.0239 6.95281 20.8559 7.3408 20.5798 7.44362C20.2747 7.55808 19.7629 7.54256 19.5312 7.35244C18.7685 6.72778 18.0675 6.02164 17.3936 5.29804C17.0229 4.90035 17.0499 4.39596 17.4226 3.98275C17.7972 3.56954 18.3089 3.48224 18.7183 3.83725C19.5023 4.51236 20.2283 5.2573 20.9524 5.99836C21.0876 6.13609 21.1031 6.39023 21.217 6.71614L21.2189 6.7142Z" fill="black"/>
</g>
<defs>
<clipPath id="clip0_816_53">
<rect width="67" height="67" fill="white"/>
</clipPath>
</defs>
</svg>
