<svg width="91" height="91" viewBox="0 0 91 91" fill="none" xmlns="http://www.w3.org/2000/svg">
<g clip-path="url(#clip0_281_9266)">
<path d="M0 41.7634C0.429371 40.4566 0.691888 39.0608 1.31703 37.8542C3.60405 33.4441 7.28374 31.0309 12.2738 30.9485C18.2227 30.8506 24.1738 30.9218 30.125 30.9263C31.244 30.9263 31.9804 31.4984 32.125 32.4223C32.2562 33.2682 31.7623 34.1209 30.9281 34.3657C30.5677 34.4726 30.1694 34.4681 29.7868 34.4681C24.2205 34.4748 18.6565 34.4704 13.0903 34.4726C7.35048 34.4726 3.55065 38.2905 3.55065 44.0586C3.55065 52.7385 3.55065 61.4184 3.55065 70.0983C3.55065 75.7974 7.3705 79.622 13.0591 79.6264C16.5519 79.6264 20.047 79.6398 23.5398 79.6175C24.4052 79.6108 24.9947 79.9136 25.5954 80.5725C26.9036 82.0084 28.3496 83.3152 29.8469 84.78C29.8469 83.7894 29.8469 82.8878 29.8469 81.9862C29.8491 80.2208 30.432 79.6264 32.1717 79.6264C38.1807 79.6264 44.1919 79.6264 50.2008 79.6264C55.8427 79.6242 59.6826 75.7929 59.6893 70.1673C59.6937 66.316 59.6848 62.4647 59.6959 58.6134C59.6982 57.6138 60.2677 56.9015 61.122 56.7323C61.9585 56.5675 62.8172 57.035 63.1087 57.8565C63.2043 58.1281 63.2288 58.4353 63.231 58.7269C63.2377 62.8743 63.2666 67.0217 63.2221 71.1691C63.1598 76.975 58.5369 82.191 52.7882 82.9991C52.0296 83.1059 51.2598 83.1661 50.4945 83.1683C45.1663 83.1816 39.8359 83.175 34.5076 83.175H33.3953C33.3953 84.1122 33.3953 85.016 33.3953 85.9221C33.3953 86.8415 33.3441 87.7631 33.4064 88.6759C33.4776 89.7422 33.1128 90.5169 32.1539 91H31.0883C30.5321 90.5192 29.947 90.0695 29.4264 89.553C27.4686 87.6207 25.5465 85.6505 23.5665 83.7404C23.2506 83.4354 22.7166 83.2061 22.2806 83.1995C18.9391 83.1549 15.5953 83.2462 12.256 83.1572C7.27261 83.0214 3.5996 80.6482 1.31703 76.2404C0.691888 75.036 0.431596 73.6424 0.00222472 72.3356C0.00222472 62.1441 0.00222472 51.9549 0.00222472 41.7634H0Z" fill="#1D1E20"/>
<path d="M81.3512 51.2825C81.3512 52.823 81.3312 54.3636 81.3601 55.9041C81.3779 56.7923 81.0998 57.5047 80.2544 57.8386C79.4224 58.1659 78.7082 57.8743 78.0898 57.2509C76.1498 55.2963 74.1809 53.3707 72.261 51.396C71.8316 50.953 71.4423 50.8974 70.8705 51.002C65.1352 52.0639 59.3954 52.1463 53.7246 50.6837C48.3719 49.3012 43.9714 46.3159 40.5365 42.0082C36.067 36.4027 34.087 29.9623 35.0347 22.8429C36.3873 12.6915 41.9603 5.65451 51.4087 1.72973C54.4454 0.463029 57.6535 -0.0801611 60.9394 0.00888652C63.9494 0.0912556 67.0396 -0.0957445 69.9517 0.518684C80.5458 2.75601 87.5181 9.22532 90.1411 19.7352C92.6061 29.6061 89.705 38.1413 82.2745 45.0848C81.6093 45.7059 81.2778 46.278 81.3312 47.1952C81.4113 48.5532 81.3512 49.9201 81.3512 51.2825ZM77.6137 51.7367C77.6782 51.6944 77.7427 51.6498 77.805 51.6075C77.805 49.6529 77.8628 47.6983 77.7827 45.7482C77.736 44.6195 78.1765 43.876 78.9974 43.1614C80.1988 42.1151 81.4179 41.0487 82.4057 39.8087C86.4859 34.6863 88.1277 28.8314 87.0398 22.3598C85.6494 14.0895 80.9307 8.36823 73.2265 5.1269C68.8127 3.27026 64.1519 3.4439 59.5044 3.62199C56.8192 3.72663 54.243 4.34328 51.7824 5.4163C42.5365 9.45461 37.0614 19.2699 38.6922 29.2521C39.7756 35.8795 43.1772 40.9931 48.7879 44.624C52.1317 46.7878 55.8225 47.9276 59.8203 48.0256C63.5734 48.1169 67.3421 48.3462 71.0085 47.2709C72.2321 46.9125 73.162 47.1418 74.0274 48.0924C75.1731 49.3502 76.4123 50.5256 77.6114 51.7344L77.6137 51.7367Z" fill="#EF7B10"/>
<path d="M30.1005 58.6445C24.0671 58.6445 18.0336 58.6445 12.0002 58.6445C11.7043 58.6445 11.4062 58.6601 11.1147 58.6178C10.2515 58.4931 9.61972 57.7652 9.60192 56.9081C9.58412 56.0154 10.2293 55.2474 11.1281 55.1227C11.4195 55.0826 11.7176 55.0982 12.0135 55.0982C24.0804 55.0982 36.1495 55.0982 48.2164 55.0982C48.5123 55.0982 48.8104 55.0826 49.1018 55.1249C49.9628 55.2496 50.5969 55.9775 50.6147 56.8346C50.6325 57.7273 49.9873 58.4954 49.0885 58.62C48.7971 58.6601 48.4989 58.6445 48.2031 58.6445C42.1696 58.6445 36.1362 58.6445 30.1027 58.6445H30.1005Z" fill="#1D1E20"/>
<path d="M26.5561 68.6001C21.7018 68.6001 16.8496 68.6001 11.9953 68.6001C11.6994 68.6001 11.3991 68.6157 11.1099 68.5712C10.2489 68.4443 9.61707 67.7119 9.60372 66.8548C9.59037 65.9621 10.2378 65.2007 11.1388 65.076C11.3724 65.0427 11.6104 65.0538 11.8485 65.0538C21.704 65.0538 31.5595 65.0538 41.415 65.0538C41.6219 65.0538 41.831 65.0449 42.0357 65.0694C42.93 65.174 43.6286 65.9287 43.6486 66.7969C43.6687 67.6874 42.9412 68.5155 42.0046 68.5778C41.2393 68.6313 40.4673 68.5979 39.6975 68.6001C35.317 68.6001 30.9366 68.6001 26.5561 68.6001Z" fill="#1D1E20"/>
<path d="M24.347 45.1427C28.6051 45.1427 32.8632 45.1472 37.1191 45.1405C37.9801 45.1405 38.7187 45.4678 38.9033 46.2915C39.0279 46.8458 38.9011 47.6428 38.5585 48.0613C38.2337 48.4553 37.4817 48.6601 36.9144 48.6668C32.7164 48.7158 28.5183 48.6935 24.3203 48.6935C20.0622 48.6935 15.804 48.6891 11.5482 48.6957C10.6872 48.6957 9.94858 48.3685 9.76171 47.5448C9.63712 46.9905 9.76393 46.1935 10.1065 45.775C10.4313 45.3809 11.1833 45.1761 11.7506 45.1695C15.9487 45.1205 20.1467 45.1427 24.3448 45.1427H24.347Z" fill="#1D1E20"/>
<path d="M50.6149 66.7835C50.6371 67.7297 49.8585 68.5578 48.913 68.5934C47.9319 68.629 47.082 67.8076 47.082 66.8236C47.082 65.873 47.8785 65.0694 48.8284 65.0582C49.7762 65.0471 50.5926 65.8352 50.6149 66.7835Z" fill="#1D1E20"/>
<path d="M61.6096 29.152C61.6096 29.8332 61.594 30.5144 61.6141 31.1934C61.6474 32.4111 62.3727 33.2148 63.3983 33.2014C64.4172 33.1881 65.1491 32.3621 65.1758 31.1555C65.1959 30.1782 65.2292 29.1987 65.1647 28.2259C65.118 27.5157 65.3471 27.2152 66.039 26.9792C69.7254 25.7125 71.7721 21.4716 70.553 17.7583C69.3984 14.2432 66.019 12.0281 62.4861 12.4756C58.8131 12.9408 56.03 16.0085 55.8587 19.7753C55.8142 20.7459 56.4327 21.5473 57.3292 21.6875C58.3482 21.8456 59.1023 21.3336 59.3448 20.3029C59.4183 19.989 59.4561 19.6639 59.4983 19.3434C59.7698 17.2864 61.8988 15.7169 63.9322 16.0775C66.2259 16.4827 67.7209 18.5753 67.2515 20.7103C66.8933 22.3398 65.8922 23.3349 64.3126 23.8202C62.3927 24.4102 61.6363 25.452 61.6096 27.4667C61.6029 28.03 61.6096 28.591 61.6096 29.1542V29.152ZM63.3404 40.2028C64.3215 40.2228 65.1692 39.4058 65.1669 38.4419C65.1647 37.5336 64.3393 36.6898 63.4227 36.6587C62.4995 36.6275 61.6719 37.4156 61.6341 38.3573C61.594 39.3813 62.3371 40.1827 63.3404 40.2028Z" fill="white"/>
<path d="M61.6096 29.1519C61.6096 28.5887 61.6029 28.0277 61.6096 27.4645C61.6363 25.4498 62.3927 24.4079 64.3126 23.818C65.89 23.3327 66.8933 22.3375 67.2515 20.708C67.7209 18.5731 66.2259 16.4782 63.9322 16.0753C61.8966 15.7169 59.7698 17.2863 59.4983 19.3411C59.4561 19.6617 59.4183 19.9867 59.3448 20.3006C59.1023 21.3313 58.3482 21.8433 57.3292 21.6853C56.4327 21.5473 55.8142 20.7436 55.8587 19.773C56.03 16.0063 58.8154 12.9386 62.4861 12.4733C66.019 12.0258 69.3984 14.2387 70.553 17.756C71.7721 21.4693 69.7254 25.7102 66.039 26.9769C65.3471 27.2151 65.118 27.5157 65.1647 28.2236C65.2292 29.1964 65.1959 30.176 65.1758 31.1533C65.1514 32.3576 64.4172 33.1858 63.3983 33.1991C62.3727 33.2125 61.6474 32.4088 61.6141 31.1911C61.5963 30.5099 61.6096 29.8287 61.6096 29.1497V29.1519Z" fill="#EF7B10"/>
<path d="M63.3397 40.2005C62.3364 40.1805 61.5933 39.379 61.6334 38.355C61.669 37.4133 62.4988 36.6252 63.4221 36.6564C64.3409 36.6876 65.164 37.5313 65.1662 38.4396C65.1685 39.4035 64.3208 40.2205 63.3397 40.2005Z" fill="#EF7B10"/>
</g>
<defs>
<clipPath id="clip0_281_9266">
<rect width="91" height="91" fill="white"/>
</clipPath>
</defs>
</svg>
