<svg width="41" height="33" viewBox="0 0 41 33" fill="none" xmlns="http://www.w3.org/2000/svg">
<path d="M6.9375 10.1094C6.70312 10.3438 6.39062 10.5 6 10.5C5.6875 10.5781 5.29688 10.4219 5.0625 10.1875L1.3125 6.4375C0.84375 5.96875 0.84375 5.10938 1.3125 4.64062C1.78125 4.17188 2.64062 4.17188 3.10938 4.64062L5.84375 7.45312L11.2344 0.96875C11.7031 0.421875 12.4844 0.421875 13.0312 0.8125C13.5781 1.28125 13.5781 2.0625 13.1875 2.60938L6.9375 10.1094ZM6.9375 22.6094C6.70312 22.8438 6.39062 23 6 23C5.6875 23.0781 5.29688 22.9219 5.0625 22.6875L1.3125 18.9375C0.84375 18.4688 0.84375 17.6094 1.3125 17.1406C1.78125 16.6719 2.64062 16.6719 3.10938 17.1406L5.84375 19.9531L11.2344 13.4688C11.7031 12.9219 12.4844 12.9219 13.0312 13.3125C13.5781 13.7812 13.5781 14.5625 13.1875 15.1094L6.9375 22.6094ZM15.9219 5.5C15.9219 4.875 16.5469 4.25 17.1719 4.25H39.75C40.375 4.25 41 4.875 41 5.5C41 6.20312 40.375 6.75 39.75 6.75H17.1719C16.5469 6.75 15.9219 6.20312 15.9219 5.5ZM15.9219 18C15.9219 17.375 16.5469 16.75 17.1719 16.75H39.75C40.375 16.75 41 17.375 41 18C41 18.7031 40.375 19.25 39.75 19.25H17.1719C16.5469 19.25 15.9219 18.7031 15.9219 18ZM13.4219 30.5C13.4219 29.875 14.0469 29.25 14.6719 29.25H39.75C40.375 29.25 41 29.875 41 30.5C41 31.2031 40.375 31.75 39.75 31.75H14.6719C14.0469 31.75 13.4219 31.2031 13.4219 30.5ZM5.92188 33C4.59375 33 3.42188 31.9062 3.42188 30.5C3.42188 29.1719 4.59375 28 5.92188 28C7.32812 28 8.42188 29.1719 8.42188 30.5C8.42188 31.9062 7.32812 33 5.92188 33Z" fill="#1D1E20"/>
</svg>
