<svg width="40" height="40" viewBox="0 0 40 40" fill="none" xmlns="http://www.w3.org/2000/svg">
<path d="M15 20C15 17.2656 17.1875 15 20 15C22.7344 15 25 17.2656 25 20C25 22.8125 22.7344 25 20 25C17.1875 25 15 22.8125 15 20ZM20 22.5C21.3281 22.5 22.5 21.4062 22.5 20C22.5 18.6719 21.3281 17.5 20 17.5C18.5938 17.5 17.5 18.6719 17.5 20C17.5 21.4062 18.5938 22.5 20 22.5ZM7.5 20C7.5 13.125 13.0469 7.5 20 7.5C26.875 7.5 32.5 13.125 32.5 20C32.5 26.9531 26.875 32.5 20 32.5C13.0469 32.5 7.5 26.9531 7.5 20ZM20 30C25.4688 30 30 25.5469 30 20C30 14.5312 25.4688 10 20 10C14.4531 10 10 14.5312 10 20C10 25.5469 14.4531 30 20 30ZM40 20C40 31.0938 31.0156 40 20 40C8.90625 40 0 31.0938 0 20C0 8.98438 8.90625 0 20 0C31.0156 0 40 8.98438 40 20ZM20 2.5C10.3125 2.5 2.5 10.3906 2.5 20C2.5 29.6875 10.3125 37.5 20 37.5C29.6094 37.5 37.5 29.6875 37.5 20C37.5 10.3906 29.6094 2.5 20 2.5Z" fill="#1D1E20"/>
</svg>
