<svg width="55" height="55" viewBox="0 0 55 55" fill="none" xmlns="http://www.w3.org/2000/svg">
<g clip-path="url(#clip0_662_3134)">
<path d="M50.1862 0.241096C49.9898 0.160731 49.7933 0.0803653 49.5969 0H48.1677C48.1295 0.0330072 48.0973 0.0861057 48.0519 0.0975864C45.7196 0.671624 44.7536 3.40117 46.1755 5.28832C46.2635 5.406 46.2444 5.69589 46.1535 5.82935C43.9562 9.08271 41.7456 12.326 39.5219 15.5622C39.431 15.6928 39.1613 15.8119 39.0103 15.7803C37.8039 15.5234 36.7763 15.8291 35.8484 16.5983C35.7223 16.7031 35.4071 16.7074 35.243 16.6299C33.8606 15.9783 32.493 15.2967 31.1209 14.6222C31.0109 14.5691 30.9098 14.5002 30.838 14.4571C30.8556 14.1443 30.9069 13.8745 30.8819 13.6119C30.7486 12.204 30.0376 11.1722 28.6729 10.6757C27.3316 10.1863 26.0841 10.4575 25.0932 11.465C24.0934 12.4781 23.8149 13.7037 24.3939 15.024C24.5625 15.4057 24.4731 15.5952 24.2092 15.842C23.6009 16.4117 23.0145 17.0044 22.4179 17.5856C21.1236 18.8485 19.8262 20.11 18.5231 21.38C17.7418 20.9495 16.9209 20.8146 16.0706 21.0098C14.3966 21.3944 13.3866 22.7506 13.4218 24.4841C13.4262 24.6779 13.3529 24.9836 13.2166 25.0524C11.7155 25.8231 10.1939 26.5564 8.67233 27.3012C8.02001 26.6282 7.26947 26.2106 6.34157 26.179C4.91526 26.1316 3.78507 26.687 3.12102 27.9226C2.45991 29.1525 2.57278 30.4025 3.45671 31.4989C4.33917 32.5939 5.5324 32.9914 6.93086 32.6584C8.54773 32.2738 9.50495 30.9449 9.4771 29.2271C9.47417 29.032 9.54599 28.7249 9.68232 28.6545C11.1849 27.8839 12.7079 27.1506 14.2148 26.4115C14.2867 26.466 14.3321 26.4947 14.3732 26.5306C15.6778 27.6887 17.3577 27.8581 18.696 26.9669C20.0637 26.057 20.5049 24.4712 19.8819 22.8266C19.8218 22.6702 19.9025 22.376 20.0271 22.2526C21.8374 20.4515 23.6713 18.6749 25.4846 16.8767C25.7103 16.6528 25.8789 16.6672 26.1471 16.7791C27.4723 17.3302 28.6905 17.1135 29.7664 16.1965C29.998 15.997 30.1578 15.9669 30.4305 16.1032C31.7805 16.7806 33.1365 17.4464 34.5012 18.0951C34.7959 18.2343 34.8809 18.385 34.8472 18.7079C34.683 20.2219 35.6314 21.6326 37.1061 22.1234C38.6086 22.6228 40.2064 22.0933 41.0288 20.7701C41.8849 19.3924 41.7442 18.0521 40.7386 16.792C40.7781 16.7131 40.8001 16.6428 40.8397 16.5854C43.081 13.2947 45.3253 10.0069 47.5593 6.71337C47.7191 6.47658 47.8598 6.45362 48.1398 6.51102C49.9121 6.87554 51.5993 5.91259 52.1182 4.27228C52.6327 2.64631 51.7957 0.898369 50.1862 0.241096ZM6.10116 31.1516C5.18059 31.1502 4.40074 30.3752 4.4022 29.4639C4.40367 28.534 5.15567 27.8064 6.11289 27.8078C7.05546 27.8093 7.82651 28.5613 7.82358 29.474C7.81918 30.3752 7.02027 31.1545 6.10116 31.1516ZM16.7772 25.8977C15.8508 25.8891 15.0621 25.1055 15.0782 24.2086C15.0958 23.3088 15.9035 22.5439 16.8256 22.5554C17.7623 22.5683 18.5099 23.326 18.5011 24.256C18.4938 25.1859 17.7359 25.9078 16.7772 25.8977ZM27.5046 15.4459C26.5825 15.4502 25.7939 14.681 25.7895 13.7712C25.7851 12.8513 26.5459 12.1079 27.4943 12.105C28.4442 12.1036 29.205 12.8384 29.2079 13.7597C29.2094 14.6695 28.4295 15.4416 27.5046 15.4459ZM38.1718 20.6567C37.2131 20.6481 36.4875 19.9191 36.4963 18.9734C36.5051 18.0607 37.2981 17.2986 38.2216 17.3187C39.1437 17.3374 39.9353 18.1324 39.9191 19.0207C39.9015 19.9349 39.1217 20.6654 38.1718 20.6567ZM48.8625 4.95682C47.9243 4.94821 47.1606 4.1833 47.1753 3.26771C47.1899 2.36791 48.0049 1.59439 48.9182 1.61161C49.8432 1.63027 50.6069 2.40665 50.5966 3.32081C50.5864 4.24501 49.8226 4.96686 48.8625 4.95682Z" fill="#EF7B10"/>
<path d="M51.4908 13.2919H46.3221V53.3454H51.4908C51.4908 53.1273 51.4908 52.9192 51.4908 52.7096C51.4908 47.196 51.4908 41.6809 51.4908 36.1673C51.4908 35.9879 51.479 35.8071 51.5054 35.6306C51.5729 35.1613 51.91 34.8714 52.3571 34.8872C52.835 34.9044 53.093 35.1728 53.1604 35.6162C53.1897 35.81 53.1824 36.0094 53.1824 36.206C53.1824 41.6838 53.1824 47.163 53.1824 52.6408C53.1824 52.8689 53.1824 53.0985 53.1824 53.3899C53.5577 53.3899 53.8831 53.377 54.2056 53.3927C54.6805 53.4171 54.9942 53.74 54.9972 54.182C55.0016 54.6255 54.6908 54.9527 54.2232 54.9914C54.0957 55.0015 53.9667 54.9957 53.8391 54.9957C36.2852 54.9957 18.7312 54.9957 1.17868 54.9957C1.12445 54.9957 1.06874 54.9957 1.0145 54.9957C0.354857 54.99 0.00744213 54.7173 0.000112711 54.2036C-0.00721671 53.6841 0.34313 53.3942 0.989585 53.3884C1.24172 53.3856 1.49532 53.3884 1.81634 53.3884C1.81634 53.133 1.81634 52.9235 1.81634 52.7154C1.81634 48.4187 1.81634 44.122 1.81634 39.8254C1.81634 38.3874 2.33527 37.8751 3.79089 37.8736C5.38431 37.8722 6.97919 37.8679 8.57261 37.8751C9.83473 37.8808 10.38 38.4132 10.3815 39.6474C10.3859 43.9986 10.383 48.3484 10.383 52.6996C10.383 52.9105 10.383 53.1215 10.383 53.3597H12.5349C12.5349 53.1488 12.5349 52.9421 12.5349 52.7355C12.5349 46.7196 12.5349 40.7051 12.5349 34.6892C12.5349 34.4925 12.532 34.2945 12.5408 34.0979C12.5818 33.2454 13.174 32.6628 14.055 32.6571C15.8683 32.6441 17.6831 32.6456 19.4964 32.6542C20.4111 32.6585 21.0018 33.2067 21.0883 34.0979C21.1059 34.2758 21.0971 34.4552 21.0971 34.6346C21.0971 40.6505 21.0971 46.665 21.0971 52.6809V53.354H23.2153C23.2153 53.133 23.2153 52.9077 23.2153 52.6824C23.2153 43.1218 23.2153 33.5612 23.2153 24.0006C23.2153 22.6444 23.746 22.1306 25.143 22.1306C26.7554 22.1306 28.3679 22.1306 29.9804 22.1306C31.2132 22.1306 31.779 22.6918 31.779 23.913C31.779 33.5095 31.779 43.106 31.779 52.701C31.779 52.912 31.779 53.1229 31.779 53.3597H33.8987V52.6623C33.8987 44.9099 33.9148 37.1575 33.887 29.4051C33.8811 27.5653 34.9409 27.2783 36.3687 27.4132C36.8261 27.4563 37.1236 27.8452 37.0811 28.2815C37.0357 28.7407 36.7601 28.9875 36.291 29.0148C36.0931 29.0263 35.8938 29.0162 35.6446 29.0162V53.3454H40.7781V29.0478C40.5318 29.0363 40.2987 29.0291 40.0671 29.0119C39.5863 28.9789 39.3254 28.6919 39.2917 28.2542C39.2594 27.8308 39.5116 27.485 39.9323 27.4405C40.4321 27.3874 40.9657 27.3931 41.448 27.5151C42.0637 27.6701 42.4067 28.1423 42.4507 28.7823C42.4653 28.9961 42.4624 29.2114 42.4624 29.4267C42.4624 37.179 42.4624 44.9314 42.4624 52.6838V53.3511H44.6143C44.6143 53.1186 44.6143 52.879 44.6143 52.6379C44.6143 39.6761 44.6143 26.7143 44.6143 13.7511C44.6143 13.5359 44.6085 13.3206 44.6231 13.1068C44.6788 12.2242 45.2608 11.6315 46.1711 11.62C47.9844 11.597 49.7991 11.597 51.6124 11.62C52.4832 11.6315 53.0417 12.1653 53.1546 13.0049C53.1809 13.1986 53.1809 13.3981 53.1809 13.5933C53.1809 19.5374 53.1809 25.4816 53.1809 31.4243C53.1809 31.6209 53.1853 31.8204 53.1531 32.0127C53.0783 32.4605 52.7866 32.7288 52.3293 32.7274C51.869 32.7259 51.5905 32.4404 51.5098 32.0027C51.4747 31.8118 51.4893 31.6109 51.4893 31.4143C51.4893 25.5964 51.4893 19.7771 51.4893 13.9592C51.4893 13.7468 51.4893 13.5344 51.4893 13.2876L51.4908 13.2919ZM24.9172 23.771V53.3483H30.0918V23.771H24.9172ZM19.3615 53.3741V34.2974H14.2324V53.3741H19.3615ZM3.55342 39.5369V53.3554H8.67229V39.5369H3.55195H3.55342Z" fill="black"/>
</g>
<defs>
<clipPath id="clip0_662_3134">
<rect width="55" height="55" fill="white"/>
</clipPath>
</defs>
</svg>
