<svg width="68" height="68" viewBox="0 0 68 68" fill="none" xmlns="http://www.w3.org/2000/svg">
<g clip-path="url(#clip0_662_3152)">
<path d="M34.5328 0C34.7634 0.0674374 34.9941 0.134875 35.2266 0.200538C37.0187 0.715192 38.1916 2.23608 38.2874 4.17402C38.3797 6.05162 37.3754 7.67012 35.6134 8.3374C35.1219 8.52374 34.987 8.75799 35.0172 9.24425C35.058 9.90443 35.0278 10.5682 35.0278 11.3348C40.461 11.6543 45.204 13.6188 49.1963 17.1877C50.0747 16.3092 50.9157 15.4716 51.7745 14.6126C50.2805 11.1698 50.866 8.37821 53.4868 6.67098C55.7687 5.18381 58.8579 5.61328 60.7334 7.68077C62.5451 9.67727 62.6622 12.8007 61.0138 14.8842C59.4843 16.8168 56.3418 18.0786 53.3857 16.1779C52.5233 17.0404 51.6698 17.894 50.788 18.776C54.3368 22.7619 56.3152 27.4772 56.6275 32.9166H59.3263C59.7504 32.2546 60.0769 31.566 60.5666 31.0212C61.9081 29.5305 64.0356 29.2235 65.7798 30.1871C67.5205 31.1472 68.3615 33.149 67.8558 35.1243C67.3768 36.9965 65.684 38.2672 63.6772 38.2619C61.7821 38.2583 60.3307 37.2752 59.6546 35.4792C59.5002 35.0692 59.3015 34.9503 58.8898 34.9681C58.1641 35 57.4366 34.977 56.6346 34.977C56.3134 40.4341 54.3474 45.176 50.7844 49.1885C51.6486 50.0528 52.4896 50.8957 53.3804 51.7866C54.4077 51.0998 55.6108 50.7822 56.938 50.8709C59.573 51.043 61.9755 53.327 62.1494 55.8666C62.3588 58.903 60.4708 61.5047 57.6691 62.0336C55.334 62.4737 53.3963 61.7567 52.0105 59.8454C50.6052 57.9075 50.4384 55.808 51.6344 53.6784C51.8029 53.3767 51.8207 53.1993 51.5581 52.9473C50.811 52.225 50.0942 51.4725 49.3259 50.6917C48.9745 50.9791 48.6765 51.2755 48.3322 51.4956C46.7353 52.5178 45.1419 53.5453 43.5112 54.5143C42.7819 54.9473 42.1893 54.7787 41.9054 54.2161C41.6073 53.6252 41.8734 53.091 42.6524 52.713C48.7705 49.7422 52.6742 44.947 54.154 38.3204C56.2016 29.1507 51.7728 19.9384 43.3852 15.681C38.0301 12.9622 32.51 12.5096 26.8355 14.6197C26.0654 14.9072 25.4798 14.7191 25.2722 14.1352C25.054 13.5177 25.3468 13.0385 26.1328 12.7457C28.09 12.0163 30.1039 11.5513 32.1924 11.4164C32.4319 11.4005 32.6697 11.3597 32.9766 11.3224C32.9766 10.4741 33.005 9.65775 32.9518 8.84673C32.9412 8.67991 32.6484 8.4705 32.4425 8.38709C29.4545 7.17676 28.7004 3.24055 31.1295 1.14821C31.7665 0.599838 32.6839 0.37623 33.4717 0.00354934C33.8266 0.00354934 34.1797 0.00354934 34.5346 0.00354934L34.5328 0ZM56.5423 52.8638C54.4645 52.8727 52.8747 54.4752 52.9048 56.5321C52.935 58.6084 54.5515 60.1844 56.608 60.1453C58.5545 60.108 60.171 58.4541 60.171 56.5001C60.171 54.5143 58.5172 52.8567 56.5423 52.8638ZM56.5086 15.0439C58.6042 15.0492 60.1639 13.5017 60.1692 11.4111C60.1745 9.46964 58.5367 7.83516 56.5707 7.82274C54.5603 7.81032 52.8924 9.41639 52.8729 11.3827C52.8534 13.4644 54.4166 15.0385 56.5086 15.0421V15.0439ZM63.6576 31.6974C62.3322 31.7116 61.3474 32.7107 61.3651 34.0222C61.3829 35.2769 62.467 36.3009 63.7499 36.276C64.9831 36.2529 66.0353 35.1757 66.0087 33.9618C65.9803 32.6362 64.9884 31.6814 63.6576 31.6956V31.6974ZM36.277 4.37633C36.2859 3.04533 35.3348 2.06749 34.0076 2.04087C32.7513 2.01602 31.7079 3.0684 31.7115 4.36036C31.7133 5.63635 32.7016 6.64259 33.9597 6.65323C35.294 6.66388 36.2681 5.70556 36.277 4.37633Z" fill="black"/>
<path d="M-0.000178734 33.2093C0.0388579 33.1312 0.093864 33.0585 0.116931 32.9751C0.677639 30.9697 2.12909 29.7789 4.16787 29.66C6.03453 29.55 7.64745 30.6609 8.39269 32.5651C8.4406 32.6858 8.49383 32.8047 8.54352 32.9236H11.3772C11.6877 27.4789 13.6591 22.7388 17.2221 18.7493C16.3437 17.8691 15.5027 17.0261 14.6527 16.1725C11.583 17.7289 8.63224 17.1805 6.8472 14.696C5.27154 12.5025 5.54124 9.39682 7.47711 7.46243C9.42539 5.51562 12.5217 5.23522 14.706 6.8058C17.2132 8.60887 17.7597 11.4909 16.216 14.6019C17.0659 15.4538 17.9052 16.2932 18.7587 17.1486C19.5714 16.5345 20.416 15.8619 21.3014 15.2461C21.5693 15.0598 21.9828 14.8912 22.2596 14.9675C22.563 15.0509 22.9498 15.397 23.003 15.6845C23.0634 16.0004 22.8806 16.4795 22.6375 16.7102C22.0466 17.2693 21.3351 17.6987 20.7105 18.224C16.7394 21.5604 14.2606 25.7699 13.5739 30.9271C12.1952 41.2663 18.8172 51.8487 29.5009 54.1522C32.1926 54.7325 34.8968 54.7378 37.608 54.2818C37.8263 54.2445 38.0445 54.2037 38.2646 54.1983C38.8679 54.1841 39.2724 54.516 39.3221 55.0573C39.3771 55.6642 39.0737 56.0617 38.5041 56.1629C37.3774 56.3617 36.24 56.4983 35.0636 56.6669V59.4496C36.3163 59.8507 37.3419 60.5623 37.9079 61.8134C38.3338 62.7558 38.4047 63.739 38.1563 64.731C37.6435 66.7737 35.8479 68.1082 33.8073 67.9946C31.7437 67.8811 30.0474 66.385 29.7617 64.4258C29.4192 62.0761 30.5158 60.3387 32.929 59.4567V56.6101C27.5224 56.2836 22.8008 54.3243 18.6966 50.665C17.891 51.4849 17.089 52.2728 16.3366 53.1034C16.2408 53.2099 16.3402 53.5772 16.4467 53.7706C18.1217 56.8266 16.5478 60.8569 13.2173 61.8809C10.907 62.5908 8.85581 62.0264 7.25708 60.2251C5.67255 58.4398 5.34961 56.3315 6.33972 54.1699C7.35467 51.9552 9.21069 50.8904 11.6452 50.8566C12.7417 50.8424 13.7247 51.208 14.5693 51.76C15.4406 50.8886 16.2923 50.035 17.1671 49.1618C16.6347 48.475 15.9924 47.7173 15.4299 46.9062C13.0487 43.4705 11.6771 39.6709 11.4305 35.488C11.4056 35.0727 11.2495 34.9361 10.8662 34.9769C10.7349 34.9911 10.5983 34.9929 10.4687 34.9769C9.29053 34.8225 8.47964 35.0106 7.8728 36.3221C7.12578 37.9335 5.49511 38.4482 3.75976 38.2316C2.07408 38.0222 0.86395 37.103 0.257108 35.4703C0.173712 35.2484 0.0849921 35.0284 -0.00195312 34.8083C-0.00195312 34.2777 -0.00195312 33.7453 -0.00195312 33.2147L-0.000178734 33.2093ZM11.5121 52.8691C9.46443 52.8461 7.8515 54.445 7.83376 56.5125C7.81602 58.4647 9.50169 60.1453 11.4784 60.147C13.4249 60.147 15.0928 58.5197 15.1301 56.5817C15.1691 54.5391 13.5633 52.8904 11.5138 52.8691H11.5121ZM11.4624 7.82269C9.47507 7.81559 7.83553 9.45184 7.83376 11.4448C7.83376 13.4111 9.43249 15.0456 11.3932 15.0775C13.4745 15.1113 15.0644 13.5673 15.0981 11.4821C15.1301 9.42167 13.5491 7.82979 11.4624 7.82269ZM4.28853 36.276C5.56431 36.2866 6.64669 35.2307 6.63782 33.9849C6.62895 32.6681 5.63529 31.6902 4.30982 31.6938C2.98435 31.6973 1.99424 32.6805 1.99424 33.9973C1.99424 35.22 3.04823 36.2653 4.28853 36.276ZM36.2914 63.6485C36.2861 62.3725 35.2978 61.3698 34.038 61.3627C32.6752 61.3556 31.71 62.3352 31.7259 63.7106C31.7401 64.9972 32.7019 65.9538 34.0007 65.9751C35.2605 65.9963 36.2985 64.9422 36.2932 63.6485H36.2914Z" fill="black"/>
<path d="M19.5702 33.9369C19.5702 31.3246 19.5933 28.7123 19.5596 26.1017C19.5418 24.7494 20.0582 23.7041 21.1157 22.9002C22.7606 21.6526 24.6805 21.0617 26.6607 20.6748C32.3423 19.5656 38.0062 19.5745 43.576 21.2906C44.795 21.6668 45.9466 22.3536 47.0289 23.0528C48.0297 23.7006 48.4414 24.7565 48.4378 25.9739C48.4254 31.3086 48.4236 36.6432 48.4378 41.9779C48.4414 43.371 47.8114 44.3826 46.7255 45.167C45.1499 46.3063 43.3364 46.8849 41.4698 47.2558C36.1537 48.3082 30.8394 48.3082 25.557 47.0144C24.0275 46.64 22.5565 46.104 21.263 45.1652C20.1309 44.3453 19.533 43.2805 19.5543 41.8395C19.5933 39.2059 19.5649 36.5723 19.5649 33.9369H19.5702ZM34.0954 21.9241C31.0523 21.988 28.1192 22.1939 25.2997 23.1309C24.3043 23.461 23.3231 23.9135 22.4376 24.4726C21.3091 25.1824 21.3446 25.9633 22.4323 26.7566C22.8387 27.0529 23.2911 27.3049 23.7542 27.5073C26.1089 28.5437 28.609 28.9589 31.1535 29.1471C34.8602 29.4186 38.5367 29.2482 42.1405 28.2704C43.4624 27.9119 44.7701 27.4718 45.833 26.5472C46.5836 25.8941 46.612 25.2729 45.8223 24.6749C45.1978 24.201 44.488 23.8 43.7605 23.5072C40.6305 22.2507 37.3248 22.0164 34.0954 21.9259V21.9241ZM46.3671 28.9199C38.102 32.1267 29.8972 32.1374 21.6179 28.9039C21.6179 29.447 21.6551 30.1054 21.6072 30.7567C21.5575 31.4328 21.8042 31.9617 22.3596 32.2669C23.2627 32.7621 24.173 33.3051 25.1507 33.5997C30.4756 35.2111 35.8733 35.2359 41.2675 34.0345C42.687 33.7186 44.0409 33.0531 45.377 32.4444C45.7869 32.2563 46.2464 31.7594 46.321 31.3405C46.47 30.5153 46.3653 29.644 46.3653 28.9217L46.3671 28.9199ZM46.3848 34.4924C38.0949 37.7152 29.8919 37.7134 21.6197 34.487C21.6197 34.9875 21.6693 35.6051 21.6072 36.212C21.5221 37.0567 21.8823 37.6672 22.5814 38.008C23.6868 38.5457 24.8029 39.1242 25.9811 39.4348C30.9867 40.7498 36.0401 40.7321 41.09 39.6921C42.6905 39.362 44.2786 38.9024 45.5988 37.8766C45.9483 37.6051 46.2819 37.1384 46.3493 36.716C46.47 35.9618 46.3831 35.1756 46.3831 34.4941L46.3848 34.4924ZM46.3671 40.079C38.1055 43.2929 29.9007 43.2912 21.6197 40.0684C21.6197 40.6274 21.6534 41.3071 21.609 41.9797C21.5682 42.6044 21.7989 43.1013 22.3063 43.3834C23.2273 43.8946 24.1517 44.4589 25.1489 44.7606C30.4721 46.3702 35.8716 46.3951 41.2657 45.1972C42.6657 44.8866 44.0054 44.2442 45.322 43.6425C45.7531 43.4456 46.2358 42.938 46.321 42.5014C46.4806 41.6798 46.3671 40.8049 46.3671 40.0808V40.079Z" fill="#EF7B10"/>
</g>
<defs>
<clipPath id="clip0_662_3152">
<rect width="68" height="68" fill="white"/>
</clipPath>
</defs>
</svg>
