<svg width="143" height="64" viewBox="0 0 143 64" fill="none" xmlns="http://www.w3.org/2000/svg">
<g opacity="0.64">
<path d="M1.87241 55.3817L2.80861 54.0034H9.64291L8.7015 55.3817H6.13214L1.71638 61.9039H0L4.41577 55.3817H1.87241Z" fill="#B8BBBE"/>
<path d="M9.60131 61.5762C9.36725 61.6796 9.12555 61.7648 8.87835 61.831C8.72231 61.8726 8.56628 61.909 8.41545 61.935C8.26461 61.961 8.11898 61.9819 7.97335 61.9923H7.7601H7.54686C7.34984 61.9913 7.15324 61.9739 6.95913 61.9402C6.78175 61.9123 6.60754 61.867 6.43901 61.805C6.30073 61.744 6.17403 61.6595 6.06453 61.5554C5.96614 61.4542 5.89307 61.3312 5.85129 61.1965C5.80406 61.0486 5.78122 60.894 5.78367 60.7388C5.78949 60.5618 5.82102 60.3866 5.87729 60.2187C5.94556 60.0167 6.02902 59.8203 6.12695 59.6309C6.23783 59.4203 6.35934 59.2155 6.49103 59.0172C6.63146 58.8144 6.78749 58.6115 6.95393 58.4139C7.12036 58.2162 7.3024 58.0186 7.51045 57.8157C7.71849 57.6129 7.92654 57.4465 8.14499 57.2956C8.36488 57.1259 8.59599 56.9713 8.83674 56.8327C9.06324 56.7004 9.29774 56.5823 9.53889 56.479C9.77004 56.3772 10.0082 56.2921 10.2514 56.2242C10.4907 56.1618 10.73 56.1098 10.9588 56.0734C11.1755 56.0376 11.3946 56.0184 11.6141 56.0161C11.8046 56.0153 11.9946 56.0345 12.1811 56.0734C12.35 56.1087 12.5153 56.1592 12.6752 56.2242C12.8193 56.2824 12.9502 56.369 13.0601 56.479C13.1542 56.5823 13.2283 56.7023 13.2785 56.8327C13.3224 56.9829 13.3417 57.1392 13.3357 57.2956C13.322 57.4717 13.2906 57.6459 13.2421 57.8157C13.1745 58.0186 13.0913 58.2162 13.0028 58.4139C12.9014 58.6242 12.7832 58.826 12.6492 59.0172C12.5059 59.2326 12.3477 59.4376 12.1759 59.6309C11.9959 59.837 11.8049 60.0332 11.6037 60.2187C11.4073 60.4055 11.1988 60.5793 10.9796 60.7388C10.7592 60.9062 10.5281 61.0591 10.2879 61.1965C10.0591 61.3311 9.82296 61.4526 9.5805 61.5606L9.60131 61.5762ZM7.96815 60.6816C7.9835 60.695 8.00111 60.7055 8.02016 60.7128H8.07737H8.13979C8.31176 60.7439 8.48792 60.7439 8.6599 60.7128C8.86962 60.6728 9.07388 60.6082 9.26843 60.5203C9.48404 60.4323 9.68834 60.3188 9.87697 60.1823C10.0776 60.0452 10.2641 59.8884 10.4335 59.7142C10.496 59.6568 10.5534 59.5942 10.6051 59.5269L10.7716 59.3189C10.8368 59.25 10.8976 59.177 10.9536 59.1004L11.1096 58.8768C11.2059 58.7262 11.2894 58.5679 11.3593 58.4035C11.4194 58.2611 11.4648 58.113 11.4945 57.9614C11.5289 57.8371 11.5289 57.7059 11.4945 57.5817C11.4549 57.4715 11.375 57.3804 11.2709 57.3268L11.1929 57.2852H11.1096H11.0108H10.9172C10.8343 57.2748 10.7504 57.2748 10.6675 57.2852C10.5781 57.2914 10.4893 57.3054 10.4023 57.3268C10.3036 57.3443 10.2063 57.3687 10.111 57.3996C10.0122 57.4309 9.91857 57.4725 9.81975 57.5141C9.60992 57.6051 9.40957 57.7166 9.22162 57.8469C9.03427 57.9751 8.86006 58.1214 8.70151 58.2838L8.51427 58.4815L8.34263 58.6843C8.28628 58.7453 8.23578 58.8115 8.1918 58.882L8.06697 59.0796C7.95306 59.243 7.85551 59.4172 7.77571 59.5997C7.71133 59.7517 7.66422 59.9105 7.63528 60.073C7.60719 60.205 7.61803 60.3424 7.66648 60.4683C7.72033 60.577 7.81048 60.6635 7.92134 60.7128H7.96815" fill="#B8BBBE"/>
<path d="M16.4252 62.6789C16.162 62.9478 15.8728 63.19 15.5618 63.4018C15.258 63.5926 14.9288 63.7396 14.584 63.8387C14.2253 63.9401 13.8541 63.9909 13.4814 63.9896H10.4699L11.2605 62.8089H14.0015C14.1576 62.7957 14.3125 62.7696 14.4644 62.7309C14.607 62.6932 14.7436 62.6354 14.8701 62.5593C15.0037 62.4806 15.1261 62.3844 15.2341 62.2732C15.3505 62.1573 15.455 62.0301 15.5462 61.8935H14.3031C14.0882 61.8935 13.8853 61.8935 13.6946 61.8935C13.52 61.8849 13.3462 61.864 13.1745 61.8311C13.0292 61.8159 12.8916 61.758 12.7792 61.6647C12.6653 61.5631 12.5824 61.4315 12.5399 61.285C12.4964 61.1454 12.4771 60.9994 12.4827 60.8533C12.484 60.6932 12.5067 60.534 12.5503 60.38C12.5998 60.2029 12.6606 60.0292 12.7324 59.8599C12.8085 59.6805 12.8972 59.5067 12.9976 59.3397L13.0393 59.2773C13.0499 59.2629 13.0586 59.2472 13.0653 59.2305C13.0653 59.2305 13.0653 59.2305 13.0653 59.1993C13.0893 59.1742 13.1103 59.1463 13.1277 59.1161L13.1797 59.0329C13.2057 58.9994 13.23 58.9647 13.2525 58.9289L13.3149 58.8352L13.3981 58.7312L13.471 58.6376C13.601 58.4712 13.7414 58.3047 13.8974 58.1175C14.0535 57.9302 14.2199 57.7898 14.4176 57.6286C14.5934 57.4646 14.7792 57.3117 14.9741 57.1709C15.1693 57.0277 15.3724 56.8957 15.5826 56.7756C15.8122 56.6405 16.0522 56.524 16.3004 56.4271C16.5156 56.3406 16.7385 56.2744 16.9661 56.2295C17.1794 56.1827 17.3926 56.1515 17.6007 56.1254C17.8087 56.0994 18.0167 56.0942 18.2196 56.0942H21.023L17.2314 61.6907C16.9913 62.0409 16.7216 62.3697 16.4252 62.6737V62.6789ZM16.3576 60.6972L18.6305 57.3373H18.5317H18.334C18.2995 57.3424 18.2645 57.3424 18.23 57.3373H17.9439C17.7021 57.3391 17.4606 57.3565 17.221 57.3893C16.9738 57.4228 16.7289 57.4715 16.4876 57.535C16.2131 57.6182 15.9583 57.7562 15.7386 57.9406C15.4665 58.1664 15.2252 58.427 15.0209 58.7156L14.9897 58.7572H14.9637C14.9611 58.771 14.9611 58.7851 14.9637 58.7988C14.948 58.8184 14.9341 58.8393 14.9221 58.8612C14.9113 58.8855 14.8973 58.9083 14.8805 58.9289C14.7812 59.0632 14.6908 59.204 14.61 59.3502C14.53 59.4788 14.4621 59.6147 14.4072 59.7558C14.3619 59.8716 14.3424 59.9958 14.3499 60.1199C14.3601 60.2257 14.3958 60.3275 14.454 60.4164C14.4897 60.4657 14.5359 60.5065 14.5892 60.536C14.6435 60.5692 14.7034 60.5921 14.766 60.6036L14.9741 60.64C15.0502 60.648 15.1269 60.648 15.2029 60.64H15.593L16.3576 60.6972Z" fill="#B8BBBE"/>
<path d="M20.3677 61.8934C20.1911 61.8741 20.0169 61.8375 19.8475 61.7841C19.6998 61.7404 19.5656 61.6599 19.4575 61.5501C19.3537 61.4403 19.2833 61.3031 19.2546 61.1548C19.2254 61.0194 19.2254 60.8793 19.2546 60.7439C19.2773 60.585 19.3138 60.4284 19.3638 60.2758C19.4262 60.1042 19.4991 59.9377 19.5771 59.7557C19.6551 59.5737 19.7539 59.4228 19.8579 59.2356L19.8944 59.1836C19.906 59.163 19.9199 59.1438 19.936 59.1264L19.9724 59.0743C19.985 59.0527 19.9989 59.0319 20.014 59.0119C20.0123 58.9999 20.0123 58.9876 20.014 58.9755C20.0212 58.961 20.032 58.9485 20.0452 58.9391V58.9027V58.8715L20.1024 58.7987L20.1648 58.7155C20.2948 58.549 20.4249 58.3826 20.5653 58.2266C20.7057 58.0705 20.8514 57.9093 21.0126 57.7481C21.176 57.5845 21.3497 57.4316 21.5327 57.2904C21.7131 57.1451 21.9025 57.0114 22.0996 56.8899C22.3358 56.7356 22.5846 56.6017 22.8434 56.4894C23.0703 56.3928 23.3053 56.3162 23.5456 56.2605C23.7653 56.2106 23.9875 56.1725 24.2113 56.1461C24.4218 56.1196 24.6337 56.1057 24.8458 56.1045H27.0979L26.2709 57.3164H24.2425C24.0366 57.3204 23.8313 57.3412 23.6288 57.3788C23.4416 57.4085 23.2572 57.4537 23.0774 57.514C22.8849 57.5846 22.7082 57.6924 22.5573 57.8313C22.3612 58.0058 22.1866 58.2031 22.0372 58.419H25.5116L24.6846 59.6309H21.2779C21.149 59.8165 21.0474 60.0197 20.9762 60.2342C20.9346 60.3902 20.9762 60.4995 21.0438 60.5567C21.1519 60.617 21.2699 60.6575 21.3923 60.6763C21.5812 60.7082 21.7728 60.7222 21.9644 60.7179H24.0085L23.1919 61.8934H20.9554C20.7591 61.8938 20.5628 61.8833 20.3677 61.8622" fill="#B8BBBE"/>
<path d="M28.6063 56.0995L30.0314 54.019H31.5917L30.1666 56.0995H31.7841L31.004 57.2542H29.3604L27.7741 59.6051C27.6084 59.8128 27.4784 60.0465 27.3892 60.2968C27.3424 60.4685 27.3892 60.5725 27.4776 60.6193C27.6041 60.6778 27.7394 60.7147 27.8781 60.7285C28.0836 60.7511 28.2903 60.7615 28.497 60.7597H28.6063L27.8313 61.8936H26.4322C26.1955 61.9068 25.9589 61.8658 25.7404 61.7739C25.665 61.7414 25.5983 61.6914 25.5458 61.6282C25.4934 61.5649 25.4567 61.4901 25.4388 61.4099C25.4054 61.2235 25.4215 61.0315 25.4856 60.8533C25.5867 60.5877 25.7213 60.336 25.8861 60.1044L27.8209 57.2593H26.7494L27.5348 56.1047L28.6063 56.0995Z" fill="#B8BBBE"/>
<path d="M35.6122 53.993L34.1871 56.0734H35.555C35.8611 56.0704 36.1661 56.1125 36.46 56.1982C36.6629 56.2572 36.8438 56.3748 36.9801 56.5363C37.0398 56.6307 37.0762 56.738 37.0861 56.8493C37.0961 56.9605 37.0793 57.0726 37.0373 57.176C36.9175 57.5471 36.7422 57.8978 36.5172 58.2163L34.0362 61.8571H32.4759L34.8476 58.3567C34.9563 58.2112 35.0455 58.0521 35.1129 57.8834C35.1604 57.7867 35.1768 57.6777 35.1597 57.5713C35.1422 57.5279 35.1147 57.4893 35.0795 57.4586C35.0442 57.4278 35.0022 57.4059 34.9568 57.3945C34.8095 57.3542 34.6569 57.3367 34.5043 57.3425H33.2977L30.229 61.8675H28.7363L34.0935 53.9565L35.6122 53.993Z" fill="#B8BBBE"/>
<path d="M37.3702 61.8934C37.1937 61.8738 37.0195 61.8372 36.85 61.7841C36.7023 61.7404 36.5681 61.6599 36.46 61.5501C36.3599 61.4384 36.2916 61.3019 36.2623 61.1548C36.2331 61.0194 36.2331 60.8793 36.2623 60.7439C36.285 60.585 36.3215 60.4284 36.3715 60.2758C36.434 60.0983 36.507 59.9246 36.59 59.7557C36.6732 59.5893 36.7616 59.4228 36.8656 59.2356C36.8807 59.2204 36.893 59.2028 36.9021 59.1836L36.9437 59.1264C36.9587 59.1112 36.971 59.0936 36.9801 59.0743L37.0217 59.0119V58.9755L37.0529 58.9391V58.9027V58.8715L37.1101 58.7987L37.1725 58.7155C37.2973 58.549 37.4326 58.3826 37.5678 58.2266C37.703 58.0705 37.8591 57.9093 38.0203 57.748C38.1848 57.5857 38.3584 57.4328 38.5404 57.2904C38.7217 57.1463 38.911 57.0126 39.1073 56.8899C39.3459 56.7366 39.5964 56.6027 39.8563 56.4894C40.0827 56.3913 40.3178 56.3146 40.5585 56.2605C40.7764 56.2107 40.9969 56.1725 41.219 56.1461C41.4295 56.1198 41.6414 56.1059 41.8535 56.1045H44.1056L43.2787 57.3164H41.2502C41.0443 57.3206 40.839 57.3415 40.6365 57.3788C40.4599 57.4104 40.286 57.4556 40.1164 57.514C39.9238 57.5846 39.7471 57.6924 39.5962 57.8313C39.4014 58.0071 39.227 58.2042 39.0761 58.419H42.5505L41.7235 59.6309H38.2804C38.1503 59.8166 38.047 60.0197 37.9735 60.2342C37.9319 60.3902 37.9735 60.4995 38.0411 60.5567C38.1511 60.6169 38.2708 60.6574 38.3948 60.6763C38.5837 60.7087 38.7753 60.7226 38.9669 60.7179H41.011L40.1944 61.8934H37.9683C37.7719 61.8941 37.5757 61.8836 37.3806 61.8622" fill="#B8BBBE"/>
<path d="M47.684 56.0996C47.9862 56.085 48.288 56.1365 48.5682 56.2504C48.6075 56.2663 48.6433 56.29 48.6733 56.3199C48.7033 56.3499 48.727 56.3855 48.743 56.4248C48.759 56.4641 48.767 56.5062 48.7664 56.5486C48.7659 56.591 48.7569 56.6329 48.7399 56.6717C48.6582 56.8992 48.5554 57.1186 48.433 57.3271C48.2874 57.5819 48.1105 57.8472 47.9129 58.1801L47.8505 58.2529C47.8344 58.2842 47.8153 58.3138 47.7933 58.3413C47.7811 58.3556 47.7706 58.3713 47.762 58.3881V58.4297L47.7204 58.4869C47.7204 58.4869 47.7204 58.4869 47.6892 58.5285H46.2277L46.2693 58.4765C46.2801 58.4522 46.2941 58.4295 46.3109 58.4089C46.3185 58.396 46.3293 58.3853 46.3421 58.3777V58.3413C46.4864 58.1368 46.6201 57.925 46.7426 57.7067C46.831 57.5455 46.8675 57.4467 46.8466 57.4051C46.8258 57.3635 46.7582 57.3271 46.623 57.3011C46.4228 57.2767 46.2213 57.2663 46.0197 57.2699H45.8532L42.6909 61.9509H41.1306L45.0627 56.1464L47.684 56.0996Z" fill="#B8BBBE"/>
<path d="M55.054 56.0995L56.4791 54.019H58.0395L56.6144 56.0995H58.2319L57.4518 57.2542H55.829L54.2427 59.6051C54.077 59.8128 53.9469 60.0465 53.8578 60.2968C53.811 60.4685 53.8578 60.5725 53.9462 60.6193C54.0729 60.6771 54.2082 60.714 54.3467 60.7285C54.5522 60.7511 54.7589 60.7615 54.9656 60.7597H55.0644L54.2999 61.904H52.9008C52.6641 61.9172 52.4275 61.8762 52.209 61.7843C52.1335 61.7518 52.0668 61.7018 52.0144 61.6386C51.962 61.5753 51.9253 61.5005 51.9073 61.4203C51.8745 61.2279 51.8942 61.0302 51.9646 60.8481C52.0657 60.5825 52.2003 60.3308 52.365 60.0992L54.2999 57.2542H53.218L54.0034 56.0995H55.054Z" fill="#B8BBBE"/>
<path d="M59.8391 61.5762C59.6065 61.6788 59.3666 61.764 59.1213 61.831C58.9601 61.8726 58.8092 61.909 58.6584 61.935C58.5076 61.961 58.362 61.9819 58.2163 61.9923H57.9979H57.7846C57.5893 61.9914 57.3945 61.974 57.2021 61.9402C57.0246 61.913 56.8503 61.8677 56.682 61.805C56.543 61.7454 56.416 61.6608 56.3075 61.5554C56.2075 61.4545 56.1327 61.3316 56.0891 61.1965C56.0437 61.0483 56.0226 60.8937 56.0266 60.7388C56.0329 60.5622 56.0626 60.3873 56.1151 60.2187C56.1874 60.0175 56.2726 59.8212 56.3699 59.6309C56.479 59.4204 56.5988 59.2155 56.7288 59.0172C56.8744 58.8144 57.0253 58.6115 57.1917 58.4139C57.3581 58.2162 57.5454 58.0186 57.7534 57.8157C57.9557 57.6314 58.1675 57.4578 58.388 57.2956C58.6061 57.126 58.8354 56.9713 59.0745 56.8327C59.3021 56.7025 59.5365 56.5844 59.7767 56.479C60.0099 56.378 60.2497 56.2929 60.4944 56.2242C60.7275 56.162 60.9636 56.1117 61.2018 56.0734C61.4184 56.0371 61.6375 56.018 61.8571 56.0161C62.0476 56.0153 62.2376 56.0345 62.424 56.0734C62.6016 56.108 62.7756 56.1585 62.9442 56.2242C63.0867 56.2825 63.2159 56.3692 63.3238 56.479C63.4216 56.5796 63.4961 56.7003 63.5423 56.8327C63.5913 56.9818 63.6107 57.1391 63.5995 57.2956C63.5905 57.4723 63.5591 57.6471 63.5059 57.8157C63.4383 58.0198 63.3584 58.2195 63.2666 58.4139C63.1692 58.6263 63.0507 58.8284 62.9129 59.0172C62.7715 59.2325 62.6151 59.4376 62.4448 59.6309C62.2648 59.837 62.0739 60.0332 61.8727 60.2187C61.6752 60.4043 61.4668 60.578 61.2486 60.7388C61.0274 60.905 60.7964 61.0579 60.5568 61.1965C60.3263 61.3311 60.0884 61.4527 59.8443 61.5606L59.8391 61.5762ZM58.2527 60.6972C58.27 60.7106 58.2893 60.7211 58.3099 60.7284H58.3672H58.4244C58.5963 60.7595 58.7725 60.7595 58.9445 60.7284C59.1546 60.6899 59.359 60.6253 59.553 60.5359C59.7696 60.4466 59.9755 60.3332 60.1667 60.1979C60.3654 60.0582 60.5516 59.9015 60.7233 59.7298C60.7827 59.671 60.8383 59.6085 60.8897 59.5425C60.9469 59.4801 60.9989 59.4073 61.0613 59.3345C61.1249 59.2655 61.184 59.1926 61.2382 59.116L61.3942 58.8924C61.4925 58.743 61.5761 58.5845 61.6439 58.4191C61.7033 58.276 61.7503 58.1281 61.7843 57.977C61.8162 57.8524 61.8162 57.7218 61.7843 57.5973C61.7403 57.4897 61.6616 57.4 61.5607 57.3424L61.4826 57.3008H61.3994H61.3006H61.2018C61.1189 57.2904 61.035 57.2904 60.9521 57.3008C60.8628 57.3078 60.7741 57.3218 60.6869 57.3424C60.5899 57.3599 60.4943 57.3842 60.4008 57.4152C60.302 57.4465 60.2032 57.4881 60.1043 57.5297C59.8951 57.6218 59.6948 57.7333 59.5062 57.8625C59.3187 57.9905 59.1445 58.1368 58.9861 58.2994L58.7988 58.4971L58.622 58.6999C58.5673 58.761 58.5185 58.8272 58.4764 58.8976L58.3516 59.0952C58.2356 59.2574 58.1379 59.4318 58.0603 59.6153C57.9943 59.7672 57.9455 59.926 57.9147 60.0886C57.8866 60.2206 57.8974 60.358 57.9459 60.4839C58.001 60.5935 58.0931 60.6801 58.2059 60.7284H58.2475" fill="#B8BBBE"/>
<path d="M70.5898 56.0995L72.0149 54.019H73.5493L72.1242 56.0995H73.7417L72.9615 57.2542H71.3388L69.7785 59.6051C69.6128 59.8128 69.4827 60.0465 69.3936 60.2968C69.3468 60.4685 69.3936 60.5725 69.482 60.6193C69.6084 60.6778 69.7438 60.7147 69.8825 60.7285C70.088 60.7511 70.2947 60.7615 70.5014 60.7597H70.6002L69.8357 61.904H68.4366C68.1999 61.9172 67.9633 61.8762 67.7448 61.7843C67.6693 61.7518 67.6026 61.7018 67.5502 61.6386C67.4978 61.5753 67.4611 61.5005 67.4431 61.4203C67.4103 61.2279 67.43 61.0302 67.5004 60.8481C67.6016 60.5835 67.7343 60.332 67.8956 60.0992L69.8357 57.2542H68.7538L69.5392 56.0995H70.5898Z" fill="#B8BBBE"/>
<path d="M77.5906 53.9932L76.1655 56.0736H77.5334C77.8395 56.0706 78.1444 56.1127 78.4384 56.1984C78.64 56.2601 78.8203 56.3772 78.9585 56.5365C79.0312 56.6315 79.0784 56.7434 79.0957 56.8618C79.113 56.9801 79.0998 57.1009 79.0573 57.2127C78.9353 57.5828 78.7601 57.9332 78.5372 58.2529L76.051 61.8937H74.4907L76.8624 58.3933C76.9694 58.2467 77.0584 58.0878 77.1277 57.92C77.1752 57.8234 77.1916 57.7143 77.1745 57.608C77.157 57.5646 77.1295 57.5259 77.0943 57.4952C77.059 57.4645 77.017 57.4425 76.9716 57.4311C76.8242 57.3917 76.6717 57.3742 76.5191 57.3791H75.3125L72.2438 61.9041H70.7355L76.0978 53.9932H77.5906Z" fill="#B8BBBE"/>
<path d="M79.3486 61.8937C79.172 61.8746 78.9978 61.838 78.8284 61.7845C78.6807 61.7408 78.5465 61.6602 78.4384 61.5504C78.3383 61.4388 78.27 61.3022 78.2407 61.1552C78.2115 61.0198 78.2115 60.8797 78.2407 60.7443C78.2634 60.5854 78.2999 60.4287 78.3499 60.2762C78.4124 60.0986 78.4854 59.925 78.5684 59.7561C78.6516 59.5896 78.74 59.4232 78.844 59.2359C78.8574 59.2195 78.8696 59.2021 78.8805 59.1839L78.9221 59.1267C78.9371 59.1116 78.9494 59.094 78.9585 59.0747L79.0001 59.0123C78.9984 59.0002 78.9984 58.988 79.0001 58.9759L79.0313 58.9395V58.9031V58.8719C79.0484 58.8461 79.0675 58.8217 79.0885 58.799C79.1105 58.7734 79.1297 58.7455 79.1457 58.7158C79.2757 58.5494 79.411 58.383 79.5462 58.2269C79.6814 58.0709 79.8375 57.9096 79.9987 57.7484C80.1632 57.586 80.3368 57.4332 80.5188 57.2907C80.7001 57.1467 80.8894 57.013 81.0857 56.8902C81.3237 56.7359 81.5742 56.6019 81.8347 56.4897C82.0611 56.3916 82.2962 56.315 82.5369 56.2609C82.7622 56.219 82.9896 56.1895 83.2182 56.1725C83.4287 56.146 83.6406 56.1321 83.8527 56.1309H86.1048L85.2987 57.3115H83.2702C83.0643 57.3155 82.859 57.3364 82.6565 57.3739C82.4799 57.4056 82.306 57.4508 82.1364 57.5092C81.9438 57.5797 81.7671 57.6875 81.6163 57.8264C81.4214 58.0023 81.247 58.1994 81.0961 58.4142H84.5705L83.7383 59.6156H80.2796C80.1475 59.8001 80.044 60.0035 79.9727 60.219C79.9311 60.375 79.9727 60.4842 80.0403 60.5414C80.1503 60.6017 80.27 60.6422 80.394 60.6611C80.5829 60.6934 80.7745 60.7074 80.9661 60.7027H83.005L82.178 61.8937H79.9467C79.7503 61.8944 79.5541 61.884 79.359 61.8625" fill="#B8BBBE"/>
<path d="M94.2342 56.0993C94.5485 56.0975 94.8616 56.1377 95.1652 56.2189C95.3777 56.2697 95.5688 56.3862 95.7113 56.5518C95.7682 56.6485 95.8016 56.7573 95.8088 56.8693C95.8161 56.9813 95.7969 57.0934 95.7529 57.1967C95.63 57.5665 95.4549 57.9168 95.2328 58.2369L92.7467 61.8777H91.2123L93.5737 58.3878C93.6908 58.2255 93.7902 58.0511 93.8701 57.8677C93.9223 57.7706 93.9424 57.6595 93.9273 57.5504C93.9065 57.4845 93.8389 57.4325 93.7245 57.3944C93.572 57.3534 93.4142 57.3359 93.2564 57.3423H92.0341L88.9394 61.8933H87.4103L91.3424 56.0889L94.2342 56.0993Z" fill="#B8BBBE"/>
<path d="M96.0286 61.8934C95.8521 61.8738 95.6779 61.8372 95.5085 61.7841C95.3607 61.7404 95.2265 61.6599 95.1184 61.5501C95.0183 61.4384 94.9501 61.3019 94.9208 61.1548C94.8829 61.0213 94.874 60.8812 94.8947 60.7439C94.9174 60.585 94.954 60.4284 95.004 60.2758C95.0665 60.0983 95.1394 59.9246 95.2224 59.7557C95.3056 59.5893 95.3941 59.4228 95.4981 59.2356C95.5131 59.2204 95.5254 59.2028 95.5345 59.1836L95.5761 59.1264C95.5911 59.1112 95.6034 59.0936 95.6125 59.0743L95.6541 59.0119V58.9755L95.6853 58.9391V58.9027V58.8715L95.7425 58.7987L95.8049 58.7155C95.9298 58.549 96.065 58.3826 96.2002 58.2266C96.3355 58.0705 96.4915 57.9093 96.6527 57.748C96.8172 57.5857 96.9909 57.4328 97.1729 57.2904C97.3542 57.1463 97.5434 57.0126 97.7398 56.8899C97.9783 56.7366 98.2288 56.6027 98.4887 56.4894C98.7151 56.3913 98.9502 56.3146 99.1909 56.2605C99.4089 56.2107 99.6294 56.1725 99.8514 56.1461C100.062 56.1198 100.274 56.1059 100.486 56.1045H102.738L101.942 57.3112H99.9139C99.7079 57.3154 99.5027 57.3363 99.3001 57.3736C99.1235 57.4052 98.9496 57.4504 98.78 57.5088C98.5875 57.5794 98.4107 57.6872 98.2599 57.8261C98.0651 58.0019 97.8906 58.199 97.7398 58.4138H101.214L100.382 59.6153H96.9232C96.7931 59.801 96.6898 60.0041 96.6163 60.2186C96.5747 60.3746 96.6163 60.4839 96.6839 60.5411C96.7939 60.6013 96.9136 60.6418 97.0376 60.6607C97.2265 60.693 97.4181 60.707 97.6097 60.7023H99.6538L98.8528 61.8934H96.6163C96.42 61.8941 96.2238 61.8836 96.0286 61.8622" fill="#B8BBBE"/>
<path d="M103.118 56.0996H104.902L104.954 57.8524L107.424 56.0996H109.187L105.037 59.0435L105.219 61.9093H103.435L103.341 60.2189L100.975 61.9093H99.2013L103.3 59.007L103.118 56.0996Z" fill="#B8BBBE"/>
<path d="M110.363 56.0995L111.788 54.019H113.322L111.897 56.0995H113.515L112.735 57.2542H111.112L109.552 59.6051C109.386 59.8128 109.256 60.0465 109.167 60.2968C109.12 60.4685 109.167 60.5725 109.255 60.6193C109.382 60.6771 109.517 60.714 109.656 60.7285C109.861 60.7511 110.068 60.7615 110.274 60.7597H110.373L109.609 61.904H108.184C107.947 61.9172 107.71 61.8762 107.492 61.7843C107.416 61.7518 107.35 61.7018 107.297 61.6386C107.245 61.5753 107.208 61.5005 107.19 61.4203C107.157 61.2279 107.177 61.0302 107.247 60.8481C107.349 60.5825 107.483 60.3308 107.648 60.0992L109.583 57.2542H108.501L109.286 56.0995H110.363Z" fill="#B8BBBE"/>
<path d="M114.727 61.9041L120.084 53.9932H121.686L116.323 61.9041H114.727Z" fill="#B8BBBE"/>
<path d="M119.626 61.8934C119.45 61.8746 119.275 61.838 119.106 61.7841C118.958 61.7415 118.823 61.6608 118.716 61.5501C118.612 61.4402 118.542 61.3031 118.513 61.1548C118.484 61.0194 118.484 60.8793 118.513 60.7439C118.536 60.585 118.572 60.4284 118.622 60.2758C118.685 60.1042 118.758 59.9377 118.836 59.7557C118.914 59.5737 119.012 59.4228 119.116 59.2356L119.153 59.1836C119.164 59.163 119.178 59.1438 119.194 59.1264L119.231 59.0743C119.243 59.0527 119.257 59.0319 119.272 59.0119C119.271 58.9999 119.271 58.9876 119.272 58.9755C119.28 58.961 119.29 58.9485 119.304 58.9391C119.304 58.9391 119.304 58.9391 119.304 58.9027C119.304 58.8663 119.304 58.8767 119.304 58.8715L119.361 58.7987L119.423 58.7155C119.553 58.549 119.683 58.3826 119.824 58.2266C119.964 58.0705 120.11 57.9093 120.271 57.7481C120.434 57.5845 120.608 57.4316 120.791 57.2904C120.972 57.1451 121.161 57.0114 121.358 56.8899C121.594 56.7356 121.843 56.6017 122.102 56.4894C122.329 56.392 122.564 56.3154 122.804 56.2605C123.024 56.2106 123.246 56.1725 123.47 56.1461C123.68 56.1195 123.892 56.1056 124.104 56.1045H126.356L125.529 57.3164H123.501C123.295 57.3204 123.09 57.3412 122.887 57.3788C122.7 57.4085 122.516 57.4537 122.336 57.514C122.145 57.587 121.968 57.6945 121.816 57.8313C121.621 58.0071 121.447 58.2042 121.296 58.419H124.77L123.943 59.6309H120.484C120.355 59.8165 120.254 60.0197 120.183 60.2342C120.141 60.3902 120.183 60.4995 120.25 60.5567C120.358 60.617 120.476 60.6575 120.599 60.6763C120.788 60.7084 120.979 60.7224 121.171 60.7179H123.215L122.461 61.8934H120.224C120.025 61.9045 119.825 61.9045 119.626 61.8934Z" fill="#B8BBBE"/>
<path d="M128.447 56.0996L127.251 60.2189L131.76 56.0996H133.414L126.903 61.9093H125.249L126.726 56.0996H128.447Z" fill="#B8BBBE"/>
<path d="M132.166 61.8934C131.99 61.8738 131.815 61.8372 131.646 61.7841C131.498 61.7404 131.364 61.6599 131.256 61.5501C131.156 61.4384 131.088 61.3019 131.058 61.1548C131.02 61.0213 131.011 60.8812 131.032 60.7439C131.055 60.585 131.091 60.4284 131.141 60.2758C131.204 60.0983 131.277 59.9246 131.36 59.7557C131.443 59.5893 131.532 59.4228 131.636 59.2356C131.651 59.2204 131.663 59.2028 131.672 59.1836L131.714 59.1264C131.729 59.1112 131.741 59.0936 131.75 59.0743L131.792 59.0119V58.9755L131.823 58.9391V58.9027V58.8715C131.84 58.8457 131.859 58.8214 131.88 58.7987L131.942 58.7155C132.067 58.549 132.202 58.3826 132.338 58.2266C132.473 58.0705 132.629 57.9093 132.79 57.748C132.955 57.5857 133.128 57.4328 133.31 57.2904C133.492 57.1463 133.681 57.0126 133.877 56.8899C134.116 56.7366 134.366 56.6027 134.626 56.4894C134.853 56.3913 135.088 56.3146 135.328 56.2605C135.546 56.2107 135.767 56.1725 135.989 56.1461C136.199 56.1198 136.411 56.1059 136.623 56.1045H138.876L138.049 57.3164H136.02C135.814 57.3206 135.609 57.3415 135.406 57.3788C135.221 57.4091 135.038 57.4543 134.86 57.514C134.668 57.5846 134.491 57.6924 134.34 57.8313C134.145 58.0071 133.971 58.2042 133.82 58.419H137.294L136.467 59.6309H133.009C132.879 59.8166 132.775 60.0197 132.702 60.2342C132.66 60.3902 132.702 60.4995 132.769 60.5567C132.879 60.6169 132.999 60.6574 133.123 60.6763C133.312 60.7087 133.504 60.7226 133.695 60.7179H135.739L134.99 61.8934H132.754C132.557 61.8941 132.361 61.8836 132.166 61.8622" fill="#B8BBBE"/>
<path d="M135.947 61.9041L141.304 53.9932H142.901L137.544 61.9041H135.947Z" fill="#B8BBBE"/>
<path d="M37.365 46.7012L42.2592 39.5808H22.6197C22.4075 39.6039 22.194 39.5499 22.0183 39.4286C21.8426 39.3073 21.7164 39.1269 21.6627 38.9203C21.594 38.7265 21.578 38.518 21.6164 38.316C21.6548 38.114 21.7462 37.9259 21.8812 37.7708L27.9873 29.1733H18.5056L11.2917 38.9359C11.2917 38.9359 10.0018 41.0891 9.90815 43.05C9.89052 43.9756 10.2323 44.8721 10.8618 45.551C11.4913 46.2299 12.3593 46.6385 13.2837 46.6908" fill="#B8BBBE"/>
<path d="M59.0121 15.1823L53.7798 22.8852H23.6132C24.9654 20.95 26.6362 19.2582 28.5542 17.8817C30.6102 16.4079 32.9894 15.4484 35.4926 15.0835L59.0121 15.1823Z" fill="#B8BBBE"/>
<path d="M41.115 46.6386L52.932 29.2876H61.9403L50.6643 46.6386" fill="#B8BBBE"/>
<path d="M77.2213 46.6387L74.9848 35.7163C74.9848 35.7163 79.5774 34.7281 82.464 32.2472C84.6381 30.3904 87.7432 23.4469 87.7432 23.4469C88.0535 22.4436 88.2643 21.4123 88.3725 20.3678C88.4974 18.8594 87.6028 17.1119 87.2387 16.597C86.879 16.1108 86.3983 15.7273 85.8444 15.4846C85.2906 15.2419 84.6828 15.1484 84.0816 15.2134H62.4813L57.5194 22.7551H76.3683C76.6327 22.7301 76.8994 22.7637 77.1494 22.8536C77.3993 22.9435 77.6263 23.0875 77.8142 23.2752C78.0195 23.4763 78.177 23.7209 78.2751 23.9909C78.3732 24.261 78.4095 24.5496 78.3811 24.8356C78.3811 25.1476 77.3097 26.9732 76.6232 27.7898C75.9281 28.5012 75.0609 29.0208 74.1058 29.2981C73.7643 29.3753 73.4157 29.4172 73.0656 29.423H64.4317L67.9841 46.6491" fill="#B8BBBE"/>
<path d="M99.6798 15.1455H108.917L103.685 22.812H94.5359L99.6798 15.1455Z" fill="#B8BBBE"/>
<path d="M78.5164 46.6386L90.3178 29.2876H99.1961L87.5664 46.6386" fill="#B8BBBE"/>
<path d="M112.75 15.1455H142.412L136.946 22.812H107.606L112.75 15.1455Z" fill="#B8BBBE"/>
<path d="M91.4568 46.6386L103.263 29.2876H123.433L117.853 37.1465H107.045L100.507 46.6386" fill="#B8BBBE"/>
<path d="M16.5136 9.19548C19.3794 8.20726 20.5705 7.69235 22.1516 9.36192C23.1719 10.502 23.9788 11.8163 24.5338 13.242C23.5008 14.1902 22.2898 14.9239 20.971 15.4004C19.9214 15.7533 18.8421 16.0109 17.7463 16.1702C17.7463 16.1702 18.1728 14.6411 18.6305 13.3824C19.0882 12.1237 20.4457 9.22149 20.4457 9.22149L19.0518 9.06025C17.9012 10.687 16.9249 12.4303 16.1391 14.2614C15.4893 15.845 14.9676 17.4782 14.5788 19.1453C14.5788 19.1453 19.6603 18.5731 22.5989 17.6265C25.5376 16.6799 27.7169 15.8217 28.2786 15.1924C28.8403 14.5631 29.8857 13.1119 30.5567 9.25789C30.9211 7.38866 30.7682 5.45541 30.1146 3.66667C30.1146 3.66667 29.7453 3.50024 28.2266 4.18679C27.9577 4.30984 27.6956 4.44699 27.4412 4.59768C26.872 4.97135 26.3721 5.44127 25.9641 5.98638C26.4426 7.02661 26.9211 8.61815 26.5518 10.0433C24.8666 7.4791 23.3687 6.13201 21.98 5.66391C19.9724 4.99296 18.9165 5.32063 14.844 7.15143C11.2917 8.73258 4.76945 12.545 1.45632 14.5891L0.046814 15.4629C0.046814 15.4629 13.4345 10.2617 16.5136 9.22149" fill="#B8BBBE"/>
<path d="M23.0878 5.25315C24.1167 4.28064 25.2733 3.45297 26.5258 2.79301C28.5984 1.7193 30.7409 0.786189 32.9388 0C30.4306 0.560515 27.9971 1.41417 25.6884 2.54336C24.4235 3.22193 23.2284 4.0233 22.1204 4.93588L23.0878 5.25315Z" fill="#B8BBBE"/>
</g>
</svg>
