<svg width="30" height="40" viewBox="0 0 30 40" fill="none" xmlns="http://www.w3.org/2000/svg">
<path d="M21.4062 0.546875C21.7969 0.234375 22.2656 0 22.7344 0C24.0625 0 25 1.40625 24.5312 2.65625L19.2188 17.5H27.8125C28.9844 17.5 30 18.5156 30 19.6094C30 20.2344 29.6875 20.8594 29.2188 21.25L8.51562 39.5312C8.125 39.8438 7.65625 40 7.1875 40C5.85938 40 4.92188 38.6719 5.39062 37.4219L10.7031 22.5H1.95312C0.859375 22.5 0 21.6406 0 20.5469C0 19.9219 0.234375 19.375 0.625 18.9844L21.4062 0.546875ZM21.4844 3.82812L3.28125 20H12.5C12.8906 20 13.2812 20.2344 13.5156 20.5469C13.75 20.8594 13.75 21.3281 13.6719 21.7188L8.4375 36.25L26.7969 20H17.5C17.0312 20 16.6406 19.8438 16.4062 19.5312C16.1719 19.1406 16.1719 18.75 16.25 18.3594L21.4844 3.82812Z" fill="#1D1E20"/>
</svg>
