<svg width="51" height="54" viewBox="0 0 51 54" fill="none" xmlns="http://www.w3.org/2000/svg">
<g id="Isolation_Mode" clip-path="url(#clip0_573_278)">
<path id="Vector" d="M43.4931 26.8343C43.4931 25.3117 43.4822 23.8002 43.4978 22.2886C43.5056 21.405 43.465 20.5088 43.6023 19.6425C43.9126 17.6939 45.5861 16.4632 47.6167 16.5863C49.3572 16.6904 50.8746 18.2241 50.9573 20.0843C51.029 21.7143 50.99 23.3505 50.9932 24.9835C50.9963 27.759 50.9854 30.5328 51.001 33.3082C51.0041 33.8826 50.8668 34.367 50.5471 34.8498C48.1968 38.392 45.8699 41.9501 43.5259 45.497C43.3216 45.8079 43.1625 46.0714 43.3902 46.4501C43.4806 46.6015 43.4619 46.8303 43.4635 47.0244C43.4682 48.8736 43.4682 50.7244 43.465 52.5737C43.4635 53.5977 43.0689 53.9953 42.0443 53.9969C37.9784 54 33.9126 54 29.8483 53.9969C28.78 53.9969 28.4197 53.6261 28.4197 52.5437C28.4197 50.6944 28.4057 48.8436 28.4322 46.9944C28.4369 46.6646 28.6303 46.3412 28.7036 46.0083C28.7535 45.7795 28.8065 45.5254 28.7597 45.3045C28.479 44.0107 28.295 42.7169 28.5149 41.3883C29.1059 37.8208 31.0835 35.3957 34.4085 34.1129C34.9513 33.9031 35.324 33.6143 35.6328 33.1283C36.6434 31.541 37.7383 30.009 38.7114 28.4011C39.8078 26.5898 41.7729 26.0864 43.2748 26.8233C43.3216 26.8454 43.3855 26.8312 43.4931 26.8359V26.8343ZM48.8409 26.8201C48.8409 24.7153 48.8519 22.6089 48.8363 20.504C48.8269 19.3175 47.9738 18.5854 46.9024 18.8047C46.1335 18.9625 45.6734 19.5763 45.6719 20.493C45.6656 23.5619 45.6906 26.6324 45.6485 29.7013C45.6422 30.2157 45.4707 30.7931 45.1993 31.2286C44.0904 33.0084 42.9145 34.7441 41.7635 36.4939C41.2255 37.3128 40.6999 38.1396 40.1384 38.9427C39.7782 39.4586 39.1232 39.5596 38.6444 39.2267C38.1859 38.908 38.0611 38.2926 38.3527 37.7577C38.4276 37.6205 38.518 37.4911 38.6038 37.3601C39.669 35.7397 40.7373 34.1208 41.8025 32.5004C42.1893 31.9118 42.5932 31.3312 42.9551 30.7269C43.2389 30.2535 43.2311 29.7518 42.9223 29.28C42.6073 28.7988 42.1191 28.5857 41.6091 28.7593C41.2395 28.8855 40.8574 29.1822 40.6328 29.5088C39.4819 31.1892 38.3527 32.8854 37.2751 34.6147C36.8134 35.3563 36.2426 35.8107 35.4145 36.0821C33.0236 36.8647 31.464 38.5056 30.8028 40.9749C30.4316 42.365 30.6515 43.7377 30.9431 45.1152C31.032 45.5317 31.1599 45.6564 31.5748 45.6548C34.5115 45.6375 37.4482 45.639 40.3849 45.6548C40.742 45.6564 40.9416 45.5349 41.1319 45.2414C43.6054 41.453 46.0945 37.6741 48.5618 33.881C48.7286 33.6238 48.8238 33.2688 48.8269 32.9579C48.8503 30.9115 48.8394 28.865 48.8378 26.8186L48.8409 26.8201ZM30.6078 51.7579H41.2458V47.8954H30.6078V51.7579Z" fill="black"/>
<path id="Vector_2" d="M7.50472 26.8485C8.00535 26.7286 8.44827 26.5582 8.90055 26.5267C10.2496 26.432 11.3241 26.97 12.0805 28.1124C13.2253 29.8448 14.3435 31.5947 15.5101 33.3114C15.7222 33.6222 16.0762 33.9094 16.4256 34.0372C20.3339 35.4699 22.7044 38.9174 22.5563 43.0956C22.5282 43.9129 22.3161 44.7239 22.1945 45.538C22.1757 45.6659 22.1383 45.8568 22.2023 45.9183C22.6686 46.3585 22.575 46.9234 22.5766 47.4677C22.5797 49.1986 22.5797 50.9311 22.5766 52.662C22.575 53.5819 22.1789 53.9937 21.2603 53.9953C17.118 54.0016 12.9757 54.0016 8.83349 53.9953C7.93517 53.9937 7.5328 53.5598 7.52968 52.6399C7.52656 50.7702 7.52968 48.902 7.52968 47.0323C7.52968 46.9139 7.48913 46.7688 7.54215 46.682C7.96012 46.0082 7.48913 45.5586 7.16785 45.0694C4.89866 41.6155 2.62166 38.1664 0.371181 34.6999C0.160637 34.3764 0.018715 33.9409 0.0171554 33.5559C-0.00779793 29.2279 0.00311917 24.8999 0 20.5703C0 19.0019 0.616036 17.7791 1.99627 17.0296C3.26421 16.3417 4.54931 16.4048 5.76111 17.1827C6.93548 17.9369 7.48913 19.0714 7.50005 20.4646C7.51564 22.3722 7.50472 24.2814 7.50472 26.1906C7.50472 26.4036 7.50472 26.615 7.50472 26.8485ZM19.9705 45.6201C20.0578 45.213 20.1389 44.8312 20.2216 44.4509C20.6645 42.3745 20.4041 40.4274 19.172 38.6618C18.2113 37.2859 16.8841 36.4355 15.3136 35.9637C14.6944 35.7791 14.2827 35.4194 13.9365 34.8782C12.7761 33.0621 11.5799 31.2681 10.3915 29.4693C9.88153 28.6962 9.1033 28.48 8.44516 28.906C7.75894 29.351 7.65133 30.1541 8.18314 30.9714C8.99725 32.2195 9.82071 33.4597 10.6395 34.703C11.2976 35.7018 11.9605 36.6958 12.6077 37.7009C12.89 38.1396 12.8822 38.6003 12.5593 39.0184C12.2615 39.4034 11.8248 39.5186 11.4068 39.3419C11.1261 39.2235 10.8656 38.9585 10.691 38.695C9.01908 36.183 7.35344 33.6664 5.72524 31.1261C5.48818 30.7568 5.34626 30.2551 5.34158 29.8133C5.30883 26.7633 5.32598 23.7118 5.3213 20.6602C5.3213 20.3873 5.31819 20.1017 5.24021 19.8461C5.01095 19.095 4.26703 18.6548 3.50751 18.7795C2.66845 18.9167 2.15379 19.5526 2.15223 20.4977C2.14755 24.69 2.14443 28.8839 2.16159 33.0763C2.16159 33.3477 2.27232 33.6538 2.42204 33.8825C4.90334 37.6678 7.40491 41.442 9.88621 45.2272C10.0936 45.5444 10.3135 45.658 10.6878 45.6564C13.6058 45.6406 16.5254 45.6485 19.4433 45.6453C19.6149 45.6453 19.7865 45.628 19.9705 45.6185V45.6201ZM20.3916 47.9048H9.75209V51.75H20.3916V47.9048Z" fill="black"/>
<path id="Vector_3" d="M11.6123 12.1289C11.6123 10.3775 11.6248 8.62607 11.6061 6.87466C11.5998 6.21828 11.8634 5.81751 12.4607 5.55874C16.6014 3.76632 20.7343 1.95969 24.8641 0.143596C25.3101 -0.0520558 25.7016 -0.0457444 26.1445 0.14833C30.2727 1.95969 34.4056 3.76158 38.5417 5.55717C39.1343 5.81435 39.3932 6.22617 39.3901 6.88097C39.376 10.1865 39.4228 13.4937 39.3714 16.7993C39.3074 20.9316 37.74 24.4155 34.6505 27.1247C31.9321 29.5088 29.1389 31.8045 26.3753 34.1334C25.7172 34.6888 25.2961 34.6967 24.6629 34.1634C21.8385 31.784 18.9767 29.4472 16.2131 26.9969C13.2218 24.3461 11.7324 20.9285 11.6232 16.9113C11.5796 15.3177 11.6154 13.7225 11.6154 12.1289H11.6139H11.6123ZM13.7801 12.7663C13.7879 12.7663 13.7957 12.7663 13.8035 12.7663C13.8035 14.3016 13.7411 15.8399 13.816 17.3705C13.9735 20.5672 15.2571 23.2747 17.6323 25.3764C20.0918 27.5507 22.6417 29.6192 25.1401 31.7493C25.4333 32.0002 25.6127 31.9544 25.8794 31.7272C28.3217 29.6524 30.8014 27.6217 33.2157 25.5137C35.7562 23.2937 37.1224 20.4488 37.1911 17.0423C37.2534 13.9734 37.2051 10.9029 37.2254 7.83241C37.2285 7.449 37.0757 7.28017 36.7513 7.13974C33.1486 5.57768 29.5522 3.99826 25.9449 2.44724C25.6969 2.33995 25.3273 2.33837 25.0809 2.44409C21.458 4.00457 17.8475 5.59503 14.2262 7.16341C13.8862 7.31015 13.7677 7.49475 13.7723 7.86397C13.791 9.49703 13.7801 11.1301 13.7801 12.7647V12.7663Z" fill="#EF7B10"/>
<path id="Vector_4" d="M23.8849 16.8356C25.772 14.9201 27.5608 13.0866 29.3762 11.2816C29.6163 11.0417 29.9906 10.8319 30.3166 10.8098C31.1323 10.7546 31.6298 11.6713 31.2133 12.3908C31.0979 12.5912 30.9279 12.7616 30.7642 12.9272C28.8287 14.8917 26.8902 16.8513 24.9501 18.8126C24.1172 19.6536 23.6759 19.652 22.8446 18.8126C21.9229 17.8817 20.9996 16.9523 20.0826 16.0167C19.5087 15.4313 19.465 14.7875 19.9547 14.3126C20.4351 13.8471 21.023 13.8945 21.5954 14.4735C22.3502 15.2356 23.0895 16.0135 23.8864 16.8371L23.8849 16.8356Z" fill="#EF7B10"/>
</g>
<defs>
<clipPath id="clip0_573_278">
<rect width="51" height="54" fill="white"/>
</clipPath>
</defs>
</svg>
