<?xml version="1.0" encoding="utf-8"?>
<!-- Generator: Adobe Illustrator 26.5.0, SVG Export Plug-In . SVG Version: 6.00 Build 0)  -->
<svg version="1.1" id="Layer_1" xmlns="http://www.w3.org/2000/svg" xmlns:xlink="http://www.w3.org/1999/xlink" x="0px" y="0px"
	 viewBox="0 0 40 38" style="enable-background:new 0 0 40 38;" xml:space="preserve">
<style type="text/css">
	.st0{fill:#003B79;}
</style>
<path class="st0" d="M35,7.5h-5V3.8c0-2-1.7-3.8-3.8-3.8H13.8C11.6,0,10,1.7,10,3.8v3.8H5c-2.8,0-5,2.3-5,5v20c0,2.8,2.2,5,5,5h30
	c2.7,0,5-2.2,5-5v-20C40,9.8,37.7,7.5,35,7.5z M12.5,3.8c0-0.6,0.5-1.2,1.2-1.2h12.5c0.6,0,1.2,0.6,1.2,1.2v3.8h-15V3.8z M7.5,35H5
	c-1.4,0-2.5-1.1-2.5-2.5v-20C2.5,11.2,3.6,10,5,10h2.5V35z M30,35H10V10h20V35z M37.5,32.5c0,1.4-1.2,2.5-2.5,2.5h-2.5V10H35
	c1.3,0,2.5,1.2,2.5,2.5V32.5z"/>
</svg>
